<?xml version="1.0" standalone="no"?>
<!DOCTYPE svg PUBLIC "-//W3C//DTD SVG 1.1//EN" "http://www.w3.org/Graphics/SVG/1.1/DTD/svg11.dtd" >
<svg>
<metadata>
Created by FontForge 20110222 at Mon Sep 30 09:42:59 2013
 By Orthosie Webhosting
FontShop by Sherlock
</metadata>
<defs>
<font id="TRHomewardBoundPlain" horiz-adv-x="1188" >
  <font-face 
    font-family="TRHomewardBoundPlain"
    font-weight="400"
    font-stretch="normal"
    units-per-em="2048"
    panose-1="2 11 5 0 0 0 0 0 0 0"
    ascent="1638"
    descent="-410"
    x-height="1313"
    cap-height="1704"
    bbox="-139 -549 2183 2255"
    underline-thickness="50"
    underline-position="-75"
    unicode-range="U+0020-F002"
  />
<missing-glyph horiz-adv-x="1024" 
d="M128 0v1751h768v-1751h-768zM256 128h512v1495h-512v-1495z" />
    <glyph glyph-name=".notdef" horiz-adv-x="1024" 
d="M128 0v1751h768v-1751h-768zM256 128h512v1495h-512v-1495z" />
    <glyph glyph-name=".null" horiz-adv-x="0" 
 />
    <glyph glyph-name="nonmarkingreturn" horiz-adv-x="592" 
 />
    <glyph glyph-name="space" unicode=" " horiz-adv-x="592" 
 />
    <glyph glyph-name="exclam" unicode="!" horiz-adv-x="664" 
d="M252 571q-99 217 -133 608q-15 162 -15 281q0 115 3 139q12 105 61 105h336q17 0 36 -11.5t19 -27.5q0 -11 -10 -33q-3 -7 -8 -20q-32 -77 -79 -194q-22 -63 -46 -189q-17 -86 -21 -205q-1 -17 7.5 -95.5t24.5 -231.5q5 -57 5 -105q0 -43 -71 -45l-54 -2q-47 9 -55 26z
M100 197q0 91 68.5 157t159.5 66q130 0 199 -108q32 -51 32 -115q0 -98 -66.5 -164t-164.5 -66q-93 0 -160.5 69t-67.5 161z" />
    <glyph glyph-name="dollar" unicode="$" 
d="M43 1243q0 207 172 346q77 62 172 82q63 13 73 18q36 16 36 56q0 25 10.5 36t42.5 11h63q25 0 25 -33q0 -55 67 -65l35 -6q145 -20 226 -48q47 -16 47 -53v-14q-17 -52 -56 -154q-14 -34 -28 -55q-6 -19 -29 -25q-28 7 -99 48q-61 36 -104 36q-53 0 -53 -84v-243
q0 -64 52 -92q18 -10 110 -43q129 -60 202 -131q56 -55 97 -147q44 -100 41 -218q-4 -151 -73 -260q-122 -193 -300 -201q-60 -3 -81 -12q-36 -16 -36 -64q0 -53 -43 -53h-63q-38 0 -43 45q-6 54 -37 68q-18 8 -67 10q-53 2 -83 10q-89 23 -188 80q-32 18 -47 33
q-9 8 -12 31l35 142q16 71 40 134q12 33 46 33q22 0 30 -8q121 -95 221 -117q56 6 56 117v223q0 55 -28 84q-23 22 -81 41q-348 113 -348 442zM500 1163v209q0 51 -47 51q-57 0 -99 -57q-39 -53 -39 -111q0 -78 80 -152q33 -31 58 -32q47 6 47 92zM647 420q1 -38 1 -39
q3 -24 16.5 -32.5t40.5 -8.5q161 21 167 160q3 81 -105 157q-44 31 -83 31q-42 0 -41 -59z" />
    <glyph glyph-name="percent" unicode="%" horiz-adv-x="1628" 
d="M96 1288q0 236 150 348q75 55 178 56q189 1 269 -226q34 -96 34 -190q0 -210 -148 -330q-71 -57 -159 -57q-216 0 -291 211q-33 91 -33 188zM532 1356q0 66 -26 119q-32 66 -90 73q-61 0 -98 -86q-29 -68 -29 -139q0 -73 24 -127q31 -72 95 -72q62 0 97 89q27 69 27 143z
M424 68l584 1527q42 109 118 132q33 10 78 10q92 0 92 -58q0 -17 -4 -26l-700 -1585q-18 -41 -58 -70q-43 -31 -85 -31q-36 0 -41 41q4 19 16 60zM903 356q0 175 77 289q89 131 253 131q188 0 270 -205q37 -95 37 -206q0 -140 -80 -260q-92 -138 -243 -138q-186 0 -275 206
q-39 90 -39 183zM1339 412q2 80 -29 153q-29 68 -85 68q-66 0 -102 -87q-27 -67 -27 -143q0 -73 26 -124q33 -66 99 -66q49 0 82 71q35 75 36 128z" />
    <glyph glyph-name="ampersand" unicode="&#x26;" horiz-adv-x="1960" 
d="M420 893q24 15 24 51q0 34 -33 94l-35 63q-22 40 -36 75q-19 73 -25 141q4 209 154 319q133 97 346 97q187 0 304.5 -100t117.5 -253q0 -125 -82 -239q-30 -41 -98 -100q-78 -66 -104 -95q-33 -38 -33 -82q47 -183 147 -205q29 7 66 50q232 268 499 268q140 0 203 -98
q29 -45 29 -91q0 -45 -23 -86q-27 -48 -69 -51q-20 3 -72 33q-48 29 -80 29q-140 0 -269 -161q-56 -70 -79 -136q5 -45 67 -66q21 -6 101 -18q110 7 188 67q34 21 39 21q14 0 12 -51q-7 -162 -98.5 -282t-249.5 -120q-121 0 -256 117q-38 33 -71 33q-21 0 -114 -50
q-108 -58 -126 -65q-92 -35 -215 -35q-445 0 -445 424q0 263 316 502zM780 465q-32 47 -98 137q-21 25 -53 57q-7 9 -29 9q-71 0 -136 -126q-28 -54 -28 -106q0 -11 4 -33q20 -56 65 -94q49 -41 105 -41q16 0 37 4q168 32 168 101q0 42 -35 92zM936 1372q0 123 -127 123
q-107 0 -145 -73q-17 -33 -17 -66q0 -64 33 -125q38 -71 96 -78q49 3 104.5 75t55.5 144z" />
    <glyph glyph-name="quotesingle" unicode="'" horiz-adv-x="696" 
d="M223 1171q-10 -1 -14 5q4 17 31 78q20 47 20 81q0 126 -108 164q-15 3 -44 15q-8 4 -8 6q3 6 25 28l203 160q32 25 71 25q100 0 160 -106q27 -50 33 -116q0 -175 -155 -277q-85 -56 -214 -63z" />
    <glyph glyph-name="parenleft" unicode="(" horiz-adv-x="944" 
d="M307 43q-76 170 -127 501q-31 198 -33 384q-2 175 36 347q45 202 132 320q104 142 277 142q116 0 172 -142q24 -62 24 -118q0 -15 -32 -21q-8 4 -25 4q-263 0 -316 -283q-22 -119 -24 -262q4 -43 4 -110q0 -151 30 -378q33 -251 79 -339q8 -24 8 -41q0 -32 -51 -58
q-44 -22 -80 -22q-40 0 -74 76z" />
    <glyph glyph-name="parenright" unicode=")" horiz-adv-x="944" 
d="M683 1522q56 -190 88 -439q20 -160 22 -311q4 -237 -67.5 -464.5t-217.5 -303.5q-78 -41 -160 -41q-161 0 -196 246q0 6 -5 10q0 21 37 21h29q264 0 315 279q21 114 21 261q0 492 -125 873q3 31 55 57q45 23 80 23q25 0 43 -18q34 -34 81 -193z" />
    <glyph glyph-name="asterisk" unicode="*" horiz-adv-x="1323" 
d="M520 1292q-127 13 -206 35q-54 14 -54 33q10 43 33 128q6 20 10 28q22 45 45 45q13 0 37 -11q46 -20 139 -61q19 -9 35 -16l-18 206q-1 14 -4 17q5 53 51 53h139q40 0 50.5 -8t10.5 -45l-24 -219q46 26 144 71q36 13 65 13q17 0 35 -33q53 -95 53 -164q0 -39 -78 -43
l-178 -29l151 -159q13 -14 13 -25q0 -12 -25 -25q-48 -40 -139 -96q-3 0 -12 -4.5t-13 -5.5q-15 7 -24 27l-92 163q-31 -55 -97 -163q-10 -20 -30 -23q-80 38 -102 52q-56 35 -79 79q4 13 31 41z" />
    <glyph glyph-name="comma" unicode="," horiz-adv-x="592" 
d="M68 236l192 155q51 41 100 41q102 0 158 -134q23 -57 23 -105q0 -87 -58 -166q-53 -71 -136.5 -114.5t-162.5 -43.5q-25 0 -28 10q53 55 53 164t-96 150q-31 4 -66 20q4 9 21 23z" />
    <glyph glyph-name="hyphen" unicode="-" horiz-adv-x="512" 
d="M0 563q29 213 117 213h336q59 0 59 -37q0 -58 -47 -168q-25 -59 -70 -59h-332q-63 0 -63 29v22z" />
    <glyph glyph-name="hyphen" unicode="&#x2010;" horiz-adv-x="512" 
d="M0 563q29 213 117 213h336q59 0 59 -37q0 -58 -47 -168q-25 -59 -70 -59h-332q-63 0 -63 29v22z" />
    <glyph glyph-name="period" unicode="." horiz-adv-x="592" 
d="M68 193q0 142 115 201q51 26 110 26q101 0 168 -63.5t67 -163.5q0 -134 -118 -192q-54 -26 -117 -26q-99 0 -162 59.5t-63 158.5z" />
    <glyph glyph-name="slash" unicode="/" horiz-adv-x="1079" 
d="M113 68l587 1544q46 121 156 121h43q38 0 68 -9q16 -5 16 -28q0 -30 -31 -101l-680 -1548q-13 -29 -60 -54.5t-81 -25.5q-30 0 -35 37q8 39 17 64z" />
    <glyph glyph-name="zero" unicode="0" 
d="M68 772q-2 38 -2 74q0 485 232 723q119 122 282 127q144 4 256 -77q193 -143 256 -478q28 -150 28 -297q0 -335 -101 -569q-57 -130 -161 -214q-110 -89 -262 -94q-97 -3 -194 48q-192 100 -279 401q-44 152 -55 356zM819 872q0 547 -223 547q-158 0 -203 -251
q-20 -112 -20 -248v-64q0 -251 59 -391q55 -133 164 -133q134 0 189 216q34 133 34 324z" />
    <glyph glyph-name="one" unicode="1" 
d="M436 201q-1 28 -3 77q-1 39 -1 54q0 9 5 236q4 130 11 389q4 153 5 251q1 90 -18 134q-23 55 -91 94q-55 31 -59 59q7 46 63 84q127 109 293 113q147 4 147 -93q0 -5 -2 -15t-2 -15q-53 -289 -53 -592q0 -150 40 -514q30 -274 30 -434q0 -15 -45 -29q-81 -26 -224 -33
q-42 -2 -63 15t-23 35q-7 46 -10 184z" />
    <glyph glyph-name="two" unicode="2" 
d="M96 59q9 315 142 505q64 91 299 300q109 96 117 104q69 66 101.5 118.5t32.5 121.5q0 91 -44 146q-48 61 -136 61q-103 0 -187 -99q-41 -48 -118 -188q-13 -36 -31 -41q-15 9 -36 46l-93 163q-10 18 -18 52q1 25 20 58q8 14 11 21q82 162 271 234q92 35 185 35
q250 1 395 -180q78 -98 76 -244q-1 -135 -35 -226.5t-100.5 -169t-240.5 -210.5q-48 -37 -132 -103q-139 -108 -139 -186q5 -46 33 -53q15 2 63 17q39 12 64 11q43 -1 131 -21q85 -20 129 -20q62 6 97 59q30 47 30 113q0 68 -14 80q0 8 8 8q20 0 59 -59q58 -88 60 -188
q2 -85 -44 -171q-39 -73 -101 -125q-73 -60 -146 -61q-53 -1 -174 28.5t-191 29.5q-86 0 -231 -54q-5 0 -16 -2t-17 -2q-36 0 -58.5 28t-21.5 64z" />
    <glyph glyph-name="three" unicode="3" 
d="M96 201q52 90 144 203l49 61q8 10 18 10q25 0 65 -43q17 -19 23 -24q88 -74 176 -80q101 3 165 80q61 73 61 176q0 132 -140 205q-73 37 -182 47q-31 0 -55 -5q-95 0 -101 50q10 44 46 88q25 30 173 191q113 123 142 157t29 47q0 35 -76 37q-112 3 -352 -66
q-12 -3 -41 -12q-15 6 -25 29q-39 136 -51 260q0 8 -4 12q5 37 80 37h741q49 0 62 -9q18 -12 18 -57q0 -268 -297 -542q-5 -4 -12 -25q8 -16 28 -24q156 -63 234 -177q82 -120 78 -295q-5 -253 -157 -407t-355 -158q-119 -2 -229 40q-211 79 -255 194z" />
    <glyph glyph-name="four" unicode="4" 
d="M43 563q0 231 135 500q92 182 283 440q117 158 182 158h217q84 0 84 -33q0 -24 -45 -63q-323 -279 -464 -586q-52 -113 -75 -231q0 -30 35 -35q56 10 165 43q34 16 57 45q19 24 30 76q21 99 89 236q62 127 149 192q46 34 71 34q21 0 21 -30q0 -9 -8 -41
q-51 -111 -58 -336q9 -75 24 -102q23 -41 85 -50q14 0 42 4t42 4q49 0 49 -83v-201q0 -35 -29 -39q-108 22 -151 22q-88 0 -95 -103q-3 -44 -6 -95l13 -273q0 -18 -160 -41q-56 -8 -88 -8q-77 0 -82 76q4 8 4 25q6 54 20 163q7 53 21 160q0 84 -84 84q-72 0 -188 -28
q-139 -34 -185 -39q-100 6 -100 155z" />
    <glyph glyph-name="five" unicode="5" 
d="M147 961q3 77 25 303q23 237 80 360q8 17 34 39q9 2 38 2h659q41 0 41 -37q0 -44 -16 -124l-12 -62q-5 -23 -9 -49q-5 -15 -43 -21q-107 29 -297 29q-136 0 -155 -25q-77 -102 -80 -243q-2 -87 45 -93q66 35 186 35q132 0 242 -67q159 -120 190 -292q16 -88 17 -153
q3 -166 -71 -308q-72 -137 -195.5 -212.5t-276.5 -75.5q-276 0 -418 146q-26 27 -31 51q19 108 127 289q22 30 37 30q21 0 39 -26q89 -125 246 -125q161 0 218 116q26 53 26 115q0 151 -113 230q-55 38 -125 38q-66 0 -158 -47q-49 -25 -70 -34q-40 -16 -75 -19
q-113 9 -105 230z" />
    <glyph glyph-name="six" unicode="6" 
d="M72 776q0 406 191 661t509 255q131 0 209 -31q51 -20 51 -57q0 -66 -88 -228q-7 -14 -33 -33q-122 68 -184 68q-174 0 -291 -195q-52 -88 -55 -167q-1 -43 31 -50q40 10 104 38q75 33 103 42q39 13 90 13q195 0 311 -175q104 -158 104 -354q0 -316 -229 -497
q-120 -95 -291 -95q-282 0 -415 239q-117 210 -117 566zM844 580q1 108 -62 175.5t-170 67.5t-177 -68t-70 -175q0 -122 72.5 -197t170.5 -76q55 0 113 34q122 71 123 239z" />
    <glyph glyph-name="seven" unicode="7" 
d="M156 1276l-31 323q0 13 -4 21q3 31 18 39q10 6 45 6l811 -4h44q26 -3 26 -25v-188q0 -41 -26 -76q-10 -13 -31 -45q-88 -139 -250 -422q-50 -99 -84 -210q-40 -127 -41 -224q-1 -110 52 -187q49 -72 142 -75q-3 0 31 7q18 3 31 3q22 0 22 -18q0 -130 -180 -204
q-75 -30 -135 -30q-177 0 -279 177q-48 83 -49 184q3 10 4 24q11 223 148 484q71 135 230 338q76 97 98 131q16 48 16 51q0 45 -72 45h-227q-166 0 -238 -121q-20 -34 -47 -41q-24 6 -24 37z" />
    <glyph glyph-name="eight" unicode="8" 
d="M260 793q29 28 29 51q0 37 -33 84q-3 4 -56 72q-61 77 -75 229q0 316 253 424q93 39 222 39q252 0 391 -186q66 -90 66 -206q0 -135 -98 -242l-62 -66q-44 -50 -45 -72q10 -22 20 -27q130 -105 184 -178q83 -115 81 -279q-2 -165 -111 -296q-60 -72 -161 -119
q-109 -51 -253 -54q-155 -3 -289 47q-271 99 -276 373q-2 125 59 227q43 72 154 179zM776 1260q0 75 -45.5 129t-118.5 63q-123 0 -185 -90q-31 -44 -32 -102q4 -1 4 -5q3 -74 64 -148q65 -77 137 -79q76 -2 147 131q29 55 29 101zM805 469q0 100 -67 173.5t-134 74.5
q-133 3 -197 -137q-26 -57 -26 -109q0 -81 77 -125q63 -36 150 -35q100 1 166 76q31 36 31 82z" />
    <glyph glyph-name="nine" unicode="9" 
d="M63 1096q3 218 133 395q145 198 400 201q256 3 389 -214q118 -193 135 -534l2 -28v-33q0 -379 -189 -645q-193 -271 -468 -271h-45q-88 8 -120 13q-78 12 -113 33q-31 18 -31 46q0 13 46 163q33 110 42 130q13 29 28 29q14 0 35 -16q64 -48 142 -54q130 4 243 119
t113 246q0 45 -41 45q-24 0 -39 -12q-119 -72 -242 -72q-261 0 -369 225q-53 107 -51 234zM819 1145q0 150 -117 233q-53 37 -106 37q-116 1 -186 -77q-66 -75 -66 -193q0 -107 64 -177q66 -73 172 -71q102 2 170.5 74t68.5 174z" />
    <glyph glyph-name="colon" unicode=":" horiz-adv-x="592" 
d="M68 1116q0 133 119 198q53 29 110 29q93 0 162 -67t69 -160q0 -131 -120 -194q-54 -29 -111 -29q-136 0 -200 115q-29 51 -29 108zM68 193q0 132 117 197q53 30 112 30q94 0 162.5 -66.5t68.5 -160.5q0 -93 -69 -159.5t-162 -66.5q-127 0 -197 115q-32 52 -32 111z" />
    <glyph glyph-name="semicolon" unicode=";" horiz-adv-x="592" 
d="M68 1116q0 95 65 161t160 66q97 0 166 -66t69 -161q0 -134 -121 -195q-54 -28 -114 -28q-91 0 -158 66.5t-67 156.5zM63 236l222 176q17 20 59 20q84 0 145 -79q56 -73 56 -160q-1 -88 -60 -167q-54 -71 -139.5 -114t-173.5 -43q-12 0 -16 10q53 58 53 158
q0 134 -129 168q-33 0 -37 10q2 3 20 21z" />
    <glyph glyph-name="question" unicode="?" horiz-adv-x="983" 
d="M268 612v185q0 83 44 145q31 44 112 108t111 104q45 62 45 142q0 69 -35 120q-39 57 -105 57q-73 0 -137 -84q-8 -15 -24 -38q-5 -5 -15 -8q-36 21 -90 88q-31 38 -39 46q-30 30 -35 51q27 123 208 184q77 25 141 25q131 -1 235 -75q99 -71 152 -195q48 -113 49 -199
q2 -155 -83 -271q-51 -68 -151 -153q-110 -93 -142 -124t-34 -73q-4 -88 -43 -88h-117q-47 0 -47 53zM147 197q0 130 124 195q53 28 106 28q127 0 198 -108q33 -52 33 -115q0 -95 -68 -162.5t-163 -67.5q-96 0 -163 67.5t-67 162.5z" />
    <glyph glyph-name="A" unicode="A" horiz-adv-x="1427" 
d="M68 453v49q0 256 90 505t254 445q110 132 247 231q69 50 105 50q29 0 63 -17q153 -77 296 -296q125 -191 184 -439q57 -243 57 -473v-55q0 -34 -12 -225q-10 -153 -45 -200q-20 -28 -56 -28h-299q-40 0 -45 20q3 20 62 140q63 129 96 327q0 160 -221 160q-171 0 -286 -54
q-151 -70 -163 -220q2 -77 65 -207q26 -55 52 -107q25 -38 25 -47q0 -12 -37 -12h-295q-104 0 -128 196q-9 74 -14 185q5 31 5 72zM999 1028q-22 138 -127 281q-55 75 -104 75q-32 0 -80 -41q-177 -153 -244 -432q0 -34 39 -43q276 56 398 56q60 0 79 7q39 13 39 60v37z" />
    <glyph glyph-name="B" unicode="B" horiz-adv-x="1356" 
d="M104 461v538q0 187 27 424q12 113 29 172q20 71 26 79q18 30 70 30h492q301 0 389 -116q50 -68 55 -179q2 -48 -14 -102q-25 -81 -101 -170l-61 -72q-18 -19 -36 -37q-20 -23 -24 -45q14 -27 35 -51q295 -263 297 -529q1 -173 -109 -285q-116 -118 -307 -118h-679
q-32 0 -53 83q-2 7 -19 105.5t-17 272.5zM545 991l100 69q201 140 215 279q0 125 -176 125q-78 0 -143 -33q-73 -37 -97 -104q-36 -101 -42 -180q-3 -41 -3 -111q0 -68 58 -75q35 5 88 30zM956 475q0 77 -52 169q-46 81 -111 140q-34 43 -72 43q-22 0 -45 -12l-197 -102
q-70 -36 -67 -109q5 -126 11 -159q15 -90 69 -139t163 -46q67 2 147 24q154 42 154 191z" />
    <glyph glyph-name="C" unicode="C" horiz-adv-x="1321" 
d="M51 776q0 322 157 604q85 154 239 256q158 104 376 101q116 -2 221 -41q207 -80 207 -260q0 -156 -198 -189q-54 6 -54 62q-10 84 -68 114q-42 21 -138 21q-188 0 -302 -174q-110 -169 -110 -418q0 -136 58 -254q61 -123 172 -195q107 -71 241 -71q118 0 209 71
q87 67 127 181q17 49 24 49q17 0 27 -62q16 -57 16 -139q0 -266 -242 -396q-124 -67 -265 -69q-219 -4 -381 122q-152 117 -236 306q-80 181 -80 381z" />
    <glyph glyph-name="D" unicode="D" horiz-adv-x="1372" 
d="M113 297q-10 154 -13 244q2 23 11 543q5 315 49 511q24 109 84 109h348q262 0 486 -274q245 -301 243 -762q-2 -300 -131 -475q-143 -193 -442 -193h-547q-57 0 -74 122q-7 49 -10 104zM987 739q0 477 -266 672q-67 49 -125 49q-102 0 -143 -143q-21 -74 -27 -144
q-10 -120 -10 -196q0 -18 2 -102t2 -150q0 -295 108 -407q57 -60 136 -58q113 3 189 79q134 134 134 400z" />
    <glyph glyph-name="E" unicode="E" horiz-adv-x="1225" 
d="M100 332q0 447 73 930q32 209 75 399q10 43 33 43h835q64 0 64 -29q0 -3 -2 -7.5t-2 -6.5q-71 -187 -140 -285q-8 -8 -16 -12q-27 18 -72 45q-93 51 -221 51q-174 0 -254 -134q-41 -68 -45 -150q-2 -43 24 -78q23 -32 60 -33q52 9 135 38q103 35 134 44q46 12 104 12
q92 0 92 -43v-16l-125 -303q-5 -12 -21 -17q-34 13 -104 31q-42 6 -65 6q-160 0 -229 -145q-34 -70 -34 -140q0 -61 30 -128q61 -140 214 -144q147 -4 309 96q30 18 59 33q12 6 17 6q22 0 39 -35q64 -114 121 -276q12 -34 12 -59t-47 -25h-981q-47 0 -59.5 52.5t-12.5 279.5
z" />
    <glyph glyph-name="F" unicode="F" horiz-adv-x="1124" 
d="M100 756q0 304 21 556.5t55 336.5q9 19 34 48q10 7 26 7h880q64 0 64 -33q0 -3 -2 -10.5t-2 -11.5q-102 -218 -136 -269q-2 -5 -24 -12q-27 16 -76 43q-88 49 -205 49q-110 0 -192 -53q-91 -60 -103 -164q-5 -47 -12 -110q0 -113 76 -113q55 7 199 56q107 36 182 36h47
q49 0 49 -41q0 -126 -96 -311q-8 -8 -17 -12q-100 28 -172 28q-180 0 -228 -139q-24 -68 -24 -162q0 -69 19 -150l38 -161q19 -80 19 -148q0 -16 -12 -16h-315q-54 0 -72 188q-21 219 -21 568z" />
    <glyph glyph-name="G" unicode="G" horiz-adv-x="1348" 
d="M51 725q-3 332 154 632q199 379 614 380q258 0 386 -145q58 -67 59 -140q1 -88 -43 -136q-39 -42 -129 -65q-21 0 -31 -4q-49 4 -49 62q-10 81 -65 108q-60 30 -136 27q-228 -8 -330 -216t-100 -456q3 -436 344 -436q164 0 225 100q27 45 27 96q0 92 -60 145
q-29 20 -85 62q-16 11 -17 17q5 14 16 20q54 36 222 95q79 27 102 36q30 8 33 8q18 0 24 -22q27 -62 59 -351q13 -122 13 -186q0 -230 -235 -336q-117 -53 -277 -53q-356 0 -541 218q-177 205 -180 540z" />
    <glyph glyph-name="H" unicode="H" horiz-adv-x="1456" 
d="M109 768q3 205 22 437q23 280 62 423q21 76 59 76h289q39 0 39 -21q0 -5 -4.5 -13t-4.5 -13q-127 -343 -127 -512q11 -94 43 -101l99 24q90 22 163 31q47 5 87 5h120q56 0 56 76q0 118 -105 339q-52 107 -71 164q5 21 32 21h291q34 0 50 -22q8 -12 20 -54
q127 -438 127 -1016q0 -235 -25 -487q-12 -125 -39 -125h-327q-43 0 -50 29q6 24 21 71q121 336 121 559q0 132 -99 156q-50 12 -135 12q-157 0 -270 -88q-116 -91 -117 -223q-1 -168 41 -342q18 -75 35 -111q12 -18 12 -43q0 -20 -16 -20h-348q-24 0 -39 129
q-21 181 -21 379q0 102 5 192z" />
    <glyph glyph-name="I" unicode="I" horiz-adv-x="668" 
d="M129 805q0 626 64 823q25 76 71 76h260q39 0 39 -25q0 -13 -4 -30q-98 -423 -98 -717v-58q0 -485 94 -823q0 -5 2 -15.5t2 -15.5q0 -20 -18 -20h-322q-37 0 -55 65q-9 47 -17 95q-18 94 -18 645z" />
    <glyph glyph-name="J" unicode="J" horiz-adv-x="819" 
d="M117 453q4 4 12 4t17.5 -9t9.5 -16q18 -32 37 -64q26 -42 47 -53q15 0 49 -8q73 6 84 164q8 118 8 317q0 319 -41 588q-17 107 -31 177l-24 112q0 10 -4 14q5 25 30 25h310q30 0 43 -33q3 -8 12 -59q26 -150 37 -437q4 -127 4 -276v-139q0 -380 -73 -563
q-93 -233 -337 -230q-206 3 -299 146q-8 12 -8 26q0 80 31 168q33 95 86 146z" />
    <glyph glyph-name="K" unicode="K" horiz-adv-x="1335" 
d="M104 692q0 72 -4 119q5 397 34 636q18 146 54 220q13 37 52 37h247q29 0 29 -29q0 -22 -4 -35q-92 -289 -92 -596q0 -87 33 -92q17 5 34 21q196 178 343 491q60 128 77 211q6 29 49 29h236q29 0 29 -33q0 -162 -112 -332q-80 -105 -232 -319l-5 -4q8 -15 60 -84
q336 -441 336 -885q0 -47 -31 -47h-313q-39 0 -39 109q0 117 -30 269q-42 212 -146 347q-30 39 -58 39q-16 0 -51 -25q-164 -118 -164 -256q0 -60 16 -143l32 -165q16 -83 16 -142q0 -33 -29 -33h-274q-58 0 -76 215q-17 200 -17 477z" />
    <glyph glyph-name="L" unicode="L" horiz-adv-x="1128" 
d="M109 84q-4 53 -9 215q-4 219 27 552q26 278 63 502q38 239 66 326q5 25 25 25h319q37 0 37 -33q0 -24 -8 -43q-226 -543 -226 -969v-43q0 -348 244 -352q75 -1 156 46q62 36 133 93q41 33 47 33q23 0 41 -51q84 -241 84 -356q0 -29 -29 -29h-915q-52 0 -55 84z" />
    <glyph glyph-name="M" unicode="M" horiz-adv-x="1776" 
d="M121 215q-6 61 -9 116l-7 125q-4 68 -5 119q-4 117 -4 146q0 76 6 247q10 279 34 481q20 176 53 231q14 24 47 24h233q53 0 92 -39q79 -79 159 -213q64 -108 111 -215q11 -28 33 -72q7 -11 17 -12q20 2 43 59q83 203 261 400q83 92 138 92h213q47 0 65 -41q6 -13 19 -84
q51 -275 51 -831q0 -303 -14 -539q-12 -209 -74 -209h-311q-45 0 -51 33q55 279 84 494q34 252 34 489q0 244 -55 244q-25 0 -47 -35q-83 -104 -161 -347q-65 -198 -95 -378q-18 -106 -104 -113q-99 7 -121 117q-65 320 -209 619q-64 132 -107 132q-57 0 -63 -303
q-2 -104 22 -306q39 -330 105 -591q0 -5 2 -15t2 -15q0 -25 -37 -25h-270q-49 0 -64 84q-7 39 -16 131z" />
    <glyph glyph-name="N" unicode="N" horiz-adv-x="1452" 
d="M118 283q-18 304 -18 489q0 373 35 674q17 144 41 203q22 55 60 55h163q43 0 80 -31q6 -4 62 -65q82 -88 212 -305q144 -241 242 -422q43 -79 62 -88q14 0 14 79q0 302 -46 556q-25 138 -64 255q5 21 43 21h213q44 0 66 -50q9 -20 22 -89q47 -242 47 -772
q0 -251 -17 -504q-10 -146 -12 -162q-18 -127 -63 -127h-256q-51 0 -64 68q-65 342 -260 725q-55 109 -122 215q-106 168 -150 168q-20 0 -21 -31l-9 -183q-5 -105 -5 -106q1 -170 25 -384q22 -195 63 -425v-27q0 -20 -12 -20h-248q-35 0 -50 41q-22 57 -33 242z" />
    <glyph glyph-name="O" unicode="O" horiz-adv-x="1460" 
d="M47 604q7 422 198 767q91 165 215 265q128 102 267 105q141 3 271 -104q250 -208 363 -637q50 -194 50 -363q0 -347 -193 -533q-100 -97 -253 -124q-75 -13 -197 -13h-184q-141 0 -256 69q-138 82 -214 245q-70 151 -67 323zM1075 637q4 162 -32 322q-64 281 -201 396
q-61 50 -117 50q-96 0 -188 -150q-63 -104 -103 -234q-55 -178 -53 -345q2 -233 156 -306q78 -38 188 -38q343 -2 350 305z" />
    <glyph glyph-name="P" unicode="P" horiz-adv-x="1276" 
d="M188 0q-40 0 -56 103q-14 87 -19 200q-1 30 -3 103l-3 108q-2 45 -3 110q-4 145 -4 132q5 537 43 776q13 83 39 132q21 40 58 40h659q185 0 285 -115q105 -121 100 -266q-12 -322 -448 -563q-86 -47 -171 -93q-99 -59 -151 -121q-39 -46 -39 -93q-1 -66 19.5 -188.5
t42.5 -188.5q1 -8 6.5 -29t5.5 -31q0 -16 -21 -16h-340zM643 936q174 107 262 239q43 65 43 117q-17 104 -101 144q-62 28 -183 28q-222 0 -232 -415q2 -40 3 -80q3 -54 17 -71q15 -21 44 -26q52 5 147 64z" />
    <glyph glyph-name="Q" unicode="Q" horiz-adv-x="1481" 
d="M848 332q-147 104 -188 258q-20 76 -19 153q1 80 31 80q26 0 28 -35q3 -55 124 -146q99 -73 175 -105q45 149 45 370q0 311 -110 454q-67 87 -191 87q-93 0 -166 -70q-64 -62 -94 -157q-49 -157 -51 -365q-2 -222 73 -386q72 -160 226 -163q59 6 117 25zM1124 121
q-163 -150 -397 -150q-180 0 -323 102q-135 95 -215 265q-92 192 -89 455q3 243 56 435q94 339 331 452q115 54 238 57q157 3 286 -69q239 -134 325 -461q40 -155 40 -326q0 -292 -112 -553q151 -130 151 -312q0 -108 -35 -108q-8 0 -32 16z" />
    <glyph glyph-name="R" unicode="R" horiz-adv-x="1360" 
d="M135 88q-11 42 -19 134q-21 239 -20 470q1 262 21 527q11 143 17 197q12 117 30 196q21 92 80 92h612q180 0 294 -106.5t114 -270.5q0 -175 -137 -333q-71 -81 -179 -150q247 -307 328 -528q51 -140 51 -287q0 -29 -27 -29h-313q-38 0 -42 46q-2 19 -5 50
q-38 294 -213 537q-25 35 -80 35q-100 0 -168 -105q-30 -46 -30 -92q0 -114 37 -277q18 -80 38 -165v-17q0 -12 -24 -12h-303q-39 0 -62 88zM436 1008q0 -85 60 -93l53 13q319 137 371 297q12 37 12 69q0 86 -83 132q-67 38 -161 38q-77 0 -137 -31q-64 -33 -80 -90
q-32 -110 -39 -276q4 -18 4 -59z" />
    <glyph glyph-name="S" unicode="S" horiz-adv-x="1323" 
d="M168 717q8 8 20 8q15 0 33 -78q20 -92 47 -147q45 -91 149 -140q109 -53 220 -53q116 0 204 55q84 52 83 138q-1 118 -125 183q-54 28 -105 46q-17 6 -57 19l-121 40q-260 88 -354 283q-44 92 -45 184q-1 135 85 264q80 122 194 170t259 48q286 0 461 -150q47 -31 47 -71
q0 -56 -45 -128q-39 -63 -90 -104q-6 -6 -24 -12q-23 2 -53 32l-19 19q-123 133 -281 133q-130 0 -198 -88q-35 -44 -33 -88q4 -129 221 -201q140 -47 193 -68q100 -40 183 -92q96 -61 164 -157q71 -101 74 -230q3 -121 -44 -233q-90 -213 -314 -292q-111 -40 -238 -40
q-384 0 -528 247q-69 117 -68 235q1 70 32 151q26 69 73 117z" />
    <glyph glyph-name="T" unicode="T" horiz-adv-x="1284" 
d="M508 1397q-6 39 -51 39q-90 0 -377 -207q-39 -28 -60 -33q-20 0 -20 43q0 56 29 193q12 57 24 113q22 82 51 95q100 45 254 71q160 26 326 26q375 0 553 -121q43 -29 43 -72q0 -103 -92 -244q-21 -32 -33 -36q-31 16 -84 68q-62 61 -83 77q-38 27 -89 27q-44 0 -68 -39
q-79 -130 -83 -504q-1 -124 18 -321q34 -356 86 -500q8 -34 8 -43q0 -29 -45 -29h-295q-64 0 -84 143q-21 150 -24 361q-3 161 20 345q5 41 46 274q30 171 30 274z" />
    <glyph glyph-name="U" unicode="U" horiz-adv-x="1380" 
d="M68 948q0 493 67 692q7 29 25 64q8 4 28 4l261 -4q51 -1 51 -33q0 -9 -8 -35t-9 -37q-80 -339 -84 -591q1 -35 4 -131q9 -263 97 -409q83 -141 200 -144q237 18 291 348q21 133 21 276q0 191 -26 385q-23 174 -50 258q-12 29 -29 88q6 25 37 25h244q36 0 51 -23
q6 -9 21 -57q53 -169 53 -680q0 -534 -212 -806q-134 -171 -388 -171h-4q-347 0 -501 265q-140 238 -140 716z" />
    <glyph glyph-name="V" unicode="V" horiz-adv-x="1321" 
d="M37 1208q0 357 43 445q25 51 59 51h293q39 0 39 -37q0 -15 -6 -35q-60 -135 -84 -311q-17 -121 -16 -256q3 -319 215 -604q44 -59 88 -66q37 3 88 58q198 212 227 579q2 25 2 82q0 251 -129 535q-2 9 -8 26q6 29 49 29h262q34 0 52 -31q5 -8 22 -61q50 -152 55 -436
q2 -111 -26 -261q-54 -291 -197 -547q-75 -133 -158 -225q-172 -190 -252 -190q-57 0 -207 145q-164 158 -247 342q-76 170 -113 314q-51 200 -51 454z" />
    <glyph glyph-name="W" unicode="W" horiz-adv-x="1745" 
d="M113 629q-39 156 -58 327q-23 204 -22 324q2 174 22 369q6 55 54 55h272q35 0 35 -25q0 6 -17 -67q-43 -185 -43 -387q0 -340 97 -613q38 -107 71 -112q30 5 72 67q105 154 143 436q17 132 17 269q0 171 -31 393q0 10 -4 14q5 25 22 25h293q39 0 39 -33q0 -6 -2 -19
l-6 -34l-6 -39q-23 -125 -25 -279q-1 -75 11 -214q21 -246 68 -406q23 -82 56 -139q20 -34 46 -41q40 4 96 125q119 257 119 567q0 233 -64 461q0 14 -8 22q4 29 37 29h235q38 0 60 -72q24 -120 24 -272q0 -349 -119 -702q-117 -348 -325 -638q-48 -67 -68 -67t-67 62.5
t-179 306.5q-66 120 -86 147q-14 18 -32 18q-26 0 -68 -67q-2 -3 -43 -78l-80 -144q-39 -72 -121 -202q-32 -43 -59 -43q-13 0 -27 20q-8 10 -14 19q-122 134 -242 428q-53 129 -73 209z" />
    <glyph glyph-name="X" unicode="X" horiz-adv-x="1305" 
d="M408 805q45 48 45 84q0 43 -41 88q-277 304 -277 676q0 51 62 51h272q26 0 33.5 -9t9.5 -38q16 -195 33 -282q34 -166 110 -255q26 -31 54 -37q27 2 53 41q8 11 26 39q54 86 78 253q11 76 11 153q0 17 -2.5 51t-2.5 51q0 37 31 37h238q39 0 51 -23q15 -30 16 -73
q3 -181 -43 -331q-43 -139 -149 -257q-77 -86 -84 -147q2 -23 31 -62q11 -15 20 -27q137 -188 198 -342q70 -179 70 -387q0 -59 -30 -59h-306q-39 0 -43 61q-1 19 -4 64q-8 197 -68 325q-9 18 -65 121q-41 76 -88 76q-29 0 -56 -27l-24 -24q-81 -77 -135 -251
q-48 -153 -51 -286q-9 -59 -62 -59h-239q-23 0 -28 17q-1 4 -1 38q1 233 112 431q79 142 245 319z" />
    <glyph glyph-name="Y" unicode="Y" horiz-adv-x="1321" 
d="M500 621q0 11 -60 79l-121 136q-174 202 -249 454q-39 129 -39 256q0 46 2 66q6 57 27 74.5t79 17.5h213q80 0 80 -55l-12 -150q2 -268 158 -479q62 -84 98 -84q57 0 143 147q60 103 96 198q54 144 54 267q0 62 -13 119q6 37 39 37h197q56 0 77 -27q19 -23 19 -82
q0 -199 -75 -379q-55 -131 -195 -336.5t-192 -332.5q-72 -173 -72 -377q0 -59 6 -127q0 -43 -60 -43h-280q-55 0 -55 117q0 143 79 344q18 38 50 115q6 18 6 45z" />
    <glyph glyph-name="Z" unicode="Z" horiz-adv-x="1268" 
d="M113 0q-79 0 -84 96q23 287 219 594q83 130 230 330q80 107 181 248q46 71 46 112q0 86 -156 84q-59 -1 -111 -19q-57 -21 -125 -74q-32 -25 -45 -28q-60 60 -98 202l-35 130q0 8 -4 13q4 16 37 16l991 4q78 0 78 -84q0 -37 -20 -80q-57 -125 -166 -279
q-28 -40 -194 -262q-152 -202 -186 -251q-106 -153 -155 -269q-16 -39 -24 -92q5 -127 204 -127q139 0 263 105q51 43 65 43q22 0 29 -21q74 -161 131 -336v-22q0 -33 -47 -33h-1024z" />
    <glyph glyph-name="bracketleft" unicode="[" horiz-adv-x="819" 
d="M231 1692q26 45 50 45h327q28 0 84 -8q25 0 25 -29v-8q-15 -32 -70 -43q-160 -33 -207 -256q-22 -102 -34 -231q-15 -159 -15 -273q0 -113 15 -278q13 -144 26 -212q29 -152 86 -227q51 -68 141 -92q45 -12 50 -47q0 -33 -101 -33h-336q-57 0 -79 113q-18 93 -30 266
q-16 239 -16 369q0 275 28 611q23 275 56 333z" />
    <glyph glyph-name="bracketright" unicode="]" horiz-adv-x="819" 
d="M592 1679q47 -108 67 -518q9 -188 9 -389q0 -272 -18 -484q-10 -112 -21 -167q-25 -121 -66 -121h-375q-88 0 -88 37q6 30 60 43q106 25 162 123q40 68 65 200q37 193 37 496q0 300 -39 481q-29 135 -82 194t-115 75q-24 5 -53 11q-21 5 -31 36q3 1 -4 8q5 29 52 29
q13 0 39.5 2t39.5 2h314q22 0 47 -58z" />
    <glyph glyph-name="underscore" unicode="_" horiz-adv-x="1024" 
d="M80 -160h948q51 0 51 -20q0 -96 -55 -180q-31 -39 -59 -39h-965q-47 0 -47 39q0 69 29 128q36 72 98 72z" />
    <glyph glyph-name="grave" unicode="`" horiz-adv-x="788" 
d="M545 1436q0 -2 2 -8t2 -9q0 -8 -29 -14q-151 28 -297 197q-66 76 -110 153q-5 8 -13 33q7 45 68 45h125q36 0 55 -29z" />
    <glyph glyph-name="a" unicode="a" horiz-adv-x="1065" 
d="M676 580q0 67 -88 67q-125 0 -206 -109q-38 -52 -38 -118q0 -86 76 -134q64 -42 155 -42q101 11 101 112v224zM655 952q0 65 -69 109q-60 39 -129 39q-133 0 -209 -172q-4 -4 -17 -8q-29 5 -66 32q-71 52 -71 148q0 143 195 212q88 31 186 31q251 0 377 -176
q66 -91 76 -231q11 -148 26 -529q5 -145 9 -218q4 -49 10 -146q2 -43 -330 -43q-390 0 -506 152q-66 85 -69 221q-3 117 66 222q131 202 429 261q53 5 72.5 24t19.5 72z" />
    <glyph glyph-name="b" unicode="b" horiz-adv-x="1096" 
d="M377 948q-1 -61 -4 -160q4 -98 12 -239q22 -203 135 -209q17 4 33 4q124 15 183 148q44 101 44 247q0 224 -99 344q-55 66 -144 66q-157 0 -160 -201zM129 63q-26 127 -31 294q-2 68 -2 175v500q0 476 51 668l12 36q7 13 29 13h207q54 0 54 -45v-16q-33 -130 -50 -221
q-12 -64 -12 -115q0 -52 45 -60q60 14 180 47q157 0 282 -113q163 -148 163 -474q0 -258 -124 -488q-143 -264 -384 -264h-381q-22 0 -30 22q-1 0 -9 41z" />
    <glyph glyph-name="c" unicode="c" horiz-adv-x="999" 
d="M43 643q29 356 206 537q155 159 359 159q187 0 277 -107q43 -52 43 -116q0 -56 -31 -108q-36 -60 -88 -60q-12 1 -25 25q-26 45 -37 61q-23 30 -54 46q-40 20 -89 20q-134 0 -212 -145q-59 -109 -73 -263q-2 -22 -2 -51q0 -223 150 -316q71 -44 145 -44q77 0 151 45
q69 41 105 118q18 39 31 39q33 0 33 -98q0 -265 -203 -370q-93 -48 -201 -48q-198 0 -335 148q-152 162 -152 448q0 56 2 80z" />
    <glyph glyph-name="d" unicode="d" horiz-adv-x="1112" 
d="M739 844q0 309 -131 309q-61 0 -126.5 -58t-100.5 -126q-66 -127 -66 -301q0 -170 66.5 -269.5t173.5 -99.5q73 8 109 44q75 75 75 308v193zM980 32q-5 -32 -32 -32h-504q-110 0 -204 80q-82 69 -133 180q-64 135 -64 336q0 421 246 632q106 90 211 111h20q26 0 67 -15
t56 -32q57 8 57 101q0 165 -57 327q5 29 74 29h215q26 0 36 -30q1 -4 9 -52q39 -235 39 -534v-553q0 -102 -7 -245q-9 -180 -29 -303z" />
    <glyph glyph-name="e" unicode="e" horiz-adv-x="1075" 
d="M319 811q-1 -49 41 -55q13 1 97 24q188 51 252 101q43 26 43 71q0 63 -58 107q-54 41 -119 41q-141 0 -219 -151q-35 -68 -37 -138zM487 545q-137 -45 -143 -137q8 -79 98 -119q96 -44 187 -45q59 -1 132 24q141 48 191 203q6 29 21 29q27 0 31 -92q2 -14 2 -46
q0 -228 -209 -340q-103 -55 -248 -55q-247 0 -382 197q-125 180 -126 448q0 101 23 211q51 246 188 374q152 142 356 142q251 0 358 -184q35 -61 42 -139q2 -21 2 -49q0 -188 -175 -289q-77 -45 -182 -79z" />
    <glyph glyph-name="f" unicode="f" horiz-adv-x="731" 
d="M209 80q-21 136 -21 381v135q0 59 4.5 176t4.5 176q0 148 -72 148q-18 0 -43 -11q-39 -17 -41 -18q-25 4 -25 78q0 168 123 168q76 0 97 123q29 169 116 240q90 75 215 75q21 0 41 -2q42 -4 54 -6q40 -7 49 -19q6 -9 6 -24q0 -81 -33 -193q-11 -38 -33 -43q-11 4 -30 17
q-3 0 -11.5 2t-13.5 2q-35 0 -67 -44q-29 -40 -29 -77q0 -64 59 -64q55 13 78 13q51 0 68 -41q0 -13 2 -40t2 -40q0 -73 -13 -96q-10 -11 -28 -17q-57 17 -97 17q-72 0 -91 -66q-8 -28 -11 -83l-4 -58q1 -109 33 -435l34 -341q5 -34 5 -76q0 -37 -25 -37h-260q-31 0 -38 26
q-2 7 -5 54z" />
    <glyph glyph-name="g" unicode="g" horiz-adv-x="1141" 
d="M381 940q0 -89 52 -150q55 -65 142 -65q89 0 145 60.5t56 150.5q0 133 -104 188q-47 25 -101 25q-87 0 -140 -62q-50 -58 -50 -147zM285 553q0 2 -54 87q-58 89 -66 108q-33 70 -34 167q4 12 4 21q11 258 216 358q93 45 208 45q73 0 141 -12q5 0 9 -4q56 7 110 92
q76 96 113 96q78 0 164 -155q8 -14 8 -25q0 -19 -73 -28q-81 -9 -91 -19q-23 -22 -29 -51q1 -20 17 -45l39 -64q24 -39 39 -91q16 -60 14 -126q-5 -142 -62 -237q-94 -157 -280 -190q-78 -14 -150 -15q-57 -1 -123 -41q-74 -44 -77 -96q16 -50 67 -60q39 0 153 36
q80 25 161 51q51 14 122 14q74 0 141 -25q89 -34 89 -96q0 -58 -33 -136q-31 -73 -72 -120q-10 -21 -36 -21q-23 0 -56 45q-41 56 -116 56q-56 0 -130 -26l-148 -53q-75 -26 -130 -26q-131 0 -210 73.5t-79 203.5t117 212l66 44q50 36 51 53z" />
    <glyph glyph-name="h" unicode="h" horiz-adv-x="1116" 
d="M113 51q-4 44 -5 96l-2 90q-2 54 -3 112q-3 161 -3 134q4 472 4 457v113q0 431 60 618q25 78 55 78h201q55 0 55 -45q0 -5 -2 -14.5t-2 -14.5q-76 -243 -76 -379q0 -46 29 -53q26 2 71 30q56 35 68 40q75 30 142 30q123 0 203 -97q66 -82 91 -214q21 -111 21 -319
q0 -174 -17 -383q-7 -91 -34 -267q-22 -63 -45 -63h-248q-28 0 -33 25q37 192 92 577q8 91 8 178q0 195 -52 272q-35 52 -107 52q-103 0 -160 -130q-30 -67 -39 -169q-7 -83 -8 -168q-1 -98 17 -304q13 -156 30 -270v-26q0 -37 -47 -37h-242q-18 0 -22 51z" />
    <glyph glyph-name="i" unicode="i" horiz-adv-x="545" 
d="M117 1620q6 58 52 93q43 32 103 32q67 0 111 -32q49 -37 49 -101q0 -65 -49 -104q-43 -35 -111 -40q-155 34 -155 152zM117 1255q10 58 47 58h188q27 0 33 -4q10 -5 10 -29q0 -92 -12 -218q-18 -181 -18 -226q3 -365 84 -764v-29q0 -43 -50 -43h-239q-45 0 -51 80
q-25 312 -25 604q0 386 33 571z" />
    <glyph glyph-name="j" unicode="j" horiz-adv-x="621" 
d="M201 1671q27 74 139 74q65 0 110 -33q48 -37 50 -100q2 -85 -81 -124q-37 -17 -79 -20q-67 19 -72 21q-40 15 -62 40t-26 70q7 48 21 72zM205 1260q-2 53 51 53h197q40 0 54 -158q4 -93 8 -187q9 -197 9 -368q0 -158 -8 -281q-9 -145 -90 -243q-89 -109 -229 -109
q-200 0 -197 101q4 129 41 225q10 26 31 26q15 0 44 -23q33 -25 44 -28q84 9 84 201v139q0 174 -16 352l-13 146q-7 82 -10 154z" />
    <glyph glyph-name="k" unicode="k" horiz-adv-x="1053" 
d="M391 780q54 0 130 114q53 80 87 161q47 113 47 200q0 36 3 43q6 15 34 15h189q51 0 51 -53q0 -161 -103 -325q-62 -88 -124 -183h4q82 -87 191 -206q144 -182 144 -499q0 -47 -40 -47h-256q-33 0 -35 80q-5 233 -105 399q-33 56 -47 71q-21 21 -53 21q-107 0 -117 -172
q0 -5 47 -282q6 -39 6 -92q0 -25 -28 -25h-260q-21 0 -31 80q-29 218 -33 680q-1 92 9 368l10 292q10 182 36 288q10 41 41 41h215q46 0 46 -41q0 -5 -2.5 -14.5t-2.5 -14.5q-70 -338 -71 -684q0 -15 2 -70.5t2 -97.5q0 -17 14 -47z" />
    <glyph glyph-name="l" unicode="l" horiz-adv-x="528" 
d="M139 80q-26 152 -26 801q0 423 23 650q12 123 32 185q11 33 37 33h219q47 0 47 -41v-16q-47 -184 -71 -482q-13 -158 -13 -307q0 -514 82 -870v-13q0 -20 -33 -20h-256q-16 0 -26 28q-10 25 -15 52z" />
    <glyph glyph-name="m" unicode="m" horiz-adv-x="1733" 
d="M125 41q-27 55 -33 659q0 44 -4 211q-1 33 5 171q3 80 8 120q9 81 28 115q20 45 72 55q21 4 110 4h70q51 -5 51 -37q0 -17 -24 -92q0 -24 36 -30q40 10 99 38q78 37 97 45q36 13 87 13q54 0 88 -16q22 -9 77 -47q46 -33 73 -33q39 0 130 45q102 51 177 51q122 0 212 -88
q85 -84 115 -209q24 -99 33 -280q4 -82 4 -183q0 -152 -10 -282q-9 -115 -31 -212q-13 -59 -47 -59h-221q-42 0 -47 33q4 8 4 14q42 152 65 367q11 109 11 211q0 253 -72 368q-47 74 -139 74q-73 0 -103 -41q-24 -32 -30 -111q-11 -140 -13 -315l-5 -337q-3 -147 -17 -226
q-7 -37 -37 -37h-264q-5 1 -8 8q4 12 4 35q0 40 18 146q24 148 25 152q29 215 29 351q0 192 -43 289q-40 90 -125 90q-59 0 -107 -46q-43 -41 -61 -101q-39 -126 -43 -353q-1 -51 10 -192q17 -224 49 -338v-12q0 -29 -25 -29h-243q-16 0 -22 14q-3 7 -13 27z" />
    <glyph glyph-name="n" unicode="n" horiz-adv-x="1133" 
d="M121 51q-15 52 -20 140q-9 158 -9 253q0 21 2 89q2 72 2 122q1 199 4 276q7 160 27 275q17 96 53 137q24 33 80 33h139q66 0 66 -37q0 -13 -7 -39q-8 -31 -9 -40q6 -31 34 -31q4 0 71 30q73 32 84 36q61 20 122 18q91 -3 155 -74q61 -70 88 -159q29 -97 29 -160v-220
q0 -462 -33 -612q-19 -88 -79 -88h-181q-79 0 -84 25q105 317 105 692q0 157 -18 222q-35 128 -146 128q-99 0 -158 -112q-44 -82 -57 -199q-5 -39 -12 -140q-2 -59 12 -202q22 -229 47 -367v-22q0 -25 -25 -25h-239q-34 0 -43 51z" />
    <glyph glyph-name="o" unicode="o" horiz-adv-x="1116" 
d="M297 688q5 -171 78 -278q69 -103 184 -103q159 0 227 182q33 89 33 203q0 160 -54 268q-71 140 -216 140q-152 0 -219 -194q-36 -103 -33 -218zM43 688q2 146 45 276q81 242 270 333q89 42 191 42q179 0 305 -107q116 -99 173 -274q42 -135 44 -286q2 -232 -77 -395
q-67 -137 -176 -219q-120 -91 -263 -91q-148 0 -267 95q-108 86 -172 231q-75 169 -73 395z" />
    <glyph glyph-name="p" unicode="p" horiz-adv-x="1075" 
d="M381 416q0 -25 -4 -39q5 -145 35 -301q8 -41 8 -51q0 -25 -55 -25h-189q-45 0 -59 29q-7 14 -13 71q-3 24 -6 117q-6 169 -6 207q0 17 2 113q2 90 2 163q0 119 -4 181q1 117 21 336q22 118 130.5 122t164.5 4q308 0 463 -87q80 -46 126 -120q49 -82 52 -184
q4 -128 -52 -261q-100 -240 -287 -370q-79 -55 -130 -57q-6 4 -9 4q-40 9 -117 101q-28 33 -46 55q0 8 -17 8q-10 0 -10 -16zM369 676q-2 -142 102 -148q16 4 37 4q148 25 237 167q43 68 52 149q0 163 -131 225q-59 27 -117 27q-106 0 -133 -64q-34 -80 -42 -220
q-4 -76 -5 -140z" />
    <glyph glyph-name="q" unicode="q" horiz-adv-x="1075" 
d="M655 416q-34 -47 -114 -131q-22 -17 -41 -17q-96 0 -225 126q-102 99 -165 210q-85 146 -85 303q0 21 4 62q26 272 315 343q129 31 299 31h117q117 0 164 -47q33 -27 44 -90q4 -21 9 -94q4 -54 4 -188l-1 -658q-2 -90 -3 -120q-5 -85 -17.5 -115.5t-87.5 -30.5h-147
q-66 0 -70 33q4 10 4 30q21 94 32 242q5 67 5 107q0 20 -16 20q-7 0 -25 -16zM705 688q0 246 -41 344q-29 68 -136 68q-105 0 -173 -65.5t-74 -170.5q10 -113 70 -203q70 -104 173 -116q29 -7 88 -17q93 6 93 160z" />
    <glyph glyph-name="r" unicode="r" horiz-adv-x="872" 
d="M110 159q-12 147 -13 410q-1 102 -1 267q0 155 -4 225q6 166 12 211q11 41 35 41h197q35 0 43 -50.5t49 -50.5q17 2 79 45q81 56 84 58q41 24 93 24q81 0 143 -66q43 -46 43 -132q0 -136 -108 -205q-43 -27 -66 -29q-11 12 -20 58q-17 84 -121 84q-117 0 -156 -153
q-28 -107 -30 -263q-2 -143 35 -383q14 -92 32 -170q0 -7 2 -21.5t2 -21.5q0 -37 -67 -37h-193q-31 0 -40 13q-20 28 -30 146z" />
    <glyph glyph-name="s" unicode="s" horiz-adv-x="1061" 
d="M117 512q18 41 22 41q10 0 25 -49q38 -122 135 -191t193 -69q71 0 132 41q56 38 56 106q0 72 -101 130q-23 12 -163 71q-133 55 -203 138q-87 103 -84 253q2 108 61.5 193t160.5 125q95 38 202 38q147 0 261 -59q56 -30 93 -72q37 -35 37 -63q0 -77 -89 -161
q-39 -37 -71 -44q-23 8 -103 102q-25 28 -56 41q-43 17 -88 17q-138 0 -152 -76q0 -52 39 -97q42 -50 104 -79q174 -82 248 -127q205 -125 205 -334q0 -39 -4 -68q-22 -163 -162 -260q-132 -92 -307 -92q-244 0 -367 172q-61 84 -65 197q7 98 41 176z" />
    <glyph glyph-name="t" unicode="t" horiz-adv-x="743" 
d="M236 59q-20 116 -32 243q-8 81 -16 253q0 28 9 193l6 134q2 47 2 109q0 109 -70 109q-17 0 -45 -12q-37 -15 -43 -17q-21 0 -27 53l7 71q6 70 42 98q20 16 60 16q59 0 59 -9q52 13 63 87q8 58 10 67q10 44 28 57q96 69 239 105q47 0 47 -37q0 -28 -30.5 -109t-32.5 -118
q7 -26 11 -33q7 -12 26 -23q14 0 43 6.5t45 6.5q76 0 76 -129q0 -99 -58 -105q-25 8 -75 21q-94 0 -111 -139q-8 -67 -8 -189q0 -245 55 -477q23 -98 47 -144q8 -15 8 -34q0 -11 -12 -17q-96 -76 -219 -112q-45 -13 -51 -13q-38 0 -53 88z" />
    <glyph glyph-name="u" unicode="u" horiz-adv-x="1141" 
d="M156 1260q13 53 49 53h235q25 0 25 -29q0 -22 -12 -59q-77 -238 -84 -549q3 -55 8 -164q15 -282 176 -289q211 15 211 449q0 174 -59 575q0 19 -9 37q5 29 43 29h209q30 0 51 -45q50 -108 50 -627q0 -336 -29 -512q-27 -162 -121 -162h-80q-98 0 -98 84q0 33 -41 33h-8
q-34 -25 -103 -71q-77 -47 -166 -46q-300 4 -307 613q-3 257 26 490q12 100 34 190z" />
    <glyph glyph-name="v" unicode="v" horiz-adv-x="1057" 
d="M537 395q64 0 133 210q69 214 69 460q0 136 -8 178q-1 18 -4 21q5 49 45 49h189q28 0 40 -16q15 -20 15 -72q3 -388 -113 -705q-107 -295 -265 -453q-66 -67 -114 -92q-4 -4 -20 -4q-11 0 -17 4q-65 46 -128 122q-57 69 -115 184q-95 190 -147 420q-54 240 -54 546
q0 66 45 66h211q53 0 53 -49q0 -33 -6 -99t-6 -98q-2 -331 113 -574q46 -98 84 -98z" />
    <glyph glyph-name="w" unicode="w" horiz-adv-x="1481" 
d="M725 360q-16 0 -68 -96q-25 -46 -49 -84q-29 -51 -90 -146q-49 -67 -74 -67q-50 10 -138 154q-59 98 -101 192q-164 361 -164 779q0 117 3 134q13 87 73 87h215q33 0 33 -33v-4q-23 -130 -25 -248q-2 -93 15 -218q31 -232 80 -352q22 -55 36 -55q50 0 105 150
q65 176 65 467q0 26 -8 209q-1 19 -4 47q4 37 30 37h218q30 0 30 -29v-8q-15 -136 -18 -272q-3 -145 28 -305q56 -296 115 -296q32 0 77 141q29 91 44 170q27 137 27 277q0 108 -21 234q0 12 -6 39q2 49 35 49h196q54 0 54 -209q0 -447 -192 -811q-48 -91 -114 -185
q-99 -141 -149 -141q-45 5 -139 176q-32 63 -96 187q-16 30 -23 30z" />
    <glyph glyph-name="x" unicode="x" horiz-adv-x="1044" 
d="M293 651q0 11 -55 94q-35 51 -69 103q-95 161 -97 377q-1 26 16 75q10 13 37 13h207q45 0 45 -41q0 -235 98 -359q40 -52 66 -53q58 -2 111 197q23 87 32 215q3 41 41 41h168q59 0 59 -58q0 -196 -103 -356q-66 -87 -132 -194h4q0 -19 69 -101l90 -104q113 -146 113 -389
q0 -76 -9 -93.5t-32 -17.5h-227q-33 0 -33 33q0 189 -78 330q-71 127 -127 129q-37 1 -84 -89q-32 -62 -49 -121q-29 -97 -30 -206q4 -13 4 -35q0 -41 -56 -41h-180q-41 0 -41 43q1 229 104 395q69 93 138 213z" />
    <glyph glyph-name="y" unicode="y" horiz-adv-x="1053" 
d="M408 412q0 17 -92 125q-113 135 -114 136q-151 209 -151 556v43q5 41 45 41h228q45 0 45 -45q0 -27 -7 -70q-9 -53 -10 -70q2 -222 162 -403q62 -70 82 -70q67 0 111 213q20 97 20 207q0 137 -14 193q-1 9 -4 16q5 29 39 29h213q30 0 34 -62q2 -28 2 -82
q0 -518 -304 -872q-115 -135 -255 -222q-166 -104 -317 -104q-70 0 -70 58v211q0 26 16.5 48.5t41.5 22.5q160 0 256 49q43 22 43 48v4z" />
    <glyph glyph-name="z" unicode="z" horiz-adv-x="956" 
d="M424 256q5 -9 88 -16q179 9 276 59h13q14 0 18 -6q48 -81 74 -252q0 -41 -57 -41h-732q-23 0 -36 12q-16 14 -17 47q-2 152 69 320q93 220 327 516q94 119 94 137q0 35 -101 35q-128 0 -217 -43l-7 -2q-7 -3 -19 -6q-17 7 -21 20q-49 108 -63 236q0 41 63 41h668
q59 0 59 -88q0 -179 -26 -226q-42 -77 -134 -188q-144 -172 -149 -179q-176 -230 -176 -339q0 -22 6 -37z" />
    <glyph glyph-name="braceleft" unicode="{" horiz-adv-x="819" 
d="M332 864q34 -25 78 -59q59 -51 59 -164q0 -57 -16 -186q-10 -74 -13 -111q2 -181 101 -226q51 -24 131 -34q52 -6 60 -9q31 -10 36 -42q0 -33 -109 -33h-268q-146 0 -171 169q-12 79 -18 221q-6 157 -14 222q-19 164 -84 213q-2 1 -39 21q-32 18 -32 22t30 20
q36 19 37 19q60 41 84 197q12 80 19 228q7 158 16 228q22 177 168 177h229q148 0 148 -21q0 -41 -50 -57q-19 -7 -85 -14q-178 -20 -185 -252q-2 -55 11 -157q14 -108 14 -157v-39q-14 -85 -101 -144q-36 -24 -36 -32z" />
    <glyph glyph-name="braceright" unicode="}" horiz-adv-x="819" 
d="M483 868q-33 26 -77 63q-60 56 -62 161q29 232 29 297q0 183 -97 229q-38 17 -133 31q-44 7 -73 20q-20 8 -23 35q0 33 109 33h272q145 0 170 -164q11 -80 19 -224q8 -159 16 -225q19 -162 83 -210q2 -2 40 -24q32 -18 32 -22q0 -3 -30 -19q-36 -18 -37 -19
q-60 -41 -84 -197q-12 -79 -19 -228q-6 -156 -16 -227q-24 -178 -170 -178h-176q-197 0 -205 25q0 38 57 54q9 2 89 13q180 24 180 240q0 59 -12 160q-15 115 -17 159q4 17 4 41q14 89 98 147q33 23 33 29z" />
    <glyph glyph-name="nonbreakingspace" unicode="&#xa0;" horiz-adv-x="1536" 
 />
    <glyph glyph-name="exclamdown" unicode="&#xa1;" horiz-adv-x="664" 
d="M100 1507q0 122 110 195q52 35 122 35q133 0 201 -119q30 -54 30 -111q0 -90 -70.5 -156.5t-160.5 -66.5q-94 0 -163 64.5t-69 158.5zM231 1120q0 43 129 43q39 0 52 -30q81 -188 123 -534q20 -165 20 -327q0 -146 -10 -231q-5 -41 -41 -41h-344q-59 0 -64 33
q164 317 164 684q0 116 -10 229l-10 99q-4 40 -9 75z" />
    <glyph glyph-name="cent" unicode="&#xa2;" 
d="M575 528q-6 59 -12 220q-1 198 45 540q-84 -55 -132 -171q-52 -124 -52 -249q0 -104 41 -204q38 -93 110 -136zM739 508q163 0 260 184q1 4 5 4q17 0 28 -67q0 -10 2 -29t2 -29q0 -167 -115 -282q-56 -56 -133 -80q-8 -3 -24 -29q3 -15 25 -49t22 -43q0 -29 -60 -45
q-22 -7 -87 -18q-51 2 -63 80q-7 39 -9 47q-2 13 -22 27q-7 5 -11 5q-244 13 -355 307q-61 159 -57 365q4 221 91 380q58 107 149 193q112 105 213 107q18 0 25 29q17 65 38 90q29 33 89 33q67 0 67 -52q-2 -11 -12 -43t-10 -37q3 0 4 -5t2 -5q3 -3 8 -6q115 0 191 -109
q34 -50 34 -110q-13 -121 -84 -158q-6 -1 -20 -8q-18 1 -67 69q-46 64 -109 81q-4 -79 -17 -215l-19 -198q-8 -86 -7 -124q3 -115 26 -260z" />
    <glyph glyph-name="sterling" unicode="&#xa3;" 
d="M559 324q36 20 92 20q82 0 226 -37q188 9 190 336q0 25 20 25q35 0 54 -52q47 -129 47 -256q0 -234 -155 -341q-73 -51 -161 -52q-57 0 -193 39q-146 41 -230 41q-66 0 -191 -41q-107 -35 -166 -35q-88 0 -88 58v207q0 92 68 92q24 0 70.5 -9.5t70.5 -9.5q139 0 139 183
q0 69 -21 162q-25 117 -64 144q-11 7 -31 7q-70 0 -164 -25q-80 16 -80 68q0 55 22 106q27 66 74 66q7 0 16 -2l9 -2q11 -5 30 -17q29 0 29 58q0 29 -11 78q-12 55 -14 77q3 9 5 48q16 267 272 382q113 50 235 50q178 0 311 -95q66 -47 113 -116q9 -18 9 -33q0 -20 -17 -37
q-71 -71 -178 -123q-9 -4 -20 -8q-28 7 -37 25q-61 122 -189 122q-77 0 -134.5 -56.5t-59.5 -133.5q-1 -29 -4 -78q3 -82 38 -118.5t117 -36.5q152 16 180 16q89 0 89 -59q0 -58 -34 -112q-37 -59 -91 -69q-24 0 -71 12.5t-69 12.5q-24 0 -24 -12q0 -41 18.5 -126t18.5 -130
q0 -117 -66 -213z" />
    <glyph glyph-name="yen" unicode="&#xa5;" horiz-adv-x="592" 
d="M592 885q50 -2 168 198q125 212 125 402q0 110 -17 143q5 33 52 33h196q61 0 64 -49q4 -77 4 -80q0 -247 -129 -444q-53 -75 -106 -149q-84 -119 -85 -138q16 -15 56 -21q24 4 63 4q95 0 145 -109q21 -48 21 -95q0 -35 -109 -35q-9 0 -28 2t-29 2q40 0 -56 19.5
t-118 19.5q-127 -15 -137 -361q2 -26 12 -99q8 -62 8 -99q0 -20 -4 -21q-136 -41 -303 -41q-32 0 -52 27q-24 33 -26 102q-3 97 18 179q4 16 43 123q31 83 31 118q0 76 -71 76q-25 0 -92 -21q-42 -14 -119 -30q-73 7 -92 131q-6 39 -9 49q0 56 66 64q32 3 111 3h47
q41 0 41 23q0 30 -75 137q-36 51 -97 160q-107 252 -109 416q2 31 5 62q5 39 20 57t55 18h196q76 0 76 -57q0 -27 -10 -80.5t-10 -79.5q-2 -248 169 -472q65 -86 91 -87z" />
    <glyph glyph-name="dieresis" unicode="&#xa8;" horiz-adv-x="1159" 
d="M819 1464q-79 1 -129 45q-53 45 -53 123q24 158 182 160q76 1 128 -41q57 -45 57 -119q0 -78 -52.5 -123.5t-132.5 -44.5zM352 1464q-79 1 -130 45q-54 46 -54 123t67 128q42 32 117 32q76 0 128 -41q57 -45 57 -119q0 -77 -53.5 -123t-131.5 -45z" />
    <glyph glyph-name="copyright" unicode="&#xa9;" horiz-adv-x="1901" 
d="M68 852q2 412 226 645q230 240 658 240q403 0 635 -214q248 -229 248 -671q0 -421 -230 -651q-232 -234 -653 -234q-573 0 -783 416q-102 202 -101 469zM260 852q0 -432 322 -604q157 -84 370 -84q441 0 608 323q80 155 80 365q0 442 -328 612q-156 80 -360 80
q-438 0 -609 -322q-83 -156 -83 -370zM508 881q15 242 165 380q139 128 318 128q100 0 187 -44q106 -55 106 -145q0 -57 -36 -93t-93 -36q-25 0 -43 74q-10 29 -59 41q-25 6 -58 6q-140 0 -209 -140q-40 -80 -38 -188q3 -145 81 -222.5t183 -78.5q111 -1 201 80q40 36 59 82
q6 14 16 14q29 0 29 -151q-20 -123 -123 -196q-106 -76 -238 -77q-110 0 -217 60q-233 129 -233 452q0 23 2 54z" />
    <glyph glyph-name="ordfeminine" unicode="&#xaa;" horiz-adv-x="819" 
d="M68 780q14 25 53 25h647q51 0 51 -29q0 -59 -29 -128q-35 -85 -85 -85h-668q-32 0 -37 25q10 45 34 133q12 36 34 59zM487 1272q0 33 -51 33q-66 0 -117 -51q-23 -23 -26 -50q0 -53 41 -72q19 -9 46 -13l40 -7q67 0 67 105v55zM739 924v-21q0 -15 -39 -18
q-82 -8 -188 -13l-176 11q-73 4 -136 31q-68 29 -107 97t-46 138q6 118 109 199q100 78 230 102q28 4 56 9q37 10 37 34q1 59 -131 59q-39 0 -99 -49q-34 -28 -56 -35q-41 5 -82 41t-39 78q4 84 94 125t225 39q155 -3 242 -55q83 -52 88 -176q2 -52 7 -284q1 -60 6 -170
q5 -98 5 -142z" />
    <glyph glyph-name="guillemotleft" unicode="&#xab;" horiz-adv-x="592" 
d="M381 1112q22 41 47 41q17 0 33 -8l147 -96q21 -14 21 -45q0 -19 -8 -35l-234 -289q-10 -11 -22 -37q13 -16 22 -31l225 -280q17 -21 17 -47q0 -23 -21 -37l-143 -92q-17 -11 -41 -17q-16 3 -59 66l-230 340q-30 44 -39 102q6 47 33 88zM893 1112q18 37 55 37q17 0 25 -4
l147 -96q17 -7 17 -54q0 -5 -2 -13.5t-2 -12.5l-230 -289q-7 -12 -18 -37q3 -4 18 -31l221 -280q13 -16 13 -43q0 -30 -17 -41l-143 -92q-12 -6 -33 -13q-32 5 -63 62l-230 340q-24 36 -35 102q8 60 27 88z" />
    <glyph glyph-name="registered" unicode="&#xae;" horiz-adv-x="1901" 
d="M63 852q0 570 415 783q199 102 466 102q411 0 645 -218q246 -229 246 -667q0 -573 -413 -783q-201 -102 -478 -102q-426 0 -657 247q-224 238 -224 638zM260 852q0 -316 182 -502t502 -186q449 0 616 323q80 155 80 365q0 450 -335 615q-158 77 -361 77q-329 0 -511 -195
q-173 -186 -173 -497zM629 348q-28 0 -35 9q-4 5 -10 38q-12 72 -20 239q-5 106 -5 142q0 125 13 311q5 86 28 234q11 40 38 48q10 3 67 3h362q137 0 221 -54q88 -57 88 -169q0 -146 -159 -251q-64 -42 -64 -50q65 -73 143 -162q119 -148 123 -305q1 -33 -14 -37q-4 4 -8 4
h-238q-17 0 -23 31q-22 108 -48 176q-55 140 -96 179q-19 18 -44 18q-47 0 -84.5 -45.5t-40.5 -94.5q3 -37 25 -128q20 -81 20 -128q0 -8 -20 -8h-219zM809 948q0 -51 39 -55q150 32 239 119q46 45 46 104q0 50 -47 78q-51 29 -134 27q-60 -2 -93 -37q-50 -53 -50 -236z" />
    <glyph glyph-name="threesuperior" unicode="&#xb3;" horiz-adv-x="717" 
d="M37 768q97 175 135 213q12 0 55 -41t105 -47q108 7 108 98q0 134 -176 172q-80 0 -84 25q20 54 131 145q60 48 84 78q8 16 8 25q0 32 -51 32q-59 0 -213 -49q-29 15 -40 143q-5 52 -23 70q5 33 49 33h500q39 0 39 -45q0 -71 -35 -134q-22 -38 -83 -109.5t-81 -112.5
q2 -2 6 -9q98 -40 154 -102q57 -65 55 -172q-4 -159 -99.5 -252t-224.5 -96q-111 -3 -211 47q-95 47 -108 88z" />
    <glyph glyph-name="acute" unicode="&#xb4;" horiz-adv-x="788" 
d="M436 1796q14 27 32 33q11 4 48 4h92q77 0 80 -49q3 -45 -172 -221q-148 -148 -256 -162q-3 1 -24 18q4 14 32 66z" />
    <glyph glyph-name="mu" unicode="&#xb5;" horiz-adv-x="1141" 
d="M152 1276q17 37 45 37h231q37 0 37 -37q0 -8 -8 -29q-82 -211 -88 -379q11 -155 77 -221q39 -39 107 -43q109 13 166 110q49 83 49 201q0 152 -68 353q0 8 -8 16q6 29 56 29h196q31 0 51 -37q49 -92 49 -475v-109q0 -330 -58 -389q-26 -27 -71 -27h-67q-111 0 -117 56
q8 32 8 53q0 27 -30 27q-3 0 -45 -37.5t-64 -38.5q-35 -1 -47 -4h-37q-83 0 -113 -29q-15 -14 -22 -76q6 -69 27 -151q12 -46 12 -56q0 -20 -39 -20h-225q-36 0 -47 68q-9 55 -12 325l-2 214q1 86 -7 229q2 192 28 326q12 61 36 114z" />
    <glyph glyph-name="mu" unicode="&#x3bc;" horiz-adv-x="1141" 
d="M152 1276q17 37 45 37h231q37 0 37 -37q0 -8 -8 -29q-82 -211 -88 -379q11 -155 77 -221q39 -39 107 -43q109 13 166 110q49 83 49 201q0 152 -68 353q0 8 -8 16q6 29 56 29h196q31 0 51 -37q49 -92 49 -475v-109q0 -330 -58 -389q-26 -27 -71 -27h-67q-111 0 -117 56
q8 32 8 53q0 27 -30 27q-3 0 -45 -37.5t-64 -38.5q-35 -1 -47 -4h-37q-83 0 -113 -29q-15 -14 -22 -76q6 -69 27 -151q12 -46 12 -56q0 -20 -39 -20h-225q-36 0 -47 68q-9 55 -12 325l-2 214q1 86 -7 229q2 192 28 326q12 61 36 114z" />
    <glyph glyph-name="cedilla" unicode="&#xb8;" horiz-adv-x="1024" 
d="M625 43h143q29 0 29 -18q0 -9 -9 -17l-48 -41q-60 -49 -60 -84q0 -11 55 -48q68 -45 72 -49q31 -29 29 -79q-4 -75 -83 -130q-149 -101 -368 -101q-82 0 -82 16q0 22 83 60.5t83 70.5q0 82 -85 108q-32 10 -144 38q-11 3 -11 10q0 31 115 114q81 58 147 95q95 55 134 55z
" />
    <glyph glyph-name="onesuperior" unicode="&#xb9;" horiz-adv-x="717" 
d="M236 705q-10 65 -13 239q-1 34 8 224l9 237q2 77 -76 119q-19 10 -27 18q-6 5 -8 14q2 23 43 56q98 80 219 80q109 0 109 -52q0 -62 -15.5 -184t-15.5 -184q0 -89 21.5 -266.5t21.5 -266.5q0 -10 -8 -14q-43 -36 -157 -44q-58 -4 -87 -13q-22 4 -24 37z" />
    <glyph glyph-name="ordmasculine" unicode="&#xba;" horiz-adv-x="819" 
d="M72 784q19 21 45 21h671q27 0 27 -29v-8q-21 -101 -29 -124q-28 -75 -81 -85q-5 4 -13 4h-655q-33 0 -37 25q8 48 34 143q12 30 38 53zM20 1323q0 260 191 373q89 53 197 53q172 0 280 -111q113 -117 113 -315q0 -192 -99 -308q-105 -122 -294 -122q-229 0 -334 189
q-54 96 -54 241zM260 1352q0 -199 148 -199q147 0 147 199q0 200 -147 200q-148 0 -148 -200z" />
    <glyph glyph-name="guillemotright" unicode="&#xbb;" horiz-adv-x="1243" 
d="M852 1112l248 -377q33 -50 33 -88q0 -41 -41 -102l-228 -340l-26 -40q-17 -23 -37 -26q-10 4 -33 17l-143 92q-22 10 -29 33q6 27 25 51l219 280q20 26 20 35q0 8 -8 18q-3 3 -12 15l-228 289q-14 27 -16 35q6 30 29 45l147 96q8 8 25 8q28 0 55 -41zM340 1112l248 -377
q24 -36 24 -88q0 -54 -32 -102l-228 -340q-39 -58 -67 -62l-29 13l-147 92q-8 4 -17 41q2 18 12 43l224 280q16 26 16 31q0 17 -16 37l-228 289q-3 3 -12 30q7 41 21 50l147 96q2 0 9 2t11 2q40 0 64 -37z" />
    <glyph glyph-name="questiondown" unicode="&#xbf;" horiz-adv-x="983" 
d="M709 1092v-185q0 -84 -45 -147q-31 -43 -113 -107.5t-111 -103.5q-45 -61 -45 -141q0 -103 70 -155q32 -25 67 -26q81 7 140 88q30 41 37 41q10 0 26 -8q41 -37 105 -121q32 -35 32 -59q0 -17 -24 -51q-46 -64 -144 -108q-94 -42 -176 -42q-131 1 -235 75
q-99 71 -152 196q-48 113 -49 198q-2 189 119 317q45 48 113 107q40 32 118 100q56 53 58.5 98.5t5.5 57.5q10 29 43 29h110q50 0 50 -53zM827 1507q0 -131 -121 -195q-54 -28 -106 -28q-94 0 -162.5 65t-68.5 158q0 138 122 202q53 28 109 28q131 0 197 -116
q30 -53 30 -114z" />
    <glyph glyph-name="Agrave" unicode="&#xc0;" horiz-adv-x="1427" 
d="M68 453v49q0 256 90 505t254 445q110 132 247 231q69 50 105 50q29 0 63 -17q153 -77 296 -296q125 -191 184 -439q57 -243 57 -473v-55q0 -34 -12 -225q-10 -153 -45 -200q-20 -28 -56 -28h-299q-40 0 -45 20q3 20 62 140q63 129 96 327q0 160 -221 160q-171 0 -286 -54
q-151 -70 -163 -220q2 -77 65 -207q26 -55 52 -107q25 -38 25 -47q0 -12 -37 -12h-295q-104 0 -128 196q-9 74 -14 185q5 31 5 72zM999 1028q-22 138 -127 281q-55 75 -104 75q-32 0 -80 -41q-177 -153 -244 -432q0 -34 39 -43q276 56 398 56q60 0 79 7q39 13 39 60v37z
M864 1831q0 -2 2 -7.5t2 -8.5q0 -9 -28 -15q-150 28 -297 197q-64 73 -111 153q-4 9 -12 33q7 45 67 45h125q36 0 56 -28z" />
    <glyph glyph-name="Aacute" unicode="&#xc1;" horiz-adv-x="1427" 
d="M68 453v49q0 256 90 505t254 445q110 132 247 231q69 50 105 50q29 0 63 -17q153 -77 296 -296q125 -191 184 -439q57 -243 57 -473v-55q0 -34 -12 -225q-10 -153 -45 -200q-20 -28 -56 -28h-299q-40 0 -45 20q3 20 62 140q63 129 96 327q0 160 -221 160q-171 0 -286 -54
q-151 -70 -163 -220q2 -77 65 -207q26 -55 52 -107q25 -38 25 -47q0 -12 -37 -12h-295q-104 0 -128 196q-9 74 -14 185q5 31 5 72zM999 1028q-22 138 -127 281q-55 75 -104 75q-32 0 -80 -41q-177 -153 -244 -432q0 -34 39 -43q276 56 398 56q60 0 79 7q39 13 39 60v37z
M821 2191q14 27 32 33q11 4 48 4h92q77 0 80 -49q3 -45 -172 -221q-148 -148 -256 -162q-7 5 -24 19q4 13 32 65z" />
    <glyph glyph-name="Acircumflex" unicode="&#xc2;" horiz-adv-x="1427" 
d="M68 453v49q0 256 90 505t254 445q110 132 247 231q69 50 105 50q29 0 63 -17q153 -77 296 -296q125 -191 184 -439q57 -243 57 -473v-55q0 -34 -12 -225q-10 -153 -45 -200q-20 -28 -56 -28h-299q-40 0 -45 20q3 20 62 140q63 129 96 327q0 160 -221 160q-171 0 -286 -54
q-151 -70 -163 -220q2 -77 65 -207q26 -55 52 -107q25 -38 25 -47q0 -12 -37 -12h-295q-104 0 -128 196q-9 74 -14 185q5 31 5 72zM999 1028q-22 138 -127 281q-55 75 -104 75q-32 0 -80 -41q-177 -153 -244 -432q0 -34 39 -43q276 56 398 56q60 0 79 7q39 13 39 60v37z
M760 1964q-21 25 -35 25q-9 0 -45 -37l-127 -131q-30 -31 -49 -37q-3 2 -79 27q-47 15 -60 51q7 24 32 51l252 272q25 27 96 27q75 0 115 -39l268 -264q29 -29 29 -41q0 -5 -41 -23q-93 -41 -164 -61q-7 2 -34 28z" />
    <glyph glyph-name="Atilde" unicode="&#xc3;" horiz-adv-x="1427" 
d="M68 453v49q0 256 90 505t254 445q110 132 247 231q69 50 105 50q29 0 63 -17q153 -77 296 -296q125 -191 184 -439q57 -243 57 -473v-55q0 -34 -12 -225q-10 -153 -45 -200q-20 -28 -56 -28h-299q-40 0 -45 20q3 20 62 140q63 129 96 327q0 160 -221 160q-171 0 -286 -54
q-151 -70 -163 -220q2 -77 65 -207q26 -55 52 -107q25 -38 25 -47q0 -12 -37 -12h-295q-104 0 -128 196q-9 74 -14 185q5 31 5 72zM999 1028q-22 138 -127 281q-55 75 -104 75q-32 0 -80 -41q-177 -153 -244 -432q0 -34 39 -43q276 56 398 56q60 0 79 7q39 13 39 60v37z
M297 1956q13 104 91 163q73 56 181 56q71 0 195 -48q60 -24 90 -33q51 -16 94 -19q94 6 117 75q6 13 25 13q47 0 47 -27q-21 -130 -106 -187q-92 -62 -202 -61q-111 1 -196 39q-124 55 -189 55q-56 0 -75 -51q-11 -20 -13 -20q-8 0 -16 -4q-20 8 -31 8q-12 6 -12 24v17z" />
    <glyph glyph-name="Adieresis" unicode="&#xc4;" horiz-adv-x="1427" 
d="M68 453v49q0 256 90 505t254 445q110 132 247 231q69 50 105 50q29 0 63 -17q153 -77 296 -296q125 -191 184 -439q57 -243 57 -473v-55q0 -34 -12 -225q-10 -153 -45 -200q-20 -28 -56 -28h-299q-40 0 -45 20q3 20 62 140q63 129 96 327q0 160 -221 160q-171 0 -286 -54
q-151 -70 -163 -220q2 -77 65 -207q26 -55 52 -107q25 -38 25 -47q0 -12 -37 -12h-295q-104 0 -128 196q-9 74 -14 185q5 31 5 72zM999 1028q-22 138 -127 281q-55 75 -104 75q-32 0 -80 -41q-177 -153 -244 -432q0 -34 39 -43q276 56 398 56q60 0 79 7q39 13 39 60v37z
M987 1845q-79 1 -129 45q-53 45 -53 123q24 158 182 160q76 1 128 -41q56 -45 56 -119q0 -78 -52.5 -123.5t-131.5 -44.5zM520 1845q-79 1 -130 45q-54 46 -54 123t67 128q42 32 117 32q76 0 128 -41q57 -45 57 -119q0 -77 -53.5 -123t-131.5 -45z" />
    <glyph glyph-name="Aring" unicode="&#xc5;" horiz-adv-x="1427" 
d="M68 453v49q0 256 90 505t254 445q110 132 247 231q69 50 105 50q29 0 63 -17q153 -77 296 -296q125 -191 184 -439q57 -243 57 -473v-55q0 -34 -12 -225q-10 -153 -45 -200q-20 -28 -56 -28h-299q-40 0 -45 20q3 20 62 140q63 129 96 327q0 160 -221 160q-171 0 -286 -54
q-151 -70 -163 -220q2 -77 65 -207q26 -55 52 -107q25 -38 25 -47q0 -12 -37 -12h-295q-104 0 -128 196q-9 74 -14 185q5 31 5 72zM999 1028q-22 138 -127 281q-55 75 -104 75q-32 0 -80 -41q-177 -153 -244 -432q0 -34 39 -43q276 56 398 56q60 0 79 7q39 13 39 60v37z
M504 2019q0 100 74 168t174 68q108 0 180 -63q76 -66 76 -173q0 -105 -78 -171q-73 -64 -178 -64q-99 0 -173.5 68.5t-74.5 166.5zM651 2019q0 -41 30 -74.5t71 -33.5q112 0 112 108q0 48 -32 80.5t-80 32.5q-54 0 -86 -56q-15 -26 -15 -57z" />
    <glyph glyph-name="AE" unicode="&#xc6;" horiz-adv-x="2161" 
d="M449 940q0 -16 -5 -29q0 -37 27 -43q8 4 21 4q90 27 216 37l206 17q80 7 85 30q0 6 2.5 17.5t2.5 17.5q0 107 -85 246q-31 50 -67 94q-44 53 -84 53q-45 0 -109.5 -63t-128.5 -178q-68 -120 -81 -203zM193 0q-29 0 -46 20q-79 93 -79 400q0 466 222 859q213 377 478 458
q71 0 238 -170q68 -70 98 -115q12 72 57 209q22 43 60 43h798q105 0 105 -29q0 -8 -9 -25q-11 -20 -12 -26l-96 -197q-27 -56 -55 -63q-175 96 -277 96q-199 0 -293 -128q-47 -65 -51 -156q6 -99 70 -111q38 1 141 34q73 24 147 49q56 15 117 15q12 0 45 -4q62 -8 62 -43v-8
q-67 -186 -125 -311q0 -11 -21 -17q-2 0 -62 21.5t-97 21.5q-109 0 -182 -71q-70 -67 -87 -177q-2 -13 -2 -40q0 -113 69 -192q72 -84 189 -83q132 2 293 96q67 39 80 39q22 0 33 -22q89 -178 139 -326v-18q0 -29 -41 -29h-1163q-29 0 -33 12q9 37 84 245q53 148 53 251
q0 66 -33 101q-36 38 -118 38h-43q-425 0 -451 -274q2 -84 78 -231q36 -70 47 -95q12 -36 12 -39q0 -8 -20 -8h-319z" />
    <glyph glyph-name="Ccedilla" unicode="&#xc7;" horiz-adv-x="1321" 
d="M51 776q0 322 157 604q85 154 239 256q158 104 376 101q116 -2 221 -41q207 -80 207 -260q0 -156 -198 -189q-54 6 -54 62q-10 84 -68 114q-42 21 -138 21q-188 0 -302 -174q-110 -169 -110 -418q0 -136 58 -254q61 -123 172 -195q107 -71 241 -71q118 0 209 71
q87 67 127 181q17 49 24 49q15 0 27 -62q16 -86 16 -131q0 -152 -82.5 -269t-224.5 -167q4 -1 4 -4q0 -16 -43 -50q-30 -23 -59 -46q-19 -16 -19 -51q3 -9 55 -40q59 -36 70 -46q27 -26 27 -86q-1 -136 -258 -203q-107 -27 -188 -27q-80 0 -80 21q0 13 58 46l76 42
q25 19 25 53v18q-21 65 -160 91q-64 12 -71 26q0 36 117 124q107 81 157 99q-282 30 -448 274q-160 235 -160 531z" />
    <glyph glyph-name="Egrave" unicode="&#xc8;" horiz-adv-x="1225" 
d="M100 332q0 447 73 930q32 209 75 399q10 43 33 43h835q64 0 64 -29q0 -3 -2 -7.5t-2 -6.5q-71 -187 -140 -285q-8 -8 -16 -12q-27 18 -72 45q-93 51 -221 51q-174 0 -254 -134q-41 -68 -45 -150q-2 -43 24 -78q23 -32 60 -33q52 9 135 38q103 35 134 44q46 12 104 12
q92 0 92 -43v-16l-125 -303q-5 -12 -21 -17q-34 13 -104 31q-42 6 -65 6q-160 0 -229 -145q-34 -70 -34 -140q0 -61 30 -128q61 -140 214 -144q147 -4 309 96q30 18 59 33q12 6 17 6q22 0 39 -35q64 -114 121 -276q12 -34 12 -59t-47 -25h-981q-47 0 -59.5 52.5t-12.5 279.5
zM881 1831q0 -2 2 -7.5t2 -8.5q0 -9 -29 -15q-151 28 -295 194q-63 72 -112 156q-5 8 -13 33q7 45 68 45h125q36 0 55 -28z" />
    <glyph glyph-name="Eacute" unicode="&#xc9;" horiz-adv-x="1225" 
d="M100 332q0 447 73 930q32 209 75 399q10 43 33 43h835q64 0 64 -29q0 -3 -2 -7.5t-2 -6.5q-71 -187 -140 -285q-8 -8 -16 -12q-27 18 -72 45q-93 51 -221 51q-174 0 -254 -134q-41 -68 -45 -150q-2 -43 24 -78q23 -32 60 -33q52 9 135 38q103 35 134 44q46 12 104 12
q92 0 92 -43v-16l-125 -303q-5 -12 -21 -17q-34 13 -104 31q-42 6 -65 6q-160 0 -229 -145q-34 -70 -34 -140q0 -61 30 -128q61 -140 214 -144q147 -4 309 96q30 18 59 33q12 6 17 6q22 0 39 -35q64 -114 121 -276q12 -34 12 -59t-47 -25h-981q-47 0 -59.5 52.5t-12.5 279.5
zM780 2191q14 27 32 33q11 4 48 4h92q77 0 80 -49q3 -45 -172 -221q-148 -148 -256 -162q-7 5 -24 19q4 13 32 65z" />
    <glyph glyph-name="Ecircumflex" unicode="&#xca;" horiz-adv-x="1225" 
d="M100 332q0 447 73 930q32 209 75 399q10 43 33 43h835q64 0 64 -29q0 -3 -2 -7.5t-2 -6.5q-71 -187 -140 -285q-8 -8 -16 -12q-27 18 -72 45q-93 51 -221 51q-174 0 -254 -134q-41 -68 -45 -150q-2 -43 24 -78q23 -32 60 -33q52 9 135 38q103 35 134 44q46 12 104 12
q92 0 92 -43v-16l-125 -303q-5 -12 -21 -17q-34 13 -104 31q-42 6 -65 6q-160 0 -229 -145q-34 -70 -34 -140q0 -61 30 -128q61 -140 214 -144q147 -4 309 96q30 18 59 33q12 6 17 6q22 0 39 -35q64 -114 121 -276q12 -34 12 -59t-47 -25h-981q-47 0 -59.5 52.5t-12.5 279.5
zM694 1982q-19 25 -35 25q-9 0 -45 -37l-127 -131q-31 -32 -49 -37q-38 12 -109 41q-21 11 -30 37q7 22 33 51l252 273q24 26 96 26q75 0 115 -39l268 -264q29 -29 29 -41q0 -4 -41 -22q-83 -37 -164 -62q-6 2 -35 29z" />
    <glyph glyph-name="Edieresis" unicode="&#xcb;" horiz-adv-x="1225" 
d="M100 332q0 447 73 930q32 209 75 399q10 43 33 43h835q64 0 64 -29q0 -3 -2 -7.5t-2 -6.5q-71 -187 -140 -285q-8 -8 -16 -12q-27 18 -72 45q-93 51 -221 51q-174 0 -254 -134q-41 -68 -45 -150q-2 -43 24 -78q23 -32 60 -33q52 9 135 38q103 35 134 44q46 12 104 12
q92 0 92 -43v-16l-125 -303q-5 -12 -21 -17q-34 13 -104 31q-42 6 -65 6q-160 0 -229 -145q-34 -70 -34 -140q0 -61 30 -128q61 -140 214 -144q147 -4 309 96q30 18 59 33q12 6 17 6q22 0 39 -35q64 -114 121 -276q12 -34 12 -59t-47 -25h-981q-47 0 -59.5 52.5t-12.5 279.5
zM844 1841q-79 1 -129 44q-53 46 -53 124q24 158 182 160q75 1 128 -41q56 -46 56 -119q0 -78 -52.5 -123.5t-131.5 -44.5zM377 1841q-80 1 -130 44q-54 46 -54 124q0 77 67 128q42 32 117 32t128 -41q56 -45 56 -119q0 -77 -53 -123t-131 -45z" />
    <glyph glyph-name="Igrave" unicode="&#xcc;" horiz-adv-x="668" 
d="M129 805q0 626 64 823q25 76 71 76h260q39 0 39 -25q0 -13 -4 -30q-98 -423 -98 -717v-58q0 -485 94 -823q0 -5 2 -15.5t2 -15.5q0 -20 -18 -20h-322q-37 0 -55 65q-9 47 -17 95q-18 94 -18 645zM485 1831q0 -2 2 -7.5t2 -8.5q0 -9 -28 -15q-150 28 -297 197
q-64 73 -111 153q-4 9 -12 33q7 45 68 45h124q36 0 56 -28z" />
    <glyph glyph-name="Iacute" unicode="&#xcd;" horiz-adv-x="668" 
d="M129 805q0 626 64 823q25 76 71 76h260q39 0 39 -25q0 -13 -4 -30q-98 -423 -98 -717v-58q0 -485 94 -823q0 -5 2 -15.5t2 -15.5q0 -20 -18 -20h-322q-37 0 -55 65q-9 47 -17 95q-18 94 -18 645zM416 2191q15 27 32 33q10 4 48 4h92q77 0 80 -49q3 -44 -174 -221
q-75 -75 -127 -107q-79 -49 -127 -55q-7 5 -25 19q4 12 33 65z" />
    <glyph glyph-name="Icircumflex" unicode="&#xce;" horiz-adv-x="668" 
d="M129 805q0 626 64 823q25 76 71 76h260q39 0 39 -25q0 -13 -4 -30q-98 -423 -98 -717v-58q0 -485 94 -823q0 -5 2 -15.5t2 -15.5q0 -20 -18 -20h-322q-37 0 -55 65q-9 47 -17 95q-18 94 -18 645zM375 1987q-20 24 -35 24t-45 -37l-127 -131q-30 -31 -49 -37
q-38 12 -109 41q-21 11 -30 37q7 24 32 51l252 273q24 26 96 26q75 0 115 -39l268 -264q29 -29 29 -41q0 -4 -41 -22q-89 -39 -164 -62q-7 2 -35 29z" />
    <glyph glyph-name="Idieresis" unicode="&#xcf;" horiz-adv-x="668" 
d="M129 805q0 626 64 823q25 76 71 76h260q39 0 39 -25q0 -13 -4 -30q-98 -423 -98 -717v-58q0 -485 94 -823q0 -5 2 -15.5t2 -15.5q0 -20 -18 -20h-322q-37 0 -55 65q-9 47 -17 95q-18 94 -18 645zM571 1845q-79 1 -129 45q-53 45 -53 123q24 158 182 160q76 1 128 -41
q57 -45 57 -119q0 -78 -52.5 -123.5t-132.5 -44.5zM104 1845q-79 1 -130 45q-54 46 -54 123t67 128q42 32 117 32q76 0 128 -41q57 -45 57 -119q0 -77 -53.5 -123t-131.5 -45z" />
    <glyph glyph-name="Eth" unicode="&#xd0;" horiz-adv-x="1348" 
d="M51 725q-3 332 154 632q199 379 614 380q258 0 386 -145q58 -67 59 -140q1 -88 -43 -136q-39 -42 -129 -65q-21 0 -31 -4q-49 4 -49 62q-10 81 -65 108q-60 30 -136 27q-228 -8 -330 -216t-100 -456q3 -436 344 -436q164 0 225 100q27 45 27 96q0 92 -60 145
q-29 20 -85 62q-16 11 -17 17q5 14 16 20q54 36 222 95q79 27 102 36q30 8 33 8q18 0 24 -22q27 -62 59 -351q13 -122 13 -186q0 -230 -235 -336q-117 -53 -277 -53q-356 0 -541 218q-177 205 -180 540zM1108 2140q12 -12 12 -55q0 -8 -2 -24.5t-2 -24.5q-47 -115 -185 -168
q-60 -23 -110 -23q-338 0 -397 219q0 80 129 80q55 0 149 -53q88 -51 146 -51q45 0 125.5 54t107.5 54q11 0 27 -8z" />
    <glyph glyph-name="Ntilde" unicode="&#xd1;" horiz-adv-x="1452" 
d="M118 283q-18 304 -18 489q0 373 35 674q17 144 41 203q22 55 60 55h163q43 0 80 -31q6 -4 62 -65q82 -88 212 -305q144 -241 242 -422q43 -79 62 -88q14 0 14 79q0 302 -46 556q-25 138 -64 255q5 21 43 21h213q44 0 66 -50q9 -20 22 -89q47 -242 47 -772
q0 -251 -17 -504q-10 -146 -12 -162q-18 -127 -63 -127h-256q-51 0 -64 68q-65 342 -260 725q-55 109 -122 215q-106 168 -150 168q-20 0 -21 -31l-9 -183q-5 -105 -5 -106q1 -170 25 -384q22 -195 63 -425v-27q0 -20 -12 -20h-248q-35 0 -50 41q-22 57 -33 242zM311 1948
q14 104 92 163q73 56 181 56q70 0 194 -48q119 -47 185 -53q93 8 116 76q6 12 25 12q47 0 47 -26q-21 -130 -105 -187q-91 -62 -202 -61q-114 1 -197 39q-121 55 -188 55q-57 0 -76 -51q-2 0 -5 -10t-7 -10q-9 0 -17 -5q-18 9 -30 9q-13 6 -13 24v17z" />
    <glyph glyph-name="Ograve" unicode="&#xd2;" horiz-adv-x="1460" 
d="M47 604q7 422 198 767q91 165 215 265q128 102 267 105q141 3 271 -104q250 -208 363 -637q50 -194 50 -363q0 -347 -193 -533q-100 -97 -253 -124q-75 -13 -197 -13h-184q-141 0 -256 69q-138 82 -214 245q-70 151 -67 323zM1075 637q4 162 -32 322q-64 281 -201 396
q-61 50 -117 50q-96 0 -188 -150q-63 -104 -103 -234q-55 -178 -53 -345q2 -233 156 -306q78 -38 188 -38q343 -2 350 305zM821 1827q0 -3 4 -11v-6q0 -8 -28 -14q-150 28 -297 197q-82 93 -112 156q-3 5 -11 30q7 45 67 45h125q36 0 56 -29z" />
    <glyph glyph-name="Oacute" unicode="&#xd3;" horiz-adv-x="1460" 
d="M47 604q7 422 198 767q91 165 215 265q128 102 267 105q141 3 271 -104q250 -208 363 -637q50 -194 50 -363q0 -347 -193 -533q-100 -97 -253 -124q-75 -13 -197 -13h-184q-141 0 -256 69q-138 82 -214 245q-70 151 -67 323zM1075 637q4 162 -32 322q-64 281 -201 396
q-61 50 -117 50q-96 0 -188 -150q-63 -104 -103 -234q-55 -178 -53 -345q2 -233 156 -306q78 -38 188 -38q343 -2 350 305zM780 2195q14 27 32 33q11 4 48 4h92q77 0 80 -49q3 -45 -172 -221q-148 -148 -256 -162q-7 5 -24 19q4 13 32 65z" />
    <glyph glyph-name="Ocircumflex" unicode="&#xd4;" horiz-adv-x="1460" 
d="M47 604q7 422 198 767q91 165 215 265q128 102 267 105q141 3 271 -104q250 -208 363 -637q50 -194 50 -363q0 -347 -193 -533q-100 -97 -253 -124q-75 -13 -197 -13h-184q-141 0 -256 69q-138 82 -214 245q-70 151 -67 323zM1075 637q4 162 -32 322q-64 281 -201 396
q-61 50 -117 50q-96 0 -188 -150q-63 -104 -103 -234q-55 -178 -53 -345q2 -233 156 -306q78 -38 188 -38q343 -2 350 305zM772 1982q-19 25 -35 25q-9 0 -45 -37l-127 -131q-30 -31 -49 -37q-38 12 -109 41q-21 11 -30 37q7 22 33 51l252 273q24 26 96 26q74 0 114 -39
l269 -264q28 -27 28 -41q0 -4 -41 -22q-88 -38 -163 -62q-6 2 -35 29z" />
    <glyph glyph-name="Otilde" unicode="&#xd5;" horiz-adv-x="1460" 
d="M47 604q7 422 198 767q91 165 215 265q128 102 267 105q141 3 271 -104q250 -208 363 -637q50 -194 50 -363q0 -347 -193 -533q-100 -97 -253 -124q-75 -13 -197 -13h-184q-141 0 -256 69q-138 82 -214 245q-70 151 -67 323zM1075 637q4 162 -32 322q-64 281 -201 396
q-61 50 -117 50q-96 0 -188 -150q-63 -104 -103 -234q-55 -178 -53 -345q2 -233 156 -306q78 -38 188 -38q343 -2 350 305zM311 1948q14 104 92 163q73 56 181 56q70 0 194 -48q119 -47 185 -53q93 8 116 76q6 12 25 12q47 0 47 -26q-21 -130 -105 -187q-91 -62 -202 -61
q-114 1 -197 39q-121 55 -188 55q-57 0 -76 -51q-2 0 -5 -10t-7 -10q-9 0 -17 -5q-18 9 -30 9q-13 6 -13 24v17z" />
    <glyph glyph-name="Odieresis" unicode="&#xd6;" horiz-adv-x="1460" 
d="M47 604q7 422 198 767q91 165 215 265q128 102 267 105q141 3 271 -104q250 -208 363 -637q50 -194 50 -363q0 -347 -193 -533q-100 -97 -253 -124q-75 -13 -197 -13h-184q-141 0 -256 69q-138 82 -214 245q-70 151 -67 323zM1075 637q4 162 -32 322q-64 281 -201 396
q-61 50 -117 50q-96 0 -188 -150q-63 -104 -103 -234q-55 -178 -53 -345q2 -233 156 -306q78 -38 188 -38q343 -2 350 305zM983 1849q-79 1 -129 45q-53 45 -53 123q24 158 182 160q76 1 128 -41q56 -45 56 -119q0 -78 -52.5 -123.5t-131.5 -44.5zM516 1849q-79 1 -130 45
q-54 46 -54 123t67 128q42 32 117 32q76 0 128 -41q56 -44 56 -119q0 -77 -53 -123t-131 -45z" />
    <glyph glyph-name="Oslash" unicode="&#xd8;" horiz-adv-x="1460" 
d="M143 215q-89 182 -92 422q-2 150 41 329q86 357 273 579q92 109 190 151q95 41 176 41q251 0 428 -273l172 207q27 33 62 33q26 0 44.5 -20.5t18.5 -47.5q0 -31 -20 -57l-197 -252q92 -169 141 -432q25 -139 25 -266q0 -276 -121 -453q-143 -209 -399 -209h-314
q-73 0 -172 41q-96 38 -155 88l-148 -176q-24 -29 -59 -29q-29 0 -49.5 23.5t-20.5 52.5t13 45zM395 512l561 705q-111 184 -229 184q-95 0 -172 -113q-168 -245 -174 -600q3 -59 14 -176zM487 395q25 -22 95 -41q84 -23 149 -22q170 3 260 84q84 76 84 276q0 189 -55 369z
" />
    <glyph glyph-name="Ugrave" unicode="&#xd9;" horiz-adv-x="1380" 
d="M68 948q0 493 67 692q7 29 25 64q8 4 28 4l261 -4q51 -1 51 -33q0 -9 -8 -35t-9 -37q-80 -339 -84 -591q1 -35 4 -131q9 -263 97 -409q83 -141 200 -144q237 18 291 348q21 133 21 276q0 191 -26 385q-23 174 -50 258q-12 29 -29 88q6 25 37 25h244q36 0 51 -23
q6 -9 21 -57q53 -169 53 -680q0 -534 -212 -806q-134 -171 -388 -171h-4q-347 0 -501 265q-140 238 -140 716zM776 1827q0 -3 4 -11v-6q0 -8 -28 -14q-150 28 -297 197q-82 93 -112 156q-3 5 -11 30q7 45 67 45h125q36 0 56 -29z" />
    <glyph glyph-name="Uacute" unicode="&#xda;" horiz-adv-x="1380" 
d="M68 948q0 493 67 692q7 29 25 64q8 4 28 4l261 -4q51 -1 51 -33q0 -9 -8 -35t-9 -37q-80 -339 -84 -591q1 -35 4 -131q9 -263 97 -409q83 -141 200 -144q237 18 291 348q21 133 21 276q0 191 -26 385q-23 174 -50 258q-12 29 -29 88q6 25 37 25h244q36 0 51 -23
q6 -9 21 -57q53 -169 53 -680q0 -534 -212 -806q-134 -171 -388 -171h-4q-347 0 -501 265q-140 238 -140 716zM797 2191q15 27 32 33q10 4 48 4h92q75 0 80 -49q0 -47 -174 -221q-75 -75 -127 -107q-79 -49 -127 -55q-7 5 -25 19q4 12 33 65z" />
    <glyph glyph-name="Ucircumflex" unicode="&#xdb;" horiz-adv-x="1380" 
d="M68 948q0 493 67 692q7 29 25 64q8 4 28 4l261 -4q51 -1 51 -33q0 -9 -8 -35t-9 -37q-80 -339 -84 -591q1 -35 4 -131q9 -263 97 -409q83 -141 200 -144q237 18 291 348q21 133 21 276q0 191 -26 385q-23 174 -50 258q-12 29 -29 88q6 25 37 25h244q36 0 51 -23
q6 -9 21 -57q53 -169 53 -680q0 -534 -212 -806q-134 -171 -388 -171h-4q-347 0 -501 265q-140 238 -140 716zM684 1982q-19 25 -35 25q-9 0 -45 -37l-127 -131q-30 -31 -49 -37q-38 12 -109 41q-21 11 -30 37q7 22 33 51l251 273q24 26 97 26q74 0 114 -39l269 -264
q28 -27 28 -41q0 -4 -41 -22q-88 -38 -163 -62q-6 2 -35 29z" />
    <glyph glyph-name="Udieresis" unicode="&#xdc;" horiz-adv-x="1380" 
d="M68 948q0 493 67 692q7 29 25 64q8 4 28 4l261 -4q51 -1 51 -33q0 -9 -8 -35t-9 -37q-80 -339 -84 -591q1 -35 4 -131q9 -263 97 -409q83 -141 200 -144q237 18 291 348q21 133 21 276q0 191 -26 385q-23 174 -50 258q-12 29 -29 88q6 25 37 25h244q36 0 51 -23
q6 -9 21 -57q53 -169 53 -680q0 -534 -212 -806q-134 -171 -388 -171h-4q-347 0 -501 265q-140 238 -140 716zM924 1845q-80 1 -130 44q-53 46 -53 124q11 85 67 128q42 32 116 32q75 0 128 -41q56 -45 56 -119q0 -78 -52.5 -123.5t-131.5 -44.5zM457 1845q-79 1 -130 44
q-55 46 -55 124q0 77 67 128q43 32 118 32t128 -41q56 -45 56 -119q0 -77 -53 -123t-131 -45z" />
    <glyph glyph-name="Yacute" unicode="&#xdd;" horiz-adv-x="668" 
d="M129 805q0 626 64 823q25 76 71 76h260q39 0 39 -25q0 -13 -4 -30q-98 -423 -98 -717v-58q0 -485 94 -823q0 -5 2 -15.5t2 -15.5q0 -20 -18 -20h-322q-37 0 -55 65q-9 47 -17 95q-18 94 -18 645zM446 1860q-80 1 -130 44q-54 46 -54 124q0 76 67 127q42 32 117 32
q76 0 128 -40q57 -45 57 -119q0 -77 -53.5 -123t-131.5 -45z" />
    <glyph glyph-name="Thorn" unicode="&#xde;" horiz-adv-x="1323" 
d="M784 -23q3 -53 15 -69q5 -20 24 -33q43 -20 58 -29q31 -18 51 -41q24 -27 24 -73q0 -139 -254 -208q-107 -28 -190 -28q-59 0 -84 25q9 24 64 50q40 19 81 37q19 12 19 52q0 39 -40 69q-35 26 -77 31q-35 5 -102 24q-17 8 -17 19q40 77 199 170q-318 37 -436 263
q-53 101 -56 213q11 172 105 268q8 8 20 8q15 0 33 -78q20 -92 47 -147q45 -91 149 -140q109 -53 220 -53q116 0 204 55q84 52 83 138q-1 118 -125 183q-54 28 -105 46q-17 6 -58 19l-120 40q-260 88 -354 283q-44 92 -45 184q-1 135 85 264q80 122 194 170t259 48
q286 0 461 -150q47 -31 47 -71q0 -56 -45 -128q-39 -63 -90 -104q-6 -6 -24 -12q-23 2 -53 32l-19 19q-123 133 -281 133q-130 0 -198 -88q-35 -44 -33 -88q4 -129 221 -201q140 -47 193 -68q100 -40 183 -92q96 -61 164 -157q72 -102 74 -230q4 -221 -127.5 -370.5
t-343.5 -184.5z" />
    <glyph glyph-name="agrave" unicode="&#xe0;" horiz-adv-x="1065" 
d="M676 580q0 67 -88 67q-125 0 -206 -109q-38 -52 -38 -118q0 -86 76 -134q64 -42 155 -42q101 11 101 112v224zM655 952q0 65 -69 109q-60 39 -129 39q-133 0 -209 -172q-4 -4 -17 -8q-29 5 -66 32q-71 52 -71 148q0 143 195 212q88 31 186 31q251 0 377 -176
q66 -91 76 -231q11 -148 26 -529q5 -145 9 -218q4 -49 10 -146q2 -43 -330 -43q-390 0 -506 152q-66 85 -69 221q-3 117 66 222q131 202 429 261q53 5 72.5 24t19.5 72zM684 1436q0 -2 2 -8t2 -9q0 -8 -29 -14q-148 27 -296 197q-82 93 -112 156q-3 5 -11 30q7 45 67 45h125
q36 0 55 -29z" />
    <glyph glyph-name="aacute" unicode="&#xe1;" horiz-adv-x="1065" 
d="M676 580q0 67 -88 67q-125 0 -206 -109q-38 -52 -38 -118q0 -86 76 -134q64 -42 155 -42q101 11 101 112v224zM655 952q0 65 -69 109q-60 39 -129 39q-133 0 -209 -172q-4 -4 -17 -8q-29 5 -66 32q-71 52 -71 148q0 143 195 212q88 31 186 31q251 0 377 -176
q66 -91 76 -231q11 -148 26 -529q5 -145 9 -218q4 -49 10 -146q2 -43 -330 -43q-390 0 -506 152q-66 85 -69 221q-3 117 66 222q131 202 429 261q53 5 72.5 24t19.5 72zM645 1796q14 27 32 33q11 4 48 4h92q77 0 80 -49q3 -45 -172 -221q-148 -148 -256 -162q-7 5 -25 18
q8 19 33 66z" />
    <glyph glyph-name="acircumflex" unicode="&#xe2;" horiz-adv-x="1065" 
d="M676 580q0 67 -88 67q-125 0 -206 -109q-38 -52 -38 -118q0 -86 76 -134q64 -42 155 -42q101 11 101 112v224zM655 952q0 65 -69 109q-60 39 -129 39q-133 0 -209 -172q-4 -4 -17 -8q-29 5 -66 32q-71 52 -71 148q0 143 195 212q88 31 186 31q251 0 377 -176
q66 -91 76 -231q11 -148 26 -529q5 -145 9 -218q4 -49 10 -146q2 -43 -330 -43q-390 0 -506 152q-66 85 -69 221q-3 117 66 222q131 202 429 261q53 5 72.5 24t19.5 72zM516 1587q-21 25 -35 25q-9 0 -45 -37l-127 -131q-29 -30 -49 -37q-37 11 -109 40q-20 10 -30 38
q7 23 33 51l252 272q25 27 96 27q74 0 114 -39l269 -264q28 -27 28 -41q0 -5 -41 -23q-93 -41 -163 -61q-14 3 -35 29z" />
    <glyph glyph-name="atilde" unicode="&#xe3;" horiz-adv-x="1065" 
d="M676 580q0 67 -88 67q-125 0 -206 -109q-38 -52 -38 -118q0 -86 76 -134q64 -42 155 -42q101 11 101 112v224zM655 952q0 65 -69 109q-60 39 -129 39q-133 0 -209 -172q-4 -4 -17 -8q-29 5 -66 32q-71 52 -71 148q0 143 195 212q88 31 186 31q251 0 377 -176
q66 -91 76 -231q11 -148 26 -529q5 -145 9 -218q4 -49 10 -146q2 -43 -330 -43q-390 0 -506 152q-66 85 -69 221q-3 117 66 222q131 202 429 261q53 5 72.5 24t19.5 72zM117 1556q13 105 91 164q73 56 181 56q76 0 197 -49q115 -48 182 -52q92 6 117 76q6 12 24 12
q47 0 47 -26q-21 -130 -105 -187q-91 -62 -202 -61q-113 1 -196 39q-121 55 -189 55q-51 0 -76 -51q-2 0 -5 -10.5t-7 -10.5q-8 0 -16 -4q-22 9 -31 9q-12 6 -12 24v16z" />
    <glyph glyph-name="adieresis" unicode="&#xe4;" horiz-adv-x="1065" 
d="M676 580q0 67 -88 67q-125 0 -206 -109q-38 -52 -38 -118q0 -86 76 -134q64 -42 155 -42q101 11 101 112v224zM655 952q0 65 -69 109q-60 39 -129 39q-133 0 -209 -172q-4 -4 -17 -8q-29 5 -66 32q-71 52 -71 148q0 143 195 212q88 31 186 31q251 0 377 -176
q66 -91 76 -231q11 -148 26 -529q5 -145 9 -218q4 -49 10 -146q2 -43 -330 -43q-390 0 -506 152q-66 85 -69 221q-3 117 66 222q131 202 429 261q53 5 72.5 24t19.5 72zM768 1452q-79 1 -129 44q-53 46 -53 124q24 158 182 160q76 1 128 -41q56 -45 56 -119
q0 -78 -52.5 -123.5t-131.5 -44.5zM301 1452q-80 1 -130 44q-54 46 -54 124q0 77 67 128q42 32 117 32q76 0 128 -41q56 -44 56 -119q0 -77 -53 -123t-131 -45z" />
    <glyph glyph-name="aring" unicode="&#xe5;" horiz-adv-x="1065" 
d="M676 580q0 67 -88 67q-125 0 -206 -109q-38 -52 -38 -118q0 -86 76 -134q64 -42 155 -42q101 11 101 112v224zM655 952q0 65 -69 109q-60 39 -129 39q-133 0 -209 -172q-4 -4 -17 -8q-29 5 -66 32q-71 52 -71 148q0 143 195 212q88 31 186 31q251 0 377 -176
q66 -91 76 -231q11 -148 26 -529q5 -145 9 -218q4 -49 10 -146q2 -43 -330 -43q-390 0 -506 152q-66 85 -69 221q-3 117 66 222q131 202 429 261q53 5 72.5 24t19.5 72zM264 1624q0 99 75 169q74 67 173 67q109 0 181 -63q75 -66 75 -173q0 -105 -78 -171q-73 -64 -178 -64
q-99 0 -173.5 68.5t-74.5 166.5zM412 1624q0 -42 29 -75t71 -33q113 0 113 108q0 47 -33 80t-80 33q-41 0 -70.5 -35.5t-29.5 -77.5z" />
    <glyph glyph-name="ae" unicode="&#xe6;" horiz-adv-x="1679" 
d="M893 63q-10 -48 -135 -60q-34 -3 -162 -3h-55q-327 0 -422 161q-49 81 -51 187q-2 108 51 213q108 211 397 283q83 21 92 25q47 21 47 71q0 99 -106 142q-46 18 -96 18q-156 0 -201 -168q0 -6 -21 -12q-58 6 -98 70q-37 57 -37 118q11 119 129 181q96 50 228 50
q271 0 391 -168q102 116 231 151q62 17 129 17q223 0 345 -153q56 -71 63 -158q2 -26 2 -55q0 -201 -171 -297q-77 -44 -188 -80q-147 -48 -183 -65q-116 -57 -116 -136q19 -122 277 -155q257 10 336 247q0 13 10 13q24 0 29 -68q6 -36 6 -72q0 -182 -138 -290
q-130 -103 -309 -103q-169 0 -274 96zM924 809q0 -47 32 -53q10 4 11 4h2q161 34 254 72q123 51 137 104v12q0 65 -56 110q-53 42 -120 42q-107 0 -183.5 -97.5t-76.5 -193.5zM676 580q0 63 -92 63q-87 0 -162 -59q-79 -63 -82 -148q-4 -103 119 -170q57 -32 100 -30
q117 4 117 137v207z" />
    <glyph glyph-name="ccedilla" unicode="&#xe7;" horiz-adv-x="999" 
d="M43 651q3 171 60 310q103 249 325 336q98 38 201 38q180 0 263 -104q40 -51 40 -115q0 -72 -58 -137q-26 -30 -55 -31q-36 8 -63 64q-42 88 -148 88q-155 0 -239 -187q-47 -104 -50 -237q-3 -123 41 -218q40 -89 108.5 -133t139.5 -44q76 0 150 45q66 39 110 118
q24 43 31 43q12 0 12 -12q17 -56 17 -127q0 -106 -48 -189q-44 -77 -120 -126q-112 -72 -117 -125q5 -21 25 -33q45 -21 58 -30q31 -18 51 -41q24 -28 24 -72q0 -140 -255 -208q-107 -28 -190 -28q-59 0 -84 25q9 24 64 50q40 19 81 37q19 12 19 52q0 39 -40 69
q-35 26 -77 31q-35 5 -101 24q-17 8 -17 19q39 75 211 177q-214 33 -317 332q-55 157 -52 339z" />
    <glyph glyph-name="egrave" unicode="&#xe8;" horiz-adv-x="1075" 
d="M319 811q-1 -49 41 -55q13 1 97 24q188 51 252 101q43 26 43 71q0 63 -58 107q-54 41 -119 41q-141 0 -219 -151q-35 -68 -37 -138zM487 545q-137 -45 -143 -137q8 -79 98 -119q96 -44 187 -45q59 -1 132 24q141 48 191 203q6 29 21 29q27 0 31 -92q2 -14 2 -46
q0 -228 -209 -340q-103 -55 -248 -55q-247 0 -382 197q-125 180 -126 448q0 101 23 211q51 246 188 374q152 142 356 142q251 0 358 -184q35 -61 42 -139q2 -21 2 -49q0 -188 -175 -289q-77 -45 -182 -79zM750 1436q0 -2 2 -8t2 -9q0 -8 -29 -14q-150 28 -297 197
q-82 93 -112 156q-3 5 -11 30q7 45 68 45h125q36 0 55 -29z" />
    <glyph glyph-name="eacute" unicode="&#xe9;" horiz-adv-x="1075" 
d="M319 811q-1 -49 41 -55q13 1 97 24q188 51 252 101q43 26 43 71q0 63 -58 107q-54 41 -119 41q-141 0 -219 -151q-35 -68 -37 -138zM487 545q-137 -45 -143 -137q8 -79 98 -119q96 -44 187 -45q59 -1 132 24q141 48 191 203q6 29 21 29q27 0 31 -92q2 -14 2 -46
q0 -228 -209 -340q-103 -55 -248 -55q-247 0 -382 197q-125 180 -126 448q0 101 23 211q51 246 188 374q152 142 356 142q251 0 358 -184q35 -61 42 -139q2 -21 2 -49q0 -188 -175 -289q-77 -45 -182 -79zM641 1796q14 27 32 33q11 4 48 4h92q77 0 80 -49q3 -45 -172 -221
q-148 -148 -256 -162q-7 5 -25 18q3 11 33 66z" />
    <glyph glyph-name="ecircumflex" unicode="&#xea;" horiz-adv-x="1075" 
d="M319 811q-1 -49 41 -55q13 1 97 24q188 51 252 101q43 26 43 71q0 63 -58 107q-54 41 -119 41q-141 0 -219 -151q-35 -68 -37 -138zM487 545q-137 -45 -143 -137q8 -79 98 -119q96 -44 187 -45q59 -1 132 24q141 48 191 203q6 29 21 29q27 0 31 -92q2 -14 2 -46
q0 -228 -209 -340q-103 -55 -248 -55q-247 0 -382 197q-125 180 -126 448q0 101 23 211q51 246 188 374q152 142 356 142q251 0 358 -184q35 -61 42 -139q2 -21 2 -49q0 -188 -175 -289q-77 -45 -182 -79zM535 1591q-21 25 -35 25q-15 0 -45 -37l-127 -131q-30 -31 -49 -37
q-8 5 -77 28q-49 16 -63 50q6 22 33 51l252 272q25 27 96 27q75 0 115 -39l268 -264q29 -29 29 -41q0 -4 -41 -22q-95 -42 -164 -62q-12 2 -22 15l-13 14z" />
    <glyph glyph-name="edieresis" unicode="&#xeb;" horiz-adv-x="1075" 
d="M319 811q-1 -49 41 -55q13 1 97 24q188 51 252 101q43 26 43 71q0 63 -58 107q-54 41 -119 41q-141 0 -219 -151q-35 -68 -37 -138zM487 545q-137 -45 -143 -137q8 -79 98 -119q96 -44 187 -45q59 -1 132 24q141 48 191 203q6 29 21 29q27 0 31 -92q2 -14 2 -46
q0 -228 -209 -340q-103 -55 -248 -55q-247 0 -382 197q-125 180 -126 448q0 101 23 211q51 246 188 374q152 142 356 142q251 0 358 -184q35 -61 42 -139q2 -21 2 -49q0 -188 -175 -289q-77 -45 -182 -79zM772 1452q-79 1 -129 44q-53 46 -53 124q24 158 182 160
q76 1 128 -41q56 -45 56 -119q0 -78 -52.5 -123.5t-131.5 -44.5zM305 1452q-80 1 -130 44q-54 46 -54 124q0 77 67 128q42 32 117 32q76 0 128 -41q56 -44 56 -119q0 -77 -53 -123t-131 -45z" />
    <glyph glyph-name="igrave" unicode="&#xec;" horiz-adv-x="545" 
d="M121 1264q13 49 43 49h172q59 0 59 -33q-15 -125 -22 -381q2 -34 4 -182q3 -305 72 -654v-20q0 -43 -50 -43h-211q-33 0 -42 3q-14 6 -25 30q-29 63 -29 555q0 566 29 676zM424 1436q0 -2 2 -8t2 -9q0 -8 -29 -14q-151 28 -297 197q-81 94 -111 156q-3 5 -11 30
q7 45 67 45h125q36 0 55 -29z" />
    <glyph glyph-name="iacute" unicode="&#xed;" horiz-adv-x="545" 
d="M121 1264q13 49 43 49h172q59 0 59 -33q-15 -125 -22 -381q2 -34 4 -182q3 -305 72 -654v-20q0 -43 -50 -43h-211q-33 0 -42 3q-14 6 -25 30q-29 63 -29 555q0 566 29 676zM315 1796q14 27 32 33q11 4 48 4h92q77 0 80 -49q3 -45 -172 -221q-148 -148 -256 -162
q-3 1 -24 18q4 14 32 66z" />
    <glyph glyph-name="icircumflex" unicode="&#xee;" horiz-adv-x="545" 
d="M121 1264q13 49 43 49h172q59 0 59 -33q-15 -125 -22 -381q2 -34 4 -182q3 -305 72 -654v-20q0 -43 -50 -43h-211q-33 0 -42 3q-14 6 -25 30q-29 63 -29 555q0 566 29 676zM274 1591q-19 25 -34 25t-45 -37l-127 -131q-30 -31 -50 -37q-9 5 -76 28q-48 15 -63 50
q7 23 33 51l252 272q25 27 96 27q75 0 115 -39l268 -264q29 -29 29 -41q0 -4 -41 -22q-93 -41 -164 -62q-14 3 -35 29z" />
    <glyph glyph-name="idieresis" unicode="&#xef;" horiz-adv-x="545" 
d="M121 1264q13 49 43 49h172q59 0 59 -33q-15 -125 -22 -381q2 -34 4 -182q3 -305 72 -654v-20q0 -43 -50 -43h-211q-33 0 -42 3q-14 6 -25 30q-29 63 -29 555q0 566 29 676zM512 1452q-79 1 -129 44q-53 46 -53 124q24 158 182 160q76 1 128 -41q56 -45 56 -119
q0 -78 -52.5 -123.5t-131.5 -44.5zM45 1452q-80 1 -130 44q-54 46 -54 124q0 77 67 128q42 32 117 32q76 0 128 -41q56 -44 56 -119q0 -77 -53 -123t-131 -45z" />
    <glyph glyph-name="eth" unicode="&#xf0;" horiz-adv-x="1141" 
d="M381 940q0 -89 52 -150q55 -65 142 -65q89 0 145 60.5t56 150.5q0 133 -104 188q-47 25 -101 25q-87 0 -140 -62q-50 -58 -50 -147zM285 553q0 2 -54 87q-58 89 -66 108q-33 70 -34 167q4 12 4 21q11 258 216 358q93 45 208 45q73 0 141 -12q5 0 9 -4q56 7 110 92
q76 96 113 96q78 0 164 -155q8 -14 8 -25q0 -19 -73 -28q-81 -9 -91 -19q-23 -22 -29 -51q1 -20 17 -45l39 -64q24 -39 39 -91q16 -60 14 -126q-5 -142 -62 -237q-94 -157 -280 -190q-78 -14 -150 -15q-57 -1 -123 -41q-74 -44 -77 -96q16 -50 67 -60q39 0 153 36
q80 25 161 51q51 14 122 14q74 0 141 -25q89 -34 89 -96q0 -58 -33 -136q-31 -73 -72 -120q-10 -21 -36 -21q-23 0 -56 45q-41 56 -116 56q-56 0 -130 -26l-148 -53q-75 -26 -130 -26q-131 0 -210 73.5t-79 203.5t117 212l66 44q50 36 51 53zM850 1812q12 -12 12 -55
q0 -8 -2 -24.5t-2 -24.5q-47 -113 -185 -167q-60 -23 -110 -23q-202 0 -314 90q-62 49 -83 129q0 80 129 80q57 0 151 -55q85 -50 144 -50q46 0 128 56q78 53 105 53q13 0 27 -9z" />
    <glyph glyph-name="ntilde" unicode="&#xf1;" horiz-adv-x="1133" 
d="M121 51q-15 52 -20 140q-9 158 -9 253q0 21 2 89q2 72 2 122q1 199 4 276q7 160 27 275q17 96 53 137q24 33 80 33h139q66 0 66 -37q0 -13 -7 -39q-8 -31 -9 -40q6 -31 34 -31q4 0 71 30q73 32 84 36q61 20 122 18q91 -3 155 -74q61 -70 88 -159q29 -97 29 -160v-220
q0 -462 -33 -612q-19 -88 -79 -88h-181q-79 0 -84 25q105 317 105 692q0 157 -18 222q-35 128 -146 128q-99 0 -158 -112q-44 -82 -57 -199q-5 -39 -12 -140q-2 -59 12 -202q22 -229 47 -367v-22q0 -25 -25 -25h-239q-34 0 -43 51zM104 1556q14 105 91 164q73 56 182 56
q76 0 197 -49q115 -48 182 -52q92 6 116 76q7 12 25 12q47 0 47 -26q-21 -130 -105 -187q-91 -62 -202 -61q-114 1 -197 39q-121 55 -188 55q-56 0 -76 -51q-2 0 -5 -10.5t-7 -10.5q-8 0 -17 -4q-23 9 -30 9q-13 6 -13 24v16z" />
    <glyph glyph-name="ograve" unicode="&#xf2;" horiz-adv-x="1116" 
d="M297 688q5 -171 78 -278q69 -103 184 -103q159 0 227 182q33 89 33 203q0 160 -54 268q-71 140 -216 140q-152 0 -219 -194q-36 -103 -33 -218zM43 688q2 146 45 276q81 242 270 333q89 42 191 42q179 0 305 -107q116 -99 173 -274q42 -135 44 -286q2 -232 -77 -395
q-67 -137 -176 -219q-120 -91 -263 -91q-148 0 -267 95q-108 86 -172 231q-75 169 -73 395zM684 1436q0 -2 2 -8t2 -9q0 -8 -29 -14q-148 27 -296 197q-82 93 -112 156q-3 5 -11 30q7 45 67 45h125q36 0 55 -29z" />
    <glyph glyph-name="oacute" unicode="&#xf3;" horiz-adv-x="1116" 
d="M297 688q5 -171 78 -278q69 -103 184 -103q159 0 227 182q33 89 33 203q0 160 -54 268q-71 140 -216 140q-152 0 -219 -194q-36 -103 -33 -218zM43 688q2 146 45 276q81 242 270 333q89 42 191 42q179 0 305 -107q116 -99 173 -274q42 -135 44 -286q2 -232 -77 -395
q-67 -137 -176 -219q-120 -91 -263 -91q-148 0 -267 95q-108 86 -172 231q-75 169 -73 395zM641 1796q14 27 32 33q11 4 48 4h92q77 0 80 -49q3 -45 -172 -221q-148 -148 -256 -162q-7 5 -25 18q3 11 33 66z" />
    <glyph glyph-name="ocircumflex" unicode="&#xf4;" horiz-adv-x="1116" 
d="M297 688q5 -171 78 -278q69 -103 184 -103q159 0 227 182q33 89 33 203q0 160 -54 268q-71 140 -216 140q-152 0 -219 -194q-36 -103 -33 -218zM43 688q2 146 45 276q81 242 270 333q89 42 191 42q179 0 305 -107q116 -99 173 -274q42 -135 44 -286q2 -232 -77 -395
q-67 -137 -176 -219q-120 -91 -263 -91q-148 0 -267 95q-108 86 -172 231q-75 169 -73 395zM563 1591q-19 25 -35 25q-9 0 -45 -37l-127 -131q-29 -30 -49 -37q-38 12 -109 41q-21 11 -30 37q7 23 33 51l252 272q25 27 96 27q75 0 115 -39l268 -264q29 -29 29 -41
q0 -4 -41 -22q-93 -41 -164 -62q-14 3 -35 29z" />
    <glyph glyph-name="otilde" unicode="&#xf5;" horiz-adv-x="1116" 
d="M297 688q5 -171 78 -278q69 -103 184 -103q159 0 227 182q33 89 33 203q0 160 -54 268q-71 140 -216 140q-152 0 -219 -194q-36 -103 -33 -218zM43 688q2 146 45 276q81 242 270 333q89 42 191 42q179 0 305 -107q116 -99 173 -274q42 -135 44 -286q2 -232 -77 -395
q-67 -137 -176 -219q-120 -91 -263 -91q-148 0 -267 95q-108 86 -172 231q-75 169 -73 395zM129 1556q15 105 91 164q73 56 181 56q76 0 197 -49q115 -48 182 -52q93 6 117 76q6 12 25 12q47 0 47 -26q-21 -130 -105 -187q-91 -62 -202 -61q-114 1 -197 39q-121 55 -189 55
q-55 0 -75 -51q-10 -21 -13 -21q-8 0 -16 -4q-23 9 -31 9q-12 6 -12 24v16z" />
    <glyph glyph-name="odieresis" unicode="&#xf6;" horiz-adv-x="1116" 
d="M297 688q5 -171 78 -278q69 -103 184 -103q159 0 227 182q33 89 33 203q0 160 -54 268q-71 140 -216 140q-152 0 -219 -194q-36 -103 -33 -218zM43 688q2 146 45 276q81 242 270 333q89 42 191 42q179 0 305 -107q116 -99 173 -274q42 -135 44 -286q2 -232 -77 -395
q-67 -137 -176 -219q-120 -91 -263 -91q-148 0 -267 95q-108 86 -172 231q-75 169 -73 395zM782 1464q-79 1 -129 45q-53 45 -53 123q24 158 182 160q76 1 128 -41q57 -45 57 -119q0 -78 -52.5 -123.5t-132.5 -44.5zM315 1464q-79 1 -130 45q-54 46 -54 123t67 128
q42 32 117 32q76 0 128 -41q57 -45 57 -119q0 -77 -53.5 -123t-131.5 -45z" />
    <glyph glyph-name="oslash" unicode="&#xf8;" horiz-adv-x="1116" 
d="M340 479l408 512q-68 117 -195 117q-135 0 -204 -152q-52 -115 -52 -268q0 -102 43 -209zM139 236q-98 194 -96 452q1 144 47 279q82 245 272 339q91 45 191 46q219 2 350 -160l53 68q23 32 59 74q17 14 46 14q28 0 48 -23.5t19 -52.5q-1 -25 -35 -72q-11 -14 -32 -41
l-78 -94q88 -155 92 -389q2 -122 -32 -253q-72 -270 -262 -387q-98 -61 -226 -61q-88 0 -178 39q-93 41 -146 107q-33 -44 -65 -87q-48 -59 -82 -59q-29 0 -55 21.5t-25 50.5q1 22 58 93q39 48 77 96zM432 365q37 -50 127 -50q159 0 224 175q33 90 36 202q2 68 -10 144z" />
    <glyph glyph-name="ugrave" unicode="&#xf9;" horiz-adv-x="1141" 
d="M156 1260q13 53 49 53h235q25 0 25 -29q0 -22 -12 -59q-77 -238 -84 -549q3 -55 8 -164q15 -282 176 -289q211 15 211 449q0 174 -59 575q0 19 -9 37q5 29 43 29h209q30 0 51 -45q50 -108 50 -627q0 -336 -29 -512q-27 -162 -121 -162h-80q-98 0 -98 84q0 33 -41 33h-8
q-34 -25 -103 -71q-77 -47 -166 -46q-300 4 -307 613q-3 257 26 490q12 100 34 190zM721 1436q0 -2 2 -8t2 -9q0 -8 -29 -14q-151 28 -297 197q-64 75 -110 153q-4 11 -13 33q9 45 68 45h125q36 0 55 -29z" />
    <glyph glyph-name="uacute" unicode="&#xfa;" horiz-adv-x="1141" 
d="M156 1260q13 53 49 53h235q25 0 25 -29q0 -22 -12 -59q-77 -238 -84 -549q3 -55 8 -164q15 -282 176 -289q211 15 211 449q0 174 -59 575q0 19 -9 37q5 29 43 29h209q30 0 51 -45q50 -108 50 -627q0 -336 -29 -512q-27 -162 -121 -162h-80q-98 0 -98 84q0 33 -41 33h-8
q-34 -25 -103 -71q-77 -47 -166 -46q-300 4 -307 613q-3 257 26 490q12 100 34 190zM672 1796q15 27 32 33q10 4 48 4h92q77 0 80 -49q3 -44 -174 -221q-75 -75 -127 -107q-79 -49 -127 -55q-5 2 -25 18q4 13 33 66z" />
    <glyph glyph-name="ucircumflex" unicode="&#xfb;" horiz-adv-x="1141" 
d="M156 1260q13 53 49 53h235q25 0 25 -29q0 -22 -12 -59q-77 -238 -84 -549q3 -55 8 -164q15 -282 176 -289q211 15 211 449q0 174 -59 575q0 19 -9 37q5 29 43 29h209q30 0 51 -45q50 -108 50 -627q0 -336 -29 -512q-27 -162 -121 -162h-80q-98 0 -98 84q0 33 -41 33h-8
q-34 -25 -103 -71q-77 -47 -166 -46q-300 4 -307 613q-3 257 26 490q12 100 34 190zM563 1587q-21 25 -35 25q-9 0 -45 -37l-127 -131q-29 -30 -49 -37q-37 11 -109 40q-20 10 -30 38q7 23 33 51l252 272q25 27 96 27q75 0 115 -39l268 -264q29 -29 29 -41q-7 -8 -41 -23
q-88 -38 -164 -61q-14 3 -35 29z" />
    <glyph glyph-name="udieresis" unicode="&#xfc;" horiz-adv-x="1141" 
d="M156 1260q13 53 49 53h235q25 0 25 -29q0 -22 -12 -59q-77 -238 -84 -549q3 -55 8 -164q15 -282 176 -289q211 15 211 449q0 174 -59 575q0 19 -9 37q5 29 43 29h209q30 0 51 -45q50 -108 50 -627q0 -336 -29 -512q-27 -162 -121 -162h-80q-98 0 -98 84q0 33 -41 33h-8
q-34 -25 -103 -71q-77 -47 -166 -46q-300 4 -307 613q-3 257 26 490q12 100 34 190zM807 1452q-79 1 -129 44q-53 46 -53 124q24 158 182 160q76 1 128 -41q56 -45 56 -119q0 -78 -52.5 -123.5t-131.5 -44.5zM340 1452q-80 1 -130 44q-54 46 -54 124q0 77 67 128
q42 32 117 32q76 0 128 -41q56 -44 56 -119q0 -77 -53 -123t-131 -45z" />
    <glyph glyph-name="yacute" unicode="&#xfd;" horiz-adv-x="545" 
d="M121 1264q13 49 43 49h172q59 0 59 -33q-15 -125 -22 -381q2 -34 4 -182q3 -305 72 -654v-20q0 -43 -50 -43h-211q-33 0 -42 3q-14 6 -25 30q-29 63 -29 555q0 566 29 676z" />
    <glyph glyph-name="thorn" unicode="&#xfe;" horiz-adv-x="1061" 
d="M408 -20q-223 41 -302 221q-27 61 -30 135q7 98 41 176q18 41 22 41q10 0 25 -49q38 -122 135 -191t193 -69q71 0 132 41q56 38 56 106q0 72 -101 130q-23 12 -163 71q-133 55 -203 138q-87 103 -84 253q2 108 61.5 193t160.5 125q95 38 202 38q147 0 261 -59
q56 -30 93 -72q37 -35 37 -63q0 -77 -89 -161q-39 -37 -71 -44q-23 8 -103 102q-25 28 -56 41q-43 17 -88 17q-138 0 -152 -76q0 -52 39 -97q42 -50 104 -79q174 -82 248 -127q205 -125 205 -334q0 -39 -4 -68q-25 -181 -184 -276q-76 -45 -164 -63q3 -21 8 -62
q8 -31 27 -43q45 -21 58 -30q31 -18 51 -41q24 -28 24 -72q0 -140 -255 -208q-107 -28 -190 -28q-59 0 -84 25q9 24 64 50q40 19 81 37q19 12 19 52q0 39 -40 69q-35 26 -77 31q-35 5 -101 24q-17 8 -17 19q40 77 211 177z" />
    <glyph glyph-name="ydieresis" unicode="&#xff;" horiz-adv-x="1053" 
d="M408 412q0 17 -92 125q-113 135 -114 136q-151 209 -151 556v43q5 41 45 41h228q45 0 45 -45q0 -27 -7 -70q-9 -53 -10 -70q2 -222 162 -403q62 -70 82 -70q67 0 111 213q20 97 20 207q0 137 -14 193q-1 9 -4 16q5 29 39 29h213q30 0 34 -62q2 -28 2 -82
q0 -518 -304 -872q-115 -135 -255 -222q-166 -104 -317 -104q-70 0 -70 58v211q0 26 16.5 48.5t41.5 22.5q160 0 256 49q43 22 43 48v4zM760 1452q-79 1 -129 44q-53 46 -53 124q24 158 182 160q75 1 128 -41q56 -46 56 -119q0 -78 -52.5 -123.5t-131.5 -44.5zM293 1452
q-80 1 -130 44q-54 46 -54 124q0 77 67 128q42 32 117 32q76 0 128 -41q56 -44 56 -119q0 -77 -53 -123t-131 -45z" />
    <glyph glyph-name="Gbreve" unicode="&#x11e;" horiz-adv-x="1348" 
d="M51 725q-3 332 154 632q199 379 614 380q258 0 386 -145q58 -67 59 -140q1 -88 -43 -136q-39 -42 -129 -65q-21 0 -31 -4q-49 4 -49 62q-10 81 -65 108q-60 30 -136 27q-228 -8 -330 -216t-100 -456q3 -436 344 -436q164 0 225 100q27 45 27 96q0 92 -60 145
q-29 20 -85 62q-16 11 -17 17q5 14 16 20q54 36 222 95q79 27 102 36q30 8 33 8q18 0 24 -22q27 -62 59 -351q13 -122 13 -186q0 -230 -235 -336q-117 -53 -277 -53q-356 0 -541 218q-177 205 -180 540zM1108 2140q12 -12 12 -55q0 -8 -2 -24.5t-2 -24.5q-47 -115 -185 -168
q-60 -23 -110 -23q-338 0 -397 219q0 80 129 80q55 0 149 -53q88 -51 146 -51q45 0 125.5 54t107.5 54q11 0 27 -8z" />
    <glyph glyph-name="gbreve" unicode="&#x11f;" horiz-adv-x="1141" 
d="M381 940q0 -89 52 -150q55 -65 142 -65q89 0 145 60.5t56 150.5q0 133 -104 188q-47 25 -101 25q-87 0 -140 -62q-50 -58 -50 -147zM285 553q0 2 -54 87q-58 89 -66 108q-33 70 -34 167q4 12 4 21q11 258 216 358q93 45 208 45q73 0 141 -12q5 0 9 -4q56 7 110 92
q76 96 113 96q78 0 164 -155q8 -14 8 -25q0 -19 -73 -28q-81 -9 -91 -19q-23 -22 -29 -51q1 -20 17 -45l39 -64q24 -39 39 -91q16 -60 14 -126q-5 -142 -62 -237q-94 -157 -280 -190q-78 -14 -150 -15q-57 -1 -123 -41q-74 -44 -77 -96q16 -50 67 -60q39 0 153 36
q80 25 161 51q51 14 122 14q74 0 141 -25q89 -34 89 -96q0 -58 -33 -136q-31 -73 -72 -120q-10 -21 -36 -21q-23 0 -56 45q-41 56 -116 56q-56 0 -130 -26l-148 -53q-75 -26 -130 -26q-131 0 -210 73.5t-79 203.5t117 212l66 44q50 36 51 53zM850 1812q12 -12 12 -55
q0 -8 -2 -24.5t-2 -24.5q-47 -113 -185 -167q-60 -23 -110 -23q-202 0 -314 90q-62 49 -83 129q0 80 129 80q57 0 151 -55q84 -50 144 -50q46 0 128 56q78 53 105 53q13 0 27 -9z" />
    <glyph glyph-name="Idotaccent" unicode="&#x130;" horiz-adv-x="668" 
d="M129 805q0 626 64 823q25 76 71 76h260q39 0 39 -25q0 -13 -4 -30q-98 -423 -98 -717v-58q0 -485 94 -823q0 -5 2 -15.5t2 -15.5q0 -20 -18 -20h-322q-37 0 -55 65q-9 47 -17 95q-18 94 -18 645zM446 1860q-80 1 -130 44q-54 46 -54 124q0 76 67 127q42 32 117 32
q76 0 128 -40q57 -45 57 -119q0 -77 -53.5 -123t-131.5 -45z" />
    <glyph glyph-name="dotlessi" unicode="&#x131;" horiz-adv-x="545" 
d="M121 1264q13 49 43 49h172q59 0 59 -33q-15 -125 -22 -381q2 -34 4 -182q3 -305 72 -654v-20q0 -43 -50 -43h-211q-33 0 -42 3q-14 6 -25 30q-29 63 -29 555q0 566 29 676z" />
    <glyph glyph-name="OE" unicode="&#x152;" horiz-adv-x="2204" 
d="M381 664q0 -334 371 -332q149 1 234 78q89 80 89 245v50q0 259 -101 461q-48 97 -102 155q-70 76 -147 76q-79 0 -145 -88q-199 -266 -199 -645zM1153 1473l29 120q9 38 16 56q14 36 33 47q15 8 45 8h815q74 0 74 -33q-4 -11 -4 -10q-49 -120 -61 -145q-37 -81 -77 -136
q-8 -8 -18 -12q-7 0 -75 34q-75 38 -87 43q-53 19 -127 19q-185 0 -286 -133q-50 -65 -54 -151q6 -97 64 -115q66 4 199 46q142 44 212 44q109 0 109 -43q-90 -244 -127 -319q6 0 -12 -9l-64 18q-64 17 -117 17q-155 0 -229 -138q-34 -63 -39 -140q4 -162 133 -241
q68 -42 156 -40q82 2 155 32q13 6 109 56q90 47 94 47q12 0 13 -4q89 -154 137 -299q14 -42 14 -72q0 -20 -35 -20h-956q-88 0 -88 43q-107 -76 -252 -76h-231q-243 0 -400 154q-172 167 -172 481q0 55 2 82q35 476 237 768q193 281 443 281q237 0 422 -260z" />
    <glyph glyph-name="oe" unicode="&#x153;" horiz-adv-x="1829" 
d="M1071 811q-1 -50 41 -55q10 1 96 24q186 49 252 101q43 23 43 71q0 64 -57 107q-53 41 -119 41q-144 0 -220 -153q-35 -69 -36 -136zM297 688q5 -171 75 -274q67 -99 183 -99q136 0 207 127q56 101 57 250q1 159 -54 268q-71 140 -216 140q-152 0 -219 -194
q-36 -103 -33 -218zM920 160q-148 -193 -365 -193q-204 0 -352 180q-165 199 -162 541q1 175 59 320q68 168 198 255q114 76 251 76q173 0 289 -89q59 -46 106 -117q160 212 416 210q220 -2 333 -153q53 -71 62 -174q2 -22 2 -49q0 -188 -172 -289q-77 -45 -184 -80
l-162 -53q-137 -46 -143 -137q9 -106 163 -145q71 -19 121 -19q61 0 132 24q142 47 192 203q6 29 20 29q27 0 31 -92q2 -16 2 -46q0 -229 -209 -340q-104 -55 -248 -55q-215 0 -380 193z" />
    <glyph glyph-name="Scedilla" unicode="&#x15e;" horiz-adv-x="1323" 
d="M784 -23q3 -53 15 -69q5 -20 24 -33q43 -20 58 -29q31 -18 51 -41q24 -27 24 -73q0 -139 -254 -208q-107 -28 -190 -28q-59 0 -84 25q9 24 64 50q40 19 81 37q19 12 19 52q0 39 -40 69q-35 26 -77 31q-35 5 -102 24q-17 8 -17 19q40 77 199 170q-318 37 -436 263
q-53 101 -56 213q11 172 105 268q8 8 20 8q15 0 33 -78q20 -92 47 -147q45 -91 149 -140q109 -53 220 -53q116 0 204 55q84 52 83 138q-1 118 -125 183q-54 28 -105 46q-17 6 -57 19l-121 40q-260 88 -354 283q-44 92 -45 184q-1 135 85 264q80 122 194 170t259 48
q286 0 461 -150q47 -31 47 -71q0 -56 -45 -128q-39 -63 -90 -104q-6 -6 -24 -12q-23 2 -53 32l-19 19q-123 133 -281 133q-130 0 -198 -88q-35 -44 -33 -88q4 -129 221 -201q140 -47 193 -68q100 -40 183 -92q96 -61 164 -157q72 -102 74 -230q4 -221 -127.5 -370.5
t-343.5 -184.5z" />
    <glyph glyph-name="scedilla" unicode="&#x15f;" horiz-adv-x="1061" 
d="M408 -20q-223 41 -302 221q-27 61 -30 135q7 98 41 176q18 41 22 41q10 0 25 -49q38 -122 135 -191t193 -69q71 0 132 41q56 38 56 106q0 72 -101 130q-23 12 -163 71q-133 55 -203 138q-87 103 -84 253q2 108 61.5 193t160.5 125q95 38 202 38q147 0 261 -59
q56 -30 93 -72q37 -35 37 -63q0 -77 -89 -161q-39 -37 -71 -44q-23 8 -103 102q-25 28 -56 41q-43 17 -88 17q-138 0 -152 -76q0 -52 39 -97q42 -50 104 -79q174 -82 248 -127q205 -125 205 -334q0 -39 -4 -68q-25 -181 -184 -276q-76 -45 -164 -63q3 -21 8 -62
q8 -31 27 -43q45 -21 58 -30q31 -18 51 -41q24 -28 24 -72q0 -140 -255 -208q-107 -28 -190 -28q-59 0 -84 25q9 24 64 50q40 19 81 37q19 12 19 52q0 39 -40 69q-35 26 -77 31q-35 5 -101 24q-17 8 -17 19q40 77 211 177z" />
    <glyph glyph-name="florin" unicode="&#x192;" 
d="M176 315q19 29 37 29t46 -16q33 -18 44 -21q78 2 131 168q51 162 51 428q0 -24 -2 80q-1 61 -67 61h-17q-80 -32 -106 -32q-18 0 -25 45q16 174 152 182q60 3 81 45q8 17 43.5 151t120.5 196.5t246 60.5q91 -1 142 -13q39 -10 39 -47q0 -92 -54 -174q-25 -38 -57 -43
l-45 10q-28 6 -37 7q-48 0 -85 -75q-16 -32 -17 -61q10 -43 47 -57q23 2 75 16q48 13 76 13q73 0 72 -72q-1 -51 -21 -105q-25 -67 -65 -75q-15 2 -64 16q-40 12 -65 12q-37 0 -62.5 -35t-25.5 -73q0 -261 -20 -414q-31 -236 -118 -394q-91 -165 -261 -161q-80 2 -167 17
q-106 19 -106 71q25 170 84 260z" />
    <glyph glyph-name="circumflex" unicode="&#x2c6;" horiz-adv-x="1128" 
d="M563 1591q-19 25 -35 25q-9 0 -45 -37l-127 -131q-29 -30 -49 -37q-38 12 -109 41q-21 11 -30 37q7 23 33 51l252 272q25 27 96 27q75 0 115 -39l268 -264q29 -29 29 -41q0 -4 -41 -22q-93 -41 -164 -62q-14 3 -35 29z" />
    <glyph glyph-name="breve" unicode="&#x2d8;" horiz-adv-x="819" 
d="M743 1772q13 -13 13 -56q0 -8 -2 -24.5t-2 -24.5q-34 -80 -120.5 -135t-174.5 -55q-339 0 -398 219q0 80 129 80q57 0 151 -55q84 -50 144 -50q46 0 128 56q78 53 106 53q10 0 26 -8z" />
    <glyph glyph-name="ring" unicode="&#x2da;" horiz-adv-x="819" 
d="M156 1624q0 99 74 167.5t173 68.5q109 0 181 -63q75 -66 75 -173q0 -104 -78 -171q-74 -64 -178 -64q-100 0 -173.5 68.5t-73.5 166.5zM303 1624q0 -42 29 -75t71 -33q113 0 113 108q0 47 -33 80t-80 33q-41 0 -70.5 -35.5t-29.5 -77.5z" />
    <glyph glyph-name="tilde" unicode="&#x2dc;" horiz-adv-x="840" 
d="M0 1556q13 105 91 164q73 56 181 56q76 0 197 -49q115 -48 182 -52q93 6 117 76q6 12 25 12q47 0 47 -26q-21 -130 -106 -187q-92 -62 -202 -61q-113 1 -196 39q-121 55 -189 55q-55 0 -75 -51q-10 -21 -13 -21q-8 0 -16 -4q-22 9 -31 9q-12 6 -12 24v16z" />
    <glyph glyph-name="endash" unicode="&#x2013;" horiz-adv-x="2048" 
d="M12 793q23 26 60 26h1980q49 0 47 -47q-3 -60 -30 -118q-34 -74 -84 -74h-1985q-51 0 -51 49q23 119 63 164z" />
    <glyph glyph-name="emdash" unicode="&#x2014;" horiz-adv-x="1024" 
d="M12 739q26 29 64 29h940q32 0 41 -5q14 -7 14 -36q0 -71 -28 -128q-35 -71 -99 -71h-944q-51 0 -51 43q18 118 63 168z" />
    <glyph glyph-name="quoteleft" unicode="&#x2018;" horiz-adv-x="696" 
d="M428 1733q6 0 18.5 2t18.5 2q22 0 22 -13q-49 -82 -55 -159q6 -117 117 -160q13 -3 27 -5q20 -5 20 -11q0 -5 -25 -29l-219 -172q-19 -15 -59 -21q-100 5 -163 125q-30 55 -30 117q0 164 165 262q75 45 163 62z" />
    <glyph glyph-name="quoteright" unicode="&#x2019;" horiz-adv-x="696" 
d="M223 1171q-10 -1 -14 5q4 17 31 78q20 47 20 81q0 126 -108 164q-15 3 -44 15q-8 4 -8 6q3 6 25 28l203 160q32 25 71 25q100 0 160 -106q27 -50 33 -116q0 -175 -155 -277q-85 -56 -214 -63z" />
    <glyph glyph-name="quotedblleft" unicode="&#x201c;" horiz-adv-x="1260" 
d="M416 1733q8 0 24.5 2t24.5 2q14 0 14 -17q0 -23 -22.5 -77t-24.5 -78q7 -109 92 -154q68 -19 68 -27q-2 -6 -12 -16l-224 -180q-14 -14 -57 -21q-100 2 -165 126q-33 62 -30 122q6 118 94 205q83 82 218 113zM981 1733q8 0 23.5 2t23.5 2q16 0 16 -17q0 -25 -23.5 -76
t-25.5 -79q7 -110 97 -154q20 -5 57 -17q6 -3 6 -10q0 -11 -10 -16l-225 -180q-19 -16 -56 -21q-101 2 -166 125q-33 63 -30 123q6 119 94 205q84 82 219 113z" />
    <glyph glyph-name="quotedblright" unicode="&#x201d;" horiz-adv-x="1260" 
d="M838 1175l-45 -12q-12 0 -17 17q2 5 32 76q19 46 19 79q0 115 -92 158q-33 8 -71 27q4 8 16 20l223 180q21 17 53 17q87 0 148 -83q55 -75 55 -165q-14 -163 -158 -252q-62 -39 -163 -62zM281 1176q-18 -4 -54 -13q-11 0 -14 17q4 18 30 76q21 47 21 79q0 113 -92 158
q-34 8 -72 27q3 6 17 20l223 180q21 17 51 17q105 0 173 -122q35 -63 32 -126q-4 -76 -49 -146q-83 -129 -266 -167z" />
    <glyph glyph-name="quotedblbase" unicode="&#x201e;" horiz-adv-x="1260" 
d="M797 -131h-13q-4 1 -8 10q4 4 4 12q47 76 47 146q0 118 -118 164q-32 13 -37 22q4 13 8 13l213 167q37 29 72 29q102 0 166 -122q28 -54 28 -109q0 -162 -150 -263q-82 -55 -212 -69zM227 -131h-8q-3 1 -6 10q2 4 2 12q45 68 45 142q0 129 -121 168q-20 5 -43 14
q4 8 17 21l211 167q37 29 79 29q104 0 166 -122q27 -55 27 -109q0 -162 -154 -264q-83 -54 -215 -68z" />
    <glyph glyph-name="bullet" unicode="&#x2022;" horiz-adv-x="819" 
d="M68 692q0 94 65.5 158.5t159.5 64.5q126 0 200 -106q35 -51 35 -117q0 -142 -128 -204q-54 -27 -107 -27q-94 0 -159.5 68.5t-65.5 162.5z" />
    <glyph glyph-name="ellipsis" unicode="&#x2026;" horiz-adv-x="2048" 
d="M1485 193q0 118 104 186q51 33 119 33q93 0 156 -63t63 -156q0 -95 -62.5 -160.5t-156.5 -65.5q-134 0 -195 118q-28 52 -28 108zM805 193q0 92 63.5 155.5t155.5 63.5q91 0 157 -64t66 -155q0 -130 -112 -196q-52 -30 -111 -30q-94 0 -156.5 66t-62.5 160zM121 193
q0 122 109 188q51 31 114 31q92 0 155.5 -64t63.5 -155q0 -93 -63 -159.5t-156 -66.5t-158 66.5t-65 159.5z" />
    <glyph glyph-name="guilsinglleft" unicode="&#x2039;" horiz-adv-x="731" 
d="M391 1128q12 25 37 25q13 0 29 -8l151 -96q25 -16 25 -41q0 -21 -25 -52l-213 -264q-19 -23 -26 -49q9 -14 22 -35l225 -276q21 -34 21 -47q0 -23 -41 -49l-135 -84q-15 -12 -37 -17q-26 6 -51 58l-244 374q-22 33 -29 80q6 58 35 101z" />
    <glyph glyph-name="guilsinglright" unicode="&#x203a;" horiz-adv-x="731" 
d="M332 168q-19 -28 -33 -33q-10 7 -27 12l-141 97q-34 23 -39 55q4 25 33 70l203 239q16 19 16 35q0 24 -16 45l-207 273q-30 32 -37 59q4 22 45 45l135 76q24 8 33 8q21 0 51 -37l256 -391q25 -31 25 -70q0 -41 -37 -96z" />
    <glyph glyph-name="trademark" unicode="&#x2122;" horiz-adv-x="2048" 
d="M332 684q-37 0 -51 87t-17 206q-1 48 9 160q12 137 42 307q7 40 9 55q0 25 -31 25q-56 0 -177 -75q-61 -38 -96 -48q-8 4 -8 35q0 43 39 196q19 51 208 79q90 13 177 13q228 1 351 -60q53 -27 53 -56v-4q-23 -145 -84 -164q-77 88 -160 88q-39 0 -55 -51
q-33 -109 -33 -273q0 -214 59 -452q8 -32 8 -52q0 -16 -22 -16h-221zM1440 1393q4 -9 12 -21q13 4 21 25q50 100 113 183q94 124 159 124h127q32 0 41.5 -5.5t21.5 -33.5q27 -46 33 -176q1 -43 4 -146q4 -115 4 -264q0 -243 -20 -358q-7 -41 -25 -41h-252q-25 0 -30 16
q8 18 8 29q76 213 76 530q0 181 -37 181q-43 0 -134 -271q-38 -114 -55 -192q-6 -59 -75 -66q-67 7 -84 70q-24 92 -85 259q-73 204 -96 204q-30 0 -39 -172q12 -343 80 -555v-17q0 -12 -20 -12h-197q-29 0 -35 29q-24 114 -24 450q0 225 17 373q5 51 11 80q11 54 27 75
q11 13 33 13h176q79 0 244 -311z" />
    <glyph glyph-name="fi" unicode="&#xf001;" horiz-adv-x="1237" 
d="M201 63q-5 227 -13 429q5 57 5 151v397q0 56 -72 56q-9 0 -84 -25q-18 6 -20 25q-1 9 -5 20q6 67 17 127q7 38 33 53q21 13 54.5 15t43.5 6q48 13 70 89q4 13 6 26q28 161 108 241t225 80q32 0 86 -5q64 -5 86 -6q89 -4 117 -10q74 -18 74 -71q-10 -78 -55 -176
q-17 -37 -41 -41q-79 41 -203 41q-128 0 -133 -142q-1 -20 21 -36t42 -15q75 6 226 17q70 4 151 4h68q46 0 60.5 -11t14.5 -55q0 -64 -12 -254q-6 -93 -6 -129q0 -407 72 -776q0 -8 2 -23.5t2 -23.5q0 -41 -92 -41h-189q-47 0 -59 67q-7 32 -8 76q-4 132 -5 215q-1 28 -3 94
q-1 51 -1 76q4 430 4 488q0 50 -41 65q-47 17 -114 19q-74 2 -112.5 -15t-49.5 -86q0 -37 -6 -102q2 -129 26 -386q11 -117 29 -268q21 -186 21 -202v-12q0 -29 -25 -29h-272q-42 0 -43 63z" />
    <glyph glyph-name="fl" unicode="&#xf002;" horiz-adv-x="1217" 
d="M213 47q-17 96 -24 364l-5 189q-1 59 7 235q6 138 6 177q0 84 -76 84q-16 0 -84 -29q-15 5 -18 32q-1 23 -3 46q8 93 27 127q28 36 79 39q27 1 38 6q51 13 76 123q39 169 104 225q99 84 348 84q357 0 448 -37q27 -11 27 -45q0 -4 -2 -14.5t-2 -16.5q-80 -312 -80 -680
q0 -340 38 -652q18 -154 42 -267v-12q0 -25 -43 -25h-239q-28 0 -37 68q-20 152 -28 356q-7 176 -7 385q0 415 22 592v26q0 58 -102 58t-144 -14q-76 -25 -81 -103q4 -21 21 -55q8 -9 32 -13q70 13 88 13q72 0 72 -133q0 -96 -49 -105q-21 21 -93 21q-71 0 -91 -69
q-8 -29 -11 -84l-4 -58q3 -212 67 -772q9 -79 9 -93q0 -20 -45 -20h-224q-49 0 -53 13q-1 8 -6 34z" />
    <glyph glyph-name="u_extra0" horiz-adv-x="545" 
d="M121 1264q13 49 43 49h172q59 0 59 -33q-15 -125 -22 -381q2 -34 4 -182q3 -305 72 -654v-20q0 -43 -50 -43h-211q-33 0 -42 3q-14 6 -25 30q-29 63 -29 555q0 566 29 676z" />
    <glyph glyph-name="glyph185" horiz-adv-x="0" 
 />
    <glyph glyph-name="glyph186" horiz-adv-x="0" 
 />
  </font>
</defs>
</svg>
