<?xml version="1.0" standalone="no"?>
<!DOCTYPE svg PUBLIC "-//W3C//DTD SVG 1.1//EN" "http://www.w3.org/Graphics/SVG/1.1/DTD/svg11.dtd" >
<svg>
<metadata>
Created by FontForge 20110222 at Mon Sep 30 09:43:38 2013
 By Orthosie Webhosting
Copyright 1990-1998 Bitstream Inc.  All rights reserved.
</metadata>
<defs>
<font id="DomCasualBTRegular" horiz-adv-x="1024" >
  <font-face 
    font-family="DomCasualBTRegular"
    font-weight="400"
    font-stretch="semi-expanded"
    units-per-em="2048"
    panose-1="3 6 9 2 3 3 2 2 2 4"
    ascent="1556"
    descent="-492"
    x-height="901"
    cap-height="1434"
    bbox="-293 -541 2048 1933"
    underline-thickness="133"
    underline-position="-194"
    unicode-range="U+0020-F002"
  />
<missing-glyph horiz-adv-x="1229" 
d="M102 -362v1806h1024v-1806h-1024zM217 -248h795v1577h-795v-1577z" />
    <glyph glyph-name=".notdef" horiz-adv-x="1229" 
d="M102 -362v1806h1024v-1806h-1024zM217 -248h795v1577h-795v-1577z" />
    <glyph glyph-name=".null" horiz-adv-x="0" 
 />
    <glyph glyph-name="nonmarkingreturn" horiz-adv-x="487" 
 />
    <glyph glyph-name="space" unicode=" " horiz-adv-x="487" 
 />
    <glyph glyph-name="exclam" unicode="!" horiz-adv-x="612" 
d="M324 330q-2 0 -38.5 11.5t-37.5 12.5q-21 15 -32 86.5t-11 192.5q0 10 1 49q3 139 3 260v84q0 102 9 208.5t9 111.5q0 9 -1 24.5t-1 22.5t11 23t14 16h6q3 0 9 5t9 5q2 0 7.5 -4t7.5 -4q1 0 6.5 4t9.5 4q13 0 76 -15.5t84 -27.5q14 -9 22.5 -21.5t8.5 -25.5q0 -3 -6 -22
q-29 -98 -39 -191q-4 -36 -14 -185t-21 -260q-11 -102 -17 -188t-6 -115v-14q0 -30 -15 -38.5t-54 -8.5zM158 106q0 47 22 73q9 10 14 17q9 12 23 33q34 54 74 54q51 0 108.5 -51.5t57.5 -129.5q0 -45 -40 -97t-75 -52q-4 0 -14 2t-17 2h-18q-40 0 -87.5 48t-47.5 101z" />
    <glyph glyph-name="quotedbl" unicode="&#x22;" horiz-adv-x="643" 
d="M395 1436h164v-557h-164v557zM86 1436h164v-557h-164v557z" />
    <glyph glyph-name="numbersign" unicode="#" horiz-adv-x="1575" 
d="M709 852l-91 -254h256l91 254h-256zM735 1460h191l-154 -436h250l156 436h190l-154 -436h291l-59 -172h-293l-90 -252h309l-61 -172h-307l-156 -434h-191l156 434h-252l-158 -434h-190l156 434h-299l61 172h297l90 252h-315l61 172h316z" />
    <glyph glyph-name="dollar" unicode="$" horiz-adv-x="854" 
d="M334 -186q0 46 5 109.5t5 78.5q0 4 -40.5 15t-88.5 42q-86 56 -139 113.5t-53 93.5q0 10 2 26t2 21q0 3 -2 11.5t-2 15.5q0 14 12 22.5t33 8.5q44 0 110 -62q17 -16 26 -24q76 -65 122.5 -89t91.5 -24q39 0 59.5 22.5t20.5 65.5q0 56 -45 123t-127 133
q-137 109 -175 179.5t-38 164.5q0 92 47 174t129 131q35 21 70.5 40t35.5 22q0 1 -2 9.5t-2 16.5q0 14 3 32.5t3 23.5q0 65 4.5 82t16.5 22q13 6 31 17.5t26 11.5q38 0 70.5 -16t32.5 -35q0 -6 -4.5 -13t-4.5 -10v-16q0 -10 -3 -45t-3 -60q0 -6 -1 -17.5t-1 -15.5
q0 -23 23.5 -43.5t85.5 -54.5q35 -20 62.5 -71t27.5 -80q0 -3 -1 -11t-1 -12q0 -7 6 -25t6 -30q0 -73 -19.5 -107.5t-62.5 -34.5q-58 0 -98.5 24.5t-61.5 72.5q-21 49 -30.5 120.5t-28.5 71.5q-37 0 -79 -52t-42 -124q0 -79 119 -171q42 -32 65 -52q147 -122 191.5 -190
t44.5 -144q0 -75 -42.5 -138.5t-133.5 -125.5q-20 -14 -41 -23t-21 -16q0 -1 1 -10.5t1 -18.5q0 -119 -13.5 -168t-45.5 -49q-9 0 -27.5 7.5t-27.5 7.5q-5 0 -12 -1.5t-9 -1.5q-28 0 -45.5 14.5t-17.5 35.5z" />
    <glyph glyph-name="percent" unicode="%" horiz-adv-x="1413" 
d="M1085 504q-35 0 -77.5 -78.5t-42.5 -169.5q0 -66 19.5 -115t43.5 -49q34 0 79.5 86.5t45.5 186.5q0 58 -20.5 98.5t-47.5 40.5zM786 264q0 76 30.5 156t88.5 160q29 38 64.5 68t44.5 30q8 0 24.5 -8.5t23.5 -9.5q8 -2 19 -4q67 -11 133 -58q6 -4 17 -10q24 -13 37 -40
q3 -6 11 -20q50 -90 50 -186q0 -141 -88 -269t-176 -128q-118 0 -198.5 95t-80.5 224zM367 1108q-37 0 -79 -78t-42 -170q0 -67 19.5 -115.5t43.5 -48.5q33 0 79 86t46 187q0 58 -20.5 98.5t-46.5 40.5zM68 864q0 76 30 156t88 160q29 39 63.5 68.5t43.5 29.5q8 0 24.5 -8.5
t25.5 -10.5q6 -1 17 -3q66 -10 134 -58q5 -4 16 -10q24 -13 37 -39q3 -7 11 -21q50 -90 50 -186q0 -142 -87.5 -269.5t-176.5 -127.5q-118 0 -197 94t-79 225zM356 -57q-52 0 -81 27t-29 71q0 40 337 534q165 241 265 390q85 126 185 252q19 24 22 29l1 2q20 36 85 36
q49 0 79.5 -23t30.5 -49q0 -2 -25 -29q-207 -229 -464 -601q-139 -201 -268 -420t-138 -219z" />
    <glyph glyph-name="ampersand" unicode="&#x26;" horiz-adv-x="1075" 
d="M399 1012q0 -83 26 -148t48 -65q10 0 34.5 20t67.5 66q55 56 71 91.5t16 80.5q0 65 -39.5 114.5t-83.5 49.5q-61 0 -100.5 -58t-39.5 -151zM584 285q0 6 -23.5 34t-75.5 85q-7 8 -20 23q-37 42 -47 42q-12 0 -34.5 -26.5t-53.5 -77.5q-22 -37 -43 -97.5t-21 -74.5
q0 -18 8.5 -26.5t26.5 -8.5q11 0 62.5 17t105.5 42q45 20 80 41.5t35 26.5zM963 -70q-54 0 -79 26l-9 9q-36 33 -86.5 88.5t-71.5 55.5q-27 0 -101.5 -47.5t-121.5 -61.5q-54 -16 -106.5 -24.5t-92.5 -8.5q-105 0 -183.5 70t-78.5 168q0 66 38 160t99 172q26 33 69.5 69
t43.5 47q0 8 -23 43q-92 145 -92 277q0 169 102 309.5t222 140.5q62 0 131 -39.5t157 -128.5q64 -66 80.5 -104.5t16.5 -93.5q0 -78 -28.5 -154.5t-80.5 -138.5q-31 -37 -92.5 -83t-61.5 -65q0 -14 76 -107q17 -22 27 -34q37 -48 54.5 -61t35.5 -13q12 0 98 28t119 28
q8 0 29.5 -16.5t21.5 -28.5q0 -14 -27 -54t-65 -80q-11 -11 -38 -27t-27 -32q0 -15 65.5 -104t65.5 -129q0 -17 -29 -23q-5 -1 -8 -2q-16 -4 -29 -17.5t-20 -13.5z" />
    <glyph glyph-name="quotesingle" unicode="'" horiz-adv-x="334" 
d="M86 1436h164v-557h-164v557z" />
    <glyph glyph-name="parenleft" unicode="(" horiz-adv-x="688" 
d="M397 -369q-75 0 -133.5 222t-58.5 553q0 367 110 840q16 69 23 100q2 8 4 25q10 69 41 69q33 0 85 -41t52 -80q0 -18 -62.5 -328.5t-62.5 -576.5q0 -313 117 -650q25 -71 25 -86q0 -23 -34.5 -35t-105.5 -12z" />
    <glyph glyph-name="parenright" unicode=")" horiz-adv-x="688" 
d="M121 -311q0 13 26 85.5t43 131.5q53 175 83 375.5t30 380.5q0 176 -36 354t-85 264q-4 8 -12 21q-31 48 -31 90q0 13 36 24.5t79 11.5q32 0 52 -19t50 -89q64 -154 95.5 -329.5t31.5 -377.5q0 -205 -26 -412t-74 -385q-7 -24 -17 -64q-31 -120 -69 -120q-8 0 -31 7.5
t-39 7.5q-4 0 -17.5 -2t-21.5 -2q-25 0 -46 14.5t-21 32.5z" />
    <glyph glyph-name="asterisk" unicode="*" 
d="M221 774q0 14 25 57.5t53 71.5q15 15 64 48t49 46q0 15 -21 21t-72 6q-6 0 -29 -7t-40 -7q-46 0 -80.5 46t-34.5 93q0 43 19 65.5t55 22.5q49 0 137 -62.5t90 -62.5q8 0 13.5 6t5.5 17q0 9 -19 52.5t-30 79.5q-6 20 -14.5 37.5t-8.5 22.5q0 42 52 78.5t91 36.5
q34 0 52 -22.5t18 -65.5q0 -39 -18.5 -118.5t-18.5 -107.5q0 -13 2 -16.5t6 -3.5q26 0 75.5 78t92.5 78q45 0 103.5 -43t58.5 -78q0 -23 -36.5 -51t-86.5 -43q-33 -11 -95.5 -19t-62.5 -24q0 -30 85 -73.5t85 -90.5q0 -52 -31.5 -103t-66.5 -51q-28 0 -66.5 40.5t-60.5 94.5
q-11 27 -24 67q-18 50 -29 50q-14 0 -27 -33.5t-22 -92.5q-9 -71 -36.5 -93.5t-94.5 -22.5q-56 0 -81.5 18.5t-25.5 57.5z" />
    <glyph glyph-name="plus" unicode="+" horiz-adv-x="1706" 
d="M768 1221h170v-527h514v-166h-514v-528h-170v528h-514v166h514v527z" />
    <glyph glyph-name="comma" unicode="," horiz-adv-x="487" 
d="M53 -254q0 18 16.5 72t22.5 86q13 78 40 168.5t48 132.5q9 16 27 18q14 2 22 4q6 2 16 15.5t27 13.5t63 -29t46 -49q0 -10 -54 -123t-96 -217q-42 -105 -59.5 -134.5t-32.5 -29.5q-23 0 -54.5 32t-31.5 40z" />
    <glyph glyph-name="hyphen" unicode="-" horiz-adv-x="688" 
d="M160 373q-20 0 -47 48.5t-27 96.5q0 14 3 21.5t9 7.5q3 0 6.5 -2t6.5 -2t7 2t5 2q4 0 13 -1t14 -1q4 0 16.5 3t21.5 3q26 0 57 -2h9q10 0 43 1t55 1q124 0 162.5 -7.5t38.5 -27.5q0 -17 11 -43t11 -55q0 -23 -4.5 -31t-15.5 -8q-4 0 -11.5 2t-13.5 2q-4 0 -42 -6t-70 -6
q-18 0 -51 4t-50 4q-11 0 -39 -3t-45 -3h-36h-37z" />
    <glyph glyph-name="period" unicode="." horiz-adv-x="487" 
d="M82 74q0 65 31 103q17 20 24 38q10 26 35.5 45t36.5 19q6 0 29 -10.5t24 -10.5q8 0 17 2h2q14 0 59 -57t45 -86q0 -31 -14 -66t-27 -35q-2 0 -5 1t-5 1q-1 0 -1 -1q-6 -24 -73 -44q-20 -5 -36.5 -13.5t-18.5 -8.5q-27 0 -75 38t-48 85z" />
    <glyph glyph-name="slash" unicode="/" horiz-adv-x="877" 
d="M135 -182q-31 0 -52.5 25.5t-21.5 43.5q127 328 394 975q133 326 204.5 468.5t100.5 142.5q47 0 89 -30t42 -61q0 -8 -20 -36q-12 -17 -19 -27q-93 -137 -335 -710l-7 -17q-92 -217 -195 -508q-91 -256 -133 -256h-12q-6 0 -17.5 -5t-17.5 -5z" />
    <glyph glyph-name="zero" unicode="0" horiz-adv-x="977" 
d="M514 1073q-61 0 -130 -172t-69 -383q0 -156 39.5 -272.5t83.5 -116.5q75 0 144 162.5t69 372.5q0 175 -41 292t-96 117zM508 -49q-84 0 -174 57q-19 12 -24 14q-105 47 -173.5 188t-68.5 320q0 146 38 280t125 290q38 67 98 122.5t79 55.5q14 0 52 -21q22 -12 36 -18
q30 -14 84 -24t71 -15q117 -31 186.5 -175.5t69.5 -360.5q0 -160 -44 -310.5t-122 -261.5q-48 -68 -108.5 -104.5t-124.5 -36.5z" />
    <glyph glyph-name="one" unicode="1" horiz-adv-x="573" 
d="M190 111q0 174 10 318q1 17 1 20q0 9 -4 27.5t-4 27.5v7q6 61 6 144q0 3 2 46t2 83q0 8 -1 39t-1 56q0 6 2 18t2 18t-3.5 11.5t-6.5 5.5q-7 0 -37 -21.5t-54 -21.5q-7 0 -28 20t-21 25q0 6 24.5 33.5t37.5 54.5q2 4 8 17q17 42 41 67q21 22 45.5 69.5t40.5 61.5
q20 18 49 41q1 0 28 -12t56 -23q9 -3 25 -3q39 -1 39 -71q0 -25 -5.5 -139t-5.5 -201v-157q0 -57 -3 -243t-3 -314q0 -54 9 -106q1 -8 1 -11q0 -22 -17 -37.5t-42 -15.5q-33 0 -82 32t-69 37q-28 7 -35 27.5t-7 69.5z" />
    <glyph glyph-name="two" unicode="2" horiz-adv-x="883" 
d="M160 92q0 16 -15.5 46.5t-15.5 51.5q0 32 102 155.5t181 254.5q97 159 150.5 275t53.5 163q0 6 -6 10.5t-14 4.5q-37 0 -113.5 -47.5t-158.5 -124.5q-31 -29 -79.5 -98.5t-72.5 -69.5q-17 0 -64 77t-47 99q1 32 22 39q3 1 5 2q10 5 24 29q4 7 7 12q15 27 77 80
q35 31 54 49q97 92 173 132t152 40q51 0 119 -77q13 -15 21 -24q63 -68 81.5 -112t18.5 -101q0 -69 -37.5 -162.5t-156.5 -295.5q-57 -97 -120 -185.5t-63 -91.5q1 -4 10.5 -8t20.5 -4q12 0 51 4t66 4q158 0 225.5 -39.5t67.5 -130.5q0 -27 -60 -43t-155 -16q-14 0 -46.5 2
t-50.5 2q-13 0 -35 -1t-30 -1q-20 0 -52.5 3t-46.5 3q-12 0 -69.5 -7t-100.5 -7q-18 0 -45.5 33.5t-27.5 58.5v16z" />
    <glyph glyph-name="three" unicode="3" horiz-adv-x="854" 
d="M240 -70q-36 0 -72.5 18t-44.5 40q-1 3 -3 19t-7 24q-8 10 -27.5 28t-19.5 29q0 22 7.5 34t22.5 15q34 8 46 19l3 2q7 0 23 -5.5t29 -5.5q40 0 110 30t129 77q44 35 78.5 82t34.5 61q0 32 -51.5 58t-120.5 26q-129 0 -176 -39q-4 -3 -6 -4q-11 0 -46.5 27.5t-35.5 42.5
q0 7 7 20t7 19l-2 4q-12 19 -12 59q0 36 2 46.5t7 14.5t24 9q64 18 118 55q123 87 208 176t85 117q0 7 -23.5 11.5t-60.5 4.5q-137 0 -263 -69q-18 -10 -22 -10q-8 0 -21.5 19.5t-19.5 46.5q-2 13 -21.5 48t-19.5 72q1 20 8 29t27 16q19 6 54 18q173 58 241 58
q66 0 114.5 -19t82.5 -57q12 -15 35 -40q80 -89 80 -161q0 -45 -23.5 -96.5t-75.5 -120.5q-32 -42 -75.5 -77.5t-43.5 -43.5t51.5 -34t80.5 -54q44 -42 75 -98.5t31 -99.5q0 -106 -55 -191t-166 -149q-73 -43 -166 -72t-141 -29z" />
    <glyph glyph-name="four" unicode="4" horiz-adv-x="977" 
d="M307 565q1 -5 7.5 -7.5t17.5 -2.5t33.5 3t33.5 3q12 0 40 -2t44 -2q21 0 30 5.5t9 23.5v4q0 14 7.5 66.5t7.5 93.5q0 2 -1 18t-1 31q0 43 12 111t12 85q0 9 -8 17t-16 8q-11 0 -62 -104l-12 -25q-98 -197 -126 -257t-28 -69zM485 1278q93 0 196 -36.5t103 -57.5
q0 -8 -7 -21t-9 -20q-5 -10 -11.5 -105.5t-6.5 -208.5q0 -56 -2.5 -119t-2.5 -71q0 -10 1.5 -26.5t1.5 -22.5v-8q0 -15 50.5 -17.5t65.5 -11.5q18 -10 37 -67t19 -80q0 -17 -13.5 -25t-38.5 -8q-6 0 -13.5 1t-8.5 1q-30 0 -60.5 -5.5t-35.5 -10.5q-5 -7 -7 -32.5t-2 -120.5
q-1 -85 -10 -165q-2 -14 -2 -16q0 -6 5 -26.5t5 -35.5q0 -32 -8 -49.5t-22 -17.5q-5 0 -40 8t-61 16q-45 15 -63.5 31t-18.5 39q0 5 2 15t2 13q0 2 -2 11q-14 55 -14 125q0 66 -3 134q-1 16 -1 19q0 7 2 18t2 15q0 7 -9 10.5t-30 3.5q-12 0 -61 -4t-86 -4q-34 0 -70.5 -2
t-38.5 -2q-72 0 -88 24q-9 12 -16 17q-37 24 -59.5 51t-22.5 43q0 13 79 163t189 337q53 89 102 167t50 79q1 3 3 14q7 41 29 41z" />
    <glyph glyph-name="five" unicode="5" horiz-adv-x="834" 
d="M84 106q0 29 20 52.5t43 23.5q7 0 24 -5t28 -5q16 0 76.5 28.5t111.5 67.5q58 45 91.5 93.5t33.5 87.5q0 55 -91 97t-220 42q-10 0 -24.5 -12.5t-22.5 -12.5q-17 0 -24 19.5t-9 21.5q-9 9 -24 23q-34 31 -34 61q0 38 35 107q20 40 31 65q32 73 71.5 155t39.5 91
q0 17 -26 36.5t-26 33.5q0 9 16.5 23t35.5 20q14 4 50 7q21 1 34 3q27 3 77 10q91 12 125 12q11 0 34 -1t36 -1q8 0 25.5 1t25.5 1q27 0 54.5 -18.5t33.5 -36.5q10 -30 27.5 -63t17.5 -48q0 -49 -127 -54q-133 -6 -227 -23q-18 -3 -27 -10.5t-18 -26.5q-8 -17 -18.5 -50.5
t-14.5 -46.5q-10 -28 -25.5 -53t-15.5 -26q0 -9 10 -14t45 -11q93 -16 209 -82q15 -8 23 -12q56 -30 113 -99.5t57 -105.5q0 -127 -42.5 -205t-146.5 -160q-84 -65 -195.5 -112t-150.5 -47q-13 0 -36 29.5t-31 37.5q-12 13 -36 30q-42 33 -42 62z" />
    <glyph glyph-name="six" unicode="6" horiz-adv-x="977" 
d="M489 666q-84 0 -128 -70t-44 -205q0 -114 27 -183t68 -69q83 0 152 102.5t69 231.5q0 92 -37.5 142.5t-106.5 50.5zM90 438q0 125 48 280t122 273q90 143 182 282q23 34 25 38q4 7 7 19q2 13 20 13h18q14 0 31 7q5 2 6 2q2 0 12.5 -3t20.5 -3h12q24 0 59 -24t35 -44
q0 -9 -6.5 -15.5t-20.5 -11.5q-20 -7 -36 -42q-7 -16 -13 -26q-93 -164 -140.5 -253.5t-47.5 -102.5q0 -2 0.5 -3t1.5 -1q5 0 22 1t29 1q51 0 137.5 -31.5t143.5 -72.5q44 -32 83.5 -114t39.5 -165q0 -85 -43.5 -183.5t-118.5 -180.5q-47 -52 -114 -86.5t-118 -34.5
q-37 0 -118.5 30.5t-110.5 51.5q-72 52 -120 163.5t-48 235.5z" />
    <glyph glyph-name="seven" unicode="7" horiz-adv-x="768" 
d="M182 86q0 134 123 485q27 77 41 117q70 205 107 318q-1 3 -8.5 5.5t-18.5 2.5t-46 -5t-58 -5q-36 0 -94.5 6t-82.5 6q-16 0 -35 -4t-22 -4q-24 0 -47 48t-23 66q0 3 2.5 8.5t2.5 8.5q0 6 -5.5 18.5t-5.5 20.5q0 28 9 44.5t24 16.5q6 0 30.5 -7t41.5 -7q13 0 33.5 2
t27.5 2q58 0 202 10t224 10q17 0 42 -27.5t42 -39.5q5 -4 16 -11q48 -32 48 -55q0 -8 -34.5 -86.5t-60.5 -144.5q-36 -94 -89.5 -256.5t-73.5 -218.5q-36 -101 -87 -254q-70 -207 -88 -207q-7 0 -21 8.5t-21 11.5q-8 3 -23.5 5.5t-21.5 4.5q-23 9 -36.5 37.5t-13.5 69.5z
" />
    <glyph glyph-name="eight" unicode="8" horiz-adv-x="901" 
d="M348 938q0 -43 30 -93t58 -50q23 0 78 80.5t55 134.5q0 41 -23.5 74.5t-53.5 33.5q-48 0 -96 -53.5t-48 -126.5zM281 252q0 -55 38.5 -96t81.5 -41q64 0 112 61.5t48 157.5q0 61 -45 117.5t-63 56.5q-23 0 -97.5 -91t-74.5 -165zM74 303q0 57 21 117.5t59 109.5
q28 39 76.5 83t48.5 51q0 3 -19 23q-125 131 -125 259q0 129 91.5 233.5t217.5 104.5q119 0 229.5 -100.5t110.5 -222.5q0 -110 -139 -268q-31 -34 -31 -40q0 -5 28 -34.5t50 -57.5q64 -81 91.5 -140.5t27.5 -113.5q0 -144 -109 -250t-260 -106q-152 0 -260 103.5
t-108 248.5z" />
    <glyph glyph-name="nine" unicode="9" horiz-adv-x="977" 
d="M324 786q0 -111 23.5 -143.5t86.5 -32.5q111 0 158 41t47 148q0 143 -41.5 226t-112.5 83q-53 0 -107 -109.5t-54 -212.5zM293 12q0 60 93 156q26 26 34 37q41 56 89 132.5t48 80.5q0 3 -3.5 6.5t-6.5 3.5q-2 0 -25 -7t-45 -7q-130 0 -257.5 129t-127.5 286
q0 79 36 163.5t108 174.5q38 48 91 80.5t74 32.5q14 0 45 -8t45 -10q11 -2 31 -3q89 -7 144 -40q101 -62 158 -185.5t57 -285.5q0 -140 -60.5 -294t-171.5 -296q-82 -106 -169 -190.5t-99 -84.5t-27.5 28t-23.5 38q-3 4 -11 11q-26 22 -26 52z" />
    <glyph glyph-name="colon" unicode=":" horiz-adv-x="487" 
d="M82 74q0 64 31 101q17 20 24 38q11 26 36.5 46t35.5 20q6 0 29 -10.5t24 -10.5h19q15 0 59.5 -56t44.5 -85q0 -31 -14 -66t-27 -35q-2 0 -5 1t-5 1q-1 0 -1 -1q-6 -26 -73 -46q-19 -5 -35.5 -12.5t-19.5 -7.5q-27 0 -75 38t-48 85zM82 713q0 64 31 101q17 20 24 38
q11 26 36.5 46t35.5 20q6 0 29 -10.5t24 -10.5h19q15 0 59.5 -56t44.5 -85q0 -31 -14 -66t-27 -35q-2 0 -5 1t-5 1q-1 0 -2 -3q-7 -25 -72 -44q-17 -5 -35 -12.5t-24 -7.5q-24 0 -71.5 38.5t-47.5 84.5z" />
    <glyph glyph-name="semicolon" unicode=";" horiz-adv-x="487" 
d="M82 713q0 64 31 101q17 20 24 38q11 26 36.5 46t35.5 20q6 0 29 -10.5t24 -10.5h19q14 0 58 -56t44 -85q0 -32 -13 -66.5t-26 -34.5q-2 0 -5 1t-5 1q-1 0 -2 -3q-7 -25 -72 -44q-17 -5 -35 -12.5t-24 -7.5q-24 0 -71.5 38.5t-47.5 84.5zM53 -254q0 18 16.5 72t22.5 86
q13 78 40 168.5t48 132.5q9 16 27 18q14 2 22 4q6 2 16 15.5t27 13.5t64 -29t47 -49q0 -9 -54.5 -121.5t-97.5 -218.5q-42 -105 -59.5 -134.5t-32.5 -29.5q-23 0 -54.5 32t-31.5 40z" />
    <glyph glyph-name="less" unicode="&#x3c;" horiz-adv-x="1706" 
d="M1442 1176v-185l-934 -381l934 -381v-182l-1178 483v160z" />
    <glyph glyph-name="equal" unicode="=" horiz-adv-x="1706" 
d="M254 487h1198v-165h-1198v165zM254 901h1198v-168h-1198v168z" />
    <glyph glyph-name="greater" unicode="&#x3e;" horiz-adv-x="1706" 
d="M264 1176l1178 -486v-160l-1178 -483v182l934 381l-934 381v185z" />
    <glyph glyph-name="question" unicode="?" horiz-adv-x="797" 
d="M182 467q0 29 71 156.5t173 269.5q76 105 102.5 166.5t26.5 118.5q0 20 -10 28t-39 8q-42 0 -107 -39t-149 -114q-42 -37 -73 -83t-48 -46q-20 0 -61 77.5t-41 108.5q0 24 46.5 78.5t119.5 106.5q92 65 159 98t109 33q14 0 100.5 -38t114.5 -65q54 -52 78 -101t24 -112
q0 -71 -29 -143t-96 -166q-37 -52 -102 -137q-145 -189 -145 -260q0 -11 16 -29t16 -31q0 -10 -9 -17t-23 -7q-9 0 -42.5 6t-58.5 6q-32 0 -58 35q-10 13 -15 18q-3 3 -14 10q-36 23 -36 64zM152 63q0 78 26 104q5 5 9 10q12 14 32 47q33 52 55 52q11 0 32 -9t48 -9
q36 0 66.5 -41.5t30.5 -77.5q0 -80 -44 -132t-92 -52q-15 0 -30 -4t-17 -4q-25 0 -70.5 38t-45.5 78z" />
    <glyph glyph-name="at" unicode="@" horiz-adv-x="2048" 
d="M1174 283q-55 -87 -128 -127.5t-176 -40.5q-152 0 -232.5 86.5t-80.5 249.5q0 233 138 395t333 162q89 0 149 -34.5t99 -107.5l55 107h154l-148 -586q-1 -5 -2 -12q-6 -28 -6 -37q0 -38 26.5 -61t69.5 -23q51 0 107.5 30.5t105.5 84.5q72 76 110 177.5t38 215.5
q0 253 -187 411t-489 158q-138 0 -256 -31t-215 -94q-181 -113 -279 -291t-98 -395q0 -312 209.5 -499t558.5 -187q166 0 323.5 49t291.5 142l67 -99q-149 -113 -318.5 -170t-355.5 -57q-192 0 -351 48t-281 142q-155 118 -231.5 275.5t-76.5 357.5q0 165 52 313.5
t153 272.5q147 179 353.5 272t459.5 93q166 0 315 -45.5t255 -127.5q132 -102 198 -235.5t66 -300.5q0 -162 -65 -302t-185 -237q-69 -55 -150 -83.5t-168 -28.5q-106 0 -157 40.5t-51 125.5v4zM1233 707q-14 84 -61.5 130t-122.5 46q-127 0 -217.5 -128.5t-90.5 -310.5
q0 -98 45.5 -151t128.5 -53q90 0 163.5 66.5t99.5 172.5z" />
    <glyph glyph-name="A" unicode="A" horiz-adv-x="977" 
d="M373 582q0 -6 7 -9.5t19 -3.5q140 0 168.5 6.5t28.5 34.5q0 4 -8 34q-33 129 -56 264q-5 32 -11 82q-9 73 -21 73q-8 0 -24 -78q-12 -60 -21 -100q-35 -146 -74 -274q-8 -27 -8 -29zM35 -35q0 153 199 946l2 7q23 94 58 245q63 277 101 277q95 0 196 -30.5t101 -47.5
q0 -3 -1 -9.5t-1 -11.5q0 -6 11.5 -67t27.5 -133q8 -38 15 -97t10 -76q1 -8 20 -92t27 -157q0 -17 20 -146t49 -284q2 -7 6 -25q21 -103 31 -196q3 -32 16 -60q3 -7 3 -8q0 -9 -16 -22t-31 -13q-7 0 -19 4t-18 4q-11 0 -27 -8t-24 -8q-63 0 -106 140l-1 3q-24 80 -41 174.5
t-41 94.5q-1 0 -14 -3q-76 -16 -170 -24q-54 -4 -75.5 -10.5t-29.5 -20.5q-10 -23 -17 -71.5t-14 -70.5q-5 -19 -16 -56q-33 -106 -33 -162q0 -28 -19.5 -50t-51.5 -22q-54 0 -92.5 17t-38.5 38q0 6 2 16.5t2 14.5z" />
    <glyph glyph-name="B" unicode="B" horiz-adv-x="1006" 
d="M379 782q41 0 85 20.5t101 67.5q74 62 111 113t37 92q0 52 -56.5 91.5t-134.5 39.5q-82 0 -116.5 -13t-34.5 -48q0 -5 1 -22.5t1 -30.5q0 -40 -5.5 -92t-5.5 -64q0 -15 4.5 -43t4.5 -41q0 -12 -3 -32.5t-3 -28.5q0 -5 3 -6.5t11 -2.5zM354 229q0 -14 8 -18t33 -4
q34 0 104.5 32.5t129.5 79.5q28 24 42.5 48t14.5 47q0 59 -63.5 103t-155.5 44h-6q-26 -2 -49 -2q-42 0 -51 -26.5t-9 -118.5q0 -17 2 -61.5t2 -71.5q0 -15 -1 -31.5t-1 -20.5zM139 86q0 3 -3 22t-3 35q0 5 2 28q6 105 6 208q0 109 -1 248t-1 170q0 26 1 124t1 169
q0 41 -4 104t-4 84q0 42 7 55.5t26 24.5q18 12 103.5 30.5t156.5 18.5h84q83 0 125 -10.5t78 -36.5q97 -68 151 -162.5t54 -196.5q0 -77 -40.5 -149t-121.5 -139q-13 -10 -36.5 -20t-23.5 -19q0 -5 24 -15t42 -22q66 -45 114 -134.5t48 -166.5q0 -83 -61.5 -153.5
t-176.5 -119.5q-104 -42 -193.5 -64t-156.5 -22q-7 0 -15 2q-3 1 -4 1q-10 0 -14 -3q-1 0 -4 -6q-14 -26 -33 -26q-20 0 -75.5 40t-55.5 54q0 4 2 19.5t2 27.5z" />
    <glyph glyph-name="C" unicode="C" horiz-adv-x="891" 
d="M465 -55q-75 0 -157 35t-126 86q-54 61 -84 182t-30 282q0 190 42.5 389t106.5 324q53 104 111 152.5t127 48.5q39 0 102 -32.5t141 -92.5q42 -32 68.5 -101t26.5 -155q0 -137 -28 -173t-106 -36q-51 0 -80.5 35t-41.5 110q-3 17 -8 49q-26 162 -62 162q-14 0 -29 -30
t-28 -86l-13 -52q-71 -289 -71 -569q0 -90 10.5 -171.5t30.5 -144.5q7 -21 20.5 -28.5t40.5 -7.5q37 0 94 87t74 189q2 13 5 35q7 62 46 96q23 21 35.5 27t26.5 6q39 0 72.5 -38t33.5 -97q0 -198 -100.5 -339.5t-249.5 -141.5z" />
    <glyph glyph-name="D" unicode="D" horiz-adv-x="963" 
d="M356 213q0 -4 6 -8t13 -4q9 0 59.5 63t81.5 125q58 115 84.5 212.5t26.5 191.5q0 200 -60 295.5t-186 95.5q-7 0 -10.5 -1.5t-3.5 -4.5q0 -5 2 -18.5t2 -20.5q0 -3 -1 -17q-7 -106 -8 -237q0 -41 -3 -125t-3 -127q0 -60 3 -178t3 -176q0 -10 -3 -32t-3 -34zM358 -61
q-14 0 -53.5 21t-64.5 32q-76 30 -94.5 43.5t-18.5 27.5q0 6 2 20t2 21q0 33 -3 80.5t-3 63.5q0 28 5 130t5 175q0 31 -3 107.5t-3 121.5q0 35 1 104.5t1 104.5v238q0 14 2 42.5t2 43.5q0 19 -8 42.5t-8 26.5q0 24 51.5 39t130.5 15q251 0 418.5 -181t167.5 -462
q0 -210 -81 -398.5t-231 -328.5q-44 -42 -121 -85.5t-96 -43.5z" />
    <glyph glyph-name="E" unicode="E" horiz-adv-x="872" 
d="M287 -43q-8 0 -54 25.5t-65 46.5q-17 18 -25 101t-8 239q0 367 6 604.5t17 329.5q8 61 21.5 77.5t43.5 16.5q10 0 27 -9.5t29 -9.5q6 0 40 8q158 35 289 35q33 0 73 -55t40 -119q0 -39 -110 -55q-32 -5 -51 -8q-46 -8 -112 -10q-77 -3 -77 -35q0 -4 1 -13t1 -14
q0 -30 -6.5 -114t-6.5 -136q1 -17 5 -20.5t20 -3.5q9 0 39 4q107 16 199 16q52 0 81 -38.5t29 -106.5q0 -17 2 -34l2 -17q0 -26 -110 -36q-34 -3 -56 -5q-35 -4 -94 -9q-123 -10 -123 -43q0 -1 1 -9q1 -33 1 -66q0 -56 -1 -117t-1 -66q0 -6 -2 -24.5t-2 -30.5q0 -21 4.5 -32
t12.5 -11q48 0 147 17.5t131 17.5q31 0 69 -41t38 -86q0 -8 -1 -25.5t-1 -25.5q0 -7 7 -19t7 -18t-11 -8h-7q-63 -6 -138 -22t-83 -17q-74 -12 -150 -20.5t-88 -8.5z" />
    <glyph glyph-name="F" unicode="F" horiz-adv-x="768" 
d="M143 66q0 16 -3 48t-3 46q0 20 1 53.5t1 46.5q0 31 -3 110.5t-3 127.5q0 99 1 279t1 261q0 16 2 78.5t2 108.5q0 10 -2 46t-2 62q0 23 5 33.5t17 11.5q72 12 136.5 18.5t95.5 6.5q147 0 197.5 -5.5t66.5 -19.5q44 -39 63 -73.5t19 -73.5q0 -32 -8.5 -46t-32.5 -14h-26
q-141 -4 -287 -4q-14 0 -20.5 -8t-6.5 -24q0 -11 4 -43.5t4 -55.5q0 -12 -4 -81t-4 -126q0 -4 3.5 -6t11.5 -2q2 0 15 1q60 3 116 3q90 0 145 -39t55 -96q0 -16 -16 -55q-8 -18 -12 -28q-5 -14 -70 -21q-16 -1 -27 -2h-86h-55q-45 0 -56 -4.5t-11 -18.5v-6q2 -22 2 -41
q0 -26 -4.5 -169t-4.5 -259v-23q0 -79 -17.5 -104t-59.5 -25q-35 0 -90.5 35t-55.5 60q0 2 3 14.5t3 22.5z" />
    <glyph glyph-name="G" unicode="G" horiz-adv-x="1006" 
d="M74 596q0 196 62 382t169 316q51 61 110 101.5t93 40.5q41 0 81 -17.5t142 -83.5q81 -51 110 -111.5t29 -181.5q0 -116 -25.5 -180.5t-70.5 -64.5q-8 0 -25 5t-28 5q-5 0 -15.5 -2t-15.5 -2q-41 0 -62.5 60t-21.5 177q0 23 9.5 75.5t9.5 82.5q0 17 -11 31t-22 14
q-14 0 -60.5 -45t-78.5 -100q-66 -116 -96.5 -246.5t-30.5 -298.5q0 -200 38.5 -323.5t96.5 -123.5q31 0 66 26t65 71q29 43 54.5 112t25.5 91q0 10 -8 15t-27 5q-4 0 -25.5 -1t-40.5 -1q-44 0 -74 7.5t-48 23.5q-27 22 -48.5 60t-21.5 54q0 31 93 41h7q80 9 168.5 29
t112.5 20q30 1 57 4q5 1 6 1q21 0 66 -43t45 -64q0 -90 -32 -201.5t-87 -208.5q-54 -94 -127 -148t-143 -54q-45 0 -116 25l-9 3q-17 6 -64 18t-67 27q-96 76 -155.5 232.5t-59.5 345.5z" />
    <glyph glyph-name="H" unicode="H" horiz-adv-x="1006" 
d="M461 606q-3 0 -30 -4t-60 -10q-4 -1 -6 -11t-3 -53v-110q0 -79 -3 -158.5t-3 -81.5q0 -11 1 -35t1 -37q0 -14 -2 -37t-2 -32q0 -8 2 -21.5t2 -19.5q0 -10 -9 -20.5t-17 -10.5q-4 0 -20.5 3t-28.5 3h-21q-22 0 -52.5 15t-45.5 34q-16 18 -22.5 52.5t-6.5 136.5
q0 152 -3 329t-3 203q0 111 8 260t8 187q0 7 -1 41t-1 61q0 35 20.5 72t45.5 37q112 0 138 -24.5t26 -94.5q0 -24 -3 -89t-3 -106q0 -32 3 -97.5t3 -98.5q0 -12 -2 -25.5t-2 -15.5q0 -7 2 -9.5t6 -2.5q7 0 27 2t32 2q6 0 19.5 -1t19.5 -1q24 0 62.5 6t52.5 6q9 0 20 -2
t13 -2q8 0 14 116t6 306q0 39 -3 97t-3 79q0 45 14.5 59.5t55.5 14.5q62 0 112.5 -27t50.5 -66q0 -12 -2 -34.5t-2 -32.5q0 -14 3 -38.5t3 -35.5q0 -16 -4 -79.5t-4 -110.5q0 -27 5 -110.5t5 -139.5q0 -31 -3 -103.5t-3 -115.5q0 -29 2 -98.5t2 -110.5q0 -77 -7 -181
t-7 -131v-51q0 -26 -12.5 -42.5t-32.5 -16.5q-79 0 -122.5 29t-43.5 81v37q0 33 -6 135t-6 170q0 37 2 76t2 41q0 32 -5 43.5t-18 11.5q-17 0 -58 -7t-64 -7q-2 0 -13.5 1t-19.5 1z" />
    <glyph glyph-name="I" unicode="I" horiz-adv-x="512" 
d="M137 115q0 127 -2 275.5t-2 168.5q0 314 9 600q1 42 1 49q0 11 -1 43t-1 52q0 89 14 110t58 21q66 0 114 -25t48 -55q0 -8 -3 -26.5t-3 -29.5q0 -12 2 -48.5t2 -59.5t-4 -77t-4 -85q0 -17 1 -51t1 -51q0 -33 -3.5 -87t-3.5 -77q0 -11 2 -61q9 -217 9 -420q0 -42 -2 -103
t-2 -80q0 -11 1 -32.5t1 -32.5q0 -55 -10.5 -72.5t-39.5 -17.5q-47 0 -115.5 44t-68.5 66q0 4 1 24.5t1 37.5z" />
    <glyph glyph-name="J" unicode="J" horiz-adv-x="721" 
d="M291 -57q-40 0 -83 13.5t-89 41.5q-78 48 -111 118t-33 187q0 35 18.5 56.5t47.5 21.5q64 0 101.5 -22t60.5 -74q20 -45 28 -108.5t27 -63.5q45 0 66.5 174t21.5 538q0 77 -4 207t-4 185q0 157 11.5 199t43.5 42q90 0 134 -26t44 -80q0 -3 -1 -16q-5 -68 -5 -138
q0 -64 7.5 -213.5t7.5 -234.5v-193q0 -227 -18.5 -329t-61.5 -169q-40 -62 -88.5 -89t-120.5 -27z" />
    <glyph glyph-name="K" unicode="K" horiz-adv-x="938" 
d="M129 131q0 33 -1 109.5t-1 121.5t6 191t6 248q0 28 -1 123t-1 161q0 158 10.5 250t28.5 92q55 0 109.5 -13.5t68.5 -30.5q9 -11 14 -90.5t5 -227.5q0 -33 -3 -103t-3 -106q0 -30 2 -47.5t6 -17.5t101.5 160.5t197.5 314.5q47 73 97.5 133.5t59.5 60.5q15 0 79.5 -45
t64.5 -69q0 -9 -62.5 -106.5t-119.5 -199.5q-59 -105 -136 -231.5t-77 -138.5q0 -21 95 -160q58 -84 93 -137q105 -159 141.5 -220t36.5 -75q0 -10 -43 -57.5t-61 -47.5q-17 0 -75 58t-140 157t-163.5 217.5t-94.5 118.5q-3 0 -3.5 -3t-0.5 -19v-10q2 -30 2 -56
q0 -41 -5 -149.5t-14 -241.5q-4 -62 -13.5 -80t-29.5 -18q-60 0 -119 31.5t-59 60.5v9q2 41 2 83z" />
    <glyph glyph-name="L" unicode="L" horiz-adv-x="725" 
d="M246 -47q-7 0 -25.5 17t-44.5 34q-32 21 -43.5 50t-11.5 110v82q0 525 18 1018q2 71 2 84q0 23 -3 46q-1 6 -1 7q0 8 31 15t65 7q44 0 77.5 -26.5t39.5 -66.5q3 -13 6.5 -178.5t3.5 -377.5q0 -33 -1 -165t-1 -230q0 -14 -2 -50.5t-2 -58.5q0 -13 5.5 -16.5t25.5 -3.5
q13 0 66.5 3t95.5 3q69 0 97.5 -10t49.5 -35q18 -20 32.5 -60.5t14.5 -62.5q0 -45 -85 -52q-24 -2 -35 -3q-190 -29 -347 -73q-25 -7 -28 -7z" />
    <glyph glyph-name="M" unicode="M" horiz-adv-x="1233" 
d="M131 92q0 20 -3 72t-3 84q0 231 3 436.5t9 365.5q2 61 4 154q2 150 27 150h8q6 0 18.5 6t18.5 6t23.5 -6t27.5 -8q26 -7 76.5 -11.5t69.5 -7.5q25 -4 38 -15.5t19 -35.5q48 -178 84 -392t51 -214q14 0 46.5 159.5t70.5 294.5q16 58 39 147q47 179 90 179q26 0 73.5 -13
t106.5 -36q46 -18 56 -28t10 -31q0 -2 -1 -23.5t-1 -42.5q0 -6 2 -31.5t2 -44.5q0 -45 -1 -124t-1 -113q0 -40 3 -127t3 -135q0 -59 -2 -157.5t-2 -139.5q0 -38 2 -101.5t2 -89.5q0 -29 -4 -78.5t-4 -70.5v-7q2 -19 2 -36q0 -26 -7 -40t-20 -14q-80 0 -141.5 29.5
t-61.5 60.5q0 186 12.5 450t12.5 339q0 79 -7 101t-26 22q-12 0 -46.5 -176t-78.5 -346q-13 -54 -31 -131q-26 -121 -59 -121q-14 0 -60 20.5t-63 34.5q-13 11 -16 32.5t-8 37.5q-17 48 -38.5 143.5t-49.5 246.5q-12 61 -20.5 135.5t-18.5 74.5q-8 0 -17.5 -12.5t-9.5 -24.5
q0 -10 1 -26.5t1 -22.5q0 -25 -2 -73.5t-2 -72.5q0 -55 6 -209.5t6 -255.5q0 -17 -1 -53.5t-1 -56.5q0 -57 7 -115q1 -11 1 -14q0 -12 -6 -20.5t-14 -8.5q-2 0 -26 6t-47 10q-7 1 -18 3q-68 11 -81 34q-7 13 -18 32q-15 27 -15 34v12z" />
    <glyph glyph-name="N" unicode="N" horiz-adv-x="1057" 
d="M143 31q0 12 -7 116t-7 197q0 22 2 84t2 100v138q0 36 3 130t3 150q0 225 12 401q1 12 1 13q1 8 9.5 13t20.5 5q26 0 85 -16.5t79 -28.5q28 -16 94 -205q9 -27 15 -43q71 -202 145 -376t80 -174q5 0 6.5 5t1.5 17q0 3 -1 16q-5 74 -5 150q0 399 12 690v12q2 26 10.5 32.5
t38.5 6.5q92 0 127 -15.5t35 -57.5q0 -4 4 -133.5t4 -253.5q0 -10 -1 -115t-1 -199q0 -76 3.5 -211t3.5 -194q0 -180 -10.5 -239.5t-39.5 -59.5q-11 0 -39 7t-47 7h-16q-56 0 -90 67l-8 16q-153 306 -203.5 411t-50.5 114q0 3 -16 38t-31 71q-4 9 -11.5 16.5t-11.5 7.5
q-2 0 -3 -4t-1 -20q0 -53 9 -166t9 -172q0 -22 -2 -69.5t-2 -73.5q0 -7 2 -60t2 -98v-17q0 -86 -14 -108.5t-51 -22.5q-30 0 -58 19.5t-40 21.5q-8 2 -23 4q-31 4 -31 17q0 9 1 22.5t1 16.5z" />
    <glyph glyph-name="O" unicode="O" horiz-adv-x="1042" 
d="M549 1241q-26 0 -78 -83q-13 -22 -20 -34q-70 -112 -102 -235.5t-32 -292.5q0 -185 49 -327t87 -142q98 0 181 202.5t83 469.5q0 81 -24.5 193.5t-49.5 162.5q-15 31 -46.5 58.5t-47.5 27.5zM74 633q0 210 58.5 412.5t148.5 310.5q28 35 79 58.5t97 23.5q30 0 108 -33
t109 -39q48 -9 83.5 -36t76.5 -87q67 -101 105 -234.5t38 -271.5q0 -158 -39.5 -318.5t-103.5 -271.5q-52 -87 -118.5 -143.5t-113.5 -56.5h-12q-8 0 -25 -2t-26 -2q-2 0 -14 4q-53 19 -109 30q-36 8 -69.5 29.5t-65.5 56.5q-115 124 -161 254t-46 316z" />
    <glyph glyph-name="P" unicode="P" horiz-adv-x="872" 
d="M362 756q0 -25 4 -35t17 -10q74 0 130 88.5t56 222.5q0 94 -30.5 134t-104.5 40h-35q-25 0 -31 -15.5t-6 -105.5q0 -15 2.5 -47t2.5 -47q0 -13 -2.5 -40.5t-2.5 -43.5q0 -18 3.5 -47t3.5 -39q0 -17 -3.5 -35.5t-3.5 -19.5zM143 31q0 4 -1 30q-11 225 -11 498q0 56 2 164
t2 160q0 104 -2 256.5t-2 199.5q0 49 45.5 64.5t212.5 15.5q81 0 135.5 -15.5t104.5 -51.5q86 -61 143 -153.5t57 -168.5q0 -144 -72.5 -277.5t-185.5 -199.5q-58 -35 -131 -63t-73 -33q0 -8 1 -21.5t1 -17.5q0 -22 -1 -55.5t-1 -45.5q0 -25 4 -83.5t4 -90.5q0 -53 -12 -102
q-3 -11 -3 -12q1 -8 7 -19.5t6 -17.5q0 -26 -17.5 -46t-42.5 -20q-59 0 -114.5 31t-55.5 74z" />
    <glyph glyph-name="Q" unicode="Q" horiz-adv-x="1042" 
d="M672 -35q-27 -11 -41.5 -14.5t-28.5 -3.5q-16 0 -37 -2t-26 -2q-2 0 -14 4q-53 19 -109 30q-36 8 -69.5 29.5t-65.5 56.5q-115 122 -161 252t-46 318q0 179 47 364.5t119 298.5q43 70 98.5 106t118.5 36q30 0 108 -33t109 -39q48 -9 83.5 -36t76.5 -87
q67 -101 105 -234.5t38 -271.5q0 -166 -43 -329.5t-119 -288.5q97 -98 159 -175.5t62 -99.5q0 -9 -24 -34t-39 -25q-7 0 -31 5t-41 5h-41q-19 0 -30.5 7.5t-36.5 33.5q-13 13 -64 68q-36 38 -57 61zM518 154q-12 23 -28.5 53.5t-16.5 36.5q0 14 26 28.5t46 14.5
q16 0 31.5 -4.5t31.5 -14.5q56 144 82.5 271t26.5 247q0 178 -54 316.5t-114 138.5q-27 0 -74 -77l-24 -39q-71 -114 -102.5 -236.5t-31.5 -292.5q0 -185 49 -327t85 -142q11 0 58 22z" />
    <glyph glyph-name="R" unicode="R" horiz-adv-x="1014" 
d="M352 799q0 -12 2 -26.5t2 -16.5v-17v-8q1 -6 3.5 -8t9.5 -2q25 0 72 28t124 91q94 75 130 138t36 140q0 37 -19.5 56.5t-56.5 19.5q-17 0 -35 -1l-18 -1q-10 0 -26 2t-23 2q-39 0 -116 -31q-26 -10 -42 -16q-20 -8 -24 -13t-4 -20v-20q0 -13 -1 -43t-1 -47v-66
q0 -39 -6.5 -86t-6.5 -55zM313 -41q-5 0 -30.5 10.5t-47.5 16.5q-9 2 -26 5q-39 7 -53 19q-15 12 -22 99t-7 260q0 91 3 248t3 221v227q0 99 10 194.5t15 100.5q12 11 34.5 27t24.5 16q7 0 43.5 -20.5t52.5 -20.5q2 0 11 4q95 45 251 45q70 0 143 -31t118 -80
q48 -53 89.5 -137t41.5 -131q0 -71 -37 -142t-129 -173q-52 -59 -115 -102.5t-63 -49.5q0 -2 64.5 -93t123.5 -185q19 -30 51 -79q84 -132 84 -159q0 -11 -17 -24t-21 -20q-2 -3 -10 -26.5t-21 -23.5q-50 0 -97 36t-151 167q-75 91 -166 227.5t-105 136.5q-3 0 -5.5 -4
t-2.5 -8t3 -23t3 -34q0 -11 -4 -73.5t-4 -115.5v-108q0 -19 -4 -54.5t-4 -54.5q0 -6 1 -17.5t1 -17.5q0 -29 -6.5 -41t-22.5 -12z" />
    <glyph glyph-name="S" unicode="S" horiz-adv-x="915" 
d="M487 -57q-168 0 -286 106q-27 25 -39 31q-43 23 -87 96t-44 115q0 8 4 24.5t4 24.5q0 3 -3 11t-3 14q0 15 12 24.5t31 9.5q28 0 58.5 -17t62.5 -51q7 -7 21 -22q143 -151 222 -151q41 0 66.5 33t25.5 85q0 76 -40 146t-158 184q-121 118 -162 197.5t-41 177.5
q0 96 37.5 181t114.5 163q48 50 103.5 81.5t90.5 31.5q14 0 67 -19t75 -37q81 -67 124 -102q29 -32 53.5 -110t24.5 -146q0 -87 -21.5 -130.5t-64.5 -43.5q-46 0 -83 22.5t-72 73.5q-29 42 -40 143t-20 101q-42 0 -96.5 -69t-54.5 -136q0 -91 157 -241q40 -39 62 -60
q111 -111 169 -217t58 -197q0 -44 -28 -97.5t-89 -121.5q-45 -53 -99 -80.5t-112 -27.5z" />
    <glyph glyph-name="T" unicode="T" horiz-adv-x="801" 
d="M289 1161q-65 -9 -117 -14.5t-61 -5.5q-5 0 -8 5.5t-3 14.5q0 2 -11 19q-48 72 -48 100q0 2 1 6t1 6q0 9 -4 23t-4 18q0 10 13 23.5t34 17.5q80 16 148 27.5t77 11.5q115 12 231 34q27 5 31 5q8 0 20.5 -3t18.5 -3q8 0 24.5 6t24.5 6q7 0 17.5 -3t15.5 -3q3 0 9.5 1
t9.5 1q12 0 40.5 -34.5t28.5 -59.5q0 -50 -14 -89t-34 -42q-62 -9 -137 -15q-67 -6 -67 -26q0 -5 1 -16t1 -19q0 -5 -1 -35q-13 -283 -13 -626q0 -119 2 -242t2 -127q0 -34 -4 -69t-4 -36q0 -3 6 -11.5t6 -14.5q0 -14 -15 -23.5t-38 -9.5q-91 0 -138.5 34t-47.5 99
q0 22 1 46.5t1 27.5q0 27 -3 96.5t-3 110.5q0 64 1 164t1 135v235q0 43 4 112.5t4 96.5v45z" />
    <glyph glyph-name="U" unicode="U" horiz-adv-x="1006" 
d="M119 606q0 178 12 376.5t12 213.5q2 114 10 153.5t27 39.5q63 0 130 -27.5t67 -52.5q0 -2 -2 -12q-6 -41 -6 -83q0 -10 1 -39t1 -47q0 -42 -11.5 -234t-11.5 -343q0 -198 33 -296.5t98 -98.5q94 0 128 116.5t34 591.5q0 40 -5 150.5t-5 181.5v98q0 79 9 101t36 22
q64 0 130 -20.5t66 -44.5q0 -7 -3 -25t-3 -29q0 -10 1 -28.5t1 -28.5q0 -16 -2 -58.5t-2 -68.5q0 -22 5 -215t5 -364q0 -183 -21 -297t-65 -168q-47 -60 -111.5 -94.5t-127.5 -34.5q-32 0 -84.5 19t-165.5 75q-35 17 -68 55t-57 88q-30 64 -42.5 151t-12.5 277z" />
    <glyph glyph-name="V" unicode="V" horiz-adv-x="952" 
d="M518 -47q-24 0 -93.5 22t-80.5 37q-3 4 -29 131q-7 39 -12 62q-29 148 -71 338t-91 391q-32 133 -56 263q-4 22 -5 25q-5 19 -15 43.5t-10 28.5q0 21 35 48.5t60 27.5q95 0 158 -214q8 -26 11 -37q66 -216 97.5 -413.5t36.5 -197.5q3 0 48 212t113 447q11 37 29 100
q74 261 115 261q16 0 35 -19q9 -8 12 -10q9 -6 26.5 -10.5t22.5 -7.5q12 -8 29.5 -35t17.5 -33t-79.5 -321t-155.5 -639l-22 -94q-96 -406 -126 -406z" />
    <glyph glyph-name="W" unicode="W" horiz-adv-x="1341" 
d="M479 -29q-49 0 -118 27.5t-83 30.5q-26 4 -68 48l-1 1q-13 26 -25 89.5t-22 158.5q-25 214 -30 401q-1 23 -1 27q-1 20 -9.5 54t-8.5 48q0 5 3 28.5t3 41.5q0 43 -15.5 145.5t-15.5 161.5q0 54 10 111v4t31.5 13.5t38.5 12.5q78 0 109.5 -14.5t31.5 -63.5q0 -16 16 -249
t27 -403q2 -39 5 -106q8 -175 32 -176q24 0 28 71q2 40 5 65q30 267 70 477q3 15 4 18q5 37 16 100q21 128 23 161q0 15 12.5 22.5t40.5 7.5q173 0 183 -74q1 -4 1 -6q2 -7 13.5 -122t27.5 -287q17 -176 21 -219.5t4 -49.5v-26q0 -16 4.5 -22.5t13.5 -6.5q16 0 55 190
q32 160 58 271q11 51 31 142q95 427 157 427q46 0 110 -40t64 -56q0 -8 -4 -15.5t-14 -17.5q-14 -14 -38 -106q-11 -42 -17 -65q-26 -93 -61.5 -248t-78.5 -363l-15 -73q-107 -511 -134 -511q-19 0 -55.5 20.5t-50.5 26.5q-13 6 -37 14q-51 17 -62 39q-15 31 -42 150
q-17 73 -28 117q-23 93 -36 180.5t-13 138.5q0 6 2 20t2 21q0 3 -3.5 5.5t-8.5 2.5q-12 0 -16.5 -8t-4.5 -28q0 -1 1 -4q1 -10 1 -19q0 -27 -27.5 -196.5t-66.5 -348.5q-9 -43 -18 -100q-11 -66 -27 -66z" />
    <glyph glyph-name="X" unicode="X" horiz-adv-x="887" 
d="M45 55q46 111 122 289q118 272 118 322q0 23 -47 142q-31 81 -50 132q-57 158 -89.5 267t-32.5 136q0 24 8.5 33.5t27.5 9.5q23 0 50 -14t30 -14q36 0 61.5 -15t51.5 -53q18 -26 31.5 -54t25.5 -67q12 -35 43 -108t31 -103q0 -6 1.5 -10t4.5 -4q2 0 66 143l28 64
q96 215 132.5 277.5t58.5 62.5q39 0 102.5 -54t63.5 -87q0 -3 -18 -35q-85 -154 -167 -342q-48 -112 -84 -204t-36 -99q0 -12 38 -115t95 -240q41 -99 65.5 -169.5t24.5 -90.5q0 -31 -9 -46t-28 -15q-12 0 -39.5 2t-42.5 2q-40 0 -64.5 22.5t-50.5 73.5q-32 69 -78 169
q-49 110 -57 110q-7 0 -40 -73.5t-81 -195.5q-14 -35 -30 -88q-25 -77 -62 -77q-51 0 -129 75q-28 26 -45 41z" />
    <glyph glyph-name="Y" unicode="Y" horiz-adv-x="868" 
d="M283 111q0 21 2 62.5t2 62.5q0 6 -1 18t-1 18q0 46 7 115.5t7 93.5q0 30 -63 204q-30 83 -48 134q-19 54 -63.5 167.5t-56.5 164.5q-12 48 -26.5 105.5t-14.5 60.5q0 8 9.5 36.5t16.5 28.5q2 0 5 -1t5 -1q4 0 11 3t10 3q5 0 16.5 -9t24.5 -9h16q48 0 116 -143
q19 -40 30 -62q57 -112 94.5 -213.5t38.5 -101.5q9 0 75.5 162.5t137.5 310.5q8 17 23 48q77 159 104 159q35 0 91 -39.5t56 -75.5q0 -10 -99 -234.5t-185 -453.5q-12 -30 -31 -82q-46 -119 -49 -147q-2 -17 -6 -105q-1 -42 -2 -67q-3 -49 -10 -136.5t-7 -119.5v-35
q0 -39 -10.5 -54.5t-36.5 -15.5q-6 0 -43.5 9.5t-81.5 23.5q-36 12 -49.5 27.5t-13.5 54.5v33z" />
    <glyph glyph-name="Z" unicode="Z" horiz-adv-x="930" 
d="M195 0q-29 0 -46 -12.5t-22 -12.5q-17 0 -53.5 75.5t-36.5 113.5q0 19 94.5 183.5t161.5 289.5q68 127 168 302.5t100 199.5q0 5 -6 7.5t-20 2.5q-136 0 -259 7q-18 1 -22 1q-9 0 -23 -4t-18 -4q-19 0 -39 57t-20 99q0 24 5 40.5t13 18.5q28 7 99.5 13.5t144.5 6.5
q138 0 266 -8q21 -2 25 -2q19 0 40 11.5t23 11.5t28.5 -22t33.5 -30q11 -13 19 -39.5t11 -33.5q3 -6 12 -13t9 -12t-77.5 -148t-197.5 -360l-32 -57q-226 -409 -226 -428q0 -7 75 -10h17q79 -3 160 -12t89 -9q32 -1 57.5 -38t25.5 -72q0 -55 -6 -84t-18 -29q-7 0 -19 1
t-18 1q-12 0 -45 -3t-54 -3q-35 0 -119 5t-133 5q-30 0 -78 -3t-65 -3h-24z" />
    <glyph glyph-name="bracketleft" unicode="[" horiz-adv-x="649" 
d="M154 -129q0 2 1 15q7 95 7 206q0 170 10 485t10 459t-10 282q-2 23 -2 28q0 53 47.5 66t218.5 13q61 0 104.5 -8.5t55.5 -21.5q7 -9 27 -69t20 -71q0 -26 -102 -27t-139 -11q-12 -4 -16 -131q-2 -57 -3 -91q-9 -244 -15 -449t-6 -243q0 -125 3 -227.5t6 -129.5
q2 -24 8 -30t22 -6q22 0 72 10t78 10q9 0 28.5 -31.5t43.5 -31.5h16q17 0 23 -14t6 -50q0 -23 -11.5 -34.5t-60.5 -24.5q-88 -23 -182 -41t-107 -18q-24 0 -64 57q-18 26 -28 39t-28 34q-33 39 -33 56z" />
    <glyph glyph-name="backslash" unicode="\" horiz-adv-x="877" 
d="M709 -172q-45 0 -133 252q-87 250 -160 426q-162 385 -239 552.5t-122 235.5q-16 25 -36.5 54t-20.5 34q0 31 42 61t89 30q29 0 53 -57q11 -26 19 -40q55 -97 114.5 -227.5t116.5 -280.5q15 -39 120 -292.5t187 -469.5q30 -76 60 -145t30 -72q0 -18 -22 -44.5t-53 -26.5
q-6 0 -16.5 5t-16.5 5h-12z" />
    <glyph glyph-name="bracketright" unicode="]" horiz-adv-x="645" 
d="M127 -279q-30 0 -42 9.5t-24 40.5q-25 67 -30.5 82.5t-5.5 17.5q0 7 21.5 25t27.5 18q3 0 14 -2t18 -2q15 0 54 5t63 5h21q22 0 27 29t5 125q0 24 7 127q24 409 24 774q0 32 -3 86t-3 76q0 11 2 27.5t2 21.5q0 19 -34.5 27t-131.5 8q-66 0 -84 22t-18 76v18q0 29 4 37.5
t23 18.5q7 4 20 12q19 12 27 12q11 0 26 -2t19 -2q10 0 85.5 8.5t141.5 8.5q36 0 89.5 -59.5t53.5 -123.5q0 -12 -17 -300.5t-17 -557.5v-35v-71q0 -56 -5.5 -151.5t-5.5 -137.5q0 -23 2 -78t2 -86q0 -69 -11.5 -86.5t-43.5 -17.5q-5 0 -26 1t-37 1q-73 0 -153.5 -3.5
t-86.5 -3.5z" />
    <glyph glyph-name="asciicircum" unicode="^" horiz-adv-x="2048" 
d="M915 1460h218l495 -561h-207l-397 397l-399 -397h-207z" />
    <glyph glyph-name="underscore" unicode="_" 
d="M0 -311h1024v-172h-1024v172z" />
    <glyph glyph-name="grave" unicode="`" 
d="M549 1004q-9 0 -78.5 30.5t-122.5 50.5q-21 8 -58 18q-85 24 -85 64q0 26 49 71.5t78 45.5q10 0 83 -45q66 -41 112 -68q12 -7 43 -19q71 -27 71 -58q0 -18 -37.5 -54t-54.5 -36z" />
    <glyph glyph-name="a" unicode="a" horiz-adv-x="664" 
d="M367 299q-46 0 -105 -39.5t-59 -64.5q0 -20 11.5 -28.5t37.5 -8.5q76 0 108.5 12.5t32.5 50.5q0 2 -1 7.5t-1 11.5l1 5t1 9q0 25 -6 35t-20 10zM408 20q-52 -20 -89.5 -29t-64.5 -9q-75 0 -137 73.5t-62 134.5q0 58 15.5 98.5t48.5 69.5q48 43 115 76t96 33q12 0 25.5 -1
t15.5 -1q14 0 19 8.5t5 30.5q0 18 -2 50.5t-2 47.5q0 11 2 35t2 37q0 21 -6 34t-14 13q-17 0 -62 -69q-30 -46 -51 -74q-14 -20 -31 -50q-24 -43 -47 -43q-27 0 -71.5 23.5t-44.5 50.5q0 20 38 106t70 128l12 15q86 110 129 110q13 0 59 -26.5t95 -45.5q64 -25 90.5 -83
t26.5 -202q0 -41 -3 -121.5t-3 -120.5q0 -18 1 -55t1 -57q0 -18 -1 -65t-1 -76t1 -57q1 -7 1 -9q0 -23 -15.5 -35t-44.5 -12q-42 0 -68.5 15t-47.5 52z" />
    <glyph glyph-name="b" unicode="b" horiz-adv-x="750" 
d="M449 723q-17 0 -54.5 -75.5t-68.5 -178.5q-18 -56 -25.5 -126t-7.5 -173q0 -32 12 -45.5t41 -13.5q50 0 87.5 141.5t37.5 341.5q0 8 -1 37.5t-1 52.5q0 19 -5.5 29t-14.5 10zM215 4q-6 0 -24 -7t-29 -7q-40 0 -55 65t-15 295v225q0 295 21 642q6 101 6 126q0 13 -1 31.5
t-1 26.5q0 20 11 28.5t38 8.5q83 0 118 -20t35 -66q0 -277 -23 -541q-3 -35 -3 -41q0 -4 2 -7t4 -3q1 0 9 15q55 110 118 110q51 0 108.5 -27t86.5 -65q28 -38 42.5 -111.5t14.5 -177.5q0 -246 -75.5 -397.5t-190.5 -151.5q-57 0 -117.5 24.5t-79.5 24.5z" />
    <glyph glyph-name="c" unicode="c" horiz-adv-x="664" 
d="M59 340q0 103 24.5 218t57.5 179q11 20 29 55q67 132 104 132q21 0 103 -21.5t119 -40.5q69 -33 78.5 -61t9.5 -166q0 -78 -20 -114t-62 -36q-7 0 -20.5 7.5t-24.5 7.5q-31 0 -50.5 32.5t-19.5 83.5q0 18 2 46t2 36q0 16 -5 23.5t-15 7.5q-25 0 -37 -56q-4 -19 -6 -27
q-2 -9 -8 -30q-54 -206 -54 -415q0 -41 8.5 -63.5t22.5 -22.5q32 0 79 64q19 26 30 38q21 24 47.5 96t52.5 72q27 0 72 -41.5t45 -62.5q0 -27 -23 -92.5t-55 -110.5q-40 -58 -85 -90.5t-83 -32.5q-40 0 -85 20t-130 78q-62 43 -82.5 103t-20.5 184z" />
    <glyph glyph-name="d" unicode="d" horiz-adv-x="735" 
d="M403 719q-26 0 -50 -45t-52 -146q-28 -103 -43.5 -201t-15.5 -157q0 -15 5.5 -23t16.5 -8q18 0 55 50.5t66 119.5q27 69 38 143.5t11 215.5q0 24 -8 37.5t-23 13.5zM449 43v18q0 12 -4 15.5t-13 3.5q-3 0 -50.5 -55.5t-102.5 -55.5q-26 0 -70.5 26t-91.5 68
q-35 33 -50.5 89.5t-15.5 162.5q0 111 41 253t90 218q25 39 64 70t51 31l43 -12.5t84 -12.5q9 0 13.5 6t4.5 19q0 2 -1 7.5t-1 8.5q0 6 4.5 18t4.5 19q0 5 -3.5 23.5t-3.5 31.5q0 25 5.5 87t5.5 100q0 49 -5.5 110.5t-5.5 75.5q0 35 10.5 53.5t30.5 18.5q8 0 50 -11.5
t88 -27.5q16 -6 22 -21.5t6 -72.5q0 -6 -1 -118.5t-1 -219.5q0 -91 -4 -324.5t-4 -376.5q0 -49 2 -115.5t2 -82.5q0 -12 -1 -34.5t-1 -33.5q0 -7 5 -21t5 -22q0 -20 -14.5 -33.5t-36.5 -13.5q-52 0 -101.5 38t-49.5 93z" />
    <glyph glyph-name="e" unicode="e" horiz-adv-x="702" 
d="M373 760q-7 0 -16 -13t-15 -30q-10 -33 -27 -85q-30 -97 -30 -110q0 -3 4.5 -5.5t9.5 -2.5q18 0 71.5 15t53.5 24q0 95 -14 151t-37 56zM57 330q0 141 46 299t102 235q20 29 44 41.5t58 12.5q47 0 121 -25t100 -51q40 -38 63 -124t23 -196q0 -20 -2 -53.5t-2 -46.5
q0 -25 -72 -34q-63 -9 -112 -17q-26 -5 -69 -11q-105 -14 -105 -71v-27v-47q0 -38 13 -58t38 -20q31 0 78.5 35.5t93.5 93.5q9 12 23 32q30 44 47 44q32 0 64 -26t32 -52q0 -4 -5 -12.5t-5 -13.5q0 -3 3 -11t3 -12q0 -15 -35.5 -74.5t-83.5 -107.5q-55 -56 -86 -70t-74 -14
q-24 0 -80 23t-63 30l-9 8q-149 122 -149 320z" />
    <glyph glyph-name="f" unicode="f" horiz-adv-x="555" 
d="M150 217q0 30 -3.5 87.5t-3.5 84.5q0 34 3.5 81.5t3.5 61.5t-1.5 37.5t-1.5 34.5q0 21 -5 29t-17 8q-2 0 -12 -1t-17 -1q-9 0 -19 2t-19 6q-12 5 -15 31q-1 10 -2 16q-2 24 -10 46.5t-8 27.5q0 36 64 39.5t65 26.5q0 2 -1 16t-1 24q0 229 62.5 394.5t133.5 165.5
q11 0 65 -15t76 -24q55 -24 83 -58.5t28 -79.5q0 -18 3 -42t3 -29q0 -15 -2 -40t-2 -36q0 -7 1 -21t1 -20q0 -46 -23 -63t-94 -17q-25 0 -44 37t-19 90q0 18 1 44.5t1 35.5q0 22 -5 32.5t-16 10.5q-25 0 -38 -95.5t-13 -277.5q0 -14 5.5 -20t17.5 -6q15 0 39.5 3t34.5 3
q40 0 53.5 -6t13.5 -21q0 -6 -3 -21.5t-3 -25.5t1 -27t1 -24q0 -33 -5.5 -44t-21.5 -11q-2 0 -18 2t-29 2q-46 0 -65 -5t-19 -22v-6q0 -21 -1 -47.5t-1 -32.5q0 -16 2 -38t2 -27q0 -18 -2 -77.5t-2 -101.5v-71q0 -23 -1 -64t-1 -57q0 -30 2 -66t2 -43q0 -34 -10 -48.5
t-33 -14.5q-19 0 -70.5 10.5t-63.5 15.5q-16 6 -21.5 40t-5.5 132v70z" />
    <glyph glyph-name="g" unicode="g" horiz-adv-x="725" 
d="M397 707q-19 0 -31 -14.5t-28 -57.5q-43 -116 -68.5 -242t-25.5 -200q0 -17 5 -27t13 -10q5 0 18.5 15t61.5 79q24 31 45 80.5t21 60.5q0 14 -1 31.5t-1 21.5q0 63 6 139.5t6 88.5q0 20 -4.5 27.5t-16.5 7.5zM369 -512q-26 0 -70.5 26t-97.5 72q-72 62 -94.5 96t-22.5 70
q0 32 6.5 46t22.5 14q1 0 5 -1t5 -1q5 0 18.5 9t24.5 9q20 0 34 -21.5t23 -27.5q34 -27 73.5 -48.5t53.5 -21.5q52 0 65 32t13 163q0 49 -4 99.5t-4 51.5v25q0 6 -1.5 8t-4.5 2q-2 0 -14 -14q-75 -90 -126 -90q-31 0 -75.5 25t-81.5 67q-32 34 -44 69.5t-12 110.5
q0 96 18 204t50 208q41 124 90.5 182.5t114.5 58.5q54 0 99.5 -40t64.5 -40q4 0 12.5 1.5t13.5 1.5q37 0 79 -31t42 -72q0 -1 -2 -10q-35 -128 -35 -395q0 -18 1 -39t1 -25q0 -100 11.5 -250.5t11.5 -195.5q0 -132 -85.5 -230t-178.5 -98z" />
    <glyph glyph-name="h" unicode="h" horiz-adv-x="743" 
d="M238 -12q-74 0 -109 42t-35 132q0 16 1 53.5t1 58.5t-3 179t-3 297v61q0 7 1 38q1 128 1 247q0 40 -2 105t-2 89q0 54 15 100q3 11 3 15q0 22 9 31.5t30 9.5q86 0 116 -23.5t30 -119.5v-35q0 -31 -1 -87.5t-1 -80.5q0 -14 1 -55.5t1 -69.5q0 -80 -10 -164q-2 -20 -2 -25
q0 -10 2.5 -14t9.5 -4q1 0 38 53t85 53q29 0 89 -24t85 -47q36 -34 51.5 -97.5t15.5 -189.5q0 -44 -4 -90.5t-4 -48.5q0 -8 2 -21.5t2 -19.5q0 -142 -19 -274q-3 -21 -3 -25q0 -6 1 -20.5t1 -24.5q0 -16 -23.5 -37t-44.5 -21q-65 0 -97 28.5t-32 86.5q0 35 5 178t5 250v64
q0 80 -3.5 103.5t-14.5 23.5q-39 0 -90 -163t-51 -380q0 -11 1 -39t1 -45q0 -25 -13.5 -39t-35.5 -14z" />
    <glyph glyph-name="i" unicode="i" horiz-adv-x="465" 
d="M274 1018q-71 0 -110 31.5t-39 87.5q0 5 2 15t2 15q0 8 -3 19t-3 14q0 48 30.5 83.5t82.5 35.5q33 0 65.5 -30.5t32.5 -41.5q0 -21 11 -46t11 -32q0 -69 -24.5 -110t-57.5 -41zM279 -43q-93 0 -123.5 41t-30.5 221v49q0 84 1 184.5t1 116.5v109q0 162 9 196.5t50 34.5
q79 0 122.5 -23t43.5 -65q0 -3 -1 -19q-11 -127 -11 -280v-21q-2 -93 -2 -184v-112q0 -54 2 -116t2 -69q0 -31 -16 -47t-47 -16z" />
    <glyph glyph-name="j" unicode="j" horiz-adv-x="465" 
d="M111 1155q0 21 7 46t7 32l-1 3t-1 5q0 24 28.5 46t59.5 22q64 0 107.5 -39.5t43.5 -91.5v-17q0 -6 1.5 -23t1.5 -28q0 -28 -39 -57t-88 -29q-22 0 -41.5 14.5t-36.5 42.5q-16 25 -32.5 42.5t-16.5 31.5zM115 -322q14 0 19 38.5t5 213.5q0 44 -3 131t-3 132v43
q0 16 4 114.5t4 179.5q0 117 9 206q2 12 2 14q0 15 -6.5 33.5t-6.5 21.5t4 14t4 19q0 4 -3 15t-3 17q0 20 7.5 34t17.5 14q8 0 23.5 -5.5t23.5 -5.5q5 0 14.5 1t16.5 1q22 0 64 -21t42 -30q0 -1 -2 -10t-2 -14q0 -16 1 -34.5t1 -23.5q0 -26 -5 -88t-5 -96q0 -150 3 -330
t3 -209q0 -11 -1 -52.5t-1 -70.5q0 -15 4 -58t4 -71q0 -153 -34.5 -241t-94.5 -88q-9 0 -21 2t-14 2q-5 0 -15 -2t-15 -2t-16 3t-17 3q-2 0 -5 -1t-5 -1q-3 0 -27 16.5t-45 30.5q-27 17 -42 45.5t-15 60.5q0 36 16 61t33 25t47 -18.5t35 -18.5z" />
    <glyph glyph-name="k" unicode="k" horiz-adv-x="696" 
d="M102 125q0 36 -3 82.5t-3 56.5q0 34 3 117t3 133q0 107 -3 220.5t-3 117.5q0 41 3 104.5t3 85.5q0 26 -2 78.5t-2 79.5v78q0 105 12 132.5t46 27.5q44 0 98.5 -28.5t54.5 -57.5q0 -4 -1 -11.5t-1 -11.5q0 -8 2 -20t2 -17q0 -8 -4 -25.5t-4 -25.5t3 -32.5t3 -41.5
t-5 -84.5t-5 -117.5q0 -22 1 -65t1 -64q0 -10 -5 -51.5t-5 -71.5v-86q0 -33 -3 -66q-1 -8 -1 -10q0 -5 4 -9.5t8 -4.5q2 0 46 78t83 145q18 30 47 81q69 117 80 117q14 0 64.5 -34t50.5 -43q0 -45 -23 -108.5t-92 -197.5q-13 -26 -46.5 -80.5t-33.5 -68.5q0 -2 39.5 -74.5
t81.5 -158.5q9 -18 42.5 -64.5t33.5 -77.5q0 -30 -27 -39q-4 -1 -7 -2q-8 -3 -24 -23t-32 -20q-33 0 -145 142l-3 4q-41 53 -81.5 126.5t-49.5 73.5q-4 0 -7 -3t-3 -7q0 -6 1 -16t1 -15q0 -16 -2 -44.5t-2 -39.5q0 -38 7 -99t7 -83q0 -20 -9 -32.5t-24 -12.5
q-98 0 -134 24.5t-36 125.5v14z" />
    <glyph glyph-name="l" unicode="l" horiz-adv-x="465" 
d="M272 -47q-25 0 -68.5 16.5t-58.5 32.5q-13 15 -18.5 76.5t-5.5 245.5v96q0 110 8.5 387.5t11.5 414.5q1 28 2 71q2 146 37 147q76 0 129 -25.5t53 -60.5q0 -79 -13 -245.5t-13 -242.5v-80q0 -40 -3 -123.5t-3 -125.5q0 -46 1 -120.5t1 -103.5q0 -46 -1 -106t-1 -74
q0 -29 1 -62.5t1 -37.5q0 -43 -14 -61.5t-46 -18.5z" />
    <glyph glyph-name="m" unicode="m" horiz-adv-x="1104" 
d="M102 74q0 37 1 80t1 49v192q0 21 1 62t1 61q0 87 -5 205.5t-5 148.5q0 27 19 39.5t59 12.5q48 0 71 -10.5t23 -30.5v-9q-4 -46 -4 -94v-10q0 -4 2 -5t6 -1q2 0 15 18q79 113 145 113q80 0 155 -96q11 -14 13 -15q9 0 19 23q9 20 16 31q28 41 67.5 58t114.5 17
q104 0 144 -54.5t40 -205.5v-92v-84q0 -34 -7.5 -143t-22.5 -293q-4 -46 -14 -58t-54 -12q-45 0 -83 23.5t-38 58.5q0 10 3 56q12 178 12 333q0 107 7 194q1 11 1 13q0 46 -7.5 67t-23.5 21q-15 0 -49.5 -73.5t-50.5 -163.5q-10 -56 -17 -164q-1 -22 -2 -33q-2 -31 -9 -100
t-7 -101v-51q0 -22 -9 -30.5t-36 -8.5q-23 0 -47.5 10.5t-34.5 10.5q-39 0 -50 23.5t-11 115.5q0 54 6 169t6 175q0 107 -5.5 146.5t-19.5 39.5q-40 0 -87.5 -126t-47.5 -293q0 -29 3 -80t3 -72q0 -106 -9 -139t-34 -33q-41 0 -75 11.5t-40 30.5q-3 12 -26 18t-23 55z" />
    <glyph glyph-name="n" unicode="n" horiz-adv-x="750" 
d="M246 -45q-26 0 -59 12t-62 31q-12 8 -18.5 49.5t-6.5 108.5q0 140 2 316t2 212q0 22 -1 52.5t-1 39.5q0 54 16.5 68t78.5 14q35 0 52 -11.5t17 -37.5q0 -4 -1 -12t-1 -11q0 -6 2 -9t6 -3q1 0 47.5 72t94.5 72q130 0 182.5 -65.5t52.5 -264.5q0 -138 -8 -318.5t-8 -201.5
q-2 -36 -18 -52t-50 -16q-66 0 -102.5 34.5t-36.5 98.5q0 20 8 190.5t8 321.5q0 33 -3 50.5t-9 17.5q-46 0 -90.5 -161t-44.5 -398q0 -18 2 -63.5t2 -74.5q0 -35 -10 -48t-43 -13z" />
    <glyph glyph-name="o" unicode="o" horiz-adv-x="717" 
d="M268 332q0 -85 16 -145t35 -60q39 0 80 113.5t41 242.5q0 99 -19 173.5t-40 74.5q-30 0 -71.5 -135t-41.5 -264zM59 362q0 110 29 240t72 223q22 50 49 73.5t61 23.5q15 0 93 -19.5t116 -36.5q84 -38 129 -149t45 -281q0 -195 -82 -339t-174 -144q-19 0 -40 6t-45 18
q-101 48 -152 76q-53 39 -77 113t-24 196z" />
    <glyph glyph-name="p" unicode="p" horiz-adv-x="758" 
d="M342 297q0 -45 -2 -90v-8q0 -11 3.5 -19t6.5 -8q11 0 29 34t51 120q42 112 55 172.5t13 117.5q0 58 -14.5 90.5t-39.5 32.5q-31 0 -66.5 -23t-35.5 -50l1 -25t1 -49q0 -38 -1 -90t-1 -68v-18v-119zM133 -346q0 8 -4 48t-4 73q0 7 3 64t3 106q0 17 -1 52.5t-1 53.5
q0 46 3 140.5t3 144.5q0 29 -3 70.5t-3 54.5q0 1 1 15t1 26t-27.5 42.5t-27.5 47.5q0 1 31.5 51t31.5 113q0 6 -1 29.5t-1 41.5q0 121 10 160t39 39q54 0 106 -38t52 -70v-11q0 -5 2 -8.5t4 -3.5q6 0 20.5 3t24.5 3q138 0 228 -87t90 -226q0 -62 -33 -185.5t-78 -209.5
q-47 -92 -98 -152.5t-80 -60.5q-12 0 -31.5 4t-25.5 4q-19 0 -25 -8t-6 -41v-17q0 -11 2 -59t2 -86q0 -45 -4 -105.5t-4 -74.5v-33q0 -54 -9 -69t-32 -15q-42 0 -102 33.5t-60 72.5q0 5 2 27t2 41z" />
    <glyph glyph-name="q" unicode="q" horiz-adv-x="739" 
d="M393 735q-34 0 -82.5 -163.5t-48.5 -340.5q0 -43 12 -78.5t21 -35.5q36 0 80.5 81t44.5 203q0 9 -1 34.5t-1 41.5q0 22 2 62.5t2 58.5q0 8 -1 38t-1 52v12q-1 23 -6.5 29t-20.5 6zM541 -510q-55 0 -91 28.5t-36 73.5q0 5 3 20t3 26q0 15 -3 47t-3 49q0 35 1 71.5l1 36.5
q0 59 -7 120q-1 12 -1 15q0 7 2 16t2 11q0 3 -0.5 3.5t-1.5 0.5t-29 -18.5t-68 -18.5q-21 0 -86 27.5t-77 38.5q-49 44 -70 107t-21 173q0 215 87.5 403.5t156.5 188.5q48 0 105 -17.5l57 -17.5q1 0 21 9.5t34 9.5q25 0 76 -28t51 -44t-15.5 -297t-15.5 -544q0 -52 5.5 -115
t5.5 -76q0 -4 -3 -24.5t-3 -36.5q0 -14 3 -34t3 -26t-1 -23t-1 -28q0 -12 2 -37t2 -39q0 -29 -13 -40t-63 -11h-12z" />
    <glyph glyph-name="r" unicode="r" horiz-adv-x="555" 
d="M106 111q0 9 -2 33t-2 38q0 129 6.5 309t6.5 232q0 12 -1 38t-1 40q0 32 7 44.5t23 12.5q94 0 125 -44q4 -7 6 -7q5 0 27.5 52t63.5 52q83 0 125 -25t42 -75q0 -4 -1 -13.5t-1 -13.5q0 -11 4.5 -34.5t4.5 -34.5q0 -19 -18 -51.5t-23 -47.5q-4 -9 -11 -25q-17 -44 -34 -44
q-18 0 -44.5 19t-37.5 42q-6 13 -13.5 46.5t-21.5 33.5q-6 0 -10 -12t-4 -31q0 -26 -7.5 -168.5t-7.5 -259.5q0 -12 1 -54.5t1 -72.5q0 -29 -4 -58.5l-4 -29.5q0 -1 1 -4q1 -9 1 -18t-14.5 -16t-34.5 -7q-42 0 -80 9t-41 18q-18 45 -27 82v45z" />
    <glyph glyph-name="s" unicode="s" horiz-adv-x="664" 
d="M328 -53q-76 0 -174.5 68t-98.5 120q0 16 9.5 33t9.5 20q0 1 -2 6t-2 9q0 10 15.5 17t41.5 7q30 0 96.5 -48t85.5 -48q14 0 31.5 16t17.5 33q0 23 -29 55.5t-110 96.5q-68 55 -103.5 124t-35.5 148q0 65 33 129t96 121q32 29 75 51.5t54 22.5q47 0 91.5 -22t107.5 -81
q22 -20 31.5 -61.5t9.5 -118.5q0 -67 -15 -102t-43 -35q-8 0 -24 3t-23 3q-5 0 -15.5 -1t-15.5 -1q-35 0 -46 32t-11 142q0 31 -4.5 44t-13.5 13q-21 0 -53.5 -47t-32.5 -94q0 -34 42 -83.5t128 -117.5q65 -51 93.5 -102t28.5 -113q0 -88 -82.5 -163.5t-162.5 -75.5z" />
    <glyph glyph-name="t" unicode="t" horiz-adv-x="555" 
d="M342 -49q-28 0 -87 19.5t-71 33.5q-10 13 -14 55t-4 197q0 21 2 90t2 117q0 10 -3 50t-3 69q0 11 3 25.5t3 17.5t-28.5 11.5t-32.5 8.5q-3 0 -9 -5t-10 -5q-20 0 -43.5 49.5t-23.5 85.5q0 11 12 24t28 13q5 0 10.5 -1t6.5 -1q7 0 21.5 3t23.5 3q37 0 45 11t8 61v51
q0 11 -1 48.5t-1 64.5q0 4 1 24t1 35q0 8 -2 16t-2 11q0 7 3 18t3 14t-2 12t-2 13q0 17 13.5 26t37.5 9q78 0 125 -26.5t47 -68.5q0 -8 -2 -29.5t-6 -48.5q-1 -7 -1.5 -17t-0.5 -31q0 -22 -0.5 -34t-1.5 -22q0 -5 -6 -17.5t-6 -21.5q0 -6 4 -17t4 -15t-1 -10t-1 -9
q0 -12 3.5 -16t12.5 -4q3 0 14.5 1t20.5 1q3 0 9 -1t10 -1t15.5 1t18.5 1q20 0 26.5 -13t6.5 -57q0 -3 -2 -15.5t-2 -23.5q0 -9 4 -21.5t4 -15.5t-10 -19t-16 -16q-2 0 -9.5 3.5t-13.5 3.5q-51 0 -77.5 -9t-26.5 -26q0 -4 4 -24.5t4 -37.5q0 -31 -4 -107.5t-4 -121.5
q0 -53 2 -122t2 -87q0 -25 -1 -59.5t-1 -42.5v-33q0 -22 -7.5 -33.5t-21.5 -11.5z" />
    <glyph glyph-name="u" unicode="u" horiz-adv-x="739" 
d="M324 -29q-50 0 -113.5 39.5t-83.5 87.5q-24 56 -34.5 114.5t-10.5 147.5q0 21 1 72.5t1 81.5q0 42 8 116q3 28 4 41q4 41 8 102q4 70 11 79q6 10 23 19.5t34 9.5q46 0 93.5 -25t47.5 -59q0 -38 -13 -199t-13 -279q0 -70 6 -119.5t12 -49.5q9 0 44.5 43.5t53.5 95.5
q12 30 21.5 130t9.5 208q0 17 -1 45.5t-1 38.5q0 34 5 73t5 43q0 12 -3 31t-3 27q0 23 10.5 32t34.5 9q51 0 105.5 -27.5t54.5 -54.5q0 -8 -3 -38.5t-3 -53.5q0 -7 1 -75.5t1 -129.5q0 -27 -1 -90.5t-1 -100.5q0 -20 1 -72t1 -83q0 -22 -2 -59.5t-2 -51.5q0 -9 2 -33.5
t2 -40.5q0 -36 -8 -56.5t-23 -20.5q-50 0 -95.5 26.5t-45.5 65.5q0 3 2 13.5t2 16.5q0 5 -3 9t-5 4q-4 0 -22 -22q-68 -81 -115 -81z" />
    <glyph glyph-name="v" unicode="v" horiz-adv-x="645" 
d="M354 -53q-20 0 -58 24q-9 6 -14 9q-8 5 -28.5 8.5t-28.5 5.5q-43 12 -71 114l-2 8q-1 2 -4 19q-32 164 -66 354q-23 131 -39 253t-16 141q0 13 8 20.5t22 7.5q76 0 120 -24.5t50 -70.5q12 -100 41 -249.5t29 -189.5q0 -9 -2 -21.5t-2 -15.5q0 -9 4 -13.5t10 -4.5
q11 0 33 115q26 135 49 235q15 63 34 159q38 185 89 185q36 0 79.5 -41t43.5 -98q0 -20 -60 -236t-106 -412q-15 -62 -30 -152q-22 -130 -85 -130z" />
    <glyph glyph-name="w" unicode="w" horiz-adv-x="948" 
d="M346 -39q-13 0 -61 11t-74 24q-13 6 -37.5 37t-26.5 41q-8 34 -21 139t-22 162q-25 161 -43 306t-18 169q0 14 12 35.5t21 21.5q2 0 5.5 -1t6.5 -1q8 0 19.5 4t13.5 4q10 0 53 -11.5t53 -18.5q18 -14 25 -84v-2q16 -204 28.5 -313t18.5 -109q16 0 36 138q16 111 30 187
q12 69 28 114.5t29 45.5q4 0 12.5 -5t14.5 -5q4 0 11 4t11 4q2 0 29.5 -11.5t36.5 -17.5q14 -9 15 -37q1 -10 1 -16q13 -154 42 -312q7 -39 7 -46v-31q0 -4 2 -6t6 -2q16 0 22.5 9.5t6.5 37.5q0 7 -1 16.5t-1 12.5q0 32 43 206q10 44 16 68q10 39 19.5 90.5t13.5 63.5l2 4
q21 52 21 71q0 3 -1 8t-1 7q0 22 9 33.5t27 11.5q49 0 101.5 -32t52.5 -66q0 -13 -53.5 -230t-95.5 -422q-7 -33 -19 -91q-42 -218 -94 -218q-7 0 -20.5 8t-24.5 8q-5 0 -11.5 -1t-9.5 -1q-42 0 -65.5 32.5t-42.5 135.5q-12 67 -26 162q-16 109 -27 109q-6 0 -10.5 -11
t-4.5 -28q0 -5 1 -11.5t1 -9.5q0 -5 -6 -32q-28 -134 -39 -280q-3 -34 -16 -56.5t-31 -22.5z" />
    <glyph glyph-name="x" unicode="x" horiz-adv-x="678" 
d="M203 444q0 21 -36 95.5t-54 132.5q-18 55 -37 105.5t-19 53.5q0 27 44 52.5t81 25.5q42 0 72 -78l12 -30q14 -31 33 -77q31 -73 41 -73q2 0 30.5 53t63.5 125q29 58 56.5 93.5t41.5 35.5q22 0 76 -43t54 -55q0 -19 -54.5 -109t-85.5 -151q-11 -22 -30 -59
q-48 -94 -48 -111v-4q0 -2 4.5 -7t4.5 -7q0 -19 52 -114q42 -76 68 -128q26 -48 42 -93t16 -57q0 -17 -13.5 -30t-31.5 -13q-3 0 -13 3.5t-16 3.5t-16 -5.5t-15 -5.5q-32 0 -65.5 30t-71.5 95q-13 22 -31 55q-28 50 -39 50q-4 0 -35 -65q-17 -36 -28 -58q-41 -82 -72 -160
q0 -9 -2.5 -13.5t-7.5 -4.5q-4 0 -12 1t-12 1t-9 -1t-6 -1q-36 0 -69 46t-33 91q0 17 26 78q18 43 29 71q30 77 72.5 160.5t42.5 95.5z" />
    <glyph glyph-name="y" unicode="y" horiz-adv-x="678" 
d="M184 -346q0 60 29 166.5t35 146.5q8 49 15 64q1 3 1 4q0 12 -23 23.5t-32 19.5q-18 14 -35.5 58t-34.5 114q-14 61 -30 154.5t-29 199.5q-10 69 -15.5 142.5t-5.5 107.5q0 12 7 23.5t16 11.5q15 0 38 -6t30 -6q46 0 70.5 -26.5t29.5 -82.5q2 -23 20.5 -114t18.5 -138v-22
q0 -49 15.5 -123t21.5 -74t10 7.5t4 21.5v18q0 22 37 182t55 291q14 91 27 125.5t33 34.5q4 0 45.5 -15t78.5 -32q25 -12 35 -23t11 -26q0 -13 -18.5 -100t-45.5 -193q-46 -180 -82.5 -344.5t-44.5 -223.5q-13 -75 -44 -206.5t-40 -173.5q-7 -35 -15 -84q-14 -82 -40 -82
q-36 0 -97 37t-61 77q0 18 5 40t5 26z" />
    <glyph glyph-name="z" unicode="z" horiz-adv-x="664" 
d="M33 135q0 47 60 123q40 50 61 84q74 120 159.5 231.5t85.5 116.5q0 3 -7.5 7.5t-16.5 4.5q-17 0 -47 -4t-43 -4q-6 0 -18.5 1t-18.5 1q-43 0 -63.5 -19.5t-28.5 -19.5q-21 0 -40.5 44t-19.5 77v19q0 6 -1 22.5t-1 26.5q0 15 16.5 23t49.5 8h28q12 0 126 12t204 12
q39 0 85 -63.5t46 -83.5q0 -11 -67.5 -120t-155.5 -226q-26 -35 -67 -90q-78 -104 -78 -111t13.5 -10.5t37.5 -3.5q8 0 18 1l10 1q21 0 48 -3.5t34 -3.5h21q7 0 38.5 -14.5t35.5 -22.5q3 -4 4.5 -21t3.5 -26t12 -25.5t10 -25.5v-14q0 -32 -6.5 -38.5t-36.5 -6.5q-9 0 -27 1
t-26 1q-7 0 -37.5 -3t-54.5 -3q-17 0 -49.5 5t-48.5 5q-9 0 -25 -1t-23 -1q-14 0 -41 4t-40 4q-6 0 -18 -6t-19 -6q-19 0 -50.5 59.5t-31.5 81.5z" />
    <glyph glyph-name="braceleft" unicode="{" 
d="M874 1477v-179q-8 0 -24 1t-23 1q-109 0 -147.5 -41.5t-38.5 -173.5v-241q0 -155 -44 -220.5t-159 -93.5q114 -27 158.5 -92.5t44.5 -220.5v-240q0 -132 39.5 -174.5t148.5 -42.5q7 0 22 1t23 1v-176h-63q-102 0 -165.5 12t-106.5 37q-57 34 -80 96t-23 203v248
q0 144 -52.5 203t-178.5 59q-7 0 -21.5 -1t-21.5 -1v179q7 0 21.5 -1.5t21.5 -1.5q126 0 178.5 59t52.5 202v247q0 145 23 206.5t80 94.5q44 27 109 38.5t181 11.5h45z" />
    <glyph glyph-name="bar" unicode="|" 
d="M424 1565h178v-2048h-178v2048z" />
    <glyph glyph-name="braceright" unicode="}" 
d="M152 1477h45q115 0 179.5 -11.5t108.5 -38.5q57 -33 80 -95t23 -206v-247q0 -144 52 -202.5t179 -58.5q6 0 21 1.5t22 1.5v-179q-7 0 -21.5 1t-21.5 1q-126 0 -178.5 -59t-52.5 -203v-248q0 -143 -23 -204t-80 -95q-43 -26 -108 -37.5t-180 -11.5h-45v176q8 0 23 -1
t22 -1q109 0 147.5 42t38.5 175v240q0 153 45 219t160 94q-115 28 -160 93.5t-45 220.5v241q0 132 -38 173.5t-146 41.5q-7 0 -23 -1t-24 -1v179z" />
    <glyph glyph-name="asciitilde" unicode="~" horiz-adv-x="1706" 
d="M1530 784v-184q-103 -71 -197.5 -106t-183.5 -35q-44 0 -92.5 8.5t-98.5 26.5q-25 8 -76 26q-212 74 -319 74q-82 0 -174 -38t-211 -122v187q106 72 202 107.5t185 35.5q62 0 125.5 -12t168.5 -48q13 -4 42 -15q164 -58 250 -58q85 0 177 37t202 116z" />
    <glyph glyph-name="Euro" horiz-adv-x="891" 
d="M825 1020q0 -110 -24 -143t-92 -33q-47 0 -78.5 33t-44.5 98q-13 56 -27.5 77t-46.5 21q-13 0 -30 -28t-31 -74q-13 -37 -34 -174q-5 -30 -7 -45h73q28 0 66.5 1t46.5 1q5 0 15.5 -1t17.5 -1q7 -1 11.5 -7t4.5 -16q0 -31 -11.5 -51.5t-27.5 -20.5q-27 0 -76.5 -1
t-70.5 -1h-62q-2 -17 -4 -38.5t-4 -57.5l168 2h29q5 0 10.5 -7.5t5.5 -16.5q-1 -5 -5 -15t-5 -16q-6 -25 -14.5 -33t-30.5 -8h-23q-78 -2 -137 -2l-2 -31q0 -175 29 -243t88 -68q38 0 68 37t38 102q6 44 17 64t43 49q20 18 31 23t24 5q36 0 65 -32t29 -84q0 -136 -87 -235
t-226 -99q-86 0 -147.5 24.5t-110.5 81.5q-49 56 -76 162t-27 244h-43q-23 0 -36 5.5t-13 16.5q0 6 6 23t6 31q1 10 4.5 14t14.5 4h3q18 2 38 2h22q1 15 4.5 47t3.5 47h-26q-47 0 -60.5 5.5t-15.5 19.5v2q0 5 6 17.5t6 23.5q0 14 7 21.5t20 7.5q4 0 19 1t28 1h33
q17 100 45 191.5t61 156.5q45 87 102 132.5t122 45.5q39 0 109 -31t134 -80q37 -27 59.5 -67.5t22.5 -79.5z" />
    <glyph glyph-name="Euro" unicode="&#x20ac;" horiz-adv-x="891" 
d="M825 1020q0 -110 -24 -143t-92 -33q-47 0 -78.5 33t-44.5 98q-13 56 -27.5 77t-46.5 21q-13 0 -30 -28t-31 -74q-13 -37 -34 -174q-5 -30 -7 -45h73q28 0 66.5 1t46.5 1q5 0 15.5 -1t17.5 -1q7 -1 11.5 -7t4.5 -16q0 -31 -11.5 -51.5t-27.5 -20.5q-27 0 -76.5 -1
t-70.5 -1h-62q-2 -17 -4 -38.5t-4 -57.5l168 2h29q5 0 10.5 -7.5t5.5 -16.5q-1 -5 -5 -15t-5 -16q-6 -25 -14.5 -33t-30.5 -8h-23q-78 -2 -137 -2l-2 -31q0 -175 29 -243t88 -68q38 0 68 37t38 102q6 44 17 64t43 49q20 18 31 23t24 5q36 0 65 -32t29 -84q0 -136 -87 -235
t-226 -99q-86 0 -147.5 24.5t-110.5 81.5q-49 56 -76 162t-27 244h-43q-23 0 -36 5.5t-13 16.5q0 6 6 23t6 31q1 10 4.5 14t14.5 4h3q18 2 38 2h22q1 15 4.5 47t3.5 47h-26q-47 0 -60.5 5.5t-15.5 19.5v2q0 5 6 17.5t6 23.5q0 14 7 21.5t20 7.5q4 0 19 1t28 1h33
q17 100 45 191.5t61 156.5q45 87 102 132.5t122 45.5q39 0 109 -31t134 -80q37 -27 59.5 -67.5t22.5 -79.5z" />
    <glyph glyph-name="nonbreakingspace" unicode="&#xa0;" horiz-adv-x="977" 
 />
    <glyph glyph-name="exclamdown" unicode="&#xa1;" horiz-adv-x="612" 
d="M311 1065q2 0 38.5 -11.5t37.5 -13.5q20 -14 30.5 -84.5t10.5 -193.5q0 -2 -1 -105.5t-1 -203.5q0 -202 -16 -377q-2 -23 -2 -27q0 -8 1 -23.5t1 -23.5t-11 -23.5t-14 -15.5q-9 0 -15.5 -5t-11.5 -5q-1 0 -5 4t-7 4q-1 0 -6 -4t-10 -4q-14 0 -77 15t-83 28
q-15 9 -24 21.5t-9 25.5q0 1 5 16q31 97 42 197q6 52 15.5 200t19.5 244q11 97 17 181.5t6 126.5v16q0 23 15.5 32t53.5 9zM477 1296q0 -54 -23 -81q-9 -11 -13 -16q-9 -12 -22 -32q-34 -55 -75 -55q-51 0 -108.5 51.5t-57.5 128.5q0 45 40 97.5t75 52.5q3 0 13.5 -2
t17.5 -2h18q39 0 87 -48t48 -94z" />
    <glyph glyph-name="cent" unicode="&#xa2;" horiz-adv-x="758" 
d="M459 -119q-8 0 -49 14t-64 27q-17 10 -27 29t-10 43q0 6 2 19.5t2 19.5q0 13 -3 33.5t-3 27.5q0 3 3 9t3 10q0 10 -46 39q-42 25 -70 45q-76 51 -99.5 109.5t-23.5 158.5q0 92 24 207t66 217q31 76 72.5 144t56.5 77q19 12 49 14q27 1 27 37v29q0 89 24.5 114t85.5 25
q24 0 35.5 -12.5t11.5 -36.5q0 -6 -2 -38.5t-2 -59.5q0 -26 -1 -54t-1 -30q0 -26 34.5 -36t53.5 -26q18 -14 29.5 -54t11.5 -87q0 -1 -3 -17t-3 -30q0 -12 2 -38.5t2 -41.5q0 -48 -24.5 -79.5t-55.5 -31.5q-8 0 -24.5 9.5t-26.5 9.5h-12q-36 0 -53 55t-17 170v10q0 6 -1 7.5
t-5 1.5q-30 0 -82.5 -173.5t-52.5 -357.5q0 -57 10.5 -90t28.5 -33q34 0 71 47t48 56q19 16 53 100t57 84q38 0 85.5 -45.5t47.5 -75.5q0 -12 -12.5 -43.5t-44.5 -99.5q-41 -88 -103 -137q-9 -8 -11 -10q-7 -6 -16 -13q-30 -23 -30 -147q0 -21 2 -44t2 -26q0 -14 -6 -22.5
t-16 -8.5z" />
    <glyph glyph-name="sterling" unicode="&#xa3;" horiz-adv-x="977" 
d="M80 139q0 67 95 91q20 5 29 7q66 20 96 61.5t30 113.5q0 10 -1 35t-1 40q0 1 1 5.5t1 9.5q0 2 -3 3t-14 1t-45 -2t-57 -2q-10 0 -24.5 3t-18.5 3h-27q-4 0 -21.5 10.5t-17.5 18.5q0 10 -19.5 32t-19.5 45q0 18 21.5 33t32.5 15q19 0 61.5 8t67.5 8h16q22 0 32.5 5
t10.5 15q0 4 -5 32.5t-5 53.5q0 101 18.5 165.5t65.5 137.5q46 72 124.5 128.5t119.5 56.5q18 0 50.5 -16t41.5 -19q12 -5 46.5 -15t47.5 -20q33 -24 56.5 -92.5t23.5 -136.5q0 -75 -20.5 -104t-73.5 -29q-59 0 -99.5 55t-40.5 119v16q0 19 -3 28t-9 9q-36 0 -83.5 -108
t-47.5 -238q0 -12 3 -19.5t7 -7.5t14 2t17 2q87 0 164 -8t92 -16q18 -9 38.5 -57t20.5 -68q0 -32 -52 -43.5t-226 -11.5h-25q-26 -1 -35.5 -3.5t-9.5 -7.5q0 -1 1 -6q1 -22 1 -43v-31v-22q0 -111 -76 -156q-14 -8 -14 -12q0 -3 2 -5.5t4 -2.5q3 0 11 1q74 11 159 11
q43 0 105.5 -5t81.5 -5q21 0 49.5 2t38.5 2q28 0 48 -10t27 -29q13 -31 23 -69t10 -46q0 -42 -105 -49q-15 -1 -24 -2q-142 -11 -285 -16.5t-278 -5.5q-142 0 -180.5 32.5t-38.5 122.5z" />
    <glyph glyph-name="currency" unicode="&#xa4;" horiz-adv-x="891" 
d="M825 1020q0 -110 -24 -143t-92 -33q-47 0 -78.5 33t-44.5 98q-13 56 -27.5 77t-46.5 21q-13 0 -30 -28t-31 -74q-13 -37 -34 -174q-5 -30 -7 -45h73q28 0 66.5 1t46.5 1q5 0 15.5 -1t17.5 -1q7 -1 11.5 -7t4.5 -16q0 -31 -11.5 -51.5t-27.5 -20.5q-27 0 -76.5 -1
t-70.5 -1h-62q-2 -17 -4 -38.5t-4 -57.5l168 2h29q5 0 10.5 -7.5t5.5 -16.5q-1 -5 -5 -15t-5 -16q-6 -25 -14.5 -33t-30.5 -8h-23q-78 -2 -137 -2l-2 -31q0 -175 29 -243t88 -68q38 0 68 37t38 102q6 44 17 64t43 49q20 18 31 23t24 5q36 0 65 -32t29 -84q0 -136 -87 -235
t-226 -99q-86 0 -147.5 24.5t-110.5 81.5q-49 56 -76 162t-27 244h-43q-23 0 -36 5.5t-13 16.5q0 6 6 23t6 31q1 10 4.5 14t14.5 4h3q18 2 38 2h22q1 15 4.5 47t3.5 47h-26q-47 0 -60.5 5.5t-15.5 19.5v2q0 5 6 17.5t6 23.5q0 14 7 21.5t20 7.5q4 0 19 1t28 1h33
q17 100 45 191.5t61 156.5q45 87 102 132.5t122 45.5q39 0 109 -31t134 -80q37 -27 59.5 -67.5t22.5 -79.5z" />
    <glyph glyph-name="yen" unicode="&#xa5;" horiz-adv-x="977" 
d="M78 465q-33 0 -41 8.5t-8 54.5q0 12 4 17.5t14 5.5h3q18 -2 38 -2h193q-11 33 -24 84q-19 74 -42 74q-1 0 -15.5 -1t-29.5 -1h-66q-54 0 -65.5 9t-11.5 50q0 14 6.5 21.5t19.5 7.5q4 0 20.5 -1t28.5 -1l97 2q-56 137 -93.5 260.5t-37.5 148.5q0 8 10.5 37t17.5 29
q2 0 5 -1t5 -1q4 0 10 2t9 2q5 0 17.5 -9.5t25.5 -9.5q3 0 7.5 1t6.5 1q47 0 104.5 -111.5t168.5 -428.5h34q94 299 185 499.5t127 200.5q35 0 91 -39t56 -76q0 -12 -73.5 -178.5t-135.5 -328.5h41q28 0 64.5 -1.5t44.5 -1.5q5 0 15.5 1.5t17.5 1.5q7 -1 11.5 -7.5
t4.5 -15.5q0 -31 -7.5 -44t-27.5 -13q-27 0 -76.5 -2t-70.5 -2h-15q-20 0 -31.5 -6.5t-17.5 -20.5q-30 -72 -51 -125q0 -3 4.5 -4.5t24.5 -1.5l204 -2q7 0 22 2t24 2q6 0 10 -10.5t4 -32.5q0 -27 -7 -36t-32 -9h-23l-210 2q-66 0 -74 -65v-3q-14 -114 -21.5 -202t-7.5 -136
v-49q0 -38 -10.5 -52.5t-36.5 -14.5q-6 0 -44.5 9.5t-80.5 22.5q-40 13 -54 30t-14 65q0 7 9.5 115.5t9.5 207.5q0 34 -16 54t-41 20z" />
    <glyph glyph-name="brokenbar" unicode="&#xa6;" 
d="M424 408h178v-758h-178v758zM424 1432h178v-758h-178v758z" />
    <glyph glyph-name="section" unicode="&#xa7;" 
d="M418 803q-27 0 -68 -47.5t-41 -104.5q0 -27 25.5 -54t73.5 -50q110 -53 192 -84q30 0 80.5 48.5t50.5 111.5q0 38 -32 71t-93 56q-46 17 -114 35t-74 18zM74 16q0 35 52 67t89 32q26 0 53 -40q17 -25 31 -40q47 -53 97 -80t102 -27q85 0 142.5 42t57.5 106
q0 104 -262 220q-40 18 -62 28q-160 73 -221 144.5t-61 176.5q0 149 141 263q13 10 13 12q0 1 -10 16q-76 112 -76 205q0 132 104 216.5t275 84.5q105 0 207 -44t102 -81q0 -44 -29 -86.5t-69 -42.5q-4 0 -82.5 26.5t-143.5 26.5q-66 0 -102.5 -27.5t-36.5 -76.5
q0 -94 246 -181q75 -27 117 -43q89 -34 145.5 -109t56.5 -161q0 -70 -27 -134.5t-72 -101.5q-13 -11 -41 -22t-28 -20q0 -7 24 -32q105 -110 105 -235q0 -168 -116.5 -277.5t-296.5 -109.5q-83 0 -155 28.5t-138 86.5q-54 47 -92.5 106.5t-38.5 83.5z" />
    <glyph glyph-name="dieresis" unicode="&#xa8;" 
d="M698 1028q-53 0 -98 29t-45 63q0 60 36 107t95 47q38 0 80.5 -53.5t42.5 -79.5q0 -32 -37.5 -72.5t-73.5 -40.5zM360 1028q-53 0 -99 29t-46 63q0 60 36 107t95 47q38 0 80.5 -53.5t42.5 -79.5q0 -33 -36.5 -73t-72.5 -40z" />
    <glyph glyph-name="copyright" unicode="&#xa9;" horiz-adv-x="1706" 
d="M1206 903h-166q-10 74 -60 114t-130 40q-99 0 -155 -86.5t-56 -239.5q0 -152 57.5 -234.5t163.5 -82.5q80 0 129 43.5t60 124.5h165q-7 -135 -106.5 -217t-253.5 -82q-183 0 -290 119t-107 323q0 208 109.5 331.5t291.5 123.5q147 0 243 -77t105 -200zM854 1362
q-130 0 -243 -46.5t-201 -135.5q-90 -92 -138.5 -208t-48.5 -241q0 -126 48 -240t139 -204q90 -91 204.5 -139t239.5 -48t240 48.5t209 140.5q89 88 135.5 200.5t46.5 241.5t-47 243.5t-135 203.5q-91 90 -205 137t-244 47zM852 1470q152 0 286 -55t240 -162
q105 -105 160 -238.5t55 -283.5q0 -153 -54.5 -286t-158.5 -234q-108 -107 -244.5 -164t-283.5 -57q-146 0 -280 56.5t-240 162.5q-107 106 -163 240.5t-56 281.5q0 145 57 280.5t164 243.5q105 107 235.5 161t282.5 54z" />
    <glyph glyph-name="ordfeminine" unicode="&#xaa;" horiz-adv-x="498" 
d="M274 1055q-34 0 -78 -27.5t-44 -44.5q0 -14 8 -20.5t28 -6.5q58 0 82.5 9t24.5 36l-1 4t-1 9q0 1 1 4.5t1 5.5q0 17 -4.5 24t-16.5 7zM305 860q-39 -14 -67 -20t-48 -6q-55 0 -102 51.5t-47 93.5q0 40 11.5 68t37.5 51q35 30 85 53t73 23q8 0 19 -1.5t12 -1.5q10 0 14 6
t4 21q0 13 -2 36t-2 34q0 8 2 24.5t2 24.5q0 14 -4.5 23t-11.5 10q-12 0 -44 -45q-24 -35 -40 -55q-12 -15 -25 -36q-17 -28 -33 -28q-20 0 -54 16t-34 35q0 14 29 74t53 90l6 7q65 81 99 81q9 0 44 -19t72 -32q48 -18 67 -57.5t19 -141.5q0 -29 -2 -85t-2 -85q0 -12 1 -38
t1 -40q0 -13 -1 -46t-1 -54q0 -19 2 -40v-5q0 -16 -12 -24.5t-33 -8.5q-32 0 -51.5 10.5t-36.5 36.5z" />
    <glyph glyph-name="guillemotleft" unicode="&#xab;" horiz-adv-x="829" 
d="M631 856q65 0 110 -18t45 -43q0 -1 -35 -59t-73 -136q-22 -44 -52 -99t-30 -63q0 -4 22 -47.5t56 -103.5q18 -33 48 -86q66 -117 66 -123q0 -8 -40.5 -34t-65.5 -26q-66 0 -158 177l-10 18q-14 28 -39 76q-69 132 -69 151q0 31 57 129q33 56 51 90q22 40 54 102
q49 95 63 95zM299 856q66 0 111 -18t45 -43q0 -1 -35.5 -59t-73.5 -136q-21 -44 -51.5 -99t-30.5 -63q0 -4 22 -47.5t56 -103.5q18 -33 49 -86q66 -117 66 -123q0 -8 -41 -34t-66 -26q-66 0 -158 177l-10 18q-14 28 -39 76q-69 132 -69 151q0 31 57 129q33 56 51 90
q22 40 54 102q49 95 63 95z" />
    <glyph glyph-name="logicalnot" unicode="&#xac;" horiz-adv-x="1706" 
d="M254 862h1198v-502h-166v336h-1032v166z" />
    <glyph glyph-name="sfthyphen" unicode="&#xad;" horiz-adv-x="688" 
d="M160 373q-20 0 -47 48.5t-27 96.5q0 14 3 21.5t9 7.5q3 0 6.5 -2t6.5 -2t7 2t5 2q4 0 13 -1t14 -1q4 0 16.5 3t21.5 3q26 0 57 -2h9q10 0 43 1t55 1q124 0 162.5 -7.5t38.5 -27.5q0 -17 11 -43t11 -55q0 -23 -4.5 -31t-15.5 -8q-4 0 -11.5 2t-13.5 2q-4 0 -42 -6t-70 -6
q-18 0 -51 4t-50 4q-11 0 -39 -3t-45 -3h-36h-37z" />
    <glyph glyph-name="registered" unicode="&#xae;" horiz-adv-x="1706" 
d="M729 1047v-261h117q100 0 146 30.5t46 96.5q0 69 -48 101.5t-152 32.5h-109zM551 1159h319q173 0 262 -57t89 -168q0 -91 -48 -150.5t-137 -78.5l185 -375h-199l-164 346h-129v-346h-178v829zM854 1362q-129 0 -240 -45.5t-200 -134.5q-92 -94 -141.5 -210t-49.5 -241
t47 -238.5t136 -203.5q90 -91 204 -140t234 -49q130 0 246.5 47t209.5 138q89 86 137 198.5t48 237.5q0 133 -45.5 247.5t-134.5 205.5q-93 92 -207.5 140t-243.5 48zM852 1470q153 0 288.5 -56t241.5 -165q103 -104 157 -236.5t54 -281.5q0 -153 -55.5 -287t-161.5 -237
q-108 -105 -243 -161t-281 -56q-147 0 -282.5 57.5t-241.5 165.5q-105 106 -160 239t-55 279q0 147 57.5 284t165.5 245q104 104 234.5 157t281.5 53z" />
    <glyph glyph-name="macron" unicode="&#xaf;" 
d="M301 1071q-27 0 -59.5 49.5t-32.5 104.5q0 8 4 14t10 6h33q7 0 17 -1t14 -1q5 0 21.5 3t27.5 3q35 0 71 -1q10 -1 13 -1q28 0 66.5 1t50.5 1q148 0 199.5 -8t51.5 -29q0 -4 -2 -8t-2 -6q1 -2 5 -6q26 -29 26 -78q0 -22 -5 -29.5t-19 -7.5q-6 0 -16 2t-15 2q-6 0 -52.5 -6
t-86.5 -6q-24 0 -66.5 4t-60.5 4q-15 0 -48.5 -3t-54.5 -3h-47h-43z" />
    <glyph glyph-name="degree" unicode="&#xb0;" horiz-adv-x="674" 
d="M338 1350q-77 0 -131.5 -54t-54.5 -131q0 -76 54.5 -131t131.5 -55t130.5 54.5t53.5 131.5t-53.5 131t-130.5 54zM338 1460q121 0 208 -87t87 -210q0 -121 -87 -208t-210 -87t-208 85.5t-85 209.5q0 125 86 211t209 86z" />
    <glyph glyph-name="plusminus" unicode="&#xb1;" horiz-adv-x="1706" 
d="M254 182h1198v-168h-1198v168zM768 1206h170v-334h514v-165h-514v-334h-170v334h-514v165h514v334z" />
    <glyph glyph-name="twosuperior" unicode="&#xb2;" horiz-adv-x="582" 
d="M104 547q0 10 -9 28t-9 31q0 19 67 93t119 153q64 97 100 166t36 96q0 4 -4.5 6t-10.5 2q-24 0 -74.5 -28t-106.5 -75q-18 -16 -50.5 -57.5t-48.5 -41.5q-10 0 -41 46t-31 58q0 20 14 24q2 0 3 1q6 3 15 17q3 5 5 7q12 18 57 53q20 16 31 25q62 56 112 80t101 24
q34 0 77 -45q10 -11 15 -16q42 -39 55 -66t13 -61q0 -42 -25 -97t-104 -179q-37 -57 -79 -110.5t-42 -55.5t6.5 -4t13.5 -3q8 0 34 2.5t44 2.5q105 0 149 -24t44 -79q0 -15 -40.5 -25t-101.5 -10q-8 0 -29.5 1t-33.5 1h-43q-13 0 -35 1t-31 1q-7 0 -45 -4t-67 -4
q-12 0 -31 20.5t-19 35.5v10z" />
    <glyph glyph-name="threesuperior" unicode="&#xb3;" horiz-adv-x="563" 
d="M158 451q-24 0 -47.5 10t-28.5 22q-2 4 -3 13.5t-5 13.5q-5 6 -18 17t-13 18q0 12 5.5 19.5t14.5 8.5q25 6 32 12l1 1q4 0 14.5 -3t18.5 -3q27 0 73 17.5t87 45.5q28 22 50.5 50t22.5 36q0 19 -34 35t-80 16q-86 0 -115 -24q-3 -2 -4 -2q-8 0 -31.5 16.5t-23.5 26.5
q0 4 5 11.5t5 10.5l-1 2q-9 13 -9 37q0 21 2 27.5t6 9.5l31 9.5t61 27.5q82 54 138.5 107t56.5 69q-1 5 -15.5 7.5t-42.5 2.5q-90 0 -173 -41q-12 -6 -13 -6q-6 0 -15 12t-12 28q-2 8 -15 28.5t-13 42.5q0 11 5 16.5t19 9.5q16 5 45 14q107 33 150 33q41 0 73 -11.5
t56 -35.5q9 -10 25 -26q51 -52 51 -92q0 -29 -15 -59t-51 -73q-21 -25 -49.5 -46t-28.5 -25q0 -6 34 -22t52 -31q29 -26 50.5 -60t21.5 -59q0 -65 -37 -115.5t-111 -89.5q-46 -25 -107.5 -42t-94.5 -17z" />
    <glyph glyph-name="acute" unicode="&#xb4;" 
d="M838 1163q0 -36 -82 -59q-40 -10 -62 -19q-53 -20 -122 -50.5t-78 -30.5q-18 0 -55.5 36t-37.5 54q0 32 70 57q25 9 34 14q52 28 121.5 73.5t84.5 45.5q28 0 77.5 -46t49.5 -75z" />
    <glyph glyph-name="mu" unicode="&#xb5;" horiz-adv-x="1208" 
d="M205 1081h229l-125 -635q-6 -29 -9 -55t-3 -49q0 -96 46.5 -146.5t135.5 -50.5q122 0 193.5 88.5t111.5 292.5l109 555h225l-145 -739q-10 -49 -14.5 -81.5t-4.5 -51.5q0 -36 15.5 -51t52.5 -15q13 0 20.5 0.5t13.5 1.5l-32 -159q-32 -9 -68.5 -13t-81.5 -4
q-74 0 -111.5 31.5t-37.5 93.5v15q-41 -67 -108 -104.5t-146 -37.5q-81 0 -137.5 26t-97.5 83l-99 -506h-229z" />
    <glyph glyph-name="paragraph" unicode="&#xb6;" 
d="M969 1479v-99h-117v-1380h-129v1380h-168v-1380h-131v784q-168 6 -268.5 101t-100.5 245q0 158 107 253.5t284 95.5h523z" />
    <glyph glyph-name="glyph122" unicode="&#xb7;" horiz-adv-x="487" 
d="M100 633q0 65 31 102q17 21 25 40q10 25 34.5 44t34.5 19q6 0 30 -9.5t26 -9.5h18q15 0 59.5 -57t44.5 -86q0 -31 -13.5 -66t-27.5 -35q-2 0 -5 1.5t-5 1.5q-1 -1 -1 -2q-8 -25 -73 -44q-17 -5 -35 -13.5t-24 -8.5q-24 0 -71.5 38.5t-47.5 84.5z" />
    <glyph glyph-name="cedilla" unicode="&#xb8;" 
d="M461 0h73q-1 -14 -5 -40q-7 -52 -7 -69q0 -11 8 -19.5t19 -8.5q4 0 16.5 1t20.5 1q80 0 130 -45.5t50 -118.5q0 -78 -59.5 -121t-167.5 -43q-97 0 -191 30t-94 56q0 28 15 49t32 21q5 0 27 -12q97 -56 194 -56q46 0 69 20t23 60q0 32 -22 50t-64 18q-10 0 -29 -1t-28 -1
q-21 0 -32 12.5t-11 36.5t8.5 72.5t24.5 107.5z" />
    <glyph glyph-name="onesuperior" unicode="&#xb9;" horiz-adv-x="379" 
d="M125 557q0 107 7 191q1 10 1 12q0 6 -3 17t-3 18v2q4 34 4 88q0 1 1 27t1 51v55q0 4 1 12t1 10q0 4 -2 7.5t-4 3.5q-4 0 -24 -13.5t-35 -13.5q-6 0 -19.5 12.5t-13.5 16.5q0 3 16 18.5t25 32.5q1 2 4 9q11 26 27 42q14 14 30.5 42t26.5 36q14 12 33 24l18 -7t37 -13
q5 -1 16 -2q27 0 27 -41q0 -15 -4 -84t-4 -121v-94q0 -34 -2 -145.5t-2 -188.5q0 -32 6 -62q2 -8 2 -10q0 -12 -11.5 -21t-29.5 -9q-21 0 -53.5 19t-45.5 22v0q-28 6 -28 57z" />
    <glyph glyph-name="ordmasculine" unicode="&#xba;" horiz-adv-x="539" 
d="M201 1077q0 -58 12 -100.5t27 -42.5q29 0 59.5 79.5t30.5 170.5q0 70 -13.5 122t-29.5 52q-23 0 -54.5 -95t-31.5 -186zM45 1100q0 77 21.5 168.5t54.5 154.5q15 34 35.5 51t46.5 17q11 0 69.5 -13.5t87.5 -25.5q63 -27 96 -104.5t33 -196.5q0 -136 -61.5 -237
t-128.5 -101q-14 0 -29.5 4t-36.5 12q-75 33 -112 54q-40 26 -58 77.5t-18 139.5z" />
    <glyph glyph-name="guillemotright" unicode="&#xbb;" horiz-adv-x="829" 
d="M373 795q0 25 45.5 43t109.5 18q15 0 60 -87q33 -67 57 -110q17 -29 46 -79q63 -107 63 -140q0 -13 -18.5 -53t-90.5 -174l-9 -18q-93 -177 -159 -177q-25 0 -65.5 26t-40.5 34q0 7 58 110q35 60 56 99q32 56 55 102t23 49q0 8 -30 63t-52 99q-38 78 -73 136t-35 59z
M41 795q0 25 45.5 43t110.5 18q14 0 59 -87q33 -67 57 -110q17 -29 46 -79q63 -107 63 -140q0 -13 -18.5 -53t-90.5 -174l-4 -9q-98 -186 -166 -186q-24 0 -64 26t-40 34q0 7 58 110q35 60 57 99q31 56 54 102t23 49q0 8 -30 63t-51 99q-39 78 -74 136t-35 59z" />
    <glyph glyph-name="onequarter" unicode="&#xbc;" horiz-adv-x="1319" 
d="M897 317q0 -2 3.5 -4t10.5 -2q8 0 22 1t21 1t25 -1t29 -1q12 0 18 4t6 13v2q0 7 4 37t4 53q0 1 -1 10.5t-1 15.5q0 26 8.5 63.5t8.5 47.5q0 6 -5 10t-12 4q-4 0 -14 -15.5t-31 -55.5q-50 -91 -73 -134.5t-23 -48.5zM1008 715q57 0 122.5 -20.5t65.5 -30.5
q0 -5 -4.5 -13.5t-5.5 -11.5l-1 -3q-9 -74 -9 -171q0 -32 -2.5 -67t-2.5 -40t1.5 -14.5t1.5 -13.5v-4q0 -8 31 -9.5t43 -7.5q11 -5 22.5 -36.5t11.5 -45.5q0 -9 -8 -13.5t-25 -4.5h-14q-21 0 -39 -2.5t-20 -5.5q-4 -4 -5.5 -18.5t-1.5 -66.5q-1 -47 -7 -92q-1 -9 -1 -10
q0 -3 3 -15t3 -19q0 -19 -4.5 -29t-13.5 -10q-4 0 -26 4.5t-37 9.5q-29 8 -40.5 17t-11.5 22q0 3 1 8.5t1 7.5t-1 5q-9 32 -9 71t-2 77v9q0 3 1 10t1 8q0 5 -5.5 7t-19.5 2q-7 0 -38 -2t-54 -2q-21 0 -44.5 -1t-24.5 -1q-44 0 -56 14q-5 5 -10 8q-23 14 -37 28t-14 23
q0 7 50 91t120 190q44 68 87 127q6 8 7 10t3 9q5 22 18 22zM180 -57q-54 0 -83 28.5t-29 77.5q0 20 172.5 283.5t435.5 642.5q21 30 56 82q157 227 231 227q49 0 79.5 -23t30.5 -49q0 -2 -25 -29q-207 -229 -464 -601q-139 -202 -267 -420.5t-137 -218.5zM121 602
q0 98 5 178q1 11 1 13q0 5 -3 15t-3 15v3q4 34 4 81q0 2 1 26t1 46v53q0 5 1 11.5t1 9.5q0 4 -2 7t-4 3q-4 0 -23 -12.5t-34 -12.5q-5 0 -18 11.5t-13 13.5q0 3 15 18.5t24 30.5q1 2 4 9q11 24 26 38q14 13 29 39.5t25 34.5q14 10 32 22q1 0 18 -6l34 -12q6 -2 16 -2
q25 1 25 -39q0 -15 -3.5 -78.5t-3.5 -111.5v-88q0 -33 -2 -137.5t-2 -176.5q0 -27 5 -56q1 -7 2 -9q0 -12 -11 -20.5t-26 -8.5q-21 0 -52.5 18t-44.5 21q-16 4 -20 15t-4 38z" />
    <glyph glyph-name="onehalf" unicode="&#xbd;" horiz-adv-x="1260" 
d="M803 51q0 9 -9.5 26.5t-9.5 28.5q0 19 64.5 88t114.5 142q61 90 95 154.5t34 91.5q0 3 -5 5.5t-10 2.5q-22 0 -70 -26.5t-100 -69.5q-20 -18 -50.5 -56.5t-45.5 -38.5q-11 0 -40.5 43t-29.5 56q0 18 14 21l2 1q6 3 15 15q4 5 6 8q8 16 47 45q23 18 35 28
q61 52 109.5 74.5t95.5 22.5q30 0 72 -42l16 -16h1q63 -59 63 -118q0 -39 -25 -92.5t-98 -163.5q-37 -55 -76 -105t-39 -51q0 -2 5.5 -4t12.5 -2q8 0 32.5 2t41.5 2q99 0 141.5 -22.5t42.5 -73.5q0 -15 -37 -24t-98 -9q-9 0 -29 1t-30 1h-43q-12 0 -32.5 1t-29.5 1
q-8 0 -43.5 -3t-62.5 -3q-12 0 -29.5 18.5t-17.5 32.5v8zM180 -57q-54 0 -83 28.5t-29 77.5q0 20 172.5 283.5t435.5 642.5q21 30 56 82q157 227 231 227q49 0 79.5 -23t30.5 -49q0 -2 -25 -29q-207 -229 -464 -601q-139 -202 -267 -420.5t-137 -218.5zM121 602q0 98 5 178
q1 11 1 13q0 5 -3 15t-3 15v3q4 34 4 81q0 2 1 26t1 46v53q0 5 1 11.5t1 9.5q0 4 -2 7t-4 3q-4 0 -23 -12.5t-34 -12.5q-5 0 -18 11.5t-13 13.5q0 3 15 18.5t24 30.5q1 2 4 9q11 24 26 38q14 13 29 39.5t25 34.5q14 10 32 22q1 0 18 -6l34 -12q6 -2 16 -2q25 1 25 -39
q0 -15 -3.5 -78.5t-3.5 -111.5v-88q0 -33 -2 -137.5t-2 -176.5q0 -27 5 -56q1 -7 2 -9q0 -12 -11 -20.5t-26 -8.5q-21 0 -52.5 18t-44.5 21q-16 4 -20 15t-4 38z" />
    <glyph glyph-name="threequarters" unicode="&#xbe;" horiz-adv-x="1495" 
d="M1075 317q0 -2 4 -4t11 -2t21 1t22 1q6 0 24 -1t29 -1q12 0 18 3.5t6 13.5v2q0 7 4.5 37t4.5 53l-1 9.5t-1 16.5q0 26 8 63.5t8 47.5q0 6 -5 10t-11 4q-5 0 -15 -15.5t-31 -55.5q-50 -91 -73 -134.5t-23 -48.5zM1186 715q58 0 123 -20.5t65 -30.5q0 -6 -4.5 -14t-5.5 -11
v-3q-10 -74 -10 -171q0 -32 -2 -67t-2 -40t1 -14.5t1 -13.5v-4q0 -8 31 -9.5t43 -7.5q11 -5 22.5 -36.5t11.5 -45.5q0 -9 -8 -13.5t-25 -4.5h-14q-21 0 -39 -2.5t-20 -5.5q-3 -3 -4.5 -17.5t-1.5 -66.5q-2 -49 -8 -93q-1 -9 -1 -10q0 -3 3.5 -15t3.5 -19q0 -19 -5 -29
t-14 -10q-4 0 -26 4.5t-37 9.5q-29 8 -40.5 17t-11.5 22q0 3 1 8.5t1 7.5t-1 6q-9 31 -9 70t-1 76q-1 8 -1 10q0 3 1 9.5t1 8.5q0 5 -5.5 7t-18.5 2q-8 0 -38.5 -2t-54.5 -2q-21 0 -44 -1t-25 -1q-44 0 -56 14q-4 5 -10 8q-23 14 -37 28t-14 23q0 7 50 91t120 190
q44 68 87 127q6 8 8 11q0 1 2 8q4 21 18 22zM358 -57q-53 0 -82.5 28.5t-29.5 77.5q0 20 172.5 283.5t435.5 642.5q21 30 56 82q157 227 231 227q49 0 79.5 -23t30.5 -49q0 -2 -25 -29q-207 -229 -464 -601q-139 -202 -267 -420.5t-137 -218.5zM152 502q-23 0 -46 10t-28 22
q-1 3 -1.5 10t-5.5 14q-5 6 -17.5 16t-12.5 16q0 11 4.5 18t15.5 10q18 3 27 9l4 2q4 0 14 -3t17 -3q26 0 70 16.5t81 42.5q29 21 50.5 47.5t21.5 34.5q0 17 -32.5 32t-75.5 15q-84 0 -112 -23q-2 -1 -3 -2q-6 0 -28.5 15.5t-22.5 23.5q0 4 4 11.5t4 11.5l-1 2q-7 10 -7 33
q0 19 1.5 25.5t3.5 8.5q2 1 11 3q42 10 78 32q77 48 130.5 98.5t53.5 65.5q0 4 -15 7t-36 3q-89 0 -169 -40q-10 -5 -11 -5q-6 0 -14.5 11t-12.5 27q-1 7 -12.5 26t-11.5 41q0 10 4.5 15t15.5 9q16 5 46 14q101 29 140 29q42 0 73 -10.5t52 -32.5q8 -7 21 -21q51 -51 51 -91
q0 -25 -14 -53t-47 -68q-21 -25 -48.5 -44.5t-27.5 -23.5t32 -19t50 -30q29 -25 48 -56.5t19 -55.5q0 -60 -34.5 -107.5t-104.5 -83.5q-46 -23 -104.5 -39t-87.5 -16z" />
    <glyph glyph-name="questiondown" unicode="&#xbf;" horiz-adv-x="797" 
d="M623 913q0 -29 -71 -157.5t-173 -268.5q-76 -106 -103.5 -167.5t-27.5 -112.5q0 -23 10 -32t35 -9q45 0 108.5 37t153.5 116q41 37 72.5 83.5t48.5 46.5q21 0 61.5 -77.5t40.5 -109.5q0 -24 -46.5 -79t-119.5 -107q-88 -64 -156.5 -96.5t-111.5 -32.5q-14 0 -101 37.5
t-116 64.5q-53 49 -76.5 98.5t-23.5 116.5q0 76 33 153.5t122 196.5q28 37 76 101q141 183 141 254q0 11 -16 29t-16 30q0 11 8 17.5t22 7.5q44 0 89.5 -9t56.5 -20q6 -7 18 -19q62 -60 62 -92zM651 1317q0 -79 -31 -109q-12 -12 -18 -20q-7 -10 -19 -31q-30 -53 -57 -53
q-13 0 -33 10t-22 10q-1 0 -9 -1t-16 -1q-32 0 -63 42t-31 77q0 80 44 132t91 52q1 0 4.5 -1t4.5 -1q10 0 23 5.5t18 5.5q24 0 69 -38.5t45 -78.5z" />
    <glyph glyph-name="Agrave" unicode="&#xc0;" horiz-adv-x="977" 
d="M373 582q0 -6 7 -9.5t19 -3.5q140 0 168.5 6.5t28.5 34.5q0 4 -8 34q-33 129 -56 264q-5 32 -11 82q-9 73 -21 73q-8 0 -24 -78q-12 -60 -21 -100q-35 -146 -74 -274q-8 -27 -8 -29zM35 -35q0 153 199 946l2 7q23 94 58 245q63 277 101 277q95 0 196 -30.5t101 -47.5
q0 -3 -1 -9.5t-1 -11.5q0 -6 11.5 -67t27.5 -133q8 -38 15 -97t10 -76q1 -8 20 -92t27 -157q0 -17 20 -146t49 -284q2 -7 6 -25q21 -103 31 -196q3 -32 16 -60q3 -7 3 -8q0 -9 -16 -22t-31 -13q-7 0 -19 4t-18 4q-11 0 -27 -8t-24 -8q-63 0 -106 140l-1 3q-24 80 -41 174.5
t-41 94.5q-1 0 -14 -3q-76 -16 -170 -24q-54 -4 -75.5 -10.5t-29.5 -20.5q-10 -23 -17 -71.5t-14 -70.5q-5 -19 -16 -56q-33 -106 -33 -162q0 -28 -19.5 -50t-51.5 -22q-54 0 -92.5 17t-38.5 38q0 6 2 16.5t2 14.5zM551 1520q-9 0 -78.5 30.5t-122.5 50.5q-21 8 -58 18
q-85 24 -85 64q0 26 49 71.5t78 45.5q10 0 83 -45q66 -41 112 -68q12 -7 43 -19q71 -27 71 -58q0 -18 -37.5 -54t-54.5 -36z" />
    <glyph glyph-name="Aacute" unicode="&#xc1;" horiz-adv-x="977" 
d="M373 582q0 -6 7 -9.5t19 -3.5q140 0 168.5 6.5t28.5 34.5q0 4 -8 34q-33 129 -56 264q-5 32 -11 82q-9 73 -21 73q-8 0 -24 -78q-12 -60 -21 -100q-35 -146 -74 -274q-8 -27 -8 -29zM35 -35q0 153 199 946l2 7q23 94 58 245q63 277 101 277q95 0 196 -30.5t101 -47.5
q0 -3 -1 -9.5t-1 -11.5q0 -6 11.5 -67t27.5 -133q8 -38 15 -97t10 -76q1 -8 20 -92t27 -157q0 -17 20 -146t49 -284q2 -7 6 -25q21 -103 31 -196q3 -32 16 -60q3 -7 3 -8q0 -9 -16 -22t-31 -13q-7 0 -19 4t-18 4q-11 0 -27 -8t-24 -8q-63 0 -106 140l-1 3q-24 80 -41 174.5
t-41 94.5q-1 0 -14 -3q-76 -16 -170 -24q-54 -4 -75.5 -10.5t-29.5 -20.5q-10 -23 -17 -71.5t-14 -70.5q-5 -19 -16 -56q-33 -106 -33 -162q0 -28 -19.5 -50t-51.5 -22q-54 0 -92.5 17t-38.5 38q0 6 2 16.5t2 14.5zM840 1679q0 -36 -82 -59q-40 -10 -62 -19
q-53 -20 -122 -50.5t-78 -30.5q-18 0 -55.5 36t-37.5 54q0 32 70 57q25 9 34 14q52 28 121.5 73.5t84.5 45.5q28 0 77.5 -46t49.5 -75z" />
    <glyph glyph-name="Acircumflex" unicode="&#xc2;" horiz-adv-x="977" 
d="M373 582q0 -6 7 -9.5t19 -3.5q140 0 168.5 6.5t28.5 34.5q0 4 -8 34q-33 129 -56 264q-5 32 -11 82q-9 73 -21 73q-8 0 -24 -78q-12 -60 -21 -100q-35 -146 -74 -274q-8 -27 -8 -29zM35 -35q0 153 199 946l2 7q23 94 58 245q63 277 101 277q95 0 196 -30.5t101 -47.5
q0 -3 -1 -9.5t-1 -11.5q0 -6 11.5 -67t27.5 -133q8 -38 15 -97t10 -76q1 -8 20 -92t27 -157q0 -17 20 -146t49 -284q2 -7 6 -25q21 -103 31 -196q3 -32 16 -60q3 -7 3 -8q0 -9 -16 -22t-31 -13q-7 0 -19 4t-18 4q-11 0 -27 -8t-24 -8q-63 0 -106 140l-1 3q-24 80 -41 174.5
t-41 94.5q-1 0 -14 -3q-76 -16 -170 -24q-54 -4 -75.5 -10.5t-29.5 -20.5q-10 -23 -17 -71.5t-14 -70.5q-5 -19 -16 -56q-33 -106 -33 -162q0 -28 -19.5 -50t-51.5 -22q-54 0 -92.5 17t-38.5 38q0 6 2 16.5t2 14.5zM514 1821q10 0 29.5 -3.5t29.5 -3.5q2 0 8.5 1t12.5 1
q15 0 38 -29t44 -52q58 -66 95.5 -115.5t37.5 -61.5q0 -13 -12 -23.5t-27 -10.5q-101 0 -130.5 7t-43.5 27q-8 11 -22 31q-47 66 -60 66q-19 0 -66 -70q-11 -17 -18 -27q-14 -20 -44 -27t-130 -7q-15 0 -27 10.5t-12 23.5q0 11 36.5 61t94.5 116q23 25 47 55q21 26 35 26
q3 0 10.5 -1t12.5 -1q10 0 30.5 3.5t30.5 3.5z" />
    <glyph glyph-name="Atilde" unicode="&#xc3;" horiz-adv-x="977" 
d="M373 582q0 -6 7 -9.5t19 -3.5q140 0 168.5 6.5t28.5 34.5q0 4 -8 34q-33 129 -56 264q-5 32 -11 82q-9 73 -21 73q-8 0 -24 -78q-12 -60 -21 -100q-35 -146 -74 -274q-8 -27 -8 -29zM35 -35q0 153 199 946l2 7q23 94 58 245q63 277 101 277q95 0 196 -30.5t101 -47.5
q0 -3 -1 -9.5t-1 -11.5q0 -6 11.5 -67t27.5 -133q8 -38 15 -97t10 -76q1 -8 20 -92t27 -157q0 -17 20 -146t49 -284q2 -7 6 -25q21 -103 31 -196q3 -32 16 -60q3 -7 3 -8q0 -9 -16 -22t-31 -13q-7 0 -19 4t-18 4q-11 0 -27 -8t-24 -8q-63 0 -106 140l-1 3q-24 80 -41 174.5
t-41 94.5q-1 0 -14 -3q-76 -16 -170 -24q-54 -4 -75.5 -10.5t-29.5 -20.5q-10 -23 -17 -71.5t-14 -70.5q-5 -19 -16 -56q-33 -106 -33 -162q0 -28 -19.5 -50t-51.5 -22q-54 0 -92.5 17t-38.5 38q0 6 2 16.5t2 14.5zM651 1563q-29 0 -85.5 27.5t-84.5 27.5q-46 0 -77.5 -30
t-32.5 -30q-17 0 -67 24.5t-50 37.5q0 44 53 101t105 57q30 0 96 -28t104 -28q26 0 44.5 22.5t23.5 22.5q25 0 74 -23.5t49 -39.5q0 -28 -51.5 -84.5t-100.5 -56.5z" />
    <glyph glyph-name="Adieresis" unicode="&#xc4;" horiz-adv-x="977" 
d="M373 582q0 -6 7 -9.5t19 -3.5q140 0 168.5 6.5t28.5 34.5q0 4 -8 34q-33 129 -56 264q-5 32 -11 82q-9 73 -21 73q-8 0 -24 -78q-12 -60 -21 -100q-35 -146 -74 -274q-8 -27 -8 -29zM35 -35q0 153 199 946l2 7q23 94 58 245q63 277 101 277q95 0 196 -30.5t101 -47.5
q0 -3 -1 -9.5t-1 -11.5q0 -6 11.5 -67t27.5 -133q8 -38 15 -97t10 -76q1 -8 20 -92t27 -157q0 -17 20 -146t49 -284q2 -7 6 -25q21 -103 31 -196q3 -32 16 -60q3 -7 3 -8q0 -9 -16 -22t-31 -13q-7 0 -19 4t-18 4q-11 0 -27 -8t-24 -8q-63 0 -106 140l-1 3q-24 80 -41 174.5
t-41 94.5q-1 0 -14 -3q-76 -16 -170 -24q-54 -4 -75.5 -10.5t-29.5 -20.5q-10 -23 -17 -71.5t-14 -70.5q-5 -19 -16 -56q-33 -106 -33 -162q0 -28 -19.5 -50t-51.5 -22q-54 0 -92.5 17t-38.5 38q0 6 2 16.5t2 14.5zM700 1544q-53 0 -98 29t-45 63q0 60 36 107t95 47
q38 0 80.5 -53.5t42.5 -79.5q0 -32 -37.5 -72.5t-73.5 -40.5zM362 1544q-53 0 -99 29t-46 63q0 60 36 107t95 47q38 0 80.5 -53.5t42.5 -79.5q0 -33 -36.5 -73t-72.5 -40z" />
    <glyph glyph-name="Aring" unicode="&#xc5;" horiz-adv-x="977" 
d="M537 1847q-36 0 -77.5 -49.5t-41.5 -103.5q0 -41 19.5 -72t41.5 -31q34 0 78.5 53.5t44.5 114.5q0 37 -20 62.5t-45 25.5zM283 1700q0 74 74.5 153.5t113.5 79.5q16 0 75 -13.5t95 -31.5q46 -21 71 -59t25 -86q0 -78 -74 -151.5t-147 -73.5q-100 0 -166.5 53.5
t-66.5 128.5zM373 582q0 -6 7 -9.5t19 -3.5q140 0 168.5 6.5t28.5 34.5q0 4 -8 34q-33 129 -56 264q-5 32 -11 82q-9 73 -21 73q-8 0 -24 -78q-12 -60 -21 -100q-35 -146 -74 -274q-8 -27 -8 -29zM35 -35q0 153 199 946l2 7q23 94 58 245q63 277 101 277q95 0 196 -30.5
t101 -47.5q0 -3 -1 -9.5t-1 -11.5q0 -6 11.5 -67t27.5 -133q8 -38 15 -97t10 -76q1 -8 20 -92t27 -157q0 -17 20 -146t49 -284q2 -7 6 -25q21 -103 31 -196q3 -32 16 -60q3 -7 3 -8q0 -9 -16 -22t-31 -13q-7 0 -19 4t-18 4q-11 0 -27 -8t-24 -8q-63 0 -106 140l-1 3
q-24 80 -41 174.5t-41 94.5q-1 0 -14 -3q-76 -16 -170 -24q-54 -4 -75.5 -10.5t-29.5 -20.5q-10 -23 -17 -71.5t-14 -70.5q-5 -19 -16 -56q-33 -106 -33 -162q0 -28 -19.5 -50t-51.5 -22q-54 0 -92.5 17t-38.5 38q0 6 2 16.5t2 14.5z" />
    <glyph glyph-name="AE" unicode="&#xc6;" horiz-adv-x="1323" 
d="M379 592q0 -4 9.5 -9t19.5 -5q22 0 50.5 2t35.5 2q12 0 35 -2t34 -2q10 0 17.5 5.5t7.5 12.5q0 5 -2 16.5t-2 18.5q0 8 1 40q5 145 5 279q0 3 -1 35.5t-1 63.5q0 37 5 78q1 10 1 12q0 12 -5.5 19t-15.5 7q-21 0 -49 -103q-21 -82 -39 -136q-71 -224 -106 -334zM729 1380
q29 0 142 20.5t188 20.5q33 0 72.5 -55t39.5 -119q0 -39 -109 -55q-32 -5 -52 -8q-46 -8 -112 -10q-77 -3 -77 -35q0 -4 1 -13t1 -14q0 -30 -6 -114t-6 -136q0 -16 4.5 -20t20.5 -4q8 0 39 4q106 16 198 16q52 0 80.5 -38t28.5 -107q0 -17 3 -34l3 -17q0 -26 -110 -36
q-35 -3 -56 -5q-36 -4 -94 -9q-123 -10 -123 -43v-8q2 -35 2 -67q0 -56 -1 -117t-1 -66q0 -6 -2 -24.5t-2 -30.5q0 -21 4 -32t12 -11q49 0 147 17.5t130 17.5q31 0 69.5 -41t38.5 -86q0 -8 -1 -25.5t-1 -25.5q0 -7 7 -19t7 -18q0 -7 -9 -7q-6 -1 -8 -1q-63 -6 -138 -22
t-84 -17q-74 -12 -150 -20.5t-88 -8.5q-6 0 -44 20.5t-60 38.5q-25 20 -35 58t-10 108q0 6 3 50t3 81q0 38 -5 48t-18 10q-1 0 -74 -8t-153 -15q-27 -3 -37.5 -17t-19.5 -60q-11 -53 -42.5 -150t-39.5 -155q-4 -27 -22 -44.5t-42 -17.5q-43 0 -90 21t-47 44q0 39 39 198.5
t137 520.5q34 126 81.5 280.5t107.5 331.5q29 87 47.5 108.5t52.5 21.5q40 0 111.5 -19.5t81.5 -19.5q2 0 10 3t14 3q7 0 21 -8.5t22 -8.5z" />
    <glyph glyph-name="Ccedilla" unicode="&#xc7;" horiz-adv-x="891" 
d="M465 -55q-75 0 -157 35t-126 86q-54 61 -84 182t-30 282q0 190 42.5 389t106.5 324q53 104 111 152.5t127 48.5q39 0 102 -32.5t141 -92.5q42 -32 68.5 -101t26.5 -155q0 -137 -28 -173t-106 -36q-51 0 -80.5 35t-41.5 110q-3 17 -8 49q-26 162 -62 162q-14 0 -29 -30
t-28 -86l-13 -52q-71 -289 -71 -569q0 -90 10.5 -171.5t30.5 -144.5q7 -21 20.5 -28.5t40.5 -7.5q37 0 94 87t74 189q2 13 5 35q7 62 46 96q23 21 35.5 27t26.5 6q39 0 72.5 -38t33.5 -97q0 -198 -100.5 -339.5t-249.5 -141.5zM395 0h73q-1 -14 -5 -40q-7 -52 -7 -69
q0 -11 8 -19.5t19 -8.5q4 0 16.5 1t20.5 1q80 0 130 -45.5t50 -118.5q0 -78 -59.5 -121t-167.5 -43q-97 0 -191 30t-94 56q0 28 15 49t32 21q5 0 27 -12q97 -56 194 -56q46 0 69 20t23 60q0 32 -22 50t-64 18q-10 0 -29 -1t-28 -1q-21 0 -32 12.5t-11 36.5t8.5 72.5
t24.5 107.5z" />
    <glyph glyph-name="Egrave" unicode="&#xc8;" horiz-adv-x="872" 
d="M287 -43q-8 0 -54 25.5t-65 46.5q-17 18 -25 101t-8 239q0 367 6 604.5t17 329.5q8 61 21.5 77.5t43.5 16.5q10 0 27 -9.5t29 -9.5q6 0 40 8q158 35 289 35q33 0 73 -55t40 -119q0 -39 -110 -55q-32 -5 -51 -8q-46 -8 -112 -10q-77 -3 -77 -35q0 -4 1 -13t1 -14
q0 -30 -6.5 -114t-6.5 -136q1 -17 5 -20.5t20 -3.5q9 0 39 4q107 16 199 16q52 0 81 -38.5t29 -106.5q0 -17 2 -34l2 -17q0 -26 -110 -36q-34 -3 -56 -5q-35 -4 -94 -9q-123 -10 -123 -43q0 -1 1 -9q1 -33 1 -66q0 -56 -1 -117t-1 -66q0 -6 -2 -24.5t-2 -30.5q0 -21 4.5 -32
t12.5 -11q48 0 147 17.5t131 17.5q31 0 69 -41t38 -86q0 -8 -1 -25.5t-1 -25.5q0 -7 7 -19t7 -18t-11 -8h-7q-63 -6 -138 -22t-83 -17q-74 -12 -150 -20.5t-88 -8.5zM473 1520q-9 0 -78.5 30.5t-122.5 50.5q-21 8 -58 18q-85 24 -85 64q0 26 49 71.5t78 45.5q10 0 83 -45
q66 -41 112 -68q12 -7 43 -19q71 -27 71 -58q0 -18 -37.5 -54t-54.5 -36z" />
    <glyph glyph-name="Eacute" unicode="&#xc9;" horiz-adv-x="872" 
d="M287 -43q-8 0 -54 25.5t-65 46.5q-17 18 -25 101t-8 239q0 367 6 604.5t17 329.5q8 61 21.5 77.5t43.5 16.5q10 0 27 -9.5t29 -9.5q6 0 40 8q158 35 289 35q33 0 73 -55t40 -119q0 -39 -110 -55q-32 -5 -51 -8q-46 -8 -112 -10q-77 -3 -77 -35q0 -4 1 -13t1 -14
q0 -30 -6.5 -114t-6.5 -136q1 -17 5 -20.5t20 -3.5q9 0 39 4q107 16 199 16q52 0 81 -38.5t29 -106.5q0 -17 2 -34l2 -17q0 -26 -110 -36q-34 -3 -56 -5q-35 -4 -94 -9q-123 -10 -123 -43q0 -1 1 -9q1 -33 1 -66q0 -56 -1 -117t-1 -66q0 -6 -2 -24.5t-2 -30.5q0 -21 4.5 -32
t12.5 -11q48 0 147 17.5t131 17.5q31 0 69 -41t38 -86q0 -8 -1 -25.5t-1 -25.5q0 -7 7 -19t7 -18t-11 -8h-7q-63 -6 -138 -22t-83 -17q-74 -12 -150 -20.5t-88 -8.5zM762 1679q0 -36 -82 -59q-40 -10 -62 -19q-53 -20 -122 -50.5t-78 -30.5q-18 0 -55.5 36t-37.5 54
q0 32 70 57q25 9 34 14q52 28 121.5 73.5t84.5 45.5q28 0 77.5 -46t49.5 -75z" />
    <glyph glyph-name="Ecircumflex" unicode="&#xca;" horiz-adv-x="872" 
d="M287 -43q-8 0 -54 25.5t-65 46.5q-17 18 -25 101t-8 239q0 367 6 604.5t17 329.5q8 61 21.5 77.5t43.5 16.5q10 0 27 -9.5t29 -9.5q6 0 40 8q158 35 289 35q33 0 73 -55t40 -119q0 -39 -110 -55q-32 -5 -51 -8q-46 -8 -112 -10q-77 -3 -77 -35q0 -4 1 -13t1 -14
q0 -30 -6.5 -114t-6.5 -136q1 -17 5 -20.5t20 -3.5q9 0 39 4q107 16 199 16q52 0 81 -38.5t29 -106.5q0 -17 2 -34l2 -17q0 -26 -110 -36q-34 -3 -56 -5q-35 -4 -94 -9q-123 -10 -123 -43q0 -1 1 -9q1 -33 1 -66q0 -56 -1 -117t-1 -66q0 -6 -2 -24.5t-2 -30.5q0 -21 4.5 -32
t12.5 -11q48 0 147 17.5t131 17.5q31 0 69 -41t38 -86q0 -8 -1 -25.5t-1 -25.5q0 -7 7 -19t7 -18t-11 -8h-7q-63 -6 -138 -22t-83 -17q-74 -12 -150 -20.5t-88 -8.5zM436 1821q10 0 29.5 -3.5t29.5 -3.5q2 0 8.5 1t12.5 1q15 0 38 -29t44 -52q58 -66 95.5 -115.5t37.5 -61.5
q0 -13 -12 -23.5t-27 -10.5q-101 0 -130.5 7t-43.5 27q-8 11 -22 31q-47 66 -60 66q-19 0 -66 -70q-11 -17 -18 -27q-14 -20 -44 -27t-130 -7q-15 0 -27 10.5t-12 23.5q0 11 36.5 61t94.5 116q23 25 47 55q21 26 35 26q3 0 10.5 -1t12.5 -1q10 0 30.5 3.5t30.5 3.5z" />
    <glyph glyph-name="Edieresis" unicode="&#xcb;" horiz-adv-x="872" 
d="M287 -43q-8 0 -54 25.5t-65 46.5q-17 18 -25 101t-8 239q0 367 6 604.5t17 329.5q8 61 21.5 77.5t43.5 16.5q10 0 27 -9.5t29 -9.5q6 0 40 8q158 35 289 35q33 0 73 -55t40 -119q0 -39 -110 -55q-32 -5 -51 -8q-46 -8 -112 -10q-77 -3 -77 -35q0 -4 1 -13t1 -14
q0 -30 -6.5 -114t-6.5 -136q1 -17 5 -20.5t20 -3.5q9 0 39 4q107 16 199 16q52 0 81 -38.5t29 -106.5q0 -17 2 -34l2 -17q0 -26 -110 -36q-34 -3 -56 -5q-35 -4 -94 -9q-123 -10 -123 -43q0 -1 1 -9q1 -33 1 -66q0 -56 -1 -117t-1 -66q0 -6 -2 -24.5t-2 -30.5q0 -21 4.5 -32
t12.5 -11q48 0 147 17.5t131 17.5q31 0 69 -41t38 -86q0 -8 -1 -25.5t-1 -25.5q0 -7 7 -19t7 -18t-11 -8h-7q-63 -6 -138 -22t-83 -17q-74 -12 -150 -20.5t-88 -8.5zM622 1544q-53 0 -98 29t-45 63q0 60 36 107t95 47q38 0 80.5 -53.5t42.5 -79.5q0 -32 -37.5 -72.5
t-73.5 -40.5zM284 1544q-53 0 -99 29t-46 63q0 60 36 107t95 47q38 0 80.5 -53.5t42.5 -79.5q0 -33 -36.5 -73t-72.5 -40z" />
    <glyph glyph-name="Igrave" unicode="&#xcc;" horiz-adv-x="512" 
d="M137 115q0 127 -2 275.5t-2 168.5q0 314 9 600q1 42 1 49q0 11 -1 43t-1 52q0 89 14 110t58 21q66 0 114 -25t48 -55q0 -8 -3 -26.5t-3 -29.5q0 -12 2 -48.5t2 -59.5t-4 -77t-4 -85q0 -17 1 -51t1 -51q0 -33 -3.5 -87t-3.5 -77q0 -11 2 -61q9 -217 9 -420q0 -42 -2 -103
t-2 -80q0 -11 1 -32.5t1 -32.5q0 -55 -10.5 -72.5t-39.5 -17.5q-47 0 -115.5 44t-68.5 66q0 4 1 24.5t1 37.5zM293 1520q-9 0 -78.5 30.5t-122.5 50.5q-21 8 -58 18q-85 24 -85 64q0 26 49 71.5t78 45.5q10 0 83 -45q66 -41 112 -68q12 -7 43 -19q71 -27 71 -58
q0 -18 -37.5 -54t-54.5 -36z" />
    <glyph glyph-name="Iacute" unicode="&#xcd;" horiz-adv-x="512" 
d="M137 115q0 127 -2 275.5t-2 168.5q0 314 9 600q1 42 1 49q0 11 -1 43t-1 52q0 89 14 110t58 21q66 0 114 -25t48 -55q0 -8 -3 -26.5t-3 -29.5q0 -12 2 -48.5t2 -59.5t-4 -77t-4 -85q0 -17 1 -51t1 -51q0 -33 -3.5 -87t-3.5 -77q0 -11 2 -61q9 -217 9 -420q0 -42 -2 -103
t-2 -80q0 -11 1 -32.5t1 -32.5q0 -55 -10.5 -72.5t-39.5 -17.5q-47 0 -115.5 44t-68.5 66q0 4 1 24.5t1 37.5zM582 1679q0 -36 -82 -59q-40 -10 -62 -19q-53 -20 -122 -50.5t-78 -30.5q-18 0 -55.5 36t-37.5 54q0 32 70 57q25 9 34 14q52 28 121.5 73.5t84.5 45.5
q28 0 77.5 -46t49.5 -75z" />
    <glyph glyph-name="Icircumflex" unicode="&#xce;" horiz-adv-x="512" 
d="M137 115q0 127 -2 275.5t-2 168.5q0 314 9 600q1 42 1 49q0 11 -1 43t-1 52q0 89 14 110t58 21q66 0 114 -25t48 -55q0 -8 -3 -26.5t-3 -29.5q0 -12 2 -48.5t2 -59.5t-4 -77t-4 -85q0 -17 1 -51t1 -51q0 -33 -3.5 -87t-3.5 -77q0 -11 2 -61q9 -217 9 -420q0 -42 -2 -103
t-2 -80q0 -11 1 -32.5t1 -32.5q0 -55 -10.5 -72.5t-39.5 -17.5q-47 0 -115.5 44t-68.5 66q0 4 1 24.5t1 37.5zM256 1821q10 0 29.5 -3.5t29.5 -3.5q2 0 8.5 1t12.5 1q15 0 38 -29t44 -52q58 -66 95.5 -115.5t37.5 -61.5q0 -13 -12 -23.5t-27 -10.5q-101 0 -130.5 7t-43.5 27
q-8 11 -22 31q-47 66 -60 66q-19 0 -66 -70q-11 -17 -18 -27q-14 -20 -44 -27t-130 -7q-15 0 -27 10.5t-12 23.5q0 11 36.5 61t94.5 116q23 25 47 55q21 26 35 26q3 0 10.5 -1t12.5 -1q10 0 30.5 3.5t30.5 3.5z" />
    <glyph glyph-name="Idieresis" unicode="&#xcf;" horiz-adv-x="512" 
d="M137 115q0 127 -2 275.5t-2 168.5q0 314 9 600q1 42 1 49q0 11 -1 43t-1 52q0 89 14 110t58 21q66 0 114 -25t48 -55q0 -8 -3 -26.5t-3 -29.5q0 -12 2 -48.5t2 -59.5t-4 -77t-4 -85q0 -17 1 -51t1 -51q0 -33 -3.5 -87t-3.5 -77q0 -11 2 -61q9 -217 9 -420q0 -42 -2 -103
t-2 -80q0 -11 1 -32.5t1 -32.5q0 -55 -10.5 -72.5t-39.5 -17.5q-47 0 -115.5 44t-68.5 66q0 4 1 24.5t1 37.5zM442 1544q-53 0 -98 29t-45 63q0 60 36 107t95 47q38 0 80.5 -53.5t42.5 -79.5q0 -32 -37.5 -72.5t-73.5 -40.5zM104 1544q-53 0 -99 29t-46 63q0 60 36 107
t95 47q38 0 80.5 -53.5t42.5 -79.5q0 -33 -36.5 -73t-72.5 -40z" />
    <glyph glyph-name="Eth" unicode="&#xd0;" horiz-adv-x="963" 
d="M356 590q0 -5 1 -27q5 -140 5 -284q0 -10 -3 -32t-3 -34q0 -4 6 -8t13 -4q8 0 59 63.5t82 124.5q56 109 83.5 208.5t27.5 195.5q0 200 -60 295.5t-186 95.5q-7 0 -10.5 -1.5t-3.5 -4.5q0 -5 1 -17.5t1 -19.5q0 -19 -4.5 -66t-4.5 -76q0 -17 2.5 -45t2.5 -41
q0 -24 -3.5 -49t-3.5 -26q0 -21 43.5 -23t59.5 -18q15 -16 32 -60t17 -59q0 -24 -30 -37.5t-83 -13.5q-1 0 -7.5 1t-12.5 1q-12 0 -16.5 -8t-4.5 -31zM358 -61q-14 0 -53.5 21t-64.5 32q-76 30 -94.5 43.5t-18.5 27.5q0 5 1 16.5t1 16.5q0 28 -3 87.5t-3 90.5q0 30 5 86
t5 82q0 23 -1 68.5t-1 69.5q0 5 1 17t1 19q0 14 -10.5 20.5t-32.5 6.5q-29 0 -48 9t-19 22q0 10 -19.5 32.5t-19.5 45.5q0 17 20 31.5t40 17.5q13 1 36 3q55 4 55 54q0 8 -1 41t-1 59q0 28 -2 114.5t-2 146.5q0 19 3 51t3 45q0 19 -8 42.5t-8 26.5q0 24 51.5 39t130.5 15
q251 0 418.5 -181t167.5 -462q0 -210 -81 -398.5t-231 -328.5q-44 -42 -121 -85.5t-96 -43.5z" />
    <glyph glyph-name="Ntilde" unicode="&#xd1;" horiz-adv-x="1057" 
d="M143 31q0 12 -7 116t-7 197q0 22 2 84t2 100v138q0 36 3 130t3 150q0 225 12 401q1 12 1 13q1 8 9.5 13t20.5 5q26 0 85 -16.5t79 -28.5q28 -16 94 -205q9 -27 15 -43q71 -202 145 -376t80 -174q5 0 6.5 5t1.5 17q0 3 -1 16q-5 74 -5 150q0 399 12 690v12q2 26 10.5 32.5
t38.5 6.5q92 0 127 -15.5t35 -57.5q0 -4 4 -133.5t4 -253.5q0 -10 -1 -115t-1 -199q0 -76 3.5 -211t3.5 -194q0 -180 -10.5 -239.5t-39.5 -59.5q-11 0 -39 7t-47 7h-16q-56 0 -90 67l-8 16q-153 306 -203.5 411t-50.5 114q0 3 -16 38t-31 71q-4 9 -11.5 16.5t-11.5 7.5
q-2 0 -3 -4t-1 -20q0 -53 9 -166t9 -172q0 -22 -2 -69.5t-2 -73.5q0 -7 2 -60t2 -98v-17q0 -86 -14 -108.5t-51 -22.5q-30 0 -58 19.5t-40 21.5q-8 2 -23 4q-31 4 -31 17q0 9 1 22.5t1 16.5zM665 1563q-29 0 -85.5 27.5t-84.5 27.5q-46 0 -77.5 -30t-32.5 -30
q-17 0 -67 24.5t-50 37.5q0 44 53 101t105 57q30 0 96 -28t104 -28q26 0 44.5 22.5t23.5 22.5q25 0 74 -23.5t49 -39.5q0 -28 -51.5 -84.5t-100.5 -56.5z" />
    <glyph glyph-name="Ograve" unicode="&#xd2;" horiz-adv-x="1042" 
d="M549 1241q-26 0 -78 -83q-13 -22 -20 -34q-70 -112 -102 -235.5t-32 -292.5q0 -185 49 -327t87 -142q98 0 181 202.5t83 469.5q0 81 -24.5 193.5t-49.5 162.5q-15 31 -46.5 58.5t-47.5 27.5zM74 633q0 210 58.5 412.5t148.5 310.5q28 35 79 58.5t97 23.5q30 0 108 -33
t109 -39q48 -9 83.5 -36t76.5 -87q67 -101 105 -234.5t38 -271.5q0 -158 -39.5 -318.5t-103.5 -271.5q-52 -87 -118.5 -143.5t-113.5 -56.5h-12q-8 0 -25 -2t-26 -2q-2 0 -14 4q-53 19 -109 30q-36 8 -69.5 29.5t-65.5 56.5q-115 124 -161 254t-46 316zM559 1520
q-9 0 -78.5 30.5t-122.5 50.5q-21 8 -58 18q-85 24 -85 64q0 26 49 71.5t78 45.5q10 0 83 -45q66 -41 112 -68q12 -7 43 -19q71 -27 71 -58q0 -18 -37.5 -54t-54.5 -36z" />
    <glyph glyph-name="Oacute" unicode="&#xd3;" horiz-adv-x="1042" 
d="M549 1241q-26 0 -78 -83q-13 -22 -20 -34q-70 -112 -102 -235.5t-32 -292.5q0 -185 49 -327t87 -142q98 0 181 202.5t83 469.5q0 81 -24.5 193.5t-49.5 162.5q-15 31 -46.5 58.5t-47.5 27.5zM74 633q0 210 58.5 412.5t148.5 310.5q28 35 79 58.5t97 23.5q30 0 108 -33
t109 -39q48 -9 83.5 -36t76.5 -87q67 -101 105 -234.5t38 -271.5q0 -158 -39.5 -318.5t-103.5 -271.5q-52 -87 -118.5 -143.5t-113.5 -56.5h-12q-8 0 -25 -2t-26 -2q-2 0 -14 4q-53 19 -109 30q-36 8 -69.5 29.5t-65.5 56.5q-115 124 -161 254t-46 316zM848 1679
q0 -36 -82 -59q-40 -10 -62 -19q-53 -20 -122 -50.5t-78 -30.5q-18 0 -55.5 36t-37.5 54q0 32 70 57q25 9 34 14q52 28 121.5 73.5t84.5 45.5q28 0 77.5 -46t49.5 -75z" />
    <glyph glyph-name="Ocircumflex" unicode="&#xd4;" horiz-adv-x="1042" 
d="M549 1241q-26 0 -78 -83q-13 -22 -20 -34q-70 -112 -102 -235.5t-32 -292.5q0 -185 49 -327t87 -142q98 0 181 202.5t83 469.5q0 81 -24.5 193.5t-49.5 162.5q-15 31 -46.5 58.5t-47.5 27.5zM74 633q0 210 58.5 412.5t148.5 310.5q28 35 79 58.5t97 23.5q30 0 108 -33
t109 -39q48 -9 83.5 -36t76.5 -87q67 -101 105 -234.5t38 -271.5q0 -158 -39.5 -318.5t-103.5 -271.5q-52 -87 -118.5 -143.5t-113.5 -56.5h-12q-8 0 -25 -2t-26 -2q-2 0 -14 4q-53 19 -109 30q-36 8 -69.5 29.5t-65.5 56.5q-115 124 -161 254t-46 316zM522 1821
q10 0 29.5 -3.5t29.5 -3.5q2 0 8.5 1t12.5 1q15 0 38 -29t44 -52q58 -66 95.5 -115.5t37.5 -61.5q0 -13 -12 -23.5t-27 -10.5q-101 0 -130.5 7t-43.5 27q-8 11 -22 31q-47 66 -60 66q-19 0 -66 -70q-11 -17 -18 -27q-14 -20 -44 -27t-130 -7q-15 0 -27 10.5t-12 23.5
q0 11 36.5 61t94.5 116q23 25 47 55q21 26 35 26q3 0 10.5 -1t12.5 -1q10 0 30.5 3.5t30.5 3.5z" />
    <glyph glyph-name="Otilde" unicode="&#xd5;" horiz-adv-x="1042" 
d="M549 1241q-26 0 -78 -83q-13 -22 -20 -34q-70 -112 -102 -235.5t-32 -292.5q0 -185 49 -327t87 -142q98 0 181 202.5t83 469.5q0 81 -24.5 193.5t-49.5 162.5q-15 31 -46.5 58.5t-47.5 27.5zM74 633q0 210 58.5 412.5t148.5 310.5q28 35 79 58.5t97 23.5q30 0 108 -33
t109 -39q48 -9 83.5 -36t76.5 -87q67 -101 105 -234.5t38 -271.5q0 -158 -39.5 -318.5t-103.5 -271.5q-52 -87 -118.5 -143.5t-113.5 -56.5h-12q-8 0 -25 -2t-26 -2q-2 0 -14 4q-53 19 -109 30q-36 8 -69.5 29.5t-65.5 56.5q-115 124 -161 254t-46 316zM659 1563
q-29 0 -85.5 27.5t-84.5 27.5q-46 0 -77.5 -30t-32.5 -30q-17 0 -67 24.5t-50 37.5q0 44 53 101t105 57q30 0 96 -28t104 -28q26 0 44.5 22.5t23.5 22.5q25 0 74 -23.5t49 -39.5q0 -28 -51.5 -84.5t-100.5 -56.5z" />
    <glyph glyph-name="Odieresis" unicode="&#xd6;" horiz-adv-x="1042" 
d="M549 1241q-26 0 -78 -83q-13 -22 -20 -34q-70 -112 -102 -235.5t-32 -292.5q0 -185 49 -327t87 -142q98 0 181 202.5t83 469.5q0 81 -24.5 193.5t-49.5 162.5q-15 31 -46.5 58.5t-47.5 27.5zM74 633q0 210 58.5 412.5t148.5 310.5q28 35 79 58.5t97 23.5q30 0 108 -33
t109 -39q48 -9 83.5 -36t76.5 -87q67 -101 105 -234.5t38 -271.5q0 -158 -39.5 -318.5t-103.5 -271.5q-52 -87 -118.5 -143.5t-113.5 -56.5h-12q-8 0 -25 -2t-26 -2q-2 0 -14 4q-53 19 -109 30q-36 8 -69.5 29.5t-65.5 56.5q-115 124 -161 254t-46 316zM708 1544
q-53 0 -98 29t-45 63q0 60 36 107t95 47q38 0 80.5 -53.5t42.5 -79.5q0 -32 -37.5 -72.5t-73.5 -40.5zM370 1544q-53 0 -99 29t-46 63q0 60 36 107t95 47q38 0 80.5 -53.5t42.5 -79.5q0 -33 -36.5 -73t-72.5 -40z" />
    <glyph glyph-name="multiply" unicode="&#xd7;" horiz-adv-x="1706" 
d="M403 1188l459 -459l461 459l117 -117l-459 -461l459 -458l-117 -119l-461 461l-459 -461l-116 119l458 458l-458 461z" />
    <glyph glyph-name="Oslash" unicode="&#xd8;" horiz-adv-x="1042" 
d="M270 76q-52 -77 -109 -167.5t-63 -90.5q-53 0 -81.5 28t-28.5 78q0 15 66 109.5t114 183.5q-44 86 -69 203t-25 235q0 78 15 174.5t44 204.5q31 113 66.5 190t81.5 132q28 35 79 58.5t97 23.5q15 0 62.5 -15.5t97.5 -40.5q11 -5 37 -10q88 -18 145 -84l15 25
q122 196 200 196q49 0 79.5 -23t30.5 -48q0 -13 -24 -30l-12 -9q-30 -26 -88 -97t-113 -155q44 -99 66 -201t22 -209q0 -159 -39 -318.5t-102 -271.5q-52 -87 -118.5 -143.5t-113.5 -56.5h-12q-8 0 -25 -2t-26 -2q-17 0 -40 10t-30 12q-9 3 -31.5 7.5t-36.5 9.5t-69 47
q-38 29 -62 47zM360 260q17 -30 40 -77q35 -72 57 -72q35 0 79.5 36.5t77.5 96.5q54 96 90.5 244.5t36.5 271.5q0 31 -3 62.5t-9 62.5zM686 1084q-9 71 -50.5 122t-76.5 51q-29 0 -85 -87q-16 -25 -25 -39q-74 -111 -109 -241.5t-35 -297.5q0 -32 4 -65t13 -72z" />
    <glyph glyph-name="Ugrave" unicode="&#xd9;" horiz-adv-x="1006" 
d="M119 606q0 178 12 376.5t12 213.5q2 114 10 153.5t27 39.5q63 0 130 -27.5t67 -52.5q0 -2 -2 -12q-6 -41 -6 -83q0 -10 1 -39t1 -47q0 -42 -11.5 -234t-11.5 -343q0 -198 33 -296.5t98 -98.5q94 0 128 116.5t34 591.5q0 40 -5 150.5t-5 181.5v98q0 79 9 101t36 22
q64 0 130 -20.5t66 -44.5q0 -7 -3 -25t-3 -29q0 -10 1 -28.5t1 -28.5q0 -16 -2 -58.5t-2 -68.5q0 -22 5 -215t5 -364q0 -183 -21 -297t-65 -168q-47 -60 -111.5 -94.5t-127.5 -34.5q-32 0 -84.5 19t-165.5 75q-35 17 -68 55t-57 88q-30 64 -42.5 151t-12.5 277zM541 1520
q-9 0 -78.5 30.5t-122.5 50.5q-21 8 -58 18q-85 24 -85 64q0 26 49 71.5t78 45.5q10 0 83 -45q66 -41 112 -68q12 -7 43 -19q71 -27 71 -58q0 -18 -37.5 -54t-54.5 -36z" />
    <glyph glyph-name="Uacute" unicode="&#xda;" horiz-adv-x="1006" 
d="M119 606q0 178 12 376.5t12 213.5q2 114 10 153.5t27 39.5q63 0 130 -27.5t67 -52.5q0 -2 -2 -12q-6 -41 -6 -83q0 -10 1 -39t1 -47q0 -42 -11.5 -234t-11.5 -343q0 -198 33 -296.5t98 -98.5q94 0 128 116.5t34 591.5q0 40 -5 150.5t-5 181.5v98q0 79 9 101t36 22
q64 0 130 -20.5t66 -44.5q0 -7 -3 -25t-3 -29q0 -10 1 -28.5t1 -28.5q0 -16 -2 -58.5t-2 -68.5q0 -22 5 -215t5 -364q0 -183 -21 -297t-65 -168q-47 -60 -111.5 -94.5t-127.5 -34.5q-32 0 -84.5 19t-165.5 75q-35 17 -68 55t-57 88q-30 64 -42.5 151t-12.5 277zM830 1679
q0 -36 -82 -59q-40 -10 -62 -19q-53 -20 -122 -50.5t-78 -30.5q-18 0 -55.5 36t-37.5 54q0 32 70 57q25 9 34 14q52 28 121.5 73.5t84.5 45.5q28 0 77.5 -46t49.5 -75z" />
    <glyph glyph-name="Ucircumflex" unicode="&#xdb;" horiz-adv-x="1006" 
d="M119 606q0 178 12 376.5t12 213.5q2 114 10 153.5t27 39.5q63 0 130 -27.5t67 -52.5q0 -2 -2 -12q-6 -41 -6 -83q0 -10 1 -39t1 -47q0 -42 -11.5 -234t-11.5 -343q0 -198 33 -296.5t98 -98.5q94 0 128 116.5t34 591.5q0 40 -5 150.5t-5 181.5v98q0 79 9 101t36 22
q64 0 130 -20.5t66 -44.5q0 -7 -3 -25t-3 -29q0 -10 1 -28.5t1 -28.5q0 -16 -2 -58.5t-2 -68.5q0 -22 5 -215t5 -364q0 -183 -21 -297t-65 -168q-47 -60 -111.5 -94.5t-127.5 -34.5q-32 0 -84.5 19t-165.5 75q-35 17 -68 55t-57 88q-30 64 -42.5 151t-12.5 277zM504 1821
q10 0 29.5 -3.5t29.5 -3.5q2 0 8.5 1t12.5 1q15 0 38 -29t44 -52q58 -66 95.5 -115.5t37.5 -61.5q0 -13 -12 -23.5t-27 -10.5q-101 0 -130.5 7t-43.5 27q-8 11 -22 31q-47 66 -60 66q-19 0 -66 -70q-11 -17 -18 -27q-14 -20 -44 -27t-130 -7q-15 0 -27 10.5t-12 23.5
q0 11 36.5 61t94.5 116q23 25 47 55q21 26 35 26q3 0 10.5 -1t12.5 -1q10 0 30.5 3.5t30.5 3.5z" />
    <glyph glyph-name="Udieresis" unicode="&#xdc;" horiz-adv-x="1006" 
d="M119 606q0 178 12 376.5t12 213.5q2 114 10 153.5t27 39.5q63 0 130 -27.5t67 -52.5q0 -2 -2 -12q-6 -41 -6 -83q0 -10 1 -39t1 -47q0 -42 -11.5 -234t-11.5 -343q0 -198 33 -296.5t98 -98.5q94 0 128 116.5t34 591.5q0 40 -5 150.5t-5 181.5v98q0 79 9 101t36 22
q64 0 130 -20.5t66 -44.5q0 -7 -3 -25t-3 -29q0 -10 1 -28.5t1 -28.5q0 -16 -2 -58.5t-2 -68.5q0 -22 5 -215t5 -364q0 -183 -21 -297t-65 -168q-47 -60 -111.5 -94.5t-127.5 -34.5q-32 0 -84.5 19t-165.5 75q-35 17 -68 55t-57 88q-30 64 -42.5 151t-12.5 277zM690 1544
q-53 0 -98 29t-45 63q0 60 36 107t95 47q38 0 80.5 -53.5t42.5 -79.5q0 -32 -37.5 -72.5t-73.5 -40.5zM352 1544q-53 0 -99 29t-46 63q0 60 36 107t95 47q38 0 80.5 -53.5t42.5 -79.5q0 -33 -36.5 -73t-72.5 -40z" />
    <glyph glyph-name="Yacute" unicode="&#xdd;" horiz-adv-x="868" 
d="M283 111q0 21 2 62.5t2 62.5q0 6 -1 18t-1 18q0 46 7 115.5t7 93.5q0 30 -63 204q-30 83 -48 134q-19 54 -63.5 167.5t-56.5 164.5q-12 48 -26.5 105.5t-14.5 60.5q0 8 9.5 36.5t16.5 28.5q2 0 5 -1t5 -1q4 0 11 3t10 3q5 0 16.5 -9t24.5 -9h16q48 0 116 -143
q19 -40 30 -62q57 -112 94.5 -213.5t38.5 -101.5q9 0 75.5 162.5t137.5 310.5q8 17 23 48q77 159 104 159q35 0 91 -39.5t56 -75.5q0 -10 -99 -234.5t-185 -453.5q-12 -30 -31 -82q-46 -119 -49 -147q-2 -17 -6 -105q-1 -42 -2 -67q-3 -49 -10 -136.5t-7 -119.5v-35
q0 -39 -10.5 -54.5t-36.5 -15.5q-6 0 -43.5 9.5t-81.5 23.5q-36 12 -49.5 27.5t-13.5 54.5v33zM760 1679q0 -36 -82 -59q-40 -10 -62 -19q-53 -20 -122 -50.5t-78 -30.5q-18 0 -55.5 36t-37.5 54q0 32 70 57q25 9 34 14q52 28 121.5 73.5t84.5 45.5q28 0 77.5 -46t49.5 -75z
" />
    <glyph glyph-name="Thorn" unicode="&#xde;" horiz-adv-x="872" 
d="M362 510q1 -24 4.5 -33.5t16.5 -9.5q74 0 130 89t56 222q0 94 -30.5 134t-104.5 40h-31q-28 0 -34.5 -15.5t-6.5 -107.5q0 -15 2.5 -45.5t2.5 -46.5q0 -13 -2.5 -41.5t-2.5 -44.5q0 -17 3.5 -45.5t3.5 -38.5q0 -17 -3.5 -36.5t-3.5 -20.5zM143 31q0 4 -1 30
q-11 225 -11 498q0 56 2 164t2 160q0 104 -2 256.5t-2 199.5q0 46 39.5 63t140.5 17q20 0 42 -24.5t22 -40.5q0 -8 -3 -27t-3 -31q0 -14 2 -42.5t2 -41.5q0 -9 -2 -23v-3q0 -7 1.5 -8.5t10.5 -1.5h20q64 0 121.5 -17.5t104.5 -50.5q87 -62 143.5 -153.5t56.5 -168.5
q0 -143 -69.5 -271.5t-188.5 -205.5q-48 -30 -123 -59t-75 -39q0 -3 1 -11t1 -14q0 -78 -13 -148q-2 -10 -2 -11q1 -8 7 -18.5t6 -16.5q0 -26 -17.5 -46t-42.5 -20q-59 0 -114.5 31t-55.5 74z" />
    <glyph glyph-name="germandbls" unicode="&#xdf;" horiz-adv-x="909" 
d="M297 -49q-46 0 -105 23t-59 49q0 8 2 27.5t2 31.5q0 23 -3 73.5t-3 77.5q0 13 3 63t3 87v47q0 66 6.5 136.5t6.5 74.5v4q0 17 -54.5 29.5t-54.5 50.5q0 8 21.5 50.5t27.5 47.5q16 15 40 18t24 25q0 1 -1 7.5t-1 13.5q0 20 1 50.5t1 41.5q0 148 13 226t42 104
q67 61 119.5 94t83.5 33q35 0 99 -30t134 -81t91.5 -94.5t21.5 -108.5q0 -147 -99 -266q-18 -22 -18 -27q0 -11 50.5 -43t78.5 -71q34 -47 46.5 -84t12.5 -94q0 -167 -12 -242.5t-41 -132.5q-48 -98 -116 -158.5t-113 -60.5q-31 0 -80 23.5t-49 41.5q0 2 1 7t1 8q0 5 -6 16
t-6 18q0 23 16 60t27 37q5 0 14 -2t14 -2q51 0 87 103.5t36 250.5q0 73 -28 125.5t-74 68.5q-5 2 -17 6q-77 25 -77 54q0 42 54 86q24 19 34 30q36 44 52.5 99t16.5 131q0 80 -24.5 120t-73.5 40q-67 0 -91 -83.5t-24 -420.5v-115q0 -17 1 -67.5t1 -83.5q0 -16 -4 -57
t-4 -66q0 -23 1 -71.5t1 -74.5q0 -10 -1 -30.5t-1 -30.5q0 -55 3 -115q1 -15 1 -18q0 -43 -12 -61.5t-39 -18.5z" />
    <glyph glyph-name="agrave" unicode="&#xe0;" horiz-adv-x="664" 
d="M367 299q-46 0 -105 -39.5t-59 -64.5q0 -20 11.5 -28.5t37.5 -8.5q76 0 108.5 12.5t32.5 50.5q0 2 -1 7.5t-1 11.5l1 5t1 9q0 25 -6 35t-20 10zM408 20q-52 -20 -89.5 -29t-64.5 -9q-75 0 -137 73.5t-62 134.5q0 58 15.5 98.5t48.5 69.5q48 43 115 76t96 33q12 0 25.5 -1
t15.5 -1q14 0 19 8.5t5 30.5q0 18 -2 50.5t-2 47.5q0 11 2 35t2 37q0 21 -6 34t-14 13q-17 0 -62 -69q-30 -46 -51 -74q-14 -20 -31 -50q-24 -43 -47 -43q-27 0 -71.5 23.5t-44.5 50.5q0 20 38 106t70 128l12 15q86 110 129 110q13 0 59 -26.5t95 -45.5q64 -25 90.5 -83
t26.5 -202q0 -41 -3 -121.5t-3 -120.5q0 -18 1 -55t1 -57q0 -18 -1 -65t-1 -76t1 -57q1 -7 1 -9q0 -23 -15.5 -35t-44.5 -12q-42 0 -68.5 15t-47.5 52zM385 1004q-9 0 -78.5 30.5t-122.5 50.5q-21 8 -58 18q-85 24 -85 64q0 26 49 71.5t78 45.5q10 0 83 -45q66 -41 112 -68
q12 -7 43 -19q71 -27 71 -58q0 -18 -37.5 -54t-54.5 -36z" />
    <glyph glyph-name="aacute" unicode="&#xe1;" horiz-adv-x="664" 
d="M367 299q-46 0 -105 -39.5t-59 -64.5q0 -20 11.5 -28.5t37.5 -8.5q76 0 108.5 12.5t32.5 50.5q0 2 -1 7.5t-1 11.5l1 5t1 9q0 25 -6 35t-20 10zM408 20q-52 -20 -89.5 -29t-64.5 -9q-75 0 -137 73.5t-62 134.5q0 58 15.5 98.5t48.5 69.5q48 43 115 76t96 33q12 0 25.5 -1
t15.5 -1q14 0 19 8.5t5 30.5q0 18 -2 50.5t-2 47.5q0 11 2 35t2 37q0 21 -6 34t-14 13q-17 0 -62 -69q-30 -46 -51 -74q-14 -20 -31 -50q-24 -43 -47 -43q-27 0 -71.5 23.5t-44.5 50.5q0 20 38 106t70 128l12 15q86 110 129 110q13 0 59 -26.5t95 -45.5q64 -25 90.5 -83
t26.5 -202q0 -41 -3 -121.5t-3 -120.5q0 -18 1 -55t1 -57q0 -18 -1 -65t-1 -76t1 -57q1 -7 1 -9q0 -23 -15.5 -35t-44.5 -12q-42 0 -68.5 15t-47.5 52zM674 1163q0 -36 -82 -59q-40 -10 -62 -19q-53 -20 -122 -50.5t-78 -30.5q-18 0 -55.5 36t-37.5 54q0 32 70 57
q25 9 34 14q52 28 121.5 73.5t84.5 45.5q28 0 77.5 -46t49.5 -75z" />
    <glyph glyph-name="acircumflex" unicode="&#xe2;" horiz-adv-x="664" 
d="M367 299q-46 0 -105 -39.5t-59 -64.5q0 -20 11.5 -28.5t37.5 -8.5q76 0 108.5 12.5t32.5 50.5q0 2 -1 7.5t-1 11.5l1 5t1 9q0 25 -6 35t-20 10zM408 20q-52 -20 -89.5 -29t-64.5 -9q-75 0 -137 73.5t-62 134.5q0 58 15.5 98.5t48.5 69.5q48 43 115 76t96 33q12 0 25.5 -1
t15.5 -1q14 0 19 8.5t5 30.5q0 18 -2 50.5t-2 47.5q0 11 2 35t2 37q0 21 -6 34t-14 13q-17 0 -62 -69q-30 -46 -51 -74q-14 -20 -31 -50q-24 -43 -47 -43q-27 0 -71.5 23.5t-44.5 50.5q0 20 38 106t70 128l12 15q86 110 129 110q13 0 59 -26.5t95 -45.5q64 -25 90.5 -83
t26.5 -202q0 -41 -3 -121.5t-3 -120.5q0 -18 1 -55t1 -57q0 -18 -1 -65t-1 -76t1 -57q1 -7 1 -9q0 -23 -15.5 -35t-44.5 -12q-42 0 -68.5 15t-47.5 52zM348 1305q10 0 29.5 -3.5t29.5 -3.5q2 0 8.5 1t12.5 1q15 0 38 -29t44 -52q58 -66 95.5 -115.5t37.5 -61.5
q0 -13 -12 -23.5t-27 -10.5q-101 0 -130.5 7t-43.5 27q-8 11 -22 31q-47 66 -60 66q-19 0 -66 -70q-11 -17 -18 -27q-14 -20 -44 -27t-130 -7q-15 0 -27 10.5t-12 23.5q0 11 36.5 61t94.5 116q23 25 47 55q21 26 35 26q3 0 10.5 -1t12.5 -1q10 0 30.5 3.5t30.5 3.5z" />
    <glyph glyph-name="atilde" unicode="&#xe3;" horiz-adv-x="664" 
d="M367 299q-46 0 -105 -39.5t-59 -64.5q0 -20 11.5 -28.5t37.5 -8.5q76 0 108.5 12.5t32.5 50.5q0 2 -1 7.5t-1 11.5l1 5t1 9q0 25 -6 35t-20 10zM408 20q-52 -20 -89.5 -29t-64.5 -9q-75 0 -137 73.5t-62 134.5q0 58 15.5 98.5t48.5 69.5q48 43 115 76t96 33q12 0 25.5 -1
t15.5 -1q14 0 19 8.5t5 30.5q0 18 -2 50.5t-2 47.5q0 11 2 35t2 37q0 21 -6 34t-14 13q-17 0 -62 -69q-30 -46 -51 -74q-14 -20 -31 -50q-24 -43 -47 -43q-27 0 -71.5 23.5t-44.5 50.5q0 20 38 106t70 128l12 15q86 110 129 110q13 0 59 -26.5t95 -45.5q64 -25 90.5 -83
t26.5 -202q0 -41 -3 -121.5t-3 -120.5q0 -18 1 -55t1 -57q0 -18 -1 -65t-1 -76t1 -57q1 -7 1 -9q0 -23 -15.5 -35t-44.5 -12q-42 0 -68.5 15t-47.5 52zM485 1047q-29 0 -85.5 27.5t-84.5 27.5q-46 0 -77.5 -30t-32.5 -30q-17 0 -67 24.5t-50 37.5q0 44 53 101t105 57
q30 0 96 -28t104 -28q26 0 44.5 22.5t23.5 22.5q25 0 74 -23.5t49 -39.5q0 -28 -51.5 -84.5t-100.5 -56.5z" />
    <glyph glyph-name="adieresis" unicode="&#xe4;" horiz-adv-x="664" 
d="M367 299q-46 0 -105 -39.5t-59 -64.5q0 -20 11.5 -28.5t37.5 -8.5q76 0 108.5 12.5t32.5 50.5q0 2 -1 7.5t-1 11.5l1 5t1 9q0 25 -6 35t-20 10zM408 20q-52 -20 -89.5 -29t-64.5 -9q-75 0 -137 73.5t-62 134.5q0 58 15.5 98.5t48.5 69.5q48 43 115 76t96 33q12 0 25.5 -1
t15.5 -1q14 0 19 8.5t5 30.5q0 18 -2 50.5t-2 47.5q0 11 2 35t2 37q0 21 -6 34t-14 13q-17 0 -62 -69q-30 -46 -51 -74q-14 -20 -31 -50q-24 -43 -47 -43q-27 0 -71.5 23.5t-44.5 50.5q0 20 38 106t70 128l12 15q86 110 129 110q13 0 59 -26.5t95 -45.5q64 -25 90.5 -83
t26.5 -202q0 -41 -3 -121.5t-3 -120.5q0 -18 1 -55t1 -57q0 -18 -1 -65t-1 -76t1 -57q1 -7 1 -9q0 -23 -15.5 -35t-44.5 -12q-42 0 -68.5 15t-47.5 52zM534 1028q-53 0 -98 29t-45 63q0 60 36 107t95 47q38 0 80.5 -53.5t42.5 -79.5q0 -32 -37.5 -72.5t-73.5 -40.5z
M196 1028q-53 0 -99 29t-46 63q0 60 36 107t95 47q38 0 80.5 -53.5t42.5 -79.5q0 -33 -36.5 -73t-72.5 -40z" />
    <glyph glyph-name="aring" unicode="&#xe5;" horiz-adv-x="664" 
d="M360 1282q-32 0 -70 -44.5t-38 -92.5q0 -37 18 -65.5t39 -28.5q31 0 71 48.5t40 102.5q0 33 -18.5 56.5t-41.5 23.5zM129 1149q0 67 69 140t103 73q94 0 168 -49t74 -125q0 -71 -66.5 -138t-134.5 -67q-91 0 -152 49.5t-61 116.5zM367 299q-46 0 -105 -39.5t-59 -64.5
q0 -20 11.5 -28.5t37.5 -8.5q76 0 108.5 12.5t32.5 50.5q0 2 -1 7.5t-1 11.5l1 5t1 9q0 25 -6 35t-20 10zM408 20q-52 -20 -89.5 -29t-64.5 -9q-75 0 -137 73.5t-62 134.5q0 58 15.5 98.5t48.5 69.5q48 43 115 76t96 33q12 0 25.5 -1t15.5 -1q14 0 19 8.5t5 30.5
q0 18 -2 50.5t-2 47.5q0 11 2 35t2 37q0 21 -6 34t-14 13q-17 0 -62 -69q-30 -46 -51 -74q-14 -20 -31 -50q-24 -43 -47 -43q-27 0 -71.5 23.5t-44.5 50.5q0 20 38 106t70 128l12 15q86 110 129 110q13 0 59 -26.5t95 -45.5q65 -25 91 -81.5t26 -203.5q0 -41 -3 -115
t-3 -106q0 -16 1 -49t1 -49q0 -31 -1 -86t-1 -78q0 -8 1 -25.5t1 -27.5q0 -35 -15 -53.5t-43 -18.5q-45 0 -71 15t-47 52z" />
    <glyph glyph-name="ae" unicode="&#xe6;" horiz-adv-x="1006" 
d="M674 768q-9 0 -19 -13t-16 -32q-10 -30 -26 -80q-38 -111 -38 -125q1 -4 4.5 -6t10.5 -2q21 0 82 15.5t61 23.5q0 5 -3 24.5t-3 34.5v25q0 55 -16 95t-37 40zM367 307q-48 0 -110 -44.5t-62 -74.5q0 -21 11.5 -31t39.5 -10q78 0 112.5 14.5t34.5 57.5q0 4 -1 11t-1 10
q0 1 1 8t1 12q0 26 -6 36.5t-20 10.5zM477 836q4 0 14 15q44 67 115 67q47 0 121 -25t100 -51q40 -39 64 -125.5t24 -194.5q0 -20 -3 -53.5t-3 -46.5q0 -25 -72 -34q-63 -9 -112 -17q-26 -5 -69 -11q-105 -14 -105 -71v-3q2 -14 2 -24q0 -7 -1 -22t-1 -25q0 -38 13 -58
t38 -20q31 0 77.5 35t94.5 94q9 12 23 32q30 44 47 44q32 0 64 -26t32 -52q0 -4 -4 -12.5t-4 -13.5q0 -3 2 -11t2 -12q0 -15 -35.5 -74.5t-83.5 -107.5q-56 -56 -86 -70t-74 -14q-41 0 -116.5 42t-79.5 42t-56 -34t-114 -34q-99 0 -169.5 78t-70.5 147q0 58 15.5 98.5
t48.5 69.5q46 43 113.5 76t97.5 33q12 0 25.5 -1t15.5 -1q14 0 19 8.5t5 30.5q0 18 -2 50.5t-2 47.5q0 11 2 35t2 37q0 21 -6 34t-14 13q-17 0 -62 -69q-30 -46 -51 -74q-14 -20 -31 -50q-24 -43 -47 -43q-27 0 -72 23.5t-45 50.5q0 20 38.5 105.5t70.5 128.5l12 15
q86 110 129 110q21 0 83 -41t81 -41z" />
    <glyph glyph-name="ccedilla" unicode="&#xe7;" horiz-adv-x="664" 
d="M59 340q0 103 24.5 218t57.5 179q11 20 29 55q67 132 104 132q21 0 103 -21.5t119 -40.5q69 -33 78.5 -61t9.5 -166q0 -78 -20 -114t-62 -36q-7 0 -20.5 7.5t-24.5 7.5q-31 0 -50.5 32.5t-19.5 83.5q0 18 2 46t2 36q0 16 -5 23.5t-15 7.5q-25 0 -37 -56q-4 -19 -6 -27
q-2 -9 -8 -30q-54 -206 -54 -415q0 -41 8.5 -63.5t22.5 -22.5q32 0 79 64q19 26 30 38q21 24 47.5 96t52.5 72q27 0 72 -41.5t45 -62.5q0 -27 -23 -92.5t-55 -110.5q-40 -58 -85 -90.5t-83 -32.5q-40 0 -85 20t-130 78q-62 43 -82.5 103t-20.5 184zM281 0h73q-1 -14 -5 -40
q-7 -52 -7 -69q0 -11 8 -19.5t19 -8.5q4 0 16.5 1t20.5 1q80 0 130 -45.5t50 -118.5q0 -78 -59.5 -121t-167.5 -43q-97 0 -191 30t-94 56q0 28 15 49t32 21q5 0 27 -12q97 -56 194 -56q46 0 69 20t23 60q0 32 -22 50t-64 18q-10 0 -29 -1t-28 -1q-21 0 -32 12.5t-11 36.5
t8.5 72.5t24.5 107.5z" />
    <glyph glyph-name="egrave" unicode="&#xe8;" horiz-adv-x="702" 
d="M373 760q-7 0 -16 -13t-15 -30q-10 -33 -27 -85q-30 -97 -30 -110q0 -3 4.5 -5.5t9.5 -2.5q18 0 71.5 15t53.5 24q0 95 -14 151t-37 56zM57 330q0 141 46 299t102 235q20 29 44 41.5t58 12.5q47 0 121 -25t100 -51q40 -38 63 -124t23 -196q0 -20 -2 -53.5t-2 -46.5
q0 -25 -72 -34q-63 -9 -112 -17q-26 -5 -69 -11q-105 -14 -105 -71v-27v-47q0 -38 13 -58t38 -20q31 0 78.5 35.5t93.5 93.5q9 12 23 32q30 44 47 44q32 0 64 -26t32 -52q0 -4 -5 -12.5t-5 -13.5q0 -3 3 -11t3 -12q0 -15 -35.5 -74.5t-83.5 -107.5q-55 -56 -86 -70t-74 -14
q-24 0 -80 23t-63 30l-9 8q-149 122 -149 320zM389 1004q-9 0 -78.5 30.5t-122.5 50.5q-21 8 -58 18q-85 24 -85 64q0 26 49 71.5t78 45.5q10 0 83 -45q66 -41 112 -68q12 -7 43 -19q71 -27 71 -58q0 -18 -37.5 -54t-54.5 -36z" />
    <glyph glyph-name="eacute" unicode="&#xe9;" horiz-adv-x="702" 
d="M373 760q-7 0 -16 -13t-15 -30q-10 -33 -27 -85q-30 -97 -30 -110q0 -3 4.5 -5.5t9.5 -2.5q18 0 71.5 15t53.5 24q0 95 -14 151t-37 56zM57 330q0 141 46 299t102 235q20 29 44 41.5t58 12.5q47 0 121 -25t100 -51q40 -38 63 -124t23 -196q0 -20 -2 -53.5t-2 -46.5
q0 -25 -72 -34q-63 -9 -112 -17q-26 -5 -69 -11q-105 -14 -105 -71v-27v-47q0 -38 13 -58t38 -20q31 0 78.5 35.5t93.5 93.5q9 12 23 32q30 44 47 44q32 0 64 -26t32 -52q0 -4 -5 -12.5t-5 -13.5q0 -3 3 -11t3 -12q0 -15 -35.5 -74.5t-83.5 -107.5q-55 -56 -86 -70t-74 -14
q-24 0 -80 23t-63 30l-9 8q-149 122 -149 320zM678 1163q0 -36 -82 -59q-40 -10 -62 -19q-53 -20 -122 -50.5t-78 -30.5q-18 0 -55.5 36t-37.5 54q0 32 70 57q25 9 34 14q52 28 121.5 73.5t84.5 45.5q28 0 77.5 -46t49.5 -75z" />
    <glyph glyph-name="ecircumflex" unicode="&#xea;" horiz-adv-x="702" 
d="M373 760q-7 0 -16 -13t-15 -30q-10 -33 -27 -85q-30 -97 -30 -110q0 -3 4.5 -5.5t9.5 -2.5q18 0 71.5 15t53.5 24q0 95 -14 151t-37 56zM57 330q0 141 46 299t102 235q20 29 44 41.5t58 12.5q47 0 121 -25t100 -51q40 -38 63 -124t23 -196q0 -20 -2 -53.5t-2 -46.5
q0 -25 -72 -34q-63 -9 -112 -17q-26 -5 -69 -11q-105 -14 -105 -71v-27v-47q0 -38 13 -58t38 -20q31 0 78.5 35.5t93.5 93.5q9 12 23 32q30 44 47 44q32 0 64 -26t32 -52q0 -4 -5 -12.5t-5 -13.5q0 -3 3 -11t3 -12q0 -15 -35.5 -74.5t-83.5 -107.5q-55 -56 -86 -70t-74 -14
q-24 0 -80 23t-63 30l-9 8q-149 122 -149 320zM352 1305q10 0 29.5 -3.5t29.5 -3.5q2 0 8.5 1t12.5 1q15 0 38 -29t44 -52q58 -66 95.5 -115.5t37.5 -61.5q0 -13 -12 -23.5t-27 -10.5q-101 0 -130.5 7t-43.5 27q-8 11 -22 31q-47 66 -60 66q-19 0 -66 -70q-11 -17 -18 -27
q-14 -20 -44 -27t-130 -7q-15 0 -27 10.5t-12 23.5q0 11 36.5 61t94.5 116q23 25 47 55q21 26 35 26q3 0 10.5 -1t12.5 -1q10 0 30.5 3.5t30.5 3.5z" />
    <glyph glyph-name="edieresis" unicode="&#xeb;" horiz-adv-x="702" 
d="M373 760q-7 0 -16 -13t-15 -30q-10 -33 -27 -85q-30 -97 -30 -110q0 -3 4.5 -5.5t9.5 -2.5q18 0 71.5 15t53.5 24q0 95 -14 151t-37 56zM57 330q0 141 46 299t102 235q20 29 44 41.5t58 12.5q47 0 121 -25t100 -51q40 -38 63 -124t23 -196q0 -20 -2 -53.5t-2 -46.5
q0 -25 -72 -34q-63 -9 -112 -17q-26 -5 -69 -11q-105 -14 -105 -71v-27v-47q0 -38 13 -58t38 -20q31 0 78.5 35.5t93.5 93.5q9 12 23 32q30 44 47 44q32 0 64 -26t32 -52q0 -4 -5 -12.5t-5 -13.5q0 -3 3 -11t3 -12q0 -15 -35.5 -74.5t-83.5 -107.5q-55 -56 -86 -70t-74 -14
q-24 0 -80 23t-63 30l-9 8q-149 122 -149 320zM538 1028q-53 0 -98 29t-45 63q0 60 36 107t95 47q38 0 80.5 -53.5t42.5 -79.5q0 -32 -37.5 -72.5t-73.5 -40.5zM200 1028q-53 0 -99 29t-46 63q0 60 36 107t95 47q38 0 80.5 -53.5t42.5 -79.5q0 -33 -36.5 -73t-72.5 -40z" />
    <glyph glyph-name="igrave" unicode="&#xec;" horiz-adv-x="465" 
d="M279 -43q-93 0 -123.5 41t-30.5 221v49q0 84 1 184.5t1 116.5v109q0 162 9 196.5t50 34.5q79 0 122.5 -23t43.5 -65q0 -3 -1 -19q-11 -127 -11 -280v-21q-2 -93 -2 -184v-112q0 -54 2 -116t2 -69q0 -31 -16 -47t-47 -16zM270 1004q-9 0 -78.5 30.5t-122.5 50.5
q-21 8 -58 18q-85 24 -85 64q0 26 49 71.5t78 45.5q10 0 83 -45q66 -41 112 -68q12 -7 43 -19q71 -27 71 -58q0 -18 -37.5 -54t-54.5 -36z" />
    <glyph glyph-name="iacute" unicode="&#xed;" horiz-adv-x="465" 
d="M279 -43q-93 0 -123.5 41t-30.5 221v49q0 84 1 184.5t1 116.5v109q0 162 9 196.5t50 34.5q79 0 122.5 -23t43.5 -65q0 -3 -1 -19q-11 -127 -11 -280v-21q-2 -93 -2 -184v-112q0 -54 2 -116t2 -69q0 -31 -16 -47t-47 -16zM559 1163q0 -36 -82 -59q-40 -10 -62 -19
q-53 -20 -122 -50.5t-78 -30.5q-18 0 -55.5 36t-37.5 54q0 32 70 57q25 9 34 14q52 28 121.5 73.5t84.5 45.5q28 0 77.5 -46t49.5 -75z" />
    <glyph glyph-name="icircumflex" unicode="&#xee;" horiz-adv-x="465" 
d="M279 -43q-93 0 -123.5 41t-30.5 221v49q0 84 1 184.5t1 116.5v109q0 162 9 196.5t50 34.5q79 0 122.5 -23t43.5 -65q0 -3 -1 -19q-11 -127 -11 -280v-21q-2 -93 -2 -184v-112q0 -54 2 -116t2 -69q0 -31 -16 -47t-47 -16zM233 1305q10 0 29.5 -3.5t29.5 -3.5q2 0 8.5 1
t12.5 1q15 0 38 -29t44 -52q58 -66 95.5 -115.5t37.5 -61.5q0 -13 -12 -23.5t-27 -10.5q-101 0 -130.5 7t-43.5 27q-8 11 -22 31q-47 66 -60 66q-19 0 -66 -70q-11 -17 -18 -27q-14 -20 -44 -27t-130 -7q-15 0 -27 10.5t-12 23.5q0 11 36.5 61t94.5 116q23 25 47 55
q21 26 35 26q3 0 10.5 -1t12.5 -1q10 0 30.5 3.5t30.5 3.5z" />
    <glyph glyph-name="idieresis" unicode="&#xef;" horiz-adv-x="465" 
d="M279 -43q-93 0 -123.5 41t-30.5 221v49q0 84 1 184.5t1 116.5v109q0 162 9 196.5t50 34.5q79 0 122.5 -23t43.5 -65q0 -3 -1 -19q-11 -127 -11 -280v-21q-2 -93 -2 -184v-112q0 -54 2 -116t2 -69q0 -31 -16 -47t-47 -16zM419 1028q-53 0 -98 29t-45 63q0 60 36 107t95 47
q38 0 80.5 -53.5t42.5 -79.5q0 -32 -37.5 -72.5t-73.5 -40.5zM81 1028q-53 0 -99 29t-46 63q0 60 36 107t95 47q38 0 80.5 -53.5t42.5 -79.5q0 -33 -36.5 -73t-72.5 -40z" />
    <glyph glyph-name="eth" unicode="&#xf0;" horiz-adv-x="717" 
d="M268 328q0 -84 16 -142.5t35 -58.5q39 0 80 111t41 239q0 98 -19 171t-40 73q-29 0 -71 -133.5t-42 -259.5zM391 864q-29 78 -71.5 150.5t-51.5 72.5q-8 0 -86.5 -45t-85.5 -45q-4 0 -18.5 19.5t-14.5 34.5q0 8 3.5 21.5t3.5 19.5q0 25 64.5 53.5t64.5 40.5
q0 4 -24.5 30.5t-24.5 43.5q0 35 39 80.5t96 45.5q11 0 29 -29.5t34 -49.5q14 -18 30 -41q15 -23 21 -23q9 0 70 33t86 33q29 0 58.5 -22t29.5 -40q0 -26 -5.5 -37.5t-18.5 -13.5q-59 -10 -107.5 -29.5t-48.5 -27.5q0 -3 12 -25q53 -96 98 -207q40 -98 60 -206t20 -226
q0 -225 -77.5 -373.5t-176.5 -148.5q-19 0 -41 6t-47 18q-98 46 -151 72q-53 38 -77 110.5t-24 196.5q0 105 29 234t72 221q21 48 49 71t63 23q18 0 44.5 -9t74.5 -32z" />
    <glyph glyph-name="ntilde" unicode="&#xf1;" horiz-adv-x="750" 
d="M246 -45q-26 0 -59 12t-62 31q-12 8 -18.5 49.5t-6.5 108.5q0 140 2 316t2 212q0 22 -1 52.5t-1 39.5q0 54 16.5 68t78.5 14q35 0 52 -11.5t17 -37.5q0 -4 -1 -12t-1 -11q0 -6 2 -9t6 -3q1 0 47.5 72t94.5 72q130 0 182.5 -65.5t52.5 -264.5q0 -138 -8 -318.5t-8 -201.5
q-2 -36 -18 -52t-50 -16q-66 0 -102.5 34.5t-36.5 98.5q0 20 8 190.5t8 321.5q0 33 -3 50.5t-9 17.5q-46 0 -90.5 -161t-44.5 -398q0 -18 2 -63.5t2 -74.5q0 -35 -10 -48t-43 -13zM512 1047q-29 0 -85.5 27.5t-84.5 27.5q-46 0 -77.5 -30t-32.5 -30q-17 0 -67 24.5t-50 37.5
q0 44 53 101t105 57q30 0 96 -28t104 -28q26 0 44.5 22.5t23.5 22.5q25 0 74 -23.5t49 -39.5q0 -28 -51.5 -84.5t-100.5 -56.5z" />
    <glyph glyph-name="ograve" unicode="&#xf2;" horiz-adv-x="717" 
d="M268 332q0 -85 16 -145t35 -60q39 0 80 113.5t41 242.5q0 99 -19 173.5t-40 74.5q-30 0 -71.5 -135t-41.5 -264zM59 362q0 110 29 240t72 223q22 50 49 73.5t61 23.5q15 0 93 -19.5t116 -36.5q84 -38 129 -149t45 -281q0 -195 -82 -339t-174 -144q-19 0 -40 6t-45 18
q-101 48 -152 76q-53 39 -77 113t-24 196zM395 1004q-9 0 -78.5 30.5t-122.5 50.5q-21 8 -58 18q-85 24 -85 64q0 26 49 71.5t78 45.5q10 0 83 -45q66 -41 112 -68q12 -7 43 -19q71 -27 71 -58q0 -18 -37.5 -54t-54.5 -36z" />
    <glyph glyph-name="oacute" unicode="&#xf3;" horiz-adv-x="717" 
d="M268 332q0 -85 16 -145t35 -60q39 0 80 113.5t41 242.5q0 99 -19 173.5t-40 74.5q-30 0 -71.5 -135t-41.5 -264zM59 362q0 110 29 240t72 223q22 50 49 73.5t61 23.5q15 0 93 -19.5t116 -36.5q84 -38 129 -149t45 -281q0 -195 -82 -339t-174 -144q-19 0 -40 6t-45 18
q-101 48 -152 76q-53 39 -77 113t-24 196zM684 1163q0 -36 -82 -59q-40 -10 -62 -19q-53 -20 -122 -50.5t-78 -30.5q-18 0 -55.5 36t-37.5 54q0 32 70 57q25 9 34 14q52 28 121.5 73.5t84.5 45.5q28 0 77.5 -46t49.5 -75z" />
    <glyph glyph-name="ocircumflex" unicode="&#xf4;" horiz-adv-x="717" 
d="M268 332q0 -85 16 -145t35 -60q39 0 80 113.5t41 242.5q0 99 -19 173.5t-40 74.5q-30 0 -71.5 -135t-41.5 -264zM59 362q0 110 29 240t72 223q22 50 49 73.5t61 23.5q15 0 93 -19.5t116 -36.5q84 -38 129 -149t45 -281q0 -195 -82 -339t-174 -144q-19 0 -40 6t-45 18
q-101 48 -152 76q-53 39 -77 113t-24 196zM358 1305q10 0 29.5 -3.5t29.5 -3.5q2 0 8.5 1t12.5 1q15 0 38 -29t44 -52q58 -66 95.5 -115.5t37.5 -61.5q0 -13 -12 -23.5t-27 -10.5q-101 0 -130.5 7t-43.5 27q-8 11 -22 31q-47 66 -60 66q-19 0 -66 -70q-11 -17 -18 -27
q-14 -20 -44 -27t-130 -7q-15 0 -27 10.5t-12 23.5q0 11 36.5 61t94.5 116q23 25 47 55q21 26 35 26q3 0 10.5 -1t12.5 -1q10 0 30.5 3.5t30.5 3.5z" />
    <glyph glyph-name="otilde" unicode="&#xf5;" horiz-adv-x="717" 
d="M268 332q0 -85 16 -145t35 -60q39 0 80 113.5t41 242.5q0 99 -19 173.5t-40 74.5q-30 0 -71.5 -135t-41.5 -264zM59 362q0 110 29 240t72 223q22 50 49 73.5t61 23.5q15 0 93 -19.5t116 -36.5q84 -38 129 -149t45 -281q0 -195 -82 -339t-174 -144q-19 0 -40 6t-45 18
q-101 48 -152 76q-53 39 -77 113t-24 196zM495 1047q-29 0 -85.5 27.5t-84.5 27.5q-46 0 -77.5 -30t-32.5 -30q-17 0 -67 24.5t-50 37.5q0 44 53 101t105 57q30 0 96 -28t104 -28q26 0 44.5 22.5t23.5 22.5q25 0 74 -23.5t49 -39.5q0 -28 -51.5 -84.5t-100.5 -56.5z" />
    <glyph glyph-name="odieresis" unicode="&#xf6;" horiz-adv-x="717" 
d="M268 332q0 -85 16 -145t35 -60q39 0 80 113.5t41 242.5q0 99 -19 173.5t-40 74.5q-30 0 -71.5 -135t-41.5 -264zM59 362q0 110 29 240t72 223q22 50 49 73.5t61 23.5q15 0 93 -19.5t116 -36.5q84 -38 129 -149t45 -281q0 -195 -82 -339t-174 -144q-19 0 -40 6t-45 18
q-101 48 -152 76q-53 39 -77 113t-24 196zM544 1028q-53 0 -98 29t-45 63q0 60 36 107t95 47q38 0 80.5 -53.5t42.5 -79.5q0 -32 -37.5 -72.5t-73.5 -40.5zM206 1028q-53 0 -99 29t-46 63q0 60 36 107t95 47q38 0 80.5 -53.5t42.5 -79.5q0 -33 -36.5 -73t-72.5 -40z" />
    <glyph glyph-name="divide" unicode="&#xf7;" horiz-adv-x="1706" 
d="M854 367q57 0 97 -40.5t40 -97.5q0 -56 -39.5 -95.5t-97.5 -39.5t-97.5 39t-39.5 96t40.5 97.5t96.5 40.5zM254 694h1198v-166h-1198v166zM854 1128q57 0 97 -41t40 -98q0 -56 -39.5 -95.5t-97.5 -39.5t-97.5 39t-39.5 96t40.5 98t96.5 41z" />
    <glyph glyph-name="oslash" unicode="&#xf8;" horiz-adv-x="717" 
d="M248 206q9 -46 22.5 -69.5t30.5 -23.5q21 0 43 22.5t41 65.5q35 77 53.5 145.5t18.5 122.5q0 1 -1.5 15.5t-2.5 27.5zM432 649q-12 49 -26 72.5t-31 23.5q-33 0 -74.5 -110t-64.5 -273zM166 49q-34 -42 -69 -115t-60 -73q-1 0 -6 1t-6 1q-5 0 -14 -4t-15 -4
q-24 0 -41.5 21.5t-17.5 35.5q0 16 43.5 86.5t107.5 148.5q-16 82 -22.5 132.5t-6.5 91.5q0 100 29.5 232.5t71.5 221.5q22 50 49 73.5t61 23.5q10 0 47 -10.5t64 -16.5q8 -2 22 -5q94 -22 129 -65q34 53 67.5 120t51.5 67q36 0 67.5 -23.5t31.5 -48.5q0 -6 -72 -106
q-46 -67 -76 -109q25 -44 38 -118.5t13 -170.5q0 -195 -82 -339t-174 -144q-37 0 -114 40t-117 56z" />
    <glyph glyph-name="ugrave" unicode="&#xf9;" horiz-adv-x="739" 
d="M324 -29q-50 0 -113.5 39.5t-83.5 87.5q-24 56 -34.5 114.5t-10.5 147.5q0 21 1 72.5t1 81.5q0 42 8 116q3 28 4 41q4 41 8 102q4 70 11 79q6 10 23 19.5t34 9.5q46 0 93.5 -25t47.5 -59q0 -38 -13 -199t-13 -279q0 -70 6 -119.5t12 -49.5q9 0 44.5 43.5t53.5 95.5
q12 30 21.5 130t9.5 208q0 17 -1 45.5t-1 38.5q0 34 5 73t5 43q0 12 -3 31t-3 27q0 23 10.5 32t34.5 9q51 0 105.5 -27.5t54.5 -54.5q0 -8 -3 -38.5t-3 -53.5q0 -7 1 -75.5t1 -129.5q0 -27 -1 -90.5t-1 -100.5q0 -20 1 -72t1 -83q0 -22 -2 -59.5t-2 -51.5q0 -9 2 -33.5
t2 -40.5q0 -36 -8 -56.5t-23 -20.5q-50 0 -95.5 26.5t-45.5 65.5q0 3 2 13.5t2 16.5q0 5 -3 9t-5 4q-4 0 -22 -22q-68 -81 -115 -81zM408 1004q-9 0 -78.5 30.5t-122.5 50.5q-21 8 -58 18q-85 24 -85 64q0 26 49 71.5t78 45.5q10 0 83 -45q66 -41 112 -68q12 -7 43 -19
q71 -27 71 -58q0 -18 -37.5 -54t-54.5 -36z" />
    <glyph glyph-name="uacute" unicode="&#xfa;" horiz-adv-x="739" 
d="M324 -29q-50 0 -113.5 39.5t-83.5 87.5q-24 56 -34.5 114.5t-10.5 147.5q0 21 1 72.5t1 81.5q0 42 8 116q3 28 4 41q4 41 8 102q4 70 11 79q6 10 23 19.5t34 9.5q46 0 93.5 -25t47.5 -59q0 -38 -13 -199t-13 -279q0 -70 6 -119.5t12 -49.5q9 0 44.5 43.5t53.5 95.5
q12 30 21.5 130t9.5 208q0 17 -1 45.5t-1 38.5q0 34 5 73t5 43q0 12 -3 31t-3 27q0 23 10.5 32t34.5 9q51 0 105.5 -27.5t54.5 -54.5q0 -8 -3 -38.5t-3 -53.5q0 -7 1 -75.5t1 -129.5q0 -27 -1 -90.5t-1 -100.5q0 -20 1 -72t1 -83q0 -22 -2 -59.5t-2 -51.5q0 -9 2 -33.5
t2 -40.5q0 -36 -8 -56.5t-23 -20.5q-50 0 -95.5 26.5t-45.5 65.5q0 3 2 13.5t2 16.5q0 5 -3 9t-5 4q-4 0 -22 -22q-68 -81 -115 -81zM697 1163q0 -36 -82 -59q-40 -10 -62 -19q-53 -20 -122 -50.5t-78 -30.5q-18 0 -55.5 36t-37.5 54q0 32 70 57q25 9 34 14
q52 28 121.5 73.5t84.5 45.5q28 0 77.5 -46t49.5 -75z" />
    <glyph glyph-name="ucircumflex" unicode="&#xfb;" horiz-adv-x="739" 
d="M324 -29q-50 0 -113.5 39.5t-83.5 87.5q-24 56 -34.5 114.5t-10.5 147.5q0 21 1 72.5t1 81.5q0 42 8 116q3 28 4 41q4 41 8 102q4 70 11 79q6 10 23 19.5t34 9.5q46 0 93.5 -25t47.5 -59q0 -38 -13 -199t-13 -279q0 -70 6 -119.5t12 -49.5q9 0 44.5 43.5t53.5 95.5
q12 30 21.5 130t9.5 208q0 17 -1 45.5t-1 38.5q0 34 5 73t5 43q0 12 -3 31t-3 27q0 23 10.5 32t34.5 9q51 0 105.5 -27.5t54.5 -54.5q0 -8 -3 -38.5t-3 -53.5q0 -7 1 -75.5t1 -129.5q0 -27 -1 -90.5t-1 -100.5q0 -20 1 -72t1 -83q0 -22 -2 -59.5t-2 -51.5q0 -9 2 -33.5
t2 -40.5q0 -36 -8 -56.5t-23 -20.5q-50 0 -95.5 26.5t-45.5 65.5q0 3 2 13.5t2 16.5q0 5 -3 9t-5 4q-4 0 -22 -22q-68 -81 -115 -81zM371 1305q10 0 29.5 -3.5t29.5 -3.5q2 0 8.5 1t12.5 1q15 0 38 -29t44 -52q58 -66 95.5 -115.5t37.5 -61.5q0 -13 -12 -23.5t-27 -10.5
q-101 0 -130.5 7t-43.5 27q-8 11 -22 31q-47 66 -60 66q-19 0 -66 -70q-11 -17 -18 -27q-14 -20 -44 -27t-130 -7q-15 0 -27 10.5t-12 23.5q0 11 36.5 61t94.5 116q23 25 47 55q21 26 35 26q3 0 10.5 -1t12.5 -1q10 0 30.5 3.5t30.5 3.5z" />
    <glyph glyph-name="udieresis" unicode="&#xfc;" horiz-adv-x="739" 
d="M324 -29q-50 0 -113.5 39.5t-83.5 87.5q-24 56 -34.5 114.5t-10.5 147.5q0 21 1 72.5t1 81.5q0 42 8 116q3 28 4 41q4 41 8 102q4 70 11 79q6 10 23 19.5t34 9.5q46 0 93.5 -25t47.5 -59q0 -38 -13 -199t-13 -279q0 -70 6 -119.5t12 -49.5q9 0 44.5 43.5t53.5 95.5
q12 30 21.5 130t9.5 208q0 17 -1 45.5t-1 38.5q0 34 5 73t5 43q0 12 -3 31t-3 27q0 23 10.5 32t34.5 9q51 0 105.5 -27.5t54.5 -54.5q0 -8 -3 -38.5t-3 -53.5q0 -7 1 -75.5t1 -129.5q0 -27 -1 -90.5t-1 -100.5q0 -20 1 -72t1 -83q0 -22 -2 -59.5t-2 -51.5q0 -9 2 -33.5
t2 -40.5q0 -36 -8 -56.5t-23 -20.5q-50 0 -95.5 26.5t-45.5 65.5q0 3 2 13.5t2 16.5q0 5 -3 9t-5 4q-4 0 -22 -22q-68 -81 -115 -81zM557 1028q-53 0 -98 29t-45 63q0 60 36 107t95 47q38 0 80.5 -53.5t42.5 -79.5q0 -32 -37.5 -72.5t-73.5 -40.5zM219 1028q-53 0 -99 29
t-46 63q0 60 36 107t95 47q38 0 80.5 -53.5t42.5 -79.5q0 -33 -36.5 -73t-72.5 -40z" />
    <glyph glyph-name="yacute" unicode="&#xfd;" horiz-adv-x="678" 
d="M184 -346q0 60 29 166.5t35 146.5q8 49 15 64q1 3 1 4q0 12 -23 23.5t-32 19.5q-18 14 -35.5 58t-34.5 114q-14 61 -30 154.5t-29 199.5q-10 69 -15.5 142.5t-5.5 107.5q0 12 7 23.5t16 11.5q15 0 38 -6t30 -6q46 0 70.5 -26.5t29.5 -82.5q2 -23 20.5 -114t18.5 -138v-22
q0 -49 15.5 -123t21.5 -74t10 7.5t4 21.5v18q0 22 37 182t55 291q14 91 27 125.5t33 34.5q4 0 45.5 -15t78.5 -32q25 -12 35 -23t11 -26q0 -13 -18.5 -100t-45.5 -193q-46 -180 -82.5 -344.5t-44.5 -223.5q-13 -75 -44 -206.5t-40 -173.5q-7 -35 -15 -84q-14 -82 -40 -82
q-36 0 -97 37t-61 77q0 18 5 40t5 26zM666 1163q0 -36 -82 -59q-40 -10 -62 -19q-53 -20 -122 -50.5t-78 -30.5q-18 0 -55.5 36t-37.5 54q0 32 70 57q25 9 34 14q52 28 121.5 73.5t84.5 45.5q28 0 77.5 -46t49.5 -75z" />
    <glyph glyph-name="thorn" unicode="&#xfe;" horiz-adv-x="758" 
d="M342 297q0 -45 -2 -90v-8q0 -11 3.5 -19t6.5 -8q11 0 29 34t51 120q42 112 55 172.5t13 117.5q0 58 -14.5 90.5t-39.5 32.5q-31 0 -66.5 -23t-35.5 -50l1 -25t1 -49q0 -38 -1 -90t-1 -68v-18v-119zM133 -346q0 8 -4 48t-4 73q0 7 3 64t3 106q0 17 -1 52.5t-1 53.5
q0 46 3 140.5t3 144.5q0 29 -3 70.5t-3 54.5q0 1 1 15t1 26t-27.5 42.5t-27.5 47.5l31.5 50.5t31.5 115.5q0 4 2 40q8 169 13 341q1 52 2 134q2 167 30 167q73 0 124.5 -25.5t51.5 -60.5q0 -8 -3 -46q-15 -187 -15 -358v-12v-25q0 -12 1.5 -15t4.5 -3q5 0 19.5 3t25.5 3
q138 0 228 -87t90 -226q0 -62 -33 -185.5t-78 -209.5q-47 -92 -98 -152.5t-80 -60.5q-12 0 -31.5 4t-25.5 4q-19 0 -25 -8t-6 -41v-17q0 -11 2 -59t2 -86q0 -45 -4 -105.5t-4 -74.5v-33q0 -54 -9 -69t-32 -15q-42 0 -102 33.5t-60 72.5q0 5 2 27t2 41z" />
    <glyph glyph-name="ydieresis" unicode="&#xff;" horiz-adv-x="678" 
d="M184 -346q0 60 29 166.5t35 146.5q8 49 15 64q1 3 1 4q0 12 -23 23.5t-32 19.5q-18 14 -35.5 58t-34.5 114q-14 61 -30 154.5t-29 199.5q-10 69 -15.5 142.5t-5.5 107.5q0 12 7 23.5t16 11.5q15 0 38 -6t30 -6q46 0 70.5 -26.5t29.5 -82.5q2 -23 20.5 -114t18.5 -138v-22
q0 -49 15.5 -123t21.5 -74t10 7.5t4 21.5v18q0 22 37 182t55 291q14 91 27 125.5t33 34.5q4 0 45.5 -15t78.5 -32q25 -12 35 -23t11 -26q0 -13 -18.5 -100t-45.5 -193q-46 -180 -82.5 -344.5t-44.5 -223.5q-13 -75 -44 -206.5t-40 -173.5q-7 -35 -15 -84q-14 -82 -40 -82
q-36 0 -97 37t-61 77q0 18 5 40t5 26zM526 1028q-53 0 -98 29t-45 63q0 60 36 107t95 47q38 0 80.5 -53.5t42.5 -79.5q0 -32 -37.5 -72.5t-73.5 -40.5zM188 1028q-53 0 -99 29t-46 63q0 60 36 107t95 47q38 0 80.5 -53.5t42.5 -79.5q0 -33 -36.5 -73t-72.5 -40z" />
    <glyph glyph-name="Cacute" unicode="&#x106;" horiz-adv-x="891" 
d="M465 -55q-75 0 -157 35t-126 86q-54 61 -84 182t-30 282q0 190 42.5 389t106.5 324q53 104 111 152.5t127 48.5q39 0 102 -32.5t141 -92.5q42 -32 68.5 -101t26.5 -155q0 -137 -28 -173t-106 -36q-51 0 -80.5 35t-41.5 110q-3 17 -8 49q-26 162 -62 162q-14 0 -29 -30
t-28 -86l-13 -52q-71 -289 -71 -569q0 -90 10.5 -171.5t30.5 -144.5q7 -21 20.5 -28.5t40.5 -7.5q37 0 94 87t74 189q2 13 5 35q7 62 46 96q23 21 35.5 27t26.5 6q39 0 72.5 -38t33.5 -97q0 -198 -100.5 -339.5t-249.5 -141.5zM772 1679q0 -36 -82 -59q-40 -10 -62 -19
q-53 -20 -122 -50.5t-78 -30.5q-18 0 -55.5 36t-37.5 54q0 32 70 57q25 9 34 14q52 28 121.5 73.5t84.5 45.5q28 0 77.5 -46t49.5 -75z" />
    <glyph glyph-name="cacute" unicode="&#x107;" horiz-adv-x="664" 
d="M59 340q0 103 24.5 218t57.5 179q11 20 29 55q67 132 104 132q21 0 103 -21.5t119 -40.5q69 -33 78.5 -61t9.5 -166q0 -78 -20 -114t-62 -36q-7 0 -20.5 7.5t-24.5 7.5q-31 0 -50.5 32.5t-19.5 83.5q0 18 2 46t2 36q0 16 -5 23.5t-15 7.5q-25 0 -37 -56q-4 -19 -6 -27
q-2 -9 -8 -30q-54 -206 -54 -415q0 -41 8.5 -63.5t22.5 -22.5q32 0 79 64q19 26 30 38q21 24 47.5 96t52.5 72q27 0 72 -41.5t45 -62.5q0 -27 -23 -92.5t-55 -110.5q-40 -58 -85 -90.5t-83 -32.5q-40 0 -85 20t-130 78q-62 43 -82.5 103t-20.5 184zM658 1163q0 -36 -82 -59
q-40 -10 -62 -19q-53 -20 -122 -50.5t-78 -30.5q-18 0 -55.5 36t-37.5 54q0 32 70 57q25 9 34 14q52 28 121.5 73.5t84.5 45.5q28 0 77.5 -46t49.5 -75z" />
    <glyph glyph-name="Ccaron" unicode="&#x10c;" horiz-adv-x="891" 
d="M465 -55q-75 0 -157 35t-126 86q-54 61 -84 182t-30 282q0 190 42.5 389t106.5 324q53 104 111 152.5t127 48.5q39 0 102 -32.5t141 -92.5q42 -32 68.5 -101t26.5 -155q0 -137 -28 -173t-106 -36q-51 0 -80.5 35t-41.5 110q-3 17 -8 49q-26 162 -62 162q-14 0 -29 -30
t-28 -86l-13 -52q-71 -289 -71 -569q0 -90 10.5 -171.5t30.5 -144.5q7 -21 20.5 -28.5t40.5 -7.5q37 0 94 87t74 189q2 13 5 35q7 62 46 96q23 21 35.5 27t26.5 6q39 0 72.5 -38t33.5 -97q0 -198 -100.5 -339.5t-249.5 -141.5zM446 1528q-12 0 -32.5 3t-28.5 3q-6 0 -14 -1
t-9 -1q-14 0 -35 26q-24 31 -47 56q-57 63 -94 113.5t-37 62.5q0 14 12 24.5t27 10.5q87 0 120.5 -6.5t47.5 -22.5q13 -16 34 -47q38 -55 56 -55q13 0 60 66q14 19 22 30q14 21 43.5 28t130.5 7q15 0 27 -10.5t12 -24.5q0 -11 -37 -59.5t-96 -116.5q-23 -25 -47 -56
q-21 -26 -35 -26q-1 0 -8 1t-13 1q-9 0 -29 -3t-30 -3z" />
    <glyph glyph-name="ccaron" unicode="&#x10d;" horiz-adv-x="664" 
d="M59 340q0 103 24.5 218t57.5 179q11 20 29 55q67 132 104 132q21 0 103 -21.5t119 -40.5q69 -33 78.5 -61t9.5 -166q0 -78 -20 -114t-62 -36q-7 0 -20.5 7.5t-24.5 7.5q-31 0 -50.5 32.5t-19.5 83.5q0 18 2 46t2 36q0 16 -5 23.5t-15 7.5q-25 0 -37 -56q-4 -19 -6 -27
q-2 -9 -8 -30q-54 -206 -54 -415q0 -41 8.5 -63.5t22.5 -22.5q32 0 79 64q19 26 30 38q21 24 47.5 96t52.5 72q27 0 72 -41.5t45 -62.5q0 -27 -23 -92.5t-55 -110.5q-40 -58 -85 -90.5t-83 -32.5q-40 0 -85 20t-130 78q-62 43 -82.5 103t-20.5 184zM332 1012q-12 0 -32.5 3
t-28.5 3q-6 0 -14 -1t-9 -1q-14 0 -35 26q-24 31 -47 56q-57 63 -94 113.5t-37 62.5q0 14 12 24.5t27 10.5q87 0 120.5 -6.5t47.5 -22.5q13 -16 34 -47q38 -55 56 -55q13 0 60 66q14 19 22 30q14 21 43.5 28t130.5 7q15 0 27 -10.5t12 -24.5q0 -11 -37 -59.5t-96 -116.5
q-23 -25 -47 -56q-21 -26 -35 -26q-1 0 -8 1t-13 1q-9 0 -29 -3t-30 -3z" />
    <glyph glyph-name="dcroat" unicode="&#x111;" horiz-adv-x="735" 
d="M373 719q-27 0 -51 -45t-52 -146q-28 -103 -43.5 -201t-15.5 -157q0 -15 5.5 -23t16.5 -8q18 0 55 50.5t66 119.5q29 72 40.5 148t11.5 211q0 23 -9 37t-24 14zM418 43v23q-1 9 -4 11.5t-11 2.5q-3 0 -51 -55.5t-104 -55.5q-26 0 -70.5 26t-91.5 68q-34 32 -48.5 87
t-14.5 165q0 111 40.5 253t90.5 218q25 39 63 70t49 31q1 0 44 -12.5t83 -12.5q10 0 15.5 6.5t5.5 18.5q0 1 -1 6.5t-1 9.5q0 7 3 18.5t3 16.5q0 7 -2 23t-2 26q0 11 2 30t2 27q0 27 -5 39.5t-16 12.5q-44 0 -135.5 -17.5t-120.5 -17.5q1 0 -4 -1t-10 -1q-3 0 -15 26.5
t-12 40.5q0 17 20.5 52.5t31.5 44.5q12 7 64 10.5t151 3.5q28 0 40.5 7t12.5 24q0 6 -4 35t-4 51q0 45 9.5 65.5t31.5 20.5q13 0 73 -19q33 -10 54 -16q22 -6 30 -19.5t8 -42.5v-63q1 -17 3.5 -26t7.5 -9q15 0 40.5 3t37.5 3h10q6 0 15.5 1t12.5 1q18 0 47 -41t29 -77
q0 -18 -12 -42t-25 -24q-1 0 -5 1q-39 9 -126 9q-28 0 -34.5 -5t-6.5 -21q0 -2 1 -10q1 -30 1 -62q0 -22 -1 -57t-1 -50q0 -36 1 -80t1 -51q0 -39 -2 -196t-2 -275q0 -54 2 -122t2 -80t-2 -34.5t-2 -33.5q0 -7 5.5 -21t5.5 -22q0 -20 -14 -33.5t-36 -13.5q-52 0 -102.5 38
t-50.5 93z" />
    <glyph glyph-name="Gbreve" unicode="&#x11e;" horiz-adv-x="1006" 
d="M74 596q0 196 62 382t169 316q51 61 110 101.5t93 40.5q41 0 81 -17.5t142 -83.5q81 -51 110 -111.5t29 -181.5q0 -116 -25.5 -180.5t-70.5 -64.5q-8 0 -25 5t-28 5q-5 0 -15.5 -2t-15.5 -2q-41 0 -62.5 60t-21.5 177q0 23 9.5 75.5t9.5 82.5q0 17 -11 31t-22 14
q-14 0 -60.5 -45t-78.5 -100q-66 -116 -96.5 -246.5t-30.5 -298.5q0 -200 38.5 -323.5t96.5 -123.5q31 0 66 26t65 71q29 43 54.5 112t25.5 91q0 10 -8 15t-27 5q-4 0 -25.5 -1t-40.5 -1q-44 0 -74 7.5t-48 23.5q-27 22 -48.5 60t-21.5 54q0 31 93 41h7q80 9 168.5 29
t112.5 20q30 1 57 4q5 1 6 1q21 0 66 -43t45 -64q0 -90 -32 -201.5t-87 -208.5q-54 -94 -127 -148t-143 -54q-45 0 -116 25l-9 3q-17 6 -64 18t-67 27q-96 76 -155.5 232.5t-59.5 345.5zM264 1757v4q0 17 17.5 21t68.5 4q38 0 43 -22q2 -10 5 -17q15 -43 37 -58.5t69 -15.5
q41 0 69.5 19t28.5 45q0 2 -1 6l-1 4q0 16 9.5 24t31.5 9q11 0 23.5 1t13.5 1q40 0 59 -5t19 -16q0 -76 -76.5 -148.5t-171.5 -72.5q-106 0 -175 60t-69 157z" />
    <glyph glyph-name="gbreve" unicode="&#x11f;" horiz-adv-x="725" 
d="M397 707q-19 0 -31 -14.5t-28 -57.5q-43 -116 -68.5 -242t-25.5 -200q0 -17 5 -27t13 -10q5 0 18.5 15t61.5 79q24 31 45 80.5t21 60.5q0 14 -1 31.5t-1 21.5q0 63 6 139.5t6 88.5q0 20 -4.5 27.5t-16.5 7.5zM369 -512q-26 0 -70.5 26t-97.5 72q-72 62 -94.5 96t-22.5 70
q0 32 6.5 46t22.5 14q1 0 5 -1t5 -1q5 0 18.5 9t24.5 9q20 0 34 -21.5t23 -27.5q34 -27 73.5 -48.5t53.5 -21.5q52 0 65 32t13 163q0 49 -4 99.5t-4 51.5v25q0 6 -1.5 8t-4.5 2q-2 0 -14 -14q-75 -90 -126 -90q-31 0 -75.5 25t-81.5 67q-32 34 -44 69.5t-12 110.5
q0 96 18 204t50 208q41 124 90.5 182.5t114.5 58.5q54 0 99.5 -40t64.5 -40q4 0 12.5 1.5t13.5 1.5q37 0 79 -31t42 -72q0 -1 -2 -10q-35 -128 -35 -395q0 -18 1 -39t1 -25q0 -100 11.5 -250.5t11.5 -195.5q0 -132 -85.5 -230t-178.5 -98zM122 1241v4q0 17 17.5 21t68.5 4
q38 0 43 -22q2 -10 5 -17q15 -43 37 -58.5t69 -15.5q41 0 69.5 19t28.5 45q0 2 -1 6l-1 4q0 16 9.5 24t31.5 9q11 0 23.5 1t13.5 1q40 0 59 -5t19 -16q0 -76 -76.5 -148.5t-171.5 -72.5q-106 0 -175 60t-69 157z" />
    <glyph glyph-name="Idotaccent" unicode="&#x130;" horiz-adv-x="512" 
d="M137 115q0 127 -2 275.5t-2 168.5q0 314 9 600q1 42 1 49q0 11 -1 43t-1 52q0 89 14 110t58 21q66 0 114 -25t48 -55q0 -8 -3 -26.5t-3 -29.5q0 -12 2 -48.5t2 -59.5t-4 -77t-4 -85q0 -17 1 -51t1 -51q0 -33 -3.5 -87t-3.5 -77q0 -11 2 -61q9 -217 9 -420q0 -42 -2 -103
t-2 -80q0 -11 1 -32.5t1 -32.5q0 -55 -10.5 -72.5t-39.5 -17.5q-47 0 -115.5 44t-68.5 66q0 4 1 24.5t1 37.5zM274 1532q-56 0 -106.5 32.5t-50.5 69.5q0 10 12.5 53t25.5 63q18 29 42.5 40.5t62.5 11.5q42 0 89.5 -59t47.5 -86q0 -36 -41 -80.5t-82 -44.5z" />
    <glyph glyph-name="dotlessi" unicode="&#x131;" horiz-adv-x="465" 
d="M279 -43q-93 0 -123.5 41t-30.5 221v49q0 84 1 184.5t1 116.5v109q0 162 9 196.5t50 34.5q79 0 122.5 -23t43.5 -65q0 -3 -1 -19q-11 -127 -11 -280v-21q-2 -93 -2 -184v-112q0 -54 2 -116t2 -69q0 -31 -16 -47t-47 -16z" />
    <glyph glyph-name="Lslash" unicode="&#x141;" horiz-adv-x="725" 
d="M266 -47q-6 0 -24 16.5t-45 34.5q-35 22 -46.5 57t-11.5 140v78q0 24 4 90.5t4 109.5q0 28 -3.5 45t-8.5 17q-3 0 -56 -60.5t-61 -60.5q-37 0 -58 34t-21 97q0 18 33 52.5t141 123.5q5 5 15 11q19 11 22 33q1 6 1.5 41.5t0.5 171.5q1 169 9 333q1 27 1 31q0 22 -2 47v6
q0 9 29.5 15.5t64.5 6.5q69 0 97 -43t28 -174q0 -21 -1 -71t-1 -80v-43q0 -23 5.5 -37t12.5 -14q3 0 69 65.5t97 65.5q64 0 99.5 -27.5t35.5 -75.5q0 -14 -31.5 -29t-54.5 -34q-25 -21 -70 -57q-165 -131 -165 -195q0 -63 3 -144t3 -98q0 -23 -2 -77t-2 -85q0 -13 4.5 -16.5
t24.5 -3.5q12 0 66 3t95 3q69 0 97.5 -10t50.5 -35q18 -21 33.5 -61.5t15.5 -61.5q0 -45 -86 -52q-24 -2 -34 -3q-190 -29 -349 -73q-26 -7 -29 -7z" />
    <glyph glyph-name="lslash" unicode="&#x142;" horiz-adv-x="465" 
d="M254 -47q-20 0 -57 12t-56 25t-27 40t-8 103q0 64 4.5 177t4.5 163q0 19 -2.5 28t-6.5 9q-7 0 -35.5 -24.5t-29.5 -24.5q-35 0 -54.5 30.5t-19.5 88.5q0 29 71 78.5t71 86.5v74q0 129 4.5 268.5t13.5 268.5q1 13 1 33q2 51 34 51q75 0 127.5 -25.5t52.5 -60.5
q0 -4 -2 -25q-12 -135 -12 -280q0 -69 -11 -148q-4 -23 -4 -29q0 -2 0.5 -3t1.5 -1q3 0 28.5 27t49.5 27q57 0 89 -25.5t32 -71.5q0 -10 -26.5 -23t-47.5 -30q-18 -14 -49 -37q-82 -61 -82 -102q0 -10 2 -31t2 -33q0 -60 -1 -126.5t-1 -73.5v-105q0 -7 -1 -44t-1 -66
q0 -49 3 -103q1 -15 1 -18q0 -43 -13.5 -61.5t-45.5 -18.5z" />
    <glyph glyph-name="OE" unicode="&#x152;" horiz-adv-x="1407" 
d="M557 1229q-31 0 -62.5 -38.5t-86.5 -150.5q-51 -102 -74 -210t-23 -252q0 -212 51.5 -346t126.5 -134q101 0 159.5 186t58.5 515q0 201 -40.5 315.5t-109.5 114.5zM735 27q-45 -43 -83 -68t-56 -25q-5 0 -15.5 2.5t-15.5 2.5q-10 0 -23.5 -4.5t-17.5 -4.5t-49 17t-93 29
q-36 9 -65.5 27.5t-54.5 47.5q-105 122 -149.5 247t-44.5 308q0 171 40.5 348.5t102.5 288.5q50 90 108 135t121 45q36 0 131 -34.5t154 -51.5q9 30 25.5 46t40.5 16q1 0 14.5 -10.5t32.5 -10.5q2 0 124.5 22.5t223.5 22.5q19 0 59.5 -54t40.5 -118q0 -41 -64 -49
q-52 -6 -92 -14q-61 -13 -133 -16q-59 -3 -59 -33q0 -4 1 -12.5t1 -12.5q0 -14 -3 -61t-3 -78v-43v-64q0 -20 2 -27t8 -7q3 0 16 2q112 20 238 20q50 0 76 -44t26 -130q0 -51 -119 -60q-95 -7 -167 -16q-4 0 -11 -1q-69 -8 -71 -19v-4q-8 -104 -8 -242q0 -32 -1 -65t-1 -35
q0 -15 4.5 -21t17.5 -6q50 0 138 18.5t114 18.5q32 0 65 -27t44 -66q4 -15 7 -37t5 -49q2 -22 11 -36l1 -2q0 -6 -12 -10.5t-31 -4.5q-5 0 -15 1t-14 1q-29 0 -167.5 -28.5t-247.5 -28.5q-5 0 -79 46z" />
    <glyph glyph-name="oe" unicode="&#x153;" horiz-adv-x="1053" 
d="M537 41q-58 -55 -85.5 -71.5t-54.5 -16.5q-36 0 -113 40l-1 1q-27 14 -73 35t-60 32q-47 39 -69 115t-22 205q0 97 29.5 227t71.5 217q21 48 48 70.5t62 22.5q13 0 59 -12q29 -7 48 -11q8 -2 22 -5q96 -22 138 -67q42 63 67 79t64 16q46 0 120.5 -25t100.5 -51
q40 -39 64 -125.5t24 -194.5q0 -24 -3 -57t-3 -43q0 -25 -72 -34q-63 -9 -112 -17q-27 -5 -70 -11q-105 -14 -105 -71q0 -1 1 -4q1 -12 1 -23q0 -7 -1 -23t-1 -24q0 -38 13.5 -58t38.5 -20q30 0 76.5 35t95.5 95q8 10 23 31q30 44 46 44q33 0 64.5 -26t31.5 -52
q0 -4 -4 -12.5t-4 -13.5q0 -3 2 -11t2 -12q0 -15 -35 -74.5t-83 -107.5q-57 -56 -87 -70t-73 -14q-32 0 -91 28.5t-91 63.5zM735 770q-8 0 -17 -12.5t-16 -30.5q-11 -36 -31 -95q-34 -100 -34 -114q0 -3 5 -5.5t11 -2.5q23 0 82.5 14.5t59.5 24.5q0 4 -3.5 24t-3.5 35v23
q0 56 -16.5 97.5t-36.5 41.5zM268 332q0 -85 16 -145t35 -60q39 0 80 113.5t41 242.5q0 99 -19 173.5t-40 74.5q-30 0 -71.5 -135t-41.5 -264z" />
    <glyph glyph-name="Scedilla" unicode="&#x15e;" horiz-adv-x="915" 
d="M487 -57q-168 0 -286 106q-27 25 -39 31q-43 23 -87 96t-44 115q0 8 4 24.5t4 24.5q0 3 -3 11t-3 14q0 15 12 24.5t31 9.5q28 0 58.5 -17t62.5 -51q7 -7 21 -22q143 -151 222 -151q41 0 66.5 33t25.5 85q0 76 -40 146t-158 184q-121 118 -162 197.5t-41 177.5
q0 96 37.5 181t114.5 163q48 50 103.5 81.5t90.5 31.5q14 0 67 -19t75 -37q81 -67 124 -102q29 -32 53.5 -110t24.5 -146q0 -87 -21.5 -130.5t-64.5 -43.5q-46 0 -83 22.5t-72 73.5q-29 42 -40 143t-20 101q-42 0 -96.5 -69t-54.5 -136q0 -91 157 -241q40 -39 62 -60
q111 -111 169 -217t58 -197q0 -44 -28 -97.5t-89 -121.5q-45 -53 -99 -80.5t-112 -27.5zM408 0h73q-1 -14 -5 -40q-7 -52 -7 -69q0 -11 8 -19.5t19 -8.5q4 0 16.5 1t20.5 1q80 0 130 -45.5t50 -118.5q0 -78 -59.5 -121t-167.5 -43q-97 0 -191 30t-94 56q0 28 15 49t32 21
q5 0 27 -12q97 -56 194 -56q46 0 69 20t23 60q0 32 -22 50t-64 18q-10 0 -29 -1t-28 -1q-21 0 -32 12.5t-11 36.5t8.5 72.5t24.5 107.5z" />
    <glyph glyph-name="scedilla" unicode="&#x15f;" horiz-adv-x="664" 
d="M328 -53q-76 0 -174.5 68t-98.5 120q0 16 9.5 33t9.5 20q0 1 -2 6t-2 9q0 10 15.5 17t41.5 7q30 0 96.5 -48t85.5 -48q14 0 31.5 16t17.5 33q0 23 -29 55.5t-110 96.5q-68 55 -103.5 124t-35.5 148q0 65 33 129t96 121q32 29 75 51.5t54 22.5q47 0 91.5 -22t107.5 -81
q22 -20 31.5 -61.5t9.5 -118.5q0 -67 -15 -102t-43 -35q-8 0 -24 3t-23 3q-5 0 -15.5 -1t-15.5 -1q-35 0 -46 32t-11 142q0 31 -4.5 44t-13.5 13q-21 0 -53.5 -47t-32.5 -94q0 -34 42 -83.5t128 -117.5q65 -51 93.5 -102t28.5 -113q0 -88 -82.5 -163.5t-162.5 -75.5zM281 0
h73q-1 -14 -5 -40q-7 -52 -7 -69q0 -11 8 -19.5t19 -8.5q4 0 16.5 1t20.5 1q80 0 130 -45.5t50 -118.5q0 -78 -59.5 -121t-167.5 -43q-97 0 -191 30t-94 56q0 28 15 49t32 21q5 0 27 -12q97 -56 194 -56q46 0 69 20t23 60q0 32 -22 50t-64 18q-10 0 -29 -1t-28 -1
q-21 0 -32 12.5t-11 36.5t8.5 72.5t24.5 107.5z" />
    <glyph glyph-name="Scaron" unicode="&#x160;" horiz-adv-x="915" 
d="M487 -57q-168 0 -286 106q-27 25 -39 31q-43 23 -87 96t-44 115q0 8 4 24.5t4 24.5q0 3 -3 11t-3 14q0 15 12 24.5t31 9.5q28 0 58.5 -17t62.5 -51q7 -7 21 -22q143 -151 222 -151q41 0 66.5 33t25.5 85q0 76 -40 146t-158 184q-121 118 -162 197.5t-41 177.5
q0 96 37.5 181t114.5 163q48 50 103.5 81.5t90.5 31.5q14 0 67 -19t75 -37q81 -67 124 -102q29 -32 53.5 -110t24.5 -146q0 -87 -21.5 -130.5t-64.5 -43.5q-46 0 -83 22.5t-72 73.5q-29 42 -40 143t-20 101q-42 0 -96.5 -69t-54.5 -136q0 -91 157 -241q40 -39 62 -60
q111 -111 169 -217t58 -197q0 -44 -28 -97.5t-89 -121.5q-45 -53 -99 -80.5t-112 -27.5zM459 1528q-12 0 -32.5 3t-28.5 3q-6 0 -14 -1t-9 -1q-14 0 -35 26q-24 31 -47 56q-57 63 -94 113.5t-37 62.5q0 14 12 24.5t27 10.5q87 0 120.5 -6.5t47.5 -22.5q13 -16 34 -47
q38 -55 56 -55q13 0 60 66q14 19 22 30q14 21 43.5 28t130.5 7q15 0 27 -10.5t12 -24.5q0 -11 -37 -59.5t-96 -116.5q-23 -25 -47 -56q-21 -26 -35 -26q-1 0 -8 1t-13 1q-9 0 -29 -3t-30 -3z" />
    <glyph glyph-name="scaron" unicode="&#x161;" horiz-adv-x="664" 
d="M328 -53q-76 0 -174.5 68t-98.5 120q0 16 9.5 33t9.5 20q0 1 -2 6t-2 9q0 10 15.5 17t41.5 7q30 0 96.5 -48t85.5 -48q14 0 31.5 16t17.5 33q0 23 -29 55.5t-110 96.5q-68 55 -103.5 124t-35.5 148q0 65 33 129t96 121q32 29 75 51.5t54 22.5q47 0 91.5 -22t107.5 -81
q22 -20 31.5 -61.5t9.5 -118.5q0 -67 -15 -102t-43 -35q-8 0 -24 3t-23 3q-5 0 -15.5 -1t-15.5 -1q-35 0 -46 32t-11 142q0 31 -4.5 44t-13.5 13q-21 0 -53.5 -47t-32.5 -94q0 -34 42 -83.5t128 -117.5q65 -51 93.5 -102t28.5 -113q0 -88 -82.5 -163.5t-162.5 -75.5z
M332 1012q-12 0 -32.5 3t-28.5 3q-6 0 -14 -1t-9 -1q-14 0 -35 26q-24 31 -47 56q-57 63 -94 113.5t-37 62.5q0 14 12 24.5t27 10.5q87 0 120.5 -6.5t47.5 -22.5q13 -16 34 -47q38 -55 56 -55q13 0 60 66q14 19 22 30q14 21 43.5 28t130.5 7q15 0 27 -10.5t12 -24.5
q0 -11 -37 -59.5t-96 -116.5q-23 -25 -47 -56q-21 -26 -35 -26q-1 0 -8 1t-13 1q-9 0 -29 -3t-30 -3z" />
    <glyph glyph-name="Ydieresis" unicode="&#x178;" horiz-adv-x="868" 
d="M283 111q0 21 2 62.5t2 62.5q0 6 -1 18t-1 18q0 46 7 115.5t7 93.5q0 30 -63 204q-30 83 -48 134q-19 54 -63.5 167.5t-56.5 164.5q-12 48 -26.5 105.5t-14.5 60.5q0 8 9.5 36.5t16.5 28.5q2 0 5 -1t5 -1q4 0 11 3t10 3q5 0 16.5 -9t24.5 -9h16q48 0 116 -143
q19 -40 30 -62q57 -112 94.5 -213.5t38.5 -101.5q9 0 75.5 162.5t137.5 310.5q8 17 23 48q77 159 104 159q35 0 91 -39.5t56 -75.5q0 -10 -99 -234.5t-185 -453.5q-12 -30 -31 -82q-46 -119 -49 -147q-2 -17 -6 -105q-1 -42 -2 -67q-3 -49 -10 -136.5t-7 -119.5v-35
q0 -39 -10.5 -54.5t-36.5 -15.5q-6 0 -43.5 9.5t-81.5 23.5q-36 12 -49.5 27.5t-13.5 54.5v33zM620 1544q-53 0 -98 29t-45 63q0 60 36 107t95 47q38 0 80.5 -53.5t42.5 -79.5q0 -32 -37.5 -72.5t-73.5 -40.5zM282 1544q-53 0 -99 29t-46 63q0 60 36 107t95 47
q38 0 80.5 -53.5t42.5 -79.5q0 -33 -36.5 -73t-72.5 -40z" />
    <glyph glyph-name="Zcaron" unicode="&#x17d;" horiz-adv-x="930" 
d="M195 0q-29 0 -46 -12.5t-22 -12.5q-17 0 -53.5 75.5t-36.5 113.5q0 19 94.5 183.5t161.5 289.5q68 127 168 302.5t100 199.5q0 5 -6 7.5t-20 2.5q-136 0 -259 7q-18 1 -22 1q-9 0 -23 -4t-18 -4q-19 0 -39 57t-20 99q0 24 5 40.5t13 18.5q28 7 99.5 13.5t144.5 6.5
q138 0 266 -8q21 -2 25 -2q19 0 40 11.5t23 11.5t28.5 -22t33.5 -30q11 -13 19 -39.5t11 -33.5q3 -6 12 -13t9 -12t-77.5 -148t-197.5 -360l-32 -57q-226 -409 -226 -428q0 -7 75 -10h17q79 -3 160 -12t89 -9q32 -1 57.5 -38t25.5 -72q0 -55 -6 -84t-18 -29q-7 0 -19 1
t-18 1q-12 0 -45 -3t-54 -3q-35 0 -119 5t-133 5q-30 0 -78 -3t-65 -3h-24zM465 1528q-12 0 -32.5 3t-28.5 3q-6 0 -14 -1t-9 -1q-14 0 -35 26q-24 31 -47 56q-57 63 -94 113.5t-37 62.5q0 14 12 24.5t27 10.5q87 0 120.5 -6.5t47.5 -22.5q13 -16 34 -47q38 -55 56 -55
q13 0 60 66q14 19 22 30q14 21 43.5 28t130.5 7q15 0 27 -10.5t12 -24.5q0 -11 -37 -59.5t-96 -116.5q-23 -25 -47 -56q-21 -26 -35 -26q-1 0 -8 1t-13 1q-9 0 -29 -3t-30 -3z" />
    <glyph glyph-name="zcaron" unicode="&#x17e;" horiz-adv-x="664" 
d="M33 135q0 47 60 123q40 50 61 84q74 120 159.5 231.5t85.5 116.5q0 3 -7.5 7.5t-16.5 4.5q-17 0 -47 -4t-43 -4q-6 0 -18.5 1t-18.5 1q-43 0 -63.5 -19.5t-28.5 -19.5q-21 0 -40.5 44t-19.5 77v19q0 6 -1 22.5t-1 26.5q0 15 16.5 23t49.5 8h28q12 0 126 12t204 12
q39 0 85 -63.5t46 -83.5q0 -11 -67.5 -120t-155.5 -226q-26 -35 -67 -90q-78 -104 -78 -111t13.5 -10.5t37.5 -3.5q8 0 18 1l10 1q21 0 48 -3.5t34 -3.5h21q7 0 38.5 -14.5t35.5 -22.5q3 -4 4.5 -21t3.5 -26t12 -25.5t10 -25.5v-14q0 -32 -6.5 -38.5t-36.5 -6.5q-9 0 -27 1
t-26 1q-7 0 -37.5 -3t-54.5 -3q-17 0 -49.5 5t-48.5 5q-9 0 -25 -1t-23 -1q-14 0 -41 4t-40 4q-6 0 -18 -6t-19 -6q-19 0 -50.5 59.5t-31.5 81.5zM332 1012q-12 0 -32.5 3t-28.5 3q-6 0 -14 -1t-9 -1q-14 0 -35 26q-24 31 -47 56q-57 63 -94 113.5t-37 62.5q0 14 12 24.5
t27 10.5q87 0 120.5 -6.5t47.5 -22.5q13 -16 34 -47q38 -55 56 -55q13 0 60 66q14 19 22 30q14 21 43.5 28t130.5 7q15 0 27 -10.5t12 -24.5q0 -11 -37 -59.5t-96 -116.5q-23 -25 -47 -56q-21 -26 -35 -26q-1 0 -8 1t-13 1q-9 0 -29 -3t-30 -3z" />
    <glyph glyph-name="florin" unicode="&#x192;" horiz-adv-x="977" 
d="M319 530v9q0 4 -4 4t-10.5 -1t-7.5 -1q-79 0 -104 12t-25 43q0 13 16 32.5t23 37.5q13 29 27 38t40 9q5 0 12 -1t11 -1q7 0 21.5 1t21.5 1q19 0 32.5 120t43.5 236q8 30 51 69q12 11 18 17l12 11q109 104 152 104q37 0 105 -25.5t96 -48.5q32 -25 67 -103.5t35 -117.5
q0 -17 -12.5 -34.5t-27.5 -18.5q-13 -1 -35 -17t-39 -16q-47 0 -78 86q-13 34 -21 49t-18 38q-19 44 -55 44q-17 0 -35.5 -48.5t-32.5 -131.5q-10 -61 -22.5 -125.5t-12.5 -69.5q0 -2 2.5 -3t12.5 -1h24q82 0 115 -5t41 -18q7 -14 17.5 -25.5t10.5 -23.5q0 -45 -26 -79.5
t-68 -34.5q-6 0 -18.5 1t-20.5 1q-12 0 -37.5 -1t-37.5 -1q-3 0 -10.5 1t-14.5 1q-15 0 -42 -193t-69 -381q-30 -139 -63.5 -247t-65.5 -168q-27 -53 -62 -74t-106 -21q-49 0 -124.5 60.5t-75.5 93.5q0 53 21 96t48 43q12 0 42.5 -30.5t54.5 -30.5q33 0 61 65.5t59 216.5
q39 183 63.5 350.5t24.5 206.5z" />
    <glyph glyph-name="circumflex" unicode="&#x2c6;" 
d="M512 1305q10 0 29.5 -3.5t29.5 -3.5q2 0 8.5 1t12.5 1q15 0 38 -29t44 -52q58 -66 95.5 -115.5t37.5 -61.5q0 -13 -12 -23.5t-27 -10.5q-101 0 -130.5 7t-43.5 27q-8 11 -22 31q-47 66 -60 66q-19 0 -66 -70q-11 -17 -18 -27q-14 -20 -44 -27t-130 -7q-15 0 -27 10.5
t-12 23.5q0 11 36.5 61t94.5 116q23 25 47 55q21 26 35 26q3 0 10.5 -1t12.5 -1q10 0 30.5 3.5t30.5 3.5z" />
    <glyph glyph-name="caron" unicode="&#x2c7;" 
d="M512 1012q-12 0 -32.5 3t-28.5 3q-6 0 -14 -1t-9 -1q-14 0 -35 26q-24 31 -47 56q-57 63 -94 113.5t-37 62.5q0 14 12 24.5t27 10.5q87 0 120.5 -6.5t47.5 -22.5q13 -16 34 -47q38 -55 56 -55q13 0 60 66q14 19 22 30q14 21 43.5 28t130.5 7q15 0 27 -10.5t12 -24.5
q0 -11 -37 -59.5t-96 -116.5q-23 -25 -47 -56q-21 -26 -35 -26q-1 0 -8 1t-13 1q-9 0 -29 -3t-30 -3z" />
    <glyph glyph-name="breve" unicode="&#x2d8;" 
d="M272 1241v4q0 17 17.5 21t68.5 4q38 0 43 -22q2 -10 5 -17q15 -43 37 -58.5t69 -15.5q41 0 69.5 19t28.5 45q0 2 -1 6l-1 4q0 16 9.5 24t31.5 9q11 0 23.5 1t13.5 1q40 0 59 -5t19 -16q0 -76 -76.5 -148.5t-171.5 -72.5q-106 0 -175 60t-69 157z" />
    <glyph glyph-name="dotaccent" unicode="&#x2d9;" 
d="M530 1016q-56 0 -106.5 32.5t-50.5 69.5q0 10 12.5 53t25.5 63q18 29 42.5 40.5t62.5 11.5q42 0 89.5 -59t47.5 -86q0 -36 -41 -80.5t-82 -44.5z" />
    <glyph glyph-name="ring" unicode="&#x2da;" 
d="M543 1335q-36 0 -77.5 -49.5t-41.5 -103.5q0 -41 19.5 -72t41.5 -31q34 0 77.5 53.5t43.5 114.5q0 37 -19 62.5t-44 25.5zM287 1188q0 74 75.5 153.5t114.5 79.5q16 0 74 -13.5t94 -31.5q46 -21 71 -59t25 -86q0 -78 -73 -151.5t-146 -73.5q-101 0 -168 54t-67 128z" />
    <glyph glyph-name="ogonek" unicode="&#x2db;" 
d="M631 31q-84 -65 -123 -123.5t-39 -118.5q0 -44 25.5 -73t62.5 -29q33 0 66 34.5t43 34.5q13 0 26 -9.5t13 -20.5q0 -34 -77.5 -90t-154.5 -56q-64 0 -104.5 39.5t-40.5 101.5q0 80 66 160.5t188 149.5h49z" />
    <glyph glyph-name="tilde" unicode="&#x2dc;" 
d="M649 1047q-29 0 -85.5 27.5t-84.5 27.5q-46 0 -77.5 -30t-32.5 -30q-17 0 -67 24.5t-50 37.5q0 44 53 101t105 57q30 0 96 -28t104 -28q26 0 44.5 22.5t23.5 22.5q25 0 74 -23.5t49 -39.5q0 -28 -51.5 -84.5t-100.5 -56.5z" />
    <glyph glyph-name="hungarumlaut" unicode="&#x2dd;" 
d="M995 1192q0 -34 -78 -64q-37 -14 -57 -24q-46 -23 -115 -58q-73 -38 -81 -38q-17 0 -57 32t-40 50q0 29 65 60q30 14 44 24q43 30 104 77q69 54 84 54q28 0 79.5 -42.5t51.5 -70.5zM578 1223q0 -30 -70 -67q-56 -30 -88 -54q-51 -38 -98 -67t-52 -29q-21 0 -62.5 27.5
t-41.5 45.5q0 31 59 68q27 17 37 27q29 27 75 72q84 81 101 81q33 0 86.5 -37t53.5 -67z" />
    <glyph glyph-name="Omega" unicode="&#x3a9;" horiz-adv-x="1569" 
d="M1194 213h305v-213h-602v229q160 94 242 244.5t82 351.5q0 210 -121 341.5t-316 131.5q-197 0 -316.5 -132.5t-119.5 -352.5q0 -191 84 -342t240 -242v-229h-602v213h305q-144 130 -211.5 274t-67.5 322q0 314 190.5 508t497.5 194q303 0 496 -192.5t193 -493.5
q0 -190 -65.5 -333t-213.5 -279z" />
    <glyph glyph-name="pi" unicode="&#x3c0;" horiz-adv-x="1368" 
d="M360 889h-45q-54 0 -83.5 -31.5t-39.5 -99.5h-174q28 187 100 255t242 68h953l-39 -192h-193l-84 -437q-2 -13 -8 -41q-22 -113 -22 -147q0 -58 23 -82t77 -24q18 0 42.5 2.5t59.5 7.5l-34 -168q-29 -8 -61 -12t-75 -4q-139 0 -202.5 48t-63.5 154q0 77 52 344l1 6
l70 353h-268l-174 -889h-226z" />
    <glyph glyph-name="endash" unicode="&#x2013;" 
d="M0 403v134h1024v-134h-1024z" />
    <glyph glyph-name="emdash" unicode="&#x2014;" horiz-adv-x="2048" 
d="M0 403v134h2048v-134h-2048z" />
    <glyph glyph-name="quoteleft" unicode="&#x2018;" horiz-adv-x="426" 
d="M186 893q-21 0 -61.5 24.5t-40.5 40.5q0 13 31.5 111.5t72.5 198.5q7 16 18 45q44 114 66 114q12 0 47 -35t35 -42t-13 -54t-22 -90q-36 -172 -53 -260q-2 -22 -24 -27q-9 -2 -14 -3q-2 -1 -13.5 -12t-28.5 -11z" />
    <glyph glyph-name="quoteright" unicode="&#x2019;" horiz-adv-x="426" 
d="M182 883q-19 0 -52.5 30.5t-33.5 36.5q0 8 9 63.5t22 116.5q26 134 36 180.5t15 61.5q3 10 34.5 29.5t37.5 19.5q29 0 66.5 -23t37.5 -48q0 -7 -27.5 -97t-58.5 -174q-12 -33 -31 -93q-34 -103 -55 -103z" />
    <glyph glyph-name="quotesinglbase" unicode="&#x201a;" horiz-adv-x="426" 
d="M147 -305q-19 0 -52.5 30.5t-33.5 36.5q0 8 9.5 63.5t21.5 117.5q8 39 21 105q22 118 28 136q3 10 35.5 29.5t38.5 19.5q29 0 65.5 -23t36.5 -48q0 -7 -27.5 -96.5t-58.5 -174.5q-13 -35 -32 -96q-31 -100 -52 -100z" />
    <glyph glyph-name="quotedblleft" unicode="&#x201c;" horiz-adv-x="725" 
d="M504 893q-21 0 -62 24.5t-41 40.5q0 14 31 112t72 198q5 12 14 35q49 124 72 124q11 0 46.5 -35t35.5 -42t-13.5 -54t-21.5 -90q-37 -172 -55 -259q-2 -23 -24 -28q-8 -2 -14 -4l-12 -11t-28 -11zM186 893q-21 0 -61.5 24.5t-40.5 40.5q0 13 31.5 111.5t72.5 198.5
q7 16 18 45q44 114 66 114q12 0 47 -35t35 -42t-13 -54t-22 -90q-36 -172 -53 -260q-2 -22 -24 -27q-9 -2 -14 -3q-2 -1 -13.5 -12t-28.5 -11z" />
    <glyph glyph-name="quotedblright" unicode="&#x201d;" horiz-adv-x="725" 
d="M483 883q-19 0 -52.5 30.5t-33.5 36.5q0 8 9 63.5t22 116.5q8 40 20 106q23 118 29 136q3 10 35.5 29.5t38.5 19.5q29 0 65.5 -23t36.5 -48q0 -7 -27.5 -97t-58.5 -174q-13 -35 -32 -97q-31 -99 -52 -99zM182 883q-19 0 -52.5 30.5t-33.5 36.5q0 8 9 63.5t22 116.5
q26 134 36 180.5t15 61.5q3 10 34.5 29.5t37.5 19.5q29 0 66.5 -23t37.5 -48q0 -7 -27.5 -97t-58.5 -174q-12 -33 -31 -93q-34 -103 -55 -103z" />
    <glyph glyph-name="quotedblbase" unicode="&#x201e;" horiz-adv-x="725" 
d="M446 -305q-19 0 -52.5 30.5t-33.5 36.5q0 8 9.5 63.5t21.5 117.5q8 39 21 105q22 118 28 136q3 10 35.5 29.5t38.5 19.5q30 0 67 -23t37 -48q0 -7 -27.5 -96.5t-58.5 -174.5q-12 -33 -30 -91q-34 -105 -56 -105zM147 -305q-19 0 -52.5 30.5t-33.5 36.5q0 8 9.5 63.5
t21.5 117.5q8 39 21 105q22 118 28 136q3 10 35.5 29.5t38.5 19.5q29 0 65.5 -23t36.5 -48q0 -7 -27.5 -96.5t-58.5 -174.5q-13 -35 -32 -96q-31 -100 -52 -100z" />
    <glyph glyph-name="dagger" unicode="&#x2020;" 
d="M539 -276q-4 0 -46 20.5t-67 36.5q-18 11 -24.5 32.5t-6.5 88.5v61q0 55 1 155t1 144v223q0 36 6.5 114.5t6.5 121.5q-1 42 -6 56.5t-19 15.5q-12 0 -30.5 -2.5t-24.5 -2.5q-9 0 -29 3.5t-33 3.5q-3 0 -13.5 -2t-16.5 -2q-39 0 -66 43t-27 106q0 21 18.5 47.5t29.5 26.5
q1 0 8 -1q54 -7 121 -7h9q28 2 50 2q8 0 11 2t3 10v14q0 13 3 49t3 58q0 14 -2 42.5t-2 43.5q0 14 2 42.5t2 41.5q0 19 -2 46t-2 36q0 27 13 45t34 18q24 0 72 -11.5t68 -21.5q17 -8 23.5 -22.5t6.5 -50.5t2 -101.5t2 -95.5v-55q0 -42 -3 -76q-1 -5 -1 -6q0 -5 4 -7.5
t11 -2.5q4 0 17 2t22 2q13 0 43.5 -3t48.5 -3q11 0 28.5 2t22.5 2q2 -2 4 -2q12 0 37 -52.5t25 -89.5q0 -35 -21.5 -60.5t-50.5 -25.5q-7 0 -28.5 4t-35.5 4q-21 0 -44 -1t-25 -1q-16 0 -31.5 3.5l-15.5 3.5q-6 -1 -9.5 -2.5t-3.5 -4.5t2 -13.5t2 -18.5q0 -20 -4 -58.5
t-4 -56.5q0 -5 1 -36q7 -224 7 -476v-84v-98q0 -142 -16 -180.5t-61 -38.5z" />
    <glyph glyph-name="daggerdbl" unicode="&#x2021;" 
d="M580 -272q-5 0 -57.5 17.5t-80.5 31.5q-22 13 -29 33t-7 81v78q0 31 1 87.5t1 82.5q0 22 -1 57.5t-1 49.5q0 8 1 18t1 12q0 15 -27 20t-100 5q-14 0 -34.5 -2t-25.5 -2q-22 0 -41.5 47.5t-19.5 87.5q0 26 16.5 53t26.5 27l2 -1q11 -5 24 -5q7 0 18.5 1t14.5 1q20 0 51 -1
t41 -1q36 0 43.5 1t8.5 5q0 1 -4.5 16.5t-4.5 28.5q0 25 6.5 73t6.5 72t-5.5 60.5t-5.5 50.5q0 8 1 19.5t1 13.5t-1 3t-7 1q-2 0 -14.5 -1t-22.5 -1q-14 0 -42.5 2t-41.5 2q-8 0 -22 -3t-21 -3q-26 0 -47.5 49.5t-21.5 105.5q0 13 15 35.5t26 22.5q7 0 28 -2t35 -2
q21 0 54 1t44 1h27q5 0 8.5 10t3.5 27q0 11 -2 35t-2 36q0 18 3 78.5t3 102.5q0 22 -3 45.5l-3 23.5q0 19 6.5 25t24.5 6q26 0 76 -10.5t71 -10.5q18 0 30.5 -16t12.5 -43q0 -8 -1 -17.5t-1 -13.5v-98q0 -43 2.5 -92t2.5 -55q0 -2 -1.5 -9.5t-1.5 -13.5q1 -5 11.5 -6.5
t56.5 -1.5h66h43q19 0 29.5 -8.5t17.5 -29.5q5 -16 11.5 -56.5t6.5 -44.5q0 -34 -16 -56t-41 -22q-32 0 -84 4t-72 4q-16 0 -22.5 -8.5t-6.5 -28.5q0 -15 2.5 -48.5t2.5 -51.5q0 -28 -1 -71.5t-1 -59.5q0 -55 3.5 -64.5t16.5 -9.5l5 1t9 1q7 0 26 -1t30 -1q21 0 53 3t43 3
q18 0 27.5 -12.5t9.5 -36.5v-21q0 -16 11 -43t11 -43q0 -25 -16 -46t-33 -21q-13 0 -35.5 2t-31.5 2q-5 0 -18.5 -1t-22.5 -1q-7 0 -23 1t-24 1q-22 0 -31.5 -3.5t-9.5 -12.5q0 -6 2 -20.5t2 -22.5q0 -31 -1 -62l-1 -31q0 -10 1 -56.5t1 -82.5v-49q0 -20 2 -63t2 -66
q0 -44 -13.5 -71t-35.5 -27z" />
    <glyph glyph-name="bullet" unicode="&#x2022;" horiz-adv-x="1208" 
d="M307 762q0 123 87 209t210 86q122 0 208.5 -86.5t86.5 -208.5t-87.5 -209.5t-209.5 -87.5q-123 0 -209 87t-86 210z" />
    <glyph glyph-name="ellipsis" unicode="&#x2026;" horiz-adv-x="2048" 
d="M180 74q0 65 31 103q17 20 24 38q10 26 35.5 45t36.5 19q6 0 29 -10.5t24 -10.5q8 0 17 2h2q14 0 59 -57t45 -86q0 -31 -14 -66t-27 -35q-2 0 -5 1t-5 1q-1 0 -1 -1q-6 -24 -73 -44q-20 -5 -36.5 -13.5t-18.5 -8.5q-27 0 -75 38t-48 85zM862 74q0 65 31 103q17 20 24 38
q10 26 35.5 45t36.5 19q6 0 29 -10.5t24 -10.5q8 0 17 2h2q14 0 59 -57t45 -86q0 -31 -14 -66t-27 -35q-2 0 -5 1t-5 1q-1 0 -1 -1q-6 -24 -73 -44q-20 -5 -36.5 -13.5t-18.5 -8.5q-27 0 -75 38t-48 85zM1546 74q0 65 31 103q17 20 24 38q10 26 35.5 45t36.5 19
q6 0 29 -10.5t24 -10.5q8 0 17 2h2q14 0 59 -57t45 -86q0 -31 -14 -66t-27 -35q-2 0 -5 1t-5 1q-1 0 -1 -1q-6 -24 -73 -44q-20 -5 -36.5 -13.5t-18.5 -8.5q-27 0 -75 38t-48 85z" />
    <glyph glyph-name="perthousand" unicode="&#x2030;" horiz-adv-x="2019" 
d="M1718 508q-36 0 -79.5 -78.5t-43.5 -169.5q0 -66 21 -115t45 -49q34 0 78.5 86.5t44.5 186.5q0 58 -20 98.5t-46 40.5zM1415 264q0 76 30 156t89 160q28 39 63 68.5t43 29.5t25 -8.5t25 -10.5l18 -3q69 -11 135 -58q7 -5 16 -10q22 -12 36 -40q3 -6 11 -20
q50 -90 50 -186q0 -141 -88 -269t-176 -128q-118 0 -197.5 94.5t-79.5 224.5zM1085 504q-35 0 -77.5 -78.5t-42.5 -169.5q0 -66 19.5 -115t43.5 -49q34 0 79.5 86.5t45.5 186.5q0 58 -20.5 98.5t-47.5 40.5zM788 264q0 75 30 154.5t89 159.5q29 39 64.5 69.5t44.5 30.5
q8 0 24.5 -8.5t23.5 -9.5q8 -2 19 -4q67 -11 133 -58q6 -4 17 -10q21 -12 35 -40q3 -6 11 -20q52 -93 52 -188q0 -141 -87.5 -268t-176.5 -127q-118 0 -198.5 95t-80.5 224zM356 -57q-52 0 -81 27t-29 71q0 40 337 534q165 241 265 390q85 126 185 252q19 24 22 29l1 2
q20 36 85 36q49 0 79.5 -23t30.5 -49q0 -2 -25 -29q-207 -229 -464 -601q-139 -201 -268 -420t-138 -219zM367 1108q-37 0 -79 -78t-42 -170q0 -67 19.5 -115.5t43.5 -48.5q33 0 79 86t46 187q0 58 -20.5 98.5t-46.5 40.5zM68 864q0 76 30 156t88 160q29 39 63.5 68.5
t43.5 29.5q8 0 24.5 -8.5t25.5 -10.5q6 -1 17 -3q66 -10 134 -58q5 -4 16 -10q24 -13 37 -39q3 -7 11 -21q50 -90 50 -186q0 -142 -87.5 -269.5t-176.5 -127.5q-118 0 -197 94t-79 225z" />
    <glyph glyph-name="guilsinglleft" unicode="&#x2039;" horiz-adv-x="573" 
d="M313 856q66 0 111 -18t45 -43q0 -1 -35 -59t-74 -136q-19 -41 -49 -97t-30 -65q0 -5 21.5 -49t53.5 -102q19 -33 49 -86q66 -117 66 -123q0 -8 -40 -34t-64 -26q-67 0 -159 177l-9 18q-15 28 -40 76q-69 132 -69 151q0 31 57 129q33 56 52 90q23 44 57 110q44 87 57 87z
" />
    <glyph glyph-name="guilsinglright" unicode="&#x203a;" horiz-adv-x="573" 
d="M100 795q0 24 46.5 42.5t107.5 18.5q15 0 61 -89q33 -64 56 -105q17 -32 47 -84q61 -105 61 -138q0 -13 -18.5 -53t-89.5 -174l-10 -18q-92 -177 -158 -177q-25 0 -65 26t-40 34q0 7 59 110q34 60 56 99q31 55 53.5 101t22.5 50q0 8 -31 65q-22 43 -37 71q-7 14 -33 67.5
t-43 83.5q-8 15 -26.5 37.5t-18.5 32.5z" />
    <glyph glyph-name="franc" unicode="&#x20a3;" horiz-adv-x="1323" 
d="M143 66q0 16 -3 48t-3 46q0 20 1 53.5t1 46.5q0 31 -3 110.5t-3 127.5q0 99 1 279t1 261q0 16 2 78.5t2 108.5q0 10 -2 46t-2 62q0 23 5 33.5t17 11.5q72 12 136.5 18.5t95.5 6.5q147 0 197.5 -5.5t66.5 -19.5q44 -39 63 -73.5t19 -73.5q0 -32 -8.5 -46t-32.5 -14h-26
q-141 -4 -287 -4q-14 0 -20.5 -8t-6.5 -24q0 -11 4 -43.5t4 -55.5q0 -12 -4 -81t-4 -126q0 -4 3.5 -6t11.5 -2q2 0 15 1q60 3 116 3q90 0 145 -39t55 -96q0 -16 -16 -55q-8 -18 -12 -28q-5 -14 -70 -21q-16 -1 -27 -2h-86h-55q-45 0 -56 -4.5t-11 -18.5v-6q2 -22 2 -41
q0 -26 -4.5 -169t-4.5 -259v-23q0 -79 -17.5 -104t-59.5 -25q-35 0 -90.5 35t-55.5 60q0 2 3 14.5t3 22.5zM874 111q0 9 -2 33t-2 38q0 129 6.5 309t6.5 232q0 12 -1 38t-1 40q0 32 7 44.5t23 12.5q94 0 125 -44q4 -7 6 -7q5 0 27.5 52t63.5 52q83 0 125 -25t42 -75
q0 -4 -1 -13.5t-1 -13.5q0 -11 4.5 -34.5t4.5 -34.5q0 -19 -18 -51.5t-23 -47.5q-4 -9 -11 -25q-17 -44 -34 -44q-18 0 -44.5 19t-37.5 42q-6 13 -13.5 46.5t-21.5 33.5q-6 0 -10 -12t-4 -31q0 -26 -7.5 -168.5t-7.5 -259.5q0 -12 1 -54.5t1 -72.5q0 -29 -4 -58.5l-4 -29.5
q0 -1 1 -4q1 -9 1 -18t-14.5 -16t-34.5 -7q-42 0 -80 9t-41 18q-18 45 -27 82v45z" />
    <glyph glyph-name="trademark" unicode="&#x2122;" horiz-adv-x="1706" 
d="M809 1460h170l141 -360l133 360h170v-542h-114v428l-160 -428h-59l-166 428v-428h-115v542zM225 1460h467v-94h-168v-448h-129v448h-170v94z" />
    <glyph glyph-name="partialdiff" unicode="&#x2202;" horiz-adv-x="1075" 
d="M758 639q17 103 26 186.5t9 147.5q0 120 -29 174.5t-92 54.5q-62 0 -147 -58.5t-122 -58.5t-64.5 26t-27.5 60q0 66 79 115t200 49q176 0 287.5 -159t111.5 -422q0 -338 -150 -558.5t-376 -220.5q-161 0 -266 112t-105 286q0 193 113 322.5t278 129.5q101 0 167.5 -45
t107.5 -141zM705 504q0 116 -41 178.5t-117 62.5q-105 0 -174.5 -131.5t-69.5 -337.5q0 -116 40.5 -177.5t117.5 -61.5q105 0 174.5 132.5t69.5 334.5z" />
    <glyph glyph-name="Delta" unicode="&#x2206;" horiz-adv-x="1395" 
d="M698 1196l-379 -983h756zM569 1473h256l574 -1473h-1403z" />
    <glyph glyph-name="product" unicode="&#x220f;" horiz-adv-x="1579" 
d="M154 1473h1267v-1866h-286v1622h-695v-1622h-286v1866z" />
    <glyph glyph-name="summation" unicode="&#x2211;" horiz-adv-x="1421" 
d="M61 1473h1280v-226h-921l647 -684l-661 -729h974v-227h-1347v160l712 786l-684 719v201z" />
    <glyph glyph-name="minus" unicode="&#x2212;" horiz-adv-x="1706" 
d="M254 696h1198v-170h-1198v170z" />
    <glyph glyph-name="fraction" unicode="&#x2215;" horiz-adv-x="342" 
d="M-180 -57q-54 0 -83.5 28.5t-29.5 77.5q0 20 172.5 283.5t435.5 642.5q21 30 57 82q156 227 230 227q49 0 80 -23t31 -49q0 -2 -25 -29q-208 -229 -465 -601q-139 -202 -267 -420.5t-136 -218.5z" />
    <glyph glyph-name="periodcentered" unicode="&#x2219;" horiz-adv-x="487" 
d="M100 633q0 65 31 102q17 21 25 40q10 25 34.5 44t34.5 19q6 0 30 -9.5t26 -9.5h18q15 0 59.5 -57t44.5 -86q0 -31 -13.5 -66t-27.5 -35q-2 0 -5 1.5t-5 1.5q-1 -1 -1 -2q-8 -25 -73 -44q-17 -5 -35 -13.5t-24 -8.5q-24 0 -71.5 38.5t-47.5 84.5z" />
    <glyph glyph-name="radical" unicode="&#x221a;" horiz-adv-x="1323" 
d="M1128 1675h197v-110h-108l-594 -1606h-82l-316 872l-131 -49l-28 95l305 108l247 -688z" />
    <glyph glyph-name="infinity" unicode="&#x221e;" horiz-adv-x="1706" 
d="M928 559q45 -81 109.5 -122.5t146.5 -41.5q97 0 159 61.5t62 157.5q0 95 -57 158.5t-142 63.5q-78 0 -142 -63.5t-136 -213.5zM780 662q-46 81 -111 123t-145 42q-98 0 -159.5 -62t-61.5 -159q0 -94 56.5 -156.5t140.5 -62.5q80 0 144.5 62.5t135.5 212.5zM862 471
q-71 -135 -148.5 -197.5t-172.5 -62.5q-137 0 -232.5 114.5t-95.5 284.5q0 179 85 289.5t220 110.5q93 0 168.5 -60t157.5 -200q71 139 149.5 200.5t184.5 61.5q127 0 222 -116t95 -284q0 -178 -84.5 -288.5t-220.5 -110.5q-92 0 -166.5 57.5t-161.5 200.5z" />
    <glyph glyph-name="integral" unicode="&#x222b;" horiz-adv-x="1120" 
d="M324 -258q106 0 122 692q2 81 3 123q13 538 113 766.5t312 228.5q87 0 143 -45.5t56 -111.5q0 -61 -34 -95t-95 -34q-45 0 -74.5 22.5t-40.5 65.5q-4 17 -6 45q-3 40 -26 41q-101 0 -119 -615q-5 -161 -8 -249q-10 -280 -30.5 -427t-59.5 -245q-55 -136 -139.5 -205.5
t-194.5 -69.5q-87 0 -142 44t-55 112q0 63 35.5 97t99.5 34q39 0 66 -18t41 -54q6 -16 9 -59t24 -43z" />
    <glyph glyph-name="approxequal" unicode="&#x2248;" horiz-adv-x="1706" 
d="M1530 592v-186q-107 -73 -200 -106.5t-189 -33.5q-89 0 -279.5 66.5t-298.5 66.5q-84 0 -173.5 -36t-211.5 -121v184q112 75 206.5 110t180.5 35q118 0 309 -67.5t277 -67.5q83 0 172 36.5t207 119.5zM1530 979v-184q-109 -75 -201.5 -108.5t-187.5 -33.5
q-88 0 -278.5 67.5t-299.5 67.5q-82 0 -170 -35t-215 -122v184q109 73 205 109.5t182 36.5q120 0 310 -68t268 -68q92 0 181 35t206 119z" />
    <glyph glyph-name="notequal" unicode="&#x2260;" horiz-adv-x="1706" 
d="M1204 1212l123 -100l-170 -215h295v-162h-403l-197 -250h600v-161h-707l-249 -314l-123 99l170 215h-289v161h393l199 250h-592v162h700z" />
    <glyph glyph-name="lessequal" unicode="&#x2264;" horiz-adv-x="1706" 
d="M260 178h1186v-166h-1186v166zM1446 1223v-176l-889 -287l889 -287v-176l-1186 389v145z" />
    <glyph glyph-name="greaterequal" unicode="&#x2265;" horiz-adv-x="1706" 
d="M260 178h1188v-166h-1188v166zM260 1223l1186 -392v-145l-1186 -389v176l891 287l-891 287v176z" />
    <glyph glyph-name="lozenge" unicode="&#x25ca;" horiz-adv-x="1012" 
d="M506 1409l-385 -817l385 -825l385 825zM506 1653l500 -1061l-500 -1069l-500 1069z" />
    <glyph glyph-name="apple" unicode="&#xf000;" horiz-adv-x="1618" 
d="M836 1216q-1 6 -1.5 14t-0.5 23q0 124 95 229.5t236 131.5q1 -10 1.5 -23t0.5 -39q0 -131 -103.5 -234.5t-203.5 -103.5h-8q-3 0 -7.5 1t-8.5 1zM1505 403q-114 -247 -205 -342.5t-204 -95.5q-50 0 -131.5 33t-122.5 33q-45 0 -131 -33t-127 -33q-64 0 -128.5 44
t-129.5 132q-102 140 -157.5 295.5t-55.5 300.5q0 219 125 356.5t323 137.5q68 0 155 -34t124 -34q34 0 121.5 35t152.5 35q110 0 198 -40t161 -124q-102 -65 -151.5 -145.5t-49.5 -182.5q0 -113 60 -200t173 -138z" />
    <glyph glyph-name="fi" unicode="&#xf001;" horiz-adv-x="958" 
d="M791 1018q-68 0 -106 31.5t-38 87.5q0 4 1 14.5t1 15.5q0 7 -2 18.5t-2 14.5q0 49 29 84t78 35q33 0 63.5 -30t30.5 -42q0 -19 11 -45.5t11 -34.5q0 -69 -23 -109t-54 -40zM788 -43q-51 0 -89.5 17t-47.5 44q-8 27 -11 134t-3 499q0 94 9 185q1 16 1 20q0 35 11.5 44
t39.5 9q78 0 121 -23t43 -65q0 -3 -1 -19q-11 -127 -11 -280v-205q0 -3 -1 -18q-1 -50 -1 -94q0 -54 2 -116t2 -69q0 -31 -16 -47t-48 -16zM143 106v41q0 18 2 52t2 49q0 25 -4 76.5t-4 76.5q0 24 4 72t4 72q0 4 -2 24t-2 35q0 21 -5 29t-17 8q-4 0 -13 -1t-16 -1
q-9 0 -18 2t-19 6q-10 5 -12 28q-1 12 -2 19q-2 24 -10 46.5t-8 27.5q0 36 63.5 40.5t63.5 25.5q0 4 -2.5 18t-2.5 25q0 227 61.5 392t131.5 165q63 0 154.5 -51t91.5 -99q0 -24 4 -57t4 -41q0 -14 -2 -39.5t-2 -36.5q0 -4 1 -18t1 -23q0 -46 -23.5 -63t-91.5 -17
q-25 0 -43 37t-18 90q0 18 1 44.5t1 35.5q0 22 -5 32.5t-16 10.5q-24 0 -37.5 -98t-13.5 -275q0 -14 5.5 -20t17.5 -6q15 0 38.5 3t32.5 3q38 0 53 -6t15 -21q0 -7 -3 -22.5t-3 -24.5q0 -8 1 -24.5t1 -24.5q0 -35 -5.5 -46t-21.5 -11q-4 0 -18.5 2t-26.5 2q-45 0 -63.5 -5
t-18.5 -22v-6q0 -21 -1 -47.5t-1 -32.5q0 -16 1 -38t1 -27q0 -18 -2 -77.5t-2 -101.5q0 -20 1 -44t1 -27q0 -24 -2 -63.5t-2 -55.5q0 -29 2 -65t2 -44q0 -34 -10 -49.5t-31 -15.5q-22 0 -76.5 13t-63.5 18q-7 4 -14.5 43t-7.5 83z" />
    <glyph glyph-name="fl" unicode="&#xf002;" horiz-adv-x="958" 
d="M780 -47q-25 0 -67.5 16.5t-57.5 32.5q-13 15 -18.5 76.5t-5.5 245.5v96q0 121 9 467q6 214 9 335q1 20 1 53q4 165 40 165q76 0 128 -25.5t52 -60.5q0 -79 -13 -245.5t-13 -242.5v-80q0 -40 -3 -123.5t-3 -125.5q0 -46 1 -120.5t1 -103.5q0 -46 -1 -106t-1 -74
q0 -30 2 -63t2 -37q0 -42 -15 -61t-47 -19zM143 106v41q0 18 2 52t2 49q0 25 -4 76.5t-4 76.5q0 24 4 72t4 72q0 4 -2 24t-2 35q0 21 -5 29t-17 8q-4 0 -13 -1t-16 -1q-9 0 -18 2t-19 6q-10 5 -12 28q-1 12 -2 19q-2 24 -10 46.5t-8 27.5q0 36 63.5 40.5t63.5 25.5
q0 4 -2.5 18t-2.5 25q0 227 61.5 392t131.5 165q63 0 154.5 -51t91.5 -99q0 -24 4 -57t4 -41q0 -14 -2 -39.5t-2 -36.5q0 -4 1 -18t1 -23q0 -46 -23.5 -63t-91.5 -17q-25 0 -43 37t-18 90q0 18 1 44.5t1 35.5q0 22 -5 32.5t-16 10.5q-24 0 -37.5 -98t-13.5 -275
q0 -14 5.5 -20t17.5 -6q15 0 38.5 3t32.5 3q38 0 53 -6t15 -21q0 -7 -3 -22.5t-3 -24.5q0 -8 1 -24.5t1 -24.5q0 -35 -5.5 -46t-21.5 -11q-4 0 -18.5 2t-26.5 2q-45 0 -63.5 -5t-18.5 -22v-6q0 -21 -1 -47.5t-1 -32.5q0 -16 1 -38t1 -27q0 -18 -2 -77.5t-2 -101.5
q0 -20 1 -44t1 -27q0 -24 -2 -63.5t-2 -55.5q0 -29 2 -65t2 -44q0 -34 -10 -49.5t-31 -15.5q-22 0 -76.5 13t-63.5 18q-7 4 -14.5 43t-7.5 83z" />
    </font>
</defs>
</svg>
