<?xml version="1.0" standalone="no"?>
<!DOCTYPE svg PUBLIC "-//W3C//DTD SVG 1.1//EN" "http://www.w3.org/Graphics/SVG/1.1/DTD/svg11.dtd" >
<svg>
<metadata>
Created by FontForge 20110222 at Mon Sep 30 09:44:22 2013
 By Orthosie Webhosting
Copyright 1990-2001 Bitstream Inc. All rights reserved.
</metadata>
<defs>
<font id="TangoBTRegular" horiz-adv-x="1024" >
  <font-face 
    font-family="TangoBTRegular"
    font-weight="400"
    font-stretch="normal"
    units-per-em="2048"
    panose-1="4 4 7 4 2 16 2 2 7 3"
    ascent="1556"
    descent="-492"
    x-height="739"
    cap-height="1112"
    bbox="-342 -563 2062 1675"
    underline-thickness="127"
    underline-position="-99"
    unicode-range="U+0020-F002"
  />
<missing-glyph horiz-adv-x="1229" 
d="M102 -362v1806h1024v-1806h-1024zM217 -248h795v1577h-795v-1577z" />
    <glyph glyph-name=".notdef" horiz-adv-x="1229" 
d="M102 -362v1806h1024v-1806h-1024zM217 -248h795v1577h-795v-1577z" />
    <glyph glyph-name=".null" horiz-adv-x="0" 
 />
    <glyph glyph-name="nonmarkingreturn" horiz-adv-x="498" 
 />
    <glyph glyph-name="space" unicode=" " horiz-adv-x="498" 
 />
    <glyph glyph-name="exclam" unicode="!" horiz-adv-x="530" 
d="M266 279q59 0 99.5 -44t40.5 -108q0 -65 -40 -108.5t-100 -43.5q-59 0 -99 44t-40 108q0 67 39 109.5t100 42.5zM266 1124q69 0 105.5 -45.5t36.5 -132.5q0 -44 -34 -189t-38 -257q-1 -16 -1 -41q-3 -129 -69 -129q-67 0 -70 129q-1 27 -1 40q-5 115 -38.5 259t-33.5 188
q0 87 37 132.5t106 45.5z" />
    <glyph glyph-name="quotedbl" unicode="&#x22;" horiz-adv-x="694" 
d="M496 856l-74 458q-1 8 -1.5 16.5t-0.5 23.5q0 51 25.5 79.5t70.5 28.5t70.5 -28t25.5 -78q0 -13 -3 -36q-1 -4 -1 -5l-73 -459h-39zM160 856l-74 459q-1 7 -1.5 15.5t-0.5 23.5q0 52 24.5 80t69.5 28q47 0 71.5 -27.5t24.5 -80.5q0 -16 -0.5 -24.5t-1.5 -15.5l-73 -458
h-39z" />
    <glyph glyph-name="numbersign" unicode="#" horiz-adv-x="1575" 
d="M977 858h-275l-94 -264h275zM920 1460l-156 -436h268l156 436h182l-156 -436h291l-59 -166h-291l-92 -262h307l-59 -168h-307l-154 -434h-184l155 434h-268l-154 -434h-184l156 434h-301l59 168h301l92 262h-319l61 166h318l155 436h183z" />
    <glyph glyph-name="dollar" unicode="$" horiz-adv-x="891" 
d="M535 1143v-37q112 -24 178.5 -93t66.5 -161q0 -48 -29.5 -78.5t-74.5 -30.5q-61 0 -99 81q-6 13 -10 20q-24 44 -56.5 65t-78.5 21q-49 0 -79.5 -27t-30.5 -69q0 -72 145 -132q68 -27 106 -47q123 -62 176.5 -138.5t53.5 -188.5q0 -126 -75 -217t-193 -109v-63
q0 -50 -24 -75.5t-71 -25.5t-71.5 25.5t-24.5 75.5v59q-126 19 -206.5 102.5t-80.5 190.5q0 64 34.5 102.5t90.5 38.5q47 0 76 -29.5t45 -93.5q18 -69 52 -100t94 -31q62 0 98.5 37t36.5 100q0 115 -176 190q-56 24 -89 40q-116 57 -168.5 124t-52.5 158q0 105 68.5 180.5
t177.5 90.5v45q0 49 24 73.5t72 24.5t71.5 -24.5t23.5 -73.5z" />
    <glyph glyph-name="percent" unicode="%" horiz-adv-x="1194" 
d="M907 414q-36 0 -54.5 -37.5t-18.5 -108.5q0 -69 18.5 -107t52.5 -38t53 38t19 107q0 70 -18 108t-52 38zM907 561q94 0 155.5 -82.5t61.5 -210.5q0 -127 -62 -210t-155 -83q-95 0 -157 82t-62 211q0 131 61.5 212t157.5 81zM1081 1013l-860 -1001q-15 -18 -33 -27.5
t-38 -9.5q-22 0 -44 21.5t-22 44.5q0 15 7.5 30.5t23.5 34.5l858 1002q17 20 34.5 29.5t39.5 9.5t42.5 -21.5t20.5 -48.5q0 -16 -7 -31.5t-22 -32.5zM289 999q-36 0 -54 -36.5t-18 -108.5q0 -69 19 -107t53 -38t52.5 38t18.5 107t-18.5 107t-52.5 38zM289 1147
q94 0 155.5 -82.5t61.5 -210.5q0 -127 -62 -209t-155 -82q-95 0 -156 81t-61 210q0 131 60.5 212t156.5 81z" />
    <glyph glyph-name="ampersand" unicode="&#x26;" horiz-adv-x="1176" 
d="M440 311q-63 -37 -90.5 -74t-27.5 -83q0 -76 52 -128.5t130 -52.5q52 0 95 23.5t77 71.5q-56 77 -114 137t-122 106zM623 422q38 -31 78.5 -70.5t87.5 -90.5q6 9 9 17t3 17q0 15 -16.5 47t-16.5 53q0 34 20 47t74 13h148q45 0 69.5 -20.5t24.5 -59.5q0 -57 -49.5 -80
t-63.5 -51l-63 -129q71 -94 111 -194t40 -177q0 -70 -35 -112t-94 -42q-76 0 -122 150q-29 96 -54 158q-54 -61 -126.5 -89t-178.5 -28q-162 0 -265.5 96t-103.5 246q0 97 46 169.5t155 145.5q-59 55 -87 110.5t-28 119.5q0 120 84 191t226 71q134 0 214.5 -71.5
t80.5 -190.5q0 -82 -41 -142t-127 -104zM473 537q57 26 86 56.5t29 65.5q0 38 -27 61t-69 23q-46 0 -72.5 -22.5t-26.5 -61.5q0 -27 20 -58t60 -64z" />
    <glyph glyph-name="quotesingle" unicode="'" horiz-adv-x="358" 
d="M160 856l-74 459q-1 7 -1.5 15.5t-0.5 23.5q0 52 24.5 80t69.5 28q47 0 71.5 -27.5t24.5 -80.5q0 -16 -0.5 -24.5t-1.5 -15.5l-73 -458h-39z" />
    <glyph glyph-name="parenleft" unicode="(" horiz-adv-x="664" 
d="M520 1124q30 0 48 -18.5t18 -48.5q0 -28 -43 -106q-24 -43 -37 -68q-72 -142 -103.5 -269.5t-31.5 -271.5q0 -134 27.5 -253t88.5 -249q19 -38 51 -97q48 -89 48 -118q0 -30 -18 -48.5t-48 -18.5q-45 0 -107 53t-120 143q-82 125 -121 268.5t-39 319.5q0 162 32 293.5
t99 247.5q63 109 134.5 175t121.5 66z" />
    <glyph glyph-name="parenright" unicode=")" horiz-adv-x="664" 
d="M78 1057q0 30 18 48.5t47 18.5q45 0 106 -52.5t122 -143.5q82 -126 120.5 -268t38.5 -318t-39 -319.5t-120 -268.5q-59 -90 -121 -143t-107 -53q-29 0 -47 18.5t-18 48.5q0 27 41 100q25 46 39 74q74 149 105.5 275.5t31.5 267.5q0 131 -28 249t-91 251q-17 35 -47 91
q-51 95 -51 124z" />
    <glyph glyph-name="asterisk" unicode="*" horiz-adv-x="995" 
d="M498 1124q42 0 68 -28t26 -74q0 -53 -35 -119.5t-35 -85.5q0 -11 2 -16.5t6 -5.5q13 0 30 18.5t50 71.5q30 45 66 70.5t72 25.5q39 0 65.5 -28.5t26.5 -71.5q0 -41 -39.5 -70t-106.5 -37q-16 -2 -45 -4q-92 -8 -92 -25q0 -19 75 -24q52 -3 80 -8q59 -11 93.5 -41
t34.5 -70q0 -38 -28 -66t-67 -28q-31 0 -64 21.5t-60 60.5q-12 15 -30 44q-39 60 -61 60q-5 0 -6.5 -2.5t-1.5 -9.5q0 -31 35 -99t35 -116q0 -46 -26 -74t-68 -28q-43 0 -69 27t-26 73q0 51 35 120.5t35 92.5q0 9 -2 12.5t-6 3.5q-24 0 -65 -64q-15 -24 -23 -36
q-30 -42 -63 -64t-66 -22q-38 0 -65 27.5t-27 66.5q0 42 33.5 71t95.5 40q24 4 71 6q82 5 82 26q0 18 -81 24q-49 3 -74 7q-58 9 -92.5 39.5t-34.5 71.5q0 38 27.5 66t66.5 28q34 0 71 -26.5t66 -71.5l2 -3q56 -85 76 -85q5 0 7.5 6t2.5 16q0 16 -36 85.5t-36 123.5
q0 43 27 70.5t68 27.5z" />
    <glyph glyph-name="plus" unicode="+" horiz-adv-x="1706" 
d="M938 1221v-527h514v-166h-514v-528h-170v528h-514v166h514v527h170z" />
    <glyph glyph-name="comma" unicode="," horiz-adv-x="498" 
d="M240 281q64 0 103.5 -49t39.5 -132q0 -101 -71.5 -188.5t-135.5 -87.5q-22 0 -35.5 12t-13.5 33q0 19 31.5 54t31.5 61q0 22 -42 68t-42 95q0 58 38 96t96 38z" />
    <glyph glyph-name="hyphen" unicode="-" horiz-adv-x="645" 
d="M172 471h301q44 0 67 -22.5t23 -65.5t-22.5 -64.5t-67.5 -21.5h-301q-45 0 -68.5 22t-23.5 64q0 43 23.5 65.5t68.5 22.5z" />
    <glyph glyph-name="period" unicode="." horiz-adv-x="498" 
d="M250 279q58 0 98.5 -44t40.5 -108q0 -65 -40 -108.5t-99 -43.5q-60 0 -100.5 44.5t-40.5 107.5q0 66 40 109t101 43z" />
    <glyph glyph-name="slash" unicode="/" horiz-adv-x="551" 
d="M580 1004l-519 -1348q-10 -27 -30 -43t-43 -16q-37 0 -61.5 21.5t-24.5 53.5q0 9 2 18.5t8 24.5l518 1348q12 32 30.5 47.5t43.5 15.5q35 0 60.5 -23.5t25.5 -55.5q0 -8 -2.5 -18.5t-7.5 -24.5z" />
    <glyph glyph-name="zero" unicode="0" horiz-adv-x="995" 
d="M500 958q-103 0 -158 -100t-55 -291t54.5 -291t158.5 -100t158.5 100t54.5 291t-55 291t-158 100zM500 1147q188 0 312 -164.5t124 -421.5q0 -256 -123.5 -421t-312.5 -165q-192 0 -314.5 163t-122.5 423q0 261 122.5 423.5t314.5 162.5z" />
    <glyph glyph-name="one" unicode="1" horiz-adv-x="551" 
d="M399 1055v-789q0 -39 5.5 -60t15.5 -30q8 -7 29 -17q59 -27 59 -83q0 -39 -23 -57.5t-71 -18.5h-248q-49 0 -71.5 18.5t-22.5 57.5q0 54 55 83q17 9 27 15q13 8 18.5 28t5.5 64v602h-24q-39 0 -60.5 18t-21.5 50q0 25 9 41.5t34 34.5l127 92q23 16 42 22.5t42 6.5
q35 0 54 -20.5t19 -57.5z" />
    <glyph glyph-name="two" unicode="2" horiz-adv-x="891" 
d="M698 553l-348 -324q-4 -4 -7 -9.5t-3 -10.5q0 -10 6.5 -14.5t24.5 -4.5h12l84 3h16q91 3 142 45q17 14 44 46q55 64 109 64q33 0 58.5 -24t25.5 -56q0 -17 -1 -24.5t-3 -12.5l-84 -213q-9 -24 -30 -37.5t-52 -13.5q-29 0 -47 7.5t-33 25.5h-352q-74 0 -127 58t-53 137
q0 77 95 164l1 1l331 311q3 3 9 8q74 66 74 134q0 58 -40.5 92.5t-109.5 34.5q-68 0 -110.5 -33t-42.5 -84q0 -39 43 -86t43 -75q0 -46 -38 -79.5t-89 -33.5q-78 0 -136.5 75.5t-58.5 182.5q0 149 107 244.5t276 95.5q180 0 285.5 -91t105.5 -243q0 -75 -28 -134t-99 -126z
" />
    <glyph glyph-name="three" unicode="3" horiz-adv-x="967" 
d="M365 1126h307q83 0 131.5 -43t48.5 -116q0 -37 -17.5 -71t-50.5 -62l-96 -80q-16 -13 -23.5 -23t-7.5 -18q1 -10 19 -15.5t33 -13.5q100 -54 148 -134t48 -194q0 -161 -117.5 -271t-298.5 -110q-176 0 -298.5 115t-122.5 281q0 107 49.5 179.5t120.5 72.5q50 0 84 -31.5
t34 -77.5q0 -19 -21.5 -69t-21.5 -85q0 -68 54.5 -119t128.5 -51q73 0 125.5 51.5t52.5 120.5q0 79 -43.5 123t-153.5 70q-66 16 -92.5 44t-26.5 79q0 23 13.5 47.5t36.5 44.5l153 129q2 2 6 5q17 14 17 22q0 5 -8 9.5t-19 4.5l-98 -2q-76 -1 -147.5 -61t-106.5 -60
q-36 0 -58 22.5t-22 57.5q0 11 2.5 23t7.5 26l66 173q9 24 31 38t51 14q34 0 52 -10t30 -35z" />
    <glyph glyph-name="four" unicode="4" horiz-adv-x="930" 
d="M518 821v21q0 15 -4 19.5t-14 4.5q-5 0 -16 -15q-4 -6 -7 -9l-190 -238q-2 -2 -5 -6q-20 -25 -20 -43q1 -6 4.5 -8t12.5 -2h12h227v276zM731 946v-401h60q59 0 82.5 -20.5t23.5 -69.5t-23 -69.5t-83 -20.5h-60v-62h4q42 0 66 -23t24 -63q0 -32 -14 -56.5t-53 -54.5
l-129 -98q-26 -19 -44.5 -26t-39.5 -7q-46 0 -74.5 27.5t-28.5 69.5q0 28 41 85.5t41 118.5v89h-321q-80 0 -125 42t-45 117q0 38 12.5 70.5t44.5 73.5l316 389q41 51 79 71.5t86 20.5q82 0 121 -49.5t39 -153.5z" />
    <glyph glyph-name="five" unicode="5" horiz-adv-x="930" 
d="M795 1024l-33 -90q-17 -47 -35 -60.5t-49 -13.5q-32 0 -79.5 37t-96.5 37h-146l-24 -174l6 -10q39 16 74 23t73 7q176 0 284 -110t108 -289q0 -177 -115 -291.5t-295 -114.5q-179 0 -300.5 104.5t-121.5 256.5q0 79 34.5 120.5t100.5 41.5q52 0 78 -26t31 -83
q7 -103 52.5 -154t129.5 -51q80 0 128 56.5t48 152.5q0 91 -49.5 145t-132.5 54q-30 0 -88.5 -23.5t-110.5 -23.5h-80q-51 0 -69.5 16t-18.5 57q0 28 0.5 38.5t1.5 16.5l39 363q5 44 36 66.5t89 23.5h379q17 13 34.5 19t35.5 6q40 0 65 -24.5t25 -63.5q0 -8 -2 -18.5
t-6 -20.5z" />
    <glyph glyph-name="six" unicode="6" horiz-adv-x="967" 
d="M66 551q0 272 122 434t326 162q137 0 241.5 -81t104.5 -177q0 -50 -30 -80.5t-80 -30.5q-32 0 -59.5 16t-51.5 48q-8 10 -21 29q-52 73 -120 73q-80 0 -137.5 -82t-57.5 -170q0 -12 2.5 -19t7.5 -7q6 0 26 15q89 69 193 69q158 0 268.5 -109.5t110.5 -265.5
q0 -173 -113 -286.5t-284 -113.5q-204 0 -326 156t-122 420zM502 563q-79 0 -129.5 -55t-50.5 -139q0 -86 50 -140.5t130 -54.5t130 54.5t50 140.5q0 84 -51 139t-129 55z" />
    <glyph glyph-name="seven" unicode="7" horiz-adv-x="815" 
d="M299 1126h328q73 0 116 -39t43 -104q0 -69 -93 -183q-45 -56 -68 -89q-68 -99 -100.5 -196t-32.5 -198q0 -35 6 -95t6 -85q0 -77 -36 -119.5t-101 -42.5q-76 0 -121 73.5t-45 197.5q0 110 34 209.5t109 206.5q62 89 139.5 169t77.5 89q0 8 -11.5 14t-29.5 6l-128 -2
q-79 -1 -151 -69t-108 -68t-60 26t-24 66q0 11 3 24t9 29l70 172q11 26 32.5 39.5t49.5 13.5t48 -10.5t38 -34.5z" />
    <glyph glyph-name="eight" unicode="8" horiz-adv-x="891" 
d="M446 963q-52 0 -86 -36t-34 -89q0 -52 34 -86.5t86 -34.5q54 0 87.5 34t33.5 87t-34 89t-87 36zM446 526q-77 0 -126.5 -49.5t-49.5 -126.5t49 -126.5t127 -49.5t126.5 49t48.5 127q0 77 -49 126.5t-126 49.5zM446 1147q150 0 237 -78t87 -211q0 -109 -80 -183
q-16 -15 -16 -20q0 -11 22 -24q15 -9 23 -15q61 -44 93 -113t32 -159q0 -166 -109 -267.5t-289 -101.5q-179 0 -289 101.5t-110 267.5q0 86 28.5 152.5t83.5 111.5q12 9 32 20q26 15 26 27q0 5 -16 20q-80 74 -80 183q0 133 88 211t237 78z" />
    <glyph glyph-name="nine" unicode="9" horiz-adv-x="967" 
d="M467 954q-80 0 -130 -53t-50 -139q0 -85 50.5 -140t129.5 -55q78 0 129 55t51 140q0 84 -50 138t-130 54zM457 1147q206 0 328 -154.5t122 -419.5q0 -272 -123 -435t-325 -163q-164 0 -280 88t-116 197q0 52 32 80.5t89 28.5q41 0 70.5 -18t60.5 -62q4 -5 11 -15
q67 -94 147 -94q81 0 139 81.5t58 172.5q0 11 -3 18t-8 7t-25 -15q-88 -67 -194 -67q-162 0 -272.5 108t-110.5 265q0 172 114 284.5t286 112.5z" />
    <glyph glyph-name="colon" unicode=":" horiz-adv-x="508" 
d="M256 279q58 0 97.5 -43.5t39.5 -108.5t-39 -108.5t-98 -43.5q-60 0 -100.5 44.5t-40.5 107.5q0 66 40 109t101 43zM256 764q58 0 97.5 -44.5t39.5 -109.5t-39 -107t-98 -42q-60 0 -100.5 43t-40.5 106q0 67 40 110.5t101 43.5z" />
    <glyph glyph-name="semicolon" unicode=";" horiz-adv-x="508" 
d="M246 281q64 0 102.5 -49t38.5 -132q0 -101 -71.5 -188.5t-135.5 -87.5q-22 0 -35.5 12t-13.5 33q0 19 32 54t32 61q0 22 -41 68t-41 95q0 58 37.5 96t95.5 38zM256 764q58 0 97.5 -44.5t39.5 -109.5t-39 -107t-98 -42q-60 0 -100.5 43t-40.5 106q0 67 40 110.5t101 43.5z
" />
    <glyph glyph-name="less" unicode="&#x3c;" horiz-adv-x="1706" 
d="M1442 991l-934 -381l934 -381v-182l-1178 483v160l1178 486v-185z" />
    <glyph glyph-name="equal" unicode="=" horiz-adv-x="1706" 
d="M1452 487v-165h-1198v165h1198zM1452 901v-168h-1198v168h1198z" />
    <glyph glyph-name="greater" unicode="&#x3e;" horiz-adv-x="1706" 
d="M1442 690v-160l-1178 -483v182l934 381l-934 381v185z" />
    <glyph glyph-name="question" unicode="?" horiz-adv-x="834" 
d="M395 279q59 0 99.5 -43t40.5 -107q0 -65 -41 -109.5t-99 -44.5q-60 0 -99.5 43.5t-39.5 110.5q0 63 40 106.5t99 43.5zM420 1124q164 0 263 -83.5t99 -221.5q0 -142 -163 -263q-61 -44 -89 -71t-53 -90t-69 -63q-36 0 -56 25.5t-20 70.5q0 93 126 219l13 12l3 4
q75 74 75 142q0 58 -40.5 91.5t-111.5 33.5q-51 0 -80.5 -21.5t-29.5 -58.5q0 -44 52 -59q14 -4 20 -7q22 -10 34.5 -29.5t12.5 -45.5q0 -51 -39.5 -85t-98.5 -34q-87 0 -147 70t-60 174q0 132 97 211t262 79z" />
    <glyph glyph-name="at" unicode="@" horiz-adv-x="2019" 
d="M1305 823l51 170h172l-172 -616l-2 -6q-15 -59 -15 -90q0 -49 22 -76t60 -27q34 0 84 22t92 56q110 88 169 222t59 296q0 279 -191 450t-504 171q-173 0 -328.5 -65t-273.5 -185q-122 -125 -183.5 -286t-61.5 -357q0 -172 59.5 -306.5t179.5 -234.5q106 -88 247 -135
t302 -47q166 0 321 51.5t304 157.5l37 -47q-148 -111 -315 -167.5t-347 -56.5q-188 0 -347 46.5t-275 134.5q-151 113 -230.5 277t-79.5 362q0 203 86 381t250 313q135 111 297.5 168t345.5 57q348 0 557 -188.5t209 -501.5q0 -159 -59 -297.5t-168 -237.5q-62 -54 -129 -82
t-133 -28q-98 0 -152.5 52.5t-60.5 152.5q-64 -105 -137.5 -154t-165.5 -49q-134 0 -212.5 92t-78.5 248q0 112 49 219t141 195q68 65 147.5 99t161.5 34q90 0 145.5 -47.5t72.5 -139.5zM1249 772q0 83 -37.5 132.5t-99.5 49.5q-64 0 -117 -45t-106 -147
q-57 -107 -87 -209.5t-30 -185.5t36.5 -133t94.5 -50q62 0 115.5 41.5t107.5 132.5q56 96 89.5 210t33.5 204z" />
    <glyph glyph-name="A" unicode="A" horiz-adv-x="1450" 
d="M1131 804l184 -620h20q37 0 62.5 -26t25.5 -64q0 -26 -13.5 -50t-51.5 -60l-199 -187q-23 -21 -39.5 -29t-34.5 -8q-42 0 -72 29.5t-30 71.5q0 34 54.5 102t54.5 137q0 18 -3.5 39t-9.5 45l-22 88h-316l-36 -139q-57 -213 -205 -335t-350 -122q-112 0 -177 48.5
t-65 130.5q0 55 37.5 85.5t105.5 30.5q16 0 59 -3t70 -3q128 0 211 81.5t135 258.5l131 442q2 5 5 15q14 42 14 69q0 39 -33 65t-84 26q-94 0 -157.5 -55.5t-63.5 -135.5q0 -38 16.5 -58t48.5 -20q12 0 34.5 6.5t33.5 6.5q33 0 52.5 -25t19.5 -68q0 -66 -49.5 -107.5
t-128.5 -41.5q-120 0 -192.5 81t-72.5 216q0 182 115 285.5t320 103.5q51 0 175.5 -12.5t198.5 -12.5q45 0 117 4.5t100 4.5q55 0 83 -23.5t28 -69.5t-56.5 -77t-56.5 -70q0 -12 2 -25.5t5 -24.5zM921 777q-1 4 -2 9q-5 17 -18 17q-15 -1 -19 -21q-1 -4 -1 -6l-82 -303h205z
" />
    <glyph glyph-name="B" unicode="B" horiz-adv-x="1294" 
d="M389 1100h354q185 0 290.5 -82t105.5 -223q0 -100 -37.5 -166.5t-120.5 -114.5q139 -44 207.5 -141t68.5 -250q0 -226 -169.5 -364t-452.5 -138q-278 0 -451.5 146t-173.5 374q0 131 67.5 223.5t153.5 92.5q55 0 86 -30.5t31 -84.5q0 -31 -10.5 -57.5t-36.5 -59.5
q-30 -37 -40.5 -67t-10.5 -70q0 -119 100 -191.5t266 -72.5q178 0 290 85.5t112 217.5t-92 209.5t-250 77.5q-21 0 -32 -0.5t-21 -1.5v-74h30q43 0 69 -25t26 -65q0 -26 -11.5 -48t-52.5 -63l-170 -168q-15 -15 -36.5 -23.5t-43.5 -8.5q-41 0 -72.5 31t-31.5 71
q0 26 36.5 89t36.5 132v41v539q0 43 -7 61.5t-26 26.5q-8 3 -28 8q-74 19 -74 80q0 35 24.5 59.5t57.5 24.5h39zM623 895v-274h122q86 0 126 33t40 104t-40 104t-126 33h-122z" />
    <glyph glyph-name="C" unicode="C" horiz-adv-x="1540" 
d="M899 776q61 -39 115.5 -59.5t99.5 -20.5q57 0 89 28t32 77q0 48 -38 83.5t-89 35.5q-61 0 -114 -36.5t-95 -107.5zM823 580q-12 -47 -18 -95t-6 -104q0 -178 71 -292t179 -114q85 0 136 55t56 152v9q8 181 119 182q63 0 100 -50.5t37 -138.5q0 -182 -126 -302t-322 -120
q-220 0 -354 171t-134 452q0 76 13 150.5t40 150.5q-70 47 -130.5 70.5t-108.5 23.5q-62 0 -99.5 -36t-37.5 -95q0 -39 22 -64.5t53 -25.5q12 0 46 11.5t57 11.5q40 0 66 -31t26 -80q0 -75 -55 -123.5t-142 -48.5q-129 0 -215 95.5t-86 242.5q0 158 96 256t250 98
q85 0 162 -25t176 -87q74 121 175.5 183t226.5 62q159 0 260.5 -94.5t101.5 -245.5q0 -135 -94 -221t-246 -86q-80 0 -152 25t-143 78z" />
    <glyph glyph-name="D" unicode="D" horiz-adv-x="1352" 
d="M641 -199h-276q-61 0 -87 22.5t-26 74.5q0 65 85 92q13 4 19 6q22 7 30.5 30.5t8.5 79.5v431q0 35 -4.5 57t-15.5 37q-5 7 -21 20q-39 30 -39 70q0 43 24 61.5t85 18.5h127q58 0 82 -17.5t24 -58.5q0 -23 -21.5 -66.5t-21.5 -87.5v-571h74q170 0 272.5 117t102.5 311
q0 221 -133 351t-359 130q-162 0 -250 -59.5t-88 -169.5q0 -68 57.5 -148.5t57.5 -115.5q0 -47 -33.5 -79t-85.5 -32q-88 0 -154.5 99t-66.5 239q0 220 155 350.5t419 130.5q310 0 512 -192t202 -483q0 -305 -172.5 -476.5t-482.5 -171.5z" />
    <glyph glyph-name="E" unicode="E" horiz-adv-x="1421" 
d="M1227 1095l78 -217q6 -17 9 -30t3 -23q0 -35 -27.5 -57.5t-72.5 -22.5q-37 0 -82 62q-26 35 -43 51q-26 23 -57.5 33t-88.5 10h-158v-321h117q2 43 27.5 67.5t71.5 24.5q37 0 59 -18t41 -68l76 -205q6 -17 9 -30.5t3 -22.5q0 -36 -28.5 -58t-73.5 -22q-30 0 -87 66.5
t-122 66.5h-93v-381h179q54 0 94 12t69 37q21 18 54 61q63 83 119 83q38 0 64 -25.5t26 -63.5q0 -6 -2.5 -16t-8.5 -25l-88 -242q-11 -29 -32.5 -45t-53.5 -16q-29 0 -48.5 10t-35.5 31h-585q-61 0 -87 22.5t-26 74.5q0 65 85 92q13 4 19 6q22 7 30.5 30.5t8.5 79.5v687
q0 65 -31.5 93.5t-103.5 28.5q-94 0 -154.5 -53.5t-60.5 -134.5q0 -46 24 -76t60 -30q18 0 54 15t59 15q43 0 71.5 -31t28.5 -79q0 -76 -56 -121t-151 -45q-131 0 -217 94t-86 242q0 98 37.5 179t108.5 136q51 40 115.5 57t205.5 17h21h548q19 28 42 40.5t55 12.5
q31 0 54.5 -15.5t33.5 -42.5z" />
    <glyph glyph-name="F" unicode="F" horiz-adv-x="1331" 
d="M1225 1095l80 -217q6 -17 9 -30t3 -23q0 -35 -28.5 -57.5t-74.5 -22.5q-36 0 -81 62q-27 36 -43 51q-26 23 -57 33t-87 10h-160v-295h119q2 45 27 68.5t69 23.5q40 0 62.5 -17.5t40.5 -66.5l74 -206q6 -17 9 -30.5t3 -23.5q0 -35 -27.5 -57.5t-72.5 -22.5q-30 0 -87 67
t-122 67h-95v-224h31q43 0 68.5 -24.5t25.5 -65.5q0 -27 -13 -51t-50 -59l-199 -187q-23 -21 -39.5 -29t-34.5 -8q-42 0 -72 29.5t-30 71.5q0 38 32.5 78t39.5 53q13 27 18.5 66.5t5.5 125.5v609q0 64 -32.5 93t-104.5 29q-93 0 -153 -53.5t-60 -134.5q0 -47 23 -76.5
t59 -29.5q18 0 54 15t59 15q44 0 73 -31t29 -79q0 -76 -57 -121t-152 -45q-132 0 -217.5 94t-85.5 242q0 98 37.5 179t108.5 136q51 40 115.5 57t205.5 17h23h548q19 28 41 40.5t54 12.5q31 0 54.5 -15.5t33.5 -42.5z" />
    <glyph glyph-name="G" unicode="G" horiz-adv-x="1550" 
d="M842 768q66 -41 127.5 -63.5t109.5 -22.5q66 0 103 30.5t37 84.5q0 52 -41.5 89.5t-100.5 37.5q-68 0 -128 -40t-107 -116zM803 575q-1 -1 -1 -5q-7 -43 -7 -64q0 -106 67 -178t164 -72t175 106q27 35 42 52q19 20 42 28.5t63 8.5h61q50 0 72 -18t22 -58q0 -22 -19.5 -73
t-19.5 -97v-121q0 -222 -115.5 -342.5t-328.5 -120.5q-190 0 -327.5 104t-137.5 234q0 60 33.5 98.5t85.5 38.5q84 0 153 -136l17 -34q23 -42 76.5 -72t109.5 -30q103 0 160 77t57 218q0 6 -2 8t-8 2q-4 0 -18 -11q-83 -67 -207 -67q-194 0 -317.5 130.5t-123.5 338.5
q0 51 7.5 97t21.5 90q-55 46 -110.5 70t-106.5 24q-69 0 -112.5 -39t-43.5 -100q0 -40 25 -66.5t61 -26.5q17 0 53.5 9.5t55.5 9.5q42 0 69 -32t27 -83q0 -63 -62.5 -111.5t-150.5 -48.5q-129 0 -215 97t-86 245q0 163 99.5 264t258.5 101q83 0 164 -31.5t158 -93.5
q66 113 171 171t241 58q157 0 260.5 -97.5t103.5 -248.5q0 -138 -94 -226.5t-246 -88.5q-85 0 -163 27.5t-154 84.5z" />
    <glyph glyph-name="H" unicode="H" horiz-adv-x="1460" 
d="M786 840v-219h301v219q0 47 -6 64.5t-21 23.5q-8 4 -26 9q-61 19 -61 79q0 36 20 60t47 24h41h281q32 0 56 -24.5t24 -59.5q0 -60 -85 -82q-11 -3 -15 -4q-19 -5 -27 -25t-8 -65v-656h30q43 0 69 -24.5t26 -65.5q0 -26 -13.5 -49.5t-52.5 -60.5l-197 -187
q-21 -20 -39 -28.5t-36 -8.5q-43 0 -73 29.5t-30 71.5q0 38 33.5 77.5t40.5 53.5q12 24 17 60.5t5 131.5v238h-301v-92q0 -299 -154.5 -476.5t-408.5 -177.5q-112 0 -177.5 48.5t-65.5 130.5q0 55 37 85.5t106 30.5q15 0 58 -3t71 -3q148 0 231.5 112.5t83.5 315.5l1 23.5
t1 46.5v340q0 64 -32 93.5t-103 29.5q-93 0 -153 -53.5t-60 -135.5q0 -46 23 -75t59 -29q18 0 54 14.5t59 14.5q44 0 73 -31.5t29 -79.5q0 -75 -57 -120.5t-152 -45.5q-131 0 -217 95t-86 243q0 170 107 279.5t274 109.5q26 0 130.5 -7t182.5 -7q13 0 53 1t68 1
q48 0 74.5 -22t26.5 -62q0 -62 -88 -85q-6 -2 -10 -3q-21 -6 -29.5 -25t-8.5 -63z" />
    <glyph glyph-name="I" unicode="I" horiz-adv-x="948" 
d="M793 840v-656h26q43 0 68.5 -24.5t25.5 -65.5q0 -26 -13 -49.5t-52 -60.5l-199 -187q-23 -21 -39.5 -29t-34.5 -8q-42 0 -72 29.5t-30 71.5q0 38 33.5 77.5t40.5 53.5q12 24 17 60.5t5 131.5v619q0 64 -32 93.5t-103 29.5q-93 0 -153 -53.5t-60 -135.5q0 -46 23 -75
t59 -29q18 0 54 14.5t59 14.5q44 0 73 -31.5t29 -79.5q0 -76 -56 -121t-151 -45q-131 0 -218 95t-87 243q0 170 107 279.5t274 109.5q36 0 132 -7t157 -7q27 0 79 2t74 2q53 0 82 -22.5t29 -63.5q0 -60 -89 -82q-12 -3 -17 -4q-22 -5 -31.5 -25t-9.5 -65z" />
    <glyph glyph-name="J" unicode="J" horiz-adv-x="952" 
d="M805 840v-475q0 -194 -21 -298.5t-69 -187.5q-71 -122 -190.5 -190t-264.5 -68q-146 0 -226.5 53.5t-80.5 149.5q0 61 37 99t96 38q23 0 102.5 -23.5t135.5 -23.5q138 0 198 111.5t60 380.5v380q0 67 -33.5 100.5t-99.5 33.5q-95 0 -156.5 -55.5t-61.5 -139.5
q0 -51 25.5 -84t62.5 -33q15 0 54 15.5t63 15.5q44 0 70 -28.5t26 -75.5q0 -82 -57 -130.5t-153 -48.5q-138 0 -228 98t-90 248q0 183 109.5 296.5t285.5 113.5q28 0 133 -7t183 -7q13 0 53.5 2t69.5 2q47 0 74.5 -23t27.5 -63q0 -62 -87 -85q-7 -2 -11 -3q-20 -6 -28.5 -25
t-8.5 -63z" />
    <glyph glyph-name="K" unicode="K" horiz-adv-x="1311" 
d="M756 840v-162q0 -36 3.5 -47.5t12.5 -12.5q12 0 29 25q4 5 6 8l141 193q15 19 21 35t6 32q0 25 -23.5 56.5t-23.5 56.5q0 40 23 58t77 18h219q61 0 87 -19.5t26 -62.5q0 -33 -14.5 -53t-55.5 -39q-47 -22 -92 -86l-10 -15l-236 -323q197 -358 338 -500.5t287 -142.5
q77 0 179 43t128 43q52 0 84.5 -36t32.5 -93q0 -99 -110.5 -168.5t-272.5 -69.5q-169 0 -318 108t-321 361q-78 114 -139 231t-68 117q-9 0 -12.5 -3.5t-3.5 -14.5v-19v-186h16q43 0 68.5 -24t25.5 -64q0 -45 -61 -106l-4 -5l-178 -176q-20 -19 -37.5 -28t-36.5 -9
q-43 0 -73 29.5t-30 71.5q0 38 33.5 77.5t40.5 53.5q12 24 17.5 60.5t5.5 131.5v619q0 68 -28.5 95.5t-96.5 27.5q-89 0 -145 -53t-56 -136q0 -46 21.5 -75t56.5 -29q17 0 49.5 14.5t52.5 14.5q41 0 68 -31.5t27 -79.5q0 -76 -53 -121t-142 -45q-126 0 -208.5 95t-82.5 243
q0 170 102.5 279.5t262.5 109.5q21 0 125 -7t186 -7q10 0 44.5 2t59.5 2q43 0 68 -23t25 -63q0 -62 -82 -86q-5 -1 -8 -2q-18 -5 -25.5 -23.5t-7.5 -64.5z" />
    <glyph glyph-name="L" unicode="L" horiz-adv-x="1366" 
d="M793 840v-840h129q53 0 92.5 12t68.5 37q21 18 54 61q62 83 118 83q39 0 65 -25.5t26 -63.5q0 -9 -2.5 -19.5t-6.5 -21.5l-90 -246q-10 -26 -32.5 -41.5t-53.5 -15.5q-29 0 -48.5 10t-35.5 31h-538q-61 0 -87 22.5t-26 74.5q0 65 85 92q13 4 19 6q22 7 30.5 30.5
t8.5 79.5v697q0 64 -32 93.5t-103 29.5q-93 0 -153 -53.5t-60 -135.5q0 -46 23 -75t59 -29q18 0 54 14.5t59 14.5q44 0 73 -31.5t29 -79.5q0 -76 -56 -121t-151 -45q-131 0 -218 95t-87 243q0 170 107 279.5t274 109.5q36 0 132 -7t157 -7q27 0 79 2t74 2q53 0 82 -22.5
t29 -63.5q0 -60 -89 -82q-12 -3 -17 -4q-22 -5 -31.5 -25t-9.5 -65z" />
    <glyph glyph-name="M" unicode="M" horiz-adv-x="1612" 
d="M899 1001l78 -210l1 -3q16 -45 30 -45q8 0 15 10t17 38l78 210q22 61 45 80t64 19h286q36 0 57 -23t21 -61q0 -59 -82 -82q-11 -3 -16 -4q-19 -6 -28 -26.5t-9 -63.5v-656h31q42 0 68 -24.5t26 -65.5q0 -27 -13 -51t-50 -59l-199 -187q-23 -21 -39.5 -29t-34.5 -8
q-43 0 -72.5 29.5t-29.5 71.5q0 38 32.5 78t38.5 53q14 27 19.5 67t5.5 125v492q0 13 -4.5 18.5t-15.5 5.5q-10 0 -17 -6t-10 -16l-66 -189q-15 -43 -43.5 -64.5t-70.5 -21.5q-43 0 -70.5 21.5t-42.5 64.5l-67 188q-3 11 -11 17t-18 6q-11 0 -15 -4.5t-4 -19.5v-273
q0 -195 -20.5 -288.5t-69.5 -173.5q-75 -125 -200 -195t-271 -70q-109 0 -173 48t-64 129q0 56 37.5 87t105.5 31q15 0 58 -4t71 -4q144 0 226.5 114.5t82.5 315.5v70v340q0 65 -31.5 94t-101.5 29q-95 0 -156 -54t-61 -135q0 -46 23.5 -75t60.5 -29q18 0 53 14.5t58 14.5
q44 0 73 -31.5t29 -79.5q0 -75 -57 -120.5t-152 -45.5q-133 0 -219 95t-86 243q0 169 105.5 279t267.5 110q24 0 105 -5t138 -5q51 0 107 3t63 3q74 0 111 -100z" />
    <glyph glyph-name="N" unicode="N" horiz-adv-x="1460" 
d="M864 1012l185 -283q3 -6 8 -15q9 -16 22 -16q4 0 6 2t2 11v22v107q0 47 -6 64.5t-21 23.5q-8 4 -26 9q-61 19 -61 79q0 36 20 60t47 24h41h281q32 0 56 -24.5t24 -59.5q0 -60 -85 -82q-11 -3 -15 -4q-19 -5 -27 -25t-8 -65v-656h30q43 0 69 -24.5t26 -65.5
q0 -26 -13.5 -49.5t-52.5 -60.5l-197 -187q-21 -20 -39 -28.5t-36 -8.5q-43 0 -73 29.5t-30 71.5q0 38 33.5 77.5t40.5 53.5q12 24 17 60.5t5 131.5v115l-260 404q-2 4 -6 11q-11 19 -22 19q-7 0 -9.5 -2.5t-3.5 -11.5v-21v-344q0 -177 -32 -283.5t-107 -195.5
q-81 -97 -189.5 -148t-234.5 -51q-112 0 -177.5 48.5t-65.5 130.5q0 55 37 85.5t106 30.5q15 0 58 -3t71 -3q148 0 231.5 112.5t83.5 315.5l1 23.5t1 46.5v340q0 64 -32 93.5t-103 29.5q-93 0 -153 -53.5t-60 -135.5q0 -46 23 -75t59 -29q18 0 54 14.5t59 14.5
q44 0 73 -31.5t29 -79.5q0 -75 -57 -120.5t-152 -45.5q-131 0 -217 95t-86 243q0 171 106 280t273 109q34 0 107.5 -5t111.5 -5q7 0 41.5 1t63.5 1q55 0 85.5 -15.5t69.5 -76.5z" />
    <glyph glyph-name="O" unicode="O" horiz-adv-x="1139" 
d="M569 915q-130 0 -200 -122t-70 -351t69.5 -350t200.5 -121t200 120.5t69 350.5t-69.5 351.5t-199.5 121.5zM569 1124q228 0 365 -185.5t137 -496.5q0 -309 -137 -494.5t-365 -185.5t-365.5 185.5t-137.5 494.5q0 310 137.5 496t365.5 186z" />
    <glyph glyph-name="P" unicode="P" horiz-adv-x="1233" 
d="M606 256v-82h21q43 0 69.5 -24t26.5 -64q0 -26 -13.5 -50t-52.5 -61l-188 -178q-23 -21 -39.5 -29t-34.5 -8q-42 0 -72 29.5t-30 71.5q0 38 33.5 78t39.5 52q13 25 18 61.5t5 131.5v353q0 35 -5 57t-15 36q-6 9 -21 21q-39 30 -39 70q0 43 24 61.5t85 18.5h127
q54 0 80 -19t26 -57q0 -20 -21.5 -69t-21.5 -91q0 -72 45 -114.5t119 -42.5q76 0 124 53.5t48 138.5q0 145 -100.5 227t-278.5 82q-163 0 -250.5 -59.5t-87.5 -169.5q0 -68 56.5 -148.5t56.5 -115.5q0 -48 -33 -79.5t-84 -31.5q-88 0 -154.5 99t-66.5 239q0 219 154 350
t415 131q271 0 435.5 -139t164.5 -362q0 -191 -101.5 -305.5t-268.5 -114.5q-52 0 -100 13t-95 40z" />
    <glyph glyph-name="Q" unicode="Q" horiz-adv-x="1139" 
d="M823 336q3 46 4.5 78.5t1.5 48.5q0 213 -70.5 332.5t-195.5 119.5q-128 0 -196 -121.5t-68 -351.5q0 -229 68 -350t196 -121q66 0 118 34t85 99q-33 44 -70 66.5t-78 22.5q-25 0 -62.5 -7.5t-49.5 -7.5q-40 0 -67 30t-27 75q0 67 58 112t146 45q57 0 108 -25.5t99 -78.5z
M1018 133q95 -134 197.5 -204t203.5 -70q77 0 179 43t128 43q52 0 84.5 -36t32.5 -93q0 -99 -110.5 -168.5t-272.5 -69.5q-155 0 -291.5 89t-255.5 267q-61 -83 -151 -127.5t-197 -44.5q-226 0 -362.5 185.5t-136.5 494.5q0 310 136 496t361 186t361.5 -186t136.5 -496
q0 -75 -11 -152t-32 -157z" />
    <glyph glyph-name="R" unicode="R" horiz-adv-x="1176" 
d="M852 330q179 -278 292 -374.5t238 -96.5q77 0 180 43t130 43q51 0 83.5 -36t32.5 -93q0 -99 -110.5 -168.5t-272.5 -69.5q-315 0 -720 597l-15 22l-76 112q-8 13 -12.5 17t-9.5 4q-9 0 -13 -4t-4 -15v-18v-129h7q42 0 69 -25t27 -65q0 -25 -12 -47t-54 -64l-168 -166
q-18 -18 -36 -26.5t-39 -8.5q-43 0 -73 29.5t-30 71.5q0 38 33.5 77.5t40.5 53.5q12 24 17 60t5 130v353q0 35 -4.5 57t-15.5 37q-6 8 -21 20q-38 30 -38 70q0 43 23.5 61.5t84.5 18.5h127q56 0 81.5 -18t25.5 -58q0 -18 -19.5 -64.5t-19.5 -95.5v-69q15 -1 31 -1.5t38 -0.5
q115 0 179.5 51t64.5 141q0 110 -100 172t-281 62q-148 0 -226.5 -56.5t-78.5 -161.5q0 -64 51 -138t51 -109q0 -45 -30.5 -76t-73.5 -31q-84 0 -144.5 93t-60.5 227q0 211 144 333.5t397 122.5q259 0 419 -126.5t160 -325.5q0 -130 -72 -220t-202 -122z" />
    <glyph glyph-name="S" unicode="S" horiz-adv-x="1085" 
d="M825 1086l78 -209q4 -12 6 -24t2 -22q0 -32 -25 -54.5t-63 -22.5q-28 0 -51 12t-58 52q-2 2 -9 10q-86 96 -177 96q-54 0 -91.5 -32t-37.5 -79q0 -81 175 -143q85 -30 135 -52q177 -77 255 -186.5t78 -273.5q0 -215 -138.5 -345t-368.5 -130q-224 0 -367 122t-143 312
q0 147 86 236t229 89q85 0 133.5 -35t48.5 -96q0 -45 -31.5 -70.5t-89.5 -25.5q-3 0 -8 1t-8 1q-59 0 -93 -30t-34 -83q0 -83 78.5 -143.5t189.5 -60.5q130 0 208.5 71.5t78.5 188.5q0 190 -346 316l-27 9q-143 53 -206.5 131t-63.5 199q0 133 88.5 221t220.5 88
q43 0 79 -10t71 -31q18 32 44.5 48t61.5 16q33 0 56 -15.5t34 -45.5z" />
    <glyph glyph-name="T" unicode="T" horiz-adv-x="1118" 
d="M768 864v-680h31q42 0 68 -24.5t26 -65.5q0 -26 -13.5 -49.5t-52.5 -60.5l-196 -187q-22 -20 -39.5 -28.5t-36.5 -8.5q-43 0 -72.5 29.5t-29.5 71.5q0 38 33.5 78t39.5 52q13 25 18 61.5t5 131.5v717q-40 10 -74.5 15.5t-64.5 5.5q-85 0 -139 -52.5t-54 -132.5
q0 -46 22.5 -75t57.5 -29q18 0 51.5 14.5t54.5 14.5q42 0 69.5 -31.5t27.5 -79.5q0 -75 -54 -120.5t-143 -45.5q-129 0 -215 95.5t-86 242.5q0 178 109.5 283.5t298.5 105.5q71 0 198 -24.5t180 -24.5q48 0 79 12t51 38q5 6 16 22q42 65 98 65q49 0 79 -37t30 -98
q0 -98 -64.5 -157.5t-173.5 -59.5q-26 0 -58 4t-77 12z" />
    <glyph glyph-name="U" unicode="U" horiz-adv-x="1479" 
d="M772 840v-586q0 -161 38 -217.5t130 -56.5q87 0 127.5 53.5t40.5 169.5v6q2 24 2 45v586q0 46 -8 64.5t-27 23.5q-4 1 -11 3q-85 24 -85 85q0 38 21.5 61t56.5 23h41h286q34 0 56 -23.5t22 -60.5q0 -60 -89 -84q-5 -1 -9 -2q-19 -6 -28 -26.5t-9 -63.5v-598
q0 -245 -95 -362.5t-292 -117.5q-103 0 -178.5 35t-130.5 109q-41 55 -58.5 121t-17.5 215v561q0 63 -31 93t-96 30q-96 0 -154.5 -52.5t-58.5 -136.5q0 -47 22 -75.5t58 -28.5q18 0 52 14.5t56 14.5q43 0 71 -31.5t28 -79.5q0 -75 -55 -120.5t-146 -45.5q-130 0 -215.5 95
t-85.5 243q0 170 106.5 279.5t274.5 109.5q37 0 132.5 -7t154.5 -7q27 0 72.5 1t64.5 1q45 0 71.5 -22.5t26.5 -61.5q0 -61 -85 -85q-7 -2 -11 -3q-19 -5 -27 -23.5t-8 -64.5z" />
    <glyph glyph-name="V" unicode="V" horiz-adv-x="1479" 
d="M768 782l162 -639q2 -8 4.5 -11t5.5 -3t7 4.5t5 9.5l162 639q1 3 3 10q11 41 11 64q0 27 -10.5 43.5t-42.5 28.5q-52 19 -67 37.5t-15 50.5q0 36 19.5 60t46.5 24h41h336q23 0 44 -25.5t21 -58.5q0 -39 -15.5 -62.5t-50.5 -36.5q-32 -11 -50 -34t-31 -72l-256 -948
q-14 -49 -33.5 -64.5t-69.5 -15.5h-110q-51 0 -70.5 16t-32.5 64l-241 893q-28 102 -62.5 134t-97.5 32q-71 0 -116.5 -48.5t-45.5 -125.5q0 -53 24.5 -84t63.5 -31q20 0 61 19.5t64 19.5q40 0 70 -35t30 -82q0 -78 -58.5 -124t-158.5 -46q-137 0 -226 95t-89 243
q0 171 110.5 280t284.5 109q40 0 139 -7t158 -7q23 0 62.5 2t54.5 2q37 0 58.5 -23t21.5 -63q0 -28 -15 -48.5t-43 -31.5q-5 -2 -16 -6q-59 -21 -59 -74q0 -15 2.5 -31.5t9.5 -42.5z" />
    <glyph glyph-name="W" unicode="W" horiz-adv-x="2005" 
d="M760 782l147 -638q2 -7 6 -11t7 -4t6.5 4t5.5 11l129 638q6 33 8 50t2 28q0 46 -49 65l-2 1q-51 20 -66.5 39t-15.5 51q0 44 25 64t81 20h304q57 0 82.5 -20t25.5 -64q0 -29 -14 -49.5t-41 -30.5q-7 -3 -18 -7q-60 -21 -60 -69q0 -15 2.5 -34.5t7.5 -42.5l129 -639
q2 -7 5.5 -11t7.5 -4q2 0 6 4t6 11l147 638q1 5 4 16q9 37 9 58q0 52 -60 73q-13 5 -18 7q-30 12 -44 32.5t-14 51.5q0 43 24.5 61.5t98.5 18.5h318q23 0 44 -25.5t21 -58.5q0 -39 -15.5 -62.5t-49.5 -35.5q-33 -13 -52 -37.5t-30 -69.5l-238 -948q-12 -46 -32 -63t-74 -17
h-103q-53 0 -75.5 17.5t-30.5 62.5l-109 584q-1 5 -4.5 9t-7.5 5q-5 -1 -7.5 -4t-4.5 -10l-107 -584q-7 -44 -29.5 -62t-76.5 -18h-103q-54 0 -74 17t-32 63l-225 893q-25 102 -58 134t-96 32q-71 0 -117.5 -49.5t-46.5 -122.5q0 -53 27.5 -88t64.5 -35q18 0 54 21.5
t63 21.5q42 0 73 -34.5t31 -80.5q0 -79 -59.5 -129.5t-153.5 -50.5q-136 0 -227.5 99t-91.5 251q0 174 108 280.5t287 106.5q34 0 137.5 -7t174.5 -7q9 0 40.5 2t53.5 2q37 0 59.5 -23.5t22.5 -62.5q0 -28 -15 -48.5t-43 -31.5q-5 -2 -18 -7q-59 -21 -59 -73q0 -11 1 -21.5
t1 -11.5t3.5 -15.5t6.5 -25.5z" />
    <glyph glyph-name="X" unicode="X" horiz-adv-x="1319" 
d="M729 848l72 -109q1 -2 3 -5q9 -15 21 -15q13 0 25 17q1 2 2 3l59 105q9 14 14 27.5t5 21.5q0 21 -38 52t-38 71q0 36 20.5 60t47.5 24h41h266q24 0 45.5 -25.5t21.5 -58.5t-11 -51t-48 -39q-56 -33 -95 -102q-5 -9 -7 -12l-166 -288l219 -340h31q42 0 68 -24.5t26 -65.5
q0 -26 -14 -50.5t-52 -59.5l-200 -187q-23 -21 -39.5 -29t-34.5 -8q-40 0 -70.5 31.5t-30.5 71.5q0 36 53.5 99t53.5 114q0 19 -5.5 38t-15.5 36l-90 147q-8 14 -12.5 17t-13.5 3q-12 0 -21 -14l-4 -6l-164 -283q-108 -186 -223.5 -262t-282.5 -76q-113 0 -179 48.5
t-66 130.5q0 55 38 85.5t107 30.5q17 0 59.5 -3t67.5 -3q99 0 180.5 53.5t143.5 157.5l196 334l-200 319l-1 1q-61 98 -128 98q-56 0 -97 -44.5t-41 -107.5q0 -55 31.5 -93t73.5 -38q22 0 62 24.5t73 24.5q42 0 71 -34.5t29 -86.5q0 -75 -63.5 -122.5t-165.5 -47.5
q-142 0 -237 94.5t-95 237.5q0 160 109 268.5t276 108.5q40 0 115 -6t108 -6q5 0 35.5 1t57.5 1q37 0 59 -23.5t22 -62.5q0 -38 -37.5 -75.5t-37.5 -51.5q0 -8 4 -18.5t12 -22.5z" />
    <glyph glyph-name="Y" unicode="Y" horiz-adv-x="1298" 
d="M715 842l80 -146q5 -11 11 -15.5t13 -4.5q8 0 12.5 3.5t12.5 16.5l84 148q6 11 9 21.5t3 19.5q0 32 -46 64t-46 75q0 32 21 54t51 22h38h289q25 0 46.5 -25.5t21.5 -58.5t-11.5 -51t-48.5 -39q-56 -32 -93 -99q-6 -11 -9 -16l-215 -371v-256h33q42 0 68 -24.5t26 -65.5
q0 -26 -13.5 -49.5t-52.5 -60.5l-198 -187q-23 -21 -39.5 -29t-34.5 -8q-43 0 -72.5 29.5t-29.5 71.5q0 38 33.5 78t39.5 52q13 25 18 61.5t5 131.5v219l-246 427l-2 3q-55 95 -125 95q-59 0 -98 -45t-39 -115q0 -64 29.5 -101.5t78.5 -37.5q19 0 59 25.5t71 25.5
q42 0 72 -33.5t30 -81.5q0 -81 -60.5 -130.5t-160.5 -49.5q-141 0 -235.5 95t-94.5 239q0 178 104.5 285.5t276.5 107.5q38 0 107 -5t100 -5q21 0 59 2t53 2q45 0 72 -24.5t27 -65.5q0 -40 -50.5 -68.5t-50.5 -58.5q0 -10 4 -21.5t13 -25.5z" />
    <glyph glyph-name="Z" unicode="Z" horiz-adv-x="944" 
d="M311 1100h359q79 0 124.5 -38.5t45.5 -105.5q0 -25 -8.5 -52.5t-24.5 -53.5l-506 -811l-2 -4q-8 -13 -8 -17q0 -10 7 -14t34 -4h164q53 0 91.5 12t69.5 39q21 18 52 60q60 82 120 82q38 0 64.5 -26t26.5 -63q0 -7 -2.5 -18t-6.5 -23l-90 -244q-11 -28 -33.5 -43.5
t-52.5 -15.5q-28 0 -47 9.5t-35 31.5h-471q-79 0 -124.5 39t-45.5 105q0 26 8.5 53t24.5 53l506 809q1 2 4 7q8 13 8 16q0 10 -7.5 14t-35.5 4h-71q-49 0 -84.5 -9.5t-60.5 -28.5q-13 -10 -58.5 -65t-98.5 -55q-39 0 -65.5 24.5t-26.5 59.5q0 9 2.5 20t8.5 26l75 210
q9 26 32 41t54 15t50 -9t34 -30z" />
    <glyph glyph-name="bracketleft" unicode="[" horiz-adv-x="664" 
d="M272 1100h254q45 0 68.5 -22.5t23.5 -63.5t-23.5 -62.5t-68.5 -21.5h-84q-26 0 -35.5 -9.5t-9.5 -37.5v-1084q0 -28 9.5 -37.5t35.5 -9.5h84q45 0 68.5 -21.5t23.5 -62.5t-23.5 -63.5t-68.5 -22.5h-254q-34 0 -53.5 20.5t-19.5 55.5v1366q0 35 19.5 55.5t53.5 20.5z" />
    <glyph glyph-name="backslash" unicode="\" horiz-adv-x="551" 
d="M121 1063l518 -1348q4 -11 6 -21.5t2 -21.5q0 -33 -24 -54t-60 -21q-23 0 -43 16t-31 43l-518 1348q-5 14 -7.5 24.5t-2.5 18.5q0 33 25 56t59 23q25 0 44.5 -16t31.5 -47z" />
    <glyph glyph-name="bracketright" unicode="]" horiz-adv-x="664" 
d="M391 1100q34 0 54 -20.5t20 -55.5v-1366q0 -35 -20 -55.5t-54 -20.5h-254q-44 0 -68 22.5t-24 63.5t23.5 62.5t68.5 21.5h84q26 0 35.5 9.5t9.5 37.5v1084q0 28 -9.5 37.5t-35.5 9.5h-84q-45 0 -68.5 21.5t-23.5 62.5t24 63.5t68 22.5h254z" />
    <glyph glyph-name="asciicircum" unicode="^" horiz-adv-x="2048" 
d="M1130 1462l502 -565h-104l-506 397l-506 -397h-104l503 565h215z" />
    <glyph glyph-name="underscore" unicode="_" 
d="M1024 -311v-172h-1024v172h1024z" />
    <glyph glyph-name="grave" unicode="`" 
d="M397 1153l215 -256l3 -3q12 -15 12 -26q0 -14 -12.5 -27.5t-26.5 -13.5q-7 0 -14 3t-15 10l-268 190q-15 11 -25 29t-10 35q0 28 28 57t58 29q14 0 29.5 -7.5t25.5 -19.5z" />
    <glyph glyph-name="a" unicode="a" horiz-adv-x="854" 
d="M725 532v-268q0 -39 4 -55t12 -27q7 -8 25 -19q47 -28 47 -79q0 -40 -23.5 -62t-66.5 -22h-105q-53 0 -74.5 27t-21.5 102v209h-39q-102 0 -162.5 -29.5t-60.5 -77.5q0 -24 21 -41.5t51 -17.5q15 0 39.5 14.5t38.5 14.5q27 0 45 -26t18 -66q0 -61 -50 -97.5t-134 -36.5
q-101 0 -170.5 69t-69.5 171q0 126 112.5 196t313.5 70h47v31q0 41 -23 64.5t-65 23.5q-40 0 -112 -49t-117 -49q-42 0 -69 25t-27 63q0 73 92 123.5t235 50.5q141 0 215 -59.5t74 -172.5z" />
    <glyph glyph-name="b" unicode="b" horiz-adv-x="885" 
d="M317 1028v-354q0 -13 3.5 -17t11.5 -4q6 0 27 23q84 90 182 90q128 0 210.5 -110t82.5 -283q0 -180 -79.5 -289t-207.5 -109q-81 0 -129.5 42t-48.5 112q0 34 18 56t43 22q10 0 33 -3t37 -3q58 0 92.5 46.5t34.5 125.5q0 90 -37 139t-103 49q-87 0 -126 -66t-39 -221
v-145q0 -75 -21.5 -102t-75.5 -27h-100q-43 0 -66.5 22t-23.5 62q0 51 44 77q14 8 19 13q14 13 19.5 31.5t5.5 58.5v594h-31q-41 0 -62.5 18t-21.5 52q0 22 9.5 39t31.5 34l117 93q19 14 41 22t43 8q36 0 51.5 -20.5t15.5 -75.5z" />
    <glyph glyph-name="c" unicode="c" horiz-adv-x="723" 
d="M422 -25q-169 0 -271 108t-102 288q0 169 101 281t249 112q121 0 202 -56t81 -135q0 -42 -26.5 -71t-65.5 -29q-33 0 -97 43t-104 43q-64 0 -98.5 -43.5t-34.5 -124.5q0 -94 40 -153.5t101 -59.5q36 0 100.5 40t100.5 40q41 0 67.5 -28t26.5 -70q0 -73 -79.5 -129
t-190.5 -56z" />
    <glyph glyph-name="d" unicode="d" horiz-adv-x="887" 
d="M762 1028v-764q0 -39 3.5 -55t12.5 -27q6 -7 25 -19q45 -28 45 -79q0 -40 -23 -62t-65 -22h-103q-53 0 -74.5 27t-21.5 102v229q0 101 -38.5 153t-112.5 52q-72 0 -113 -50.5t-41 -139.5q0 -75 37 -124.5t92 -49.5q12 0 31 5t26 5q33 0 52.5 -22t19.5 -60
q0 -65 -51 -107.5t-131 -42.5q-125 0 -204 109.5t-79 286.5q0 173 86 283t215 110q71 0 135 -37t66 -37q10 0 13 4t3 25v129h-37q-40 0 -62 19.5t-22 54.5q0 25 9.5 42t31.5 33l128 95l1 1q41 29 76 29q37 0 53.5 -21.5t16.5 -74.5z" />
    <glyph glyph-name="e" unicode="e" horiz-adv-x="797" 
d="M430 455q60 0 82.5 11.5t22.5 41.5q0 37 -34 60.5t-89 23.5q-59 0 -104 -39t-52 -98h174zM569 309h-311q12 -63 57.5 -102t106.5 -39q57 0 118.5 46t88.5 46q35 0 59.5 -28.5t24.5 -71.5q0 -71 -84.5 -128t-206.5 -57q-166 0 -269.5 107.5t-103.5 277.5q0 184 99.5 294
t263.5 110q141 0 235 -89t94 -218q0 -83 -36 -115.5t-136 -32.5z" />
    <glyph glyph-name="f" unicode="f" horiz-adv-x="598" 
d="M356 813v-74h115q46 0 69 -22.5t23 -67.5t-23 -67.5t-69 -22.5h-115v-293q0 -41 8.5 -63.5t26.5 -32.5q9 -5 25 -13q57 -29 57 -75q0 -43 -22.5 -62.5t-71.5 -19.5h-242q-53 0 -75.5 17.5t-22.5 58.5q0 55 54 81q18 9 28 15q14 9 20 29.5t6 64.5v293h-51q-45 0 -68.5 23
t-23.5 67t23.5 67t68.5 23h51v17q0 172 88 270t240 98q109 0 181.5 -59.5t72.5 -146.5q0 -53 -32.5 -86t-84.5 -33q-40 0 -67 23.5t-41 70.5q-1 3 -3 10q-17 64 -55 64q-41 0 -65.5 -41.5t-24.5 -112.5z" />
    <glyph glyph-name="g" unicode="g" horiz-adv-x="854" 
d="M424 602q-63 0 -99 -26t-36 -70q0 -42 36.5 -67t98.5 -25q64 0 101.5 25t37.5 67q0 44 -38 70t-101 26zM215 305v12q-61 34 -93 83.5t-32 109.5q0 103 87.5 174.5t215.5 71.5q21 0 48 -3.5t71 -11.5l8 9q-19 28 -28 53t-9 49q0 62 48.5 104.5t121.5 42.5
q63 0 111.5 -41.5t48.5 -95.5q0 -41 -21 -66.5t-55 -25.5q-19 0 -46.5 14.5t-35.5 14.5q-17 0 -29 -12t-12 -29q0 -33 53 -74q8 -6 11 -8q45 -37 64.5 -79t19.5 -101q0 -83 -61 -139.5t-175 -77.5q-47 -9 -130 -10q-105 0 -105 -46q0 -24 19.5 -35.5t62.5 -11.5h176
q155 0 228 -50t73 -155q0 -127 -119 -206.5t-313 -79.5q-177 0 -280 49t-103 133q0 49 33.5 81t85.5 32q34 0 61 -13.5t72 -60.5q3 -4 10 -10q65 -66 158 -66q79 0 129.5 32t50.5 81q0 60 -187 64q-36 1 -54 1q-191 6 -258.5 40t-67.5 112q0 49 37.5 86.5t109.5 58.5z" />
    <glyph glyph-name="h" unicode="h" horiz-adv-x="872" 
d="M332 1028v-354q0 -13 3 -17t11 -4q6 0 24 20q84 91 191 91q103 0 150 -57t47 -183v-233h12q34 0 56 -22.5t22 -57.5q0 -43 -57 -96l-5 -4l-133 -123q-22 -20 -35 -25.5t-30 -5.5q-33 0 -59.5 27.5t-26.5 62.5q0 20 30.5 69t30.5 117v173q0 78 -21 105.5t-75 27.5
q-72 0 -103.5 -55.5t-31.5 -182.5q0 -63 7 -92t24 -39q8 -5 26 -14q57 -28 57 -74q0 -43 -22 -62.5t-72 -19.5h-225q-57 0 -85 18.5t-28 57.5q0 54 65 82q20 9 30 14q15 9 21.5 29t6.5 65v592h-26q-42 0 -63 18t-21 52q0 22 9 39t32 34l118 93q26 19 41.5 24.5t34.5 5.5
q38 0 54 -20t16 -76z" />
    <glyph glyph-name="i" unicode="i" horiz-adv-x="494" 
d="M356 657v-391q0 -48 4.5 -64.5t14.5 -25.5q7 -6 30 -17q62 -27 62 -83q0 -40 -24.5 -58t-77.5 -18h-222q-54 0 -78 18.5t-24 59.5q0 52 61 83q17 8 25 13q14 9 19 26.5t6 65.5v221h-17q-41 0 -62.5 18t-21.5 52q0 23 9.5 40.5t31.5 35.5l117 90q21 17 38.5 24t39.5 7
q37 0 53 -22t16 -75zM252 1124q60 0 100.5 -46t40.5 -113q0 -70 -39.5 -114t-101.5 -44t-102.5 45t-40.5 113q0 69 40.5 114t102.5 45z" />
    <glyph glyph-name="j" unicode="j" horiz-adv-x="512" 
d="M403 657v-501q0 -136 -9.5 -197.5t-33.5 -108.5q-40 -77 -115 -121t-165 -44q-100 0 -167 59t-67 143q0 63 28.5 95t82.5 32q34 0 58 -17t34 -48q3 -10 8 -29q18 -67 56 -67q46 0 66 43t20 151v440h-17q-41 0 -62.5 18t-21.5 52q0 23 10 41t31 35l117 90q21 17 38.5 24
t39.5 7q37 0 53 -22t16 -75zM299 1124q60 0 100.5 -46t40.5 -113q0 -70 -39.5 -114t-101.5 -44q-61 0 -102 45t-41 113q0 69 40.5 114t102.5 45z" />
    <glyph glyph-name="k" unicode="k" horiz-adv-x="872" 
d="M342 1028v-412q0 -18 -2 -41v-6q0 -10 3.5 -14t10.5 -4q10 0 37.5 35t52.5 59q62 59 122 89t116 30q57 0 90 -29t33 -78q0 -82 -129 -100q-17 -3 -25 -4q-27 -4 -55.5 -16.5t-60.5 -34.5q56 -49 104 -117.5t84 -150.5q2 -5 5 -12q17 -41 54 -62q26 -14 40 -38t14 -52
q0 -31 -19 -50.5t-47 -19.5h-182q-52 0 -74 16t-22 54q0 31 19 60t19 40q0 52 -72.5 145t-101.5 93q-9 0 -12.5 -4t-3.5 -15v-5q2 -21 2 -40v-108q0 -50 48 -81t48 -73t-19.5 -62t-62.5 -20h-219q-58 0 -84 18t-26 58q0 53 61 81q20 9 31 15q15 8 21.5 28.5t6.5 65.5v592
h-26q-41 0 -62.5 18t-21.5 52q0 22 9.5 39t31.5 34l117 93q20 17 37.5 23.5t39.5 6.5q37 0 53.5 -21.5t16.5 -74.5z" />
    <glyph glyph-name="l" unicode="l" horiz-adv-x="494" 
d="M356 1028v-762q0 -48 4.5 -64.5t14.5 -25.5q7 -6 30 -17q62 -27 62 -83q0 -40 -24.5 -58t-77.5 -18h-222q-54 0 -78 18.5t-24 59.5q0 52 61 83q17 8 25 13q14 9 19 26.5t6 65.5v592h-17q-41 0 -62.5 18t-21.5 52q0 22 9.5 39t31.5 34l117 93q21 17 38.5 23.5t39.5 6.5
q37 0 53 -21.5t16 -74.5z" />
    <glyph glyph-name="m" unicode="m" horiz-adv-x="1251" 
d="M1143 524v-233h12q34 0 56 -22.5t22 -57.5q0 -43 -57 -96l-5 -4l-135 -123q-16 -17 -31.5 -24t-33.5 -7q-33 0 -59.5 27.5t-26.5 62.5q0 19 31.5 69.5t31.5 116.5v173q0 73 -20 103t-68 30q-65 0 -96 -60.5t-31 -187.5q0 -46 7.5 -73t22.5 -39q5 -4 16 -12q48 -35 48 -85
q0 -39 -20 -60.5t-57 -21.5h-211q-42 0 -61 18t-19 58q0 51 42 80q16 11 23 18q11 11 16 31.5t5 60.5v140q0 73 -20.5 103t-67.5 30q-64 0 -94.5 -59.5t-30.5 -182.5q0 -49 6 -77.5t18 -41.5q5 -4 14 -12q40 -35 40 -84q0 -40 -17.5 -61t-50.5 -21h-211q-44 0 -65 18.5
t-21 57.5q0 53 51 84q15 9 23 14q12 8 17 28.5t5 63.5v232h-26q-41 0 -62.5 17.5t-21.5 51.5q0 23 9 40t32 34l118 92q24 18 41 24.5t37 6.5q31 0 49.5 -19.5t18.5 -50.5v-20q0 -12 3.5 -16.5t10.5 -4.5t28 23q79 88 179 88q109 0 172 -86q17 -23 25 -23q6 0 22 21
q67 88 176 88q97 0 144 -59t47 -181z" />
    <glyph glyph-name="n" unicode="n" horiz-adv-x="872" 
d="M758 524v-233h12q34 0 56 -22.5t22 -57.5q0 -43 -57 -96l-5 -4l-133 -123q-16 -17 -31.5 -24t-33.5 -7q-33 0 -59.5 27.5t-26.5 62.5q0 19 30.5 69.5t30.5 116.5v173q0 77 -21 105t-75 28q-65 0 -96 -59t-31 -183q0 -57 8 -87t25 -40q9 -6 27 -15q55 -27 55 -73
q0 -43 -21.5 -62.5t-71.5 -19.5h-225q-58 0 -84 18t-26 58q0 53 61 81q20 9 31 15q15 8 21.5 28.5t6.5 65.5v232h-26q-41 0 -62.5 17.5t-21.5 51.5q0 23 9.5 40t31.5 34l117 92q24 18 40.5 24.5t36.5 6.5q31 0 49.5 -19.5t18.5 -50.5v-20q0 -12 3.5 -16.5t10.5 -4.5t27 23
q75 88 178 88t151 -57t48 -183z" />
    <glyph glyph-name="o" unicode="o" horiz-adv-x="770" 
d="M383 573q-64 0 -97.5 -50.5t-33.5 -147.5t33.5 -148t97.5 -51q66 0 100.5 51t34.5 148q0 96 -34.5 147t-100.5 51zM385 764q148 0 242 -109.5t94 -283.5q0 -175 -94.5 -285.5t-241.5 -110.5q-148 0 -242 110t-94 286q0 174 94 283.5t242 109.5z" />
    <glyph glyph-name="p" unicode="p" horiz-adv-x="885" 
d="M322 274v-256h8q33 0 55.5 -22.5t22.5 -56.5q0 -25 -12.5 -46.5t-49.5 -54.5l-135 -123q-18 -17 -32 -23.5t-34 -6.5q-33 0 -58.5 27t-25.5 63q0 18 31 69t31 117v537h-27q-41 0 -62.5 17.5t-21.5 51.5q0 23 9.5 40t31.5 34l119 92q27 20 43 26.5t35 6.5q30 0 48.5 -20
t18.5 -52q0 -4 -1 -10.5t-1 -9.5q0 -11 4 -16t13 -5q7 0 28 24q78 89 175 89q132 0 215.5 -109t83.5 -284t-78 -285.5t-193 -110.5q-80 0 -132 44.5t-52 109.5q0 33 16.5 52.5t42.5 19.5q11 0 30 -1t28 -1q60 0 95.5 46t35.5 126q0 90 -37 139t-103 49q-88 0 -126.5 -65.5
t-38.5 -221.5z" />
    <glyph glyph-name="q" unicode="q" horiz-adv-x="874" 
d="M762 510v-492h8q33 0 54.5 -22.5t21.5 -56.5q0 -25 -12.5 -46.5t-49.5 -54.5l-133 -123q-17 -17 -32.5 -23.5t-34.5 -6.5q-34 0 -60 27t-26 63q0 15 31.5 67t31.5 119v383q0 121 -32 169t-107 48q-76 0 -121 -50t-45 -134q0 -79 35.5 -127.5t93.5 -48.5q13 0 34 2t30 2
q23 0 41 -22t18 -56q0 -63 -50 -106.5t-124 -43.5q-122 0 -203.5 107t-81.5 270q0 181 93 295.5t239 114.5q100 0 163 -69q17 -19 25 -19q3 0 33 53t88 53q43 0 67.5 -24t24.5 -66q0 -13 -10 -73t-10 -109z" />
    <glyph glyph-name="r" unicode="r" horiz-adv-x="682" 
d="M360 426v-121q0 -61 9 -91t28 -40q10 -5 30 -14q67 -29 67 -78q0 -42 -27 -62t-82 -20h-229q-58 0 -84.5 18t-26.5 58q0 55 65 83q18 8 27 13q16 10 22.5 29.5t6.5 64.5v232h-27q-41 0 -62.5 17.5t-21.5 51.5q0 23 9.5 40t31.5 34l117 92q21 17 38.5 24t39.5 7
q43 0 59.5 -35t24.5 -35q1 0 39.5 35t93.5 35q69 0 110 -48t41 -128q0 -72 -33.5 -111t-95.5 -39q-33 0 -53 18t-20 48q0 2 1 6t1 6q0 21 -10 33t-27 12q-30 0 -46 -35t-16 -100z" />
    <glyph glyph-name="s" unicode="s" horiz-adv-x="739" 
d="M614 698l48 -117q4 -12 7 -24t3 -20q0 -25 -22 -42.5t-52 -17.5t-113.5 66.5t-142.5 66.5q-30 0 -46.5 -15t-16.5 -42q0 -47 110 -77q52 -13 82 -23q110 -36 163.5 -94.5t53.5 -143.5q0 -98 -70 -163.5t-176 -65.5q-47 0 -83 10.5t-68 34.5q-12 -32 -34.5 -49t-53.5 -17
q-32 0 -55 18t-35 52l-60 160q-5 11 -7.5 24t-2.5 25q0 28 25 48.5t61 20.5q25 0 44.5 -9.5t45.5 -37.5l2 -2q103 -110 176 -110q36 0 58 17t22 44q0 62 -131 98q-41 11 -65 19q-101 32 -151 86.5t-50 132.5q0 89 63 148t160 59q39 0 71 -10t62 -31q16 31 36 45t48 14
q35 0 55.5 -16t38.5 -62z" />
    <glyph glyph-name="t" unicode="t" horiz-adv-x="627" 
d="M352 840v-101h127q53 0 81 -23t28 -67q0 -45 -27 -67.5t-82 -22.5h-127v-291q0 -45 6.5 -59t22.5 -14q13 0 47.5 30.5t65.5 30.5q39 0 64.5 -29.5t25.5 -74.5q0 -74 -63.5 -125.5t-153.5 -51.5q-115 0 -166 61t-51 202v321h-68q-46 0 -69 22t-23 66q0 53 73 119
q38 33 58 55q22 25 55 70q54 76 98 76q35 0 56.5 -25t21.5 -65v-37z" />
    <glyph glyph-name="u" unicode="u" horiz-adv-x="872" 
d="M322 668v-334q0 -78 21.5 -105.5t76.5 -27.5q61 0 89 48.5t28 156.5v92h-23q-41 0 -62.5 17.5t-21.5 51.5q0 23 9.5 40t31.5 34l117 92q20 17 37.5 24t40.5 7q37 0 53 -21.5t16 -74.5v-443q0 -36 42 -67.5t42 -81.5q0 -38 -19 -57t-57 -19h-127q-29 0 -45 13.5t-16 37.5
v12q0 15 -3.5 19t-10.5 4t-26 -21q-83 -90 -189 -90q-103 0 -151 57.5t-48 182.5v283h-27q-41 0 -62.5 17.5t-21.5 51.5q0 23 9.5 40t31.5 34l119 92q21 17 38.5 24t39.5 7q36 0 52 -21t16 -75z" />
    <glyph glyph-name="v" unicode="v" horiz-adv-x="815" 
d="M393 244q4 -15 7.5 -19t9.5 -4q8 0 12 16q1 4 2 7l80 254q4 12 6 25t2 26q0 20 -39 47t-39 68q0 37 22.5 56t67.5 19h209q49 0 71.5 -18t22.5 -57q0 -42 -49.5 -85t-70.5 -102l-164 -450q-7 -21 -22.5 -33t-35.5 -12h-34h-121q-18 0 -33.5 12.5t-22.5 32.5l-165 450
q-22 59 -71.5 102t-49.5 85q0 38 23.5 56.5t72.5 18.5h209q44 0 66 -18.5t22 -56.5q0 -41 -39 -68t-39 -47q0 -8 2.5 -21t7.5 -30z" />
    <glyph glyph-name="w" unicode="w" horiz-adv-x="1194" 
d="M84 739h201q41 0 62.5 -20.5t21.5 -61.5t-35 -75.5t-35 -51.5q0 -21 9 -51l3 -12l66 -205q3 -13 6 -16.5t10 -3.5q9 0 13 15q1 3 2 5l65 221q6 18 8 28.5t2 18.5q0 27 -36.5 59t-36.5 70q0 40 21.5 60t64.5 20h204q42 0 63 -20t21 -60q0 -41 -36.5 -70.5t-36.5 -58.5
q0 -11 6 -33q3 -10 4 -14l65 -220q4 -14 7 -17.5t10 -3.5q9 0 13 15q1 4 1 5l66 205q1 3 2 9q10 31 10 48q0 22 -34 57t-34 76t21 61.5t61 20.5h201q48 0 70 -18.5t22 -58.5t-48 -83.5t-69 -101.5l-155 -450q-8 -21 -23.5 -33t-34.5 -12h-34h-93q-16 0 -34.5 13.5
t-24.5 31.5l-76 247q0 2 -1 6q-4 17 -13 17t-13 -17q-1 -4 -1 -6l-76 -247q-6 -18 -24 -31.5t-36 -13.5h-34h-93q-16 0 -31.5 12t-23.5 33l-155 450q-21 58 -69 101.5t-48 83.5t22 58.5t70 18.5z" />
    <glyph glyph-name="x" unicode="x" horiz-adv-x="872" 
d="M139 739h199q32 0 51 -17t19 -46q0 -26 -18.5 -48.5t-18.5 -35.5q0 -5 1.5 -9.5t4.5 -9.5l40 -58q2 -2 4 -5q5 -8 15 -8q9 0 17 10l2 2l34 45q6 7 9.5 17.5t3.5 21.5q0 5 -22.5 28.5t-22.5 53.5q0 28 17.5 43.5t49.5 15.5h193q50 0 72 -15t22 -50q0 -44 -56.5 -77.5
t-74.5 -57.5l-107 -140l134 -168q22 -29 80.5 -65.5t58.5 -91.5q0 -38 -25 -56t-76 -18h-206q-45 0 -67.5 18.5t-22.5 55.5q0 24 8 44q2 4 2 5q0 2 17.5 23t17.5 34q0 5 -3 13t-7 15l-44 63q-4 7 -8.5 10t-11.5 4q-9 -1 -16 -11l-2 -3l-37 -53q-6 -9 -9.5 -18.5t-3.5 -15.5
q0 -10 22.5 -45t22.5 -69q0 -32 -18.5 -51t-50.5 -19h-199q-55 0 -77.5 18.5t-22.5 61.5q0 53 60.5 86.5t78.5 58.5l117 162l-107 135q-21 27 -79 61.5t-58 80.5q0 40 22.5 57.5t75.5 17.5z" />
    <glyph glyph-name="y" unicode="y" horiz-adv-x="815" 
d="M80 739h223q45 0 66.5 -18.5t21.5 -56.5q0 -40 -39 -68.5t-39 -52.5q0 -10 3 -22t8 -24l82 -180q1 -3 4 -10q6 -14 14 -14q7 0 13 16q2 6 3 8l72 181q5 11 7.5 22t2.5 23q0 24 -39 52.5t-39 68.5q0 38 22 56.5t66 18.5h193q49 0 71.5 -18t22.5 -57q0 -44 -51.5 -87.5
t-71.5 -99.5l-166 -475q-62 -177 -139.5 -247t-200.5 -70q-109 0 -178 55.5t-69 138.5q0 56 31.5 90.5t82.5 34.5q35 0 64 -17t45 -48q5 -10 13 -27q22 -47 50 -47q27 0 54 41.5t51 120.5l-228 471q-28 59 -74 97.5t-46 74.5q0 37 21.5 53t72.5 16z" />
    <glyph glyph-name="z" unicode="z" horiz-adv-x="758" 
d="M279 739h270q63 0 95 -23.5t32 -70.5q0 -39 -47 -100v0l-258 -328q-6 -8 -9.5 -15.5t-3.5 -15.5t6 -15t13 -7h37q43 0 110.5 68.5t108.5 68.5q38 0 61 -20t23 -54q0 -9 -2 -19t-6 -20l-62 -155q-12 -33 -34.5 -50.5t-51.5 -17.5q-19 0 -39 8.5t-45 26.5h-299
q-65 0 -97 24t-32 74q0 37 36 81q5 7 7 9l273 349q0 1 2 3q12 18 12 27q-1 8 -5.5 11t-15.5 4h-34q-39 0 -95 -55.5t-96 -55.5q-32 0 -55 20t-23 48q0 7 2.5 17.5t7.5 24.5l48 117q18 45 37.5 61.5t52.5 16.5q20 0 38 -8.5t38 -28.5z" />
    <glyph glyph-name="braceleft" unicode="{" 
d="M850 1459q-128 -2 -175.5 -55t-47.5 -210v-137q0 -225 -56.5 -307.5t-208.5 -114.5q152 -32 208.5 -114.5t56.5 -307.5v-137q0 -157 47 -209t176 -54v-57h-10q-222 0 -305.5 74t-83.5 272v201q0 161 -58 223.5t-215 75.5v68q159 15 216 76t57 223v200q0 200 84.5 273.5
t314.5 73.5v-57z" />
    <glyph glyph-name="bar" unicode="|" 
d="M602 1565v-2048h-178v2048h178z" />
    <glyph glyph-name="braceright" unicode="}" 
d="M575 1169v-200q0 -162 57 -223t216 -76v-68q-157 -13 -215 -74.5t-58 -224.5v-201q0 -197 -84 -271.5t-307 -74.5h-10v57q129 2 176 54t47 209v137q0 227 56.5 308.5t208.5 113.5q-151 32 -208 113.5t-57 308.5v137q0 157 -47.5 210t-175.5 55v57h10q223 0 307 -74.5
t84 -272.5z" />
    <glyph glyph-name="asciitilde" unicode="~" horiz-adv-x="1706" 
d="M1530 600q-103 -71 -197.5 -106t-183.5 -35q-44 0 -92.5 8.5t-98.5 26.5q-25 8 -76 26q-212 74 -319 74q-82 0 -174 -38t-211 -122v187q106 72 202 107.5t185 35.5q62 0 125.5 -12t168.5 -48q13 -4 42 -15q164 -58 250 -58q85 0 177 37t202 116v-184z" />
    <glyph glyph-name="Euro" horiz-adv-x="995" 
d="M932 160q0 -70 -92 -127.5t-232 -57.5q-169 0 -272.5 99.5t-136.5 292.5h-64q-37 0 -58.5 17.5t-21.5 49.5q0 36 29.5 57t77.5 21h20v51q0 11 1 30t1 28h-49q-37 0 -58.5 17.5t-21.5 49.5q0 36 29.5 57t77.5 21h41q35 179 147.5 280t280.5 101q120 0 205.5 -50.5
t85.5 -133.5q0 -43 -28.5 -72t-66.5 -29q-53 0 -113.5 51.5t-121.5 51.5q-66 0 -109.5 -50.5t-62.5 -148.5h305q38 0 59 -17.5t21 -50.5q0 -35 -30 -56t-79 -21h-290v-39q0 -30 0.5 -44.5t1.5 -25.5h249q38 0 59 -17.5t21 -50.5q0 -35 -29 -56t-77 -21h-207
q22 -101 66.5 -151t111.5 -50q38 0 111 46t125 46q41 0 67.5 -26.5t26.5 -71.5z" />
    <glyph glyph-name="Euro" unicode="&#x20ac;" horiz-adv-x="995" 
d="M932 160q0 -70 -92 -127.5t-232 -57.5q-169 0 -272.5 99.5t-136.5 292.5h-64q-37 0 -58.5 17.5t-21.5 49.5q0 36 29.5 57t77.5 21h20v51q0 11 1 30t1 28h-49q-37 0 -58.5 17.5t-21.5 49.5q0 36 29.5 57t77.5 21h41q35 179 147.5 280t280.5 101q120 0 205.5 -50.5
t85.5 -133.5q0 -43 -28.5 -72t-66.5 -29q-53 0 -113.5 51.5t-121.5 51.5q-66 0 -109.5 -50.5t-62.5 -148.5h305q38 0 59 -17.5t21 -50.5q0 -35 -30 -56t-79 -21h-290v-39q0 -30 0.5 -44.5t1.5 -25.5h249q38 0 59 -17.5t21 -50.5q0 -35 -29 -56t-77 -21h-207
q22 -101 66.5 -151t111.5 -50q38 0 111 46t125 46q41 0 67.5 -26.5t26.5 -71.5z" />
    <glyph glyph-name="nonbreakingspace" unicode="&#xa0;" horiz-adv-x="995" 
 />
    <glyph glyph-name="exclamdown" unicode="&#xa1;" horiz-adv-x="530" 
d="M266 557q66 0 69 -130q0 -26 1 -42q3 -110 37.5 -254.5t34.5 -189.5q0 -88 -36.5 -133.5t-105.5 -45.5t-106 46t-37 133q0 49 33 185t39 233q1 23 1 63q3 135 70 135zM266 909q59 0 99.5 -42.5t40.5 -106.5q0 -65 -40.5 -108.5t-99.5 -43.5q-61 0 -100 42.5t-39 109.5
q0 63 40 106t99 43z" />
    <glyph glyph-name="cent" unicode="&#xa2;" horiz-adv-x="815" 
d="M545 999v-51q86 -26 135 -75t49 -107q0 -43 -27.5 -72.5t-66.5 -29.5q-33 0 -97 44t-104 44q-64 0 -98.5 -44.5t-34.5 -125.5q0 -94 40 -153.5t101 -59.5q36 0 101.5 40t101.5 40q41 0 67.5 -28t26.5 -71q0 -57 -52 -105.5t-142 -74.5v-70q0 -49 -24.5 -74.5t-71.5 -25.5
t-71 25t-24 75v74q-127 44 -193.5 143t-66.5 246q0 145 66 241t194 138v57q0 50 24 75.5t71 25.5t71.5 -25.5t24.5 -75.5z" />
    <glyph glyph-name="sterling" unicode="&#xa3;" horiz-adv-x="967" 
d="M455 672h170q48 0 73 -23t25 -67q0 -45 -24 -66.5t-74 -21.5h-142q0 -17 2 -37v-6q0 -42 -15.5 -89.5t-45.5 -97.5q43 -10 114 -31.5t95 -21.5q42 0 65.5 21.5t26.5 62.5q5 60 27.5 84t70.5 24q61 0 98 -47.5t37 -126.5q0 -107 -67.5 -180.5t-167.5 -73.5q-62 0 -182 58
t-189 80q-41 -72 -87 -105t-105 -33q-62 0 -101 39.5t-39 100.5q0 77 60.5 126.5t155.5 49.5h20q16 25 23.5 59t7.5 84q0 26 -7 53q-1 5 -1 7h-103q-50 0 -75 22t-25 66q0 45 25 67.5t75 22.5h55q-18 44 -27 85t-9 79q0 141 95.5 226t254.5 85q149 0 249.5 -78.5
t100.5 -191.5q0 -52 -36 -88.5t-87 -36.5q-41 0 -69 23.5t-47 73.5q-3 7 -7 17q-37 97 -112 97q-52 0 -86.5 -37.5t-34.5 -91.5q0 -22 9.5 -61t29.5 -101z" />
    <glyph glyph-name="currency" unicode="&#xa4;" horiz-adv-x="995" 
d="M932 160q0 -70 -92 -127.5t-232 -57.5q-169 0 -272.5 99.5t-136.5 292.5h-64q-37 0 -58.5 17.5t-21.5 49.5q0 36 29.5 57t77.5 21h20v51q0 11 1 30t1 28h-49q-37 0 -58.5 17.5t-21.5 49.5q0 36 29.5 57t77.5 21h41q35 179 147.5 280t280.5 101q120 0 205.5 -50.5
t85.5 -133.5q0 -43 -28.5 -72t-66.5 -29q-53 0 -113.5 51.5t-121.5 51.5q-66 0 -109.5 -50.5t-62.5 -148.5h305q38 0 59 -17.5t21 -50.5q0 -35 -30 -56t-79 -21h-290v-39q0 -30 0.5 -44.5t1.5 -25.5h249q38 0 59 -17.5t21 -50.5q0 -35 -29 -56t-77 -21h-207
q22 -101 66.5 -151t111.5 -50q38 0 111 46t125 46q41 0 67.5 -26.5t26.5 -71.5z" />
    <glyph glyph-name="yen" unicode="&#xa5;" 
d="M365 1100h38q29 0 49.5 -22t20.5 -54q0 -44 -46 -76t-46 -59q0 -9 3 -19t11 -26l82 -148q7 -13 15 -18.5t20 -5.5q11 0 18 5t15 20l86 149q6 11 9 21.5t3 17.5q0 32 -46 64t-46 75q0 32 20.5 54t49.5 22h38h279q25 0 46.5 -25.5t21.5 -58.5t-11.5 -51t-48.5 -39
q-58 -34 -99 -106q-3 -5 -5 -9l-43 -76h84q44 0 68 -19t24 -54q0 -36 -23.5 -54t-68.5 -18h-168l-78 -133h246q44 0 68 -19.5t24 -54.5t-23.5 -53.5t-68.5 -18.5h-254v-127h33q42 0 68 -24.5t26 -65.5q0 -26 -13.5 -49.5t-52.5 -60.5l-196 -187q-23 -21 -39.5 -29t-34.5 -8
q-44 0 -73.5 29t-29.5 72q0 37 33.5 77.5t40.5 55.5q13 27 19 64.5t6 111.5v141h-275q-45 0 -68.5 18.5t-23.5 53.5t24 54.5t68 19.5h246l-76 133h-170q-44 0 -68 19t-24 55q0 35 23.5 53t68.5 18h84l-43 76q-2 4 -5 9q-40 69 -84 97l-10 6q-65 38 -65 89q0 37 21.5 62.5
t48.5 25.5h41h236z" />
    <glyph glyph-name="brokenbar" unicode="&#xa6;" 
d="M602 408v-758h-178v758h178zM602 1432v-758h-178v758h178z" />
    <glyph glyph-name="section" unicode="&#xa7;" 
d="M401 535q-51 0 -88 -34t-37 -81q0 -37 24.5 -70t76.5 -67q84 -54 145 -82.5t94 -28.5q55 0 93.5 34.5t38.5 82.5q0 40 -28 74.5t-91 72.5q-86 53 -138.5 76t-89.5 23zM508 1124q150 0 250 -66.5t100 -162.5q0 -44 -36 -76.5t-87 -32.5q-39 0 -65.5 18.5t-51.5 65.5
q-1 4 -5 11q-43 88 -117 88q-46 0 -73.5 -26t-27.5 -69q0 -81 192 -173q69 -33 109 -54q152 -77 214.5 -154t62.5 -180q0 -80 -43 -139t-119 -82q-27 -8 -64.5 -13t-37.5 -16q0 -12 31 -31q19 -10 30 -18q49 -32 75.5 -79.5t26.5 -102.5q0 -116 -97 -185t-263 -69
q-165 0 -274 67t-109 162q0 44 38.5 75.5t94.5 31.5q46 0 75 -18.5t54 -65.5q3 -5 9 -16q44 -80 128 -80q51 0 80 25.5t29 68.5q0 81 -198 176q-67 32 -105 51q-150 77 -212.5 153.5t-62.5 178.5q0 82 42 140t118 81q25 8 64 14t39 17q0 9 -32 33q-110 84 -110 196
q0 116 89 186t239 70z" />
    <glyph glyph-name="dieresis" unicode="&#xa8;" 
d="M678 1112q51 0 85 -31t34 -77t-34.5 -76.5t-84.5 -30.5t-83.5 30.5t-33.5 76.5q0 44 34.5 76t82.5 32zM344 1112q52 0 85.5 -31t33.5 -77t-34.5 -76.5t-84.5 -30.5t-83.5 30.5t-33.5 76.5q0 44 34.5 76t82.5 32z" />
    <glyph glyph-name="copyright" unicode="&#xa9;" horiz-adv-x="1683" 
d="M1165 1100l2 -320h-47q-32 134 -102 203.5t-172 69.5q-116 0 -176 -94t-60 -275q0 -184 65 -281.5t189 -97.5q82 0 151 43.5t126 130.5l43 -26q-63 -108 -150 -160.5t-200 -52.5q-177 0 -297.5 124t-120.5 306q0 184 119.5 309t295.5 125q80 0 154 -33t78 -33
q28 0 41.5 14t19.5 48h41zM1464 678q0 124 -48 241.5t-136 204.5q-86 86 -200 133.5t-236 47.5q-126 0 -241 -48t-202 -137q-88 -90 -135 -203.5t-47 -238.5q0 -126 47.5 -239.5t136.5 -202.5q91 -91 201.5 -137t237.5 -46q126 0 238.5 47t199.5 136q88 89 136 204.5
t48 237.5zM844 1401q140 0 272.5 -55.5t233.5 -155.5q101 -102 157 -235.5t56 -276.5q0 -142 -55.5 -274t-157.5 -236q-101 -102 -231 -155.5t-277 -53.5q-145 0 -274.5 53t-233.5 156q-104 104 -158.5 234.5t-54.5 275.5q0 143 54 274.5t157 235.5q102 102 235 157.5
t277 55.5z" />
    <glyph glyph-name="ordfeminine" unicode="&#xaa;" horiz-adv-x="641" 
d="M545 967v-189q0 -28 3 -39t9 -18q2 -3 27.5 -19t25.5 -49q0 -28 -17.5 -43.5t-49.5 -15.5h-78q-41 0 -57.5 19t-16.5 71v147h-29q-76 0 -121.5 -20.5t-45.5 -54.5q0 -17 16 -29t39 -12q11 0 29 10t28 10q21 0 34 -18t13 -47q0 -42 -37 -67t-100 -25q-76 0 -128 48
t-52 119q0 88 84 137.5t235 49.5h35v20q0 29 -17 45.5t-48 16.5t-85 -34t-87 -34q-32 0 -52 17.5t-20 44.5q0 50 69.5 85t176.5 35q106 0 161.5 -41t55.5 -120z" />
    <glyph glyph-name="guillemotleft" unicode="&#xab;" horiz-adv-x="729" 
d="M684 553l-131 -131q-11 -12 -17 -24.5t-6 -26.5q0 -16 5.5 -29t17.5 -25l131 -131q17 -17 23 -28.5t6 -24.5q0 -24 -15 -38.5t-41 -14.5q-15 0 -28 5t-33 24l-217 190q-14 12 -20.5 28.5t-6.5 39.5q0 26 6.5 43.5t20.5 29.5l217 191q20 18 33.5 23t32.5 5q21 0 36 -16
t15 -39q0 -12 -5 -22.5t-24 -28.5zM346 553l-131 -131q-11 -12 -16.5 -24.5t-5.5 -26.5q0 -16 5 -29t17 -25l131 -131q17 -17 23 -28.5t6 -24.5q0 -23 -16 -38t-42 -15q-27 0 -56 26l-2 2l-218 191q-13 12 -20 28.5t-7 39.5q0 26 6.5 43.5t20.5 29.5l217 191q1 1 5 4
q27 24 59 24q21 0 37 -16t16 -39q0 -12 -5 -22.5t-24 -28.5z" />
    <glyph glyph-name="logicalnot" unicode="&#xac;" horiz-adv-x="1706" 
d="M1452 862v-502h-166v336h-1032v166h1198z" />
    <glyph glyph-name="sfthyphen" unicode="&#xad;" horiz-adv-x="645" 
d="M172 471h301q44 0 67 -22.5t23 -65.5t-22.5 -64.5t-67.5 -21.5h-301q-45 0 -68.5 22t-23.5 64q0 43 23.5 65.5t68.5 22.5z" />
    <glyph glyph-name="registered" unicode="&#xae;" horiz-adv-x="1683" 
d="M748 981v-258q14 -1 27 -1.5t26 -0.5q100 0 154.5 44t54.5 126q0 70 -46.5 114t-121.5 44q-47 0 -70.5 -17.5t-23.5 -50.5zM866 1096q145 0 232.5 -55t87.5 -142q0 -84 -65.5 -133t-217.5 -76q96 -25 147.5 -73t69.5 -127q6 -24 10 -67q9 -91 54 -91q29 0 44 34t15 99h49
v-23q0 -85 -43 -129.5t-127 -44.5q-46 0 -80 14.5t-53 43.5q-24 39 -27 111.5t-8 93.5q-16 74 -60.5 109.5t-121.5 35.5h-24v-246q0 -49 22.5 -69.5t85.5 -26.5v-47h-389v46q64 4 88.5 24.5t24.5 72.5v520q0 52 -23.5 72t-89.5 25v49h399zM1464 678q0 122 -48.5 240
t-135.5 206q-86 86 -200 133.5t-236 47.5q-126 0 -241 -48t-202 -137q-89 -90 -135.5 -203t-46.5 -239t47.5 -239.5t136.5 -202.5q91 -91 201.5 -137t237.5 -46q126 0 238.5 47t199.5 136q89 90 136.5 204.5t47.5 237.5zM844 1401q144 0 279 -57t235 -160
q98 -102 151.5 -235.5t53.5 -278.5q0 -138 -59.5 -272.5t-166.5 -239.5q-101 -100 -228 -149.5t-282 -49.5q-135 0 -264 54.5t-229 154.5q-105 104 -159 234t-54 276q0 143 54.5 275t156.5 235q102 102 235 157.5t277 55.5z" />
    <glyph glyph-name="macron" unicode="&#xaf;" 
d="M344 1071h336q39 0 57.5 -16.5t18.5 -50.5t-18.5 -50t-57.5 -16h-336q-38 0 -57 17t-19 51t18.5 49.5t57.5 15.5z" />
    <glyph glyph-name="degree" unicode="&#xb0;" horiz-adv-x="674" 
d="M522 1165q0 77 -53.5 131t-130.5 54t-131.5 -54t-54.5 -131q0 -76 54.5 -131t131.5 -55t130.5 54.5t53.5 131.5zM338 1460q123 0 209 -87t86 -210q0 -121 -87 -208t-210 -87t-208 85.5t-85 209.5q0 125 86 211t209 86z" />
    <glyph glyph-name="plusminus" unicode="&#xb1;" horiz-adv-x="1706" 
d="M1452 182v-168h-1198v168h1198zM938 1206v-334h514v-165h-514v-334h-170v334h-514v165h514v334h170z" />
    <glyph glyph-name="twosuperior" unicode="&#xb2;" horiz-adv-x="588" 
d="M461 780l-230 -194q-3 -4 -4.5 -7t-1.5 -6q0 -5 3.5 -7.5t15.5 -2.5h8h55q4 0 13 1q58 2 92 28q12 9 29 27q37 38 73 38q22 0 38.5 -14t16.5 -33q0 -11 -0.5 -15t-1.5 -8l-57 -128q-5 -14 -19.5 -22.5t-33.5 -8.5q-18 0 -30.5 5t-23.5 16h-231q-49 0 -84 34.5t-35 81.5
q0 45 58 96l5 4l220 187l1 1q52 41 52 83q0 34 -26.5 55t-71.5 21t-74 -20t-29 -50q0 -23 29 -51t29 -45q0 -28 -24.5 -48t-59.5 -20q-51 0 -89 45.5t-38 108.5q0 89 70.5 147t181.5 58q118 0 188 -55t70 -146q0 -44 -18.5 -79t-65.5 -77z" />
    <glyph glyph-name="threesuperior" unicode="&#xb3;" horiz-adv-x="639" 
d="M239 1125l203 -1q56 0 88.5 -26t32.5 -70q0 -21 -11.5 -41.5t-32.5 -37.5l-64 -48q-11 -8 -16 -14t-5 -10q0 -6 12.5 -10t20.5 -9q67 -33 99 -81t32 -115q0 -97 -77.5 -162.5t-196.5 -65.5q-117 0 -198 69t-81 169q0 63 33 106t80 43q33 0 55.5 -18.5t22.5 -44.5
q0 -12 -14.5 -42.5t-14.5 -49.5q0 -42 36 -72.5t85 -30.5q47 0 81.5 30.5t34.5 72.5q0 47 -29 74t-100 42q-43 9 -60 26t-17 48q0 15 8 29.5t22 25.5l103 76l1 1q13 10 13 16q0 2 -5 5t-11 3h-65q-52 -2 -99 -38t-70 -36t-38 14t-15 35q0 9 6 24q2 4 2 5l43 104
q6 14 20.5 22.5t32.5 8.5q23 0 34.5 -6t18.5 -20z" />
    <glyph glyph-name="acute" unicode="&#xb4;" 
d="M733 1030l-268 -190q-8 -6 -15 -9.5t-14 -3.5q-14 0 -26.5 14t-12.5 31q1 8 11 21l4 4l217 256q10 12 25.5 19.5t29.5 7.5q31 0 58.5 -29t27.5 -57q0 -17 -10.5 -35t-26.5 -29z" />
    <glyph glyph-name="mu" unicode="&#xb5;" horiz-adv-x="1184" 
d="M68 373l108 512h207l-100 -467q-10 -46 -15.5 -82t-5.5 -57q0 -64 37 -101t102 -37q87 0 139 53.5t76 167.5l111 523h209l-113 -533l-3 -15q-15 -70 -15 -110q0 -42 22.5 -66t63.5 -24q40 0 71 21.5t58 68.5q9 17 23 49q25 60 51 60q11 0 16.5 -7.5t5.5 -23.5
q0 -28 -17 -85.5t-40 -100.5q-41 -72 -95.5 -108t-123.5 -36q-84 0 -129.5 55t-47.5 156q-42 -104 -109.5 -157.5t-156.5 -53.5q-99 0 -156.5 58t-68.5 168q-23 -124 -48 -315q-39 -306 -134 -306q-47 0 -73 26.5t-26 74.5q0 52 69 282.5t108 409.5z" />
    <glyph glyph-name="paragraph" unicode="&#xb6;" 
d="M969 1380h-117v-1380h-129v1380h-168v-1380h-131v784q-168 6 -268.5 101t-100.5 245q0 158 107 253.5t284 95.5h523v-99z" />
    <glyph glyph-name="glyph122" unicode="&#xb7;" horiz-adv-x="498" 
d="M250 723q53 0 90 -42.5t37 -105.5q0 -62 -36.5 -103.5t-90.5 -41.5q-55 0 -92 42t-37 103q0 64 36.5 106t92.5 42z" />
    <glyph glyph-name="cedilla" unicode="&#xb8;" 
d="M489 0h64v-61q0 -2 5 -5.5t9 -3.5q6 0 20.5 1t22.5 1q77 0 122.5 -41.5t45.5 -111.5q0 -76 -57.5 -120t-159.5 -44q-101 0 -175.5 33t-74.5 76q0 17 11.5 27.5t29.5 10.5q9 0 71 -28.5t116 -28.5q45 0 70.5 21t25.5 57q0 34 -26 54t-70 20q-7 0 -17.5 -2t-15.5 -2
q-8 0 -12.5 7.5t-4.5 22.5v117z" />
    <glyph glyph-name="onesuperior" unicode="&#xb9;" horiz-adv-x="365" 
d="M264 1081v-473q0 -23 3 -35.5t9 -17.5q5 -4 22 -12q38 -16 38 -49q0 -23 -15.5 -34t-48.5 -11h-163q-32 0 -47 11t-15 34q0 33 37 50q13 6 18 9q8 5 11.5 17t3.5 38v361h-15q-26 0 -40.5 10.5t-14.5 30.5q0 14 6 23.5t23 21.5l84 55q13 10 26 14t29 4q23 0 36 -12.5
t13 -34.5z" />
    <glyph glyph-name="ordmasculine" unicode="&#xba;" horiz-adv-x="578" 
d="M287 995q-48 0 -73.5 -36t-25.5 -103t25.5 -103t73.5 -36q50 0 76 35.5t26 103.5t-26 103.5t-76 35.5zM289 1128q111 0 181.5 -76t70.5 -198t-70.5 -199t-181.5 -77t-181.5 76.5t-70.5 199.5q0 121 71 197.5t181 76.5z" />
    <glyph glyph-name="guillemotright" unicode="&#xbb;" horiz-adv-x="729" 
d="M469 631l217 -191q14 -12 20.5 -29.5t6.5 -43.5q0 -23 -7 -39.5t-20 -28.5l-218 -191l-2 -2q-29 -26 -56 -26q-26 0 -42 15t-16 38q0 13 6 24.5t23 28.5l131 131q12 12 17.5 25t5.5 29q0 14 -6.5 28t-16.5 23l-131 131q-1 1 -4 3q-25 25 -25 48t16 39t38 16q31 0 61 -26z
M131 631l217 -191q14 -12 20.5 -29.5t6.5 -43.5q0 -23 -6.5 -39.5t-20.5 -28.5l-217 -190q-20 -19 -33 -24t-28 -5q-26 0 -42 15t-16 38q0 12 6 23t25 30l131 131q12 12 17.5 25t5.5 29q0 14 -6.5 28t-16.5 23l-131 131l-6 6q-25 24 -25 45q0 23 16 39t38 16q18 0 31.5 -5
t33.5 -23z" />
    <glyph glyph-name="onequarter" unicode="&#xbc;" horiz-adv-x="1274" 
d="M1014 461v10q0 10 -2.5 12t-7.5 2q-4 0 -11 -9q-2 -3 -3 -4l-122 -134q-7 -8 -10.5 -14t-3.5 -13q0 -2 3 -4t7 -2h6h144v156zM1149 530v-225h37q38 0 52.5 -11.5t14.5 -39.5q0 -27 -14 -38t-53 -11h-37v-35h2q26 0 41.5 -13t15.5 -36q0 -18 -8.5 -31t-34.5 -31l-82 -55
q-14 -10 -25.5 -14t-25.5 -4q-29 0 -47 15.5t-18 39.5q0 15 25.5 47.5t25.5 67.5v49h-203q-50 0 -78 23t-28 65q0 22 8 41t28 41l199 217q25 28 49 39.5t56 11.5q50 0 75 -28t25 -85zM999 1014l-858 -1002q-15 -18 -33 -27.5t-38 -9.5q-22 0 -44 21.5t-22 44.5q0 14 8 30.5
t23 34.5l858 1002q17 20 34.5 29.5t39.5 9.5t42.5 -21.5t20.5 -48.5q0 -15 -7 -29.5t-24 -33.5zM252 1083v-440q0 -23 3 -34.5t9 -16.5t19 -10q36 -15 36 -45q0 -23 -14 -33t-45 -10h-156q-30 0 -44.5 10.5t-14.5 32.5q0 29 33 45q12 6 18 10q9 4 13 14.5t4 36.5v336h-17
q-23 0 -37 10.5t-14 28.5q0 13 5.5 22.5t21.5 20.5l80 51q18 10 29 13t24 3q23 0 35 -11.5t12 -33.5z" />
    <glyph glyph-name="onehalf" unicode="&#xbd;" horiz-adv-x="1251" 
d="M1128 309l-219 -180q-3 -3 -4.5 -6.5t-1.5 -5.5q0 -5 4 -7.5t15 -3.5h8l53 3h7q59 -1 91 24q12 8 29 26q34 36 68 36q21 0 37 -13.5t16 -31.5q0 -10 -0.5 -13.5t-1.5 -7.5l-53 -119q-7 -14 -19.5 -21t-32.5 -7q-18 0 -29.5 4t-21.5 14h-221q-46 0 -79.5 32t-33.5 77
q0 42 59 93l1 1l209 174l1 1q50 38 50 77q0 33 -25.5 52t-68.5 19t-70 -18t-27 -47q0 -23 28 -48.5t28 -41.5q0 -25 -24 -44.5t-56 -19.5q-50 0 -86.5 42.5t-36.5 103.5q0 83 67.5 136.5t174.5 53.5q112 0 178.5 -51.5t66.5 -136.5q0 -42 -18 -75.5t-62 -70.5zM999 1014
l-858 -1002q-15 -18 -33 -27.5t-38 -9.5q-22 0 -44 21.5t-22 44.5q0 14 8 30.5t23 34.5l858 1002q17 20 34.5 29.5t39.5 9.5t42.5 -21.5t20.5 -48.5q0 -15 -7 -29.5t-24 -33.5zM252 1083v-440q0 -23 3 -34.5t9 -16.5t19 -10q36 -15 36 -45q0 -23 -14 -33t-45 -10h-156
q-30 0 -44.5 10.5t-14.5 32.5q0 29 33 45q12 6 18 10q9 4 13 14.5t4 36.5v336h-17q-23 0 -37 10.5t-14 28.5q0 13 5.5 22.5t21.5 20.5l80 51q18 10 29 13t24 3q23 0 35 -11.5t12 -33.5z" />
    <glyph glyph-name="threequarters" unicode="&#xbe;" horiz-adv-x="1536" 
d="M1276 461v10q0 10 -2 12t-8 2q-4 0 -10 -8q-3 -4 -4 -5l-122 -134q-7 -8 -10.5 -14t-3.5 -13q0 -2 3 -4t7 -2h7h143v156zM1411 530v-225h37q38 0 53 -11.5t15 -39.5q0 -27 -14.5 -38t-53.5 -11h-37v-35h2q27 0 42 -13t15 -36q0 -18 -8.5 -31t-34.5 -31l-81 -55
q-15 -10 -26.5 -14t-25.5 -4q-29 0 -47 15.5t-18 39.5q0 15 25.5 47.5t25.5 67.5v49h-203q-50 0 -78 23t-28 65q0 22 8 41t29 41l198 217q25 28 49 39.5t56 11.5q50 0 75 -28t25 -85zM1262 1014l-859 -1002q-15 -18 -33 -27.5t-38 -9.5q-22 0 -44 21.5t-22 44.5q0 14 8 30.5
t23 34.5l858 1002q17 20 35 29.5t39 9.5q23 0 43 -21.5t20 -48.5q0 -15 -6.5 -29.5t-23.5 -33.5zM229 1125l195 -1q52 0 82.5 -24t30.5 -66q0 -20 -11.5 -39.5t-31.5 -33.5l-60 -46q-9 -5 -14.5 -11t-5.5 -11q0 -6 12 -9t20 -7q64 -31 93.5 -76t29.5 -109
q0 -90 -73.5 -151.5t-186.5 -61.5q-111 0 -188.5 64.5t-77.5 156.5q0 61 31 101.5t76 40.5q32 0 53.5 -17t21.5 -43q0 -11 -14 -39t-14 -47q0 -38 34 -67t80 -29q47 0 80 28.5t33 67.5q0 44 -27 68.5t-96 40.5q-41 9 -58.5 24.5t-17.5 42.5q0 13 8 26.5t23 27.5l98 71
q2 2 8.5 6.5t6.5 8.5q0 2 -6 5t-13 3l-61 -2q-49 0 -93.5 -34t-66.5 -34t-36.5 13t-14.5 32q0 9 6 24q1 3 2 5l41 96q6 14 19.5 21.5t31.5 7.5q22 0 33 -5.5t18 -18.5z" />
    <glyph glyph-name="questiondown" unicode="&#xbf;" horiz-adv-x="834" 
d="M438 555q34 0 54 -26.5t20 -71.5q0 -93 -127 -219l-12 -13l-9 -9q-69 -68 -69 -134q0 -58 40.5 -91.5t110.5 -33.5q53 0 82 20.5t29 57.5q0 44 -53 61q-13 4 -18 6q-24 11 -36 30.5t-12 45.5q0 50 39 84.5t96 34.5q88 0 148.5 -70.5t60.5 -173.5q0 -132 -96.5 -211.5
t-261.5 -79.5q-164 0 -263.5 83.5t-99.5 222.5q0 141 163 260q61 44 89 71q30 29 54.5 92.5t70.5 63.5zM449 909q60 0 99.5 -42.5t39.5 -108.5q0 -64 -40 -107t-99 -43q-60 0 -100 42.5t-40 107.5q0 64 40.5 107.5t99.5 43.5z" />
    <glyph glyph-name="Agrave" unicode="&#xc0;" horiz-adv-x="1450" 
d="M1131 804l184 -620h20q37 0 62.5 -26t25.5 -64q0 -26 -13.5 -50t-51.5 -60l-199 -187q-23 -21 -39.5 -29t-34.5 -8q-42 0 -72 29.5t-30 71.5q0 34 54.5 102t54.5 137q0 18 -3.5 39t-9.5 45l-22 88h-316l-36 -139q-57 -213 -205 -335t-350 -122q-112 0 -177 48.5
t-65 130.5q0 55 37.5 85.5t105.5 30.5q16 0 59 -3t70 -3q128 0 211 81.5t135 258.5l131 442q2 5 5 15q14 42 14 69q0 39 -33 65t-84 26q-94 0 -157.5 -55.5t-63.5 -135.5q0 -38 16.5 -58t48.5 -20q12 0 34.5 6.5t33.5 6.5q33 0 52.5 -25t19.5 -68q0 -66 -49.5 -107.5
t-128.5 -41.5q-120 0 -192.5 81t-72.5 216q0 182 115 285.5t320 103.5q51 0 175.5 -12.5t198.5 -12.5q45 0 117 4.5t100 4.5q55 0 83 -23.5t28 -69.5t-56.5 -77t-56.5 -70q0 -12 2 -25.5t5 -24.5zM921 777q-1 4 -2 9q-5 17 -18 17q-15 -1 -19 -21q-1 -4 -1 -6l-82 -303h205z
M778 1513l215 -256l3 -3q12 -15 12 -26q0 -14 -12.5 -27.5t-26.5 -13.5q-7 0 -14 3t-15 10l-268 190q-15 11 -25 29t-10 35q0 28 28 57t58 29q14 0 29.5 -7.5t25.5 -19.5z" />
    <glyph glyph-name="Aacute" unicode="&#xc1;" horiz-adv-x="1450" 
d="M1131 804l184 -620h20q37 0 62.5 -26t25.5 -64q0 -26 -13.5 -50t-51.5 -60l-199 -187q-23 -21 -39.5 -29t-34.5 -8q-42 0 -72 29.5t-30 71.5q0 34 54.5 102t54.5 137q0 18 -3.5 39t-9.5 45l-22 88h-316l-36 -139q-57 -213 -205 -335t-350 -122q-112 0 -177 48.5
t-65 130.5q0 55 37.5 85.5t105.5 30.5q16 0 59 -3t70 -3q128 0 211 81.5t135 258.5l131 442q2 5 5 15q14 42 14 69q0 39 -33 65t-84 26q-94 0 -157.5 -55.5t-63.5 -135.5q0 -38 16.5 -58t48.5 -20q12 0 34.5 6.5t33.5 6.5q33 0 52.5 -25t19.5 -68q0 -66 -49.5 -107.5
t-128.5 -41.5q-120 0 -192.5 81t-72.5 216q0 182 115 285.5t320 103.5q51 0 175.5 -12.5t198.5 -12.5q45 0 117 4.5t100 4.5q55 0 83 -23.5t28 -69.5t-56.5 -77t-56.5 -70q0 -12 2 -25.5t5 -24.5zM921 777q-1 4 -2 9q-5 17 -18 17q-15 -1 -19 -21q-1 -4 -1 -6l-82 -303h205z
M1114 1390l-268 -190q-8 -6 -15 -9.5t-14 -3.5q-14 0 -26.5 14t-12.5 31q1 8 11 21l4 4l217 256q10 12 25.5 19.5t29.5 7.5q31 0 58.5 -29t27.5 -57q0 -17 -10.5 -35t-26.5 -29z" />
    <glyph glyph-name="Acircumflex" unicode="&#xc2;" horiz-adv-x="1450" 
d="M1131 804l184 -620h20q37 0 62.5 -26t25.5 -64q0 -26 -13.5 -50t-51.5 -60l-199 -187q-23 -21 -39.5 -29t-34.5 -8q-42 0 -72 29.5t-30 71.5q0 34 54.5 102t54.5 137q0 18 -3.5 39t-9.5 45l-22 88h-316l-36 -139q-57 -213 -205 -335t-350 -122q-112 0 -177 48.5
t-65 130.5q0 55 37.5 85.5t105.5 30.5q16 0 59 -3t70 -3q128 0 211 81.5t135 258.5l131 442q2 5 5 15q14 42 14 69q0 39 -33 65t-84 26q-94 0 -157.5 -55.5t-63.5 -135.5q0 -38 16.5 -58t48.5 -20q12 0 34.5 6.5t33.5 6.5q33 0 52.5 -25t19.5 -68q0 -66 -49.5 -107.5
t-128.5 -41.5q-120 0 -192.5 81t-72.5 216q0 182 115 285.5t320 103.5q51 0 175.5 -12.5t198.5 -12.5q45 0 117 4.5t100 4.5q55 0 83 -23.5t28 -69.5t-56.5 -77t-56.5 -70q0 -12 2 -25.5t5 -24.5zM921 777q-1 4 -2 9q-5 17 -18 17q-15 -1 -19 -21q-1 -4 -1 -6l-82 -303h205z
M961 1515l176 -260q5 -7 7.5 -13.5t2.5 -13.5q0 -16 -10.5 -27.5t-26.5 -11.5q-5 0 -12 3.5t-12 9.5l-160 149q-12 10 -19.5 14.5t-13.5 4.5t-15 -5t-20 -14l-160 -149q-5 -6 -11 -9t-11 -4q-16 0 -26.5 11.5t-10.5 27.5q0 5 2.5 11.5t7.5 15.5l174 260q8 12 27.5 18.5
t50.5 6.5q22 0 36.5 -6t23.5 -19z" />
    <glyph glyph-name="Atilde" unicode="&#xc3;" horiz-adv-x="1450" 
d="M1131 804l184 -620h20q37 0 62.5 -26t25.5 -64q0 -26 -13.5 -50t-51.5 -60l-199 -187q-23 -21 -39.5 -29t-34.5 -8q-42 0 -72 29.5t-30 71.5q0 34 54.5 102t54.5 137q0 18 -3.5 39t-9.5 45l-22 88h-316l-36 -139q-57 -213 -205 -335t-350 -122q-112 0 -177 48.5
t-65 130.5q0 55 37.5 85.5t105.5 30.5q16 0 59 -3t70 -3q128 0 211 81.5t135 258.5l131 442q2 5 5 15q14 42 14 69q0 39 -33 65t-84 26q-94 0 -157.5 -55.5t-63.5 -135.5q0 -38 16.5 -58t48.5 -20q12 0 34.5 6.5t33.5 6.5q33 0 52.5 -25t19.5 -68q0 -66 -49.5 -107.5
t-128.5 -41.5q-120 0 -192.5 81t-72.5 216q0 182 115 285.5t320 103.5q51 0 175.5 -12.5t198.5 -12.5q45 0 117 4.5t100 4.5q55 0 83 -23.5t28 -69.5t-56.5 -77t-56.5 -70q0 -12 2 -25.5t5 -24.5zM921 777q-1 4 -2 9q-5 17 -18 17q-15 -1 -19 -21q-1 -4 -1 -6l-82 -303h205z
M784 1472q61 0 144 -41t106 -41q33 0 55 34t35 34q17 0 27 -12.5t10 -32.5q0 -52 -50 -104t-112 -52q-54 0 -140 41t-109 41q-34 0 -55.5 -34t-37.5 -34q-15 0 -24.5 12.5t-9.5 32.5q0 52 49.5 104t111.5 52z" />
    <glyph glyph-name="Adieresis" unicode="&#xc4;" horiz-adv-x="1450" 
d="M1131 804l184 -620h20q37 0 62.5 -26t25.5 -64q0 -26 -13.5 -50t-51.5 -60l-199 -187q-23 -21 -39.5 -29t-34.5 -8q-42 0 -72 29.5t-30 71.5q0 34 54.5 102t54.5 137q0 18 -3.5 39t-9.5 45l-22 88h-316l-36 -139q-57 -213 -205 -335t-350 -122q-112 0 -177 48.5
t-65 130.5q0 55 37.5 85.5t105.5 30.5q16 0 59 -3t70 -3q128 0 211 81.5t135 258.5l131 442q2 5 5 15q14 42 14 69q0 39 -33 65t-84 26q-94 0 -157.5 -55.5t-63.5 -135.5q0 -38 16.5 -58t48.5 -20q12 0 34.5 6.5t33.5 6.5q33 0 52.5 -25t19.5 -68q0 -66 -49.5 -107.5
t-128.5 -41.5q-120 0 -192.5 81t-72.5 216q0 182 115 285.5t320 103.5q51 0 175.5 -12.5t198.5 -12.5q45 0 117 4.5t100 4.5q55 0 83 -23.5t28 -69.5t-56.5 -77t-56.5 -70q0 -12 2 -25.5t5 -24.5zM921 777q-1 4 -2 9q-5 17 -18 17q-15 -1 -19 -21q-1 -4 -1 -6l-82 -303h205z
M1059 1472q51 0 85 -31t34 -77t-34.5 -76.5t-84.5 -30.5t-83.5 30.5t-33.5 76.5q0 44 34.5 76t82.5 32zM725 1472q52 0 85.5 -31t33.5 -77t-34.5 -76.5t-84.5 -30.5t-83.5 30.5t-33.5 76.5q0 44 34.5 76t82.5 32z" />
    <glyph glyph-name="Aring" unicode="&#xc5;" horiz-adv-x="1450" 
d="M921 777q-1 4 -2 9q-5 17 -18 17q-15 -1 -19 -21q-1 -4 -1 -6l-82 -303h205zM1131 804l184 -620h20q37 0 62.5 -26t25.5 -64q0 -26 -13.5 -50t-51.5 -60l-199 -187q-23 -21 -39.5 -29t-34.5 -8q-42 0 -72 29.5t-30 71.5q0 34 54.5 102t54.5 137q0 18 -3.5 39t-9.5 45
l-22 88h-316l-36 -139q-57 -213 -205 -335t-350 -122q-112 0 -177 48.5t-65 130.5q0 55 37.5 85.5t105.5 30.5q16 0 59 -3t70 -3q128 0 211 81.5t135 258.5l131 442q2 5 5 15q14 42 14 69q0 39 -33 65t-84 26q-94 0 -157.5 -55.5t-63.5 -135.5q0 -38 16.5 -58t48.5 -20
q12 0 34.5 6.5t33.5 6.5q33 0 52.5 -25t19.5 -68q0 -66 -49.5 -107.5t-128.5 -41.5q-120 0 -192.5 81t-72.5 216q0 182 115 285.5t320 103.5q51 0 175.5 -12.5t198.5 -12.5q45 0 117 4.5t100 4.5q55 0 83 -23.5t28 -69.5t-56.5 -77t-56.5 -70q0 -12 2 -25.5t5 -24.5z
M866 1497q-43 0 -73.5 -30t-30.5 -72q0 -44 30 -74.5t74 -30.5t74.5 30.5t30.5 74.5q0 42 -30.5 72t-74.5 30zM866 1630q99 0 168.5 -68.5t69.5 -166.5q0 -99 -70 -168.5t-168 -69.5t-167.5 69.5t-69.5 168.5q0 97 69 166t168 69z" />
    <glyph glyph-name="AE" unicode="&#xc6;" horiz-adv-x="1862" 
d="M1008 877q0 19 -11.5 31t-29.5 12q-15 0 -27 -14t-27 -48l-159 -385h254v404zM1661 1096l80 -218q6 -17 9 -29.5t3 -23.5q0 -35 -28.5 -57.5t-73.5 -22.5q-35 0 -71.5 49.5t-51.5 63.5q-26 23 -57.5 33t-88.5 10h-159v-321h118q2 44 27 68t70 24q38 0 61 -18.5t41 -67.5
l74 -205q6 -17 9 -30.5t3 -22.5q0 -36 -27.5 -58t-72.5 -22q-30 0 -87 66.5t-122 66.5h-94v-381h180q54 0 93 12t69 37q20 18 53 61q63 83 119 83q38 0 64 -25.5t26 -63.5q0 -9 -2 -19.5t-6 -21.5l-88 -241q-11 -30 -34 -46t-55 -16q-28 0 -47 9.5t-34 31.5h-586
q-61 0 -87 22.5t-26 74.5q0 65 84 91q14 5 21 7q21 7 30 30.5t9 79.5v166h-342q-124 -316 -248.5 -456t-280.5 -140q-101 0 -165 50t-64 129q0 37 17 63t52 41q24 10 92 12t96 10q93 30 174 136t173 323l131 308q8 17 12 38t4 43q0 43 -32.5 68t-87.5 25q-82 0 -147.5 -49.5
t-65.5 -106.5q0 -37 21 -59.5t56 -22.5q2 0 7.5 1t7.5 1q40 0 65 -24.5t25 -63.5q0 -66 -45.5 -106.5t-118.5 -40.5q-106 0 -179 82t-73 204q0 172 116 272.5t316 100.5q9 0 97.5 -5t168.5 -5h691q19 28 41 40.5t53 12.5q32 0 55 -15t33 -42z" />
    <glyph glyph-name="Ccedilla" unicode="&#xc7;" horiz-adv-x="1540" 
d="M899 776q61 -39 115.5 -59.5t99.5 -20.5q57 0 89 28t32 77q0 48 -38 83.5t-89 35.5q-61 0 -114 -36.5t-95 -107.5zM823 580q-12 -47 -18 -95t-6 -104q0 -178 71 -292t179 -114q85 0 136 55t56 152v9q8 181 119 182q63 0 100 -50.5t37 -138.5q0 -182 -126 -302t-322 -120
q-220 0 -354 171t-134 452q0 76 13 150.5t40 150.5q-70 47 -130.5 70.5t-108.5 23.5q-62 0 -99.5 -36t-37.5 -95q0 -39 22 -64.5t53 -25.5q12 0 46 11.5t57 11.5q40 0 66 -31t26 -80q0 -75 -55 -123.5t-142 -48.5q-129 0 -215 95.5t-86 242.5q0 158 96 256t250 98
q85 0 162 -25t176 -87q74 121 175.5 183t226.5 62q159 0 260.5 -94.5t101.5 -245.5q0 -135 -94 -221t-246 -86q-80 0 -152 25t-143 78zM1000 -213h57v-57q0 -2 5.5 -5.5t10.5 -3.5t18.5 2.5t20.5 2.5q69 0 110.5 -38.5t41.5 -103.5q0 -69 -52.5 -108t-144.5 -39
q-91 0 -160 29t-69 67q0 16 11 26.5t28 10.5q7 0 64 -26.5t106 -26.5q41 0 63.5 18.5t22.5 52.5q0 32 -24 50t-64 18q-7 0 -17.5 -2t-13.5 -2q-7 0 -10.5 6.5t-3.5 22.5v106z" />
    <glyph glyph-name="Egrave" unicode="&#xc8;" horiz-adv-x="1421" 
d="M1227 1095l78 -217q6 -17 9 -30t3 -23q0 -35 -27.5 -57.5t-72.5 -22.5q-37 0 -82 62q-26 35 -43 51q-26 23 -57.5 33t-88.5 10h-158v-321h117q2 43 27.5 67.5t71.5 24.5q37 0 59 -18t41 -68l76 -205q6 -17 9 -30.5t3 -22.5q0 -36 -28.5 -58t-73.5 -22q-30 0 -87 66.5
t-122 66.5h-93v-381h179q54 0 94 12t69 37q21 18 54 61q63 83 119 83q38 0 64 -25.5t26 -63.5q0 -6 -2.5 -16t-8.5 -25l-88 -242q-11 -29 -32.5 -45t-53.5 -16q-29 0 -48.5 10t-35.5 31h-585q-61 0 -87 22.5t-26 74.5q0 65 85 92q13 4 19 6q22 7 30.5 30.5t8.5 79.5v687
q0 65 -31.5 93.5t-103.5 28.5q-94 0 -154.5 -53.5t-60.5 -134.5q0 -46 24 -76t60 -30q18 0 54 15t59 15q43 0 71.5 -31t28.5 -79q0 -76 -56 -121t-151 -45q-131 0 -217 94t-86 242q0 98 37.5 179t108.5 136q51 40 115.5 57t205.5 17h21h548q19 28 42 40.5t55 12.5
q31 0 54.5 -15.5t33.5 -42.5zM719 1513l215 -256l3 -3q12 -15 12 -26q0 -14 -12.5 -27.5t-26.5 -13.5q-7 0 -14 3t-15 10l-268 190q-15 11 -25 29t-10 35q0 28 28 57t58 29q14 0 29.5 -7.5t25.5 -19.5z" />
    <glyph glyph-name="Eacute" unicode="&#xc9;" horiz-adv-x="1421" 
d="M1227 1095l78 -217q6 -17 9 -30t3 -23q0 -35 -27.5 -57.5t-72.5 -22.5q-37 0 -82 62q-26 35 -43 51q-26 23 -57.5 33t-88.5 10h-158v-321h117q2 43 27.5 67.5t71.5 24.5q37 0 59 -18t41 -68l76 -205q6 -17 9 -30.5t3 -22.5q0 -36 -28.5 -58t-73.5 -22q-30 0 -87 66.5
t-122 66.5h-93v-381h179q54 0 94 12t69 37q21 18 54 61q63 83 119 83q38 0 64 -25.5t26 -63.5q0 -6 -2.5 -16t-8.5 -25l-88 -242q-11 -29 -32.5 -45t-53.5 -16q-29 0 -48.5 10t-35.5 31h-585q-61 0 -87 22.5t-26 74.5q0 65 85 92q13 4 19 6q22 7 30.5 30.5t8.5 79.5v687
q0 65 -31.5 93.5t-103.5 28.5q-94 0 -154.5 -53.5t-60.5 -134.5q0 -46 24 -76t60 -30q18 0 54 15t59 15q43 0 71.5 -31t28.5 -79q0 -76 -56 -121t-151 -45q-131 0 -217 94t-86 242q0 98 37.5 179t108.5 136q51 40 115.5 57t205.5 17h21h548q19 28 42 40.5t55 12.5
q31 0 54.5 -15.5t33.5 -42.5zM1055 1390l-268 -190q-8 -6 -15 -9.5t-14 -3.5q-14 0 -26.5 14t-12.5 31q1 8 11 21l4 4l217 256q10 12 25.5 19.5t29.5 7.5q31 0 58.5 -29t27.5 -57q0 -17 -10.5 -35t-26.5 -29z" />
    <glyph glyph-name="Ecircumflex" unicode="&#xca;" horiz-adv-x="1421" 
d="M1227 1095l78 -217q6 -17 9 -30t3 -23q0 -35 -27.5 -57.5t-72.5 -22.5q-37 0 -82 62q-26 35 -43 51q-26 23 -57.5 33t-88.5 10h-158v-321h117q2 43 27.5 67.5t71.5 24.5q37 0 59 -18t41 -68l76 -205q6 -17 9 -30.5t3 -22.5q0 -36 -28.5 -58t-73.5 -22q-30 0 -87 66.5
t-122 66.5h-93v-381h179q54 0 94 12t69 37q21 18 54 61q63 83 119 83q38 0 64 -25.5t26 -63.5q0 -6 -2.5 -16t-8.5 -25l-88 -242q-11 -29 -32.5 -45t-53.5 -16q-29 0 -48.5 10t-35.5 31h-585q-61 0 -87 22.5t-26 74.5q0 65 85 92q13 4 19 6q22 7 30.5 30.5t8.5 79.5v687
q0 65 -31.5 93.5t-103.5 28.5q-94 0 -154.5 -53.5t-60.5 -134.5q0 -46 24 -76t60 -30q18 0 54 15t59 15q43 0 71.5 -31t28.5 -79q0 -76 -56 -121t-151 -45q-131 0 -217 94t-86 242q0 98 37.5 179t108.5 136q51 40 115.5 57t205.5 17h21h548q19 28 42 40.5t55 12.5
q31 0 54.5 -15.5t33.5 -42.5zM902 1515l176 -260q5 -7 7.5 -13.5t2.5 -13.5q0 -16 -10.5 -27.5t-26.5 -11.5q-5 0 -12 3.5t-12 9.5l-160 149q-12 10 -19.5 14.5t-13.5 4.5t-15 -5t-20 -14l-160 -149q-5 -6 -11 -9t-11 -4q-16 0 -26.5 11.5t-10.5 27.5q0 5 2.5 11.5t7.5 15.5
l174 260q8 12 27.5 18.5t50.5 6.5q22 0 36.5 -6t23.5 -19z" />
    <glyph glyph-name="Edieresis" unicode="&#xcb;" horiz-adv-x="1421" 
d="M1227 1095l78 -217q6 -17 9 -30t3 -23q0 -35 -27.5 -57.5t-72.5 -22.5q-37 0 -82 62q-26 35 -43 51q-26 23 -57.5 33t-88.5 10h-158v-321h117q2 43 27.5 67.5t71.5 24.5q37 0 59 -18t41 -68l76 -205q6 -17 9 -30.5t3 -22.5q0 -36 -28.5 -58t-73.5 -22q-30 0 -87 66.5
t-122 66.5h-93v-381h179q54 0 94 12t69 37q21 18 54 61q63 83 119 83q38 0 64 -25.5t26 -63.5q0 -6 -2.5 -16t-8.5 -25l-88 -242q-11 -29 -32.5 -45t-53.5 -16q-29 0 -48.5 10t-35.5 31h-585q-61 0 -87 22.5t-26 74.5q0 65 85 92q13 4 19 6q22 7 30.5 30.5t8.5 79.5v687
q0 65 -31.5 93.5t-103.5 28.5q-94 0 -154.5 -53.5t-60.5 -134.5q0 -46 24 -76t60 -30q18 0 54 15t59 15q43 0 71.5 -31t28.5 -79q0 -76 -56 -121t-151 -45q-131 0 -217 94t-86 242q0 98 37.5 179t108.5 136q51 40 115.5 57t205.5 17h21h548q19 28 42 40.5t55 12.5
q31 0 54.5 -15.5t33.5 -42.5zM1000 1472q51 0 85 -31t34 -77t-34.5 -76.5t-84.5 -30.5t-83.5 30.5t-33.5 76.5q0 44 34.5 76t82.5 32zM666 1472q52 0 85.5 -31t33.5 -77t-34.5 -76.5t-84.5 -30.5t-83.5 30.5t-33.5 76.5q0 44 34.5 76t82.5 32z" />
    <glyph glyph-name="Igrave" unicode="&#xcc;" horiz-adv-x="948" 
d="M793 840v-656h26q43 0 68.5 -24.5t25.5 -65.5q0 -26 -13 -49.5t-52 -60.5l-199 -187q-23 -21 -39.5 -29t-34.5 -8q-42 0 -72 29.5t-30 71.5q0 38 33.5 77.5t40.5 53.5q12 24 17 60.5t5 131.5v619q0 64 -32 93.5t-103 29.5q-93 0 -153 -53.5t-60 -135.5q0 -46 23 -75
t59 -29q18 0 54 14.5t59 14.5q44 0 73 -31.5t29 -79.5q0 -76 -56 -121t-151 -45q-131 0 -218 95t-87 243q0 170 107 279.5t274 109.5q36 0 132 -7t157 -7q27 0 79 2t74 2q53 0 82 -22.5t29 -63.5q0 -60 -89 -82q-12 -3 -17 -4q-22 -5 -31.5 -25t-9.5 -65zM510 1513l215 -256
l3 -3q12 -15 12 -26q0 -14 -12.5 -27.5t-26.5 -13.5q-7 0 -14 3t-15 10l-268 190q-15 11 -25 29t-10 35q0 28 28 57t58 29q14 0 29.5 -7.5t25.5 -19.5z" />
    <glyph glyph-name="Iacute" unicode="&#xcd;" horiz-adv-x="948" 
d="M793 840v-656h26q43 0 68.5 -24.5t25.5 -65.5q0 -26 -13 -49.5t-52 -60.5l-199 -187q-23 -21 -39.5 -29t-34.5 -8q-42 0 -72 29.5t-30 71.5q0 38 33.5 77.5t40.5 53.5q12 24 17 60.5t5 131.5v619q0 64 -32 93.5t-103 29.5q-93 0 -153 -53.5t-60 -135.5q0 -46 23 -75
t59 -29q18 0 54 14.5t59 14.5q44 0 73 -31.5t29 -79.5q0 -76 -56 -121t-151 -45q-131 0 -218 95t-87 243q0 170 107 279.5t274 109.5q36 0 132 -7t157 -7q27 0 79 2t74 2q53 0 82 -22.5t29 -63.5q0 -60 -89 -82q-12 -3 -17 -4q-22 -5 -31.5 -25t-9.5 -65zM846 1390
l-268 -190q-8 -6 -15 -9.5t-14 -3.5q-14 0 -26.5 14t-12.5 31q1 8 11 21l4 4l217 256q10 12 25.5 19.5t29.5 7.5q31 0 58.5 -29t27.5 -57q0 -17 -10.5 -35t-26.5 -29z" />
    <glyph glyph-name="Icircumflex" unicode="&#xce;" horiz-adv-x="948" 
d="M793 840v-656h26q43 0 68.5 -24.5t25.5 -65.5q0 -26 -13 -49.5t-52 -60.5l-199 -187q-23 -21 -39.5 -29t-34.5 -8q-42 0 -72 29.5t-30 71.5q0 38 33.5 77.5t40.5 53.5q12 24 17 60.5t5 131.5v619q0 64 -32 93.5t-103 29.5q-93 0 -153 -53.5t-60 -135.5q0 -46 23 -75
t59 -29q18 0 54 14.5t59 14.5q44 0 73 -31.5t29 -79.5q0 -76 -56 -121t-151 -45q-131 0 -218 95t-87 243q0 170 107 279.5t274 109.5q36 0 132 -7t157 -7q27 0 79 2t74 2q53 0 82 -22.5t29 -63.5q0 -60 -89 -82q-12 -3 -17 -4q-22 -5 -31.5 -25t-9.5 -65zM693 1515l176 -260
q5 -7 7.5 -13.5t2.5 -13.5q0 -16 -10.5 -27.5t-26.5 -11.5q-5 0 -12 3.5t-12 9.5l-160 149q-12 10 -19.5 14.5t-13.5 4.5t-15 -5t-20 -14l-160 -149q-5 -6 -11 -9t-11 -4q-16 0 -26.5 11.5t-10.5 27.5q0 5 2.5 11.5t7.5 15.5l174 260q8 12 27.5 18.5t50.5 6.5q22 0 36.5 -6
t23.5 -19z" />
    <glyph glyph-name="Idieresis" unicode="&#xcf;" horiz-adv-x="948" 
d="M793 840v-656h26q43 0 68.5 -24.5t25.5 -65.5q0 -26 -13 -49.5t-52 -60.5l-199 -187q-23 -21 -39.5 -29t-34.5 -8q-42 0 -72 29.5t-30 71.5q0 38 33.5 77.5t40.5 53.5q12 24 17 60.5t5 131.5v619q0 64 -32 93.5t-103 29.5q-93 0 -153 -53.5t-60 -135.5q0 -46 23 -75
t59 -29q18 0 54 14.5t59 14.5q44 0 73 -31.5t29 -79.5q0 -76 -56 -121t-151 -45q-131 0 -218 95t-87 243q0 170 107 279.5t274 109.5q36 0 132 -7t157 -7q27 0 79 2t74 2q53 0 82 -22.5t29 -63.5q0 -60 -89 -82q-12 -3 -17 -4q-22 -5 -31.5 -25t-9.5 -65zM791 1472
q51 0 85 -31t34 -77t-34.5 -76.5t-84.5 -30.5t-83.5 30.5t-33.5 76.5q0 44 34.5 76t82.5 32zM457 1472q52 0 85.5 -31t33.5 -77t-34.5 -76.5t-84.5 -30.5t-83.5 30.5t-33.5 76.5q0 44 34.5 76t82.5 32z" />
    <glyph glyph-name="Eth" unicode="&#xd0;" horiz-adv-x="1374" 
d="M653 -199h-276q-61 0 -87 22.5t-26 74.5q0 65 84 91q14 5 21 7q21 7 30 30.5t9 79.5v189h-89q-44 0 -67 22.5t-23 65.5q0 44 23.5 67t66.5 23h89v64q0 35 -5 57t-16 37q-6 8 -21 20q-38 30 -38 70q0 43 23.5 61.5t84.5 18.5h127q58 0 82.5 -17.5t24.5 -58.5
q0 -23 -21.5 -66.5t-21.5 -87.5v-98h118q44 0 67.5 -23t23.5 -67q0 -43 -23 -65.5t-68 -22.5h-118v-295h73q170 0 272.5 117t102.5 311q0 220 -133 350.5t-358 130.5q-158 0 -234 -48.5t-76 -149.5q0 -25 5.5 -62t5.5 -49q0 -55 -32 -89t-81 -34q-61 0 -102 53.5t-41 135.5
q0 209 152 333.5t411 124.5q314 0 515.5 -191.5t201.5 -483.5q0 -305 -173 -476.5t-483 -171.5z" />
    <glyph glyph-name="Ntilde" unicode="&#xd1;" horiz-adv-x="1460" 
d="M864 1012l185 -283q3 -6 8 -15q9 -16 22 -16q4 0 6 2t2 11v22v107q0 47 -6 64.5t-21 23.5q-8 4 -26 9q-61 19 -61 79q0 36 20 60t47 24h41h281q32 0 56 -24.5t24 -59.5q0 -60 -85 -82q-11 -3 -15 -4q-19 -5 -27 -25t-8 -65v-656h30q43 0 69 -24.5t26 -65.5
q0 -26 -13.5 -49.5t-52.5 -60.5l-197 -187q-21 -20 -39 -28.5t-36 -8.5q-43 0 -73 29.5t-30 71.5q0 38 33.5 77.5t40.5 53.5q12 24 17 60.5t5 131.5v115l-260 404q-2 4 -6 11q-11 19 -22 19q-7 0 -9.5 -2.5t-3.5 -11.5v-21v-344q0 -177 -32 -283.5t-107 -195.5
q-81 -97 -189.5 -148t-234.5 -51q-112 0 -177.5 48.5t-65.5 130.5q0 55 37 85.5t106 30.5q15 0 58 -3t71 -3q148 0 231.5 112.5t83.5 315.5l1 23.5t1 46.5v340q0 64 -32 93.5t-103 29.5q-93 0 -153 -53.5t-60 -135.5q0 -46 23 -75t59 -29q18 0 54 14.5t59 14.5
q44 0 73 -31.5t29 -79.5q0 -75 -57 -120.5t-152 -45.5q-131 0 -217 95t-86 243q0 171 106 280t273 109q34 0 107.5 -5t111.5 -5q7 0 41.5 1t63.5 1q55 0 85.5 -15.5t69.5 -76.5zM825 1472q61 0 144 -41t106 -41q33 0 55 34t35 34q17 0 27 -12.5t10 -32.5q0 -52 -50 -104
t-112 -52q-54 0 -140 41t-109 41q-34 0 -55.5 -34t-37.5 -34q-15 0 -24.5 12.5t-9.5 32.5q0 52 49.5 104t111.5 52z" />
    <glyph glyph-name="Ograve" unicode="&#xd2;" horiz-adv-x="1139" 
d="M569 915q-130 0 -200 -122t-70 -351t69.5 -350t200.5 -121t200 120.5t69 350.5t-69.5 351.5t-199.5 121.5zM569 1124q228 0 365 -185.5t137 -496.5q0 -309 -137 -494.5t-365 -185.5t-365.5 185.5t-137.5 494.5q0 310 137.5 496t365.5 186zM454 1513l215 -256l3 -3
q12 -15 12 -26q0 -14 -12.5 -27.5t-26.5 -13.5q-7 0 -14 3t-15 10l-268 190q-15 11 -25 29t-10 35q0 28 28 57t58 29q14 0 29.5 -7.5t25.5 -19.5z" />
    <glyph glyph-name="Oacute" unicode="&#xd3;" horiz-adv-x="1139" 
d="M569 915q-130 0 -200 -122t-70 -351t69.5 -350t200.5 -121t200 120.5t69 350.5t-69.5 351.5t-199.5 121.5zM569 1124q228 0 365 -185.5t137 -496.5q0 -309 -137 -494.5t-365 -185.5t-365.5 185.5t-137.5 494.5q0 310 137.5 496t365.5 186zM790 1390l-268 -190
q-8 -6 -15 -9.5t-14 -3.5q-14 0 -26.5 14t-12.5 31q1 8 11 21l4 4l217 256q10 12 25.5 19.5t29.5 7.5q31 0 58.5 -29t27.5 -57q0 -17 -10.5 -35t-26.5 -29z" />
    <glyph glyph-name="Ocircumflex" unicode="&#xd4;" horiz-adv-x="1139" 
d="M569 915q-130 0 -200 -122t-70 -351t69.5 -350t200.5 -121t200 120.5t69 350.5t-69.5 351.5t-199.5 121.5zM569 1124q228 0 365 -185.5t137 -496.5q0 -309 -137 -494.5t-365 -185.5t-365.5 185.5t-137.5 494.5q0 310 137.5 496t365.5 186zM637 1515l176 -260
q5 -7 7.5 -13.5t2.5 -13.5q0 -16 -10.5 -27.5t-26.5 -11.5q-5 0 -12 3.5t-12 9.5l-160 149q-12 10 -19.5 14.5t-13.5 4.5t-15 -5t-20 -14l-160 -149q-5 -6 -11 -9t-11 -4q-16 0 -26.5 11.5t-10.5 27.5q0 5 2.5 11.5t7.5 15.5l174 260q8 12 27.5 18.5t50.5 6.5q22 0 36.5 -6
t23.5 -19z" />
    <glyph glyph-name="Otilde" unicode="&#xd5;" horiz-adv-x="1139" 
d="M569 915q-130 0 -200 -122t-70 -351t69.5 -350t200.5 -121t200 120.5t69 350.5t-69.5 351.5t-199.5 121.5zM569 1124q228 0 365 -185.5t137 -496.5q0 -309 -137 -494.5t-365 -185.5t-365.5 185.5t-137.5 494.5q0 310 137.5 496t365.5 186zM460 1472q61 0 144 -41t106 -41
q33 0 55 34t35 34q17 0 27 -12.5t10 -32.5q0 -52 -50 -104t-112 -52q-54 0 -140 41t-109 41q-34 0 -55.5 -34t-37.5 -34q-15 0 -24.5 12.5t-9.5 32.5q0 52 49.5 104t111.5 52z" />
    <glyph glyph-name="Odieresis" unicode="&#xd6;" horiz-adv-x="1139" 
d="M569 915q-130 0 -200 -122t-70 -351t69.5 -350t200.5 -121t200 120.5t69 350.5t-69.5 351.5t-199.5 121.5zM569 1124q228 0 365 -185.5t137 -496.5q0 -309 -137 -494.5t-365 -185.5t-365.5 185.5t-137.5 494.5q0 310 137.5 496t365.5 186zM735 1472q51 0 85 -31t34 -77
t-34.5 -76.5t-84.5 -30.5t-83.5 30.5t-33.5 76.5q0 44 34.5 76t82.5 32zM401 1472q52 0 85.5 -31t33.5 -77t-34.5 -76.5t-84.5 -30.5t-83.5 30.5t-33.5 76.5q0 44 34.5 76t82.5 32z" />
    <glyph glyph-name="multiply" unicode="&#xd7;" horiz-adv-x="1706" 
d="M862 729l461 459l117 -117l-459 -461l459 -458l-117 -119l-461 461l-459 -461l-116 119l458 458l-458 461l116 117z" />
    <glyph glyph-name="Oslash" unicode="&#xd8;" horiz-adv-x="1139" 
d="M750 842q-32 43 -79.5 67.5t-101.5 24.5q-132 0 -203 -126.5t-71 -365.5q0 -59 3.5 -110.5t10.5 -95.5zM823 666l-444 -613q32 -48 81 -74t109 -26q133 0 204 126.5t71 362.5q0 71 -5 124t-16 100zM1059 989l-86 -112q50 -92 74 -198t24 -237q0 -309 -137 -494.5
t-365 -185.5q-96 0 -175.5 32.5t-137.5 94.5l-57 -82q-17 -23 -34.5 -34t-37.5 -11q-29 0 -54.5 25t-25.5 55q0 14 5.5 28.5t17.5 31.5l88 121q-47 92 -69.5 196.5t-22.5 222.5q0 310 137.5 496t365.5 186q91 0 168 -30t135 -88l58 77q16 23 33.5 34t37.5 11
q31 0 56.5 -24.5t25.5 -54.5q0 -14 -5.5 -27.5t-18.5 -32.5z" />
    <glyph glyph-name="Ugrave" unicode="&#xd9;" horiz-adv-x="1479" 
d="M772 840v-586q0 -161 38 -217.5t130 -56.5q87 0 127.5 53.5t40.5 169.5v6q2 24 2 45v586q0 46 -8 64.5t-27 23.5q-4 1 -11 3q-85 24 -85 85q0 38 21.5 61t56.5 23h41h286q34 0 56 -23.5t22 -60.5q0 -60 -89 -84q-5 -1 -9 -2q-19 -6 -28 -26.5t-9 -63.5v-598
q0 -245 -95 -362.5t-292 -117.5q-103 0 -178.5 35t-130.5 109q-41 55 -58.5 121t-17.5 215v561q0 63 -31 93t-96 30q-96 0 -154.5 -52.5t-58.5 -136.5q0 -47 22 -75.5t58 -28.5q18 0 52 14.5t56 14.5q43 0 71 -31.5t28 -79.5q0 -75 -55 -120.5t-146 -45.5q-130 0 -215.5 95
t-85.5 243q0 170 106.5 279.5t274.5 109.5q37 0 132.5 -7t154.5 -7q27 0 72.5 1t64.5 1q45 0 71.5 -22.5t26.5 -61.5q0 -61 -85 -85q-7 -2 -11 -3q-19 -5 -27 -23.5t-8 -64.5zM827 1513l215 -256l3 -3q12 -15 12 -26q0 -14 -12.5 -27.5t-26.5 -13.5q-7 0 -14 3t-15 10
l-268 190q-15 11 -25 29t-10 35q0 28 28 57t58 29q14 0 29.5 -7.5t25.5 -19.5z" />
    <glyph glyph-name="Uacute" unicode="&#xda;" horiz-adv-x="1479" 
d="M772 840v-586q0 -161 38 -217.5t130 -56.5q87 0 127.5 53.5t40.5 169.5v6q2 24 2 45v586q0 46 -8 64.5t-27 23.5q-4 1 -11 3q-85 24 -85 85q0 38 21.5 61t56.5 23h41h286q34 0 56 -23.5t22 -60.5q0 -60 -89 -84q-5 -1 -9 -2q-19 -6 -28 -26.5t-9 -63.5v-598
q0 -245 -95 -362.5t-292 -117.5q-103 0 -178.5 35t-130.5 109q-41 55 -58.5 121t-17.5 215v561q0 63 -31 93t-96 30q-96 0 -154.5 -52.5t-58.5 -136.5q0 -47 22 -75.5t58 -28.5q18 0 52 14.5t56 14.5q43 0 71 -31.5t28 -79.5q0 -75 -55 -120.5t-146 -45.5q-130 0 -215.5 95
t-85.5 243q0 170 106.5 279.5t274.5 109.5q37 0 132.5 -7t154.5 -7q27 0 72.5 1t64.5 1q45 0 71.5 -22.5t26.5 -61.5q0 -61 -85 -85q-7 -2 -11 -3q-19 -5 -27 -23.5t-8 -64.5zM1163 1390l-268 -190q-8 -6 -15 -9.5t-14 -3.5q-14 0 -26.5 14t-12.5 31q1 8 11 21l4 4l217 256
q10 12 25.5 19.5t29.5 7.5q31 0 58.5 -29t27.5 -57q0 -17 -10.5 -35t-26.5 -29z" />
    <glyph glyph-name="Ucircumflex" unicode="&#xdb;" horiz-adv-x="1479" 
d="M772 840v-586q0 -161 38 -217.5t130 -56.5q87 0 127.5 53.5t40.5 169.5v6q2 24 2 45v586q0 46 -8 64.5t-27 23.5q-4 1 -11 3q-85 24 -85 85q0 38 21.5 61t56.5 23h41h286q34 0 56 -23.5t22 -60.5q0 -60 -89 -84q-5 -1 -9 -2q-19 -6 -28 -26.5t-9 -63.5v-598
q0 -245 -95 -362.5t-292 -117.5q-103 0 -178.5 35t-130.5 109q-41 55 -58.5 121t-17.5 215v561q0 63 -31 93t-96 30q-96 0 -154.5 -52.5t-58.5 -136.5q0 -47 22 -75.5t58 -28.5q18 0 52 14.5t56 14.5q43 0 71 -31.5t28 -79.5q0 -75 -55 -120.5t-146 -45.5q-130 0 -215.5 95
t-85.5 243q0 170 106.5 279.5t274.5 109.5q37 0 132.5 -7t154.5 -7q27 0 72.5 1t64.5 1q45 0 71.5 -22.5t26.5 -61.5q0 -61 -85 -85q-7 -2 -11 -3q-19 -5 -27 -23.5t-8 -64.5zM1010 1515l176 -260q5 -7 7.5 -13.5t2.5 -13.5q0 -16 -10.5 -27.5t-26.5 -11.5q-5 0 -12 3.5
t-12 9.5l-160 149q-12 10 -19.5 14.5t-13.5 4.5t-15 -5t-20 -14l-160 -149q-5 -6 -11 -9t-11 -4q-16 0 -26.5 11.5t-10.5 27.5q0 5 2.5 11.5t7.5 15.5l174 260q8 12 27.5 18.5t50.5 6.5q22 0 36.5 -6t23.5 -19z" />
    <glyph glyph-name="Udieresis" unicode="&#xdc;" horiz-adv-x="1479" 
d="M772 840v-586q0 -161 38 -217.5t130 -56.5q87 0 127.5 53.5t40.5 169.5v6q2 24 2 45v586q0 46 -8 64.5t-27 23.5q-4 1 -11 3q-85 24 -85 85q0 38 21.5 61t56.5 23h41h286q34 0 56 -23.5t22 -60.5q0 -60 -89 -84q-5 -1 -9 -2q-19 -6 -28 -26.5t-9 -63.5v-598
q0 -245 -95 -362.5t-292 -117.5q-103 0 -178.5 35t-130.5 109q-41 55 -58.5 121t-17.5 215v561q0 63 -31 93t-96 30q-96 0 -154.5 -52.5t-58.5 -136.5q0 -47 22 -75.5t58 -28.5q18 0 52 14.5t56 14.5q43 0 71 -31.5t28 -79.5q0 -75 -55 -120.5t-146 -45.5q-130 0 -215.5 95
t-85.5 243q0 170 106.5 279.5t274.5 109.5q37 0 132.5 -7t154.5 -7q27 0 72.5 1t64.5 1q45 0 71.5 -22.5t26.5 -61.5q0 -61 -85 -85q-7 -2 -11 -3q-19 -5 -27 -23.5t-8 -64.5zM1108 1472q51 0 85 -31t34 -77t-34.5 -76.5t-84.5 -30.5t-83.5 30.5t-33.5 76.5q0 44 34.5 76
t82.5 32zM774 1472q52 0 85.5 -31t33.5 -77t-34.5 -76.5t-84.5 -30.5t-83.5 30.5t-33.5 76.5q0 44 34.5 76t82.5 32z" />
    <glyph glyph-name="Yacute" unicode="&#xdd;" horiz-adv-x="1298" 
d="M715 842l80 -146q5 -11 11 -15.5t13 -4.5q8 0 12.5 3.5t12.5 16.5l84 148q6 11 9 21.5t3 19.5q0 32 -46 64t-46 75q0 32 21 54t51 22h38h289q25 0 46.5 -25.5t21.5 -58.5t-11.5 -51t-48.5 -39q-56 -32 -93 -99q-6 -11 -9 -16l-215 -371v-256h33q42 0 68 -24.5t26 -65.5
q0 -26 -13.5 -49.5t-52.5 -60.5l-198 -187q-23 -21 -39.5 -29t-34.5 -8q-43 0 -72.5 29.5t-29.5 71.5q0 38 33.5 78t39.5 52q13 25 18 61.5t5 131.5v219l-246 427l-2 3q-55 95 -125 95q-59 0 -98 -45t-39 -115q0 -64 29.5 -101.5t78.5 -37.5q19 0 59 25.5t71 25.5
q42 0 72 -33.5t30 -81.5q0 -81 -60.5 -130.5t-160.5 -49.5q-141 0 -235.5 95t-94.5 239q0 178 104.5 285.5t276.5 107.5q38 0 107 -5t100 -5q21 0 59 2t53 2q45 0 72 -24.5t27 -65.5q0 -40 -50.5 -68.5t-50.5 -58.5q0 -10 4 -21.5t13 -25.5zM1020 1390l-268 -190
q-8 -6 -15 -9.5t-14 -3.5q-14 0 -26.5 14t-12.5 31q1 8 11 21l4 4l217 256q10 12 25.5 19.5t29.5 7.5q31 0 58.5 -29t27.5 -57q0 -17 -10.5 -35t-26.5 -29z" />
    <glyph glyph-name="Thorn" unicode="&#xde;" horiz-adv-x="1219" 
d="M625 217v-96h20q42 0 68 -24.5t26 -63.5q0 -27 -13 -50.5t-50 -58.5l-189 -176q-20 -18 -36 -25.5t-35 -7.5q-46 0 -75.5 27.5t-29.5 69.5q0 37 32.5 77t39.5 54q13 26 19 65.5t6 122.5v561q-84 -20 -124 -57.5t-40 -95.5q0 -62 57 -138t57 -110q0 -44 -32 -74.5
t-80 -30.5q-94 0 -160 92.5t-66 229.5q0 163 99.5 259.5t288.5 115.5v4q0 28 -40 63t-40 78q0 39 24 55.5t84 16.5h154q60 0 84 -17t24 -55q0 -44 -38.5 -77t-40.5 -56h59q241 0 373.5 -107t132.5 -303q0 -161 -85.5 -251.5t-238.5 -90.5q-67 0 -124 18t-111 56zM625 706
v-161q0 -113 42.5 -165t135.5 -52q70 0 114 43.5t44 113.5q0 112 -81 165t-255 56z" />
    <glyph glyph-name="germandbls" unicode="&#xdf;" horiz-adv-x="915" 
d="M322 758v-629q0 -75 -21.5 -102t-75.5 -27h-110q-33 0 -55.5 25t-22.5 63q0 49 43 74q7 4 10 6q18 11 25.5 30t7.5 66v473q0 196 86.5 291.5t263.5 95.5q142 0 233 -74t91 -188q0 -70 -24 -117t-68 -67q-7 -3 -20 -7q-27 -8 -28 -22q0 -13 29.5 -21t44.5 -18
q57 -32 87 -96t30 -154q0 -169 -89 -278t-222 -109q-75 0 -122.5 43.5t-47.5 110.5q0 36 17.5 57t49.5 21q12 0 32.5 -1t29.5 -1q67 0 108 48.5t41 127.5q0 62 -29 103.5t-81 54.5q-66 15 -82.5 36t-16.5 70q0 74 72 111q17 9 27 14q20 12 34.5 38t14.5 54q0 52 -34 84.5
t-89 32.5q-74 0 -106.5 -51t-32.5 -168z" />
    <glyph glyph-name="agrave" unicode="&#xe0;" horiz-adv-x="854" 
d="M725 532v-268q0 -39 4 -55t12 -27q7 -8 25 -19q47 -28 47 -79q0 -40 -23.5 -62t-66.5 -22h-105q-53 0 -74.5 27t-21.5 102v209h-39q-102 0 -162.5 -29.5t-60.5 -77.5q0 -24 21 -41.5t51 -17.5q15 0 39.5 14.5t38.5 14.5q27 0 45 -26t18 -66q0 -61 -50 -97.5t-134 -36.5
q-101 0 -170.5 69t-69.5 171q0 126 112.5 196t313.5 70h47v31q0 41 -23 64.5t-65 23.5q-40 0 -112 -49t-117 -49q-42 0 -69 25t-27 63q0 73 92 123.5t235 50.5q141 0 215 -59.5t74 -172.5zM313 1153l215 -256l3 -3q12 -15 12 -26q0 -14 -12.5 -27.5t-26.5 -13.5q-7 0 -14 3
t-15 10l-268 190q-15 11 -25 29t-10 35q0 28 28 57t58 29q14 0 29.5 -7.5t25.5 -19.5z" />
    <glyph glyph-name="aacute" unicode="&#xe1;" horiz-adv-x="854" 
d="M725 532v-268q0 -39 4 -55t12 -27q7 -8 25 -19q47 -28 47 -79q0 -40 -23.5 -62t-66.5 -22h-105q-53 0 -74.5 27t-21.5 102v209h-39q-102 0 -162.5 -29.5t-60.5 -77.5q0 -24 21 -41.5t51 -17.5q15 0 39.5 14.5t38.5 14.5q27 0 45 -26t18 -66q0 -61 -50 -97.5t-134 -36.5
q-101 0 -170.5 69t-69.5 171q0 126 112.5 196t313.5 70h47v31q0 41 -23 64.5t-65 23.5q-40 0 -112 -49t-117 -49q-42 0 -69 25t-27 63q0 73 92 123.5t235 50.5q141 0 215 -59.5t74 -172.5zM649 1030l-268 -190q-8 -6 -15 -9.5t-14 -3.5q-14 0 -26.5 14t-12.5 31q1 8 11 21
l4 4l217 256q10 12 25.5 19.5t29.5 7.5q31 0 58.5 -29t27.5 -57q0 -17 -10.5 -35t-26.5 -29z" />
    <glyph glyph-name="acircumflex" unicode="&#xe2;" horiz-adv-x="854" 
d="M725 532v-268q0 -39 4 -55t12 -27q7 -8 25 -19q47 -28 47 -79q0 -40 -23.5 -62t-66.5 -22h-105q-53 0 -74.5 27t-21.5 102v209h-39q-102 0 -162.5 -29.5t-60.5 -77.5q0 -24 21 -41.5t51 -17.5q15 0 39.5 14.5t38.5 14.5q27 0 45 -26t18 -66q0 -61 -50 -97.5t-134 -36.5
q-101 0 -170.5 69t-69.5 171q0 126 112.5 196t313.5 70h47v31q0 41 -23 64.5t-65 23.5q-40 0 -112 -49t-117 -49q-42 0 -69 25t-27 63q0 73 92 123.5t235 50.5q141 0 215 -59.5t74 -172.5zM496 1155l176 -260q5 -7 7.5 -13.5t2.5 -13.5q0 -16 -10.5 -27.5t-26.5 -11.5
q-5 0 -12 3.5t-12 9.5l-160 149q-12 10 -19.5 14.5t-13.5 4.5t-15 -5t-20 -14l-160 -149q-5 -6 -11 -9t-11 -4q-16 0 -26.5 11.5t-10.5 27.5q0 5 2.5 11.5t7.5 15.5l174 260q8 12 27.5 18.5t50.5 6.5q22 0 36.5 -6t23.5 -19z" />
    <glyph glyph-name="atilde" unicode="&#xe3;" horiz-adv-x="854" 
d="M725 532v-268q0 -39 4 -55t12 -27q7 -8 25 -19q47 -28 47 -79q0 -40 -23.5 -62t-66.5 -22h-105q-53 0 -74.5 27t-21.5 102v209h-39q-102 0 -162.5 -29.5t-60.5 -77.5q0 -24 21 -41.5t51 -17.5q15 0 39.5 14.5t38.5 14.5q27 0 45 -26t18 -66q0 -61 -50 -97.5t-134 -36.5
q-101 0 -170.5 69t-69.5 171q0 126 112.5 196t313.5 70h47v31q0 41 -23 64.5t-65 23.5q-40 0 -112 -49t-117 -49q-42 0 -69 25t-27 63q0 73 92 123.5t235 50.5q141 0 215 -59.5t74 -172.5zM319 1112q61 0 144 -41t106 -41q33 0 55 34t35 34q17 0 27 -12.5t10 -32.5
q0 -52 -50 -104t-112 -52q-54 0 -140 41t-109 41q-34 0 -55.5 -34t-37.5 -34q-15 0 -24.5 12.5t-9.5 32.5q0 52 49.5 104t111.5 52z" />
    <glyph glyph-name="adieresis" unicode="&#xe4;" horiz-adv-x="854" 
d="M725 532v-268q0 -39 4 -55t12 -27q7 -8 25 -19q47 -28 47 -79q0 -40 -23.5 -62t-66.5 -22h-105q-53 0 -74.5 27t-21.5 102v209h-39q-102 0 -162.5 -29.5t-60.5 -77.5q0 -24 21 -41.5t51 -17.5q15 0 39.5 14.5t38.5 14.5q27 0 45 -26t18 -66q0 -61 -50 -97.5t-134 -36.5
q-101 0 -170.5 69t-69.5 171q0 126 112.5 196t313.5 70h47v31q0 41 -23 64.5t-65 23.5q-40 0 -112 -49t-117 -49q-42 0 -69 25t-27 63q0 73 92 123.5t235 50.5q141 0 215 -59.5t74 -172.5zM594 1112q51 0 85 -31t34 -77t-34.5 -76.5t-84.5 -30.5t-83.5 30.5t-33.5 76.5
q0 44 34.5 76t82.5 32zM260 1112q52 0 85.5 -31t33.5 -77t-34.5 -76.5t-84.5 -30.5t-83.5 30.5t-33.5 76.5q0 44 34.5 76t82.5 32z" />
    <glyph glyph-name="aring" unicode="&#xe5;" horiz-adv-x="854" 
d="M422 1171q-44 0 -74.5 -30.5t-30.5 -73.5q0 -44 30.5 -74t74.5 -30t74 30t30 74q0 43 -30.5 73.5t-73.5 30.5zM422 1305q98 0 167.5 -70t69.5 -168q0 -99 -69.5 -168.5t-167.5 -69.5t-168 70t-70 168t69.5 168t168.5 70zM725 532v-268q0 -39 4 -55t12 -27q7 -8 25 -19
q47 -28 47 -79q0 -40 -23.5 -62t-66.5 -22h-105q-53 0 -74.5 27t-21.5 102v209h-39q-102 0 -162.5 -29.5t-60.5 -77.5q0 -24 21 -41.5t51 -17.5q15 0 39.5 14.5t38.5 14.5q27 0 45 -26t18 -66q0 -61 -50 -97.5t-134 -36.5q-101 0 -170.5 69t-69.5 171q0 126 112.5 196
t313.5 70h47v31q0 41 -23 64.5t-65 23.5q-40 0 -112 -49t-117 -49q-42 0 -69 25t-27 63q0 73 92 123.5t235 50.5q141 0 215 -59.5t74 -172.5z" />
    <glyph glyph-name="ae" unicode="&#xe6;" horiz-adv-x="1241" 
d="M872 455q60 0 80.5 11t20.5 40q0 38 -32.5 62t-84.5 24q-57 0 -100.5 -39t-50.5 -98h167zM651 705q59 30 109 44.5t100 14.5q136 0 228 -89.5t92 -217.5q0 -82 -36 -115t-132 -33h-301q11 -63 55.5 -102t103.5 -39q55 0 114.5 46t86.5 46q33 0 56.5 -27.5t23.5 -66.5
q0 -77 -81 -134t-202 -57q-156 0 -252.5 98.5t-105.5 263.5l-27 1q-102 0 -161.5 -28.5t-59.5 -76.5q0 -25 19 -43t45 -18q25 0 59.5 14.5t50.5 14.5q32 0 52 -23.5t20 -60.5q0 -68 -52.5 -105t-148.5 -37q-114 0 -186 67.5t-72 172.5q0 126 112.5 196t313.5 70h47v31
q0 41 -23 64.5t-65 23.5q-40 0 -112 -49t-117 -49q-42 0 -69 25t-27 63q0 73 92 123.5t235 50.5q55 0 110.5 -15.5t104.5 -43.5z" />
    <glyph glyph-name="ccedilla" unicode="&#xe7;" horiz-adv-x="723" 
d="M422 -25q-169 0 -271 108t-102 288q0 169 101 281t249 112q121 0 202 -56t81 -135q0 -42 -26.5 -71t-65.5 -29q-33 0 -97 43t-104 43q-64 0 -98.5 -43.5t-34.5 -124.5q0 -94 40 -153.5t101 -59.5q36 0 100.5 40t100.5 40q41 0 67.5 -28t26.5 -70q0 -73 -79.5 -129
t-190.5 -56zM376 0h64v-61q0 -2 5 -5.5t9 -3.5q6 0 20.5 1t22.5 1q77 0 122.5 -41.5t45.5 -111.5q0 -76 -57.5 -120t-159.5 -44q-101 0 -175.5 33t-74.5 76q0 17 11.5 27.5t29.5 10.5q9 0 71 -28.5t116 -28.5q45 0 70.5 21t25.5 57q0 34 -26 54t-70 20q-7 0 -17.5 -2
t-15.5 -2q-8 0 -12.5 7.5t-4.5 22.5v117z" />
    <glyph glyph-name="egrave" unicode="&#xe8;" horiz-adv-x="797" 
d="M430 455q60 0 82.5 11.5t22.5 41.5q0 37 -34 60.5t-89 23.5q-59 0 -104 -39t-52 -98h174zM569 309h-311q12 -63 57.5 -102t106.5 -39q57 0 118.5 46t88.5 46q35 0 59.5 -28.5t24.5 -71.5q0 -71 -84.5 -128t-206.5 -57q-166 0 -269.5 107.5t-103.5 277.5q0 184 99.5 294
t263.5 110q141 0 235 -89t94 -218q0 -83 -36 -115.5t-136 -32.5zM284 1153l215 -256l3 -3q12 -15 12 -26q0 -14 -12.5 -27.5t-26.5 -13.5q-7 0 -14 3t-15 10l-268 190q-15 11 -25 29t-10 35q0 28 28 57t58 29q14 0 29.5 -7.5t25.5 -19.5z" />
    <glyph glyph-name="eacute" unicode="&#xe9;" horiz-adv-x="797" 
d="M430 455q60 0 82.5 11.5t22.5 41.5q0 37 -34 60.5t-89 23.5q-59 0 -104 -39t-52 -98h174zM569 309h-311q12 -63 57.5 -102t106.5 -39q57 0 118.5 46t88.5 46q35 0 59.5 -28.5t24.5 -71.5q0 -71 -84.5 -128t-206.5 -57q-166 0 -269.5 107.5t-103.5 277.5q0 184 99.5 294
t263.5 110q141 0 235 -89t94 -218q0 -83 -36 -115.5t-136 -32.5zM620 1030l-268 -190q-8 -6 -15 -9.5t-14 -3.5q-14 0 -26.5 14t-12.5 31q1 8 11 21l4 4l217 256q10 12 25.5 19.5t29.5 7.5q31 0 58.5 -29t27.5 -57q0 -17 -10.5 -35t-26.5 -29z" />
    <glyph glyph-name="ecircumflex" unicode="&#xea;" horiz-adv-x="797" 
d="M430 455q60 0 82.5 11.5t22.5 41.5q0 37 -34 60.5t-89 23.5q-59 0 -104 -39t-52 -98h174zM569 309h-311q12 -63 57.5 -102t106.5 -39q57 0 118.5 46t88.5 46q35 0 59.5 -28.5t24.5 -71.5q0 -71 -84.5 -128t-206.5 -57q-166 0 -269.5 107.5t-103.5 277.5q0 184 99.5 294
t263.5 110q141 0 235 -89t94 -218q0 -83 -36 -115.5t-136 -32.5zM467 1155l176 -260q5 -7 7.5 -13.5t2.5 -13.5q0 -16 -10.5 -27.5t-26.5 -11.5q-5 0 -12 3.5t-12 9.5l-160 149q-12 10 -19.5 14.5t-13.5 4.5t-15 -5t-20 -14l-160 -149q-5 -6 -11 -9t-11 -4q-16 0 -26.5 11.5
t-10.5 27.5q0 5 2.5 11.5t7.5 15.5l174 260q8 12 27.5 18.5t50.5 6.5q22 0 36.5 -6t23.5 -19z" />
    <glyph glyph-name="edieresis" unicode="&#xeb;" horiz-adv-x="797" 
d="M430 455q60 0 82.5 11.5t22.5 41.5q0 37 -34 60.5t-89 23.5q-59 0 -104 -39t-52 -98h174zM569 309h-311q12 -63 57.5 -102t106.5 -39q57 0 118.5 46t88.5 46q35 0 59.5 -28.5t24.5 -71.5q0 -71 -84.5 -128t-206.5 -57q-166 0 -269.5 107.5t-103.5 277.5q0 184 99.5 294
t263.5 110q141 0 235 -89t94 -218q0 -83 -36 -115.5t-136 -32.5zM565 1112q51 0 85 -31t34 -77t-34.5 -76.5t-84.5 -30.5t-83.5 30.5t-33.5 76.5q0 44 34.5 76t82.5 32zM231 1112q52 0 85.5 -31t33.5 -77t-34.5 -76.5t-84.5 -30.5t-83.5 30.5t-33.5 76.5q0 44 34.5 76
t82.5 32z" />
    <glyph glyph-name="igrave" unicode="&#xec;" horiz-adv-x="494" 
d="M356 668v-402q0 -48 4.5 -64.5t14.5 -25.5q7 -6 30 -17q62 -27 62 -83q0 -40 -24.5 -58t-77.5 -18h-222q-54 0 -78 18.5t-24 59.5q0 52 61 83q17 8 25 13q14 9 19 26.5t6 65.5v232h-17q-41 0 -62.5 17.5t-21.5 51.5q0 23 9.5 40t31.5 34l117 92q21 17 38.5 24t39.5 7
q37 0 53 -22t16 -74zM133 1153l215 -256l3 -3q12 -15 12 -26q0 -14 -12.5 -27.5t-26.5 -13.5q-7 0 -14 3t-15 10l-268 190q-15 11 -25 29t-10 35q0 28 28 57t58 29q14 0 29.5 -7.5t25.5 -19.5z" />
    <glyph glyph-name="iacute" unicode="&#xed;" horiz-adv-x="494" 
d="M356 668v-402q0 -48 4.5 -64.5t14.5 -25.5q7 -6 30 -17q62 -27 62 -83q0 -40 -24.5 -58t-77.5 -18h-222q-54 0 -78 18.5t-24 59.5q0 52 61 83q17 8 25 13q14 9 19 26.5t6 65.5v232h-17q-41 0 -62.5 17.5t-21.5 51.5q0 23 9.5 40t31.5 34l117 92q21 17 38.5 24t39.5 7
q37 0 53 -22t16 -74zM469 1030l-268 -190q-8 -6 -15 -9.5t-14 -3.5q-14 0 -26.5 14t-12.5 31q1 8 11 21l4 4l217 256q10 12 25.5 19.5t29.5 7.5q31 0 58.5 -29t27.5 -57q0 -17 -10.5 -35t-26.5 -29z" />
    <glyph glyph-name="icircumflex" unicode="&#xee;" horiz-adv-x="494" 
d="M356 668v-402q0 -48 4.5 -64.5t14.5 -25.5q7 -6 30 -17q62 -27 62 -83q0 -40 -24.5 -58t-77.5 -18h-222q-54 0 -78 18.5t-24 59.5q0 52 61 83q17 8 25 13q14 9 19 26.5t6 65.5v232h-17q-41 0 -62.5 17.5t-21.5 51.5q0 23 9.5 40t31.5 34l117 92q21 17 38.5 24t39.5 7
q37 0 53 -22t16 -74zM316 1155l176 -260q5 -7 7.5 -13.5t2.5 -13.5q0 -16 -10.5 -27.5t-26.5 -11.5q-5 0 -12 3.5t-12 9.5l-160 149q-12 10 -19.5 14.5t-13.5 4.5t-15 -5t-20 -14l-160 -149q-5 -6 -11 -9t-11 -4q-16 0 -26.5 11.5t-10.5 27.5q0 5 2.5 11.5t7.5 15.5l174 260
q8 12 27.5 18.5t50.5 6.5q22 0 36.5 -6t23.5 -19z" />
    <glyph glyph-name="idieresis" unicode="&#xef;" horiz-adv-x="494" 
d="M356 668v-402q0 -48 4.5 -64.5t14.5 -25.5q7 -6 30 -17q62 -27 62 -83q0 -40 -24.5 -58t-77.5 -18h-222q-54 0 -78 18.5t-24 59.5q0 52 61 83q17 8 25 13q14 9 19 26.5t6 65.5v232h-17q-41 0 -62.5 17.5t-21.5 51.5q0 23 9.5 40t31.5 34l117 92q21 17 38.5 24t39.5 7
q37 0 53 -22t16 -74zM414 1112q51 0 85 -31t34 -77t-34.5 -76.5t-84.5 -30.5t-83.5 30.5t-33.5 76.5q0 44 34.5 76t82.5 32zM80 1112q52 0 85.5 -31t33.5 -77t-34.5 -76.5t-84.5 -30.5t-83.5 30.5t-33.5 76.5q0 44 34.5 76t82.5 32z" />
    <glyph glyph-name="eth" unicode="&#xf0;" horiz-adv-x="770" 
d="M385 522q-65 0 -99 -45t-34 -131t34 -131t99 -45t99 45t34 131t-34 131t-99 45zM408 1008l153 71q16 8 24.5 10.5t16.5 2.5q21 0 37 -17t16 -39q0 -28 -57 -55v0l-111 -53q119 -125 176.5 -266.5t57.5 -309.5q0 -167 -93.5 -272t-242.5 -105t-242.5 104.5t-93.5 272.5
q0 165 83 265t220 100q26 0 49 -5t48 -16q-43 61 -71.5 96t-53.5 58l-140 -66q-1 0 -4 -2q-20 -10 -35 -10q-22 0 -38.5 16.5t-16.5 38.5q0 27 51 53q5 2 7 3l94 45q-7 6 -19 18q-80 79 -80 109q0 32 22 50.5t60 18.5q32 0 76.5 -28t106.5 -88z" />
    <glyph glyph-name="ntilde" unicode="&#xf1;" horiz-adv-x="872" 
d="M758 524v-233h12q34 0 56 -22.5t22 -57.5q0 -43 -57 -96l-5 -4l-133 -123q-16 -17 -31.5 -24t-33.5 -7q-33 0 -59.5 27.5t-26.5 62.5q0 19 30.5 69.5t30.5 116.5v173q0 77 -21 105t-75 28q-65 0 -96 -59t-31 -183q0 -57 8 -87t25 -40q9 -6 27 -15q55 -27 55 -73
q0 -43 -21.5 -62.5t-71.5 -19.5h-225q-58 0 -84 18t-26 58q0 53 61 81q20 9 31 15q15 8 21.5 28.5t6.5 65.5v232h-26q-41 0 -62.5 17.5t-21.5 51.5q0 23 9.5 40t31.5 34l117 92q24 18 40.5 24.5t36.5 6.5q31 0 49.5 -19.5t18.5 -50.5v-20q0 -12 3.5 -16.5t10.5 -4.5t27 23
q75 88 178 88t151 -57t48 -183zM327 1112q61 0 144 -41t106 -41q33 0 55 34t35 34q17 0 27 -12.5t10 -32.5q0 -52 -50 -104t-112 -52q-54 0 -140 41t-109 41q-34 0 -55.5 -34t-37.5 -34q-15 0 -24.5 12.5t-9.5 32.5q0 52 49.5 104t111.5 52z" />
    <glyph glyph-name="ograve" unicode="&#xf2;" horiz-adv-x="770" 
d="M383 573q-64 0 -97.5 -50.5t-33.5 -147.5t33.5 -148t97.5 -51q66 0 100.5 51t34.5 148q0 96 -34.5 147t-100.5 51zM385 764q148 0 242 -109.5t94 -283.5q0 -175 -94.5 -285.5t-241.5 -110.5q-148 0 -242 110t-94 286q0 174 94 283.5t242 109.5zM270 1153l215 -256l3 -3
q12 -15 12 -26q0 -14 -12.5 -27.5t-26.5 -13.5q-7 0 -14 3t-15 10l-268 190q-15 11 -25 29t-10 35q0 28 28 57t58 29q14 0 29.5 -7.5t25.5 -19.5z" />
    <glyph glyph-name="oacute" unicode="&#xf3;" horiz-adv-x="770" 
d="M383 573q-64 0 -97.5 -50.5t-33.5 -147.5t33.5 -148t97.5 -51q66 0 100.5 51t34.5 148q0 96 -34.5 147t-100.5 51zM385 764q148 0 242 -109.5t94 -283.5q0 -175 -94.5 -285.5t-241.5 -110.5q-148 0 -242 110t-94 286q0 174 94 283.5t242 109.5zM606 1030l-268 -190
q-8 -6 -15 -9.5t-14 -3.5q-14 0 -26.5 14t-12.5 31q1 8 11 21l4 4l217 256q10 12 25.5 19.5t29.5 7.5q31 0 58.5 -29t27.5 -57q0 -17 -10.5 -35t-26.5 -29z" />
    <glyph glyph-name="ocircumflex" unicode="&#xf4;" horiz-adv-x="770" 
d="M383 573q-64 0 -97.5 -50.5t-33.5 -147.5t33.5 -148t97.5 -51q66 0 100.5 51t34.5 148q0 96 -34.5 147t-100.5 51zM385 764q148 0 242 -109.5t94 -283.5q0 -175 -94.5 -285.5t-241.5 -110.5q-148 0 -242 110t-94 286q0 174 94 283.5t242 109.5zM453 1155l176 -260
q5 -7 7.5 -13.5t2.5 -13.5q0 -16 -10.5 -27.5t-26.5 -11.5q-5 0 -12 3.5t-12 9.5l-160 149q-12 10 -19.5 14.5t-13.5 4.5t-15 -5t-20 -14l-160 -149q-5 -6 -11 -9t-11 -4q-16 0 -26.5 11.5t-10.5 27.5q0 5 2.5 11.5t7.5 15.5l174 260q8 12 27.5 18.5t50.5 6.5q22 0 36.5 -6
t23.5 -19z" />
    <glyph glyph-name="otilde" unicode="&#xf5;" horiz-adv-x="770" 
d="M383 573q-64 0 -97.5 -50.5t-33.5 -147.5t33.5 -148t97.5 -51q66 0 100.5 51t34.5 148q0 96 -34.5 147t-100.5 51zM385 764q148 0 242 -109.5t94 -283.5q0 -175 -94.5 -285.5t-241.5 -110.5q-148 0 -242 110t-94 286q0 174 94 283.5t242 109.5zM276 1112q61 0 144 -41
t106 -41q33 0 55 34t35 34q17 0 27 -12.5t10 -32.5q0 -52 -50 -104t-112 -52q-54 0 -140 41t-109 41q-34 0 -55.5 -34t-37.5 -34q-15 0 -24.5 12.5t-9.5 32.5q0 52 49.5 104t111.5 52z" />
    <glyph glyph-name="odieresis" unicode="&#xf6;" horiz-adv-x="770" 
d="M383 573q-64 0 -97.5 -50.5t-33.5 -147.5t33.5 -148t97.5 -51q66 0 100.5 51t34.5 148q0 96 -34.5 147t-100.5 51zM385 764q148 0 242 -109.5t94 -283.5q0 -175 -94.5 -285.5t-241.5 -110.5q-148 0 -242 110t-94 286q0 174 94 283.5t242 109.5zM551 1112q51 0 85 -31
t34 -77t-34.5 -76.5t-84.5 -30.5t-83.5 30.5t-33.5 76.5q0 44 34.5 76t82.5 32zM217 1112q52 0 85.5 -31t33.5 -77t-34.5 -76.5t-84.5 -30.5t-83.5 30.5t-33.5 76.5q0 44 34.5 76t82.5 32z" />
    <glyph glyph-name="divide" unicode="&#xf7;" horiz-adv-x="1706" 
d="M854 367q57 0 97 -40.5t40 -97.5q0 -56 -39.5 -95.5t-97.5 -39.5t-97.5 39t-39.5 96t40.5 97.5t96.5 40.5zM1452 694v-166h-1198v166h1198zM854 1128q57 0 97 -41t40 -98q0 -56 -39.5 -95.5t-97.5 -39.5t-97.5 39t-39.5 96t40.5 98t96.5 41z" />
    <glyph glyph-name="oslash" unicode="&#xf8;" horiz-adv-x="762" 
d="M659 719l-34 -62q49 -58 72.5 -128t23.5 -158q0 -175 -94.5 -285.5t-241.5 -110.5q-33 0 -67.5 8t-69.5 23l-29 -55q-13 -25 -32 -38t-42 -13q-32 0 -55.5 23t-23.5 54q0 16 17 48l1 2l43 77q-39 53 -58.5 118.5t-19.5 148.5q0 175 94 284t242 109q35 0 61.5 -4.5
t51.5 -14.5l26 50q14 24 33 37.5t41 13.5q33 0 56.5 -23t23.5 -55q0 -8 -4 -19t-15 -30zM383 573q-64 0 -97.5 -50.5t-33.5 -147.5t33.5 -148t97.5 -51q66 0 100.5 51t34.5 148q0 96 -34.5 147t-100.5 51z" />
    <glyph glyph-name="ugrave" unicode="&#xf9;" horiz-adv-x="872" 
d="M322 668v-334q0 -78 21.5 -105.5t76.5 -27.5q61 0 89 48.5t28 156.5v92h-23q-41 0 -62.5 17.5t-21.5 51.5q0 23 9.5 40t31.5 34l117 92q20 17 37.5 24t40.5 7q37 0 53 -21.5t16 -74.5v-443q0 -36 42 -67.5t42 -81.5q0 -38 -19 -57t-57 -19h-127q-29 0 -45 13.5t-16 37.5
v12q0 15 -3.5 19t-10.5 4t-26 -21q-83 -90 -189 -90q-103 0 -151 57.5t-48 182.5v283h-27q-41 0 -62.5 17.5t-21.5 51.5q0 23 9.5 40t31.5 34l119 92q21 17 38.5 24t39.5 7q36 0 52 -21t16 -75zM321 1153l215 -256l3 -3q12 -15 12 -26q0 -14 -12.5 -27.5t-26.5 -13.5
q-7 0 -14 3t-15 10l-268 190q-15 11 -25 29t-10 35q0 28 28 57t58 29q14 0 29.5 -7.5t25.5 -19.5z" />
    <glyph glyph-name="uacute" unicode="&#xfa;" horiz-adv-x="872" 
d="M322 668v-334q0 -78 21.5 -105.5t76.5 -27.5q61 0 89 48.5t28 156.5v92h-23q-41 0 -62.5 17.5t-21.5 51.5q0 23 9.5 40t31.5 34l117 92q20 17 37.5 24t40.5 7q37 0 53 -21.5t16 -74.5v-443q0 -36 42 -67.5t42 -81.5q0 -38 -19 -57t-57 -19h-127q-29 0 -45 13.5t-16 37.5
v12q0 15 -3.5 19t-10.5 4t-26 -21q-83 -90 -189 -90q-103 0 -151 57.5t-48 182.5v283h-27q-41 0 -62.5 17.5t-21.5 51.5q0 23 9.5 40t31.5 34l119 92q21 17 38.5 24t39.5 7q36 0 52 -21t16 -75zM657 1030l-268 -190q-8 -6 -15 -9.5t-14 -3.5q-14 0 -26.5 14t-12.5 31
q1 8 11 21l4 4l217 256q10 12 25.5 19.5t29.5 7.5q31 0 58.5 -29t27.5 -57q0 -17 -10.5 -35t-26.5 -29z" />
    <glyph glyph-name="ucircumflex" unicode="&#xfb;" horiz-adv-x="872" 
d="M322 668v-334q0 -78 21.5 -105.5t76.5 -27.5q61 0 89 48.5t28 156.5v92h-23q-41 0 -62.5 17.5t-21.5 51.5q0 23 9.5 40t31.5 34l117 92q20 17 37.5 24t40.5 7q37 0 53 -21.5t16 -74.5v-443q0 -36 42 -67.5t42 -81.5q0 -38 -19 -57t-57 -19h-127q-29 0 -45 13.5t-16 37.5
v12q0 15 -3.5 19t-10.5 4t-26 -21q-83 -90 -189 -90q-103 0 -151 57.5t-48 182.5v283h-27q-41 0 -62.5 17.5t-21.5 51.5q0 23 9.5 40t31.5 34l119 92q21 17 38.5 24t39.5 7q36 0 52 -21t16 -75zM504 1155l176 -260q5 -7 7.5 -13.5t2.5 -13.5q0 -16 -10.5 -27.5t-26.5 -11.5
q-5 0 -12 3.5t-12 9.5l-160 149q-12 10 -19.5 14.5t-13.5 4.5t-15 -5t-20 -14l-160 -149q-5 -6 -11 -9t-11 -4q-16 0 -26.5 11.5t-10.5 27.5q0 5 2.5 11.5t7.5 15.5l174 260q8 12 27.5 18.5t50.5 6.5q22 0 36.5 -6t23.5 -19z" />
    <glyph glyph-name="udieresis" unicode="&#xfc;" horiz-adv-x="872" 
d="M322 668v-334q0 -78 21.5 -105.5t76.5 -27.5q61 0 89 48.5t28 156.5v92h-23q-41 0 -62.5 17.5t-21.5 51.5q0 23 9.5 40t31.5 34l117 92q20 17 37.5 24t40.5 7q37 0 53 -21.5t16 -74.5v-443q0 -36 42 -67.5t42 -81.5q0 -38 -19 -57t-57 -19h-127q-29 0 -45 13.5t-16 37.5
v12q0 15 -3.5 19t-10.5 4t-26 -21q-83 -90 -189 -90q-103 0 -151 57.5t-48 182.5v283h-27q-41 0 -62.5 17.5t-21.5 51.5q0 23 9.5 40t31.5 34l119 92q21 17 38.5 24t39.5 7q36 0 52 -21t16 -75zM602 1112q51 0 85 -31t34 -77t-34.5 -76.5t-84.5 -30.5t-83.5 30.5t-33.5 76.5
q0 44 34.5 76t82.5 32zM268 1112q52 0 85.5 -31t33.5 -77t-34.5 -76.5t-84.5 -30.5t-83.5 30.5t-33.5 76.5q0 44 34.5 76t82.5 32z" />
    <glyph glyph-name="yacute" unicode="&#xfd;" horiz-adv-x="815" 
d="M80 739h223q45 0 66.5 -18.5t21.5 -56.5q0 -40 -39 -68.5t-39 -52.5q0 -10 3 -22t8 -24l82 -180q1 -3 4 -10q6 -14 14 -14q7 0 13 16q2 6 3 8l72 181q5 11 7.5 22t2.5 23q0 24 -39 52.5t-39 68.5q0 38 22 56.5t66 18.5h193q49 0 71.5 -18t22.5 -57q0 -44 -51.5 -87.5
t-71.5 -99.5l-166 -475q-62 -177 -139.5 -247t-200.5 -70q-109 0 -178 55.5t-69 138.5q0 56 31.5 90.5t82.5 34.5q35 0 64 -17t45 -48q5 -10 13 -27q22 -47 50 -47q27 0 54 41.5t51 120.5l-228 471q-28 59 -74 97.5t-46 74.5q0 37 21.5 53t72.5 16zM629 1030l-268 -190
q-8 -6 -15 -9.5t-14 -3.5q-14 0 -26.5 14t-12.5 31q1 8 11 21l4 4l217 256q10 12 25.5 19.5t29.5 7.5q31 0 58.5 -29t27.5 -57q0 -17 -10.5 -35t-26.5 -29z" />
    <glyph glyph-name="thorn" unicode="&#xfe;" horiz-adv-x="895" 
d="M328 1028v-336q0 -18 2.5 -24t9.5 -6q6 0 24 20q75 84 171 84q131 0 215 -109.5t84 -283.5q0 -175 -78 -285.5t-193 -110.5q-80 0 -132 44.5t-52 109.5q0 33 16.5 52.5t42.5 19.5q11 0 30 -1t28 -1q60 0 95.5 46t35.5 126q0 90 -37 139t-103 49q-88 0 -126.5 -65.5
t-38.5 -221.5v-256h8q33 0 55.5 -22.5t22.5 -56.5q0 -25 -12.5 -46.5t-49.5 -54.5l-135 -123q-18 -17 -32 -23.5t-34 -6.5q-33 0 -58.5 27t-25.5 63q0 18 31 69t31 117v897h-17q-41 0 -62 18t-21 52q0 22 9 39t31 34l117 93q21 17 38.5 23.5t39.5 6.5q37 0 53.5 -21.5
t16.5 -74.5z" />
    <glyph glyph-name="ydieresis" unicode="&#xff;" horiz-adv-x="815" 
d="M80 739h223q45 0 66.5 -18.5t21.5 -56.5q0 -40 -39 -68.5t-39 -52.5q0 -10 3 -22t8 -24l82 -180q1 -3 4 -10q6 -14 14 -14q7 0 13 16q2 6 3 8l72 181q5 11 7.5 22t2.5 23q0 24 -39 52.5t-39 68.5q0 38 22 56.5t66 18.5h193q49 0 71.5 -18t22.5 -57q0 -44 -51.5 -87.5
t-71.5 -99.5l-166 -475q-62 -177 -139.5 -247t-200.5 -70q-109 0 -178 55.5t-69 138.5q0 56 31.5 90.5t82.5 34.5q35 0 64 -17t45 -48q5 -10 13 -27q22 -47 50 -47q27 0 54 41.5t51 120.5l-228 471q-28 59 -74 97.5t-46 74.5q0 37 21.5 53t72.5 16zM574 1112q51 0 85 -31
t34 -77t-34.5 -76.5t-84.5 -30.5t-83.5 30.5t-33.5 76.5q0 44 34.5 76t82.5 32zM240 1112q52 0 85.5 -31t33.5 -77t-34.5 -76.5t-84.5 -30.5t-83.5 30.5t-33.5 76.5q0 44 34.5 76t82.5 32z" />
    <glyph glyph-name="Cacute" unicode="&#x106;" horiz-adv-x="1540" 
d="M899 776q61 -39 115.5 -59.5t99.5 -20.5q57 0 89 28t32 77q0 48 -38 83.5t-89 35.5q-61 0 -114 -36.5t-95 -107.5zM823 580q-12 -47 -18 -95t-6 -104q0 -178 71 -292t179 -114q85 0 136 55t56 152v9q8 181 119 182q63 0 100 -50.5t37 -138.5q0 -182 -126 -302t-322 -120
q-220 0 -354 171t-134 452q0 76 13 150.5t40 150.5q-70 47 -130.5 70.5t-108.5 23.5q-62 0 -99.5 -36t-37.5 -95q0 -39 22 -64.5t53 -25.5q12 0 46 11.5t57 11.5q40 0 66 -31t26 -80q0 -75 -55 -123.5t-142 -48.5q-129 0 -215 95.5t-86 242.5q0 158 96 256t250 98
q85 0 162 -25t176 -87q74 121 175.5 183t226.5 62q159 0 260.5 -94.5t101.5 -245.5q0 -135 -94 -221t-246 -86q-80 0 -152 25t-143 78zM1319 1390l-268 -190q-8 -6 -15 -9.5t-14 -3.5q-14 0 -26.5 14t-12.5 31q1 8 11 21l4 4l217 256q10 12 25.5 19.5t29.5 7.5
q31 0 58.5 -29t27.5 -57q0 -17 -10.5 -35t-26.5 -29z" />
    <glyph glyph-name="cacute" unicode="&#x107;" horiz-adv-x="723" 
d="M422 -25q-169 0 -271 108t-102 288q0 169 101 281t249 112q121 0 202 -56t81 -135q0 -42 -26.5 -71t-65.5 -29q-33 0 -97 43t-104 43q-64 0 -98.5 -43.5t-34.5 -124.5q0 -94 40 -153.5t101 -59.5q36 0 100.5 40t100.5 40q41 0 67.5 -28t26.5 -70q0 -73 -79.5 -129
t-190.5 -56zM624 1030l-268 -190q-8 -6 -15 -9.5t-14 -3.5q-14 0 -26.5 14t-12.5 31q1 8 11 21l4 4l217 256q10 12 25.5 19.5t29.5 7.5q31 0 58.5 -29t27.5 -57q0 -17 -10.5 -35t-26.5 -29z" />
    <glyph glyph-name="Ccaron" unicode="&#x10c;" horiz-adv-x="1540" 
d="M899 776q61 -39 115.5 -59.5t99.5 -20.5q57 0 89 28t32 77q0 48 -38 83.5t-89 35.5q-61 0 -114 -36.5t-95 -107.5zM823 580q-12 -47 -18 -95t-6 -104q0 -178 71 -292t179 -114q85 0 136 55t56 152v9q8 181 119 182q63 0 100 -50.5t37 -138.5q0 -182 -126 -302t-322 -120
q-220 0 -354 171t-134 452q0 76 13 150.5t40 150.5q-70 47 -130.5 70.5t-108.5 23.5q-62 0 -99.5 -36t-37.5 -95q0 -39 22 -64.5t53 -25.5q12 0 46 11.5t57 11.5q40 0 66 -31t26 -80q0 -75 -55 -123.5t-142 -48.5q-129 0 -215 95.5t-86 242.5q0 158 96 256t250 98
q85 0 162 -25t176 -87q74 121 175.5 183t226.5 62q159 0 260.5 -94.5t101.5 -245.5q0 -135 -94 -221t-246 -86q-80 0 -152 25t-143 78zM903 1527l160 -149q8 -8 18 -13.5t17 -5.5t15 4.5t18 14.5l160 149q5 6 12.5 9.5t13.5 3.5q14 0 24.5 -11.5t10.5 -27.5q0 -6 -2.5 -13
t-7.5 -14l-176 -260q-9 -13 -23.5 -19t-36.5 -6q-31 0 -50.5 6.5t-27.5 18.5l-174 260q-5 7 -7.5 14t-2.5 13q0 15 10.5 27t24.5 12q6 0 12 -3t12 -10z" />
    <glyph glyph-name="ccaron" unicode="&#x10d;" horiz-adv-x="723" 
d="M422 -25q-169 0 -271 108t-102 288q0 169 101 281t249 112q121 0 202 -56t81 -135q0 -42 -26.5 -71t-65.5 -29q-33 0 -97 43t-104 43q-64 0 -98.5 -43.5t-34.5 -124.5q0 -94 40 -153.5t101 -59.5q36 0 100.5 40t100.5 40q41 0 67.5 -28t26.5 -70q0 -73 -79.5 -129
t-190.5 -56zM208 1167l160 -149q8 -8 18 -13.5t17 -5.5t15 4.5t18 14.5l160 149q5 6 12.5 9.5t13.5 3.5q14 0 24.5 -11.5t10.5 -27.5q0 -6 -2.5 -13t-7.5 -14l-176 -260q-9 -13 -23.5 -19t-36.5 -6q-31 0 -50.5 6.5t-27.5 18.5l-174 260q-5 7 -7.5 14t-2.5 13q0 15 10.5 27
t24.5 12q6 0 12 -3t12 -10z" />
    <glyph glyph-name="dcroat" unicode="&#x111;" horiz-adv-x="930" 
d="M770 1028v-201h125q27 0 41 -14t14 -41t-14.5 -42t-40.5 -15h-125v-451q0 -42 5.5 -60.5t19.5 -29.5q4 -4 16 -11q45 -25 45 -69q0 -42 -22 -68t-56 -26h-110q-54 0 -75.5 27t-21.5 102v180q0 88 -38 133t-113 45q-70 0 -112 -43t-42 -116q0 -70 35.5 -114t91.5 -44
q11 0 31 4t29 4q33 0 52 -19t19 -53q0 -57 -51 -94t-131 -37q-125 0 -204 95.5t-79 251.5q0 150 86 247t215 97q69 0 134 -33t67 -33q9 0 13 3.5t4 14.5q0 2 -1 7q-2 19 -2 32v58h-221q-26 0 -39.5 14t-13.5 41q0 29 13.5 43t39.5 14h221v41h-36q-41 0 -62.5 17t-21.5 47
q0 19 7.5 33t35.5 34l127 95l2 1q40 29 75 29q37 0 52.5 -20.5t15.5 -75.5z" />
    <glyph glyph-name="Gbreve" unicode="&#x11e;" horiz-adv-x="1550" 
d="M842 768q66 -41 127.5 -63.5t109.5 -22.5q66 0 103 30.5t37 84.5q0 52 -41.5 89.5t-100.5 37.5q-68 0 -128 -40t-107 -116zM803 575q-1 -1 -1 -5q-7 -43 -7 -64q0 -106 67 -178t164 -72t175 106q27 35 42 52q19 20 42 28.5t63 8.5h61q50 0 72 -18t22 -58q0 -22 -19.5 -73
t-19.5 -97v-121q0 -222 -115.5 -342.5t-328.5 -120.5q-190 0 -327.5 104t-137.5 234q0 60 33.5 98.5t85.5 38.5q84 0 153 -136l17 -34q23 -42 76.5 -72t109.5 -30q103 0 160 77t57 218q0 6 -2 8t-8 2q-4 0 -18 -11q-83 -67 -207 -67q-194 0 -317.5 130.5t-123.5 338.5
q0 51 7.5 97t21.5 90q-55 46 -110.5 70t-106.5 24q-69 0 -112.5 -39t-43.5 -100q0 -40 25 -66.5t61 -26.5q17 0 53.5 9.5t55.5 9.5q42 0 69 -32t27 -83q0 -63 -62.5 -111.5t-150.5 -48.5q-129 0 -215 97t-86 245q0 163 99.5 264t258.5 101q83 0 164 -31.5t158 -93.5
q66 113 171 171t241 58q157 0 260.5 -97.5t103.5 -248.5q0 -138 -94 -226.5t-246 -88.5q-85 0 -163 27.5t-154 84.5zM711 1509q35 0 62 -54q14 -28 24 -42q18 -27 47 -38t82 -11q51 0 76.5 9.5t46.5 33.5q9 10 32.5 56t57.5 46q20 0 30.5 -14t10.5 -41q0 -87 -74 -156.5
t-180 -69.5q-107 0 -181.5 69.5t-74.5 156.5q0 27 10.5 41t30.5 14z" />
    <glyph glyph-name="gbreve" unicode="&#x11f;" horiz-adv-x="854" 
d="M424 602q-63 0 -99 -26t-36 -70q0 -42 36.5 -67t98.5 -25q64 0 101.5 25t37.5 67q0 44 -38 70t-101 26zM215 305v12q-61 34 -93 83.5t-32 109.5q0 103 87.5 174.5t215.5 71.5q21 0 48 -3.5t71 -11.5l8 9q-19 28 -28 53t-9 49q0 62 48.5 104.5t121.5 42.5
q63 0 111.5 -41.5t48.5 -95.5q0 -41 -21 -66.5t-55 -25.5q-19 0 -46.5 14.5t-35.5 14.5q-17 0 -29 -12t-12 -29q0 -33 53 -74q8 -6 11 -8q45 -37 64.5 -79t19.5 -101q0 -83 -61 -139.5t-175 -77.5q-47 -9 -130 -10q-105 0 -105 -46q0 -24 19.5 -35.5t62.5 -11.5h176
q155 0 228 -50t73 -155q0 -127 -119 -206.5t-313 -79.5q-177 0 -280 49t-103 133q0 49 33.5 81t85.5 32q34 0 61 -13.5t72 -60.5q3 -4 10 -10q65 -66 158 -66q79 0 129.5 32t50.5 81q0 60 -187 64q-36 1 -54 1q-191 6 -258.5 40t-67.5 112q0 49 37.5 86.5t109.5 58.5z
M213 1149q35 0 62 -54q14 -28 24 -42q18 -27 47 -38t82 -11q51 0 76.5 9.5t46.5 33.5q9 10 32.5 56t57.5 46q20 0 30.5 -14t10.5 -41q0 -87 -74 -156.5t-180 -69.5q-107 0 -181.5 69.5t-74.5 156.5q0 27 10.5 41t30.5 14z" />
    <glyph glyph-name="Idotaccent" unicode="&#x130;" horiz-adv-x="948" 
d="M793 840v-656h26q43 0 68.5 -24.5t25.5 -65.5q0 -26 -13 -49.5t-52 -60.5l-199 -187q-23 -21 -39.5 -29t-34.5 -8q-42 0 -72 29.5t-30 71.5q0 38 33.5 77.5t40.5 53.5q12 24 17 60.5t5 131.5v619q0 64 -32 93.5t-103 29.5q-93 0 -153 -53.5t-60 -135.5q0 -46 23 -75
t59 -29q18 0 54 14.5t59 14.5q44 0 73 -31.5t29 -79.5q0 -76 -56 -121t-151 -45q-131 0 -218 95t-87 243q0 170 107 279.5t274 109.5q36 0 132 -7t157 -7q27 0 79 2t74 2q53 0 82 -22.5t29 -63.5q0 -60 -89 -82q-12 -3 -17 -4q-22 -5 -31.5 -25t-9.5 -65zM625 1482
q45 0 77 -34t32 -82q0 -52 -31 -85.5t-78 -33.5q-46 0 -77.5 34t-31.5 85q0 49 32 82.5t77 33.5z" />
    <glyph glyph-name="dotlessi" unicode="&#x131;" horiz-adv-x="494" 
d="M356 668v-402q0 -48 4.5 -64.5t14.5 -25.5q7 -6 30 -17q62 -27 62 -83q0 -40 -24.5 -58t-77.5 -18h-222q-54 0 -78 18.5t-24 59.5q0 52 61 83q17 8 25 13q14 9 19 26.5t6 65.5v232h-17q-41 0 -62.5 17.5t-21.5 51.5q0 23 9.5 40t31.5 34l117 92q21 17 38.5 24t39.5 7
q37 0 53 -22t16 -74z" />
    <glyph glyph-name="Lslash" unicode="&#x141;" horiz-adv-x="1366" 
d="M793 840v-219l215 149q18 13 31 18t28 5q30 0 54 -25.5t24 -56.5q0 -22 -11.5 -39.5t-33.5 -32.5l-307 -213v-426h129q53 0 92.5 12t68.5 37q21 18 54 61q62 83 118 83q39 0 65 -25.5t26 -63.5q0 -9 -2.5 -19.5t-6.5 -21.5l-90 -246q-10 -26 -32.5 -41.5t-53.5 -15.5
q-29 0 -48.5 10t-35.5 31h-538q-61 0 -87 22.5t-26 74.5q0 65 85 92q13 4 19 6q22 7 30.5 30.5t8.5 79.5v166l-192 -133q-17 -12 -31 -17t-29 -5q-28 0 -52.5 26t-24.5 56q0 21 10.5 38t33.5 33l285 197v336q0 64 -32 93.5t-103 29.5q-91 0 -152 -49t-61 -121q0 -43 23 -70
t59 -27q18 0 54 14.5t59 14.5q44 0 73 -28.5t29 -71.5q0 -68 -56.5 -109t-152.5 -41q-132 0 -217.5 84.5t-85.5 214.5q0 160 108.5 267.5t272.5 107.5q36 0 132 -7t157 -7q27 0 79 2t74 2q53 0 82 -22.5t29 -63.5q0 -60 -89 -82q-12 -3 -17 -4q-22 -5 -31.5 -25t-9.5 -65z
" />
    <glyph glyph-name="lslash" unicode="&#x142;" horiz-adv-x="530" 
d="M375 1028v-278l47 34q17 13 32.5 19t28.5 6q27 0 47.5 -21t20.5 -49q0 -19 -11.5 -37t-33.5 -34l-131 -97v-305q0 -44 4.5 -62t15.5 -28q9 -7 29 -16q61 -28 61 -84q0 -40 -24.5 -58t-77.5 -18h-221q-54 0 -78.5 18.5t-24.5 59.5q0 52 62 83q16 8 24 13q14 9 19.5 27
t5.5 65v156l-47 -35q-18 -13 -32 -19t-28 -6q-27 0 -48 22.5t-21 49.5q0 17 11 34t34 34l131 98v258h-16q-42 0 -63 18t-21 52q0 22 9 39t32 34l116 93q21 17 38.5 23.5t39.5 6.5q37 0 53.5 -21.5t16.5 -74.5z" />
    <glyph glyph-name="OE" unicode="&#x152;" horiz-adv-x="1653" 
d="M801 645v51q0 117 -44.5 173.5t-135.5 56.5q-150 0 -236 -126.5t-86 -348.5q0 -223 85.5 -347t236.5 -124q89 0 134.5 54.5t45.5 162.5v63v385zM1458 1096l78 -218q7 -18 9.5 -30t2.5 -23q0 -35 -27.5 -57.5t-72.5 -22.5q-36 0 -81 62q-27 35 -44 51q-25 23 -57 33
t-88 10h-158v-321h117q1 43 27 67.5t71 24.5q38 0 60 -18t40 -68l76 -205q6 -17 9 -30.5t3 -22.5q0 -36 -28 -58t-74 -22q-30 0 -87 66.5t-122 66.5h-92v-381h178q54 0 94 12t70 37q20 18 53 61q63 83 119 83q38 0 64 -25.5t26 -63.5q0 -6 -2.5 -16t-7.5 -24l-88 -242
q-12 -31 -33.5 -46.5t-52.5 -15.5q-29 0 -49 10t-35 31h-402q-71 0 -191.5 -12t-170.5 -12q-237 0 -381.5 184t-144.5 490q0 305 144.5 489t381.5 184q45 0 166.5 -12t195.5 -12h320q19 28 41.5 40.5t54.5 12.5t55.5 -15.5t32.5 -41.5z" />
    <glyph glyph-name="oe" unicode="&#x153;" horiz-adv-x="1217" 
d="M854 455q59 0 78.5 10.5t19.5 40.5q0 37 -30.5 61.5t-77.5 24.5q-61 0 -105.5 -38.5t-52.5 -98.5h168zM381 573q-63 0 -96 -51t-33 -147q0 -97 33 -148t96 -51t96 50.5t33 148.5q0 96 -33.5 147t-95.5 51zM598 684q59 40 118.5 60t117.5 20q143 0 234 -88t91 -219
q0 -82 -35 -115t-129 -33h-301q12 -64 55.5 -102.5t102.5 -38.5q54 0 113.5 46t85.5 46q34 0 58 -29t24 -71q0 -72 -80 -128.5t-197 -56.5q-68 0 -133 22.5t-117 63.5q-59 -48 -108 -67t-113 -19q-148 0 -242 110t-94 286q0 174 94 283.5t242 109.5q57 0 109 -19.5
t104 -60.5z" />
    <glyph glyph-name="Scedilla" unicode="&#x15e;" horiz-adv-x="1085" 
d="M825 1086l78 -209q4 -12 6 -24t2 -22q0 -32 -25 -54.5t-63 -22.5q-28 0 -51 12t-58 52q-2 2 -9 10q-86 96 -177 96q-54 0 -91.5 -32t-37.5 -79q0 -81 175 -143q85 -30 135 -52q177 -77 255 -186.5t78 -273.5q0 -215 -138.5 -345t-368.5 -130q-224 0 -367 122t-143 312
q0 147 86 236t229 89q85 0 133.5 -35t48.5 -96q0 -45 -31.5 -70.5t-89.5 -25.5q-3 0 -8 1t-8 1q-59 0 -93 -30t-34 -83q0 -83 78.5 -143.5t189.5 -60.5q130 0 208.5 71.5t78.5 188.5q0 190 -346 316l-27 9q-143 53 -206.5 131t-63.5 199q0 133 88.5 221t220.5 88
q43 0 79 -10t71 -31q18 32 44.5 48t61.5 16q33 0 56 -15.5t34 -45.5zM718 0h64v-61q0 -2 5 -5.5t9 -3.5q6 0 20.5 1t22.5 1q77 0 122.5 -41.5t45.5 -111.5q0 -76 -57.5 -120t-159.5 -44q-101 0 -175.5 33t-74.5 76q0 17 11.5 27.5t29.5 10.5q9 0 71 -28.5t116 -28.5
q45 0 70.5 21t25.5 57q0 34 -26 54t-70 20q-7 0 -17.5 -2t-15.5 -2q-8 0 -12.5 7.5t-4.5 22.5v117z" />
    <glyph glyph-name="scedilla" unicode="&#x15f;" horiz-adv-x="739" 
d="M614 698l48 -117q4 -12 7 -24t3 -20q0 -25 -22 -42.5t-52 -17.5t-113.5 66.5t-142.5 66.5q-30 0 -46.5 -15t-16.5 -42q0 -47 110 -77q52 -13 82 -23q110 -36 163.5 -94.5t53.5 -143.5q0 -98 -70 -163.5t-176 -65.5q-47 0 -83 10.5t-68 34.5q-12 -32 -34.5 -49t-53.5 -17
q-32 0 -55 18t-35 52l-60 160q-5 11 -7.5 24t-2.5 25q0 28 25 48.5t61 20.5q25 0 44.5 -9.5t45.5 -37.5l2 -2q103 -110 176 -110q36 0 58 17t22 44q0 62 -131 98q-41 11 -65 19q-101 32 -151 86.5t-50 132.5q0 89 63 148t160 59q39 0 71 -10t62 -31q16 31 36 45t48 14
q35 0 55.5 -16t38.5 -62zM348 0h64v-61q0 -2 5 -5.5t9 -3.5q6 0 20.5 1t22.5 1q77 0 122.5 -41.5t45.5 -111.5q0 -76 -57.5 -120t-159.5 -44q-101 0 -175.5 33t-74.5 76q0 17 11.5 27.5t29.5 10.5q9 0 71 -28.5t116 -28.5q45 0 70.5 21t25.5 57q0 34 -26 54t-70 20
q-7 0 -17.5 -2t-15.5 -2q-8 0 -12.5 7.5t-4.5 22.5v117z" />
    <glyph glyph-name="Scaron" unicode="&#x160;" horiz-adv-x="1085" 
d="M825 1086l78 -209q4 -12 6 -24t2 -22q0 -32 -25 -54.5t-63 -22.5q-28 0 -51 12t-58 52q-2 2 -9 10q-86 96 -177 96q-54 0 -91.5 -32t-37.5 -79q0 -81 175 -143q85 -30 135 -52q177 -77 255 -186.5t78 -273.5q0 -215 -138.5 -345t-368.5 -130q-224 0 -367 122t-143 312
q0 147 86 236t229 89q85 0 133.5 -35t48.5 -96q0 -45 -31.5 -70.5t-89.5 -25.5q-3 0 -8 1t-8 1q-59 0 -93 -30t-34 -83q0 -83 78.5 -143.5t189.5 -60.5q130 0 208.5 71.5t78.5 188.5q0 190 -346 316l-27 9q-143 53 -206.5 131t-63.5 199q0 133 88.5 221t220.5 88
q43 0 79 -10t71 -31q18 32 44.5 48t61.5 16q33 0 56 -15.5t34 -45.5zM497 1527l160 -149q8 -8 18 -13.5t17 -5.5t15 4.5t18 14.5l160 149q5 6 12.5 9.5t13.5 3.5q14 0 24.5 -11.5t10.5 -27.5q0 -6 -2.5 -13t-7.5 -14l-176 -260q-9 -13 -23.5 -19t-36.5 -6q-31 0 -50.5 6.5
t-27.5 18.5l-174 260q-5 7 -7.5 14t-2.5 13q0 15 10.5 27t24.5 12q6 0 12 -3t12 -10z" />
    <glyph glyph-name="scaron" unicode="&#x161;" horiz-adv-x="739" 
d="M614 698l48 -117q4 -12 7 -24t3 -20q0 -25 -22 -42.5t-52 -17.5t-113.5 66.5t-142.5 66.5q-30 0 -46.5 -15t-16.5 -42q0 -47 110 -77q52 -13 82 -23q110 -36 163.5 -94.5t53.5 -143.5q0 -98 -70 -163.5t-176 -65.5q-47 0 -83 10.5t-68 34.5q-12 -32 -34.5 -49t-53.5 -17
q-32 0 -55 18t-35 52l-60 160q-5 11 -7.5 24t-2.5 25q0 28 25 48.5t61 20.5q25 0 44.5 -9.5t45.5 -37.5l2 -2q103 -110 176 -110q36 0 58 17t22 44q0 62 -131 98q-41 11 -65 19q-101 32 -151 86.5t-50 132.5q0 89 63 148t160 59q39 0 71 -10t62 -31q16 31 36 45t48 14
q35 0 55.5 -16t38.5 -62zM176 1167l160 -149q8 -8 18 -13.5t17 -5.5t15 4.5t18 14.5l160 149q5 6 12.5 9.5t13.5 3.5q14 0 24.5 -11.5t10.5 -27.5q0 -6 -2.5 -13t-7.5 -14l-176 -260q-9 -13 -23.5 -19t-36.5 -6q-31 0 -50.5 6.5t-27.5 18.5l-174 260q-5 7 -7.5 14t-2.5 13
q0 15 10.5 27t24.5 12q6 0 12 -3t12 -10z" />
    <glyph glyph-name="Ydieresis" unicode="&#x178;" horiz-adv-x="1298" 
d="M715 842l80 -146q5 -11 11 -15.5t13 -4.5q8 0 12.5 3.5t12.5 16.5l84 148q6 11 9 21.5t3 19.5q0 32 -46 64t-46 75q0 32 21 54t51 22h38h289q25 0 46.5 -25.5t21.5 -58.5t-11.5 -51t-48.5 -39q-56 -32 -93 -99q-6 -11 -9 -16l-215 -371v-256h33q42 0 68 -24.5t26 -65.5
q0 -26 -13.5 -49.5t-52.5 -60.5l-198 -187q-23 -21 -39.5 -29t-34.5 -8q-43 0 -72.5 29.5t-29.5 71.5q0 38 33.5 78t39.5 52q13 25 18 61.5t5 131.5v219l-246 427l-2 3q-55 95 -125 95q-59 0 -98 -45t-39 -115q0 -64 29.5 -101.5t78.5 -37.5q19 0 59 25.5t71 25.5
q42 0 72 -33.5t30 -81.5q0 -81 -60.5 -130.5t-160.5 -49.5q-141 0 -235.5 95t-94.5 239q0 178 104.5 285.5t276.5 107.5q38 0 107 -5t100 -5q21 0 59 2t53 2q45 0 72 -24.5t27 -65.5q0 -40 -50.5 -68.5t-50.5 -58.5q0 -10 4 -21.5t13 -25.5zM965 1472q51 0 85 -31t34 -77
t-34.5 -76.5t-84.5 -30.5t-83.5 30.5t-33.5 76.5q0 44 34.5 76t82.5 32zM631 1472q52 0 85.5 -31t33.5 -77t-34.5 -76.5t-84.5 -30.5t-83.5 30.5t-33.5 76.5q0 44 34.5 76t82.5 32z" />
    <glyph glyph-name="Zcaron" unicode="&#x17d;" horiz-adv-x="944" 
d="M311 1100h359q79 0 124.5 -38.5t45.5 -105.5q0 -25 -8.5 -52.5t-24.5 -53.5l-506 -811l-2 -4q-8 -13 -8 -17q0 -10 7 -14t34 -4h164q53 0 91.5 12t69.5 39q21 18 52 60q60 82 120 82q38 0 64.5 -26t26.5 -63q0 -7 -2.5 -18t-6.5 -23l-90 -244q-11 -28 -33.5 -43.5
t-52.5 -15.5q-28 0 -47 9.5t-35 31.5h-471q-79 0 -124.5 39t-45.5 105q0 26 8.5 53t24.5 53l506 809q1 2 4 7q8 13 8 16q0 10 -7.5 14t-35.5 4h-71q-49 0 -84.5 -9.5t-60.5 -28.5q-13 -10 -58.5 -65t-98.5 -55q-39 0 -65.5 24.5t-26.5 59.5q0 9 2.5 20t8.5 26l75 210
q9 26 32 41t54 15t50 -9t34 -30zM428 1527l160 -149q8 -8 18 -13.5t17 -5.5t15 4.5t18 14.5l160 149q5 6 12.5 9.5t13.5 3.5q14 0 24.5 -11.5t10.5 -27.5q0 -6 -2.5 -13t-7.5 -14l-176 -260q-9 -13 -23.5 -19t-36.5 -6q-31 0 -50.5 6.5t-27.5 18.5l-174 260q-5 7 -7.5 14
t-2.5 13q0 15 10.5 27t24.5 12q6 0 12 -3t12 -10z" />
    <glyph glyph-name="zcaron" unicode="&#x17e;" horiz-adv-x="758" 
d="M279 739h270q63 0 95 -23.5t32 -70.5q0 -39 -47 -100v0l-258 -328q-6 -8 -9.5 -15.5t-3.5 -15.5t6 -15t13 -7h37q43 0 110.5 68.5t108.5 68.5q38 0 61 -20t23 -54q0 -9 -2 -19t-6 -20l-62 -155q-12 -33 -34.5 -50.5t-51.5 -17.5q-19 0 -39 8.5t-45 26.5h-299
q-65 0 -97 24t-32 74q0 37 36 81q5 7 7 9l273 349q0 1 2 3q12 18 12 27q-1 8 -5.5 11t-15.5 4h-34q-39 0 -95 -55.5t-96 -55.5q-32 0 -55 20t-23 48q0 7 2.5 17.5t7.5 24.5l48 117q18 45 37.5 61.5t52.5 16.5q20 0 38 -8.5t38 -28.5zM184 1167l160 -149q8 -8 18 -13.5
t17 -5.5t15 4.5t18 14.5l160 149q5 6 12.5 9.5t13.5 3.5q14 0 24.5 -11.5t10.5 -27.5q0 -6 -2.5 -13t-7.5 -14l-176 -260q-9 -13 -23.5 -19t-36.5 -6q-31 0 -50.5 6.5t-27.5 18.5l-174 260q-5 7 -7.5 14t-2.5 13q0 15 10.5 27t24.5 12q6 0 12 -3t12 -10z" />
    <glyph glyph-name="florin" unicode="&#x192;" horiz-adv-x="977" 
d="M570 672h145q49 0 74.5 -23t25.5 -67q0 -45 -24.5 -66.5t-75.5 -21.5l-146 -1q3 -108 4.5 -189t1.5 -134q0 -255 -80 -374.5t-251 -119.5q-137 0 -238.5 80.5t-101.5 182.5q0 58 35 96.5t88 38.5q40 0 67.5 -23t48.5 -75q2 -5 5 -13q38 -100 98 -100q61 0 86.5 70
t25.5 249q0 66 -1.5 144t-4.5 167l-123 1q-50 0 -75 22t-25 66q0 45 25 67.5t75 22.5h123v8q0 233 84 351t250 118q137 0 237.5 -80.5t100.5 -181.5q0 -59 -34.5 -97t-86.5 -38q-41 0 -69.5 23t-48.5 74q-2 5 -5 13q-39 101 -98 101t-85 -66.5t-27 -224.5z" />
    <glyph glyph-name="circumflex" unicode="&#x2c6;" 
d="M580 1155l176 -260q5 -7 7.5 -13.5t2.5 -13.5q0 -16 -10.5 -27.5t-26.5 -11.5q-5 0 -12 3.5t-12 9.5l-160 149q-12 10 -19.5 14.5t-13.5 4.5t-15 -5t-20 -14l-160 -149q-5 -6 -11 -9t-11 -4q-16 0 -26.5 11.5t-10.5 27.5q0 5 2.5 11.5t7.5 15.5l174 260q8 12 27.5 18.5
t50.5 6.5q22 0 36.5 -6t23.5 -19z" />
    <glyph glyph-name="caron" unicode="&#x2c7;" 
d="M317 1167l160 -149q8 -8 18 -13.5t17 -5.5t15 4.5t18 14.5l160 149q5 6 12.5 9.5t13.5 3.5q14 0 24.5 -11.5t10.5 -27.5q0 -6 -2.5 -13t-7.5 -14l-176 -260q-9 -13 -23.5 -19t-36.5 -6q-31 0 -50.5 6.5t-27.5 18.5l-174 260q-5 7 -7.5 14t-2.5 13q0 15 10.5 27t24.5 12
q6 0 12 -3t12 -10z" />
    <glyph glyph-name="breve" unicode="&#x2d8;" 
d="M297 1149q35 0 62 -54q14 -28 24 -42q18 -27 47 -38t82 -11q51 0 76.5 9.5t46.5 33.5q9 10 32.5 56t57.5 46q20 0 30.5 -14t10.5 -41q0 -87 -74 -156.5t-180 -69.5q-107 0 -181.5 69.5t-74.5 156.5q0 27 10.5 41t30.5 14z" />
    <glyph glyph-name="dotaccent" unicode="&#x2d9;" 
d="M512 1122q45 0 77 -34t32 -82q0 -52 -31 -85.5t-78 -33.5q-46 0 -77.5 34t-31.5 85q0 49 32 82.5t77 33.5z" />
    <glyph glyph-name="ring" unicode="&#x2da;" 
d="M512 1171q-43 0 -73.5 -30.5t-30.5 -73.5q0 -44 30 -74t74 -30q43 0 72.5 30t29.5 74q0 43 -29.5 73.5t-72.5 30.5zM512 1305q98 0 168 -70t70 -168q0 -99 -70 -168.5t-168 -69.5t-168 70t-70 168t69.5 168t168.5 70z" />
    <glyph glyph-name="ogonek" unicode="&#x2db;" 
d="M549 14h59q-69 -50 -106 -103t-37 -101q0 -38 22 -62t56 -24q28 0 66.5 27.5t56.5 27.5q15 0 27 -12t12 -27q0 -37 -75.5 -85t-156.5 -48q-65 0 -107 37t-42 92q0 71 56.5 141t168.5 137z" />
    <glyph glyph-name="tilde" unicode="&#x2dc;" 
d="M403 1112q61 0 144 -41t106 -41q33 0 55 34t35 34q17 0 27 -12.5t10 -32.5q0 -52 -50 -104t-112 -52q-54 0 -140 41t-109 41q-34 0 -55.5 -34t-37.5 -34q-15 0 -24.5 12.5t-9.5 32.5q0 52 49.5 104t111.5 52z" />
    <glyph glyph-name="hungarumlaut" unicode="&#x2dd;" 
d="M858 1049l-240 -205q-7 -8 -14 -11.5t-14 -3.5q-15 0 -28 11.5t-13 23.5q0 11 8 22q1 1 2 3l178 260q10 13 28 22t36 9q29 0 56.5 -24.5t27.5 -51.5q0 -14 -7.5 -29.5t-19.5 -25.5zM592 1049l-240 -205q-8 -8 -15 -11.5t-15 -3.5q-16 0 -28.5 11.5t-12.5 23.5t8 23l2 2
l180 260q9 14 27 23.5t34 9.5q28 0 57 -26t29 -50q0 -16 -7 -31.5t-19 -25.5z" />
    <glyph glyph-name="Omega" unicode="&#x3a9;" horiz-adv-x="1569" 
d="M1122 221h301l54 168h67l-117 -389h-516q111 218 167.5 434.5t56.5 423.5q0 278 -87.5 417.5t-261.5 139.5t-262 -139t-88 -416q0 -205 57 -421.5t169 -438.5h-519l-116 389h67l53 -168h302v23q-158 127 -240 283.5t-82 330.5q0 277 188 458t471 181q284 0 471 -180.5
t187 -458.5q0 -176 -82 -332t-240 -282v-23z" />
    <glyph glyph-name="pi" unicode="&#x3c0;" horiz-adv-x="1427" 
d="M1352 653h-342q-12 -73 -17.5 -147t-5.5 -152v-147q0 -129 -33 -189.5t-102 -60.5q-49 0 -74.5 30t-25.5 87q0 64 74.5 253.5t107.5 325.5h-381q-12 -68 -18.5 -141t-6.5 -152q0 -4 1 -21q1 -67 1 -130q0 -129 -33.5 -190.5t-103.5 -61.5q-48 0 -73 29t-25 86
q0 65 75 254.5t107 326.5h-139q-5 0 -15.5 -1t-15.5 -1q-106 0 -153 -36.5t-68 -135.5h-59q41 227 128.5 316.5t266.5 89.5h981z" />
    <glyph glyph-name="endash" unicode="&#x2013;" 
d="M-14 446h1052v-127h-1052v127z" />
    <glyph glyph-name="emdash" unicode="&#x2014;" horiz-adv-x="2048" 
d="M-14 446h2076v-127h-2076v127z" />
    <glyph glyph-name="quoteleft" unicode="&#x2018;" horiz-adv-x="418" 
d="M272 1124q17 0 29 -12t12 -29t-31.5 -56.5t-31.5 -65.5q0 -23 44 -72t44 -94q0 -53 -35.5 -90t-87.5 -37q-60 0 -97.5 47.5t-37.5 124.5q0 91 71 187.5t121 96.5z" />
    <glyph glyph-name="quoteright" unicode="&#x2019;" horiz-adv-x="418" 
d="M201 1124q62 0 99.5 -49t37.5 -131q0 -84 -72.5 -180t-120.5 -96q-18 0 -30.5 11.5t-12.5 29.5q0 16 32 55.5t32 66.5q0 25 -44 73t-44 93q0 53 35.5 90t87.5 37z" />
    <glyph glyph-name="quotesinglbase" unicode="&#x201a;" horiz-adv-x="418" 
d="M201 281q62 0 99.5 -49.5t37.5 -131.5q0 -83 -73 -179.5t-122 -96.5q-17 0 -29 12t-12 29q0 16 32 55.5t32 67.5q0 22 -44 71t-44 95q0 52 35.5 89.5t87.5 37.5z" />
    <glyph glyph-name="quotedblleft" unicode="&#x201c;" horiz-adv-x="721" 
d="M584 1122q17 0 30 -11t13 -28t-33 -56.5t-33 -65.5q0 -23 44 -73t44 -95q0 -53 -35.5 -89t-87.5 -36q-60 0 -97.5 47.5t-37.5 124.5q0 91 71 186.5t122 95.5zM262 1122q17 0 29 -11t12 -28t-31.5 -56.5t-31.5 -65.5q0 -23 44 -73t44 -95q0 -53 -35.5 -89t-87.5 -36
q-61 0 -99 48t-38 124q0 91 72 186.5t122 95.5z" />
    <glyph glyph-name="quotedblright" unicode="&#x201d;" horiz-adv-x="721" 
d="M514 1124q62 0 98.5 -48.5t36.5 -131.5t-72 -178.5t-118 -95.5q-19 0 -31 11t-12 28q0 16 31.5 55.5t31.5 66.5q0 25 -44 73t-44 93q0 53 35.5 90t87.5 37zM190 1124q62 0 100 -49t38 -131q0 -84 -72.5 -179t-120.5 -95q-18 0 -30.5 11t-12.5 28q0 16 33 55.5t33 66.5
q0 25 -44 73t-44 93q0 54 34.5 90.5t85.5 36.5z" />
    <glyph glyph-name="quotedblbase" unicode="&#x201e;" horiz-adv-x="721" 
d="M514 281q62 0 98.5 -49t36.5 -132t-72 -179.5t-120 -96.5q-17 0 -29 12t-12 29q0 16 31.5 55.5t31.5 67.5q0 22 -44 71t-44 95q0 52 35.5 89.5t87.5 37.5zM190 281q62 0 100 -49.5t38 -131.5q0 -83 -72.5 -179.5t-120.5 -96.5q-17 0 -30 12t-13 29q0 16 33 55.5t33 67.5
q0 22 -44 71t-44 95q0 53 34.5 90t85.5 37z" />
    <glyph glyph-name="dagger" unicode="&#x2020;" horiz-adv-x="995" 
d="M498 1124q50 0 81 -28t31 -74t-28.5 -112.5t-28.5 -78.5t12.5 -22t28.5 -10q19 0 77.5 29.5t106.5 29.5q44 0 71.5 -31.5t27.5 -81.5t-27.5 -81t-71.5 -31q-46 0 -106 30.5t-80 30.5q-21 0 -31 -15t-10 -46q0 -109 55.5 -195.5t55.5 -101.5q0 -6 -13 -40
q-82 -223 -96 -490q-3 -49 -4 -119q-3 -109 -51 -109q-51 0 -52 114q-1 67 -4 114q-15 263 -95 487q-13 36 -13 43q0 14 55 102t55 195q0 31 -10.5 46t-32.5 15q-18 0 -77.5 -30.5t-108.5 -30.5q-43 0 -69.5 31.5t-26.5 80.5q0 51 27 82t71 31q48 0 107 -30.5t77 -30.5
t29.5 9.5t11.5 22.5q0 11 -28.5 80.5t-28.5 112.5q0 46 31 74t82 28z" />
    <glyph glyph-name="daggerdbl" unicode="&#x2021;" horiz-adv-x="995" 
d="M498 1124q50 0 81 -28t31 -74t-28.5 -112.5t-28.5 -78.5t12.5 -22t28.5 -10q19 0 77.5 29.5t106.5 29.5q44 0 71.5 -31.5t27.5 -81.5t-27.5 -81t-71.5 -31q-46 0 -106 30.5t-80 30.5q-21 0 -31 -15.5t-10 -47.5q0 -129 86 -238q25 -31 25 -43l-55.5 -86t-55.5 -194
q0 -30 11 -46t32 -16q18 0 77 30t109 30q43 0 70 -31t27 -80q0 -50 -27.5 -81.5t-71.5 -31.5q-48 0 -106.5 30t-77.5 30q-16 0 -27.5 -10t-11.5 -23q0 -11 27.5 -79.5t27.5 -113.5t-31 -72.5t-81 -27.5q-51 0 -82 28t-31 75q0 45 28.5 111.5t28.5 78.5q0 13 -12 23t-29 10
q-18 0 -77 -30t-107 -30q-44 0 -71 31t-27 82q0 50 27 80.5t71 30.5q47 0 107.5 -30t78.5 -30q21 0 31 15t10 47q0 129 -85 237q-25 32 -25 43l55 87t55 196q0 31 -10.5 46t-32.5 15q-18 0 -77.5 -30.5t-108.5 -30.5q-43 0 -69.5 31.5t-26.5 80.5q0 51 27 82t71 31
q48 0 107 -30.5t77 -30.5t29.5 9.5t11.5 22.5q0 11 -28.5 80.5t-28.5 112.5q0 46 31 74t82 28z" />
    <glyph glyph-name="bullet" unicode="&#x2022;" horiz-adv-x="1208" 
d="M307 762q0 123 87 209t210 86q122 0 208.5 -86.5t86.5 -208.5t-87.5 -209.5t-209.5 -87.5q-123 0 -209 87t-86 210z" />
    <glyph glyph-name="ellipsis" unicode="&#x2026;" horiz-adv-x="2048" 
d="M342 279q58 0 98.5 -44t40.5 -108q0 -65 -40 -108.5t-99 -43.5q-60 0 -100.5 44.5t-40.5 107.5q0 66 40 109t101 43zM1024 279q58 0 98.5 -44t40.5 -108q0 -65 -40 -108.5t-99 -43.5q-60 0 -100.5 44.5t-40.5 107.5q0 66 40 109t101 43zM1708 279q58 0 98.5 -44
t40.5 -108q0 -65 -40 -108.5t-99 -43.5q-60 0 -100.5 44.5t-40.5 107.5q0 66 40 109t101 43z" />
    <glyph glyph-name="perthousand" unicode="&#x2030;" horiz-adv-x="1720" 
d="M1434 414q-36 0 -55 -38.5t-19 -109.5q0 -69 19 -106t55 -37q33 0 51 37t18 106q0 71 -18 109.5t-51 38.5zM907 414q-35 0 -54 -38.5t-19 -109.5q0 -69 19 -106t54 -37q34 0 53 37.5t19 105.5q0 71 -19 109.5t-53 38.5zM1434 561q93 0 155 -82.5t62 -210.5
q0 -127 -62.5 -210t-154.5 -83q-96 0 -158 82t-62 211q0 131 62 212t158 81zM907 561q94 0 155.5 -82.5t61.5 -210.5q0 -127 -62 -210t-155 -83q-95 0 -157 82t-62 211q0 131 61.5 212t157.5 81zM1081 1013l-860 -1001q-15 -18 -33 -27.5t-38 -9.5q-22 0 -44 21.5t-22 44.5
q0 15 7.5 30.5t23.5 34.5l858 1002q17 20 34.5 29.5t39.5 9.5t42.5 -21.5t20.5 -48.5q0 -16 -7 -31.5t-22 -32.5zM289 999q-35 0 -53.5 -37.5t-18.5 -109.5q0 -70 18.5 -106.5t53.5 -36.5q34 0 52.5 37t18.5 106q0 70 -18.5 108.5t-52.5 38.5zM289 1147q94 0 155.5 -82.5
t61.5 -210.5q0 -127 -62 -209t-155 -82q-95 0 -156 81t-61 210q0 131 60.5 212t156.5 81z" />
    <glyph glyph-name="guilsinglleft" unicode="&#x2039;" horiz-adv-x="389" 
d="M346 553l-131 -131q-11 -12 -16.5 -24.5t-5.5 -26.5q0 -16 5 -29t17 -25l131 -131q17 -17 23 -28.5t6 -24.5q0 -23 -16 -38t-42 -15q-27 0 -56 26l-2 2l-218 191q-13 12 -20 28.5t-7 39.5q0 26 6.5 43.5t20.5 29.5l217 191q1 1 5 4q27 24 59 24q21 0 37 -16t16 -39
q0 -12 -5 -22.5t-24 -28.5z" />
    <glyph glyph-name="guilsinglright" unicode="&#x203a;" horiz-adv-x="389" 
d="M131 631l217 -191q14 -12 20.5 -29.5t6.5 -43.5q0 -23 -6.5 -39.5t-20.5 -28.5l-217 -190q-20 -19 -33 -24t-28 -5q-26 0 -42 15t-16 38q0 12 6 23t25 30l131 131q12 12 17.5 25t5.5 29q0 14 -6.5 28t-16.5 23l-131 131l-6 6q-25 24 -25 45q0 23 16 39t38 16
q18 0 31.5 -5t33.5 -23z" />
    <glyph glyph-name="franc" unicode="&#x20a3;" horiz-adv-x="2013" 
d="M1225 1095l80 -217q6 -17 9 -30t3 -23q0 -35 -28.5 -57.5t-74.5 -22.5q-36 0 -81 62q-27 36 -43 51q-26 23 -57 33t-87 10h-160v-295h119q2 45 27 68.5t69 23.5q40 0 62.5 -17.5t40.5 -66.5l74 -206q6 -17 9 -30.5t3 -23.5q0 -35 -27.5 -57.5t-72.5 -22.5q-30 0 -87 67
t-122 67h-95v-224h31q43 0 68.5 -24.5t25.5 -65.5q0 -27 -13 -51t-50 -59l-199 -187q-23 -21 -39.5 -29t-34.5 -8q-42 0 -72 29.5t-30 71.5q0 38 32.5 78t39.5 53q13 27 18.5 66.5t5.5 125.5v609q0 64 -32.5 93t-104.5 29q-93 0 -153 -53.5t-60 -134.5q0 -47 23 -76.5
t59 -29.5q18 0 54 15t59 15q44 0 73 -31t29 -79q0 -76 -57 -121t-152 -45q-132 0 -217.5 94t-85.5 242q0 98 37.5 179t108.5 136q51 40 115.5 57t205.5 17h23h548q19 28 41 40.5t54 12.5q31 0 54.5 -15.5t33.5 -42.5zM1691 426v-121q0 -61 9 -91t28 -40q10 -5 30 -14
q67 -29 67 -78q0 -42 -27 -62t-82 -20h-229q-58 0 -84.5 18t-26.5 58q0 55 65 83q18 8 27 13q16 10 22.5 29.5t6.5 64.5v232h-27q-41 0 -62.5 17.5t-21.5 51.5q0 23 9.5 40t31.5 34l117 92q21 17 38.5 24t39.5 7q43 0 59.5 -35t24.5 -35q1 0 39.5 35t93.5 35q69 0 110 -48
t41 -128q0 -72 -33.5 -111t-95.5 -39q-33 0 -53 18t-20 48q0 2 1 6t1 6q0 21 -10 33t-27 12q-30 0 -46 -35t-16 -100z" />
    <glyph glyph-name="trademark" unicode="&#x2122;" horiz-adv-x="1683" 
d="M969 1448l135 -381l137 381h189v-27l-28 -2q-19 -3 -29.5 -16.5t-10.5 -36.5v-375q0 -23 10.5 -36.5t30.5 -16.5l27 -4v-29h-246v29l30 4q20 2 29.5 15.5t9.5 37.5v375l-163 -463h-27l-170 469v-381q0 -24 10 -38t29 -15l35 -4v-29h-197v29l33 4q20 2 30.5 15t10.5 36
v373q0 23 -11 37t-30 16l-33 2v31h199zM692 1448l10 -188h-30q-8 80 -40 116.5t-93 36.5h-11v-422q0 -23 10.5 -37t28.5 -16l31 -4v-29h-260v29l32 4q19 2 28.5 15.5t9.5 37.5v422h-15q-59 0 -91 -37.5t-40 -115.5h-29l11 188h448z" />
    <glyph glyph-name="partialdiff" unicode="&#x2202;" horiz-adv-x="1075" 
d="M758 639q17 103 26 186.5t9 147.5q0 120 -29 174.5t-92 54.5q-62 0 -147 -58.5t-122 -58.5t-64.5 26t-27.5 60q0 66 79 115t200 49q176 0 287.5 -159t111.5 -422q0 -338 -150 -558.5t-376 -220.5q-161 0 -266 112t-105 286q0 193 113 322.5t278 129.5q101 0 167.5 -45
t107.5 -141zM705 504q0 116 -41 178.5t-117 62.5q-105 0 -174.5 -131.5t-69.5 -337.5q0 -116 40.5 -177.5t117.5 -61.5q105 0 174.5 132.5t69.5 334.5z" />
    <glyph glyph-name="Delta" unicode="&#x2206;" horiz-adv-x="1350" 
d="M958 250l-380 899l-385 -899h765zM705 1497l641 -1497h-1340l651 1497h48z" />
    <glyph glyph-name="product" unicode="&#x220f;" horiz-adv-x="1673" 
d="M51 1473h1569v-78h-190v-1710h190v-78h-643v78h184v1710h-653v-1710h186v-78h-643v78h189v1710h-189v78z" />
    <glyph glyph-name="summation" unicode="&#x2211;" horiz-adv-x="1499" 
d="M18 1473h1199l120 -394h-82l-81 238q-15 43 -50.5 60.5t-130.5 17.5h-628l745 -809v-41l-784 -709h893q47 0 64.5 13.5t29.5 50.5l69 229h84l-159 -522h-1289v55l875 787l-875 964v60z" />
    <glyph glyph-name="minus" unicode="&#x2212;" horiz-adv-x="1706" 
d="M1452 696v-170h-1198v170h1198z" />
    <glyph glyph-name="fraction" unicode="&#x2215;" horiz-adv-x="342" 
d="M653 1014l-858 -1002q-15 -18 -33 -27.5t-38 -9.5q-22 0 -44 21.5t-22 44.5q0 14 8 30.5t23 34.5l858 1002q17 20 34.5 29.5t39.5 9.5t42.5 -21.5t20.5 -48.5q0 -15 -7 -29.5t-24 -33.5z" />
    <glyph glyph-name="periodcentered" unicode="&#x2219;" horiz-adv-x="498" 
d="M250 723q53 0 90 -42.5t37 -105.5q0 -62 -36.5 -103.5t-90.5 -41.5q-55 0 -92 42t-37 103q0 64 36.5 106t92.5 42z" />
    <glyph glyph-name="radical" unicode="&#x221a;" horiz-adv-x="1323" 
d="M1325 1675v-110h-108l-594 -1606h-82l-316 872l-131 -49l-28 95l305 108l247 -688l510 1378h197z" />
    <glyph glyph-name="infinity" unicode="&#x221e;" horiz-adv-x="1706" 
d="M928 559q45 -81 109.5 -122.5t146.5 -41.5q97 0 159 61.5t62 157.5q0 95 -57 158.5t-142 63.5q-78 0 -142 -63.5t-136 -213.5zM780 662q-46 81 -111 123t-145 42q-98 0 -159.5 -62t-61.5 -159q0 -94 56.5 -156.5t140.5 -62.5q80 0 144.5 62.5t135.5 212.5zM844 750
q71 139 149.5 200.5t184.5 61.5q127 0 222 -116t95 -284q0 -178 -84.5 -288.5t-220.5 -110.5q-92 0 -166.5 57.5t-161.5 200.5q-71 -135 -148.5 -197.5t-172.5 -62.5q-137 0 -232.5 114.5t-95.5 284.5q0 179 85 289.5t220 110.5q93 0 168.5 -60t157.5 -200z" />
    <glyph glyph-name="integral" unicode="&#x222b;" horiz-adv-x="1120" 
d="M324 -258q106 0 122 692q2 81 3 123q13 538 113 766.5t312 228.5q87 0 143 -45.5t56 -111.5q0 -61 -34 -95t-95 -34q-45 0 -74.5 22.5t-40.5 65.5q-4 17 -6 45q-3 40 -26 41q-101 0 -119 -615q-5 -161 -8 -249q-10 -280 -30.5 -427t-59.5 -245q-55 -136 -139.5 -205.5
t-194.5 -69.5q-87 0 -142 44t-55 112q0 63 35.5 97t99.5 34q39 0 66 -18t41 -54q6 -16 9 -59t24 -43z" />
    <glyph glyph-name="approxequal" unicode="&#x2248;" horiz-adv-x="1706" 
d="M1530 406q-107 -73 -200 -106.5t-189 -33.5q-89 0 -279.5 66.5t-298.5 66.5q-84 0 -173.5 -36t-211.5 -121v184q112 75 206.5 110t180.5 35q118 0 309 -67.5t277 -67.5q83 0 172 36.5t207 119.5v-186zM1530 795q-109 -75 -201.5 -108.5t-187.5 -33.5q-88 0 -278.5 67.5
t-299.5 67.5q-82 0 -170 -35t-215 -122v184q109 73 205 109.5t182 36.5q120 0 310 -68t268 -68q92 0 181 35t206 119v-184z" />
    <glyph glyph-name="notequal" unicode="&#x2260;" horiz-adv-x="1706" 
d="M1327 1112l-170 -215h295v-162h-403l-197 -250h600v-161h-707l-249 -314l-123 99l170 215h-289v161h393l199 250h-592v162h700l250 315z" />
    <glyph glyph-name="lessequal" unicode="&#x2264;" horiz-adv-x="1706" 
d="M1446 178v-166h-1186v166h1186zM1446 1047l-889 -287l889 -287v-176l-1186 389v145l1186 392v-176z" />
    <glyph glyph-name="greaterequal" unicode="&#x2265;" horiz-adv-x="1706" 
d="M1448 178v-166h-1188v166h1188zM1446 831v-145l-1186 -389v176l891 287l-891 287v176z" />
    <glyph glyph-name="lozenge" unicode="&#x25ca;" horiz-adv-x="1012" 
d="M506 1409l-385 -817l385 -825l385 825zM506 1653l500 -1061l-500 -1069l-500 1069z" />
    <glyph glyph-name="apple" unicode="&#xf000;" horiz-adv-x="1618" 
d="M836 1216q-1 6 -1.5 14t-0.5 23q0 124 95 229.5t236 131.5q1 -10 1.5 -23t0.5 -39q0 -131 -103.5 -234.5t-203.5 -103.5h-8q-3 0 -7.5 1t-8.5 1zM1505 403q-114 -247 -205 -342.5t-204 -95.5q-50 0 -131.5 33t-122.5 33q-45 0 -131 -33t-127 -33q-64 0 -128.5 44
t-129.5 132q-102 140 -157.5 295.5t-55.5 300.5q0 219 125 356.5t323 137.5q68 0 155 -34t124 -34q34 0 121.5 35t152.5 35q110 0 198 -40t161 -124q-102 -65 -151.5 -145.5t-49.5 -182.5q0 -113 60 -200t173 -138z" />
    <glyph glyph-name="fi" unicode="&#xf001;" 
d="M887 657v-391q0 -44 4.5 -62t15.5 -28q9 -7 29 -16q61 -28 61 -84q0 -40 -24.5 -58t-77.5 -18h-221q-54 0 -78.5 18.5t-24.5 59.5q0 52 62 83q16 8 24 13q14 9 19.5 27t5.5 65v221h-16q-42 0 -63 18t-21 52q0 23 9.5 41t31.5 35l116 90q21 17 38.5 24t39.5 7
q37 0 53.5 -22t16.5 -75zM356 739h117q45 0 67.5 -22.5t22.5 -67.5q0 -44 -22.5 -67t-67.5 -23h-117v-293q0 -41 8.5 -63.5t26.5 -32.5q9 -5 25 -13q57 -29 57 -75q0 -43 -22.5 -62.5t-71.5 -19.5h-242q-53 0 -75.5 17.5t-22.5 58.5q0 55 54 81q18 9 28 15q14 9 20 29.5
t6 64.5v293h-51q-45 0 -68.5 23t-23.5 67t23.5 67t68.5 23h51v17q0 172 104 270t286 98q151 0 245.5 -58.5t94.5 -150.5q0 -53 -35 -90t-84 -37q-39 0 -65 18.5t-50 61.5l-6 12q-44 83 -115 83q-80 0 -123 -52.5t-43 -150.5v-21z" />
    <glyph glyph-name="fl" unicode="&#xf002;" 
d="M717 1085q28 22 50.5 30.5t49.5 8.5q37 0 53.5 -21.5t16.5 -74.5v-762q0 -44 4.5 -62t15.5 -28q9 -7 29 -16q61 -28 61 -84q0 -40 -24.5 -58t-77.5 -18h-221q-54 0 -78.5 18.5t-24.5 59.5q0 52 62 83q16 8 24 13q14 9 19.5 27t5.5 65v584h-4q-47 0 -97 56.5t-94 56.5
q-64 0 -97.5 -51t-33.5 -148v-25h117q45 0 67.5 -22.5t22.5 -67.5q0 -44 -22.5 -67t-67.5 -23h-117v-293q0 -41 8.5 -63.5t26.5 -32.5q9 -5 25 -13q57 -29 57 -75q0 -43 -22.5 -62.5t-71.5 -19.5h-242q-53 0 -75.5 17.5t-22.5 58.5q0 55 54 81q18 9 28 15q14 9 20 29.5
t6 64.5v293h-51q-45 0 -68.5 23t-23.5 67t23.5 67t68.5 23h51v15q0 173 104 271.5t286 98.5q50 0 94.5 -9.5t85.5 -29.5z" />
    <glyph glyph-name="c6459" 
d="M494 -213h57v-57q0 -2 5.5 -5.5t10.5 -3.5t18.5 2.5t20.5 2.5q69 0 110.5 -38.5t41.5 -103.5q0 -69 -52.5 -108t-144.5 -39q-91 0 -160 29t-69 67q0 16 11 26.5t28 10.5q7 0 64 -26.5t106 -26.5q41 0 63.5 18.5t22.5 52.5q0 32 -24 50t-64 18q-7 0 -17.5 -2t-13.5 -2
q-7 0 -10.5 6.5t-3.5 22.5v106z" />
    </font>
</defs>
</svg>
