<?xml version="1.0" standalone="no"?>
<!DOCTYPE svg PUBLIC "-//W3C//DTD SVG 1.1//EN" "http://www.w3.org/Graphics/SVG/1.1/DTD/svg11.dtd" >
<svg>
<metadata>
Created by FontForge 20110222 at Mon Sep 30 09:44:36 2013
 By Orthosie Webhosting
Copyright (c) 2001, Modular Infotech, Pune, INDIA. - Licenced to Microsoft
</metadata>
<defs>
<font id="KokilaBoldItalic" horiz-adv-x="792" >
  <font-face 
    font-family="KokilaBoldItalic"
    font-weight="700"
    font-style="italic"
    font-stretch="normal"
    units-per-em="2048"
    panose-1="2 11 8 4 2 2 2 2 2 4"
    ascent="1638"
    descent="-410"
    x-height="696"
    cap-height="1050"
    bbox="-1138 -857 2021 1504"
    underline-thickness="122"
    underline-position="-333"
    slope="-11"
    unicode-range="U+0020-25CC"
  />
<missing-glyph horiz-adv-x="1600" 
d="M200 1400h1200v-1400h-1200v1400zM1300 100v1200h-1000v-1200h1000z" />
    <glyph glyph-name=".notdef" horiz-adv-x="1600" 
d="M200 1400h1200v-1400h-1200v1400zM1300 100v1200h-1000v-1200h1000z" />
    <glyph glyph-name=".null" horiz-adv-x="0" 
 />
    <glyph glyph-name="nonmarkingreturn" horiz-adv-x="0" 
 />
    <glyph glyph-name="space" unicode=" " horiz-adv-x="396" 
 />
    <glyph glyph-name="exclam" unicode="!" horiz-adv-x="617" 
d="M285 300h-29q37 204 56 415.5t58 285t101 73.5q34 0 60.5 -30t26.5 -71q0 -35 -13.5 -75.5t-82.5 -182.5q-112 -237 -177 -415zM213 231q53 0 89.5 -37t36.5 -89q0 -53 -37 -90t-89 -37t-89 37t-37 90q0 52 37 89t89 37z" />
    <glyph glyph-name="quotedbl" unicode="&#x22;" horiz-adv-x="880" 
d="M672 558h-38l6 298q2 81 17 115q20 47 61 75t86 28q36 0 59.5 -23t23.5 -57q0 -23 -7 -40q-10 -27 -48 -98zM299 558h-38l4 298q3 110 50 164t115 54q36 0 59.5 -23t23.5 -55q0 -43 -53 -141z" />
    <glyph glyph-name="numbersign" unicode="#" 
d="M101 -22l66 329h-105v103h125l46 226h-171v101h191l67 334h103l-68 -334h228l66 334h103l-68 -334h108v-101h-128l-47 -226h175v-103h-194l-66 -329h-103l66 329h-225l-70 -329h-99zM290 410h228l44 226h-226z" />
    <glyph glyph-name="dollar" unicode="$" 
d="M495 651q146 -145 173 -188q48 -76 48 -167q0 -146 -105.5 -232.5t-260.5 -86.5q-17 0 -50 1l-28 -98h-60l31 107q-51 10 -82 20.5t-99 46.5l71 250h29q6 -116 29.5 -163.5t73.5 -78.5l118 407q-108 103 -147.5 175.5t-39.5 147.5q0 73 39 140t113.5 104.5t157.5 37.5
q17 0 52 -3l12 45h60l-16 -54q106 -23 178 -69l-73 -227h-30q9 51 9 83q0 54 -30 98q-21 32 -71 57zM541 1018q-75 3 -122 -42q-48 -45 -48 -115q0 -84 77 -164zM319 45q24 -3 40 -3q67 0 119 54.5t52 131.5q0 52 -22 96.5t-79 101.5z" />
    <glyph glyph-name="percent" unicode="%" horiz-adv-x="1320" 
d="M1235 1074l-965 -1116h-93l961 1116h97zM350 502q-79 0 -129 54t-50 152q0 152 102 266q83 93 197 93q85 0 136 -52.5t51 -146.5q0 -155 -95 -260.5t-212 -105.5zM355 543q26 0 42 14q23 18 40 59q7 21 60 206q29 105 29 146q0 26 -14.5 42t-35.5 16q-25 0 -39 -11
q-25 -19 -44 -63q-13 -32 -62 -212q-27 -96 -27 -140q0 -26 14.5 -41.5t36.5 -15.5zM926 -45q-76 0 -126.5 55t-50.5 153q0 148 94.5 253.5t205.5 105.5q82 0 135 -54.5t53 -144.5q0 -150 -98 -259t-213 -109zM931 0q24 0 40 13q25 21 43 65q12 26 64 203q28 97 28 139
q0 27 -17 44.5t-39 17.5q-28 0 -50.5 -27t-58.5 -143q-57 -191 -57 -256q0 -26 13.5 -41t33.5 -15z" />
    <glyph glyph-name="ampersand" unicode="&#x26;" horiz-adv-x="1233" 
d="M459 579q-5 42 -8.5 75.5t-3.5 58.5q0 155 96 258t227 103q84 0 134.5 -47.5t50.5 -113.5q0 -82 -49 -142q-74 -90 -236 -159q52 -166 71.5 -215t51.5 -106q44 48 63.5 94.5t19.5 76.5q0 25 -14.5 43t-48.5 27l10 28h297l-11 -28q-43 -10 -71 -34t-106 -128
q-55 -74 -109 -131q62 -86 113 -118q32 -22 75 -22q23 0 41 7.5t43 30.5h25q-37 -80 -98 -120.5t-138 -40.5q-66 0 -118 26t-109 87q-80 -55 -161.5 -84t-162.5 -29q-120 0 -190 67t-70 156q0 71 30 127t114.5 119.5t241.5 133.5zM657 670q63 46 93 94q41 66 41 140
q0 56 -23 86q-19 22 -48 22q-34 0 -55 -27q-28 -43 -28 -129q0 -41 4.5 -86.5t15.5 -99.5zM470 521q-88 -49 -126.5 -101.5t-38.5 -124.5q0 -89 55 -149.5t124 -60.5q29 0 65 13t77 39q-47 71 -91 179t-65 205z" />
    <glyph glyph-name="quotesingle" unicode="'" horiz-adv-x="440" 
d="M284 558h-37l4 297q1 110 48.5 164.5t114.5 54.5q37 0 60.5 -23t23.5 -57q0 -43 -52 -138z" />
    <glyph glyph-name="parenleft" unicode="(" horiz-adv-x="528" 
d="M688 1074l-13 -43q-111 -79 -184 -184q-111 -160 -181 -391.5t-70 -433.5q0 -130 61 -279l-14 -45q-207 279 -207 556q0 159 69 315q83 183 243 325q123 108 296 180z" />
    <glyph glyph-name="parenright" unicode=")" horiz-adv-x="528" 
d="M-179 -302l15 42q88 64 149.5 140t126.5 210t106 288q53 199 53 372q0 129 -61 280l12 44q209 -279 209 -556q0 -159 -70 -316q-81 -182 -244 -323q-123 -109 -296 -181z" />
    <glyph glyph-name="asterisk" unicode="*" 
d="M484 768q-2 44 -9 68t-32 72.5t-25 75.5q0 35 25 62.5t55 27.5q34 0 58.5 -25.5t24.5 -65.5q0 -32 -24 -76.5t-31 -68.5t-11 -70q44 18 62.5 31t55.5 52q48 52 93 52q35 0 58 -22.5t23 -53.5q0 -34 -28.5 -59.5t-74.5 -25.5q-16 0 -54 2q-18 1 -40 1q-28 0 -87 -3
q34 -37 52 -51.5t64 -38t65 -49.5q14 -19 14 -49q0 -34 -22.5 -57t-54.5 -23t-59 28t-37 98q-7 45 -14 66t-31 62q-26 -41 -34 -64t-15 -64q-10 -70 -35.5 -96.5t-59.5 -26.5q-32 0 -54.5 21.5t-22.5 51.5q0 32 17 56t64 50t64.5 39.5t52.5 46.5l-83 3q-22 0 -41 -1
q-45 -3 -63 -3q-44 0 -72 25t-28 59q0 32 23.5 55t57.5 23q48 0 93.5 -46.5t58.5 -56.5q18 -13 61 -32z" />
    <glyph glyph-name="plus" unicode="+" horiz-adv-x="903" 
d="M62 576h373v371h101v-371h372v-102h-372v-369h-101v369h-373v102z" />
    <glyph glyph-name="comma" unicode="," horiz-adv-x="396" 
d="M-27 -255l-18 33q118 67 147 102q23 27 23 55q0 29 -40 65.5t-53 62.5q-10 20 -10 50q0 50 37.5 87t90.5 37q52 0 90.5 -41.5t38.5 -102.5q0 -97 -74 -190.5t-232 -157.5z" />
    <glyph glyph-name="hyphen" unicode="-" horiz-adv-x="528" 
d="M61 428h450l-49 -161h-452z" />
    <glyph glyph-name="period" unicode="." horiz-adv-x="396" 
d="M106 233q54 0 91 -37.5t37 -90.5q0 -52 -37.5 -89.5t-90.5 -37.5q-52 0 -89.5 37.5t-37.5 89.5q0 53 37.5 90.5t89.5 37.5z" />
    <glyph glyph-name="slash" unicode="/" horiz-adv-x="440" 
d="M657 1071l-675 -1095h-111l677 1095h109z" />
    <glyph glyph-name="zero" unicode="0" 
d="M562 1071q75 0 128 -43.5t76.5 -116.5t23.5 -144q0 -123 -32 -253.5t-89 -241t-127 -184.5q-44 -47 -107.5 -78.5t-128.5 -31.5q-62 0 -111.5 37.5t-78.5 108.5t-29 152q0 179 65 357q53 149 132 257t144.5 144.5t133.5 36.5zM566 1018q-23 0 -39.5 -8.5t-36.5 -35.5
t-50 -115q-54 -162 -121 -394q-51 -178 -61 -228q-15 -73 -15 -127q0 -38 20.5 -59.5t50.5 -21.5q32 0 52 16q41 36 69 118q63 195 159 535q43 150 43 237q0 39 -20.5 61t-50.5 22z" />
    <glyph glyph-name="one" unicode="1" 
d="M705 1071l-256 -881q-20 -69 -20 -87t14.5 -38t30.5 -25.5t100 -10.5l-9 -29h-528l8 29q80 1 111 13t50.5 38t44.5 110l152 523q34 120 35 126q5 21 5 39q0 34 -21 55t-60 21q-20 0 -77 -7l-6 29l394 95h32z" />
    <glyph glyph-name="two" unicode="2" 
d="M563 0h-557v29q218 201 367 370q125 139 157 213.5t32 149.5q0 70 -44 114t-111 44q-107 0 -184 -118l-29 13q41 115 105 174q88 82 209 82q111 0 184 -68.5t73 -159.5q0 -80 -35.5 -157.5t-146.5 -195.5q-85 -90 -346 -312h202q98 0 137 22t73 88h37z" />
    <glyph glyph-name="three" unicode="3" 
d="M202 570l10 34q107 15 174 45q88 39 128 91t40 112q0 51 -36 87t-91 36q-42 0 -78.5 -22t-79.5 -78l-31 15q66 97 131.5 139t145.5 42q102 0 165.5 -57.5t63.5 -138.5q0 -63 -30.5 -110.5t-91.5 -81.5q-44 -26 -138 -52q85 -38 121 -84q52 -69 52 -166q0 -183 -159 -302
q-132 -101 -306 -101q-93 0 -140 35q-33 24 -33 64q0 35 25 58.5t61 23.5q19 0 36 -8q29 -13 87.5 -52.5t98.5 -39.5q48 0 84 49q53 72 53 179q0 85 -34 148.5t-87.5 94.5t-140.5 40z" />
    <glyph glyph-name="four" unicode="4" 
d="M371 221h-343l37 130l629 720h102l-210 -720h121l-42 -130h-118l-71 -243h-176zM411 351l128 460l-398 -460h270z" />
    <glyph glyph-name="five" unicode="5" 
d="M403 1050h396l-52 -182h-368l-46 -94q111 -18 184 -59.5t118.5 -121t45.5 -172.5q0 -111 -60 -215.5t-167 -166t-226 -61.5q-87 0 -127 31.5t-40 73.5q0 34 24.5 58t56.5 24q28 0 50 -8q13 -7 79 -60q41 -35 86 -35q58 0 99 51q54 68 54 171q0 92 -45 171.5t-122 120.5
q-59 32 -155 34z" />
    <glyph glyph-name="six" unicode="6" 
d="M809 1080v-30q-118 -33 -209 -118q-113 -105 -194 -287q72 24 124 24q87 0 146 -66t59 -185q0 -155 -87 -283q-107 -157 -284 -157q-120 0 -194.5 83t-74.5 235q0 164 72.5 316t183.5 257t239 160q100 42 219 51zM380 586q-52 -138 -87 -282q-23 -97 -23 -162
q0 -58 25 -87t64 -29q29 0 53 22q40 36 75 142q52 170 52 281q0 58 -31 96q-25 30 -59 30q-27 0 -69 -11z" />
    <glyph glyph-name="seven" unicode="7" 
d="M328 1050h550v-36l-616 -1036l-62 35l505 850h-253q-101 0 -148.5 -20.5t-87.5 -71.5h-29z" />
    <glyph glyph-name="eight" unicode="8" 
d="M326 548q-49 65 -73.5 127t-24.5 119q0 118 79.5 197.5t210.5 79.5q120 0 190 -66.5t70 -159.5q0 -61 -29.5 -111.5t-84.5 -89.5q-35 -25 -109 -51q90 -118 111.5 -167t21.5 -110q0 -141 -97 -239.5t-246 -98.5q-133 0 -209.5 71.5t-76.5 180.5q0 74 33.5 135.5
t99.5 112.5q48 36 134 70zM522 629q41 29 55 61q29 74 29 197q0 75 -23.5 106.5t-55.5 31.5q-40 0 -63 -31q-37 -52 -37 -143q0 -56 19.5 -104.5t75.5 -117.5zM354 513q-40 -34 -56 -60q-25 -40 -46 -117.5t-21 -165.5q0 -73 28 -107t74 -34q55 0 96 51q57 70 57 169
q0 65 -26.5 121t-105.5 143z" />
    <glyph glyph-name="nine" unicode="9" 
d="M67 -22v32q119 31 220.5 126.5t183.5 275.5q-72 -25 -124 -25q-87 0 -146.5 66t-59.5 186q0 155 88 284q107 156 283 156q121 0 195 -83t74 -235q0 -164 -72 -316.5t-184 -257t-238 -158.5q-100 -42 -220 -51zM496 471q53 139 88 282q22 98 22 162q0 58 -25 87t-63 29
q-30 0 -54 -21q-40 -36 -74 -143q-53 -169 -53 -281q0 -57 32 -96q24 -30 59 -30q27 0 68 11z" />
    <glyph glyph-name="colon" unicode=":" horiz-adv-x="528" 
d="M332 716q52 0 89.5 -37.5t37.5 -90.5q0 -52 -37.5 -89t-90.5 -37t-90 37t-37 89q0 53 37 90.5t91 37.5zM190 233q54 0 91 -37.5t37 -90.5q0 -52 -37.5 -89.5t-90.5 -37.5t-90 37.5t-37 89.5q0 53 37 90.5t90 37.5z" />
    <glyph glyph-name="semicolon" unicode=";" horiz-adv-x="528" 
d="M334 716q53 0 90.5 -37.5t37.5 -91.5q0 -52 -37.5 -90t-90.5 -38t-91 38t-38 90q0 54 37.5 91.5t91.5 37.5zM18 -255l-17 33q118 67 147 102q22 27 22 55q0 29 -40 65.5t-52 62.5q-11 20 -11 50q0 50 37.5 87t91.5 37q52 0 90 -41.5t38 -102.5q0 -97 -73.5 -190.5
t-232.5 -157.5z" />
    <glyph glyph-name="less" unicode="&#x3c;" horiz-adv-x="903" 
d="M907 143l-845 345v63l845 349v-107l-654 -273l654 -268v-109z" />
    <glyph glyph-name="equal" unicode="=" horiz-adv-x="903" 
d="M62 700h847v-101h-847v101zM62 446h847v-100h-847v100z" />
    <glyph glyph-name="greater" unicode="&#x3e;" horiz-adv-x="903" 
d="M62 900l845 -344v-64l-845 -349v108l654 272l-654 269v108z" />
    <glyph glyph-name="question" unicode="?" 
d="M298 296h-32q0 83 26.5 141.5t141.5 193.5q80 96 112 170q21 49 21 104q0 65 -31 100.5t-77 35.5q-34 0 -53.5 -17t-19.5 -38q0 -16 13 -39q28 -49 28 -85q0 -39 -31 -69t-74 -30q-45 0 -76.5 33t-31.5 88q0 91 78 140.5t180 49.5q86 0 151 -28t98.5 -79t33.5 -105
q0 -79 -40 -141q-54 -84 -191 -169.5t-175.5 -132.5t-50.5 -123zM267 231q52 0 89 -37t37 -89q0 -53 -37 -90t-89 -37q-53 0 -90 37t-37 90q0 52 36.5 89t90.5 37z" />
    <glyph glyph-name="at" unicode="@" horiz-adv-x="1319" 
d="M836 716l188 8l-141 -487q-24 -80 -24 -120q0 -25 18 -43t44 -18q53 0 138 61.5t140.5 175.5t55.5 244q0 213 -137.5 350.5t-357.5 137.5q-191 0 -346.5 -89.5t-247 -259.5t-91.5 -365q0 -269 170.5 -439.5t435.5 -170.5q217 0 389.5 117t244.5 310h47
q-93 -228 -270.5 -349t-412.5 -121q-298 0 -491.5 192t-193.5 487q0 203 96 376.5t269.5 267t383.5 93.5q171 0 299 -68.5t192.5 -193t64.5 -261.5q0 -160 -69 -292.5t-172.5 -195.5t-222.5 -63q-77 0 -117.5 38t-40.5 98q0 41 19 108q-64 -107 -100 -147q-49 -56 -97 -81
q-31 -16 -70 -16q-55 0 -92.5 43.5t-37.5 128.5q0 87 25 170t68.5 156t100.5 131t128 96q36 20 78 20q43 0 71.5 -27t38.5 -94zM718 689q-30 0 -57 -32q-40 -44 -83 -147q-80 -185 -80 -298q0 -33 14.5 -52t31.5 -19q15 0 43 22q39 30 84 102t73.5 160t28.5 162q0 54 -20 82
q-15 20 -35 20z" />
    <glyph glyph-name="A" unicode="A" horiz-adv-x="1058" 
d="M642 338h-325l-65 -80l-74 -90q-21 -28 -32 -51q-8 -18 -8 -35q0 -20 20 -35.5t66 -17.5v-29h-313l7 29q42 7 74 29q44 31 125 128l744 888h34l-34 -860q-2 -67 -2 -81q0 -52 21 -76t71 -28l-9 -29h-454l9 29q67 6 77 10q22 11 40 45.5t22 120.5zM642 402l20 342
l-291 -342h271z" />
    <glyph glyph-name="B" unicode="B" horiz-adv-x="1058" 
d="M245 1050h416q138 0 198 -15q78 -19 120.5 -72.5t42.5 -122.5q0 -55 -33.5 -113t-101.5 -96t-208 -69q145 -41 201.5 -105.5t56.5 -148.5q0 -80 -55.5 -158t-148 -114t-337.5 -36h-436l10 29q64 0 91 11.5t43.5 36t39.5 101.5l188 646q28 98 28 131q0 28 -23 45.5
t-100 20.5zM483 586q105 1 166 33t98 104.5t37 136.5q0 60 -38 98t-102 36l-43 -1zM464 528l-133 -466q38 -2 57 -2q174 0 241 96t67 206q0 52 -26 93t-67 57t-139 16z" />
    <glyph glyph-name="C" unicode="C" horiz-adv-x="1058" 
d="M1142 1074l-77 -334h-30q-5 136 -66.5 203.5t-160.5 67.5q-107 0 -213.5 -91.5t-180.5 -280.5q-59 -152 -59 -301q0 -133 66 -203t179 -70q92 0 167.5 40t153.5 132h38q-97 -145 -195 -203t-239 -58q-189 0 -305 115t-116 300q0 173 91.5 330.5t265 255t344.5 97.5
q65 0 161 -28q50 -14 70 -14q38 0 77 42h29z" />
    <glyph glyph-name="D" unicode="D" horiz-adv-x="1145" 
d="M-58 0l10 29q76 0 115 31t65 117l190 662q18 65 18 107q0 36 -21.5 52.5t-109.5 22.5l8 29h360q284 0 409.5 -115.5t125.5 -322.5q0 -146 -58 -245q-114 -194 -270 -280.5t-401 -86.5h-441zM598 987l-231 -795q-16 -55 -16 -79q0 -22 18 -35q23 -17 69 -17q109 0 195 68
q110 87 168 235t58 293q0 105 -33.5 183.5t-103.5 119.5q-49 27 -124 27z" />
    <glyph glyph-name="E" unicode="E" horiz-adv-x="1058" 
d="M599 991l-116 -406h35q141 0 205 37t110 131h29l-118 -409h-28q8 42 8 67q0 43 -25.5 70t-65.5 38q-26 8 -109 8h-61l-100 -352q-13 -46 -13 -69q0 -18 17 -28q24 -16 94 -16q132 0 249 56t209 169h32l-109 -287h-898l10 29q79 0 115 29.5t66 130.5l197 676q16 57 16 90
q0 29 -20.5 44.5t-94.5 21.5l7 29h838l-67 -263h-28q-4 77 -24 109q-33 50 -87 72.5t-175 22.5h-98z" />
    <glyph glyph-name="F" unicode="F" horiz-adv-x="1058" 
d="M649 990l-116 -396q118 2 154 10q57 11 104.5 48.5t79.5 104.5h30l-120 -414h-31q8 40 8 64q0 48 -20 76.5t-50.5 39.5t-170.5 14l-94 -328l-19 -66q-4 -19 -4 -38q0 -27 10.5 -42.5t33.5 -24t89 -9.5l-9 -29h-524l9 29q76 0 110.5 28.5t62.5 123.5l187 642
q30 101 31 130q-1 27 -24.5 46t-95.5 22l7 29h858l-70 -278h-29q-4 88 -26.5 129.5t-74 65t-164.5 23.5h-132z" />
    <glyph glyph-name="G" unicode="G" horiz-adv-x="1145" 
d="M1185 1074l-73 -337h-30q-6 147 -66 211.5t-169 64.5q-110 0 -222 -78.5t-190.5 -242t-78.5 -344.5q0 -155 69.5 -236.5t163.5 -81.5q40 0 96 23l80 277q21 69 21 91q0 29 -24.5 48.5t-84.5 19.5l8 29h452l-6 -29q-41 -2 -63.5 -14.5t-35.5 -37.5q-8 -15 -24 -76
l-96 -324q-162 -61 -342 -61q-138 0 -235.5 50.5t-161 159.5t-63.5 249q0 297 264 489q207 150 469 150q45 0 84 -5q29 -4 101 -22q46 -11 63 -11q34 0 65 38h29z" />
    <glyph glyph-name="H" unicode="H" horiz-adv-x="1233" 
d="M471 566h385l84 294q18 60 18 92q0 31 -21.5 47t-100.5 22l8 29h522l-8 -29q-77 0 -116.5 -32.5t-67.5 -128.5l-195 -672q-19 -66 -19 -95q0 -28 21 -43q27 -20 98 -21l-8 -29h-511l11 29q74 0 109.5 29t64.5 130l91 313h-382l-91 -313q-19 -64 -19 -95q0 -28 23.5 -45.5
t94.5 -18.5l-8 -29h-505l9 29q74 0 108.5 29t63.5 130l195 672q17 58 17 91q0 32 -20.5 48t-97.5 22l9 29h512l-11 -29q-72 0 -108.5 -30.5t-65.5 -130.5z" />
    <glyph glyph-name="I" unicode="I" horiz-adv-x="617" 
d="M219 1021l9 29h512l-10 -29q-69 0 -106 -31t-65 -129l-192 -673q-21 -71 -21 -95q0 -28 21 -43q28 -20 106 -21l-8 -29h-521l9 29q78 0 114.5 29.5t65.5 129.5l194 673q17 62 17 94q0 28 -21.5 44t-103.5 22z" />
    <glyph glyph-name="J" unicode="J" 
d="M423 1021l9 29h515l-9 -29q-71 0 -110 -32t-65 -124l-112 -393q-62 -212 -107.5 -297.5t-130.5 -142t-216 -56.5q-106 0 -157.5 44.5t-51.5 112.5q0 56 35 93.5t80 37.5q40 0 67.5 -25.5t27.5 -61.5q0 -35 -34 -74q-19 -25 -19 -40q0 -12 11 -21q18 -13 42 -13
q45 0 83.5 58.5t112.5 308.5l138 469q18 62 18 90t-22 44t-105 22z" />
    <glyph glyph-name="K" unicode="K" horiz-adv-x="1058" 
d="M972 0h-454l8 29q45 4 66.5 26t21.5 55q0 34 -24 110l-112 356l-110 -382q-18 -64 -18 -93q0 -32 25.5 -51.5t91.5 -20.5l-8 -29h-510l9 29q60 1 90.5 16t48 45.5t42.5 118.5l176 610q31 106 31 135q0 26 -24.5 45t-92.5 22l8 29h495l-9 -29q-50 0 -76 -14
q-35 -20 -57 -60q-14 -25 -40 -118l-71 -251l273 251q80 74 89 88q13 20 13 42q0 23 -17 39.5t-57 22.5l7 29h397l-9 -29q-46 -4 -74 -13q-39 -13 -87.5 -42.5t-98.5 -70.5l-72 -66l-166 -149l123 -388q61 -191 94 -225.5t87 -37.5z" />
    <glyph glyph-name="L" unicode="L" horiz-adv-x="968" 
d="M787 0h-838l9 29q75 0 109 29t64 130l195 674q16 56 16 88q0 31 -23 49.5t-91 21.5l9 29h503l-8 -29q-73 -2 -109 -32.5t-64 -126.5l-178 -617q-34 -117 -34 -143q0 -15 17.5 -28.5t55.5 -13.5q129 0 248 58.5t203 175.5h32z" />
    <glyph glyph-name="M" unicode="M" horiz-adv-x="1410" 
d="M600 1050l77 -722l500 722h367l-9 -29q-76 0 -115.5 -32.5t-67.5 -128.5l-193 -672q-19 -63 -19 -95q0 -28 23.5 -45.5t91.5 -18.5l-7 -29h-524l9 29q84 0 124.5 32t68.5 127l197 680l-601 -868h-32l-94 886l-200 -698q-12 -43 -12 -71q0 -39 26.5 -62.5t90.5 -25.5
l-8 -29h-347l8 29q62 2 96 26q59 43 85 133l227 775q-33 36 -59 47t-87 11l9 29h375z" />
    <glyph glyph-name="N" unicode="N" horiz-adv-x="1145" 
d="M565 1050l328 -700l148 508q12 41 12 74q0 38 -24.5 61.5t-84.5 27.5l9 29h333l-8 -29q-64 -4 -105 -35.5t-70 -127.5l-256 -870h-30l-421 896l-204 -698q-9 -37 -9 -65q0 -42 27 -67t88 -25l-7 -29h-342l7 29q44 0 62 8q33 12 64 47t51 102l222 762q-42 46 -69.5 59
t-83.5 14l9 29h354z" />
    <glyph glyph-name="O" unicode="O" horiz-adv-x="1145" 
d="M446 -25q-127 0 -205.5 52t-117 142t-38.5 174q0 172 98 346.5t264.5 279.5t329.5 105q95 0 180.5 -47.5t133 -133.5t47.5 -174q0 -196 -124.5 -393t-279.5 -285q-118 -66 -288 -66zM752 1011q-62 0 -104.5 -22.5t-89 -74t-95 -148t-90 -262t-41.5 -276.5
q0 -94 40.5 -142.5t105.5 -48.5q84 0 144 56q118 113 193 330t75 387q0 105 -39.5 153t-98.5 48z" />
    <glyph glyph-name="P" unicode="P" horiz-adv-x="968" 
d="M450 483l-86 -294q-17 -61 -17 -87q0 -36 23 -54t105 -19l-10 -29h-512l9 29q64 1 91.5 13t44.5 39q14 17 39 108l195 667q20 67 20 95q0 29 -25.5 48.5t-92.5 21.5l8 29h416q171 0 246 -43q116 -69 116 -205q0 -132 -116 -232t-311 -100q-59 0 -143 13zM465 542
q50 -6 84 -6q107 0 168 97.5t61 203.5q0 72 -39.5 111.5t-109.5 39.5q-15 0 -36 -1z" />
    <glyph glyph-name="Q" unicode="Q" horiz-adv-x="1145" 
d="M474 -24l-137 -124q77 15 125 15q68 0 190.5 -32t192.5 -32q78 0 143 28q42 16 85 57l23 -21q-78 -95 -184 -146t-267 -51q-91 0 -212 26t-192 26q-56 0 -120 -17l-15 19l285 252q-100 17 -154 54q-73 50 -112.5 136t-39.5 177q0 172 98.5 346.5t264 279.5t329.5 105
q94 0 180 -47.5t133 -133.5t47 -180q0 -138 -67 -283.5t-182 -254.5t-231 -157q-79 -33 -183 -42zM752 1011q-62 0 -104.5 -22.5t-89 -74t-95 -148t-90 -262t-41.5 -276.5q0 -94 40.5 -142.5t105.5 -48.5q84 0 144 56q118 113 193 330t75 387q0 105 -39.5 153t-98.5 48z" />
    <glyph glyph-name="R" unicode="R" horiz-adv-x="1058" 
d="M455 512l-93 -318q-20 -67 -20 -99q0 -30 24 -47.5t100 -18.5l-11 -29h-505l9 29q76 0 111 29t65 131l195 674q16 56 16 89q0 31 -20 47t-93 22l7 29h435q187 0 262.5 -65.5t75.5 -167.5q0 -107 -88 -194q-56 -54 -197 -93l94 -318q38 -128 66 -154.5t95 -28.5v-29h-327
l-149 512l-25 -1q-9 0 -27 1zM466 559q27 -1 46 -1q113 0 185.5 77t72.5 202q0 75 -39 113.5t-102 38.5q-16 0 -36 -1z" />
    <glyph glyph-name="S" unicode="S" horiz-adv-x="882" 
d="M925 1074l-88 -357h-25q-8 84 -30 135q-33 72 -87 111.5t-116 39.5q-61 0 -106 -46t-45 -104q0 -57 31 -112.5t149 -166.5q93 -89 125 -153.5t32 -139.5q0 -85 -44.5 -156t-130 -110t-194.5 -39q-66 0 -167 19.5t-135 19.5q-26 0 -47 -8t-52 -31h-30l94 400h29
q10 -105 42.5 -179t93 -115.5t138.5 -41.5q76 0 127.5 50.5t51.5 119.5q0 58 -29 111.5t-132.5 155.5t-142.5 183q-28 59 -28 127q0 116 91.5 201.5t240.5 85.5q68 0 177 -31q65 -17 91 -17q23 0 40.5 9.5t41.5 38.5h34z" />
    <glyph glyph-name="T" unicode="T" horiz-adv-x="968" 
d="M254 1050h844l-80 -283h-28q2 22 2 40q0 80 -47 124.5t-159 51.5l-234 -791q-19 -66 -19 -98q0 -29 24 -46.5t97 -18.5l-7 -29h-521l10 29q79 0 115 29.5t67 133.5l234 791q-121 -4 -202.5 -53t-148.5 -163h-30z" />
    <glyph glyph-name="U" unicode="U" horiz-adv-x="1145" 
d="M927 1050h355l-7 -29q-62 -5 -94 -30q-54 -39 -80 -129l-139 -482q-66 -225 -177.5 -314.5t-282.5 -89.5q-98 0 -172 28t-109 62.5t-53.5 86.5t-18.5 86q0 55 31 163l132 460q19 61 19 92q0 29 -22 45t-103 22l8 29h523l-8 -29q-76 0 -116 -32.5t-67 -126.5l-134 -460
q-33 -115 -33 -186q0 -63 51 -110t142 -47q84 0 142 30.5t98 85.5q50 73 91 211l136 476q12 41 12 68q0 48 -34 73q-24 18 -99 18z" />
    <glyph glyph-name="V" unicode="V" horiz-adv-x="1058" 
d="M248 -24l34 878q2 77 2 81q0 42 -20.5 62t-75.5 24l9 29h441l-8 -29q-56 0 -85.5 -34t-33.5 -141l-24 -547l408 475q80 92 98.5 127.5t18.5 61.5q0 20 -16.5 35t-64.5 23l10 29h290v-29q-38 -9 -61 -27q-33 -26 -105 -108l-783 -910h-34z" />
    <glyph glyph-name="W" unicode="W" horiz-adv-x="1410" 
d="M207 -24l71 898q3 39 3 64q0 42 -19 61t-67 22l12 29h424l-9 -29h-21q-41 0 -67 -27.5t-32 -102.5l-40 -532l316 432l8 100q2 31 2 49q0 39 -20 58.5t-67 22.5l8 29h427l-9 -29q-57 0 -84 -27.5t-32 -102.5l-41 -532l305 419q78 108 96 146q14 27 14 45t-17.5 32
t-67.5 20l8 29h280l-6 -29q-39 -7 -64 -27q-34 -27 -90 -103l-666 -915h-46l53 709l-516 -709h-46z" />
    <glyph glyph-name="X" unicode="X" horiz-adv-x="1058" 
d="M477 486l-164 380q-43 100 -70 124.5t-83 30.5v29h463l-9 -29q-49 -4 -65.5 -19t-16.5 -41q0 -30 27 -95l93 -220l129 118q108 99 138 148q18 28 18 51q0 22 -19 38.5t-60 19.5l9 29h343l-7 -29q-39 -7 -71 -28q-52 -33 -173 -145l-283 -259l159 -369q54 -127 81.5 -154
t81.5 -37l-8 -29h-464l9 29q49 1 71.5 19.5t22.5 46.5q0 38 -43 138l-86 197l-193 -181q-93 -85 -107.5 -111t-14.5 -49q0 -24 21.5 -41.5t70.5 -18.5l-9 -29h-364l8 29q41 8 70 25q72 43 178 141z" />
    <glyph glyph-name="Y" unicode="Y" horiz-adv-x="968" 
d="M419 463l-87 383q-23 99 -55 136q-24 28 -88 39l9 29h504l-10 -29q-73 0 -106.5 -29.5t-33.5 -71.5q0 -25 13 -88l69 -311l170 234q64 89 80.5 126t16.5 65t-20.5 48.5t-68.5 26.5l9 29h316v-29q-44 -5 -74.5 -28t-120.5 -147l-298 -410l-70 -244q-22 -75 -22 -87
q0 -33 25.5 -54.5t85.5 -21.5h29l-7 -29h-538l8 29q58 -1 94 16t54 42q12 19 36 100z" />
    <glyph glyph-name="Z" unicode="Z" horiz-adv-x="968" 
d="M1076 1021l-803 -963h63q188 0 302 55t210 183h33l-110 -296h-814v29l802 960h-98q-190 0 -281.5 -47t-155.5 -158h-32l91 266h793v-29z" />
    <glyph glyph-name="bracketleft" unicode="[" horiz-adv-x="528" 
d="M-45 -291l389 1341h336l-9 -29h-26q-56 0 -83 -12t-46 -38.5t-40 -97.5l-288 -983q-24 -83 -24 -110q0 -11 7 -19q9 -11 25 -18q13 -5 53 -5h47l-9 -29h-332z" />
    <glyph glyph-name="backslash" unicode="\" horiz-adv-x="440" 
d="M216 1071l106 -1095h-94l-104 1095h92z" />
    <glyph glyph-name="bracketright" unicode="]" horiz-adv-x="528" 
d="M550 1050l-390 -1341h-336l9 29h26q55 0 82.5 12.5t46.5 38t40 97.5l287 982q24 83 24 111q0 10 -6 19q-9 12 -25 17q-13 6 -53 6h-47l8 29h334z" />
    <glyph glyph-name="asciicircum" unicode="^" horiz-adv-x="903" 
d="M161 515l318 556h63l314 -556h-123l-229 397l-224 -397h-119z" />
    <glyph glyph-name="underscore" unicode="_" 
d="M-139 -240h822v-102h-822v102z" />
    <glyph glyph-name="grave" unicode="`" horiz-adv-x="528" 
d="M188 1074h228l83 -269h-61z" />
    <glyph glyph-name="a" unicode="a" 
d="M760 707l-150 -515l-17 -63q-2 -12 -2 -17q0 -9 7 -16t14 -7q16 0 45 24q11 11 55 72l27 -14q-54 -101 -116.5 -147t-135.5 -46q-44 0 -67 23t-23 58q0 30 25 112l18 63q-89 -154 -172 -219q-48 -37 -103 -37q-71 0 -102.5 58.5t-31.5 131.5q0 110 66.5 251.5
t174.5 226.5q90 71 167 71q44 0 70.5 -25t38.5 -91l28 95zM512 560q0 62 -20 90q-14 19 -37 19q-24 0 -50 -23q-52 -48 -112 -194.5t-60 -253.5q0 -41 13.5 -59t29.5 -18q36 0 71 40q51 57 91 140q74 145 74 259z" />
    <glyph glyph-name="b" unicode="b" 
d="M501 1074l-134 -467q61 66 102 88t89 22q93 0 139 -66.5t46 -154.5q0 -209 -152 -373q-134 -145 -306 -145q-128 0 -271 76l238 821q16 58 16 80q0 18 -15 29q-21 15 -66 13l9 31l259 46h46zM204 45q36 -23 65 -23q42 0 69 16q45 27 93 96t80.5 166.5t32.5 193.5
q0 56 -25 84.5t-57 28.5q-54 0 -95 -53q-27 -34 -58 -144z" />
    <glyph glyph-name="c" unicode="c" horiz-adv-x="704" 
d="M595 187l23 -22q-75 -89 -148 -131q-96 -56 -200 -56q-70 0 -123.5 29.5t-79.5 83.5t-26 111q0 127 69.5 249.5t182.5 194t221 71.5q88 0 132 -38.5t44 -95.5q0 -52 -33 -88t-74 -36q-36 0 -59.5 23t-23.5 55q0 41 42 73q28 21 28 37q0 14 -11 22q-16 13 -41 13
q-64 0 -122 -53q-76 -69 -116 -176t-40 -203q0 -76 41 -121t98 -45q49 0 106.5 25.5t109.5 77.5z" />
    <glyph glyph-name="d" unicode="d" 
d="M864 1074l-251 -866q-24 -82 -24 -98q0 -9 6 -15.5t14 -6.5q12 0 29 13q29 22 71 83l28 -16q-110 -190 -241 -190q-46 0 -71.5 24.5t-25.5 62.5q0 36 20 103l23 80q-96 -171 -167 -228q-55 -42 -106 -42q-57 0 -97 47.5t-40 137.5q0 116 51 228t118 187t127.5 107
t119.5 32q30 0 54 -12.5t54 -45.5l57 193q21 71 21 102q0 18 -14 31t-37 13q-11 0 -27 -2l7 30l255 48h46zM524 583q0 47 -18.5 68.5t-43.5 21.5t-53 -25q-55 -50 -115 -199.5t-60 -252.5q0 -36 13 -54t29 -18q28 0 55 25q65 59 129 202t64 232z" />
    <glyph glyph-name="e" unicode="e" horiz-adv-x="704" 
d="M248 290q-8 -50 -8 -82q0 -59 34 -93.5t90 -34.5q55 0 109.5 26.5t126.5 91.5l23 -21q-89 -108 -173.5 -153.5t-186.5 -45.5q-129 0 -178.5 62t-49.5 144q0 127 74 253.5t201 203t255 76.5q66 0 99 -30.5t33 -77.5q0 -57 -33 -111q-44 -72 -112 -116.5t-153 -68.5
q-56 -15 -151 -23zM255 331q68 9 105.5 26.5t73.5 56t62 97t26 109.5q0 21 -12 33.5t-30 12.5q-38 0 -84 -52q-84 -94 -141 -283z" />
    <glyph glyph-name="f" unicode="f" horiz-adv-x="528" 
d="M414 606l-90 -358q-63 -254 -123.5 -367.5t-141.5 -168t-185 -54.5q-66 0 -97 25.5t-31 58.5q0 32 25.5 55t67.5 23q35 0 53.5 -17.5t18.5 -44.5q0 -25 -11.5 -37t-11.5 -16l3 -5q5 -4 12 -4q23 0 39 15q41 36 61 88q14 36 54 188l157 619h-107l26 90q57 -1 83.5 14.5
t55.5 69.5q86 157 180 225.5t210 68.5q75 0 108.5 -29t33.5 -75q0 -39 -22 -62.5t-56 -23.5q-31 0 -51 19t-20 46q0 19 13 41t13 29q0 9 -6 14t-15 5q-47 0 -95 -55q-78 -92 -127 -287h113l-27 -90h-110z" />
    <glyph glyph-name="g" unicode="g" 
d="M613 670h206l-25 -84h-107q25 -47 25 -88q0 -70 -38 -129.5t-112.5 -95.5t-166.5 -36q-24 0 -53.5 3.5t-62.5 10.5q-51 -27 -65 -42q-9 -11 -9 -22q0 -14 11 -25q21 -17 60 -25q159 -35 209 -55q69 -29 104 -74t35 -109q0 -96 -89 -168.5t-275 -72.5q-189 0 -278 62
q-64 44 -64 107q0 47 42 87.5t181 71.5q-48 26 -63 48q-23 28 -23 60q0 52 41 91.5t140 78.5q-76 30 -110 77.5t-34 111.5q0 67 40.5 127.5t120 98.5t182.5 38q66 0 117 -14q26 -8 61 -33zM451 680q-38 0 -64 -25q-42 -38 -73 -127.5t-31 -167.5q0 -39 22 -61t55 -22
q31 0 54 22q45 42 77 135.5t32 169.5q0 33 -20.5 54.5t-51.5 21.5zM185 -33q-74 -29 -100.5 -62t-26.5 -71q0 -50 52.5 -91t169.5 -41q96 0 139 35t43 82q0 43 -39.5 69t-152.5 54q-53 15 -85 25z" />
    <glyph glyph-name="h" unicode="h" horiz-adv-x="882" 
d="M521 1074l-202 -698q105 154 152 209q71 77 121.5 104.5t96.5 27.5q40 0 68.5 -29.5t28.5 -78.5q0 -43 -19 -105l-98 -330q-13 -43 -13 -58q0 -6 5 -12.5t12 -6.5q10 0 19 8q24 20 52 62q8 11 23 33l30 -17q-66 -110 -125.5 -151.5t-113.5 -41.5q-48 0 -75 25t-27 63
q0 34 18 96l96 330q10 33 10 50q0 8 -7 14.5t-15 6.5q-28 0 -76 -46q-101 -95 -202 -299l-68 -230h-193l254 875q15 56 15 80q0 19 -15 30q-20 14 -61 12l4 31l258 46h47z" />
    <glyph glyph-name="i" unicode="i" horiz-adv-x="440" 
d="M356 1074q48 0 81 -33.5t33 -80.5q0 -48 -33.5 -81t-80.5 -33q-46 0 -79.5 33t-33.5 81q0 47 33 80.5t80 33.5zM404 717l-159 -550q-12 -47 -12 -62q0 -8 6.5 -15.5t14.5 -7.5q13 0 26 11q35 29 83 104l27 -15q-117 -204 -249 -204q-50 0 -79.5 28.5t-29.5 71.5
q0 29 13 73l108 370q15 53 15 80q0 17 -15 30.5t-40 13.5q-12 0 -27 -1l9 31l263 42h46z" />
    <glyph glyph-name="j" unicode="j" horiz-adv-x="440" 
d="M357 1074q48 0 81 -33.5t33 -81.5t-33.5 -82t-80.5 -34q-48 0 -82 34t-34 82t34 81.5t82 33.5zM422 717l-165 -608q-51 -187 -115 -296q-44 -75 -118 -115t-152 -40q-64 0 -96 25.5t-32 57.5q0 33 26 58t67 25q30 0 48 -16.5t18 -40.5q0 -22 -20 -44q-9 -10 -9 -14
q0 -5 5 -9.5t15 -4.5q34 0 59 39q17 26 60 192l158 596q17 64 17 80q0 15 -17 29.5t-45 14.5q-9 0 -20 -1l8 30l261 42h47z" />
    <glyph glyph-name="k" unicode="k" 
d="M516 1074l-213 -733l177 165l58 52q26 27 36 45q7 11 7 22q0 16 -15.5 26.5t-75.5 14.5l8 30h315l-7 -30q-56 -13 -91 -29q-27 -14 -66 -44q-60 -46 -85 -71l-34 -32l48 -213q27 -124 39 -143q9 -12 20 -12q27 0 65 64q6 8 14 24l29 -18q-58 -108 -131 -165
q-49 -38 -88 -38t-65 28t-53 148l-39 176l-85 -76l-77 -265h-197l256 874q17 56 17 75q0 17 -8 28.5t-21.5 17t-53.5 5.5l7 29l263 45h46z" />
    <glyph glyph-name="l" unicode="l" horiz-adv-x="440" 
d="M502 1074l-257 -872q-22 -77 -22 -97q0 -10 7 -16.5t14 -6.5q14 0 26 10q38 30 83 102l30 -13q-73 -119 -145 -169q-49 -34 -103 -34q-51 0 -81.5 28t-30.5 66q0 29 18 92l210 714q17 59 17 78q0 18 -16 30q-22 15 -66 12l8 30l261 46h47z" />
    <glyph glyph-name="m" unicode="m" horiz-adv-x="1233" 
d="M421 717l-99 -332q100 152 145 206q68 78 111.5 102t87.5 24q50 0 73 -30t23 -66q0 -38 -22 -111l-34 -125q101 154 145 205q68 79 118 107q35 20 74 20q42 0 69 -27.5t27 -71.5q0 -49 -23 -128l-86 -289q-19 -64 -19 -83q0 -6 5 -11.5t11 -5.5q9 0 15 6q28 22 59 66
q7 9 20 28l27 -16q-54 -100 -118 -147t-118 -47q-47 0 -75.5 26t-28.5 61q0 34 20 101l87 302q18 62 18 78q0 5 -5.5 10t-11.5 5q-9 0 -20 -5q-14 -7 -45 -39.5t-88 -116.5t-79 -131t-44 -122l-47 -160h-196l145 506q12 40 12 56q0 5 -5.5 10t-11.5 5q-27 0 -90 -75
q-94 -116 -171 -280l-64 -222h-197l146 498q22 73 22 104q0 12 -6.5 21.5t-20.5 14t-53 4.5l8 30l264 45h46z" />
    <glyph glyph-name="n" unicode="n" horiz-adv-x="882" 
d="M423 717l-95 -331q96 145 144 199q70 77 121.5 104.5t95.5 27.5q41 0 69.5 -29.5t28.5 -77.5q0 -44 -19 -105l-99 -331q-12 -43 -12 -57q0 -7 6 -13.5t12 -6.5q8 0 16 7q27 22 55 63q7 11 22 33l30 -18q-113 -192 -239 -192q-48 0 -75 25t-27 63q0 32 18 96l97 331
q10 32 10 48q0 9 -7 15t-16 6q-29 0 -72 -40q-106 -102 -206 -304l-64 -230h-197l144 497q22 73 22 104q0 13 -6.5 22.5t-20.5 14t-52 4.5l8 30l261 45h47z" />
    <glyph glyph-name="o" unicode="o" 
d="M521 717q61 0 114.5 -28t81 -78t27.5 -112q0 -125 -69.5 -250.5t-184.5 -198t-230 -72.5q-106 0 -164 63t-58 153q0 108 43.5 202t109.5 164t152 113.5t178 43.5zM489 677q-41 0 -68 -24q-54 -49 -122 -228.5t-68 -323.5q0 -36 21.5 -59t51.5 -23t53 18q34 28 83.5 125.5
t81.5 214.5t32 215q0 41 -20 63t-45 22z" />
    <glyph glyph-name="p" unicode="p" 
d="M96 674l256 43h47l-36 -126q82 74 134 100t103 26q73 0 112.5 -55.5t39.5 -137.5q0 -222 -155 -394q-135 -152 -297 -152q-28 0 -48 5.5t-57 24.5l-40 -140q-22 -76 -22 -115q0 -25 17 -39t80 -25l-7 -28h-416l7 28q49 2 82.5 32.5t62.5 129.5l188 651q21 73 21 104
q0 12 -6 21.5t-18.5 13t-56.5 3.5zM216 80q24 -39 42.5 -51.5t43.5 -12.5t48.5 13.5t58 54.5t67 105.5t51.5 146t19 155.5q0 60 -21 87.5t-51 27.5q-28 0 -51 -15q-36 -20 -83 -75z" />
    <glyph glyph-name="q" unicode="q" 
d="M766 696l-229 -783q-23 -80 -27 -101q-7 -34 -7 -57q0 -24 19 -40q26 -21 81 -26l-9 -28h-409l7 28q46 7 68.5 21.5t39 48t38.5 114.5l103 351q-86 -149 -161 -204q-57 -42 -114 -42q-56 0 -90 42q-46 56 -46 151q0 100 46 209.5t121.5 193.5t152.5 123q38 20 87 20
t78.5 -27.5t41.5 -91.5l29 98h180zM457 668q-28 0 -57 -26q-51 -45 -104 -180q-63 -166 -63 -261q0 -40 17 -63q12 -16 32 -16q27 0 54 25q65 58 127.5 193.5t62.5 220.5q0 52 -21.5 79.5t-47.5 27.5z" />
    <glyph glyph-name="r" unicode="r" horiz-adv-x="617" 
d="M375 717l-116 -434q144 318 216 391q43 43 90 43q32 0 52 -23.5t20 -66.5q0 -75 -36 -126q-23 -33 -51 -33q-32 0 -47.5 29t-21.5 34t-13 5t-16 -5q-17 -9 -44.5 -45t-67.5 -120.5t-62.5 -143t-63.5 -222.5h-187l128 513q13 57 13 76q0 21 -7 32.5t-19.5 17t-53.5 5.5
l7 22l234 51h46z" />
    <glyph glyph-name="s" unicode="s" horiz-adv-x="617" 
d="M589 717l-33 -239h-29q-6 93 -57 146.5t-108 53.5q-36 0 -59 -20.5t-23 -50.5q0 -25 10 -47t45 -58q122 -132 148.5 -181.5t26.5 -106.5q0 -61 -31.5 -115.5t-93 -87.5t-127.5 -33q-46 0 -111 18q-43 13 -65 13q-20 0 -30.5 -6t-23.5 -25h-29l38 259h25q27 -95 51 -135
t63 -63.5t76 -23.5q42 0 70 27t28 64q0 36 -18.5 70.5t-83.5 106.5q-91 98 -119 152q-20 38 -20 87q0 84 60.5 139.5t169.5 55.5q48 0 119 -16q34 -9 55 -9q30 0 49 25h27z" />
    <glyph glyph-name="t" unicode="t" horiz-adv-x="440" 
d="M455 907l-63 -211h102l-28 -89h-99l-130 -449q-12 -42 -12 -64q0 -9 7 -17t16 -8q13 0 27 12q36 27 83 94l27 -17q-53 -93 -117.5 -136.5t-126.5 -43.5q-53 0 -82 27t-29 68q0 44 20 115l123 419h-106l16 57q99 37 167 85.5t164 157.5h41z" />
    <glyph glyph-name="u" unicode="u" horiz-adv-x="882" 
d="M421 717l-150 -526q-11 -36 -11 -50q0 -7 5 -11q7 -6 15 -6q35 0 95 63q86 93 179 265l71 236l195 8l-148 -511q-19 -65 -19 -74q0 -6 5.5 -13t12.5 -7q11 0 21 10q28 22 73 90l27 -18q-107 -195 -237 -195q-48 0 -75.5 24.5t-27.5 63.5q0 43 19 107l39 131
q-101 -147 -147 -198q-70 -76 -117.5 -102t-90.5 -26q-42 0 -71.5 30t-29.5 78q0 39 19 105l88 310q22 76 22 102q0 11 -6.5 20.5t-21 14t-52.5 4.5l8 30l264 45h46z" />
    <glyph glyph-name="v" unicode="v" horiz-adv-x="704" 
d="M218 -22h-28q2 63 2 96q0 88 -13.5 255t-29.5 223q-13 41 -36 60q-14 12 -37 12q-14 0 -32 -3v28l258 68q77 -211 75 -540q113 108 156.5 175t43.5 112q0 36 -27 73t-33.5 52.5t-6.5 33.5q0 40 26 67t67 27q42 0 66 -27q32 -37 32 -89q0 -54 -19 -105.5t-65 -121.5
t-103 -127q-103 -106 -296 -269z" />
    <glyph glyph-name="w" unicode="w" horiz-adv-x="1058" 
d="M682 717l57 -543q117 115 152.5 182t35.5 112q0 18 -7.5 34.5t-31 47t-26.5 37.5q-5 15 -5 36q0 39 27 66.5t68 27.5t65 -28q34 -40 34 -92q0 -86 -82 -225t-375 -394h-31l-48 476l-334 -476h-33q12 215 12 403q0 122 -14 177q-8 31 -27.5 47t-42.5 16q-13 0 -32 -3v29
l267 70q21 -60 28 -113q14 -82 14 -192q0 -38 -3 -117l299 422h33z" />
    <glyph glyph-name="x" unicode="x" 
d="M72 671l270 46q73 -115 104 -254q76 113 115 158q51 60 85 78t71 18q44 0 66.5 -23t22.5 -62q0 -38 -22.5 -61.5t-57.5 -23.5q-25 0 -57 9t-44 9q-33 0 -63 -23q-40 -32 -99 -135q67 -233 106 -284q23 -30 47 -30q21 0 35 10q22 16 69 82l28 -17q-68 -110 -134 -155
q-49 -35 -97 -35q-50 0 -82.5 22t-58 72t-61.5 161q-90 -116 -141.5 -169t-85.5 -69.5t-73 -16.5q-40 0 -63.5 23.5t-23.5 60.5q0 39 25.5 65t64.5 26q21 0 47 -13q40 -19 56 -19q23 0 41 10q23 11 58 50q22 24 80 103q-74 275 -115 329q-27 35 -68 35q-20 0 -51 -7z" />
    <glyph glyph-name="y" unicode="y" horiz-adv-x="704" 
d="M40 648l239 69q29 -35 40 -67q20 -55 29 -152q16 -190 23 -406q83 109 190 289q32 54 32 102q0 30 -37.5 57t-47 42t-9.5 39q0 40 28.5 68t68.5 28q42 0 73.5 -32t31.5 -76q0 -52 -29 -121t-135 -235q-138 -213 -269 -368q-84 -99 -136 -143t-108 -70q-34 -14 -65 -14
q-45 0 -76.5 31t-31.5 74q0 42 28.5 71t66.5 29q47 0 87 -49q26 -33 43 -33t35 10q23 13 65 57q5 97 5 146q0 68 -7 188l-13 295q-7 81 -35 116q-21 27 -57 27q-12 0 -29 -3v31z" />
    <glyph glyph-name="z" unicode="z" horiz-adv-x="617" 
d="M629 696l-440 -519q50 -15 74 -44q31 -40 45 -117t32 -97t36 -20q12 0 23.5 11t11.5 25q0 15 -10 48q-6 23 -6 43q0 43 27.5 73t65.5 30q35 0 58.5 -26t23.5 -68q0 -65 -58.5 -117.5t-144.5 -52.5q-99 0 -194 92q-39 36 -63 49q-14 7 -36 7q-18 0 -40 -13h-50l449 533
h-161q-69 0 -100 -17.5t-58 -66.5h-32l63 247h484z" />
    <glyph glyph-name="braceleft" unicode="{" horiz-adv-x="552" 
d="M723 1074l-11 -36q-71 -12 -117.5 -45t-66.5 -79.5t-26 -152t-31 -160.5t-73 -101.5t-107 -76.5q-43 -21 -134 -44q94 -32 130 -67q59 -56 59 -137q0 -62 -62.5 -176.5t-62.5 -171.5q0 -43 24 -70.5t89 -40.5l-11 -36q-75 0 -115 12q-67 23 -104 71t-37 113
q0 64 66.5 183t66.5 182q0 45 -27.5 74t-85.5 39l14 47q66 11 114 45.5t72.5 88.5t30 163.5t28.5 160.5t81 104.5t129.5 80t166.5 30.5z" />
    <glyph glyph-name="bar" unicode="|" horiz-adv-x="349" 
d="M123 -342v1416h101v-1416h-101z" />
    <glyph glyph-name="braceright" unicode="}" horiz-adv-x="552" 
d="M-148 -320l11 35q71 13 117.5 45.5t66.5 79.5t26 152.5t31 160.5t73 101t107 77q44 21 134 44q-94 32 -131 67q-58 56 -58 136q0 61 62.5 176.5t62.5 172.5q0 43 -24 70.5t-89 40.5l11 36q76 0 115 -12q68 -24 104.5 -71.5t36.5 -112.5t-66.5 -183.5t-66.5 -182.5
q0 -44 27.5 -73t84.5 -39l-13 -47q-66 -11 -114 -45.5t-73 -89t-29.5 -163.5t-28 -160t-81.5 -104.5t-129.5 -80t-166.5 -30.5z" />
    <glyph glyph-name="asciitilde" unicode="~" horiz-adv-x="903" 
d="M829 549h44q-5 -123 -64 -186.5t-145 -63.5q-40 0 -86 13t-203 79q-113 47 -163 47q-53 0 -88.5 -32t-48.5 -106h-45q7 127 63.5 188.5t138.5 61.5q40 0 80 -12q78 -22 216 -80q74 -33 113 -44q23 -6 51 -6q55 0 92.5 36.5t44.5 104.5z" />
    <glyph glyph-name="uni00A0" unicode="&#xa0;" horiz-adv-x="396" 
 />
    <glyph glyph-name="exclamdown" unicode="&#xa1;" horiz-adv-x="617" 
d="M375 754q52 0 89 -36.5t37 -89.5q0 -52 -37 -89t-89 -37t-89.5 37t-37.5 89q0 53 37 89.5t90 36.5zM304 433h29q-38 -205 -56.5 -416.5t-57.5 -285t-102 -73.5q-34 0 -60 29.5t-26 72.5q0 33 13.5 74t80.5 183q113 237 179 416z" />
    <glyph glyph-name="cent" unicode="&#xa2;" 
d="M637 1021l-91 -304q90 -1 131 -30q56 -40 56 -106q0 -51 -34 -86.5t-74 -35.5q-36 0 -59.5 22.5t-23.5 53.5q0 43 44 76q27 20 27 37q0 13 -11 21q-15 12 -40 12q-11 0 -28 -2l-173 -579q47 -17 70 -17q31 0 93 25t113 79l24 -23q-64 -72 -116.5 -110.5t-101 -54.5
t-118.5 -18l-82 -276h-55l84 276q-72 15 -107.5 41t-57.5 76t-22 104q0 126 62 242t168 194q70 50 177 79l93 304h52zM474 656q-45 -30 -72 -64q-50 -62 -84.5 -155.5t-34.5 -188.5q0 -52 36 -114z" />
    <glyph glyph-name="sterling" unicode="&#xa3;" 
d="M481 587h165l-35 -113h-157q-46 -137 -91 -244q40 -15 131 -59t137 -44q39 0 73 49h29q-43 -105 -107 -151.5t-145 -46.5q-46 0 -88 15t-114 58q-22 -37 -50 -55t-61 -18q-46 0 -78.5 33.5t-32.5 84.5q0 68 47 112t140 45q2 66 12 221h-141l35 113h114q48 257 147 370.5
t250 113.5q83 0 127 -36.5t44 -85.5q0 -38 -27.5 -65.5t-64.5 -27.5q-36 0 -64 25q-22 20 -22 54q0 18 7 31q12 24 12 30q0 8 -11 16q-9 9 -27 9q-37 0 -59 -37q-14 -25 -43 -165q-39 -180 -52 -232zM218 92q-41 29 -65 29q-16 0 -29 -12.5t-13 -31.5q0 -22 13 -35t31 -13
t29.5 9.5t33.5 53.5z" />
    <glyph glyph-name="currency" unicode="&#xa4;" 
d="M634 795l106 104l70 -67l-109 -108q67 -95 67 -202q0 -104 -67 -205l100 -99l-71 -70l-101 100q-62 -39 -105.5 -52.5t-97.5 -13.5q-58 0 -103 15t-101 51l-103 -100l-68 70l102 99q-68 91 -68 202q0 55 16.5 109t51.5 96l-106 104l72 71l103 -104q96 69 202 69
q104 0 210 -69zM426 764q-101 0 -171.5 -71t-70.5 -171t71 -171t171 -71t171 71t71 171t-71 171t-171 71z" />
    <glyph glyph-name="yen" unicode="&#xa5;" 
d="M594 530h259l-17 -52h-276l-32 -47l-30 -110h305l-17 -52h-303l-21 -76q-20 -69 -20 -95q0 -16 13 -34t35 -26.5t79 -8.5l-7 -29h-500l9 29q84 0 120 28.5t62 121.5l27 90h-294l16 52h293l42 149l-1 8h-300l16 52h274l-65 344q-18 92 -42 122q-16 20 -57 25l9 29h398
l-7 -29q-62 -5 -83 -24t-21 -54q0 -31 11 -96l59 -317l184 282q70 107 70 157q0 18 -18 33.5t-59 18.5l7 29h262l-9 -29q-24 -2 -42 -14q-24 -18 -65 -81z" />
    <glyph glyph-name="brokenbar" unicode="&#xa6;" horiz-adv-x="349" 
d="M123 509v565h101v-565h-101zM123 -342v566h101v-566h-101z" />
    <glyph glyph-name="section" unicode="&#xa7;" 
d="M287 663q-23 37 -35 71.5t-12 67.5q0 111 85.5 191.5t224.5 80.5q131 0 210 -69.5t79 -155.5q0 -38 -25 -64.5t-62 -26.5q-39 0 -62.5 24t-23.5 67q0 20 4 40q7 34 7 47q0 31 -30 57t-89 26q-76 0 -121.5 -42t-45.5 -97q0 -50 28 -94q28 -45 133 -129t148 -163
q33 -59 33 -127q0 -89 -50 -166t-153 -148q21 -41 31.5 -75.5t10.5 -63.5q0 -99 -87.5 -177.5t-223.5 -78.5q-125 0 -204 67t-79 146q0 42 26 68.5t62 26.5t60 -25t24 -66q0 -19 -5 -39q-8 -36 -8 -48q0 -30 30.5 -55t88.5 -25q76 0 120.5 40t44.5 94q0 52 -26 96
q-28 43 -130.5 124t-145.5 159q-32 59 -32 124q0 93 50.5 172t149.5 146zM312 629q-95 -83 -95 -170q0 -52 28 -100t128 -138q66 -59 130 -128q57 47 80 87t23 85q0 56 -30.5 106t-140.5 141q-70 57 -123 117z" />
    <glyph glyph-name="dieresis" unicode="&#xa8;" horiz-adv-x="528" 
d="M246 1042q42 0 72.5 -29.5t30.5 -73.5q0 -42 -30.5 -72t-72.5 -30t-72.5 30t-30.5 72q0 44 30.5 73.5t72.5 29.5zM534 1042q43 0 73 -30t30 -73q0 -42 -30.5 -72t-72.5 -30q-43 0 -72.5 30t-29.5 72q0 43 29.5 73t72.5 30z" />
    <glyph glyph-name="copyright" unicode="&#xa9;" horiz-adv-x="1185" 
d="M634 1074q138 0 270 -71t206 -203t74 -275q0 -142 -73 -273t-204 -203.5t-273 -72.5q-143 0 -273 72.5t-202.5 203.5t-72.5 273q0 143 73.5 275t205 203t269.5 71zM634 1005q-121 0 -235.5 -62t-179.5 -178t-65 -240q0 -125 63.5 -239t178 -177.5t238.5 -63.5
q125 0 239 63.5t177 177.5t63 239q0 124 -63.5 240t-178.5 178t-237 62zM893 856v-204h-30q-15 78 -67 122.5t-123 44.5q-85 0 -142 -67.5t-57 -214.5q0 -156 56 -222.5t139 -66.5q115 0 202 107v-55q-93 -98 -246 -98q-145 0 -235 88t-90 227q0 147 96.5 243.5t243.5 96.5
q67 0 152 -31q25 -10 36 -10q14 0 24 10t11 30h30z" />
    <glyph glyph-name="ordfeminine" unicode="&#xaa;" horiz-adv-x="422" 
d="M582 1064l-96 -306q-13 -39 -13 -49q0 -5 4.5 -9.5t9.5 -4.5q7 0 14 6q18 12 50 51l18 -10q-70 -114 -159 -114q-34 0 -50.5 15t-16.5 37q0 17 12 52l16 49q-62 -96 -99 -124.5t-77 -28.5q-38 0 -62 28.5t-24 79.5q0 125 91.5 230t172.5 105q30 0 46 -14.5t23 -52.5
l17 54zM383 1042q-21 0 -40.5 -16t-61.5 -115t-42 -150q0 -23 12 -37q6 -10 17 -10q45 0 98 97t53 173q0 30 -12 48q-8 10 -24 10z" />
    <glyph glyph-name="guillemotleft" unicode="&#xab;" 
d="M456 705l-199 -357l46 -356h-46l-193 356l343 357h49zM782 705l-198 -357l49 -356h-49l-191 356l342 357h47z" />
    <glyph glyph-name="logicalnot" unicode="&#xac;" horiz-adv-x="961" 
d="M57 698h846v-352h-99v253h-747v99z" />
    <glyph glyph-name="uni00AD" unicode="&#xad;" horiz-adv-x="528" 
d="M61 428h450l-49 -161h-452z" />
    <glyph glyph-name="registered" unicode="&#xae;" horiz-adv-x="1185" 
d="M634 1074q138 0 270 -71t206 -203t74 -275q0 -142 -73 -273t-204 -203.5t-273 -72.5q-143 0 -273 72.5t-202.5 203.5t-72.5 273q0 143 73.5 275t205 203t269.5 71zM634 1005q-121 0 -235.5 -62t-179.5 -178t-65 -240q0 -125 63.5 -239t178 -177.5t238.5 -63.5
q125 0 239 63.5t177 177.5t63 239q0 124 -63.5 240t-178.5 178t-237 62zM340 843h281q141 0 196 -33q78 -49 78 -136q0 -55 -34 -97.5t-104 -62.5l106 -194q24 -41 48 -62q12 -10 33 -14v-27h-187l-159 285h-36v-153q0 -65 17.5 -84t76.5 -21v-27h-328v27q48 0 62 16
q20 23 20 89v365q0 64 -13.5 81t-56.5 22v26zM562 542q27 -5 45 -5q50 0 86 38t36 102q0 65 -33.5 99t-103.5 34h-30v-268z" />
    <glyph glyph-name="macron" unicode="&#xaf;" 
d="M199 1233h822v-101h-822v101z" />
    <glyph glyph-name="degree" unicode="&#xb0;" horiz-adv-x="634" 
d="M407 1071q111 0 189.5 -78t78.5 -189q0 -112 -78.5 -190t-189.5 -78t-189.5 78t-78.5 190q0 111 78.5 189t189.5 78zM407 970q-70 0 -118.5 -48.5t-48.5 -117.5q0 -68 49 -117.5t118 -49.5t118 49.5t49 117.5q0 69 -49 117.5t-118 48.5z" />
    <glyph glyph-name="plusminus" unicode="&#xb1;" horiz-adv-x="870" 
d="M24 576h372v371h102v-371h372v-102h-372v-266h372v-103h-846l-1 102h373v267h-372v102z" />
    <glyph glyph-name="twosuperior" unicode="&#xb2;" horiz-adv-x="475" 
d="M423 514h-345v21q234 187 297 277q32 44 32 94q0 35 -22.5 56.5t-61.5 21.5q-59 0 -104 -63l-31 13q28 68 78 102.5t117 34.5q74 0 118 -38.5t44 -85.5q0 -63 -58 -128.5t-245 -204.5h101q57 0 76.5 11t41.5 46h40z" />
    <glyph glyph-name="threesuperior" unicode="&#xb3;" horiz-adv-x="475" 
d="M192 806l9 26q111 12 165 55q36 28 36 66q0 25 -18.5 42t-47.5 17q-24 0 -44 -11.5t-46 -41.5l-33 13q41 53 81.5 76t92.5 23q68 0 107 -32t39 -73q0 -43 -31 -72q-41 -41 -115 -53q48 -22 66 -45q28 -36 28 -83q0 -79 -78 -145t-203 -66q-63 0 -94 21q-20 14 -20 35
q0 20 13 30q20 17 47 17q26 0 74 -30q36 -21 58 -21q23 0 43 26q27 34 27 85q0 71 -48 109q-32 25 -108 32z" />
    <glyph glyph-name="acute" unicode="&#xb4;" horiz-adv-x="528" 
d="M403 1074h238l-260 -271h-69z" />
    <glyph glyph-name="mu1" unicode="&#xb5;" horiz-adv-x="913" 
d="M236 696h197l-125 -432q-19 -64 -21 -69q-4 -28 -4 -47q0 -25 15.5 -41t38.5 -16q44 0 98 57q71 75 124 259l82 289h198l-138 -477q-26 -86 -26 -110q0 -19 12 -31.5t26 -12.5q15 0 30 16q31 29 59 92l28 -14q-34 -96 -88 -138.5t-118 -42.5q-59 0 -94.5 35.5t-35.5 92.5
q0 28 6 67q-88 -121 -154 -162q-51 -33 -112 -33q-46 0 -77 20q-20 11 -42 48q-19 -58 -26.5 -101t-11.5 -115t-12 -98q-11 -37 -36 -56t-53 -19q-31 0 -53 23.5t-22 59.5q0 50 56.5 143t75.5 136t52 154z" />
    <glyph glyph-name="paragraph" unicode="&#xb6;" 
d="M462 990v-1332h-76v674q-145 6 -234.5 48t-136 127.5t-46.5 191.5q0 79 19.5 130.5t61.5 98t86.5 72.5t100.5 36q75 14 250 14h340v-35h-35q-45 0 -68 -14t-36 -39q-7 -20 -7 -103v-1201h-77v1332h-142z" />
    <glyph glyph-name="uni00B7" unicode="&#xb7;" horiz-adv-x="396" 
d="M248 655q52 0 89.5 -37.5t37.5 -90.5t-37.5 -90t-89.5 -37q-54 0 -91 37t-37 90t37 90.5t91 37.5z" />
    <glyph glyph-name="cedilla" unicode="&#xb8;" horiz-adv-x="528" 
d="M231 0h58l-52 -40q63 -9 93.5 -41t30.5 -77q0 -54 -48.5 -93.5t-154.5 -39.5q-86 0 -149 23l9 24q58 -11 87 -11q52 0 79.5 23.5t27.5 56.5q0 27 -17.5 45t-41.5 18q-16 0 -42 -5l-10 23z" />
    <glyph glyph-name="onesuperior" unicode="&#xb9;" horiz-adv-x="475" 
d="M512 1071l-154 -458q-11 -31 -11 -41q0 -9 6 -17.5t13 -10.5q12 -5 41 -5l28 -2l-9 -23h-331l9 23q64 2 83 14.5t37 66.5l89 269q24 68 24 80q0 16 -9.5 25t-28.5 9q-14 0 -55 -4l-6 24z" />
    <glyph glyph-name="ordmasculine" unicode="&#xba;" horiz-adv-x="475" 
d="M448 1071q67 0 106.5 -37t39.5 -96q0 -70 -43 -146t-119.5 -120t-149.5 -44q-70 0 -107.5 36.5t-37.5 95.5q0 72 43.5 148t119.5 119.5t148 43.5zM429 1046q-28 0 -46 -15q-33 -29 -77.5 -135t-44.5 -192q0 -23 13.5 -37t35.5 -14t37 14q40 38 81.5 138.5t41.5 188.5
q0 25 -12 38.5t-29 13.5z" />
    <glyph glyph-name="guillemotright" unicode="&#xbb;" 
d="M337 -8l199 357l-46 356h46l193 -356l-343 -357h-49zM11 -8l198 357l-49 356h49l190 -356l-341 -357h-47z" />
    <glyph glyph-name="onequarter" unicode="&#xbc;" horiz-adv-x="1188" 
d="M1056 1071l-745 -1116h-102l742 1116h105zM510 1071l-154 -458q-11 -31 -11 -41q0 -9 6 -17.5t13 -10.5q12 -5 41 -5l28 -2l-9 -23h-331l9 23q65 2 84 14.5t36 66.5l90 269q24 68 24 80q0 16 -10 25t-29 9q-13 0 -54 -4l-6 24zM850 78h-208l25 73l375 371h75l-123 -371
h71l-27 -73h-70l-42 -123h-118zM876 151l65 209l-209 -209h144z" />
    <glyph glyph-name="onehalf" unicode="&#xbd;" horiz-adv-x="1188" 
d="M1018 1071l-745 -1116h-102l742 1116h105zM510 1071l-154 -458q-11 -31 -11 -41q0 -9 6 -17.5t13 -10.5q12 -5 41 -5q1 0 28 -2l-9 -23h-331l9 23q65 2 84 14.5t36 66.5l90 269q24 68 24 80q0 16 -10 25t-29 9q-13 0 -54 -4l-6 24zM978 -35h-346v22q196 155 277 250
q52 61 52 121q0 34 -23 56t-60 22q-59 0 -105 -64l-31 14q27 68 77.5 102t117.5 34q74 0 118 -38t44 -85q0 -63 -58 -128.5t-245 -204.5h101q57 0 76.5 10.5t40.5 46.5h40z" />
    <glyph glyph-name="threequarters" unicode="&#xbe;" horiz-adv-x="1188" 
d="M1056 1071l-745 -1116h-103l742 1116h106zM191 806l9 26q112 12 164 55q36 28 36 66q0 25 -18.5 42t-46.5 17q-23 0 -43.5 -11.5t-47.5 -41.5l-32 13q40 53 80.5 76t94.5 23q67 0 105.5 -32t38.5 -73q0 -43 -31 -72q-41 -41 -114 -53q48 -22 65 -45q28 -36 28 -83
q0 -79 -78 -145t-203 -66q-63 0 -93 21q-20 14 -20 35q0 20 12 30q20 17 48 17q25 0 74 -30q36 -21 57 -21q24 0 43 26q28 34 28 85q0 71 -49 109q-32 25 -107 32zM849 78h-207l24 73l375 371h76l-124 -371h72l-28 -73h-70l-41 -123h-118zM875 151l65 209l-209 -209h144z
" />
    <glyph glyph-name="questiondown" unicode="&#xbf;" 
d="M495 755q53 0 89.5 -37t36.5 -90t-37 -90t-89 -37q-53 0 -90 37t-37 90t37 90t90 37zM464 437h31q0 -83 -26.5 -141.5t-140.5 -194.5q-80 -95 -112 -170q-21 -49 -21 -104q0 -65 31 -100.5t78 -35.5q33 0 52.5 17.5t19.5 38.5q0 14 -14 39q-26 49 -26 84q0 40 30 69.5
t73 29.5q46 0 77 -33t31 -89q0 -91 -77.5 -140t-180.5 -49q-85 0 -150.5 28t-98.5 78.5t-33 106.5q0 79 39 140q56 85 192.5 169.5t175 132t50.5 124.5z" />
    <glyph glyph-name="Agrave" unicode="&#xc0;" horiz-adv-x="1058" 
d="M642 338h-325l-65 -80l-74 -90q-21 -28 -32 -51q-8 -18 -8 -35q0 -20 20 -35.5t66 -17.5v-29h-313l7 29q42 7 74 29q44 31 125 128l744 888h34l-34 -860q-2 -67 -2 -81q0 -52 21 -76t71 -28l-9 -29h-454l9 29q67 6 77 10q22 11 40 45.5t22 120.5zM642 402l20 342
l-291 -342h271zM697 1413h228l83 -269h-61z" />
    <glyph glyph-name="Aacute" unicode="&#xc1;" horiz-adv-x="1058" 
d="M642 338h-325l-65 -80l-74 -90q-21 -28 -32 -51q-8 -18 -8 -35q0 -20 20 -35.5t66 -17.5v-29h-313l7 29q42 7 74 29q44 31 125 128l744 888h34l-34 -860q-2 -67 -2 -81q0 -52 21 -76t71 -28l-9 -29h-454l9 29q67 6 77 10q22 11 40 45.5t22 120.5zM642 402l20 342
l-291 -342h271zM951 1396h238l-260 -271h-69z" />
    <glyph glyph-name="Acircumflex" unicode="&#xc2;" horiz-adv-x="1058" 
d="M642 338h-325l-65 -80l-74 -90q-21 -28 -32 -51q-8 -18 -8 -35q0 -20 20 -35.5t66 -17.5v-29h-313l7 29q42 7 74 29q44 31 125 128l744 888h34l-34 -860q-2 -67 -2 -81q0 -52 21 -76t71 -28l-9 -29h-454l9 29q67 6 77 10q22 11 40 45.5t22 120.5zM642 402l20 342
l-291 -342h271zM851 1401h176l79 -263h-79l-104 156l-228 -156h-81z" />
    <glyph glyph-name="Atilde" unicode="&#xc3;" horiz-adv-x="1058" 
d="M642 338h-325l-65 -80l-74 -90q-21 -28 -32 -51q-8 -18 -8 -35q0 -20 20 -35.5t66 -17.5v-29h-313l7 29q42 7 74 29q44 31 125 128l744 888h34l-34 -860q-2 -67 -2 -81q0 -52 21 -76t71 -28l-9 -29h-454l9 29q67 6 77 10q22 11 40 45.5t22 120.5zM642 402l20 342
l-291 -342h271zM1092 1378h49q-2 -108 -47.5 -161.5t-100.5 -53.5t-165 50q-46 21 -67 21q-22 0 -38 -16.5t-21 -53.5h-51q6 111 51.5 162.5t103.5 51.5q62 0 165 -50q43 -20 62 -20q23 0 39 16t20 54z" />
    <glyph glyph-name="Adieresis" unicode="&#xc4;" horiz-adv-x="1058" 
d="M642 338h-325l-65 -80l-74 -90q-21 -28 -32 -51q-8 -18 -8 -35q0 -20 20 -35.5t66 -17.5v-29h-313l7 29q42 7 74 29q44 31 125 128l744 888h34l-34 -860q-2 -67 -2 -81q0 -52 21 -76t71 -28l-9 -29h-454l9 29q67 6 77 10q22 11 40 45.5t22 120.5zM642 402l20 342
l-291 -342h271zM773 1361q42 0 72.5 -29.5t30.5 -73.5q0 -42 -30.5 -72t-72.5 -30t-72.5 30t-30.5 72q0 44 30.5 73.5t72.5 29.5zM1061 1361q43 0 73 -30t30 -73q0 -42 -30.5 -72t-72.5 -30q-43 0 -72.5 30t-29.5 72q0 43 29.5 73t72.5 30z" />
    <glyph glyph-name="Aring" unicode="&#xc5;" horiz-adv-x="1058" 
d="M642 338h-325l-65 -80l-74 -90q-21 -28 -32 -51q-8 -18 -8 -35q0 -20 20 -35.5t66 -17.5v-29h-313l7 29q42 7 74 29q44 31 125 128l744 888h34l-34 -860q-2 -67 -2 -81q0 -52 21 -76t71 -28l-9 -29h-454l9 29q67 6 77 10q22 11 40 45.5t22 120.5zM642 402l20 342
l-291 -342h271zM899 1348q67 0 114 -47t47 -115q0 -66 -47 -113t-114 -47q-66 0 -113.5 47t-47.5 113q0 68 47 115t114 47zM899 1290q-42 0 -72.5 -30t-30.5 -74q0 -42 30.5 -72.5t72.5 -30.5q43 0 73.5 30.5t30.5 72.5q0 44 -30.5 74t-73.5 30z" />
    <glyph glyph-name="AE" unicode="&#xc6;" horiz-adv-x="1496" 
d="M659 359h-331l-103 -123q-84 -102 -84 -156q0 -21 16 -33.5t68 -17.5v-29h-314l8 29q44 9 75 33q47 34 117 121l548 677q47 57 53 70q10 20 10 39q0 22 -21 36t-109 16l12 29h915l-64 -264h-31q0 99 -60.5 151.5t-222.5 52.5h-76l-120 -408h37q133 0 196.5 36.5
t108.5 130.5h29l-118 -407h-28q7 31 7 49q0 40 -22 79q-18 29 -49.5 40.5t-128.5 11.5h-48l-93 -315q-21 -70 -21 -97q0 -21 18 -34.5t62 -13.5q150 0 260.5 55.5t207.5 168.5h31l-107 -286h-856l7 29q71 0 101 25t65 134zM675 420l166 570l-464 -570h298z" />
    <glyph glyph-name="Ccedilla" unicode="&#xc7;" horiz-adv-x="1058" 
d="M1142 1074l-77 -334h-30q-5 136 -66.5 203.5t-160.5 67.5q-107 0 -213.5 -91.5t-180.5 -280.5q-59 -152 -59 -301q0 -133 66 -203t179 -70q92 0 167.5 40t153.5 132h38q-97 -145 -195 -203t-239 -58q-189 0 -305 115t-116 300q0 173 91.5 330.5t265 255t344.5 97.5
q65 0 161 -28q50 -14 70 -14q38 0 77 42h29zM526 0h58l-52 -40q63 -9 93.5 -41t30.5 -77q0 -54 -48.5 -93.5t-154.5 -39.5q-86 0 -149 23l9 24q58 -11 87 -11q52 0 79.5 23.5t27.5 56.5q0 27 -17.5 45t-41.5 18q-16 0 -42 -5l-10 23z" />
    <glyph glyph-name="Egrave" unicode="&#xc8;" horiz-adv-x="1058" 
d="M599 991l-116 -406h35q141 0 205 37t110 131h29l-118 -409h-28q8 42 8 67q0 43 -25.5 70t-65.5 38q-26 8 -109 8h-61l-100 -352q-13 -46 -13 -69q0 -18 17 -28q24 -16 94 -16q132 0 249 56t209 169h32l-109 -287h-898l10 29q79 0 115 29.5t66 130.5l197 676q16 57 16 90
q0 29 -20.5 44.5t-94.5 21.5l7 29h838l-67 -263h-28q-4 77 -24 109q-33 50 -87 72.5t-175 22.5h-98zM502 1413h228l83 -269h-61z" />
    <glyph glyph-name="Eacute" unicode="&#xc9;" horiz-adv-x="1058" 
d="M599 991l-116 -406h35q141 0 205 37t110 131h29l-118 -409h-28q8 42 8 67q0 43 -25.5 70t-65.5 38q-26 8 -109 8h-61l-100 -352q-13 -46 -13 -69q0 -18 17 -28q24 -16 94 -16q132 0 249 56t209 169h32l-109 -287h-898l10 29q79 0 115 29.5t66 130.5l197 676q16 57 16 90
q0 29 -20.5 44.5t-94.5 21.5l7 29h838l-67 -263h-28q-4 77 -24 109q-33 50 -87 72.5t-175 22.5h-98zM757 1396h238l-260 -271h-69z" />
    <glyph glyph-name="Ecircumflex" unicode="&#xca;" horiz-adv-x="1058" 
d="M599 991l-116 -406h35q141 0 205 37t110 131h29l-118 -409h-28q8 42 8 67q0 43 -25.5 70t-65.5 38q-26 8 -109 8h-61l-100 -352q-13 -46 -13 -69q0 -18 17 -28q24 -16 94 -16q132 0 249 56t209 169h32l-109 -287h-898l10 29q79 0 115 29.5t66 130.5l197 676q16 57 16 90
q0 29 -20.5 44.5t-94.5 21.5l7 29h838l-67 -263h-28q-4 77 -24 109q-33 50 -87 72.5t-175 22.5h-98zM705 1401h176l79 -263h-79l-104 156l-228 -156h-81z" />
    <glyph glyph-name="Edieresis" unicode="&#xcb;" horiz-adv-x="1058" 
d="M599 991l-116 -406h35q141 0 205 37t110 131h29l-118 -409h-28q8 42 8 67q0 43 -25.5 70t-65.5 38q-26 8 -109 8h-61l-100 -352q-13 -46 -13 -69q0 -18 17 -28q24 -16 94 -16q132 0 249 56t209 169h32l-109 -287h-898l10 29q79 0 115 29.5t66 130.5l197 676q16 57 16 90
q0 29 -20.5 44.5t-94.5 21.5l7 29h838l-67 -263h-28q-4 77 -24 109q-33 50 -87 72.5t-175 22.5h-98zM607 1361q42 0 72.5 -29.5t30.5 -73.5q0 -42 -30.5 -72t-72.5 -30t-72.5 30t-30.5 72q0 44 30.5 73.5t72.5 29.5zM895 1361q43 0 73 -30t30 -73q0 -42 -30.5 -72t-72.5 -30
q-43 0 -72.5 30t-29.5 72q0 43 29.5 73t72.5 30z" />
    <glyph glyph-name="Igrave" unicode="&#xcc;" horiz-adv-x="617" 
d="M219 1021l9 29h512l-10 -29q-69 0 -106 -31t-65 -129l-192 -673q-21 -71 -21 -95q0 -28 21 -43q28 -20 106 -21l-8 -29h-521l9 29q78 0 114.5 29.5t65.5 129.5l194 673q17 62 17 94q0 28 -21.5 44t-103.5 22zM319 1413h228l83 -269h-61z" />
    <glyph glyph-name="Iacute" unicode="&#xcd;" horiz-adv-x="617" 
d="M219 1021l9 29h512l-10 -29q-69 0 -106 -31t-65 -129l-192 -673q-21 -71 -21 -95q0 -28 21 -43q28 -20 106 -21l-8 -29h-521l9 29q78 0 114.5 29.5t65.5 129.5l194 673q17 62 17 94q0 28 -21.5 44t-103.5 22zM567 1396h238l-260 -271h-69z" />
    <glyph glyph-name="Icircumflex" unicode="&#xce;" horiz-adv-x="617" 
d="M219 1021l9 29h512l-10 -29q-69 0 -106 -31t-65 -129l-192 -673q-21 -71 -21 -95q0 -28 21 -43q28 -20 106 -21l-8 -29h-521l9 29q78 0 114.5 29.5t65.5 129.5l194 673q17 62 17 94q0 28 -21.5 44t-103.5 22zM493 1401h176l79 -263h-79l-104 156l-228 -156h-81z" />
    <glyph glyph-name="Idieresis" unicode="&#xcf;" horiz-adv-x="617" 
d="M219 1021l9 29h512l-10 -29q-69 0 -106 -31t-65 -129l-192 -673q-21 -71 -21 -95q0 -28 21 -43q28 -20 106 -21l-8 -29h-521l9 29q78 0 114.5 29.5t65.5 129.5l194 673q17 62 17 94q0 28 -21.5 44t-103.5 22zM386 1361q42 0 72.5 -29.5t30.5 -73.5q0 -42 -30.5 -72
t-72.5 -30t-72.5 30t-30.5 72q0 44 30.5 73.5t72.5 29.5zM674 1361q43 0 73 -30t30 -73q0 -42 -30.5 -72t-72.5 -30q-43 0 -72.5 30t-29.5 72q0 43 29.5 73t72.5 30z" />
    <glyph glyph-name="Eth" unicode="&#xd0;" horiz-adv-x="1145" 
d="M228 1050h355q285 0 412 -116t127 -322q0 -147 -60 -246q-115 -193 -272 -279.5t-403 -86.5h-438l8 30q75 0 111.5 29t62.5 118l97 346h-136l18 59h138l73 258q24 83 24 116q0 30 -25.5 48.5t-100.5 19.5zM599 990l-119 -408h238l-17 -59h-238l-96 -332q-15 -51 -15 -74
q0 -25 21.5 -42t71.5 -17q179 0 305 204q110 175 110 397q0 169 -75.5 252t-185.5 79z" />
    <glyph glyph-name="Ntilde" unicode="&#xd1;" horiz-adv-x="1145" 
d="M565 1050l328 -700l148 508q12 41 12 74q0 38 -24.5 61.5t-84.5 27.5l9 29h333l-8 -29q-64 -4 -105 -35.5t-70 -127.5l-256 -870h-30l-421 896l-204 -698q-9 -37 -9 -65q0 -42 27 -67t88 -25l-7 -29h-342l7 29q44 0 62 8q33 12 64 47t51 102l222 762q-42 46 -69.5 59
t-83.5 14l9 29h354zM985 1346h49q-2 -108 -47.5 -161.5t-100.5 -53.5t-165 50q-46 21 -67 21q-22 0 -38 -16.5t-21 -53.5h-51q6 111 51.5 162.5t103.5 51.5q62 0 165 -50q43 -20 62 -20q23 0 39 16t20 54z" />
    <glyph glyph-name="Ograve" unicode="&#xd2;" horiz-adv-x="1145" 
d="M446 -25q-127 0 -205.5 52t-117 142t-38.5 174q0 172 98 346.5t264.5 279.5t329.5 105q95 0 180.5 -47.5t133 -133.5t47.5 -174q0 -196 -124.5 -393t-279.5 -285q-118 -66 -288 -66zM752 1011q-62 0 -104.5 -22.5t-89 -74t-95 -148t-90 -262t-41.5 -276.5
q0 -94 40.5 -142.5t105.5 -48.5q84 0 144 56q118 113 193 330t75 387q0 105 -39.5 153t-98.5 48zM584 1413h228l83 -269h-61z" />
    <glyph glyph-name="Oacute" unicode="&#xd3;" horiz-adv-x="1145" 
d="M446 -25q-127 0 -205.5 52t-117 142t-38.5 174q0 172 98 346.5t264.5 279.5t329.5 105q95 0 180.5 -47.5t133 -133.5t47.5 -174q0 -196 -124.5 -393t-279.5 -285q-118 -66 -288 -66zM752 1011q-62 0 -104.5 -22.5t-89 -74t-95 -148t-90 -262t-41.5 -276.5
q0 -94 40.5 -142.5t105.5 -48.5q84 0 144 56q118 113 193 330t75 387q0 105 -39.5 153t-98.5 48zM790 1419h238l-260 -271h-69z" />
    <glyph glyph-name="Ocircumflex" unicode="&#xd4;" horiz-adv-x="1145" 
d="M446 -25q-127 0 -205.5 52t-117 142t-38.5 174q0 172 98 346.5t264.5 279.5t329.5 105q95 0 180.5 -47.5t133 -133.5t47.5 -174q0 -196 -124.5 -393t-279.5 -285q-118 -66 -288 -66zM752 1011q-62 0 -104.5 -22.5t-89 -74t-95 -148t-90 -262t-41.5 -276.5
q0 -94 40.5 -142.5t105.5 -48.5q84 0 144 56q118 113 193 330t75 387q0 105 -39.5 153t-98.5 48zM759 1381h176l79 -263h-79l-104 156l-228 -156h-81z" />
    <glyph glyph-name="Otilde" unicode="&#xd5;" horiz-adv-x="1145" 
d="M446 -25q-127 0 -205.5 52t-117 142t-38.5 174q0 172 98 346.5t264.5 279.5t329.5 105q95 0 180.5 -47.5t133 -133.5t47.5 -174q0 -196 -124.5 -393t-279.5 -285q-118 -66 -288 -66zM752 1011q-62 0 -104.5 -22.5t-89 -74t-95 -148t-90 -262t-41.5 -276.5
q0 -94 40.5 -142.5t105.5 -48.5q84 0 144 56q118 113 193 330t75 387q0 105 -39.5 153t-98.5 48zM1012 1346h49q-2 -108 -47.5 -161.5t-100.5 -53.5t-165 50q-46 21 -67 21q-22 0 -38 -16.5t-21 -53.5h-51q6 111 51.5 162.5t103.5 51.5q62 0 165 -50q43 -20 62 -20
q23 0 39 16t20 54z" />
    <glyph glyph-name="Odieresis" unicode="&#xd6;" horiz-adv-x="1145" 
d="M446 -25q-127 0 -205.5 52t-117 142t-38.5 174q0 172 98 346.5t264.5 279.5t329.5 105q95 0 180.5 -47.5t133 -133.5t47.5 -174q0 -196 -124.5 -393t-279.5 -285q-118 -66 -288 -66zM752 1011q-62 0 -104.5 -22.5t-89 -74t-95 -148t-90 -262t-41.5 -276.5
q0 -94 40.5 -142.5t105.5 -48.5q84 0 144 56q118 113 193 330t75 387q0 105 -39.5 153t-98.5 48zM673 1341q42 0 72.5 -29.5t30.5 -73.5q0 -42 -30.5 -72t-72.5 -30t-72.5 30t-30.5 72q0 44 30.5 73.5t72.5 29.5zM961 1341q43 0 73 -30t30 -73q0 -42 -30.5 -72t-72.5 -30
q-43 0 -72.5 30t-29.5 72q0 43 29.5 73t72.5 30z" />
    <glyph glyph-name="multiply" unicode="&#xd7;" horiz-adv-x="903" 
d="M191 861l264 -264l262 263l71 -72l-262 -262l263 -264l-72 -72l-262 264l-263 -262l-71 72l262 261l-264 263z" />
    <glyph glyph-name="Oslash" unicode="&#xd8;" horiz-adv-x="1145" 
d="M1152 1031l-94 -94q44 -62 61.5 -112.5t17.5 -108.5q0 -176 -104 -353.5t-266.5 -282.5t-325.5 -105q-73 0 -127 21.5t-115 73.5l-92 -94l-42 40l96 97q-42 63 -58.5 113.5t-16.5 113.5q0 178 97 352.5t257 278t322 103.5q80 0 145 -24q51 -20 113 -70l92 94zM887 845
q-9 93 -45.5 130t-97.5 37q-75 0 -127 -37q-93 -68 -175 -254.5t-110 -433.5zM332 205q12 -93 49 -129.5t97 -36.5q78 0 127 40q98 78 182 275t100 412z" />
    <glyph glyph-name="Ugrave" unicode="&#xd9;" horiz-adv-x="1145" 
d="M927 1050h355l-7 -29q-62 -5 -94 -30q-54 -39 -80 -129l-139 -482q-66 -225 -177.5 -314.5t-282.5 -89.5q-98 0 -172 28t-109 62.5t-53.5 86.5t-18.5 86q0 55 31 163l132 460q19 61 19 92q0 29 -22 45t-103 22l8 29h523l-8 -29q-76 0 -116 -32.5t-67 -126.5l-134 -460
q-33 -115 -33 -186q0 -63 51 -110t142 -47q84 0 142 30.5t98 85.5q50 73 91 211l136 476q12 41 12 68q0 48 -34 73q-24 18 -99 18zM593 1413h228l83 -269h-61z" />
    <glyph glyph-name="Uacute" unicode="&#xda;" horiz-adv-x="1145" 
d="M927 1050h355l-7 -29q-62 -5 -94 -30q-54 -39 -80 -129l-139 -482q-66 -225 -177.5 -314.5t-282.5 -89.5q-98 0 -172 28t-109 62.5t-53.5 86.5t-18.5 86q0 55 31 163l132 460q19 61 19 92q0 29 -22 45t-103 22l8 29h523l-8 -29q-76 0 -116 -32.5t-67 -126.5l-134 -460
q-33 -115 -33 -186q0 -63 51 -110t142 -47q84 0 142 30.5t98 85.5q50 73 91 211l136 476q12 41 12 68q0 48 -34 73q-24 18 -99 18zM770 1419h238l-260 -271h-69z" />
    <glyph glyph-name="Ucircumflex" unicode="&#xdb;" horiz-adv-x="1145" 
d="M927 1050h355l-7 -29q-62 -5 -94 -30q-54 -39 -80 -129l-139 -482q-66 -225 -177.5 -314.5t-282.5 -89.5q-98 0 -172 28t-109 62.5t-53.5 86.5t-18.5 86q0 55 31 163l132 460q19 61 19 92q0 29 -22 45t-103 22l8 29h523l-8 -29q-76 0 -116 -32.5t-67 -126.5l-134 -460
q-33 -115 -33 -186q0 -63 51 -110t142 -47q84 0 142 30.5t98 85.5q50 73 91 211l136 476q12 41 12 68q0 48 -34 73q-24 18 -99 18zM734 1381h176l79 -263h-79l-104 156l-228 -156h-81z" />
    <glyph glyph-name="Udieresis" unicode="&#xdc;" horiz-adv-x="1145" 
d="M927 1050h355l-7 -29q-62 -5 -94 -30q-54 -39 -80 -129l-139 -482q-66 -225 -177.5 -314.5t-282.5 -89.5q-98 0 -172 28t-109 62.5t-53.5 86.5t-18.5 86q0 55 31 163l132 460q19 61 19 92q0 29 -22 45t-103 22l8 29h523l-8 -29q-76 0 -116 -32.5t-67 -126.5l-134 -460
q-33 -115 -33 -186q0 -63 51 -110t142 -47q84 0 142 30.5t98 85.5q50 73 91 211l136 476q12 41 12 68q0 48 -34 73q-24 18 -99 18zM629 1341q42 0 72.5 -29.5t30.5 -73.5q0 -42 -30.5 -72t-72.5 -30t-72.5 30t-30.5 72q0 44 30.5 73.5t72.5 29.5zM917 1341q43 0 73 -30
t30 -73q0 -42 -30.5 -72t-72.5 -30q-43 0 -72.5 30t-29.5 72q0 43 29.5 73t72.5 30z" />
    <glyph glyph-name="Yacute" unicode="&#xdd;" horiz-adv-x="968" 
d="M419 463l-87 383q-23 99 -55 136q-24 28 -88 39l9 29h504l-10 -29q-73 0 -106.5 -29.5t-33.5 -71.5q0 -25 13 -88l69 -311l170 234q64 89 80.5 126t16.5 65t-20.5 48.5t-68.5 26.5l9 29h316v-29q-44 -5 -74.5 -28t-120.5 -147l-298 -410l-70 -244q-22 -75 -22 -87
q0 -33 25.5 -54.5t85.5 -21.5h29l-7 -29h-538l8 29q58 -1 94 16t54 42q12 19 36 100zM822 1396h238l-260 -271h-69z" />
    <glyph glyph-name="Thorn" unicode="&#xde;" horiz-adv-x="968" 
d="M542 813h34q95 0 135 -5q76 -12 128.5 -42t84 -82t31.5 -113q0 -93 -55.5 -173t-154.5 -121t-323 -41h-48l-8 -28q-24 -84 -24 -114q0 -26 22 -42.5t95 -22.5l-7 -29h-501l9 29q76 1 111.5 29.5t62.5 122.5l191 658q24 84 24 120q0 28 -22.5 44t-93.5 18l7 29h501l-8 -29
q-72 1 -109 -28.5t-64 -119.5zM523 752l-132 -456q118 0 160 16q63 25 112 103.5t49 182.5q0 57 -24.5 94t-68.5 51q-25 9 -96 9z" />
    <glyph glyph-name="germandbls" unicode="&#xdf;" 
d="M446 585l9 28q58 19 84 45q41 39 70 116.5t29 163.5q0 52 -20 75.5t-48 23.5q-39 0 -71 -49.5t-81 -238.5l-126 -477q-72 -277 -111 -362q-56 -117 -141 -184.5t-190 -67.5q-61 0 -90.5 25.5t-29.5 58.5q0 29 23 50t61 21q31 0 45 -13q18 -17 18 -41q0 -15 -10 -27
q-15 -19 -15 -25q0 -4 5 -8q6 -5 13 -5q15 0 27 6t19 15q19 21 34 57q9 20 44 140l61 202l125 471q60 229 106 310.5t123.5 130t170.5 48.5q110 0 166 -52.5t56 -139.5q0 -80 -42 -143.5t-115 -99.5q-49 -25 -149 -38q86 -15 126.5 -42t66.5 -79t26 -112q0 -162 -109 -292
q-82 -98 -189 -98q-58 0 -92 33t-34 83q0 41 21.5 65t49.5 24q20 0 33 -15t13 -40q0 -28 -10.5 -56.5t-10.5 -43.5q0 -8 5 -13t14 -5q13 0 21 7q15 17 52 152q56 209 56 284q0 40 -13 77q-9 24 -28 38q-12 10 -48 17z" />
    <glyph glyph-name="agrave" unicode="&#xe0;" 
d="M760 707l-150 -515l-17 -63q-2 -12 -2 -17q0 -9 7 -16t14 -7q16 0 45 24q11 11 55 72l27 -14q-54 -101 -116.5 -147t-135.5 -46q-44 0 -67 23t-23 58q0 30 25 112l18 63q-89 -154 -172 -219q-48 -37 -103 -37q-71 0 -102.5 58.5t-31.5 131.5q0 110 66.5 251.5
t174.5 226.5q90 71 167 71q44 0 70.5 -25t38.5 -91l28 95zM512 560q0 62 -20 90q-14 19 -37 19q-24 0 -50 -23q-52 -48 -112 -194.5t-60 -253.5q0 -41 13.5 -59t29.5 -18q36 0 71 40q51 57 91 140q74 145 74 259zM335 1074h228l83 -269h-61z" />
    <glyph glyph-name="aacute" unicode="&#xe1;" 
d="M760 707l-150 -515l-17 -63q-2 -12 -2 -17q0 -9 7 -16t14 -7q16 0 45 24q11 11 55 72l27 -14q-54 -101 -116.5 -147t-135.5 -46q-44 0 -67 23t-23 58q0 30 25 112l18 63q-89 -154 -172 -219q-48 -37 -103 -37q-71 0 -102.5 58.5t-31.5 131.5q0 110 66.5 251.5
t174.5 226.5q90 71 167 71q44 0 70.5 -25t38.5 -91l28 95zM512 560q0 62 -20 90q-14 19 -37 19q-24 0 -50 -23q-52 -48 -112 -194.5t-60 -253.5q0 -41 13.5 -59t29.5 -18q36 0 71 40q51 57 91 140q74 145 74 259zM532 1074h238l-260 -271h-69z" />
    <glyph glyph-name="acircumflex" unicode="&#xe2;" 
d="M760 707l-150 -515l-17 -63q-2 -12 -2 -17q0 -9 7 -16t14 -7q16 0 45 24q11 11 55 72l27 -14q-54 -101 -116.5 -147t-135.5 -46q-44 0 -67 23t-23 58q0 30 25 112l18 63q-89 -154 -172 -219q-48 -37 -103 -37q-71 0 -102.5 58.5t-31.5 131.5q0 110 66.5 251.5
t174.5 226.5q90 71 167 71q44 0 70.5 -25t38.5 -91l28 95zM512 560q0 62 -20 90q-14 19 -37 19q-24 0 -50 -23q-52 -48 -112 -194.5t-60 -253.5q0 -41 13.5 -59t29.5 -18q36 0 71 40q51 57 91 140q74 145 74 259zM491 1074h176l79 -263h-79l-104 156l-228 -156h-81z" />
    <glyph glyph-name="atilde" unicode="&#xe3;" 
d="M760 707l-150 -515l-17 -63q-2 -12 -2 -17q0 -9 7 -16t14 -7q16 0 45 24q11 11 55 72l27 -14q-54 -101 -116.5 -147t-135.5 -46q-44 0 -67 23t-23 58q0 30 25 112l18 63q-89 -154 -172 -219q-48 -37 -103 -37q-71 0 -102.5 58.5t-31.5 131.5q0 110 66.5 251.5
t174.5 226.5q90 71 167 71q44 0 70.5 -25t38.5 -91l28 95zM512 560q0 62 -20 90q-14 19 -37 19q-24 0 -50 -23q-52 -48 -112 -194.5t-60 -253.5q0 -41 13.5 -59t29.5 -18q36 0 71 40q51 57 91 140q74 145 74 259zM720 1050h49q-2 -108 -47.5 -161.5t-100.5 -53.5t-165 50
q-46 21 -67 21q-22 0 -38 -16.5t-21 -53.5h-51q6 111 51.5 162.5t103.5 51.5q62 0 165 -50q43 -20 62 -20q23 0 39 16t20 54z" />
    <glyph glyph-name="adieresis" unicode="&#xe4;" 
d="M760 707l-150 -515l-17 -63q-2 -12 -2 -17q0 -9 7 -16t14 -7q16 0 45 24q11 11 55 72l27 -14q-54 -101 -116.5 -147t-135.5 -46q-44 0 -67 23t-23 58q0 30 25 112l18 63q-89 -154 -172 -219q-48 -37 -103 -37q-71 0 -102.5 58.5t-31.5 131.5q0 110 66.5 251.5
t174.5 226.5q90 71 167 71q44 0 70.5 -25t38.5 -91l28 95zM512 560q0 62 -20 90q-14 19 -37 19q-24 0 -50 -23q-52 -48 -112 -194.5t-60 -253.5q0 -41 13.5 -59t29.5 -18q36 0 71 40q51 57 91 140q74 145 74 259zM386 1042q42 0 72.5 -29.5t30.5 -73.5q0 -42 -30.5 -72
t-72.5 -30t-72.5 30t-30.5 72q0 44 30.5 73.5t72.5 29.5zM674 1042q43 0 73 -30t30 -73q0 -42 -30.5 -72t-72.5 -30q-43 0 -72.5 30t-29.5 72q0 43 29.5 73t72.5 30z" />
    <glyph glyph-name="aring" unicode="&#xe5;" 
d="M760 707l-150 -515l-17 -63q-2 -12 -2 -17q0 -9 7 -16t14 -7q16 0 45 24q11 11 55 72l27 -14q-54 -101 -116.5 -147t-135.5 -46q-44 0 -67 23t-23 58q0 30 25 112l18 63q-89 -154 -172 -219q-48 -37 -103 -37q-71 0 -102.5 58.5t-31.5 131.5q0 110 66.5 251.5
t174.5 226.5q90 71 167 71q44 0 70.5 -25t38.5 -91l28 95zM512 560q0 62 -20 90q-14 19 -37 19q-24 0 -50 -23q-52 -48 -112 -194.5t-60 -253.5q0 -41 13.5 -59t29.5 -18q36 0 71 40q51 57 91 140q74 145 74 259zM558 1104q67 0 114 -47t47 -115q0 -66 -47 -113t-114 -47
q-66 0 -113.5 47t-47.5 113q0 68 47 115t114 47zM558 1046q-42 0 -72.5 -30t-30.5 -74q0 -42 30.5 -72.5t72.5 -30.5q43 0 73.5 30.5t30.5 72.5q0 44 -30.5 74t-73.5 30z" />
    <glyph glyph-name="ae" unicode="&#xe6;" horiz-adv-x="1145" 
d="M669 289q-5 -42 -5 -71q0 -65 38 -103.5t95 -38.5q123 0 242 128l23 -24q-91 -108 -176.5 -155t-180.5 -47q-87 0 -141.5 30t-78 79.5t-26.5 130.5q-68 -100 -108 -143q-55 -57 -104 -81q-34 -16 -75 -16q-60 0 -101 47.5t-41 133.5q0 114 55.5 233.5t132 196
t141.5 108.5q43 20 92 20t78 -25t44 -94l35 98l164 10l-26 -82q76 53 131 73t117 20q73 0 107.5 -29.5t34.5 -76.5q0 -108 -111.5 -204.5t-355.5 -117.5zM470 671q-27 0 -43 -11q-44 -31 -88.5 -109.5t-85.5 -220.5q-20 -68 -20 -131q0 -41 16 -61t38 -20q24 0 58 31
q69 61 129.5 191t60.5 221q0 55 -25 89q-15 21 -40 21zM677 332q96 13 149.5 46.5t93 104t39.5 123.5q0 27 -14 42.5t-35 15.5q-40 0 -90 -54q-85 -92 -143 -278z" />
    <glyph glyph-name="ccedilla" unicode="&#xe7;" horiz-adv-x="704" 
d="M595 187l23 -22q-75 -89 -148 -131q-96 -56 -200 -56q-70 0 -123.5 29.5t-79.5 83.5t-26 111q0 127 69.5 249.5t182.5 194t221 71.5q88 0 132 -38.5t44 -95.5q0 -52 -33 -88t-74 -36q-36 0 -59.5 23t-23.5 55q0 41 42 73q28 21 28 37q0 14 -11 22q-16 13 -41 13
q-64 0 -122 -53q-76 -69 -116 -176t-40 -203q0 -76 41 -121t98 -45q49 0 106.5 25.5t109.5 77.5zM282 0h58l-52 -40q63 -9 93.5 -41t30.5 -77q0 -54 -48.5 -93.5t-154.5 -39.5q-86 0 -149 23l9 24q58 -11 87 -11q52 0 79.5 23.5t27.5 56.5q0 27 -17.5 45t-41.5 18
q-16 0 -42 -5l-10 23z" />
    <glyph glyph-name="egrave" unicode="&#xe8;" horiz-adv-x="704" 
d="M248 290q-8 -50 -8 -82q0 -59 34 -93.5t90 -34.5q55 0 109.5 26.5t126.5 91.5l23 -21q-89 -108 -173.5 -153.5t-186.5 -45.5q-129 0 -178.5 62t-49.5 144q0 127 74 253.5t201 203t255 76.5q66 0 99 -30.5t33 -77.5q0 -57 -33 -111q-44 -72 -112 -116.5t-153 -68.5
q-56 -15 -151 -23zM255 331q68 9 105.5 26.5t73.5 56t62 97t26 109.5q0 21 -12 33.5t-30 12.5q-38 0 -84 -52q-84 -94 -141 -283zM302 1074h228l83 -269h-61z" />
    <glyph glyph-name="eacute" unicode="&#xe9;" horiz-adv-x="704" 
d="M248 290q-8 -50 -8 -82q0 -59 34 -93.5t90 -34.5q55 0 109.5 26.5t126.5 91.5l23 -21q-89 -108 -173.5 -153.5t-186.5 -45.5q-129 0 -178.5 62t-49.5 144q0 127 74 253.5t201 203t255 76.5q66 0 99 -30.5t33 -77.5q0 -57 -33 -111q-44 -72 -112 -116.5t-153 -68.5
q-56 -15 -151 -23zM255 331q68 9 105.5 26.5t73.5 56t62 97t26 109.5q0 21 -12 33.5t-30 12.5q-38 0 -84 -52q-84 -94 -141 -283zM571 1074h238l-260 -271h-69z" />
    <glyph glyph-name="ecircumflex" unicode="&#xea;" horiz-adv-x="704" 
d="M248 290q-8 -50 -8 -82q0 -59 34 -93.5t90 -34.5q55 0 109.5 26.5t126.5 91.5l23 -21q-89 -108 -173.5 -153.5t-186.5 -45.5q-129 0 -178.5 62t-49.5 144q0 127 74 253.5t201 203t255 76.5q66 0 99 -30.5t33 -77.5q0 -57 -33 -111q-44 -72 -112 -116.5t-153 -68.5
q-56 -15 -151 -23zM255 331q68 9 105.5 26.5t73.5 56t62 97t26 109.5q0 21 -12 33.5t-30 12.5q-38 0 -84 -52q-84 -94 -141 -283zM448 1074h176l79 -263h-79l-104 156l-228 -156h-81z" />
    <glyph glyph-name="edieresis" unicode="&#xeb;" horiz-adv-x="704" 
d="M248 290q-8 -50 -8 -82q0 -59 34 -93.5t90 -34.5q55 0 109.5 26.5t126.5 91.5l23 -21q-89 -108 -173.5 -153.5t-186.5 -45.5q-129 0 -178.5 62t-49.5 144q0 127 74 253.5t201 203t255 76.5q66 0 99 -30.5t33 -77.5q0 -57 -33 -111q-44 -72 -112 -116.5t-153 -68.5
q-56 -15 -151 -23zM255 331q68 9 105.5 26.5t73.5 56t62 97t26 109.5q0 21 -12 33.5t-30 12.5q-38 0 -84 -52q-84 -94 -141 -283zM343 1042q42 0 72.5 -29.5t30.5 -73.5q0 -42 -30.5 -72t-72.5 -30t-72.5 30t-30.5 72q0 44 30.5 73.5t72.5 29.5zM631 1042q43 0 73 -30
t30 -73q0 -42 -30.5 -72t-72.5 -30q-43 0 -72.5 30t-29.5 72q0 43 29.5 73t72.5 30z" />
    <glyph glyph-name="igrave" unicode="&#xec;" horiz-adv-x="440" 
d="M407 717l-159 -550q-12 -47 -12 -62q0 -8 6.5 -15.5t14.5 -7.5q13 0 27 11q34 29 83 104l26 -15q-117 -204 -248 -204q-51 0 -80.5 28.5t-29.5 71.5q0 29 13 73l108 370q15 53 15 80q0 17 -15 30.5t-40 13.5q-11 0 -28 -1l10 31l263 42h46zM117 1074h228l83 -269h-61z
" />
    <glyph glyph-name="iacute" unicode="&#xed;" horiz-adv-x="440" 
d="M407 717l-159 -550q-12 -47 -12 -62q0 -8 6.5 -15.5t14.5 -7.5q13 0 27 11q34 29 83 104l26 -15q-117 -204 -248 -204q-51 0 -80.5 28.5t-29.5 71.5q0 29 13 73l108 370q15 53 15 80q0 17 -15 30.5t-40 13.5q-11 0 -28 -1l10 31l263 42h46zM332 1074h238l-260 -271h-69z
" />
    <glyph glyph-name="icircumflex" unicode="&#xee;" horiz-adv-x="440" 
d="M407 717l-159 -550q-12 -47 -12 -62q0 -8 6.5 -15.5t14.5 -7.5q13 0 27 11q34 29 83 104l26 -15q-117 -204 -248 -204q-51 0 -80.5 28.5t-29.5 71.5q0 29 13 73l108 370q15 53 15 80q0 17 -15 30.5t-40 13.5q-11 0 -28 -1l10 31l263 42h46zM283 1074h176l79 -263h-79
l-104 156l-228 -156h-81z" />
    <glyph glyph-name="idieresis" unicode="&#xef;" horiz-adv-x="440" 
d="M407 717l-159 -550q-12 -47 -12 -62q0 -8 6.5 -15.5t14.5 -7.5q13 0 27 11q34 29 83 104l26 -15q-117 -204 -248 -204q-51 0 -80.5 28.5t-29.5 71.5q0 29 13 73l108 370q15 53 15 80q0 17 -15 30.5t-40 13.5q-11 0 -28 -1l10 31l263 42h46zM178 1042q42 0 72.5 -29.5
t30.5 -73.5q0 -42 -30.5 -72t-72.5 -30t-72.5 30t-30.5 72q0 44 30.5 73.5t72.5 29.5zM466 1042q43 0 73 -30t30 -73q0 -42 -30.5 -72t-72.5 -30q-43 0 -72.5 30t-29.5 72q0 43 29.5 73t72.5 30z" />
    <glyph glyph-name="eth" unicode="&#xf0;" 
d="M537 884l-165 -90l-22 44l171 94q-25 53 -37 72.5t-36 49.5l22 20q54 -42 115 -109l163 89l23 -44l-157 -83q134 -192 134 -403q0 -129 -56 -243q-43 -89 -112.5 -156.5t-150 -107t-158.5 -39.5q-110 0 -170.5 59t-60.5 161q0 125 63 242.5t168.5 186.5t184.5 69
q56 0 109 -35q0 72 -5.5 116t-22.5 107zM481 655q-41 0 -70 -26q-52 -47 -110 -202q-72 -197 -72 -319q0 -45 20.5 -67.5t52.5 -22.5q34 0 65 29q60 54 110 194q73 205 73 325q0 44 -19.5 66.5t-49.5 22.5z" />
    <glyph glyph-name="ntilde" unicode="&#xf1;" horiz-adv-x="882" 
d="M423 717l-95 -331q96 145 144 199q70 77 121.5 104.5t95.5 27.5q41 0 69.5 -29.5t28.5 -77.5q0 -44 -19 -105l-99 -331q-12 -43 -12 -57q0 -7 6 -13.5t12 -6.5q8 0 16 7q27 22 55 63q7 11 22 33l30 -18q-113 -192 -239 -192q-48 0 -75 25t-27 63q0 32 18 96l97 331
q10 32 10 48q0 9 -7 15t-16 6q-29 0 -72 -40q-106 -102 -206 -304l-64 -230h-197l144 497q22 73 22 104q0 13 -6.5 22.5t-20.5 14t-52 4.5l8 30l261 45h47zM719 1050h49q-2 -108 -47.5 -161.5t-100.5 -53.5t-165 50q-46 21 -67 21q-22 0 -38 -16.5t-21 -53.5h-51
q6 111 51.5 162.5t103.5 51.5q62 0 165 -50q43 -20 62 -20q23 0 39 16t20 54z" />
    <glyph glyph-name="ograve" unicode="&#xf2;" 
d="M521 717q61 0 114.5 -28t81 -78t27.5 -112q0 -125 -69.5 -250.5t-184.5 -198t-230 -72.5q-106 0 -164 63t-58 153q0 108 43.5 202t109.5 164t152 113.5t178 43.5zM489 677q-41 0 -68 -24q-54 -49 -122 -228.5t-68 -323.5q0 -36 21.5 -59t51.5 -23t53 18q34 28 83.5 125.5
t81.5 214.5t32 215q0 41 -20 63t-45 22zM326 1074h228l83 -269h-61z" />
    <glyph glyph-name="oacute" unicode="&#xf3;" 
d="M521 717q61 0 114.5 -28t81 -78t27.5 -112q0 -125 -69.5 -250.5t-184.5 -198t-230 -72.5q-106 0 -164 63t-58 153q0 108 43.5 202t109.5 164t152 113.5t178 43.5zM489 677q-41 0 -68 -24q-54 -49 -122 -228.5t-68 -323.5q0 -36 21.5 -59t51.5 -23t53 18q34 28 83.5 125.5
t81.5 214.5t32 215q0 41 -20 63t-45 22zM562 1074h238l-260 -271h-69z" />
    <glyph glyph-name="ocircumflex" unicode="&#xf4;" 
d="M521 717q61 0 114.5 -28t81 -78t27.5 -112q0 -125 -69.5 -250.5t-184.5 -198t-230 -72.5q-106 0 -164 63t-58 153q0 108 43.5 202t109.5 164t152 113.5t178 43.5zM489 677q-41 0 -68 -24q-54 -49 -122 -228.5t-68 -323.5q0 -36 21.5 -59t51.5 -23t53 18q34 28 83.5 125.5
t81.5 214.5t32 215q0 41 -20 63t-45 22zM491 1074h176l79 -263h-79l-104 156l-228 -156h-81z" />
    <glyph glyph-name="otilde" unicode="&#xf5;" 
d="M521 717q61 0 114.5 -28t81 -78t27.5 -112q0 -125 -69.5 -250.5t-184.5 -198t-230 -72.5q-106 0 -164 63t-58 153q0 108 43.5 202t109.5 164t152 113.5t178 43.5zM489 677q-41 0 -68 -24q-54 -49 -122 -228.5t-68 -323.5q0 -36 21.5 -59t51.5 -23t53 18q34 28 83.5 125.5
t81.5 214.5t32 215q0 41 -20 63t-45 22zM720 1050h49q-2 -108 -47.5 -161.5t-100.5 -53.5t-165 50q-46 21 -67 21q-22 0 -38 -16.5t-21 -53.5h-51q6 111 51.5 162.5t103.5 51.5q62 0 165 -50q43 -20 62 -20q23 0 39 16t20 54z" />
    <glyph glyph-name="odieresis" unicode="&#xf6;" 
d="M521 717q61 0 114.5 -28t81 -78t27.5 -112q0 -125 -69.5 -250.5t-184.5 -198t-230 -72.5q-106 0 -164 63t-58 153q0 108 43.5 202t109.5 164t152 113.5t178 43.5zM489 677q-41 0 -68 -24q-54 -49 -122 -228.5t-68 -323.5q0 -36 21.5 -59t51.5 -23t53 18q34 28 83.5 125.5
t81.5 214.5t32 215q0 41 -20 63t-45 22zM386 1042q42 0 72.5 -29.5t30.5 -73.5q0 -42 -30.5 -72t-72.5 -30t-72.5 30t-30.5 72q0 44 30.5 73.5t72.5 29.5zM674 1042q43 0 73 -30t30 -73q0 -42 -30.5 -72t-72.5 -30q-43 0 -72.5 30t-29.5 72q0 43 29.5 73t72.5 30z" />
    <glyph glyph-name="divide" unicode="&#xf7;" horiz-adv-x="870" 
d="M462 863q34 0 57 -23t23 -55q0 -33 -23 -56t-57 -23q-31 0 -54.5 23t-23.5 56q0 32 23.5 55t54.5 23zM38 576h847v-102h-847v102zM462 351q33 0 56.5 -23.5t23.5 -55.5q0 -34 -23.5 -57t-56.5 -23q-32 0 -55.5 23t-23.5 57q0 32 23 55.5t56 23.5z" />
    <glyph glyph-name="oslash" unicode="&#xf8;" 
d="M768 677l-56 -56q32 -61 32 -120q0 -128 -70.5 -253t-184 -197.5t-230.5 -72.5q-47 0 -84 12q-28 10 -64 38l-52 -50l-35 35l53 52q-39 66 -39 134q0 126 69.5 250t187 196t231.5 72q39 0 77.5 -14t76.5 -42l53 51zM550 534q5 33 5 55q0 41 -20 63.5t-48 22.5
q-30 0 -55 -15t-60 -68.5t-61 -130.5q-6 -18 -68 -228zM232 149q-2 -24 -2 -41q0 -42 21 -65t52 -23q33 0 60 24q51 46 94 143q22 53 79 261z" />
    <glyph glyph-name="ugrave" unicode="&#xf9;" horiz-adv-x="882" 
d="M421 717l-150 -526q-11 -36 -11 -50q0 -7 5 -11q7 -6 15 -6q35 0 95 63q86 93 179 265l71 236l195 8l-148 -511q-19 -65 -19 -74q0 -6 5.5 -13t12.5 -7q11 0 21 10q28 22 73 90l27 -18q-107 -195 -237 -195q-48 0 -75.5 24.5t-27.5 63.5q0 43 19 107l39 131
q-101 -147 -147 -198q-70 -76 -117.5 -102t-90.5 -26q-42 0 -71.5 30t-29.5 78q0 39 19 105l88 310q22 76 22 102q0 11 -6.5 20.5t-21 14t-52.5 4.5l8 30l264 45h46zM340 1074h228l83 -269h-61z" />
    <glyph glyph-name="uacute" unicode="&#xfa;" horiz-adv-x="882" 
d="M421 717l-150 -526q-11 -36 -11 -50q0 -7 5 -11q7 -6 15 -6q35 0 95 63q86 93 179 265l71 236l195 8l-148 -511q-19 -65 -19 -74q0 -6 5.5 -13t12.5 -7q11 0 21 10q28 22 73 90l27 -18q-107 -195 -237 -195q-48 0 -75.5 24.5t-27.5 63.5q0 43 19 107l39 131
q-101 -147 -147 -198q-70 -76 -117.5 -102t-90.5 -26q-42 0 -71.5 30t-29.5 78q0 39 19 105l88 310q22 76 22 102q0 11 -6.5 20.5t-21 14t-52.5 4.5l8 30l264 45h46zM533 1074h238l-260 -271h-69z" />
    <glyph glyph-name="ucircumflex" unicode="&#xfb;" horiz-adv-x="882" 
d="M421 717l-150 -526q-11 -36 -11 -50q0 -7 5 -11q7 -6 15 -6q35 0 95 63q86 93 179 265l71 236l195 8l-148 -511q-19 -65 -19 -74q0 -6 5.5 -13t12.5 -7q11 0 21 10q28 22 73 90l27 -18q-107 -195 -237 -195q-48 0 -75.5 24.5t-27.5 63.5q0 43 19 107l39 131
q-101 -147 -147 -198q-70 -76 -117.5 -102t-90.5 -26q-42 0 -71.5 30t-29.5 78q0 39 19 105l88 310q22 76 22 102q0 11 -6.5 20.5t-21 14t-52.5 4.5l8 30l264 45h46zM504 1074h176l79 -263h-79l-104 156l-228 -156h-81z" />
    <glyph glyph-name="udieresis" unicode="&#xfc;" horiz-adv-x="882" 
d="M421 717l-150 -526q-11 -36 -11 -50q0 -7 5 -11q7 -6 15 -6q35 0 95 63q86 93 179 265l71 236l195 8l-148 -511q-19 -65 -19 -74q0 -6 5.5 -13t12.5 -7q11 0 21 10q28 22 73 90l27 -18q-107 -195 -237 -195q-48 0 -75.5 24.5t-27.5 63.5q0 43 19 107l39 131
q-101 -147 -147 -198q-70 -76 -117.5 -102t-90.5 -26q-42 0 -71.5 30t-29.5 78q0 39 19 105l88 310q22 76 22 102q0 11 -6.5 20.5t-21 14t-52.5 4.5l8 30l264 45h46zM367 1042q42 0 72.5 -29.5t30.5 -73.5q0 -42 -30.5 -72t-72.5 -30t-72.5 30t-30.5 72q0 44 30.5 73.5
t72.5 29.5zM655 1042q43 0 73 -30t30 -73q0 -42 -30.5 -72t-72.5 -30q-43 0 -72.5 30t-29.5 72q0 43 29.5 73t72.5 30z" />
    <glyph glyph-name="yacute" unicode="&#xfd;" horiz-adv-x="704" 
d="M40 648l239 69q29 -35 40 -67q20 -55 29 -152q16 -190 23 -406q83 109 190 289q32 54 32 102q0 30 -37.5 57t-47 42t-9.5 39q0 40 28.5 68t68.5 28q42 0 73.5 -32t31.5 -76q0 -52 -29 -121t-135 -235q-138 -213 -269 -368q-84 -99 -136 -143t-108 -70q-34 -14 -65 -14
q-45 0 -76.5 31t-31.5 74q0 42 28.5 71t66.5 29q47 0 87 -49q26 -33 43 -33t35 10q23 13 65 57q5 97 5 146q0 68 -7 188l-13 295q-7 81 -35 116q-21 27 -57 27q-12 0 -29 -3v31zM507 1074h238l-260 -271h-69z" />
    <glyph glyph-name="thorn" unicode="&#xfe;" 
d="M193 1030l309 44l-139 -483q82 74 134 100t103 26q73 0 112.5 -55.5t39.5 -137.5q0 -222 -145.5 -384t-307.5 -162q-30 0 -50 5.5t-56 24.5l-38 -140q-22 -80 -22 -118q0 -23 17.5 -38t79.5 -24l-7 -30h-416l7 30q49 1 82 31t63 132l292 1009q20 70 20 102q0 13 -6 22
t-18 13t-54 3v30zM216 80q24 -39 42.5 -51.5t43.5 -12.5q40 0 86 46q72 71 115 192t43 237q0 60 -21 87.5t-51 27.5q-28 0 -51 -15q-36 -20 -83 -75z" />
    <glyph glyph-name="ydieresis" unicode="&#xff;" horiz-adv-x="704" 
d="M40 648l239 69q29 -35 40 -67q20 -55 29 -152q16 -190 23 -406q83 109 190 289q32 54 32 102q0 30 -37.5 57t-47 42t-9.5 39q0 40 28.5 68t68.5 28q42 0 73.5 -32t31.5 -76q0 -52 -29 -121t-135 -235q-138 -213 -269 -368q-84 -99 -136 -143t-108 -70q-34 -14 -65 -14
q-45 0 -76.5 31t-31.5 74q0 42 28.5 71t66.5 29q47 0 87 -49q26 -33 43 -33t35 10q23 13 65 57q5 97 5 146q0 68 -7 188l-13 295q-7 81 -35 116q-21 27 -57 27q-12 0 -29 -3v31zM314 1042q42 0 72.5 -29.5t30.5 -73.5q0 -42 -30.5 -72t-72.5 -30t-72.5 30t-30.5 72
q0 44 30.5 73.5t72.5 29.5zM602 1042q43 0 73 -30t30 -73q0 -42 -30.5 -72t-72.5 -30q-43 0 -72.5 30t-29.5 72q0 43 29.5 73t72.5 30z" />
    <glyph glyph-name="dotlessi" unicode="&#x131;" horiz-adv-x="440" 
d="M407 717l-159 -550q-12 -47 -12 -62q0 -8 6.5 -15.5t14.5 -7.5q13 0 27 11q34 29 83 104l26 -15q-117 -204 -248 -204q-51 0 -80.5 28.5t-29.5 71.5q0 29 13 73l108 370q15 53 15 80q0 17 -15 30.5t-40 13.5q-11 0 -28 -1l10 31l263 42h46z" />
    <glyph glyph-name="OE" unicode="&#x152;" horiz-adv-x="1496" 
d="M991 527l-86 -299q-26 -91 -26 -121q0 -17 14.5 -30t42.5 -13q109 0 222.5 56.5t202.5 166.5h32l-109 -287h-448q-148 0 -191 -2q-172 -7 -177 -7q-109 0 -195.5 48t-130.5 132.5t-44 188.5q0 177 94.5 341.5t258 260.5t333.5 96q56 0 144 -5q42 -3 174 -3h417l-66 -263
h-30q0 96 -60 150t-201 54h-33l-119 -405q123 1 182 35.5t111 130.5h29l-120 -406h-26q7 37 7 64q0 37 -17.5 62.5t-58.5 41t-126 13.5zM820 707l35 119q7 32 7 66q0 50 -29 79t-77 29q-75 0 -125 -43q-117 -99 -208 -310.5t-91 -406.5q0 -72 37.5 -129.5t116.5 -57.5
q68 0 121 49.5t94 190.5z" />
    <glyph glyph-name="oe" unicode="&#x153;" horiz-adv-x="1145" 
d="M688 291q-12 -47 -12 -77q0 -53 38 -93.5t93 -40.5t109.5 28t121.5 93l26 -22q-90 -109 -175.5 -155t-183.5 -46q-74 0 -124 29q-39 22 -76 80q-49 -53 -93 -75q-69 -34 -148 -34q-115 0 -171.5 63t-56.5 159q0 126 70.5 248t183 195.5t223.5 73.5q77 0 119 -26.5
t75 -91.5q83 67 145 92.5t135 25.5q79 0 114.5 -30t35.5 -77q0 -63 -49.5 -136.5t-138 -117t-261.5 -65.5zM482 673q-32 0 -67 -31q-55 -50 -116 -211q-74 -198 -74 -325q0 -41 22 -64t55 -23q40 0 82 49q57 67 113.5 251t56.5 269q0 41 -21 63t-51 22zM694 327
q96 23 147 59.5t85 106.5t34 128q0 23 -11 34t-30 11q-38 0 -93 -60q-83 -92 -132 -279z" />
    <glyph glyph-name="Scaron" unicode="&#x160;" horiz-adv-x="882" 
d="M925 1074l-88 -357h-25q-8 84 -30 135q-33 72 -87 111.5t-116 39.5q-61 0 -106 -46t-45 -104q0 -57 31 -112.5t149 -166.5q93 -89 125 -153.5t32 -139.5q0 -85 -44.5 -156t-130 -110t-194.5 -39q-66 0 -167 19.5t-135 19.5q-26 0 -47 -8t-52 -31h-30l94 400h29
q10 -105 42.5 -179t93 -115.5t138.5 -41.5q76 0 127.5 50.5t51.5 119.5q0 58 -29 111.5t-132.5 155.5t-142.5 183q-28 59 -28 127q0 116 91.5 201.5t240.5 85.5q68 0 177 -31q65 -17 91 -17q23 0 40.5 9.5t41.5 38.5h34zM859 1403l-204 -266h-203l-83 266h92l110 -160
l189 160h99z" />
    <glyph glyph-name="scaron" unicode="&#x161;" horiz-adv-x="617" 
d="M589 717l-33 -239h-29q-6 93 -57 146.5t-108 53.5q-36 0 -59 -20.5t-23 -50.5q0 -25 10 -47t45 -58q122 -132 148.5 -181.5t26.5 -106.5q0 -61 -31.5 -115.5t-93 -87.5t-127.5 -33q-46 0 -111 18q-43 13 -65 13q-20 0 -30.5 -6t-23.5 -25h-29l38 259h25q27 -95 51 -135
t63 -63.5t76 -23.5q42 0 70 27t28 64q0 36 -18.5 70.5t-83.5 106.5q-91 98 -119 152q-20 38 -20 87q0 84 60.5 139.5t169.5 55.5q48 0 119 -16q34 -9 55 -9q30 0 49 25h27zM663 1074l-204 -266h-203l-83 266h92l110 -160l189 160h99z" />
    <glyph glyph-name="Ydieresis" unicode="&#x178;" horiz-adv-x="968" 
d="M419 463l-87 383q-23 99 -55 136q-24 28 -88 39l9 29h504l-10 -29q-73 0 -106.5 -29.5t-33.5 -71.5q0 -25 13 -88l69 -311l170 234q64 89 80.5 126t16.5 65t-20.5 48.5t-68.5 26.5l9 29h316v-29q-44 -5 -74.5 -28t-120.5 -147l-298 -410l-70 -244q-22 -75 -22 -87
q0 -33 25.5 -54.5t85.5 -21.5h29l-7 -29h-538l8 29q58 -1 94 16t54 42q12 19 36 100zM599 1361q42 0 72.5 -29.5t30.5 -73.5q0 -42 -30.5 -72t-72.5 -30t-72.5 30t-30.5 72q0 44 30.5 73.5t72.5 29.5zM887 1361q43 0 73 -30t30 -73q0 -42 -30.5 -72t-72.5 -30
q-43 0 -72.5 30t-29.5 72q0 43 29.5 73t72.5 30z" />
    <glyph glyph-name="Zcaron" unicode="&#x17d;" horiz-adv-x="968" 
d="M1076 1021l-803 -963h63q188 0 302 55t210 183h33l-110 -296h-814v29l802 960h-98q-190 0 -281.5 -47t-155.5 -158h-32l91 266h793v-29zM959 1403l-204 -266h-203l-83 266h92l110 -160l189 160h99z" />
    <glyph glyph-name="zcaron" unicode="&#x17e;" horiz-adv-x="617" 
d="M629 696l-440 -519q50 -15 74 -44q31 -40 45 -117t32 -97t36 -20q12 0 23.5 11t11.5 25q0 15 -10 48q-6 23 -6 43q0 43 27.5 73t65.5 30q35 0 58.5 -26t23.5 -68q0 -65 -58.5 -117.5t-144.5 -52.5q-99 0 -194 92q-39 36 -63 49q-14 7 -36 7q-18 0 -40 -13h-50l449 533
h-161q-69 0 -100 -17.5t-58 -66.5h-32l63 247h484zM663 1074l-204 -266h-203l-83 266h92l110 -160l189 160h99z" />
    <glyph glyph-name="florin" unicode="&#x192;" 
d="M550 607l-78 -387q-53 -261 -94 -355t-112 -150.5t-146 -56.5q-58 0 -89.5 27.5t-31.5 62.5q0 30 23 53t57 23q33 0 55 -19q17 -15 17 -42q0 -9 -3 -18q-7 -18 -7 -23q0 -6 6 -11.5t16 -5.5q22 0 41 24t19 71q0 20 -5 79q-2 34 -2 63q0 61 5 103.5t26 146.5l85 415h-111
l19 94q76 0 115 31t80.5 143t98.5 155q55 44 135 44q60 0 92 -28t32 -71q0 -38 -24 -63t-59 -25q-29 0 -49 19.5t-20 44.5q0 16 21 59q4 7 4 12q0 6 -6 11t-15 5q-28 0 -50.5 -27.5t-22.5 -79.5q0 -31 3.5 -72.5t3.5 -61.5q0 -35 -11 -96h119l-18 -94h-119z" />
    <glyph glyph-name="afii57929" unicode="&#x2bc;" horiz-adv-x="600" 
d="M126 569l-17 32q118 67 147 102q22 27 22 55q0 30 -40 66.5t-53 62.5q-10 19 -10 50q0 50 37.5 86.5t91.5 36.5q51 0 89.5 -41.5t38.5 -101.5q0 -97 -74 -191t-232 -157z" />
    <glyph glyph-name="circumflex" unicode="&#x2c6;" horiz-adv-x="528" 
d="M354 1074h176l79 -263h-79l-104 156l-228 -156h-81z" />
    <glyph glyph-name="caron" unicode="&#x2c7;" horiz-adv-x="528" 
d="M663 1074l-204 -266h-203l-83 266h92l110 -160l189 160h99z" />
    <glyph glyph-name="ring" unicode="&#x2da;" horiz-adv-x="528" 
d="M421 1104q67 0 114 -47t47 -115q0 -66 -47 -113t-114 -47q-66 0 -113.5 47t-47.5 113q0 68 47 115t114 47zM421 1046q-42 0 -72.5 -30t-30.5 -74q0 -42 30.5 -72.5t72.5 -30.5q43 0 73.5 30.5t30.5 72.5q0 44 -30.5 74t-73.5 30z" />
    <glyph glyph-name="tilde" unicode="&#x2dc;" horiz-adv-x="528" 
d="M582 1050h49q-2 -108 -47.5 -161.5t-100.5 -53.5t-165 50q-46 21 -67 21q-22 0 -38 -16.5t-21 -53.5h-51q6 111 51.5 162.5t103.5 51.5q62 0 165 -50q43 -20 62 -20q23 0 39 16t20 54z" />
    <glyph glyph-name="u0901" unicode="&#x901;" horiz-adv-x="0" 
d="M17 1400l-120 -100l-80 100l120 100zM219 1260q-70 -78 -162.5 -119t-190.5 -41q-89 0 -160.5 65.5t-100.5 174.5l56 30q18 -66 76 -108t133 -42q60 0 125 33t122 97z" />
    <glyph glyph-name="u0902" unicode="&#x902;" horiz-adv-x="0" 
d="M41 1340l-152 -126l-98 126l149 124z" />
    <glyph glyph-name="u0903" unicode="&#x903;" horiz-adv-x="580" 
d="M442 640l-156 -130l-104 130l157 130zM345 160l-157 -130l-105 120l156 130z" />
    <glyph glyph-name="u0904" unicode="&#x904;" horiz-adv-x="1292" 
d="M1362 840h-167l-171 -840l-159 100l57 280q-35 -20 -85 -20q-41 0 -90.5 24t-90.5 66q24 -50 24 -102q0 -99 -80.5 -193.5t-203.5 -94.5q-132 0 -233 108.5t-147 281.5l68 40q31 -118 105.5 -191t170.5 -73q87 0 154 68t67 146q0 42 -23 70q-112 -58 -223 -66l-31 146
q70 0 174 32t135.5 85.5t31.5 92.5q0 35 -27.5 57.5t-74.5 22.5q-119 0 -272 -110l-64 130q142 100 261 100q113 0 199.5 -79t86.5 -166q0 -58 -36 -114t-92 -91q50 -40 182 -40q71 0 156 80l51 250h-120l-57 160h467zM1156 1000h-50q4 21 4 40q0 58 -40 99t-108 41h-180
q-94 0 -148.5 71t-54.5 168q0 39 8 81h60q-2 -12 -2 -23q0 -52 48.5 -89.5t123.5 -37.5h180q81 0 126 -70.5t45 -170.5q0 -51 -12 -109z" />
    <glyph glyph-name="u0905" unicode="&#x905;" horiz-adv-x="1292" 
d="M1362 840h-167l-171 -840l-159 100l57 280q-35 -20 -85 -20q-41 0 -90.5 24t-90.5 66q24 -50 24 -102q0 -99 -80.5 -193.5t-203.5 -94.5q-132 0 -233 108.5t-147 281.5l68 40q31 -118 105.5 -191t170.5 -73q87 0 154 68t67 146q0 42 -23 70q-112 -58 -223 -66l-31 146
q70 0 174 32t135.5 85.5t31.5 92.5q0 35 -27.5 57.5t-74.5 22.5q-119 0 -272 -110l-64 130q142 100 261 100q113 0 199.5 -79t86.5 -166q0 -58 -36 -114t-92 -91q50 -40 182 -40q71 0 156 80l51 250h-120l-57 160h467z" />
    <glyph glyph-name="u0906" unicode="&#x906;" horiz-adv-x="1792" 
d="M1515 840h-320l-171 -840l-159 100l57 280q-35 -20 -85 -20q-41 0 -90.5 24t-90.5 66q24 -50 24 -102q0 -99 -80.5 -193.5t-203.5 -94.5q-132 0 -233 108.5t-147 281.5l68 40q31 -118 105.5 -191t170.5 -73q87 0 154 68t67 146q0 42 -23 70q-112 -58 -223 -66l-31 146
q70 0 174 32t135.5 85.5t31.5 92.5q0 35 -27.5 57.5t-74.5 22.5q-119 0 -272 -110l-64 130q142 100 261 100q113 0 199.5 -79t86.5 -166q0 -58 -36 -114t-92 -91q50 -40 182 -40q71 0 156 80l51 250h-120l-57 160h967l57 -160h-167l-171 -840l-155 120z" />
    <glyph glyph-name="u0907" unicode="&#x907;" horiz-adv-x="788" 
d="M209 478q0 -12 5.5 -25t15.5 -13q42 0 124 20t124 20q57 0 110.5 -73t53.5 -137q0 -93 -99 -187.5t-261 -122.5l85 -220l-100 -50l-49 250q-91 0 -150.5 40.5t-59.5 96.5q0 44 31 78.5t70 34.5q68 0 106 -70q84 0 160 33t105.5 75t29.5 72q0 20 -15 20q-29 0 -88 -20
t-90 -20q-85 0 -153.5 88.5t-67.5 176.5q0 87 62 141t133 54h220l20 100h-531l-57 160h858l57 -160h-147l-49 -240h-330q-48 0 -85.5 -41t-37.5 -81z" />
    <glyph glyph-name="u0908" unicode="&#x908;" horiz-adv-x="788" 
d="M209 478q0 -12 5.5 -25t15.5 -13q42 0 124 20t124 20q57 0 110.5 -73t53.5 -137q0 -93 -99 -187.5t-261 -122.5l85 -220l-100 -50l-49 250q-91 0 -150.5 40.5t-59.5 96.5q0 44 31 78.5t70 34.5q68 0 106 -70q84 0 160 33t105.5 75t29.5 72q0 20 -15 20q-29 0 -88 -20
t-90 -20q-85 0 -153.5 88.5t-67.5 176.5q0 87 62 141t133 54h220l20 100h-531l-57 160h858l57 -160h-147l-49 -240h-330q-48 0 -85.5 -41t-37.5 -81zM882 1242l-64 -10q-6 54 -29.5 81t-66.5 27q-46 0 -82 -40t-35 -104q0 -78 68 -196h-80q-38 59 -61 129.5t-23 121.5
q0 102 64 170.5t145 68.5q80 0 121 -62t43 -186z" />
    <glyph glyph-name="u0909" unicode="&#x909;" horiz-adv-x="820" 
d="M890 840h-279q83 -82 83 -166q0 -97 -130 -164q59 -40 92 -93.5t33 -108.5q0 -100 -84.5 -179t-194.5 -79q-125 0 -235 97t-171 263l58 40q88 -230 283 -230q76 0 133.5 51t57.5 109q-1 52 -60 90q-92 -30 -176 -30l-60 150q24 -2 47 -2q92 0 176.5 37t84.5 115
q-1 63 -57 100h-491l-57 160h890z" />
    <glyph glyph-name="u090A" unicode="&#x90a;" horiz-adv-x="1184" 
d="M904 20l-129 100q173 180 196 327q0 33 -43 33q-69 0 -240 -158q6 -105 -79.5 -188.5t-198.5 -83.5q-125 0 -235 97t-171 263l58 40q88 -230 283 -230q85 0 137.5 51.5t52.5 105.5t-59 93q-92 -30 -176 -30l-60 150q24 -2 47 -2q96 0 178 38t83 111q0 60 -57 103h-491
l-57 160h1254l57 -160h-643q83 -82 83 -166q0 -97 -130 -164q29 -19 45 -34q179 122 279 122q64 0 123 -80.5t59 -155.5q0 -54 -41 -146t-125 -196zM820 0z" />
    <glyph glyph-name="u090B" unicode="&#x90b;" horiz-adv-x="1292" 
d="M1362 840h-563l-49 -240q40 -20 92 -20q43 0 81 22q-14 35 -14 82q0 46 27 71t51 25q54 0 95.5 -48t42.5 -89q0 -69 -87 -103q124 -196 124 -305q0 -80 -63.5 -142.5t-144.5 -62.5q-110 0 -177 160l48 40q35 -60 88 -60q26 0 53.5 28.5t27.5 119.5q0 105 -40 202
q-55 -20 -124 -20q-55 0 -96 20l-106 -520l-151 140l38 190l-414 -220l-62 140l509 240q-87 100 -180 100q-36 0 -212 -60l-91 140q164 70 264 70q110 0 237 -160l53 260h-619l-57 160h1362z" />
    <glyph glyph-name="u090C" unicode="&#x90c;" horiz-adv-x="1116" 
d="M1186 840h-263l-30 -150q74 -29 107.5 -91t33.5 -119q0 -85 -67.5 -194t-215.5 -166q-105 -40 -157 -81t-52 -84q0 -38 41 -61.5t103 -23.5q101 0 228 90l56 -120q-150 -104 -291 -104q-84 0 -149.5 83t-65.5 168q-1 75 48 144t213 129q106 39 153 117.5t47 140.5
q0 36 -18.5 54t-54.5 18q-80 0 -165.5 -88t-147.5 -222l-146 70q11 24 103 160q-38 70 -106 70t-121 -66t-53 -140q0 -63 40 -141.5t113 -152.5l-63 -60q-123 100 -187 207t-64 201q-1 115 88.5 203.5t205.5 88.5q110 0 201 -140q110 120 215 120l28 140h-793l-57 160h1186z
" />
    <glyph glyph-name="u090D" unicode="&#x90d;" horiz-adv-x="826" 
d="M896 840h-117l-81 -400q-13 -63 -94.5 -106.5t-186.5 -43.5l-35 120q18 -7 38 -7q33 0 65.5 21t40.5 56l73 360h-240l-93 -460q-4 -17 -4 -32q0 -43 25 -88.5t60 -69.5l263 -180q41 -28 75 -72t34 -76q0 -30 -35.5 -69.5t-92.5 -72.5l-135 120q77 42 77 88
q0 26 -36.5 62.5t-78.5 59.5l-233 130q-43 24 -74.5 69.5t-31.5 87.5q0 12 2 23l98 480h-179l-57 160h896zM841 1330q-54 -94 -144.5 -152t-188.5 -58q-94 0 -161 76t-74 194l64 20q4 -66 52 -108t118 -42q56 0 120 43.5t112 116.5z" />
    <glyph glyph-name="u090E" unicode="&#x90e;" horiz-adv-x="826" 
d="M896 840h-117l-81 -400q-13 -63 -94.5 -106.5t-186.5 -43.5l-35 120q18 -7 38 -7q33 0 65.5 21t40.5 56l73 360h-240l-93 -460q-4 -17 -4 -32q0 -43 25 -88.5t60 -69.5l263 -180q41 -28 75 -72t34 -76q0 -30 -35.5 -69.5t-92.5 -72.5l-135 120q77 42 77 88
q0 26 -36.5 62.5t-78.5 59.5l-233 130q-43 24 -74.5 69.5t-31.5 87.5q0 12 2 23l98 480h-179l-57 160h896zM746 1000h-50q4 21 4 40q0 58 -40 99t-108 41h-180q-94 0 -148.5 71t-54.5 168q0 39 8 81h60q-2 -12 -2 -23q0 -52 48.5 -89.5t123.5 -37.5h180q81 0 126 -70.5
t45 -170.5q0 -51 -12 -109z" />
    <glyph glyph-name="u090F" unicode="&#x90f;" horiz-adv-x="826" 
d="M896 840h-117l-81 -400q-13 -63 -94.5 -106.5t-186.5 -43.5l-35 120q18 -7 38 -7q33 0 65.5 21t40.5 56l73 360h-240l-93 -460q-4 -17 -4 -32q0 -43 25 -88.5t60 -69.5l263 -180q41 -28 75 -72t34 -76q0 -30 -35.5 -69.5t-92.5 -72.5l-135 120q77 42 77 88
q0 26 -36.5 62.5t-78.5 59.5l-233 130q-43 24 -74.5 69.5t-31.5 87.5q0 12 2 23l98 480h-179l-57 160h896z" />
    <glyph glyph-name="u0910" unicode="&#x910;" horiz-adv-x="826" 
d="M896 840h-117l-81 -400q-13 -63 -94.5 -106.5t-186.5 -43.5l-35 120q18 -7 38 -7q33 0 65.5 21t40.5 56l73 360h-240l-93 -460q-4 -17 -4 -32q0 -43 25 -88.5t60 -69.5l263 -180q41 -28 75 -72t34 -76q0 -30 -35.5 -69.5t-92.5 -72.5l-135 120q77 42 77 88
q0 26 -36.5 62.5t-78.5 59.5l-233 130q-43 24 -74.5 69.5t-31.5 87.5q0 12 2 23l98 480h-179l-57 160h896zM760 1000h-80l-139 250q-36 64 -135 64q-36 0 -85 -14l-46 170q37 16 76 16q80 0 147 -47.5t113 -138.5z" />
    <glyph glyph-name="u0911" unicode="&#x911;" horiz-adv-x="1792" 
d="M1515 840h-320l-171 -840l-159 100l57 280q-35 -20 -85 -20q-41 0 -90.5 24t-90.5 66q24 -50 24 -102q0 -99 -80.5 -193.5t-203.5 -94.5q-132 0 -233 108.5t-147 281.5l68 40q31 -118 105.5 -191t170.5 -73q87 0 154 68t67 146q0 42 -23 70q-112 -58 -223 -66l-31 146
q70 0 174 32t135.5 85.5t31.5 92.5q0 35 -27.5 57.5t-74.5 22.5q-119 0 -272 -110l-64 130q142 100 261 100q113 0 199.5 -79t86.5 -166q0 -58 -36 -114t-92 -91q50 -40 182 -40q71 0 156 80l51 250h-120l-57 160h967l57 -160h-167l-171 -840l-155 120zM1728 1330
q-54 -94 -144.5 -152t-188.5 -58q-94 0 -161 76t-74 194l64 20q4 -66 52 -108t118 -42q56 0 120 43.5t112 116.5z" />
    <glyph glyph-name="u0912" unicode="&#x912;" horiz-adv-x="1792" 
d="M1515 840h-320l-171 -840l-159 100l57 280q-35 -20 -85 -20q-41 0 -90.5 24t-90.5 66q24 -50 24 -102q0 -99 -80.5 -193.5t-203.5 -94.5q-132 0 -233 108.5t-147 281.5l68 40q31 -118 105.5 -191t170.5 -73q87 0 154 68t67 146q0 42 -23 70q-112 -58 -223 -66l-31 146
q70 0 174 32t135.5 85.5t31.5 92.5q0 35 -27.5 57.5t-74.5 22.5q-119 0 -272 -110l-64 130q142 100 261 100q113 0 199.5 -79t86.5 -166q0 -58 -36 -114t-92 -91q50 -40 182 -40q71 0 156 80l51 250h-120l-57 160h967l57 -160h-167l-171 -840l-155 120zM1657 1000h-50
q4 21 4 40q0 58 -40 99t-108 41h-180q-94 0 -148.5 71t-54.5 168q0 39 8 81h60q-2 -12 -2 -23q0 -52 48.5 -89.5t123.5 -37.5h180q81 0 126 -70.5t45 -170.5q0 -51 -12 -109z" />
    <glyph glyph-name="u0913" unicode="&#x913;" horiz-adv-x="1792" 
d="M1515 840h-320l-171 -840l-159 100l57 280q-35 -20 -85 -20q-41 0 -90.5 24t-90.5 66q24 -50 24 -102q0 -99 -80.5 -193.5t-203.5 -94.5q-132 0 -233 108.5t-147 281.5l68 40q31 -118 105.5 -191t170.5 -73q87 0 154 68t67 146q0 42 -23 70q-112 -58 -223 -66l-31 146
q70 0 174 32t135.5 85.5t31.5 92.5q0 35 -27.5 57.5t-74.5 22.5q-119 0 -272 -110l-64 130q142 100 261 100q113 0 199.5 -79t86.5 -166q0 -58 -36 -114t-92 -91q50 -40 182 -40q71 0 156 80l51 250h-120l-57 160h967l57 -160h-167l-171 -840l-155 120zM1687 1000h-80
l-139 250q-36 64 -135 64q-36 0 -85 -14l-46 170q37 16 76 16q80 0 147 -47.5t113 -138.5z" />
    <glyph glyph-name="u0914" unicode="&#x914;" horiz-adv-x="1792" 
d="M1515 840h-320l-171 -840l-159 100l57 280q-35 -20 -85 -20q-41 0 -90.5 24t-90.5 66q24 -50 24 -102q0 -99 -80.5 -193.5t-203.5 -94.5q-132 0 -233 108.5t-147 281.5l68 40q31 -118 105.5 -191t170.5 -73q87 0 154 68t67 146q0 42 -23 70q-112 -58 -223 -66l-31 146
q70 0 174 32t135.5 85.5t31.5 92.5q0 35 -27.5 57.5t-74.5 22.5q-119 0 -272 -110l-64 130q142 100 261 100q113 0 199.5 -79t86.5 -166q0 -58 -36 -114t-92 -91q50 -40 182 -40q71 0 156 80l51 250h-120l-57 160h967l57 -160h-167l-171 -840l-155 120zM1710 1000h-110
q-156 160 -298 160q-87 0 -135 -24l-45 170q53 24 105 24q112 0 409 -300h20l-66 170q-54 140 -111 140q-60 0 -96 -30l-68 160q60 22 127 22q137 0 183 -172z" />
    <glyph glyph-name="u0915" unicode="&#x915;" horiz-adv-x="1274" 
d="M993.5 343q38.5 65 38.5 99q0 25 -15 41.5t-41 16.5q-121 0 -244 -120l-78 -380l-157 110l34 170q-141 -100 -230 -100q-94 0 -172 92.5t-77 183.5q-1 110 93.5 192t217.5 82q109 0 223 -180l59 290h-645l-57 160h1344l57 -160h-519l-49 -240q97 50 190 50
q75 0 134 -86.5t59 -172.5q0 -68 -43.5 -164t-123.5 -187l-137 110q100 128 138.5 193zM580 470q-81 100 -190 100q-70 0 -126 -53.5t-56 -116.5q0 -35 18 -52.5t55 -17.5q100 0 161 50z" />
    <glyph glyph-name="u0916" unicode="&#x916;" horiz-adv-x="1400" 
d="M1470 840h-167l-171 -840l-157 110l18 90q-126 -105 -240 -162.5t-195 -57.5q-156 0 -339 214.5t-182 309.5q-1 32 20.5 59t44.5 27q53 0 100 -50q23 14 40 100l41 200h-283l-57 160h1470zM1009 280l16 80q-174 -90 -238 -90q-111 0 -180.5 64.5t-69.5 154.5
q-1 116 94.5 193.5t215.5 77.5q119 0 231 -140l45 220h-660l-57 -280q-30 -145 -153 -210q52 -104 128.5 -167t155.5 -63q116 0 241 41.5t231 118.5zM1072 540q-49 90 -212 90q-76 0 -134 -55t-57 -106q0 -22 21.5 -40.5t55.5 -18.5q140 0 326 130z" />
    <glyph glyph-name="u0917" unicode="&#x917;" horiz-adv-x="940" 
d="M663 840h-260l-100 -490q-6 -27 -22.5 -48.5t-31.5 -21.5q-61 0 -136 86t-75 147q0 34 28 50.5t64 16.5h60l53 260h-243l-57 160h1010l57 -160h-167l-171 -840l-159 100z" />
    <glyph glyph-name="u0918" unicode="&#x918;" horiz-adv-x="1020" 
d="M1090 840h-167l-171 -840l-157 110l30 150q-141 -100 -260 -100q-100 0 -184 97.5t-83 190.5q0 59 35.5 104.5t106.5 77.5q-61 26 -91.5 58t-30.5 70q0 46 35 82h-153l-57 160h1090zM672 490l71 350h-354q-48 0 -71 -30.5t-23 -66.5q0 -45 38 -83q84 20 138 20l29 -150
q-109 0 -193.5 -42.5t-83.5 -96.5q-1 -27 30 -44t66 -17q160 0 353 160z" />
    <glyph glyph-name="u0919" unicode="&#x919;" horiz-adv-x="1102" 
d="M1172 840h-361l-53 -260h-340q-55 0 -98 -34t-43 -71q0 -18 13 -26.5t40 -8.5q37 0 129 16q80 14 127 14q67 0 129 -77.5t63 -144.5q0 -96 -107 -172t-251 -76q-117 0 -234 81.5t-205 218.5l60 50q60 -94 147 -147t183 -53q109 0 193 42t84 96q0 16 -11 24t-32 8
q-39 0 -118 -20t-120 -20q-71 0 -135 98t-64 182q0 74 50 122t111 48h300l22 110h-651l-57 160h1172zM1088 518l-150 -124l-100 124l151 126zM914 0z" />
    <glyph glyph-name="u091A" unicode="&#x91a;" horiz-adv-x="1128" 
d="M1031 840l-171 -840l-153 130l30 150q-69 -65 -156.5 -102.5t-171.5 -37.5q-76 0 -152 85.5t-76 158.5q0 38 19 82.5t50 73.5h-130l-57 160h590l57 -160h-180q-96 -19 -152 -80t-56 -117q-1 -30 22 -51.5t61 -21.5q79 0 179 61t198 169l69 340h-851l-57 160h1198l57 -160
h-167z" />
    <glyph glyph-name="u091B" unicode="&#x91b;" horiz-adv-x="1100" 
d="M907 730q104 -87 104 -203q0 -83 -62.5 -205t-204.5 -222t-306 -100q-153 0 -250 70.5t-97 167.5q0 48 27 88.5t82 73.5q-59 47 -88.5 95.5t-29.5 99.5q-1 76 81.5 126.5t181.5 50.5q20 0 40 -2l35 -170h-100q-43 0 -74 -24.5t-31 -55.5q-1 -20 14 -39.5t41 -30.5
q76 30 146 30l47 -160q-93 -8 -158.5 -42t-64.5 -79q0 -28 33 -48.5t82 -20.5q219 0 360 150q-80 41 -123.5 104.5t-43.5 131.5q0 79 52.5 150t130.5 84l18 90h-749l-57 160h1170l57 -160h-241zM878 540q3 13 3 26q0 32 -14 48t-41 16q-53 0 -94.5 -41t-41.5 -106
q0 -91 75 -153q89 84 113 210z" />
    <glyph glyph-name="u091C" unicode="&#x91c;" horiz-adv-x="1152" 
d="M1222 840h-167l-171 -840l-159 100l85 420h-250q58 -94 58 -180q0 -89 -57.5 -144.5t-127.5 -55.5q-125 0 -226.5 135t-156.5 345l66 30q36 -138 106.5 -224t150.5 -86q38 0 70 30.5t32 102.5q0 113 -96 191l38 36h430l28 140h-875l-57 160h1222z" />
    <glyph glyph-name="u091D" unicode="&#x91d;" horiz-adv-x="1216" 
d="M1286 840h-167l-171 -840l-155 120l55 270q-54 -30 -107 -30q-66 0 -135 20q26 -44 26 -95q0 -117 -113 -213.5t-269 -111.5l62 -136l-99 -44l-35 170q-78 0 -131 36t-53 84q0 41 32.5 78.5t79.5 37.5q46 0 95 -76q91 -8 167.5 27t107 78.5t30.5 70.5q0 24 -35 24
q-32 0 -94 -20t-94 -20q-64 0 -121.5 97.5t-57.5 180.5q0 80 55 136t120 56h240l20 100h-539l-57 160h1286zM882 560l57 280h-240l-49 -240h-300q-53 0 -96 -31t-43 -70q0 -23 21.5 -41t55.5 -18q29 0 99 16q62 14 97 14q70 0 102 -40q109 0 296 130z" />
    <glyph glyph-name="u091E" unicode="&#x91e;" horiz-adv-x="1146" 
d="M1216 840h-167l-171 -840l-159 100l57 280q-79 -20 -115 -20q-26 -90 -110 -150t-182 -60q-91 0 -186.5 87.5t-168.5 232.5l68 40q31 -86 97.5 -138t143.5 -52q95 0 167 65.5t72 133.5q-1 27 -17 44t-45 17q-94 0 -164 -100l-90 150q62 90 199 90q119 0 227 -210
q91 16 138 40l59 290h-869l-57 160h1216z" />
    <glyph glyph-name="u091F" unicode="&#x91f;" horiz-adv-x="836" 
d="M906 840h-215l-45 -220q-8 -39 -41.5 -64.5t-76.5 -25.5q-151 -14 -257.5 -99.5t-106.5 -178.5q0 -44 32 -78t83 -34q180 0 366 130l84 -130q-193 -140 -329 -140q-158 0 -263.5 97.5t-105.5 220.5q0 131 109 224.5t255 117.5q51 8 81 33t39 67l16 80h-531l-57 160h906z
" />
    <glyph glyph-name="u0920" unicode="&#x920;" horiz-adv-x="888" 
d="M958 840h-243q18 -34 18 -82q0 -62 -23.5 -103.5t-78.5 -80.5q142 -91 142 -216q0 -61 -41.5 -144t-131 -148.5t-196.5 -65.5q-156 0 -260 104t-104 235q0 149 117 245t266 96q55 0 96.5 27.5t41.5 73.5q0 34 -26 59h-535l-57 160h958zM512 530q-132 0 -235 -77
t-103 -178q0 -56 38 -95.5t101 -39.5q94 0 172 47.5t113.5 108t35.5 106.5q0 40 -33 76t-89 52z" />
    <glyph glyph-name="u0921" unicode="&#x921;" horiz-adv-x="914" 
d="M984 840h-173l-53 -260h-340q-55 0 -98 -34t-43 -71q0 -18 13 -26.5t40 -8.5q37 0 129 16q80 14 127 14q67 0 129 -77.5t63 -144.5q0 -96 -107 -172t-251 -76q-117 0 -234 81.5t-205 218.5l60 50q60 -94 147 -147t183 -53q109 0 193 42t84 96q0 16 -11 24t-32 8
q-39 0 -118 -20t-120 -20q-71 0 -135 98t-64 182q0 74 50 122t111 48h300l22 110h-651l-57 160h984z" />
    <glyph glyph-name="u0922" unicode="&#x922;" horiz-adv-x="896" 
d="M966 840h-171l-51 -250h-320q-93 0 -170 -78.5t-77 -174.5q0 -60 34 -111.5t94 -75.5q-19 31 -19 78q-1 107 84 179.5t192 72.5q76 0 131 -77t55 -160q0 -117 -96.5 -180t-207.5 -63q-146 0 -266.5 142t-120.5 283q0 136 103.5 225.5t234.5 89.5h200l20 100h-615l-57 160
h966zM375 150h40q84 0 150.5 43.5t67.5 102.5q0 23 -15.5 38.5t-42.5 15.5q-82 0 -144 -63.5t-56 -136.5z" />
    <glyph glyph-name="u0923" unicode="&#x923;" horiz-adv-x="1196" 
d="M919 840h-200l-83 -410q-21 -103 -100.5 -176.5t-170.5 -73.5q-100 0 -191 95.5t-91 175.5q0 15 3 29l73 360h-159l-57 160h1266l57 -160h-167l-171 -840l-157 110zM466 480l73 360h-200l-93 -460q-6 -25 5.5 -42.5t41.5 -17.5q57 0 108 46t65 114z" />
    <glyph glyph-name="u0924" unicode="&#x924;" horiz-adv-x="904" 
d="M974 840h-167l-171 -840l-155 120l85 420h-180q-74 0 -136 -59t-62 -159q0 -135 105 -242l-73 -60q-78 99 -119 204t-41 198q0 137 88.5 207.5t190.5 70.5h260l28 140h-627l-57 160h974z" />
    <glyph glyph-name="u0925" unicode="&#x925;" horiz-adv-x="1072" 
d="M1142 840h-167l-171 -840l-155 120l28 140q-146 -120 -304 -120q-109 0 -198 87.5t-127 232.5q157 0 254 70q-88 35 -137.5 100.5t-49.5 136.5q-1 98 79 170.5t186 72.5q107 0 179 -82.5t72 -180.5q0 -133 -127 -240.5t-301 -166.5q12 -40 30.5 -60t43.5 -20
q116 0 239 67.5t212 182.5l67 330h-60l-57 160h407zM350 570q91 76 127.5 149.5t36.5 117.5q-1 19 -22.5 29t-51.5 10q-67 0 -124.5 -57t-57.5 -123q0 -38 25 -73.5t67 -52.5z" />
    <glyph glyph-name="u0926" unicode="&#x926;" horiz-adv-x="844" 
d="M914 840h-145l-57 -280h-350q-75 0 -139 -62t-64 -137q-1 -56 50 -97.5t128 -41.5q36 0 66.5 13.5t30.5 30.5q-1 1 -1.5 3t-3 9.5t-3.5 17t-1 20.5q0 51 45.5 72.5t91.5 21.5q57 0 91 -39.5t34 -92.5q0 -93 -110 -138l83 -230l-118 -40l-19 250q-67 -10 -122 -10
q-130 0 -239.5 110t-109.5 218q0 99 79 190.5t184 91.5h250l24 120h-589l-57 160h914z" />
    <glyph glyph-name="u0927" unicode="&#x927;" horiz-adv-x="1046" 
d="M624 120l32 160q-200 -120 -304 -120q-102 0 -188.5 83t-87.5 167q0 69 59 129.5t140 80.5q-71 28 -109.5 78.5t-38.5 107.5q0 85 75 154.5t167 69.5q79 0 127.5 -43.5t49.5 -103.5q-1 -78 -66.5 -140.5t-151.5 -62.5q5 -17 49 -28.5t102 -11.5l48 -160h-110
q-86 0 -154.5 -36t-68.5 -82q0 -23 30.5 -42.5t75.5 -19.5q169 0 399 190l71 350h-80l-67 160h436l57 -160h-166l-171 -840zM484 870q0 35 -21 52.5t-63 17.5q-50 0 -89 -45t-39 -97q0 -23 13.5 -40.5t34.5 -17.5q66 0 115 38.5t49 91.5z" />
    <glyph glyph-name="u0928" unicode="&#x928;" horiz-adv-x="866" 
d="M936 840h-167l-171 -840l-159 100l65 320h-220q-18 0 -32 -14.5t-18 -35.5l-15 -70q-4 -20 -16 -30t-32 -10q-51 0 -93 70t-42 133q0 58 31 87.5t69 29.5h400l53 260h-589l-57 160h936z" />
    <glyph glyph-name="u0929" unicode="&#x929;" horiz-adv-x="866" 
d="M936 840h-167l-171 -840l-159 100l65 320h-220q-18 0 -32 -14.5t-18 -35.5l-15 -70q-4 -20 -16 -30t-32 -10q-51 0 -93 70t-42 133q0 58 31 87.5t69 29.5h400l53 260h-589l-57 160h936zM157 25l-149 -124l-101 124l152 126z" />
    <glyph glyph-name="u092A" unicode="&#x92a;" horiz-adv-x="926" 
d="M996 840h-167l-171 -840l-159 100l44 220q-85 -80 -196 -80q-89 0 -172.5 88.5t-90.5 191.5l65 320h-149l-57 160h996zM591 554l58 286h-320l-77 -380q-6 -25 4 -47.5t42 -22.5q84 0 163 43t130 121z" />
    <glyph glyph-name="u092B" unicode="&#x92b;" horiz-adv-x="1262" 
d="M700 400l-82 -400l-159 100l40 200q-81 -60 -172 -60q-62 0 -134 74.5t-93 129.5t-16 76l65 320h-149l-57 160h1332l57 -160h-543l-47 -230q97 80 197 80q75 0 147.5 -96.5t72.5 -178.5q0 -53 -39 -138.5t-125 -196.5l-146 120q108 80 155 175t47 137q0 19 -10.5 28.5
t-30.5 9.5q-102 0 -310 -150zM540 500l69 340h-280l-81 -400q-5 -23 7 -41.5t31 -18.5q58 0 254 120z" />
    <glyph glyph-name="u092C" unicode="&#x92c;" horiz-adv-x="996" 
d="M1009 1000l57 -160h-167l-171 -840l-157 110l30 150q-99 -80 -266 -80q-123 0 -204.5 74.5t-81.5 169.5q0 119 106 217.5t244 98.5q170 0 273 -130l47 230h-719l-57 160h1066zM382 606l105 -266q84 29 127.5 80.5t43.5 97.5q0 43 -45 72.5t-119 29.5q-60 0 -112 -14z
M403 320l-107 260q-81 -36 -114 -92.5t-32 -95.5q0 -37 33 -64.5t86 -27.5q76 0 134 20z" />
    <glyph glyph-name="u092D" unicode="&#x92d;" horiz-adv-x="1120" 
d="M1190 840h-167l-171 -840l-159 100l48 240h-280l-12 -60q-7 -33 -30 -56.5t-46 -23.5q-62 0 -137.5 82.5t-75.5 141.5q0 32 28.5 54t65.5 22h60l12 60q-109 20 -173.5 86.5t-64.5 148.5q0 92 70.5 158.5t161.5 66.5q85 0 155.5 -81.5t71.5 -161.5q0 -18 -4 -37l-49 -240
h280l69 340h-200l-67 160h557zM401 830q3 11 3 23q0 23 -12.5 40t-34.5 17q-47 0 -86 -41.5t-39 -97.5q-1 -47 32 -86.5t86 -54.5q37 140 51 200z" />
    <glyph glyph-name="u092E" unicode="&#x92e;" horiz-adv-x="982" 
d="M1052 840h-167l-171 -840l-155 120l44 220h-300l-16 -80q-12 -60 -52 -60q-45 0 -123 96t-77 144q0 23 19 41.5t42 18.5h60l69 340h-225l-57 160h1052zM636 500l69 340h-300l-69 -340h300z" />
    <glyph glyph-name="u092F" unicode="&#x92f;" horiz-adv-x="978" 
d="M1048 840h-167l-171 -840l-157 110l36 178q-117 -92 -235 -92q-121 0 -203 125t-94 303q141 0 203 45.5t63 111.5q0 32 -22 59h-301l-57 160h1048zM633 504l68 336h-310q58 -87 58 -156q0 -93 -91.5 -147.5t-186.5 -58.5q46 -116 161 -116q150 0 301 142z" />
    <glyph glyph-name="u0930" unicode="&#x930;" horiz-adv-x="584" 
d="M654 840h-171l-63 -310q-13 -64 -65.5 -121t-127.5 -89l219 -300l-112 -60l-223 380q-70 120 -70 183q0 33 26.5 55t56.5 22q70 0 102 -40q28 43 36 80l41 200h-303l-57 160h654z" />
    <glyph glyph-name="u0931" unicode="&#x931;" horiz-adv-x="584" 
d="M654 840h-171l-63 -310q-13 -64 -65.5 -121t-127.5 -89l219 -300l-112 -60l-223 380q-70 120 -70 183q0 33 26.5 55t56.5 22q70 0 102 -40q28 43 36 80l41 200h-303l-57 160h654zM202 25l-149 -124l-101 124l152 126z" />
    <glyph glyph-name="u0932" unicode="&#x932;" horiz-adv-x="1236" 
d="M1306 840h-167l-171 -840l-161 90l87 430q-16 10 -58 10q-57 0 -127.5 -56t-135.5 -154l-129 100q4 10 58 90q-23 50 -100 50q-71 0 -132 -55t-61 -162q-1 -81 39.5 -160.5t117.5 -142.5l-62 -60q-120 98 -182.5 210t-62.5 219q0 135 91 228t207 93q104 0 199 -150
q110 120 215 120q90 0 145 -70l43 210h-959l-57 160h1306z" />
    <glyph glyph-name="u0933" unicode="&#x933;" horiz-adv-x="1192" 
d="M763 80q-57 0 -114.5 39t-97.5 101q-45 -67 -114.5 -108.5t-136.5 -41.5q-96 0 -175 100.5t-78 199.5q0 120 97.5 235t228.5 115q69 0 120.5 -42.5t84.5 -127.5q47 60 100.5 100t112.5 60l26 130h-817l-57 160h1262l57 -160h-265l-28 -140q124 -105 124 -243
q0 -128 -99.5 -252.5t-230.5 -124.5zM593 280q14 -37 50.5 -58.5t83.5 -21.5q74 0 165 102.5t91 189.5q0 41 -26.5 69.5t-70.5 28.5q-52 0 -132.5 -84t-160.5 -226zM536 490q-38 70 -136 70q-90 0 -160.5 -89.5t-70.5 -177.5q0 -41 20.5 -72t55.5 -31q90 0 291 300z" />
    <glyph glyph-name="u0934" unicode="&#x934;" horiz-adv-x="1192" 
d="M763 80q-57 0 -114.5 39t-97.5 101q-45 -67 -114.5 -108.5t-136.5 -41.5q-96 0 -175 100.5t-78 199.5q0 120 97.5 235t228.5 115q69 0 120.5 -42.5t84.5 -127.5q47 60 100.5 100t112.5 60l26 130h-817l-57 160h1262l57 -160h-265l-28 -140q124 -105 124 -243
q0 -128 -99.5 -252.5t-230.5 -124.5zM593 280q14 -37 50.5 -58.5t83.5 -21.5q74 0 165 102.5t91 189.5q0 41 -26.5 69.5t-70.5 28.5q-52 0 -132.5 -84t-160.5 -226zM536 490q-38 70 -136 70q-90 0 -160.5 -89.5t-70.5 -177.5q0 -41 20.5 -72t55.5 -31q90 0 291 300zM624 -30
l-149 -124l-101 124l152 126z" />
    <glyph glyph-name="u0935" unicode="&#x935;" horiz-adv-x="994" 
d="M1007 1000l57 -160h-167l-171 -840l-155 120l32 160q-153 -110 -262 -110q-108 0 -198 98.5t-89 191.5q0 110 98.5 200t226.5 90q168 0 283 -180l55 270h-717l-57 160h1064zM654 480q-149 120 -266 120q-95 0 -164.5 -57.5t-69.5 -121.5q-1 -45 43 -78t112 -33
q140 0 345 170z" />
    <glyph glyph-name="u0936" unicode="&#x936;" horiz-adv-x="1140" 
d="M863 840h-302q77 -91 77 -182q0 -55 -39.5 -149t-141.5 -192.5t-221 -142.5l148 -204l-100 -50l-111 240q-73 -6 -116 24t-43 74q0 39 34 85.5t82 46.5q24 0 39 -22.5t22 -67.5q102 41 193 142q-243 141 -243 295q0 59 40 103h-181l-57 160h1210l57 -160h-167l-171 -840
l-159 100zM499 680q4 23 4 45q0 52 -27 88.5t-73 36.5q-47 0 -82.5 -52t-35.5 -100t41 -102.5t102 -93.5q47 58 71 178z" />
    <glyph glyph-name="u0937" unicode="&#x937;" horiz-adv-x="904" 
d="M974 840h-167l-171 -840l-157 110l36 180q-81 -60 -172 -60q-69 0 -162.5 103.5t-98.5 186.5l65 320h-147l-57 160h974zM568 550l59 290h-290zM520 460l-215 270l-57 -280q-6 -27 16.5 -48.5t59.5 -21.5q54 0 108 21.5t88 58.5z" />
    <glyph glyph-name="u0938" unicode="&#x938;" horiz-adv-x="1086" 
d="M373 448q-49 -123 -174 -148l219 -280l-84 -60l-181 260q-32 45 -64 106t-40.5 90t-8.5 62q0 56 24.5 84t73.5 28q19 0 64 -30q30 0 38 40l49 240h-289l-57 160h1156l57 -160h-167l-171 -840l-155 120l62 308q-103 -70 -202 -70q-68 0 -150 90zM764 616l45 224h-340
l-65 -320q52 -32 116 -32q98 0 244 128z" />
    <glyph glyph-name="u0939" unicode="&#x939;" horiz-adv-x="822" 
d="M890 840h-149l-49 -240h-360q-29 0 -56 -21.5t-27 -48.5q0 -35 37 -60q92 40 168 40q86 0 157.5 -78t71.5 -157q0 -68 -53.5 -128t-139.5 -97l-75 120q78 36 118 95t40 98q0 18 -8 27.5t-23 9.5q-146 0 -248 -82t-102 -171q0 -72 92 -135.5t240 -91.5l-24 -70
q-202 37 -325.5 132t-123.5 200q0 63 42.5 136.5t114.5 111.5q-97 54 -97 150q0 71 58.5 115.5t133.5 44.5h238l20 100h-561l-57 160h890z" />
    <glyph glyph-name="u093C" unicode="&#x93c;" horiz-adv-x="0" 
d="M-796 20l-149 -124l-101 124l152 126z" />
    <glyph glyph-name="u093D" unicode="&#x93d;" horiz-adv-x="762" 
d="M907 838h-438q-30 0 -60 -28t-29 -62q0 -73 117 -194q149 -153 149 -259q0 -113 -99.5 -206.5t-229.5 -93.5q-115 0 -207 79t-127 216l71 52q40 -81 96.5 -129.5t111.5 -48.5q83 -1 134.5 55t51.5 102q0 73 -141 293q-66 104 -66 196q0 80 68.5 135t142.5 55h488z" />
    <glyph glyph-name="u093E" unicode="&#x93e;" horiz-adv-x="488" 
d="M558 840h-167l-171 -840l-155 120l146 720h-211l-57 160h558z" />
    <glyph glyph-name="u093F" unicode="&#x93f;" horiz-adv-x="488" 
d="M558 840h-167l-172 -840l-156 121l148 719h-211l-57 159h333q-67 90 -67 183q0 116 115.5 212.5t263.5 96.5q170 0 333.5 -111.5t299.5 -318.5l-47 -31q-111 140 -248 224.5t-279 84.5q-112 0 -198.5 -63t-86.5 -186v-15q4 -46 15 -76h124z" />
    <glyph glyph-name="u0940" unicode="&#x940;" horiz-adv-x="488" 
d="M558 840h-167l-171 -840l-155 120l146 720h-211l-57 160h331q4 106 -37.5 188t-117.5 82q-68 0 -120 -55t-51 -122q0 -31 4 -53h-100q-20 42 -20 98q0 117 78.5 199.5t178.5 82.5q127 0 204 -121t71 -299h137zM387 1490z" />
    <glyph glyph-name="u0941" unicode="&#x941;" horiz-adv-x="0" 
d="M-966 -90l58 40q60 -121 169.5 -190.5t237.5 -69.5q79 0 145 40.5t90.5 88t24.5 70.5q-1 17 -17 29t-44 12q-66 0 -148 -90l-98 110q107 90 198 90q76 0 139.5 -72.5t63.5 -144.5q-1 -100 -101.5 -181.5t-228.5 -81.5q-147 0 -277.5 94t-211.5 256z" />
    <glyph glyph-name="u0942" unicode="&#x942;" horiz-adv-x="0" 
d="M99 -410l-86 -30q-63 171 -156 265.5t-191 94.5q-62 0 -109 -42.5t-47 -93.5q0 -25 18 -44.5t47 -19.5q98 0 162 60l60 -100q-98 -80 -176 -80q-89 0 -141.5 59t-52.5 142q0 105 71 177t154 72q102 0 219 -119.5t228 -340.5z" />
    <glyph glyph-name="u0943" unicode="&#x943;" horiz-adv-x="0" 
d="M-189 -350q-150 -104 -291 -104q-96 0 -159.5 64t-63.5 145q0 99 79.5 172t185.5 73h180l-24 -120h-140q-78 0 -141 -36.5t-63 -84.5q0 -33 43.5 -56t109.5 -23q102 0 228 90z" />
    <glyph glyph-name="u0944" unicode="&#x944;" horiz-adv-x="0" 
d="M-279 -448q-125 -52 -268 -52q-78 0 -143 60.5t-65 119.5t80 118q-41 18 -63.5 50t-22.5 67q0 90 129 155.5t304 65.5l10 -126q-143 0 -249 -34.5t-106 -84.5q0 -19 12.5 -36.5t34.5 -22.5q173 57 271 57q4 -1 6 -1l24 -118q-145 0 -250.5 -40t-105.5 -89q0 -14 24 -24.5
t53 -10.5q189 0 309 62z" />
    <glyph glyph-name="u0945" unicode="&#x945;" horiz-adv-x="0" 
d="M203 1330q-54 -94 -144.5 -152t-188.5 -58q-94 0 -161 76t-74 194l64 20q4 -66 52 -108t118 -42q56 0 120 43.5t112 116.5z" />
    <glyph glyph-name="u0946" unicode="&#x946;" horiz-adv-x="0" 
d="M-124 1000h-50q4 21 4 40q0 58 -40 99t-108 41h-180q-94 0 -148.5 71t-54.5 168q0 39 8 81h60q-2 -12 -2 -23q0 -52 48.5 -89.5t123.5 -37.5h180q81 0 126 -70.5t45 -170.5q0 -51 -12 -109z" />
    <glyph glyph-name="u0947" unicode="&#x947;" horiz-adv-x="0" 
d="M-104 1000h-80l-139 250q-36 64 -135 64q-36 0 -85 -14l-46 170q37 16 76 16q80 0 147 -47.5t113 -138.5z" />
    <glyph glyph-name="u0948" unicode="&#x948;" horiz-adv-x="0" 
d="M-74 1000h-110q-156 160 -298 160q-87 0 -135 -24l-45 170q53 24 105 24q112 0 409 -300h20l-66 170q-54 140 -111 140q-60 0 -96 -30l-68 160q60 22 127 22q137 0 183 -172z" />
    <glyph glyph-name="u0949" unicode="&#x949;" horiz-adv-x="488" 
d="M558 840h-167l-171 -840l-155 120l146 720h-211l-57 160h558zM484 1330q-54 -94 -144.5 -152t-188.5 -58q-94 0 -161 76t-74 194l64 20q4 -66 52 -108t118 -42q56 0 120 43.5t112 116.5z" />
    <glyph glyph-name="u094A" unicode="&#x94a;" horiz-adv-x="488" 
d="M558 840h-167l-171 -840l-155 120l146 720h-211l-57 160h558zM371 1000h-50q4 21 4 40q0 58 -40 99t-108 41h-180q-94 0 -148.5 71t-54.5 168q0 39 8 81h60q-2 -12 -2 -23q0 -52 48.5 -89.5t123.5 -37.5h180q81 0 126 -70.5t45 -170.5q0 -51 -12 -109z" />
    <glyph glyph-name="u094B" unicode="&#x94b;" horiz-adv-x="488" 
d="M558 840h-167l-171 -840l-155 120l146 720h-211l-57 160h558zM378 1000h-80l-139 250q-36 64 -135 64q-36 0 -85 -14l-46 170q37 16 76 16q80 0 147 -47.5t113 -138.5z" />
    <glyph glyph-name="u094C" unicode="&#x94c;" horiz-adv-x="488" 
d="M558 840h-167l-171 -840l-155 120l146 720h-211l-57 160h558zM407 1000h-110q-156 160 -298 160q-87 0 -135 -24l-45 170q53 24 105 24q112 0 409 -300h20l-66 170q-54 140 -111 140q-60 0 -96 -30l-68 160q60 22 127 22q137 0 183 -172z" />
    <glyph glyph-name="u094D" unicode="&#x94d;" horiz-adv-x="0" 
d="M-5 -380l-70 -50q-180 234 -228.5 282t-84.5 48q-51 0 -108 -40l-48 110q59 50 150 50q101 0 295 -270z" />
    <glyph glyph-name="u0950" unicode="&#x950;" horiz-adv-x="1851" 
d="M1372 1300l-137 -141l-92 141l137 140zM1630 1190q-131 -143 -246.5 -214t-201.5 -71q-87 0 -176 76t-156 209l68 41q96 -191 292 -191q169 0 369 191zM803 387q83 -51 178 -51q41 0 112 30t179 162q142 181 210 227t120 46q90 0 142 -60t52 -135q0 -107 -70.5 -191.5
t-160.5 -84.5q-48 0 -89.5 41t-60.5 94q-199 -262 -358 -262q-146 0 -258 98q-29 -139 -141 -225t-242 -86q-168 0 -270.5 146.5t-102.5 332.5v51l76 21v-31q0 -91 34 -176t98 -134.5t148 -49.5q98 0 167 56t69 142q0 51 -25.5 85t-58.5 34l-60 -20q-31 -10 -61 -17l-45 150
q123 30 222 89t112 122l2 14q0 25 -19 40t-49 15q-143 0 -270 -100l-115 131q60 49 150 89t168 40q95 0 172.5 -92t77.5 -185q0 -69 -50 -131.5t-133 -97.5q112 -34 150 -127zM1468 528q44 -67 103 -67t102 38t43 95q0 32 -19 54t-52 22q-73 0 -177 -142z" />
    <glyph glyph-name="u0951" unicode="&#x951;" horiz-adv-x="0" 
d="M-82 1010h-140l95 470h140z" />
    <glyph glyph-name="u0952" unicode="&#x952;" horiz-adv-x="0" 
d="M-260 -110h-878l22 110h878z" />
    <glyph glyph-name="u0953" unicode="&#x953;" horiz-adv-x="0" 
d="M-8 1178h-58l-225 322h194z" />
    <glyph glyph-name="u0954" unicode="&#x954;" horiz-adv-x="0" 
d="M57 1500l-355 -322h-58l219 322h194z" />
    <glyph glyph-name="u0958" unicode="&#x958;" horiz-adv-x="1274" 
d="M993.5 343q38.5 65 38.5 99q0 25 -15 41.5t-41 16.5q-121 0 -244 -120l-78 -380l-157 110l34 170q-141 -100 -230 -100q-94 0 -172 92.5t-77 183.5q-1 110 93.5 192t217.5 82q109 0 223 -180l59 290h-645l-57 160h1344l57 -160h-519l-49 -240q97 50 190 50
q75 0 134 -86.5t59 -172.5q0 -68 -43.5 -164t-123.5 -187l-137 110q100 128 138.5 193zM580 470q-81 100 -190 100q-70 0 -126 -53.5t-56 -116.5q0 -35 18 -52.5t55 -17.5q100 0 161 50zM267 20l-149 -124l-101 124l152 126z" />
    <glyph glyph-name="u0959" unicode="&#x959;" horiz-adv-x="1400" 
d="M1470 840h-167l-171 -840l-157 110l18 90q-126 -105 -240 -162.5t-195 -57.5q-156 0 -339 214.5t-182 309.5q-1 32 20.5 59t44.5 27q53 0 100 -50q23 14 40 100l41 200h-283l-57 160h1470zM1009 280l16 80q-174 -90 -238 -90q-111 0 -180.5 64.5t-69.5 154.5
q-1 116 94.5 193.5t215.5 77.5q119 0 231 -140l45 220h-660l-57 -280q-30 -145 -153 -210q52 -104 128.5 -167t155.5 -63q116 0 241 41.5t231 118.5zM1072 540q-49 90 -212 90q-76 0 -134 -55t-57 -106q0 -22 21.5 -40.5t55.5 -18.5q140 0 326 130zM191 20l-149 -124
l-101 124l152 126z" />
    <glyph glyph-name="u095A" unicode="&#x95a;" horiz-adv-x="940" 
d="M663 840h-260l-100 -490q-6 -27 -22.5 -48.5t-31.5 -21.5q-61 0 -136 86t-75 147q0 34 28 50.5t64 16.5h60l53 260h-243l-57 160h1010l57 -160h-167l-171 -840l-159 100zM273 20l-149 -124l-101 124l152 126z" />
    <glyph glyph-name="u095B" unicode="&#x95b;" horiz-adv-x="1152" 
d="M1222 840h-167l-171 -840l-159 100l85 420h-250q58 -94 58 -180q0 -89 -57.5 -144.5t-127.5 -55.5q-125 0 -226.5 135t-156.5 345l66 30q36 -138 106.5 -224t150.5 -86q38 0 70 30.5t32 102.5q0 113 -96 191l38 36h430l28 140h-875l-57 160h1222zM210 20l-149 -124
l-101 124l152 126z" />
    <glyph glyph-name="u095C" unicode="&#x95c;" horiz-adv-x="914" 
d="M984 840h-173l-53 -260h-340q-55 0 -98 -34t-43 -71q0 -18 13 -26.5t40 -8.5q37 0 129 16q80 14 127 14q67 0 129 -77.5t63 -144.5q0 -96 -107 -172t-251 -76q-117 0 -234 81.5t-205 218.5l60 50q60 -94 147 -147t183 -53q109 0 193 42t84 96q0 16 -11 24t-32 8
q-39 0 -118 -20t-120 -20q-71 0 -135 98t-64 182q0 74 50 122t111 48h300l22 110h-651l-57 160h984zM496 -199l-149 -124l-101 124l152 126z" />
    <glyph glyph-name="u095D" unicode="&#x95d;" horiz-adv-x="896" 
d="M966 840h-171l-51 -250h-320q-93 0 -170 -78.5t-77 -174.5q0 -60 34 -111.5t94 -75.5q-19 31 -19 78q-1 107 84 179.5t192 72.5q76 0 131 -77t55 -160q0 -117 -96.5 -180t-207.5 -63q-146 0 -266.5 142t-120.5 283q0 136 103.5 225.5t234.5 89.5h200l20 100h-615l-57 160
h966zM375 150h40q84 0 150.5 43.5t67.5 102.5q0 23 -15.5 38.5t-42.5 15.5q-82 0 -144 -63.5t-56 -136.5zM472 -167l-149 -124l-101 124l152 126z" />
    <glyph glyph-name="u095E" unicode="&#x95e;" horiz-adv-x="1262" 
d="M700 400l-82 -400l-159 100l40 200q-81 -60 -172 -60q-62 0 -134 74.5t-93 129.5t-16 76l65 320h-149l-57 160h1332l57 -160h-543l-47 -230q97 80 197 80q75 0 147.5 -96.5t72.5 -178.5q0 -53 -39 -138.5t-125 -196.5l-146 120q108 80 155 175t47 137q0 19 -10.5 28.5
t-30.5 9.5q-102 0 -310 -150zM540 500l69 340h-280l-81 -400q-5 -23 7 -41.5t31 -18.5q58 0 254 120zM271 31l-149 -124l-101 124l152 126z" />
    <glyph glyph-name="u095F" unicode="&#x95f;" horiz-adv-x="978" 
d="M1048 840h-167l-171 -840l-157 110l36 178q-117 -92 -235 -92q-121 0 -203 125t-94 303q141 0 203 45.5t63 111.5q0 32 -22 59h-301l-57 160h1048zM633 504l68 336h-310q58 -87 58 -156q0 -93 -91.5 -147.5t-186.5 -58.5q46 -116 161 -116q150 0 301 142zM162 23
l-149 -124l-101 124l152 126z" />
    <glyph glyph-name="u0960" unicode="&#x960;" horiz-adv-x="1306" 
d="M937.5 722.5q23.5 27.5 53.5 27.5q63 0 116.5 -44t54.5 -90q0 -59 -98 -96q58 -116 58 -153q0 -18 -16 -32.5t-33 -14.5q-78 0 -140.5 -36.5t-62.5 -81.5q0 -20 19 -34t51 -14q114 0 165 26l63 -180q-61 -20 -114 -20q-102 0 -192 88.5t-90 177.5q0 80 75.5 134.5
t162.5 69.5l-22 40q-68 -12 -123 -12l-21 2q-71 3 -114 20l-102 -500l-151 140l38 190l-414 -220l-62 140l509 240q-80 100 -180 100q-36 0 -212 -60l-91 140q164 70 264 70q110 0 237 -160l53 260h-619l-57 160h1376l57 -160h-577l-53 -260q30 -6 55 -6q72 0 121 36
q-8 14 -8 43q0 42 23.5 69.5z" />
    <glyph glyph-name="u0961" unicode="&#x961;" horiz-adv-x="1110" 
d="M774 -12l24 -118q-112 0 -194 -40.5t-82 -88.5q-1 -14 23.5 -24.5t52.5 -10.5q189 0 309 62l16 -116q-125 -52 -268 -52q-78 0 -142.5 60.5t-64.5 119.5t79 118q-40 17 -63 50t-23 67q0 66 72 139t187 100q82 19 144 83.5t79 148.5l3 24q6 43 -19.5 61.5t-64.5 18.5
q-70 0 -155.5 -87.5t-147.5 -222.5l-146 70q11 24 103 160q-38 70 -106 70t-121 -66t-53 -140q0 -63 40 -141.5t113 -152.5l-63 -60q-123 100 -187 207t-64 201q-1 115 88.5 203.5t205.5 88.5q110 0 201 -140q110 120 215 120l28 140h-793l-57 160h1180l57 -160h-257
l-30 -150q65 -26 99.5 -78t35.5 -116q0 -111 -77.5 -209.5t-185.5 -126.5q-92 -24 -164 -70.5t-72 -98.5q0 -19 12.5 -36.5t34.5 -22.5q79 57 191 57q4 -1 7 -1z" />
    <glyph glyph-name="u0962" unicode="&#x962;" horiz-adv-x="0" 
d="M6 -484q-104 -62 -231 -62q-67 0 -124 54.5t-57 107.5q0 51 48 93.5t122 54.5q72 12 128.5 67.5t56.5 114.5q0 19 -18 28.5t-54 9.5q-57 0 -121 -54t-112 -138l-117 44q10 18 77 104q-24 40 -90 40q-50 0 -92 -38t-41 -85q0 -81 132 -189l-44 -38q-103 67 -161.5 139.5
t-58.5 126.5q0 67 70 129.5t161 62.5q76 0 162 -108q114 108 208 108q68 0 123.5 -58t55.5 -114q-1 -67 -62 -139.5t-150 -86.5q-68 -11 -113 -40.5t-45 -60.5q0 -21 35 -37t84 -16q84 0 182 58z" />
    <glyph glyph-name="u0963" unicode="&#x963;" horiz-adv-x="0" 
d="M-340 -434q-37 9 -60 30.5t-22 42.5q-1 43 61.5 84t151.5 55q83 14 136 62t53 95q0 22 -19.5 32.5t-58.5 10.5q-63 0 -132.5 -51.5t-121.5 -134.5l-133 44q21 27 81 94q-28 40 -100 40q-56 0 -99.5 -33.5t-43.5 -76.5q0 -35 41.5 -86.5t111.5 -101.5l-49 -34
q-250 144 -250 259q0 62 74.5 111.5t170.5 49.5q107 0 188 -88q101 88 204 88q84 0 154 -51.5t71 -103.5q-1 -58 -63.5 -111t-149.5 -68q-88 -15 -144 -43.5t-56 -56.5q0 -12 12.5 -23t33.5 -15q69 36 145 36q5 0 28 -2l28 -70q-100 0 -169 -24.5t-69 -53.5q0 -10 24 -15
t72 -5q146 0 247 38l18 -70q-110 -32 -218 -32q-85 0 -149 37t-64 74q0 30 65 67z" />
    <glyph glyph-name="u0964" unicode="&#x964;" horiz-adv-x="500" 
d="M220 -60l-160 100l208 1020l155 -120zM420 1000z" />
    <glyph glyph-name="u0965" unicode="&#x965;" horiz-adv-x="900" 
d="M220 -60l-160 100l208 1020l155 -120zM620 -60l-160 100l208 1020l155 -120zM520 1000z" />
    <glyph glyph-name="u0966" unicode="&#x966;" horiz-adv-x="900" 
d="M329 130q-107 0 -172.5 69t-65.5 162q0 151 152.5 295t291.5 144q111 0 178.5 -70t67.5 -167q0 -154 -154 -293.5t-298 -139.5zM611 473q0 85 -48.5 146t-131.5 61q-66 0 -117.5 -63.5t-51.5 -156.5q0 -81 49.5 -140.5t133.5 -59.5q60 0 113 53.5t53 159.5z" />
    <glyph glyph-name="u0967" unicode="&#x967;" horiz-adv-x="900" 
d="M360 380l155 -220q50 -71 50 -134q0 -52 -46.5 -98.5t-138.5 -87.5l-100 150q111 60 111 175q0 43 -20 75l-199 250q41 18 192 110q-130 164 -130 280q0 90 86.5 165t199.5 75q118 0 196.5 -105.5t78.5 -189.5q0 -115 -129.5 -235t-305.5 -210zM434 650q120 73 180 136.5
t60 117.5q0 33 -16 49.5t-48 16.5q-83 0 -150.5 -57.5t-67.5 -149.5q0 -71 42 -113zM210 1000z" />
    <glyph glyph-name="u0968" unicode="&#x968;" horiz-adv-x="900" 
d="M457 360l137 -410l-116 -30l-87 410q-78 0 -126.5 46t-48.5 108q0 56 33 101t73 45q70 0 96 -70q136 36 213 113.5t78 142.5q-1 38 -43 66t-107 28q-104 0 -270 -100l-87 160q167 100 320 100q115 0 210 -107.5t96 -213.5q-1 -119 -106 -227.5t-265 -161.5zM150 1000z
" />
    <glyph glyph-name="u0969" unicode="&#x969;" horiz-adv-x="898" 
d="M458 60l104 -230l-111 -50l-65 270q-103 -8 -172 31.5t-69 97.5q0 46 35.5 98.5t82.5 52.5q73 0 132 -90q85 0 149.5 57.5t64.5 114.5q0 21 -14 38t-41 30q-92 -40 -158 -40q-44 0 -98 10l-58 160h130q118 0 213.5 45.5t96.5 101.5q-1 26 -41 44.5t-106 18.5h-300
l-33 180h330q92 0 165.5 -90t73.5 -183q0 -59 -27.5 -115.5t-69.5 -91.5q83 -82 83 -166q-1 -90 -82.5 -179.5t-214.5 -114.5z" />
    <glyph glyph-name="u096A" unicode="&#x96a;" horiz-adv-x="900" 
d="M943 840l-367 -330q144 -144 144 -260q-1 -86 -78.5 -163t-177.5 -77q-106 0 -197 80.5t-91 160.5q0 21 8.5 47t64 91.5t155.5 160.5l-309 350l107 80l272 -380l378 380zM502 440q-110 -105 -153 -157t-43 -74t18.5 -40.5t48.5 -18.5q73 0 131 45.5t59 118.5
q0 75 -61 126zM400 1000z" />
    <glyph glyph-name="u096B" unicode="&#x96b;" horiz-adv-x="900" 
d="M729 -70l-108 -40l-65 420q-92 -40 -208 -40q-106 0 -189.5 113t-84.5 228q0 72 45 198t122 261l167 -160q-107 -119 -157.5 -232t-50.5 -165q0 -37 24.5 -65t64.5 -28q100 0 220 100q-10 7 -10 36q-1 52 38.5 88t94.5 36q30 0 68 -45t38 -108q0 -48 -38.5 -107
t-87.5 -80zM500 1000z" />
    <glyph glyph-name="u096C" unicode="&#x96c;" horiz-adv-x="898" 
d="M685 -160l-113 -60l-73 278q-47 -12 -86 -12q-115 0 -217.5 92t-102.5 206q0 74 35 132.5t93 83.5q-99 67 -99 179q0 107 109.5 174t245.5 67t211 -40l4 -180q-76 30 -250 30q-100 0 -156.5 -29t-56.5 -72q0 -22 18.5 -46.5t51.5 -42.5q92 30 186 30q63 0 124 -30
l26 -170q-95 30 -154 30q-105 0 -180.5 -55.5t-75.5 -136.5q0 -41 23 -69.5t64 -28.5q87 0 152 60q-9 61 24.5 85.5t67.5 24.5q63 0 103 -36t40 -86q0 -48 -31.5 -82.5t-93.5 -55.5zM250 1000z" />
    <glyph glyph-name="u096D" unicode="&#x96d;" horiz-adv-x="898" 
d="M154 980h90q-68 -178 -68 -364q0 -173 67 -299.5t190 -126.5q71 0 132.5 49t71.5 121q-46 -20 -74 -20q-112 0 -180.5 66.5t-67.5 158.5q-1 111 79.5 203t184.5 92q100 0 176 -115.5t76 -231.5q0 -97 -55 -214.5t-157 -203t-223 -85.5q-149 0 -229.5 157.5t-80.5 375.5
q0 199 68 437zM703 640q-1 26 -18 43t-48 17q-76 0 -130.5 -60.5t-54.5 -116.5q0 -24 16 -43.5t40 -19.5q78 0 136.5 60t58.5 120zM500 1000z" />
    <glyph glyph-name="u096E" unicode="&#x96e;" horiz-adv-x="900" 
d="M747 170q-86 -81 -184.5 -125.5t-190.5 -44.5q-125 0 -232.5 93t-107.5 186q0 42 26 92.5t68 88.5l614 560l33 -180l-498 -480q-76 -74 -99.5 -107.5t-23.5 -58.5q0 -24 43.5 -44t103.5 -20q102 0 204.5 49.5t183.5 140.5zM320 1000z" />
    <glyph glyph-name="u096F" unicode="&#x96f;" horiz-adv-x="898" 
d="M525 -110l-132 140q51 16 82.5 43.5t38 57t6.5 54.5q0 42 -22 65l-205 220q-127 136 -127 280q0 132 111.5 211t251.5 79q99 0 180 -89.5t81 -179.5q-1 -118 -117 -209.5t-270 -91.5l221 -240q27 -29 47.5 -72t21.5 -73q0 -43 -43 -101t-125 -94zM661 862q0 48 -59 48
q-94 0 -172.5 -47.5t-106 -101t-27.5 -86.5q0 -26 21 -45.5t54 -19.5q86 0 157 49t102 109.5t31 93.5zM240 1000z" />
    <glyph glyph-name="u0970" unicode="&#x970;" horiz-adv-x="840" 
d="M262 -10q-77 0 -123.5 54t-46.5 127q0 129 126 239t242 110q80 0 127.5 -55t47.5 -129q0 -130 -130.5 -238t-242.5 -108zM493 263q-1 62 -36.5 106.5t-96.5 44.5q-47 0 -84.5 -46.5t-37.5 -111.5q0 -59 36 -103.5t98 -44.5q46 0 83 40.5t38 114.5z" />
    <glyph glyph-name="HighSpacingDot" unicode="&#x971;" horiz-adv-x="650" 
d="M451 935l-152 -126l-98 126l149 124z" />
    <glyph glyph-name="CandraA" unicode="&#x972;" horiz-adv-x="1292" 
d="M1362 840h-167l-171 -840l-159 100l57 280q-35 -20 -85 -20q-41 0 -90.5 24t-90.5 66q24 -50 24 -102q0 -99 -80.5 -193.5t-203.5 -94.5q-132 0 -233 108.5t-147 281.5l68 40q31 -118 105.5 -191t170.5 -73q87 0 154 68t67 146q0 42 -23 70q-112 -58 -223 -66l-31 146
q70 0 174 32t135.5 85.5t31.5 92.5q0 35 -27.5 57.5t-74.5 22.5q-119 0 -272 -110l-64 130q142 100 261 100q113 0 199.5 -79t86.5 -166q0 -58 -36 -114t-92 -91q50 -40 182 -40q71 0 156 80l51 250h-120l-57 160h467zM1253 1330q-54 -94 -144.5 -152t-188.5 -58
q-94 0 -161 76t-74 194l64 20q4 -66 52 -108t118 -42q56 0 120 43.5t112 116.5z" />
    <glyph glyph-name="uni09170952" unicode="&#x97b;" horiz-adv-x="940" 
d="M663 840h-260l-100 -490q-6 -27 -22.5 -48.5t-31.5 -21.5q-61 0 -136 86t-75 147q0 34 28 50.5t64 16.5h60l53 260h-243l-57 160h1010l57 -160h-167l-171 -840l-159 100zM781 -189h-878l22 110h878z" />
    <glyph glyph-name="uni091C0952" unicode="&#x97c;" horiz-adv-x="1152" 
d="M1222 840h-167l-171 -840l-159 100l85 420h-250q58 -94 58 -180q0 -89 -57.5 -144.5t-127.5 -55.5q-125 0 -226.5 135t-156.5 345l66 30q36 -138 106.5 -224t150.5 -86q38 0 70 30.5t32 102.5q0 113 -96 191l38 36h430l28 140h-875l-57 160h1222zM886 -189h-878l22 110
h878z" />
    <glyph glyph-name="u097D" unicode="&#x97d;" horiz-adv-x="940" 
d="M510 580l-57 -280h-100l12 400q179 76 295.5 176t117.5 202q0 43 -22.5 72.5t-63.5 29.5q-60 0 -140.5 -51.5t-157.5 -138.5l-114 130q70 104 172.5 167t204.5 63q104 0 164.5 -79.5t60.5 -191.5q0 -157 -99 -275.5t-273 -223.5z" />
    <glyph glyph-name="uni09210952" unicode="&#x97e;" horiz-adv-x="914" 
d="M984 840h-173l-53 -260h-340q-55 0 -98 -34t-43 -71q0 -18 13 -26.5t40 -8.5q37 0 129 16q80 14 127 14q67 0 129 -77.5t63 -144.5q0 -96 -107 -172t-251 -76q-117 0 -234 81.5t-205 218.5l60 50q60 -94 147 -147t183 -53q109 0 193 42t84 96q0 16 -11 24t-32 8
q-39 0 -118 -20t-120 -20q-71 0 -135 98t-64 182q0 74 50 122t111 48h300l22 110h-651l-57 160h984zM763 -189h-878l22 110h878z" />
    <glyph glyph-name="uni092C0952" unicode="&#x97f;" horiz-adv-x="996" 
d="M1009 1000l57 -160h-167l-171 -840l-157 110l30 150q-99 -80 -266 -80q-123 0 -204.5 74.5t-81.5 169.5q0 119 106 217.5t244 98.5q170 0 273 -130l47 230h-719l-57 160h1066zM382 606l105 -266q84 29 127.5 80.5t43.5 97.5q0 43 -45 72.5t-119 29.5q-60 0 -112 -14z
M403 320l-107 260q-81 -36 -114 -92.5t-32 -95.5q0 -37 33 -64.5t86 -27.5q76 0 134 20zM801 -189h-878l22 110h878z" />
    <glyph glyph-name="u200C" unicode="&#x200c;" horiz-adv-x="0" 
d="M-107 -490h-100l404 1990h100z" />
    <glyph glyph-name="u200D" unicode="&#x200d;" horiz-adv-x="0" 
d="M521 1420h-240l-388 -1910h-100l404 1990h340z" />
    <glyph glyph-name="u2013" unicode="&#x2013;" 
d="M807 319h-819v94h819v-94z" />
    <glyph glyph-name="u2014" unicode="&#x2014;" horiz-adv-x="1586" 
d="M1600 319h-1615v94h1615v-94z" />
    <glyph glyph-name="u2018" unicode="&#x2018;" horiz-adv-x="528" 
d="M531 1074l18 -32q-118 -68 -147 -104q-23 -26 -23 -53q0 -30 40 -66.5t53 -62.5q11 -19 11 -49q0 -51 -38 -87.5t-91 -36.5q-52 0 -90.5 40.5t-38.5 103.5q0 97 65 179q83 105 241 168z" />
    <glyph glyph-name="u2019" unicode="&#x2019;" horiz-adv-x="528" 
d="M245 583l-17 32q118 67 147 102q22 27 22 55q0 30 -40 66.5t-53 62.5q-10 19 -10 50q0 50 37.5 86.5t91.5 36.5q51 0 89.5 -41.5t38.5 -101.5q0 -97 -74 -191t-232 -157z" />
    <glyph glyph-name="quotesinglbase" unicode="&#x201a;" horiz-adv-x="528" 
d="M39 -255l-17 33q118 67 146 102q23 27 23 55q0 29 -39.5 65.5t-53.5 62.5q-10 20 -10 50q0 50 37.5 87t90.5 37q52 0 90.5 -41.5t38.5 -102.5q0 -97 -74 -190.5t-232 -157.5z" />
    <glyph glyph-name="u201C" unicode="&#x201c;" 
d="M493 1074l19 -32q-109 -57 -147 -103q-25 -29 -25 -56t40 -64.5t55 -64.5q9 -19 9 -45q0 -52 -37 -89t-92 -37q-54 0 -91 39.5t-37 101.5q0 96 59 173q78 101 247 177zM835 1074l19 -35q-111 -57 -145 -100q-24 -28 -24 -59q0 -28 42 -67q60 -52 60 -104t-37.5 -90.5
t-88.5 -38.5q-53 0 -92.5 42t-39.5 103q0 96 64 178q83 106 242 171z" />
    <glyph glyph-name="u201D" unicode="&#x201d;" 
d="M207 582l-20 31q111 59 146 100q25 30 25 59t-44 67q-59 54 -59 106t38 90.5t89 38.5q52 0 91.5 -42.5t39.5 -102.5q0 -95 -65 -177q-82 -105 -241 -170zM549 580l-19 32q107 57 146 101q25 31 25 58t-40 64t-53 64q-11 20 -11 46q0 52 37.5 89t91.5 37t91.5 -40
t37.5 -102q0 -96 -60 -172q-79 -101 -246 -177z" />
    <glyph glyph-name="quotedblbase" unicode="&#x201e;" 
d="M-27 -254l-19 33q110 57 145 99q25 29 25 60q0 27 -43 66q-60 54 -60 106t38 90t89 38q52 0 92 -42t40 -103q0 -95 -66 -178q-81 -103 -241 -169zM315 -256l-19 32q109 58 146 102q24 30 24 57q0 28 -39.5 65t-52.5 63q-11 20 -11 46q0 52 37.5 89t91.5 37t91.5 -40
t37.5 -102q0 -96 -59 -172q-79 -102 -247 -177z" />
    <glyph glyph-name="dagger" unicode="&#x2020;" 
d="M202 -339h-29q136 511 142 823q61 34 88.5 67t51.5 100q-44 -5 -61.5 -9.5t-81 -33.5t-100.5 -29q-32 0 -53.5 21t-21.5 57q0 40 25 66t58 26q28 0 98 -29q50 -20 74 -26.5t72 -12.5q10 61 10 93q0 22 -5.5 69t-5.5 83q0 70 33.5 109t80.5 39q39 0 63 -23.5t24 -59.5
q0 -64 -63.5 -147.5t-70.5 -95.5q-12 -17 -32 -67q42 5 60 10q12 4 74.5 31t103.5 27q30 0 51 -21.5t21 -57.5q0 -44 -23.5 -68t-61.5 -24t-103.5 29.5t-70.5 29.5q-16 6 -59 14q-3 -38 -3 -64q0 -30 9 -56.5t36 -67.5q-86 -134 -165 -328q-103 -252 -165 -474z" />
    <glyph glyph-name="daggerdbl" unicode="&#x2021;" 
d="M495 667q-8 -35 -8 -57q0 -30 13 -55t50 -57q-77 -36 -107.5 -73.5t-30.5 -87.5q0 -33 15 -61t56 -63q-64 -28 -94 -56.5t-64 -92.5q44 3 68.5 10t70.5 28q62 29 95 29q34 0 57.5 -24.5t23.5 -60.5q0 -33 -26.5 -57.5t-65.5 -24.5q-28 0 -81.5 22.5t-78.5 29t-74 12.5
q-8 -49 -8 -74t6 -68q10 -60 10 -98q0 -54 -35 -92t-75 -38q-35 0 -61 25.5t-26 60.5q0 31 10 54.5t59 82t90 147.5q-46 -9 -64 -15q-10 -3 -82 -32q-33 -15 -60 -15q-41 0 -67 24q-21 18 -21 53q0 43 22 65t60 22q23 0 50 -7q15 -4 60.5 -25.5t50.5 -23.5q16 -5 61 -10
q5 33 5 54q0 31 -12 56t-48 59q73 34 103 68q39 44 39 96q0 34 -16.5 61.5t-55.5 56.5q72 34 101 63.5t53 88.5q-84 -10 -133 -36t-59 -30q-12 -4 -31 -4q-38 0 -62.5 24.5t-24.5 61.5q0 34 23.5 58t59.5 24q39 0 99.5 -26.5t79.5 -32t60 -10.5q12 54 12 81q0 23 -8.5 73
t-8.5 87q0 61 34.5 99t81.5 38q35 0 59 -25t24 -62q0 -28 -11.5 -54t-53.5 -78t-59 -80t-40 -79q41 5 60.5 11.5t56.5 27.5q54 28 91 28q43 0 67.5 -23.5t24.5 -60.5q0 -38 -22.5 -61t-61.5 -23q-36 0 -86 25.5t-71.5 33t-68.5 13.5z" />
    <glyph glyph-name="bullet" unicode="&#x2022;" horiz-adv-x="555" 
d="M299 744q92 0 156 -65t64 -156t-64.5 -156t-155.5 -65q-92 0 -156.5 64.5t-64.5 156.5q0 91 64 156t157 65z" />
    <glyph glyph-name="u2026" unicode="&#x2026;" horiz-adv-x="1586" 
d="M264 238q54 0 91.5 -38t37.5 -90q0 -54 -38 -91.5t-91 -37.5t-90.5 37.5t-37.5 91.5q0 52 37.5 90t90.5 38zM792 237q54 0 91.5 -37.5t37.5 -89.5q0 -54 -37.5 -91.5t-91.5 -37.5q-53 0 -90.5 37.5t-37.5 91.5q0 52 37.5 89.5t90.5 37.5zM1321 237q54 0 91.5 -38
t37.5 -91q0 -54 -37.5 -91.5t-91.5 -37.5q-53 0 -90.5 37.5t-37.5 91.5q0 53 37.5 91t90.5 38z" />
    <glyph glyph-name="perthousand" unicode="&#x2030;" horiz-adv-x="1586" 
d="M1098 1074l-965 -1115h-93l963 1115h95zM295 505q-80 0 -131 53.5t-51 152.5q0 150 95.5 255t205.5 105q82 0 134 -54.5t52 -146.5q0 -154 -94 -259.5t-211 -105.5zM295 546q20 0 37 14q26 21 43.5 62t59.5 191q31 114 31 154q0 29 -14.5 46t-36.5 17q-28 0 -53.5 -29.5
t-53.5 -120.5q-62 -204 -62 -280q0 -23 15 -38.5t34 -15.5zM708 -43q-75 0 -126.5 55.5t-51.5 145.5q0 150 104 268q86 97 197 97q81 0 134 -54.5t53 -144.5q0 -151 -97.5 -259t-212.5 -108zM712 0q24 0 40 13q25 20 44 65q15 34 64 209q26 92 26 135q0 26 -17 43.5
t-41 17.5q-23 0 -47.5 -29t-57.5 -139q-60 -196 -60 -259q0 -26 14 -41t35 -15zM1251 -43q-78 0 -129.5 53t-51.5 147q0 154 94.5 259.5t204.5 105.5q83 0 135.5 -53.5t52.5 -147.5q0 -154 -95 -259t-211 -105zM1251 0q25 0 41 12q23 18 43 62q13 34 63 210q27 94 27 137
q0 27 -16.5 44t-38.5 17q-27 0 -50.5 -28t-57.5 -142q-58 -196 -58 -259q0 -25 13 -39t34 -14z" />
    <glyph glyph-name="guilsinglleft" unicode="&#x2039;" horiz-adv-x="528" 
d="M485 706l-200 -357l47 -358h-47l-192 358l343 357h49z" />
    <glyph glyph-name="guilsinglright" unicode="&#x203a;" horiz-adv-x="528" 
d="M44 -9l200 357l-48 358h48l192 -358l-343 -357h-49z" />
    <glyph glyph-name="uni20A8" unicode="&#x20a8;" horiz-adv-x="1720" 
d="M455 512l-93 -318q-20 -67 -20 -99q0 -30 24 -47.5t100 -18.5l-11 -29h-505l9 29q76 0 111 29t65 131l195 674q16 56 16 89q0 31 -20 47t-93 22l7 29h435q187 0 262.5 -65.5t75.5 -167.5q0 -107 -88 -194q-56 -54 -197 -93l94 -318q38 -128 66 -154.5t95 -28.5v-29h-327
l-149 512l-25 -1q-9 0 -27 1zM466 559q27 -1 46 -1q113 0 185.5 77t72.5 202q0 75 -39 113.5t-102 38.5q-16 0 -36 -1zM1667 717l-33 -239h-29q-6 93 -57 146.5t-108 53.5q-36 0 -59 -20.5t-23 -50.5q0 -25 10 -47t45 -58q122 -132 148.5 -181.5t26.5 -106.5
q0 -61 -31.5 -115.5t-93 -87.5t-127.5 -33q-46 0 -111 18q-43 13 -65 13q-20 0 -30.5 -6t-23.5 -25h-29l38 259h25q27 -95 51 -135t63 -63.5t76 -23.5q42 0 70 27t28 64q0 36 -18.5 70.5t-83.5 106.5q-91 98 -119 152q-20 38 -20 87q0 84 60.5 139.5t169.5 55.5
q48 0 119 -16q34 -9 55 -9q30 0 49 25h27z" />
    <glyph glyph-name="Euro" unicode="&#x20ac;" 
d="M722 570h-345q-12 -33 -21 -64h345l-17 -60h-344q-32 -131 -32 -222q0 -173 117 -173q88 0 163 57q39 29 125 125l28 -28q-93 -110 -152 -151q-102 -76 -231 -76q-272 0 -272 309q0 75 18 159h-78l17 60h74l4 12q7 24 16 52h-73l18 61h80q76 179 225 303q163 137 343 137
q84 0 141 -23q16 -7 79 -45l-66 -231h-30q8 43 8 80q0 156 -135 156q-97 0 -191 -123q-76 -98 -137 -254h341z" />
    <glyph glyph-name="trademark" unicode="&#x2122;" horiz-adv-x="1586" 
d="M-2 1050h601v-175h-27q-3 67 -38 101t-112 34h-30v-455q0 -66 15 -82q16 -22 65 -22v-26h-351v26q45 4 56 9.5t17 22t6 75.5v452h-27q-74 0 -109 -32t-41 -103h-25v175zM685 1050h284l179 -384l177 384h268v-30q-36 0 -50 -7.5t-21 -23t-7 -73.5v-365q0 -59 12 -74
q19 -22 66 -26v-26h-356v26q56 2 72 19t16 81v391l-247 -517h-19l-247 517v-388q0 -52 5 -65q7 -17 25 -27t60 -11v-26h-217v26q44 3 57.5 10t20 23.5t6.5 71.5v362q0 55 -7 71t-21 23.5t-56 7.5v30z" />
    <glyph glyph-name="u2212" unicode="&#x2212;" horiz-adv-x="903" 
d="M62 576h846v-102h-846v102z" />
    <glyph glyph-name="periodcentered" unicode="&#x2219;" horiz-adv-x="689" 
d="M304 331q-68 0 -108 42t-40 101q0 86 67.5 152t154.5 66q67 0 107.5 -40t40.5 -100q0 -90 -67 -155.5t-155 -65.5z" />
    <glyph glyph-name="u25CC" unicode="&#x25cc;" horiz-adv-x="1400" 
d="M776 896q-26 0 -42.5 18t-16.5 41q0 32 26.5 58.5t61.5 26.5q27 0 43 -15.5t16 -38.5q0 -37 -27 -63.5t-61 -26.5zM529 834q-26 0 -42.5 18t-16.5 41q0 32 27 58.5t61 26.5q28 0 43.5 -15t15.5 -39q0 -38 -28 -64t-60 -26zM997 834q-26 0 -42.5 18t-16.5 41q0 32 27 58.5
t61 26.5q28 0 43.5 -15t15.5 -39q0 -38 -28 -64t-60 -26zM324 662q-26 0 -42.5 18t-16.5 41q0 32 27 58.5t61 26.5q28 0 43.5 -15t15.5 -39q0 -38 -28 -64t-60 -26zM1134 662q-26 0 -42.5 18t-16.5 41q0 32 27 58.5t61 26.5q28 0 43.5 -15t15.5 -39q0 -38 -28 -64t-60 -26z
M212 428q-25 0 -41.5 18t-16.5 41q0 32 26.5 58.5t61.5 26.5q27 0 43 -15t16 -39q-1 -37 -28 -63.5t-61 -26.5zM1148 428q-25 0 -42 18t-16 41q0 32 26.5 58.5t61.5 26.5q27 0 42.5 -15t16.5 -39q0 -37 -27.5 -63.5t-61.5 -26.5zM229 194q-26 0 -42.5 18t-16.5 41
q0 32 27 58.5t61 26.5q28 0 43.5 -15.5t15.5 -38.5q0 -37 -27 -63.5t-61 -26.5zM1039 194q-26 0 -42.5 18t-16.5 41q-1 32 26.5 58.5t61.5 26.5q28 0 43.5 -15.5t15.5 -38.5q0 -37 -27 -63.5t-61 -26.5zM364 22q-27 0 -43 18.5t-16 41.5q0 33 27 59.5t61 26.5q28 0 44 -15.5
t16 -38.5q0 -39 -27.5 -65.5t-61.5 -26.5zM832 22q-27 0 -43 18.5t-16 41.5q0 33 27 59.5t61 26.5q28 0 43.5 -15.5t16.5 -38.5q0 -39 -27.5 -65.5t-61.5 -26.5zM585 -40q-25 0 -42 18t-17 41q0 32 27 58.5t61 26.5q28 0 44 -15.5t16 -38.5q0 -37 -27.5 -63.5t-61.5 -26.5z
M684 1040z" />
    <glyph glyph-name="u09470902" horiz-adv-x="0" 
d="M-104 1000h-80l-120 210q-60 106 -156 106q-33 0 -83 -16l-46 170q49 22 97 22q65 0 118.5 -29.5t120.5 -162.5zM115 1358l-150 -126l-100 126l151 124z" />
    <glyph glyph-name="u09470930094D" horiz-adv-x="0" 
d="M113 1241l-62 -8q-2 52 -25 78t-67 26q-47 0 -88 -39.5t-41 -109.5q0 -38 7.5 -64t58.5 -125h-80l-114 202q-38 69 -77 92.5t-86 23.5q-36 0 -82 -17l-47 170q55 23 98 23q81 0 131.5 -38t106.5 -155q19 85 77.5 138t121.5 53q78 0 124 -61.5t46 -155.5z" />
    <glyph glyph-name="u09470930094D0902" horiz-adv-x="0" 
d="M154 1326l-47 -44q-37 50 -102 50q-63 0 -115 -52.5t-52 -117.5q0 -50 27 -104h1q1 -1 30 -58h-80l-123 214q-58 102 -155 102q-25 0 -81 -16l-46 170q44 20 96 20q70 0 125 -34.5t122 -167.5q26 80 86.5 129t136.5 49q56 0 98.5 -39.5t78.5 -100.5zM139 1136l-139 -116
l-95 116l142 118z" />
    <glyph glyph-name="u09480902" horiz-adv-x="0" 
d="M-74 1000h-110q-149 102 -209 129t-114 27q-61 0 -120 -32l-46 178q52 24 111 24q77 0 170 -68.5t246 -227.5h12l-79 184q-54 126 -122 126q-34 0 -69 -16l-65 146q68 26 124 26q71 0 118 -43t69 -129zM188 1314l-150 -126l-100 126l151 124z" />
    <glyph glyph-name="u09480930094D" horiz-adv-x="0" 
d="M175 1260l-64 -18q-2 53 -25.5 79.5t-67.5 26.5q-52 0 -93.5 -42.5t-41.5 -113.5q0 -25 6 -48l37 -144h-110q-149 102 -209 129t-114 27q-61 0 -120 -32l-46 178q52 24 111 24q77 0 170 -68.5t246 -227.5h12l-71 192q-44 118 -130 118q-34 0 -69 -16l-65 146
q68 26 124 26q122 0 172 -126q63 130 178 130q85 0 127.5 -60t42.5 -180z" />
    <glyph glyph-name="u09480930094D0902" horiz-adv-x="0" 
d="M215 1322l-55 -36q-40 74 -107 74q-60 0 -113.5 -42t-53.5 -127q0 -36 7 -65l33 -126h-110q-149 102 -209 129t-114 27q-61 0 -120 -32l-46 178q52 24 111 24q77 0 170 -68.5t246 -227.5h12l-71 192q-44 118 -130 118q-34 0 -69 -16l-65 146q68 26 124 26q122 0 172 -126
q24 58 84.5 96t124.5 38q121 0 179 -182zM183 1154l-140 -116l-94 116l142 118z" />
    <glyph glyph-name="u0930094D" horiz-adv-x="0" 
d="M95 1242l-64 -10q-6 54 -29.5 81t-66.5 27q-46 0 -82 -40t-35 -104q0 -78 68 -196h-80q-38 59 -61 129.5t-23 121.5q0 102 64 170.5t145 68.5q80 0 121 -62t43 -186z" />
    <glyph glyph-name="u0930094D0902" horiz-adv-x="0" 
d="M160 1338l-48 -40q-61 64 -115 64q-90 0 -133.5 -56t-42.5 -121q0 -76 55 -185h-70q-101 153 -101 259q0 94 67.5 169.5t177.5 75.5q106 0 210 -166zM128 1158l-142 -118l-92 118l140 118z" />
    <glyph glyph-name="u094D0930Alt" horiz-adv-x="0" 
d="M-315 210l-571 -250l-38 110l633 260z" />
    <glyph glyph-name="u094D0930Default" horiz-adv-x="0" 
d="M-109 -350l-72 -60l-189 250l-301 -250l-72 90l375 320z" />
    <glyph glyph-name="u0936094D0930" horiz-adv-x="1136" 
d="M709 100l46 230l-501 -300l-107 110l529 290l-144 80q-150 -106 -415 -220l-115 120q250 100 372 168q-94 49 -141 106.5t-47 123.5q0 90 84 161t190 71q92 0 165.5 -90t73.5 -183q0 -59 -27.5 -115.5t-69.5 -91.5l182 -90l75 370h-40l-67 160h397l57 -160h-167
l-171 -840zM444 620q66 34 98.5 101.5t32.5 105.5q-1 27 -21 45t-55 18q-61 0 -113 -38.5t-52 -96.5q0 -94 110 -135z" />
    <glyph glyph-name="u095E094D0930" horiz-adv-x="1316" 
d="M754 400l-82 -400l-159 100l40 198l-529 -338l-58 110l352 206q-107 69 -147.5 137.5t-32.5 106.5l65 320h-203l-57 160h1386l57 -160h-543l-47 -230q97 80 197 80q75 0 147.5 -96.5t72.5 -178.5q0 -53 -39 -138.5t-125 -196.5l-146 120q108 80 155 175t47 137
q0 19 -10.5 28.5t-30.5 9.5q-102 0 -310 -150zM594 500l69 340h-280l-81 -400q-5 -23 7 -41.5t31 -18.5q58 0 254 120zM444 -40l-152 -110l-108 110l152 110z" />
    <glyph glyph-name="u09240924" horiz-adv-x="1044" 
d="M1114 840h-167l-171 -840l-159 100l89 440h-190q-68 0 -121 -71.5t-53 -187.5q0 -138 82 -241l-68 -40q-147 186 -147 368q0 96 47 172h-150l-47 160h680l28 140h-767l-57 160h1114z" />
    <glyph glyph-name="u0915094D0937" horiz-adv-x="1180" 
d="M1250 840h-167l-171 -840l-155 120l59 290q-92 -40 -188 -40q-72 0 -208 110q-132 -47 -184.5 -115.5t-52.5 -128.5q0 -44 31.5 -75t84.5 -31q64 0 98 40q-11 11 -11 38q-1 37 34.5 64.5t82.5 27.5q48 0 77 -30t30 -72q0 -84 -108 -148l102 -140l-110 -50l-58 160
q-40 -10 -82 -10q-107 0 -207.5 100t-100.5 189q0 76 68 151t174 120q-67 43 -103 105.5t-36 123.5q-1 95 83 163t190 68q95 0 171 -94.5t76 -188.5q0 -71 -48 -128t-143 -99q99 -40 112 -40q64 0 137 37.5t131 102.5l45 220h-110l-57 160h457zM354 600q102 44 162.5 103
t60.5 117q0 34 -27.5 57t-74.5 23q-70 0 -126.5 -54t-56.5 -123q0 -71 62 -123z" />
    <glyph glyph-name="u091C094D091E" horiz-adv-x="1008" 
d="M1078 840h-167l-171 -840l-159 100l89 440h-320q56 -44 83 -102t28 -115q0 -102 -75.5 -164.5t-168.5 -78.5l113 -230l-100 -50l-66 270q-80 0 -131 37.5t-50 89.5q-1 50 33.5 86.5t78.5 36.5q47 0 86 -70q45 6 100.5 40.5t56.5 110.5q-1 75 -61.5 141.5t-166.5 97.5
l43 60h550l28 140h-731l-57 160h1078z" />
    <glyph glyph-name="u0915094DHalf" horiz-adv-x="912" 
d="M982 840h-167l-55 -270q113 80 216 80l-38 -190q-80 0 -225 -120l-69 -340l-161 90l32 160q-146 -90 -198 -90q-100 0 -184.5 94.5t-84.5 185.5q0 110 100.5 195t232.5 85q95 0 197 -160l57 280h-635l-57 160h982zM556 450q-55 110 -158 110q-85 0 -150 -57.5t-65 -124.5
q0 -30 16.5 -52t46.5 -22q159 0 310 146z" />
    <glyph glyph-name="u0916094DHalf" horiz-adv-x="1040" 
d="M537 120q160 0 293.5 53.5t206.5 146.5l-26 -130q-121 -100 -240 -155t-213 -55q-156 0 -339 214.5t-182 309.5q-1 32 20.5 59t44.5 27q53 0 100 -50q23 14 40 100l41 200h-283l-57 160h1110l57 -160h-647l-57 -280q-30 -145 -153 -210q52 -104 128.5 -167t155.5 -63z
M1050 380q-153 -110 -263 -110q-92 0 -168.5 85t-76.5 168q0 98 92.5 167.5t212.5 69.5t247 -160zM1072 540q-49 90 -212 90q-76 0 -134 -55t-57 -106q0 -22 21.5 -40.5t55.5 -18.5q140 0 326 130zM975 110zM1123 839zM1400 0z" />
    <glyph glyph-name="u0917094DHalf" horiz-adv-x="466" 
d="M536 840h-109l-87 -430q-10 -49 -35.5 -84.5t-49.5 -35.5q-63 0 -142.5 83t-79.5 141q0 36 31 51t70 15h60l53 260h-247l-57 160h536z" />
    <glyph glyph-name="u0918094DHalf" horiz-adv-x="624" 
d="M300 310q160 0 352 160l-44 -210q-164 -100 -260 -100q-100 0 -185 91.5t-85 180.5q0 128 156 196q-47 32 -74.5 81.5t-27.5 96.5q0 15 4 34h-137l-56 160h694l56 -160h-333q-35 -6 -53.5 -35t-18.5 -67q0 -52 38 -82q49 14 126 14l40 -150q-127 0 -212.5 -44.5
t-85.5 -97.5q0 -26 30.5 -47t75.5 -21zM595 110zM743 839zM1020 0z" />
    <glyph glyph-name="u0919094DHalf" horiz-adv-x="1102" 
d="M1172 840h-361l-53 -260h-340q-55 0 -98 -34t-43 -71q0 -18 13 -26.5t40 -8.5q37 0 129 16q80 14 127 14q67 0 129 -77.5t63 -144.5q0 -96 -107 -172t-251 -76q-117 0 -234 81.5t-205 218.5l60 50q60 -94 147 -147t183 -53q109 0 193 42t84 96q0 16 -11 24t-32 8
q-39 0 -118 -20t-120 -20q-71 0 -135 98t-64 182q0 74 50 122t111 48h300l22 110h-651l-57 160h1172zM1088 518l-150 -124l-100 124l151 126zM914 0zM805 -442l-70 -50q-180 234 -228.5 282t-84.5 48q-51 0 -108 -40l-48 110q59 50 150 50q101 0 295 -270z" />
    <glyph glyph-name="u091A094DHalf" horiz-adv-x="744" 
d="M814 840h-814l-57 160h814zM739 310q-168 -160 -332 -160q-76 0 -152 85.5t-76 158.5q0 38 22 78.5t55 67.5h-160l-37 160h650l77 -160zM766 540h-220q-68 0 -127.5 -39t-86 -86t-26.5 -76q0 -22 18.5 -40.5t48.5 -18.5q49 0 171 67.5t222 192.5zM707 130zM851 839z
M1128 0z" />
    <glyph glyph-name="u091B094DHalf" horiz-adv-x="1098" 
d="M799 790q82 0 147 -87.5t65 -174.5q-1 -85 -64 -207.5t-204.5 -221.5t-304.5 -99q-153 0 -250 70.5t-97 167.5q0 96 109 162q-118 94 -118 195q-1 76 81.5 126.5t181.5 50.5q20 0 40 -2l35 -170h-100q-43 0 -74 -24.5t-31 -55.5q-1 -20 14 -39.5t41 -30.5q76 30 146 30
l47 -160q-93 -8 -158.5 -42t-64.5 -79q0 -28 33 -48.5t82 -20.5q218 0 360 150q-80 41 -123.5 104.5t-43.5 131.5q0 99 77 186.5t174 87.5zM1168 840h-1168l-57 160h1168zM878 540q3 13 3 26q0 64 -55 64q-53 0 -94.5 -41t-41.5 -106q0 -91 75 -153q89 84 113 210z" />
    <glyph glyph-name="u091C094DHalf" horiz-adv-x="766" 
d="M836 840h-836l-57 160h836zM804 520h-220q59 -94 59 -178q0 -94 -74.5 -156t-165.5 -62q-103 0 -221 167.5t-128 328.5l76 30q22 -139 93 -224.5t164 -85.5q41 0 74 35t34 104q0 114 -102 181l28 40h420zM725 100zM875 839zM1152 0z" />
    <glyph glyph-name="u091D094DHalf" horiz-adv-x="844" 
d="M506 490q38 0 66 -20h20q90 0 302 110l-45 -220q-206 0 -235 20q31 -33 31 -103q0 -100 -47 -160t-140 -113.5t-172 -53.5l40 -150l-117 -30l6 174q-90 0 -145.5 40t-55.5 94q0 42 30.5 77t70.5 35q68 0 106 -70q116 0 205 55t89 124q0 31 -22 31q-31 0 -98 -20t-100 -20
q-78 0 -141.5 83.5t-63.5 164.5q0 91 70.5 146.5t156.5 55.5h190l20 100h-527l-57 160h914l57 -160h-207l-49 -240h-320q-46 0 -83.5 -35t-37.5 -73q0 -16 15 -29t36 -13q41 0 120 20t118 20zM793 120zM939 839zM1216 0z" />
    <glyph glyph-name="u091E094DHalf" horiz-adv-x="708" 
d="M766 306zM778 840h-778l-57 160h778zM643 360q-50 -89 -128 -144.5t-152 -55.5q-106 0 -200 84.5t-147 225.5l58 40q92 -190 241 -190q92 0 164 64.5t72 140.5q0 27 -11 41t-32 14q-42 0 -91 -26.5t-89 -73.5l-90 150q99 90 199 90q80 0 155 -68t64 -132q45 -44 105 -44
q76 0 125 44l-30 -150q-41 -50 -113 -50q-59 0 -100 40zM719 100zM869 839zM1146 0z" />
    <glyph glyph-name="u091F094DHalf" horiz-adv-x="836" 
d="M906 840h-215l-45 -220q-8 -39 -41.5 -64.5t-76.5 -25.5q-151 -14 -257.5 -99.5t-106.5 -178.5q0 -44 32 -78t83 -34q180 0 366 130l84 -130q-193 -140 -329 -140q-158 0 -263.5 97.5t-105.5 220.5q0 131 109 224.5t255 117.5q51 8 81 33t39 67l16 80h-531l-57 160h906z
M753 -444l-70 -50q-180 234 -228.5 282t-84.5 48q-51 0 -108 -40l-48 110q59 50 150 50q101 0 295 -270z" />
    <glyph glyph-name="u0920094DHalf" horiz-adv-x="888" 
d="M958 840h-243q18 -34 18 -82q0 -62 -23.5 -103.5t-78.5 -80.5q142 -91 142 -216q0 -61 -41.5 -144t-131 -148.5t-196.5 -65.5q-156 0 -260 104t-104 235q0 149 117 245t266 96q55 0 96.5 27.5t41.5 73.5q0 34 -26 59h-535l-57 160h958zM512 530q-132 0 -235 -77
t-103 -178q0 -56 38 -95.5t101 -39.5q94 0 172 47.5t113.5 108t35.5 106.5q0 40 -33 76t-89 52zM718 -444l-70 -50q-180 234 -228.5 282t-84.5 48q-51 0 -108 -40l-48 110q59 50 150 50q101 0 295 -270z" />
    <glyph glyph-name="u0921094DHalf" horiz-adv-x="914" 
d="M984 840h-173l-53 -260h-340q-55 0 -98 -34t-43 -71q0 -18 13 -26.5t40 -8.5q37 0 129 16q80 14 127 14q67 0 129 -77.5t63 -144.5q0 -96 -107 -172t-251 -76q-117 0 -234 81.5t-205 218.5l60 50q60 -94 147 -147t183 -53q109 0 193 42t84 96q0 16 -11 24t-32 8
q-39 0 -118 -20t-120 -20q-71 0 -135 98t-64 182q0 74 50 122t111 48h300l22 110h-651l-57 160h984zM753 -444l-70 -50q-180 234 -228.5 282t-84.5 48q-51 0 -108 -40l-48 110q59 50 150 50q101 0 295 -270z" />
    <glyph glyph-name="u0922094DHalf" horiz-adv-x="896" 
d="M966 840h-171l-51 -250h-320q-93 0 -170 -78.5t-77 -174.5q0 -60 34 -111.5t94 -75.5q-19 31 -19 78q-1 107 84 179.5t192 72.5q76 0 131 -77t55 -160q0 -117 -96.5 -180t-207.5 -63q-146 0 -266.5 142t-120.5 283q0 136 103.5 225.5t234.5 89.5h200l20 100h-615l-57 160
h966zM375 150h40q84 0 150.5 43.5t67.5 102.5q0 23 -15.5 38.5t-42.5 15.5q-82 0 -144 -63.5t-56 -136.5zM753 -444l-70 -50q-180 234 -228.5 282t-84.5 48q-51 0 -108 -40l-48 110q59 50 150 50q101 0 295 -270z" />
    <glyph glyph-name="u0923094DHalf" horiz-adv-x="772" 
d="M-57 1000h842l57 -160h-113l-71 -350q-25 -119 -104.5 -209.5t-176.5 -90.5q-89 0 -187 111.5t-106 218.5l65 320h-149zM456 480l73 360h-200l-81 -400q-3 -12 -3 -22q0 -30 16.5 -52t46.5 -22q51 0 93.5 39.5t54.5 96.5z" />
    <glyph glyph-name="u0924094DHalf" horiz-adv-x="542" 
d="M612 840h-612l-57 160h612zM617 700l-33 -160h-190q-72 0 -130 -60t-58 -159q0 -135 92 -251l-60 -50q-178 225 -178 416q0 122 83 193t182 71h292zM481 120zM627 839zM904 0z" />
    <glyph glyph-name="u0925094DHalf" horiz-adv-x="732" 
d="M277 260q116 0 239 67.5t212 182.5l-51 -250q-146 -120 -304 -120q-109 0 -198 87.5t-127 232.5q157 0 254 70q-88 35 -137.5 100.5t-49.5 136.5q0 96 79 169.5t186 73.5t179 -82.5t72 -180.5q0 -133 -127 -240.5t-301 -166.5q24 -80 74 -80zM350 570q91 76 127.5 149.5
t36.5 117.5q-1 19 -22.5 29t-51.5 10q-67 0 -124.5 -57t-57.5 -123q0 -39 25 -74t67 -52zM802 840h-67l-57 160h67zM649 120zM795 839zM1072 0z" />
    <glyph glyph-name="u0926094DHalf" horiz-adv-x="844" 
d="M914 840h-145l-57 -280h-350q-75 0 -139 -62t-64 -137q-1 -56 50 -97.5t128 -41.5q36 0 66.5 13.5t30.5 30.5q-1 1 -1.5 3t-3 9.5t-3.5 17t-1 20.5q0 51 45.5 72.5t91.5 21.5q57 0 91 -39.5t34 -92.5q0 -93 -110 -138l83 -230l-118 -40l-19 250q-67 -10 -122 -10
q-130 0 -239.5 110t-109.5 218q0 99 79 190.5t184 91.5h250l24 120h-589l-57 160h914zM736 -445l-70 -50q-180 234 -228.5 282t-84.5 48q-51 0 -108 -40l-48 110q59 50 150 50q101 0 295 -270z" />
    <glyph glyph-name="u0927094DHalf" horiz-adv-x="660" 
d="M692 490l-46 -220q-166 -100 -300 -100q-100 0 -184 80t-84 158q0 68 57 128t141 74q-75 29 -115.5 85.5t-40.5 116.5q0 87 78 147.5t172 60.5q76 0 126 -43t50 -105q0 -73 -62 -124.5t-132 -51.5q-16 0 -38 4v-6q-2 -10 -2 -12q0 -29 34 -45.5t74 -16.5q31 0 70 10
l50 -150q-144 0 -242.5 -28.5t-107.5 -71.5v-6q0 -25 37 -44.5t89 -19.5q73 0 174 48t202 132zM414 940q-57 0 -95.5 -37.5t-38.5 -78.5q0 -29 25.5 -51.5t68.5 -22.5q42 0 76 31.5t34 84.5q0 36 -19 55t-51 19zM729 840h-87l-66 160h97zM624 120zM770 839zM1046 0z" />
    <glyph glyph-name="u0928094DHalf" horiz-adv-x="496" 
d="M566 840h-566l-57 160h566zM146 580h400l-32 -160h-230l-19 -90q-9 -46 -30 -73t-40 -27q-58 0 -107.5 83t-49.5 156q0 62 33.5 86.5t74.5 24.5zM439 100zM589 839zM866 0z" />
    <glyph glyph-name="u0929094DHalf" horiz-adv-x="496" 
d="M566 840h-566l-57 160h566zM146 580h400l-32 -160h-230l-19 -90q-9 -46 -30 -73t-40 -27q-58 0 -107.5 83t-49.5 156q0 62 33.5 86.5t74.5 24.5zM439 100zM589 839zM866 0zM370 20l-149 -124l-101 124l152 126z" />
    <glyph glyph-name="u092A094DHalf" horiz-adv-x="524" 
d="M302 370q83 0 264 170l-49 -240q-97 -60 -172 -60q-79 0 -157.5 79.5t-107.5 190.5l67 330h-147l-57 160h594l57 -160h-267l-79 -390q-2 -10 -2 -17q-1 -24 15.5 -43.5t40.5 -19.5zM499 100zM649 839zM926 0z" />
    <glyph glyph-name="u092B094DHalf" horiz-adv-x="862" 
d="M670 370l-76 -370l-161 90l34 170q-94 -40 -128 -40q-74 0 -159.5 112.5t-93.5 217.5l59 290h-145l-57 160h932l57 -160h-167l-51 -250q125 90 219 90l-39 -190q-54 0 -114.5 -33t-109.5 -87zM512 480l73 360h-260l-79 -390q-5 -24 6 -47t30 -23q126 0 230 100z" />
    <glyph glyph-name="u092C094DHalf" horiz-adv-x="642" 
d="M712 840h-712l-57 160h712zM704 640l-75 -370q-136 -110 -302 -110q-106 0 -193.5 91t-87.5 182q0 120 121.5 215.5t278.5 95.5q155 0 258 -104zM406 600l89 -250q66 23 104 73.5t39 94.5q0 38 -36.5 65t-93.5 27q-68 0 -102 -10zM419 320l-97 260q-67 -20 -106.5 -82
t-39.5 -104q0 -35 34 -62.5t86 -27.5q60 0 123 16zM571 110zM719 839zM996 0z" />
    <glyph glyph-name="u092D094DHalf" horiz-adv-x="726" 
d="M525 720l-45 -220h280l-33 -160h-280l-14 -70q-5 -27 -22 -48.5t-32 -21.5q-69 0 -155 88t-86 147q0 32 26.5 48.5t55.5 16.5h80l16 80q-106 31 -166.5 97.5t-60.5 142.5q0 87 68.5 148.5t150.5 61.5q85 0 153 -88.5t68 -175.5q0 -23 -4 -46zM377 780q5 24 5 49
q0 34 -13 57.5t-36 23.5q-40 0 -72 -44t-32 -89q-1 -41 29 -77t82 -50q24 78 37 130zM796 840h-157l-67 160h167zM693 100zM843 839zM1120 0z" />
    <glyph glyph-name="u092E094DHalf" horiz-adv-x="596" 
d="M666 840h-267l-69 -340h300l-33 -160h-300l-16 -80q-12 -60 -52 -60q-47 0 -118 97t-71 149q0 25 21.5 39.5t48.5 14.5h40l69 340h-219l-57 160h666zM559 120zM705 839zM982 0z" />
    <glyph glyph-name="u092F094DHalf" horiz-adv-x="596" 
d="M332 362q149 0 300 142l-44 -216q-117 -92 -234 -92q-121 0 -203.5 125t-94.5 303q141 0 203.5 45.5t62.5 110.5q0 33 -22 60h-301l-56 160h666l56 -160h-275q60 -89 60 -158q0 -89 -89 -144t-189 -60q46 -116 160 -116zM553 110zM701 839zM978 0z" />
    <glyph glyph-name="u093F_2" horiz-adv-x="494" 
d="M564 840h-167l-171 -840l-168 60l159 780h-217l-57 160h357q-43 27 -65.5 77.5t-21.5 105.5q0 145 155.5 226t340.5 81q355 0 638 -100t473 -290l-46 -30q-379 310 -987 310q-171 0 -301 -77t-130 -192q0 -68 44 -111h107z" />
    <glyph glyph-name="u093F_2_0902" horiz-adv-x="494" 
d="M564 840h-167l-171 -840l-168 60l159 780h-217l-57 160h357q-43 27 -65.5 77.5t-21.5 105.5q0 145 155.5 226t340.5 81q355 0 638 -100t473 -290l-46 -30q-379 310 -987 310q-171 0 -301 -77t-130 -192q0 -68 44 -111h107zM2021 1364l-152 -126l-98 126l149 124z" />
    <glyph glyph-name="u0932094DHalf" horiz-adv-x="836" 
d="M905 840h-906l-56 160h906zM896 630l-10 -50q-16 16 -38 16q-52 0 -139.5 -83t-148.5 -213l-146 70l98 140q-38 50 -110 50q-67 0 -123.5 -61.5t-56.5 -180.5q0 -87 39 -163.5t113 -124.5l-50 -50q-130 84 -198 194.5t-68 225.5q0 148 98 234t218 86q100 0 212 -140
q67 62 125.5 82t94.5 20q65 0 90 -52zM807 90zM959 839zM1236 0z" />
    <glyph glyph-name="u0933094DHalf" horiz-adv-x="1066" 
d="M1136 840h-1136l-57 160h1136zM551 210q-40 -60 -113.5 -95t-152.5 -35q-93 0 -165 96.5t-72 192.5q0 115 91.5 233t215.5 118q81 0 141 -37.5t98 -112.5q58 75 125.5 112.5t145.5 37.5q101 0 160.5 -76t59.5 -179q0 -152 -104 -268.5t-206 -116.5q-80 0 -141.5 36
t-82.5 94zM536 480q-46 90 -102 90q-80 0 -147 -52.5t-97 -118.5t-30 -111q0 -44 17 -66t52 -22q78 0 162 76.5t145 203.5zM593 270q44 -70 86 -70q85 0 158.5 66.5t104 143.5t30.5 106q-1 23 -16 38.5t-42 15.5q-84 0 -172.5 -87t-148.5 -213z" />
    <glyph glyph-name="u0934094DHalf" horiz-adv-x="1066" 
d="M1136 840h-1136l-57 160h1136zM551 210q-40 -60 -113.5 -95t-152.5 -35q-93 0 -165 96.5t-72 192.5q0 115 91.5 233t215.5 118q81 0 141 -37.5t98 -112.5q58 75 125.5 112.5t145.5 37.5q101 0 160.5 -76t59.5 -179q0 -152 -104 -268.5t-206 -116.5q-80 0 -141.5 36
t-82.5 94zM536 480q-46 90 -102 90q-80 0 -147 -52.5t-97 -118.5t-30 -111q0 -44 17 -66t52 -22q78 0 162 76.5t145 203.5zM593 270q44 -70 86 -70q85 0 158.5 66.5t104 143.5t30.5 106q-1 23 -16 38.5t-42 15.5q-84 0 -172.5 -87t-148.5 -213zM610 -76l-149 -124l-101 124
l152 126z" />
    <glyph glyph-name="u0935094DHalf" horiz-adv-x="630" 
d="M700 840h-700l-57 160h700zM666 510l-49 -240q-126 -90 -278 -90q-109 0 -200 92.5t-91 182.5q0 101 97.5 188t225.5 87q187 0 295 -220zM618 470q-120 120 -196 120q-97 0 -168 -66.5t-71 -133.5q0 -37 27.5 -63.5t72.5 -26.5q84 0 173.5 45t161.5 125zM571 120z
M717 839zM994 0z" />
    <glyph glyph-name="u0936094DHalf" horiz-adv-x="738" 
d="M808 840h-201q73 -77 73 -177q0 -65 -42.5 -160t-143.5 -190.5t-216 -138.5l162 -224l-100 -50l-125 260q-75 -7 -126 29.5t-51 79.5q0 33 33 81t82 48q27 0 51 -33.5t29 -64.5q77 31 177 142q-255 101 -255 248q0 47 16 80.5t54 69.5h-225l-57 160h808zM546 730
q0 112 -102 112q-49 0 -84.5 -51t-35.5 -112q0 -93 130 -177q92 135 92 228z" />
    <glyph glyph-name="u0937094DHalf" horiz-adv-x="504" 
d="M517 1000l57 -160h-247l220 -294l-54 -266q-75 -56 -171 -56q-63 0 -143.5 99.5t-96.5 196.5l65 320h-147l-57 160h574zM494 480l-189 250l-61 -300q-2 -10 -2 -17q0 -22 7.5 -32.5t22.5 -10.5q55 0 115 28.5t107 81.5zM479 110zM627 839zM904 0z" />
    <glyph glyph-name="u0938094DHalf" horiz-adv-x="682" 
d="M380 470q-55 -139 -175 -170l223 -280l-90 -50l-223 330q-36 53 -57 107.5t-20 90.5q0 36 23.5 59t50.5 23q46 0 94 -30q20 0 32 60l47 230h-285l-57 160h752l57 -160h-287l-63 -310q76 -40 142 -40q117 0 182 60l-34 -170q-65 -40 -149 -40q-81 0 -163 130zM663 120z
M809 839zM1086 0z" />
    <glyph glyph-name="u0939094DHalf" horiz-adv-x="832" 
d="M902 840h-187l-53 -260h-310q-52 0 -91.5 -34.5t-39.5 -73.5q0 -16 12 -29t29 -13h590l-23 -110h-490q-56 0 -98.5 -54t-42.5 -111q0 -92 141 -169t363 -96l-32 -60q-281 24 -463 127.5t-182 227.5q0 68 46.5 130t114.5 85q-63 52 -63 123q0 74 67 130.5t149 56.5h170
l26 130h-535l-57 160h902z" />
    <glyph glyph-name="u0958094DHalf" horiz-adv-x="912" 
d="M982 840h-167l-55 -270q113 80 216 80l-38 -190q-80 0 -225 -120l-69 -340l-161 90l32 160q-146 -90 -198 -90q-100 0 -184.5 94.5t-84.5 185.5q0 110 100.5 195t232.5 85q95 0 197 -160l57 280h-635l-57 160h982zM556 450q-55 110 -158 110q-85 0 -150 -57.5t-65 -124.5
q0 -30 16.5 -52t46.5 -22q159 0 310 146zM324 22l-149 -124l-101 124l152 126z" />
    <glyph glyph-name="u0959094DHalf" horiz-adv-x="1040" 
d="M537 120q160 0 293.5 53.5t206.5 146.5l-26 -130q-121 -100 -240 -155t-213 -55q-156 0 -339 214.5t-182 309.5q-1 32 20.5 59t44.5 27q53 0 100 -50q23 14 40 100l41 200h-283l-57 160h1110l57 -160h-647l-57 -280q-30 -145 -153 -210q52 -104 128.5 -167t155.5 -63z
M1050 380q-153 -110 -263 -110q-92 0 -168.5 85t-76.5 168q0 98 92.5 167.5t212.5 69.5t247 -160zM1072 540q-49 90 -212 90q-76 0 -134 -55t-57 -106q0 -22 21.5 -40.5t55.5 -18.5q140 0 326 130zM975 110zM1123 839zM1400 0zM213 16l-149 -124l-101 124l152 126z" />
    <glyph glyph-name="u095A094DHalf" horiz-adv-x="466" 
d="M536 840h-109l-87 -430q-10 -49 -35.5 -84.5t-49.5 -35.5q-63 0 -142.5 83t-79.5 141q0 36 31 51t70 15h60l53 260h-247l-57 160h536zM293 20l-149 -124l-101 124l152 126z" />
    <glyph glyph-name="u095B094DHalf" horiz-adv-x="766" 
d="M836 840h-836l-57 160h836zM804 520h-220q59 -94 59 -178q0 -94 -74.5 -156t-165.5 -62q-103 0 -221 167.5t-128 328.5l76 30q22 -139 93 -224.5t164 -85.5q41 0 74 35t34 104q0 114 -102 181l28 40h420zM725 100zM875 839zM1152 0zM278 14l-149 -124l-101 124l152 126z
" />
    <glyph glyph-name="u095E094DHalf" horiz-adv-x="862" 
d="M670 370l-76 -370l-161 90l34 170q-94 -40 -128 -40q-74 0 -159.5 112.5t-93.5 217.5l59 290h-145l-57 160h932l57 -160h-167l-51 -250q125 90 219 90l-39 -190q-54 0 -114.5 -33t-109.5 -87zM512 480l73 360h-260l-79 -390q-5 -24 6 -47t30 -23q126 0 230 100zM255 31
l-149 -124l-101 124l152 126z" />
    <glyph glyph-name="u0936094D0930Half" horiz-adv-x="632" 
d="M703 798q-1 -122 -173 -228l256 -170l-17 -80l-299 200q-226 -138 -371 -200l-95 120q204 70 352 160q-65 42 -99.5 96.5t-34.5 109.5q-1 84 68 149t152 65q108 0 184 -69.5t77 -152.5zM414 640q80 51 121 112.5t41 99.5q0 24 -15 36t-44 12q-71 0 -124.5 -46t-53.5 -100
q0 -27 21 -60t54 -54zM713 100zM863 840zM1140 0z" />
    <glyph glyph-name="u0924094D0930Half" horiz-adv-x="524" 
d="M594 840h-594l-57 160h594zM529 360l-418 -240l-64 130l479 240q-85 70 -196 70q-109 0 -206 -80l-58 160q113 80 217 80q153 0 279 -200zM491 100zM641 839zM918 0z" />
    <glyph glyph-name="u0924094D0924Half" horiz-adv-x="524" 
d="M594 840h-594l-57 160h594zM706 540h-190q-65 0 -117 -60t-52 -171q0 -141 86 -229l-69 -40q-153 193 -153 349q-1 78 45 151h-150l-47 160h680zM617 100zM767 840zM1044 0z" />
    <glyph glyph-name="u0915094D0937Half" horiz-adv-x="800" 
d="M592 490q128 0 262 110l-34 -170q-101 -50 -190 -50q-98 0 -200 100q-102 -33 -173.5 -95.5t-71.5 -140.5q0 -54 26.5 -84t67.5 -30q73 0 96 30q-11 14 -11 40q0 39 39.5 69.5t89.5 30.5t79 -27.5t29 -67.5t-25.5 -80.5t-71.5 -64.5l108 -210l-98 -40l-60 220
q-35 -14 -98 -14q-118 0 -218 97.5t-100 191.5q0 79 74 157.5t190 127.5q-122 99 -122 202q0 86 82.5 152t185.5 66q86 0 155.5 -82.5t69.5 -166.5q-1 -69 -47 -129.5t-138 -111.5q39 -30 104 -30zM346 610q98 42 147.5 90.5t49.5 103.5q0 34 -21.5 55t-60.5 21
q-57 0 -107 -37.5t-50 -118.5q0 -76 42 -114zM870 840h-117l-67 160h127zM757 120zM903 839zM1180 0z" />
    <glyph glyph-name="u091C094D091EHalf" horiz-adv-x="600" 
d="M670 840h-670l-57 160h670zM675 700l-33 -160h-280q116 -75 116 -194q-1 -101 -82 -170t-185 -86l93 -230l-88 -40l-57 260q-74 0 -122.5 40.5t-48.5 93.5q0 46 31 86t72 40q44 0 74 -80q62 0 115 42t53 113t-59 136.5t-167 108.5l28 40h540zM581 100zM731 839zM1008 0z
" />
    <glyph glyph-name="u093F0902" horiz-adv-x="488" 
d="M558 840h-167l-172 -840l-156 121l148 719h-211l-57 159h333q-67 90 -67 183q0 116 115.5 212.5t263.5 96.5q170 0 333.5 -111.5t299.5 -318.5l-47 -31q-111 140 -248 224.5t-279 84.5q-112 0 -198.5 -63t-86.5 -186v-15q4 -46 15 -76h124zM1409 1364l-152 -126l-98 126
l149 124z" />
    <glyph glyph-name="u093F0930094D" horiz-adv-x="488" 
d="M558 840h-167l-171 -840l-155 120l146 720h-211l-57 160h335q-70 86 -69 182q-1 116 113 212t265 96q257 0 490 -246q-6 110 59 178t141 68t121 -55t45 -133q0 -29 -6 -62l-63 -10q3 13 3 24q0 35 -24.5 60.5t-65.5 25.5q-47 0 -81 -40t-34 -107q0 -90 58 -183h-70
q-73 155 -209 242.5t-304 87.5q-106 0 -195 -61.5t-89 -188.5q0 -51 15 -90h123z" />
    <glyph glyph-name="u093F0930094D0902" horiz-adv-x="488" 
d="M558 840h-167l-171 -840l-155 120l146 720h-211l-57 160h335q-70 86 -69 182q-1 116 113 212t265 96q257 0 490 -246q-6 110 59 178t141 68q77 0 123 -54.5t47 -139.5v-6l-52 -10q-14 70 -96 70q-47 0 -87 -42t-40 -115q0 -90 58 -183h-70q-73 155 -209 242.5t-304 87.5
q-106 0 -195 -61.5t-89 -188.5q0 -51 15 -90h123zM1434 1150l-126 -88l-90 88l126 88z" />
    <glyph glyph-name="u093F_3" horiz-adv-x="488" 
d="M558 840h-167l-171 -840l-155 120l146 720h-211l-57 160h341q-45 57 -45 144q-1 123 95.5 199.5t214.5 76.5q103 0 200.5 -84t174.5 -236l-46 -30q-126 200 -319 200q-82 0 -145.5 -63t-63.5 -144q0 -36 14 -63h137zM587 1490z" />
    <glyph glyph-name="u093F_3_0902" horiz-adv-x="488" 
d="M558 840h-167l-171 -840l-155 120l146 720h-211l-57 160h341q-45 57 -45 144q-1 123 95.5 199.5t214.5 76.5q103 0 200.5 -84t174.5 -236l-46 -30q-126 200 -319 200q-82 0 -145.5 -63t-63.5 -144q0 -36 14 -63h137zM587 1490zM1117 1364l-152 -126l-98 126l149 124z" />
    <glyph glyph-name="u093F_3_0930094D" horiz-adv-x="488" 
d="M558 840h-167l-171 -840l-155 120l146 720h-211l-57 160h341q-45 57 -45 144q-1 123 95.5 199.5t214.5 76.5q142 0 266 -150v4q0 92 63.5 154t134.5 62q76 0 121 -55t45 -133q0 -29 -6 -62l-63 -10q3 13 3 24q0 35 -24.5 60.5t-65.5 25.5q-45 0 -79 -37t-34 -88
q0 -76 70 -185h-80q-47 111 -138 175.5t-203 64.5q-82 0 -145.5 -63t-63.5 -144q0 -36 14 -63h137z" />
    <glyph glyph-name="u093F_3_0930094D0902" horiz-adv-x="488" 
d="M558 840h-167l-171 -840l-155 120l146 720h-211l-57 160h341q-45 57 -45 144q-1 123 95.5 199.5t214.5 76.5q142 0 266 -150v4q0 92 63.5 154t134.5 62q76 0 123.5 -51.5t48.5 -129.5v-9l-54 -20q-15 80 -94 80q-48 0 -87.5 -45t-39.5 -100q0 -76 70 -185h-80
q-47 111 -138 175.5t-203 64.5q-82 0 -145.5 -63t-63.5 -144q0 -36 14 -63h137zM1196 1160l-126 -88l-90 88l126 88z" />
    <glyph glyph-name="u09400902" horiz-adv-x="488" 
d="M558 840h-167l-171 -840l-155 120l146 720h-211l-57 160h331q4 106 -37.5 188t-117.5 82q-68 0 -120 -55t-51 -122q0 -31 4 -53h-100q-20 42 -20 98q0 117 78.5 199.5t178.5 82.5q127 0 204 -121t71 -299h137zM387 1490zM664 1260l-152 -126l-98 126l149 124z" />
    <glyph glyph-name="u09400930094D" horiz-adv-x="488" 
d="M558 840h-167l-171 -840l-155 120l146 720h-211l-57 160h331q4 106 -37.5 188t-117.5 82q-68 0 -120 -55t-51 -122q0 -31 4 -53h-100q-20 42 -20 98q0 117 78.5 199.5t178.5 82.5q118 0 193 -104q23 57 74.5 95.5t108.5 38.5q76 0 120.5 -54.5t45.5 -133.5q0 -29 -7 -62
l-62 -10q3 13 3 24q-1 35 -25 60.5t-65 25.5t-82 -59t-41 -156q0 -52 12 -85h137zM287 1490z" />
    <glyph glyph-name="u09400930094D0902" horiz-adv-x="488" 
d="M558 840h-167l-171 -840l-155 120l146 720h-211l-57 160h331q4 106 -37.5 188t-117.5 82q-68 0 -120 -55t-51 -122q0 -31 4 -53h-100q-20 42 -20 98q0 117 78.5 199.5t178.5 82.5q118 0 193 -104q23 57 74.5 95.5t108.5 38.5q77 0 124.5 -49.5t47.5 -116.5q0 -21 -4 -44
l-63 -10q-2 31 -22.5 50.5t-52.5 19.5q-53 0 -102 -51t-49 -141q0 -59 20 -108h137zM616 1130l-126 -88l-90 88l126 88zM287 1490z" />
    <glyph glyph-name="u0940_2" horiz-adv-x="492" 
d="M562 840h-167l-171 -840l-163 80l154 760h-215l-57 160h345q-51 132 -173 206t-290 74q-95 0 -174 -57.5t-79 -154.5q0 -29 8 -58h-100q-25 69 -25 138q0 125 111.5 214t239.5 89q180 0 336.5 -120.5t235.5 -330.5h127zM387 1490z" />
    <glyph glyph-name="u0940_2_0902" horiz-adv-x="492" 
d="M562 840h-167l-171 -840l-163 80l154 760h-215l-57 160h345q-51 132 -173 206t-290 74q-95 0 -174 -57.5t-79 -154.5q0 -29 8 -58h-100q-25 69 -25 138q0 125 111.5 214t239.5 89q180 0 336.5 -120.5t235.5 -330.5h127zM387 1490zM617 1340l-152 -126l-98 126l149 124z
" />
    <glyph glyph-name="u0940_2_0930094D" horiz-adv-x="492" 
d="M562 840h-167l-171 -840l-163 80l154 760h-215l-57 160h345q-51 132 -173 206t-290 74q-95 0 -174 -57.5t-79 -154.5q0 -29 8 -58h-100q-25 69 -25 138q0 125 111.5 214t241.5 89q218 0 415 -191q-3 17 -3 32q0 72 61.5 135t135.5 63q76 0 121 -55t45 -133q0 -29 -6 -62
l-63 -10q3 13 3 24q0 35 -24.5 60.5t-65.5 25.5q-48 0 -82 -40.5t-34 -112.5v-3q0 -28 5 -54q37 -64 62 -130h127z" />
    <glyph glyph-name="u0940_2_0930094D0902" horiz-adv-x="492" 
d="M562 840h-167l-171 -840l-163 80l154 760h-215l-57 160h345q-51 132 -173 206t-290 74q-95 0 -174 -57.5t-79 -154.5q0 -29 8 -58h-100q-25 69 -25 138q0 125 111.5 214t241.5 89q218 0 415 -191q-3 17 -3 32q0 72 61.5 135t135.5 63q73 0 125 -51.5t67 -138.5l-46 -30
q-7 42 -37 66t-75 24q-55 0 -97.5 -46t-42.5 -127v-3q0 -28 5 -54q37 -64 62 -130h127zM585 1152l-126 -88l-90 88l126 88z" />
    <glyph glyph-name="u0941_2" horiz-adv-x="0" 
d="M-848 -150l56 30q83 -132 204 -206t249 -74q94 0 164 57t70 120q0 22 -12.5 37.5t-34.5 15.5q-62 0 -159 -90l-79 100q85 60 216 60q71 0 120.5 -44.5t49.5 -112.5q0 -92 -78.5 -167.5t-176.5 -75.5q-174 0 -329 93t-260 257z" />
    <glyph glyph-name="u0942_2" horiz-adv-x="0" 
d="M152 -450l-48 -40l-166 220q-53 70 -135 70q-67 0 -111.5 -45t-44.5 -87q0 -48 49 -48q81 0 126 30l22 -90q-41 -20 -104 -20q-72 0 -127 57.5t-55 116.5q0 66 58 126t159 60q61 0 108.5 -33.5t122.5 -128.5z" />
    <glyph glyph-name="u0941_3" horiz-adv-x="0" 
d="M-972 -170l58 40q80 -126 185.5 -198t209.5 -72q64 0 119 35.5t74.5 74t19.5 59.5q0 17 -13.5 29t-36.5 12q-81 0 -155 -70l-51 90q97 70 174 70q58 0 114.5 -62t56.5 -118q0 -73 -73.5 -146.5t-168.5 -73.5q-143 0 -279 88t-234 242z" />
    <glyph glyph-name="u0942_3" horiz-adv-x="0" 
d="M93 -460l-42 -40l-274 230q-83 70 -165 70q-63 0 -110 -42.5t-47 -93.5q0 -25 18 -44.5t48 -19.5q52 0 132 60l20 -100q-55 -40 -108 -40q-67 0 -124.5 59.5t-57.5 116.5q0 75 72.5 139.5t166.5 64.5q92 0 166 -70z" />
    <glyph glyph-name="u0935Below" horiz-adv-x="0" 
d="M-354 -520l-139 100l16 80q-113 -70 -214 -70q-87 0 -142 45.5t-55 105.5q0 89 92.5 154t209.5 65q68 0 158 -60l30 150h160zM-453 -220l9 40q-76 30 -134 30q-51 0 -100.5 -27.5t-48.5 -67.5q0 -17 23 -31t57 -14q97 0 194 70z" />
    <glyph glyph-name="u092FAlt" horiz-adv-x="1106" 
d="M1176 840h-167l-171 -840l-163 80l28 140q-147 -120 -314 -120q-116 0 -196.5 74.5t-98.5 195.5q117 20 224 69.5t107 105.5q0 17 -17.5 26t-51.5 9h-389l33 160h335q54 0 116 -78.5t63 -133.5q0 -68 -66.5 -158t-164.5 -100q-2 -9 -2 -17q0 -24 16 -43.5t40 -19.5
q88 0 206.5 96t224.5 254l61 300h-829l-57 160h1176z" />
    <glyph glyph-name="u0930094DHalf" horiz-adv-x="584" 
d="M654 840h-654l-57 160h654zM600 410q-97 -70 -255 -70q-102 0 -188 72t-123 168l46 30q126 -100 260 -100q168 0 296 80z" />
    <glyph glyph-name="u0932Alt" horiz-adv-x="1120" 
d="M623 200q141 88 222.5 173.5t82.5 152.5q0 28 -23 46t-63 18q-70 0 -155.5 -87.5t-147.5 -222.5l-146 70q11 24 103 160q-38 70 -106 70t-121 -66t-53 -140q0 -63 40 -141.5t113 -152.5l-63 -60q-123 100 -187 207t-64 201q-1 115 88.5 203.5t205.5 88.5q110 0 201 -140
q52 59 105.5 94.5t91.5 35.5l26 130h-773l-57 160h1190l57 -160h-247l-28 -140q55 -22 84 -75t30 -118q0 -208 -285 -447z" />
    <glyph glyph-name="u0915094D0930" horiz-adv-x="1310" 
d="M1029.5 343q38.5 65 38.5 99q0 25 -15 41.5t-41 16.5q-121 0 -244 -120l-78 -380l-157 110l31 152l-542 -302l-48 110l267 138q-154 86 -154 241q-1 116 94 198.5t218 82.5q109 0 223 -180l59 290h-681l-57 160h1380l57 -160h-519l-49 -240q97 50 190 50q75 0 134 -86.5
t59 -172.5q0 -68 -43.5 -164t-123.5 -187l-137 110q100 128 138.5 193zM616 470q-81 100 -190 100q-70 0 -126 -53.5t-56 -116.5q0 -35 18 -52.5t55 -17.5q100 0 161 50z" />
    <glyph glyph-name="u0916094D0930" horiz-adv-x="1400" 
d="M1470 840h-167l-171 -840l-157 110l22 110l-705 -370l-38 110l209 94q-179 50 -303 212.5t-123 237.5q-1 32 20.5 59t44.5 27q53 0 100 -50q23 14 40 100l41 200h-283l-57 160h1470zM1017 320l8 40q-174 -90 -238 -90q-111 0 -180.5 64.5t-69.5 154.5q-1 116 94.5 193.5
t215.5 77.5q119 0 231 -140l45 220h-660l-57 -280q-30 -145 -153 -210q45 -90 123 -145t167 -55q270 0 474 170zM1072 540q-49 90 -212 90q-76 0 -134 -55t-57 -106q0 -22 21.5 -40.5t55.5 -18.5q140 0 326 130z" />
    <glyph glyph-name="u0917094D0930" horiz-adv-x="956" 
d="M679 840h-260l-89 -440q-7 -30 -20 -45t-33 -15q-60 0 -137.5 81t-76.5 135q0 31 28 47.5t63 16.5h60l45 220h-259l-57 160h1026l57 -160h-167l-171 -840l-159 100l26 130l-527 -230l-37 110l589 242z" />
    <glyph glyph-name="u091C094D0930" horiz-adv-x="1212" 
d="M800 176l-534 -216l-48 110l607 228l45 222h-250q32 -47 32 -108q0 -103 -66 -152.5t-139 -49.5q-131 0 -234 127t-154 323l66 30q33 -125 105 -202.5t158 -77.5q56 0 106 42t50 93q-1 65 -105 119l38 36h430l28 140h-935l-57 160h1282l57 -160h-167l-171 -840l-159 100z
" />
    <glyph glyph-name="u091D094D0930" horiz-adv-x="1336" 
d="M1068 0l-155 120l29 142l-233 -112l-32 90l288 138l3 12q-65 -50 -221 -50l-141 40q26 -41 26 -90q0 -123 -114.5 -219.5t-267.5 -110.5l62 -136l-99 -44l-35 170q-78 0 -131 36t-53 84q0 41 32.5 78.5t79.5 37.5q46 0 95 -76q111 -10 208 47.5t97 127.5q0 25 -35 25
q-32 0 -94 -20t-94 -20q-64 0 -121.5 97.5t-57.5 180.5q0 80 55 136t120 56h220l20 100h-519l-57 160h1406l57 -160h-167zM1002 560l57 280h-360l-49 -240h-300q-53 0 -96 -31t-43 -70q0 -23 21.5 -41t55.5 -18q29 0 99 16q62 14 97 14q70 0 102 -40q230 0 416 130z" />
    <glyph glyph-name="u0924094D0930" horiz-adv-x="918" 
d="M988 840h-167l-171 -840l-159 100l46 230l-416 -230l-86 120l523 260q-51 80 -194 80q-94 0 -218 -90l-88 160q143 100 281 100q110 0 245 -170l57 280h-641l-57 160h988z" />
    <glyph glyph-name="u0926094D0930" horiz-adv-x="818" 
d="M-57 1000h888l57 -160h-189l-55 -270h-280q-55 0 -99.5 -35.5t-44.5 -98.5q0 -56 43.5 -92t93.5 -36q30 0 66 12q-10 17 -10 42q0 40 39.5 74t91.5 34t84 -29.5t32 -73.5q0 -35 -20.5 -78.5t-66.5 -68.5l107 -310l-106 -30l-57 310l-455 -220l-90 100l331 150
q-104 54 -160 132t-56 160q0 102 83.5 165t188.5 63h140l20 100h-519z" />
    <glyph glyph-name="u092Q094D0930" horiz-adv-x="962" 
d="M535 100l28 140l-549 -240l-37 110l480 190q-146 52 -231 135.5t-85 169.5q0 18 3 35l41 200h-185l-57 160h1032l57 -160h-167l-171 -840zM587 360l98 480h-320l-45 -220q-4 -22 -4 -45q-1 -89 74.5 -152t196.5 -63z" />
    <glyph glyph-name="u092B094D0930" horiz-adv-x="1314" 
d="M752 400l-82 -400l-159 100l39 192l-512 -302l-57 110l316 170q-94 65 -131 136.5t-30 113.5l65 320h-201l-57 160h1384l57 -160h-543l-47 -230q97 80 197 80q75 0 147.5 -96.5t72.5 -178.5q0 -53 -39 -138.5t-125 -196.5l-146 120q108 80 155 175t47 137
q0 19 -10.5 28.5t-30.5 9.5q-102 0 -310 -150zM592 500l69 340h-280l-81 -400q-5 -23 7 -41.5t31 -18.5q58 0 254 120z" />
    <glyph glyph-name="u092C094D0930" horiz-adv-x="1012" 
d="M1082 840h-167l-171 -840l-157 110l28 140l-559 -290l-48 110l261 120q-96 25 -150 89.5t-54 142.5q-1 120 105 219t245 99q170 0 273 -130l47 230h-735l-57 160h1082zM398 606l105 -266q84 29 127.5 80.5t43.5 97.5q0 43 -45 72.5t-119 29.5q-60 0 -112 -14zM419 320
l-107 260q-81 -36 -113.5 -92.5t-32.5 -95.5q0 -37 33 -64.5t86 -27.5q76 0 134 20z" />
    <glyph glyph-name="u092D094D0930" horiz-adv-x="1120" 
d="M693 100l23 116l-592 -256l-38 110l655 270h-280l-8 -40q-6 -28 -28.5 -49t-45.5 -21q-61 0 -139.5 74t-78.5 124q0 29 28 50.5t65 21.5h80l12 60q-117 22 -187 89.5t-70 149.5q0 89 70 155t161 66q85 0 155.5 -81.5t71.5 -161.5q0 -18 -4 -37l-49 -240h280l69 340h-200
l-67 160h557l57 -160h-167l-171 -840zM421 830q2 8 2 21q0 25 -17 42t-49 17q-48 0 -86 -41.5t-38 -92.5q0 -46 37 -87t100 -59z" />
    <glyph glyph-name="u092E094D0930" horiz-adv-x="996" 
d="M593 220l-549 -240l-37 110l608 250h-298l-12 -60q-4 -18 -19.5 -34t-30.5 -16q-45 0 -125.5 85.5t-80.5 127.5q0 20 19 38.5t42 18.5h60l69 340h-239l-57 160h1066l57 -160h-167l-171 -840l-155 120zM650 500l69 340h-300l-69 -340h300z" />
    <glyph glyph-name="u0935094D0930" horiz-adv-x="1018" 
d="M1088 840h-167l-171 -840l-155 120l29 144l-572 -304l-55 120l250 118q-83 42 -126.5 110t-43.5 142q-1 118 98 209t228 91q168 0 283 -180l55 270h-741l-57 160h1088zM678 480q-149 120 -266 120q-95 0 -164.5 -57.5t-69.5 -121.5q0 -45 43.5 -78t111.5 -33
q140 0 345 170z" />
    <glyph glyph-name="u0938094D0930" horiz-adv-x="1166" 
d="M560 480q-97 0 -178 -20q-32 -105 -183 -160l219 -280l-84 -60l-181 260q-112 161 -112 269q0 52 30.5 76.5t66.5 24.5q18 0 64 -30q12 0 24 14.5t16 35.5l47 230h-289l-57 160h1236l57 -160h-167l-171 -840l-155 120l28 140l-388 -140l-38 110l447 132l8 38
q-41 40 -88.5 60t-151.5 20zM828 540l61 300h-420l-59 -290q88 50 182 50q143 0 236 -60z" />
    <glyph glyph-name="u0939094D0930" horiz-adv-x="976" 
d="M298 505q0 -27 12 -35q88 30 206 30q141 0 224.5 -90.5t83.5 -218.5q0 -87 -29 -149t-100 -130t-173 -122l-112 90q139 59 226 157.5t87 179.5q0 22 -6 43l-341 -250l-97 110l396 230q-23 30 -123 30q-172 0 -298 -104t-126 -233q-1 -106 97 -210.5t270 -172.5l-40 -50
q-166 31 -308.5 186t-142.5 281q0 76 56 186.5t162 166.5q-57 48 -57 136q0 85 47.5 124.5t100.5 39.5h330l22 110h-665l-57 160h1046l57 -160h-201l-49 -240h-440q-22 0 -40 -34.5t-18 -60.5z" />
    <glyph glyph-name="u0936094D0930Alt" horiz-adv-x="1140" 
d="M1210 840h-167l-171 -840l-159 100l42 210l-293 180q-222 -136 -349 -190l-105 120q168 72 312 160q-65 42 -99.5 96.5t-34.5 109.5q0 91 84 167.5t192 76.5q101 0 170 -85t69 -184q0 -74 -38 -124t-133 -107l240 -150l93 460h-50l-57 160h397zM386 610q84 43 138 103.5
t54 110.5q0 28 -25.5 47t-69.5 19q-62 0 -111 -48.5t-49 -118.5q0 -79 63 -113z" />
    <glyph glyph-name="u0915094D0915" horiz-adv-x="1346" 
d="M1153 660.5q66 -89.5 66 -166.5q0 -34 -17.5 -86.5t-46.5 -97.5q20 -24 20 -72q0 -122 -115 -248l-117 110q65 50 96 105.5t31 83.5q0 17 -13.5 29t-37.5 12q-150 0 -294 -120l-47 -230l-168 60l17 80q-121 -100 -241 -100q-85 0 -157.5 77t-72.5 151q-1 89 112 172
q-71 54 -71 133q0 81 85 139t193 58q107 0 255 -120l43 210h-673l-57 160h1416l57 -160h-563l-28 -140q77 50 190 50q72 0 138 -89.5zM786 510l-22 -110q96 70 194 70q48 0 86 -20q35 39 52 85.5t17 63.5t-13.5 29t-37.5 12q-90 0 -276 -130zM592 540q-96 80 -164 80
q-86 0 -148.5 -32.5t-62.5 -76.5q0 -24 27.5 -42.5t69.5 -18.5q131 0 278 90zM567 320l19 90q-127 -90 -279 -90q-58 0 -100 -36t-42 -80q0 -25 18 -44.5t48 -19.5q69 0 158 47.5t178 132.5z" />
    <glyph glyph-name="u0915094D0924" horiz-adv-x="1322" 
d="M1392 840h-497l-45 -220q82 50 181 50q72 0 126.5 -85.5t55.5 -170.5q0 -69 -40 -161t-122 -173l-136 120q99 84 136.5 161t37.5 111q0 24 -15 36t-44 12q-94 0 -218 -90l-88 -430l-159 100l81 400h-160q-50 0 -95.5 -65t-44.5 -180q0 -131 66 -215l-68 -40
q-82 102 -128 197.5t-46 160.5q0 49 25 89.5t61 52.5h-140l-67 160h630l36 180h-715l-57 160h1392z" />
    <glyph glyph-name="u0915094D0932" horiz-adv-x="1286" 
d="M1356 840h-547l-36 -180q96 60 202 60q83 0 146 -89t64 -179q0 -124 -108 -262l-138 110q148 168 148 242q0 24 -12.5 36t-36.5 12q-101 0 -310 -150l-45 -220q46 36 97 36q99 0 168 -74.5t69 -162.5q0 -100 -79.5 -180t-194.5 -109l-75 120q124 44 188.5 108t64.5 111
q0 25 -19.5 38t-58.5 13q-85 0 -169 -52.5t-140 -137.5l-148 60q49 74 93 110q-33 30 -134 30q-65 0 -118 -50t-53 -109q0 -52 57.5 -109t149.5 -92l-42 -60q-134 53 -208.5 137t-74.5 171q0 97 78.5 169.5t176.5 72.5q123 0 182 -90l41 200q-118 -60 -193 -60
q-105 0 -187.5 73.5t-82.5 154.5q-1 90 89.5 161t214.5 71q121 0 211 -140l43 210h-629l-57 160h1356zM550 550q-43 70 -146 70q-77 0 -134 -32.5t-57 -76.5q0 -20 16.5 -35.5t42.5 -15.5q131 0 278 90z" />
    <glyph glyph-name="u0915094D0935" horiz-adv-x="1286" 
d="M1356 840h-523l-36 -180q96 50 210 50q68 0 122 -94.5t55 -185.5q0 -66 -38 -142t-131 -178l-126 120q93 78 141 164t48 138q0 48 -38 48q-70 0 -282 -110l-100 -490l-164 80l11 50q-99 -80 -237 -80q-85 0 -147.5 74.5t-61.5 153.5q0 103 89 162q-41 51 -41 121
q0 103 83.5 166t188.5 63q101 0 233 -130l41 200h-653l-57 160h1356zM606 560q-68 70 -196 70q-78 0 -141 -36.5t-62 -84.5q0 -22 18.5 -40.5t48.5 -18.5q155 0 332 110zM539 280l23 110q-135 -69 -227 -69q-32 0 -56 9q-117 -85 -117 -138q0 -15 12 -28.5t29 -13.5
q178 0 336 130z" />
    <glyph glyph-name="u0917094D0928" horiz-adv-x="934" 
d="M657 840h-240l-61 -300q-7 -35 -33 -57.5t-53 -22.5q-50 0 -116.5 66.5t-66.5 111.5q0 26 24.5 44t57.5 18h80l28 140h-277l-57 160h1004l57 -160h-167l-171 -840l-155 120l38 190l-288 -90l16 -100q4 -26 -16 -48t-45 -22q-52 0 -125.5 72.5t-73.5 125.5v2
q0 23 38.5 53.5t91.5 46.5l437 130z" />
    <glyph glyph-name="u0919094D0915" horiz-adv-x="1024" 
d="M700 264q-73 -57 -163 -66l-17 -80q48 18 96 18q78 0 141.5 -64.5t63.5 -131.5q0 -100 -138 -200l-113 82q75 56 104 104t30 76q0 18 -11.5 27t-34.5 9q-12 0 -171 -82l-45 -224l-145 76l14 68q-106 -54 -173 -54q-81 0 -129.5 49t-48.5 116q-1 85 66 139t149 54
q72 0 176 -106l28 134q-100 18 -190.5 95.5t-147.5 192.5l51 36q51 -101 140.5 -158.5t194.5 -57.5q95 0 166 33t72 81q0 15 -7.5 22.5t-21.5 7.5q-38 0 -107 -26q-76 -28 -110 -28q-66 0 -131 81t-64 146q-1 56 49 94.5t111 38.5h220l15 74h-619l-57 160h1094l57 -160h-299
l-39 -192h-342q-44 0 -73 -17t-28 -42q0 -25 24 -37t73 -12q31 0 90 18q58 18 87 18q64 0 125 -65t61 -121q0 -69 -73 -126zM340 20q-83 54 -133 54q-70 0 -118 -35t-48 -80q0 -23 10.5 -35t32.5 -12q106 0 256 108zM1024 578l-153 -110l-107 110l152 110z" />
    <glyph glyph-name="u0919094D0916" horiz-adv-x="1114" 
d="M1184 840h-335l-43 -212h-356q-37 0 -62 -17t-25 -40q0 -16 14 -29.5t35 -13.5q35 0 116 22q74 20 114 20q68 0 125 -58.5t58 -114.5q0 -42 -31 -83l-129 -636l-92 50q-100 -50 -180 -50q-93 0 -182.5 50.5t-165.5 180t-76 187.5q0 25 19 40.5t41 15.5q33 0 55 -24
q26 0 45 92l35 172q-58 72 -87 152l39 34q58 -118 162 -187t228 -69q89 0 162.5 36t74.5 79q0 11 -12 17t-35 6q-39 0 -120 -26q-80 -26 -121 -26q-67 0 -121 68.5t-54 136.5t57.5 101.5t118.5 33.5h218l19 92h-693l-57 160h1184zM561 -162l14 68q-72 -58 -166 -58
q-73 0 -117.5 41.5t-44.5 98.5q-1 73 63.5 127.5t148.5 54.5t159 -52l23 112q-46 -18 -90 -18q-142 0 -286 94l-21 -102q-37 -177 -133 -238q36 -97 107.5 -154.5t155.5 -57.5q110 0 187 84zM600 26l3 16q-35 34 -113 34q-69 0 -120.5 -31t-51.5 -73q0 -24 12 -36t37 -12
q93 0 233 102zM1117 586l-152 -110l-108 110l153 110z" />
    <glyph glyph-name="u0919094D0917" horiz-adv-x="1024" 
d="M773 840l-44 -218h-306q-59 0 -103 -18t-43 -44q0 -21 25 -38.5t61 -17.5q37 0 111 14q73 14 110 14q60 0 107 -65t48 -131q-1 -107 -105 -182l-85 -416l-128 80l58 282q-78 0 -177 18l-48 -236q-4 -18 -15 -34t-23 -16q-48 0 -111 57.5t-62 98.5q0 19 15.5 32.5
t36.5 13.5h46l36 174q-100 82 -171 224l51 36q56 -112 146.5 -177t192.5 -65q100 0 176 46t77 101q0 16 -9 24.5t-27 8.5q-36 0 -103 -22q-72 -24 -105 -24q-79 0 -142 84.5t-63 169.5q0 70 40.5 111t85.5 41h268l15 74h-609l-57 160h1094l57 -160h-321zM1012 570l-152 -110
l-108 110l153 110z" />
    <glyph glyph-name="u0919094D0918" horiz-adv-x="1058" 
d="M1071 1000l57 -160h-339l-39 -192h-358q-44 0 -72.5 -17t-28.5 -41q0 -16 16.5 -28t38.5 -12q32 0 115 14q71 12 114 12q69 0 124.5 -55t55.5 -111q0 -36 -23.5 -84.5t-69.5 -81.5l-114 -558l-141 64l13 62q-68 -36 -115 -36q-93 0 -161 59.5t-68 128.5q0 88 108 144
q-35 23 -54.5 56t-19.5 62q0 53 49 72q-103 84 -146 170l54 46q99 -198 384 -198q74 0 151 31.5t77 81.5q0 12 -12 21.5t-35 9.5q-43 0 -121 -22q-85 -24 -123 -24q-68 0 -122.5 71t-54.5 139q-1 76 63 113t134 37h208l13 66h-629l-57 160h1128zM453 -26l48 234
q-32 -5 -67 -5q-76 0 -154 23q-40 -39 -40 -62q0 -24 21 -36t63 -12q15 0 32 2l40 -108h-98q-57 0 -99.5 -24t-41.5 -55q0 -18 19 -32.5t51 -14.5q141 0 226 90zM1049 586l-152 -110l-108 110l153 110z" />
    <glyph glyph-name="u0919094D092E" horiz-adv-x="1000" 
d="M739 840l-38 -188h-340q-30 0 -60 -21.5t-30 -49.5q-1 -11 22 -20t52 -9q37 0 110 12t110 12q60 0 111 -52.5t51 -104.5q0 -34 -21.5 -79.5t-58.5 -69.5l-114 -560l-144 76l24 120h-136l-8 -42q-4 -17 -21 -28.5t-40 -11.5q-49 0 -109.5 67.5t-59.5 113.5q-1 26 19 43.5
t42 17.5h50l40 196q-83 36 -171 212l50 42q34 -92 128 -148t213 -56q90 0 164 38.5t74 84.5q0 11 -12 17t-35 6q-41 0 -117 -16q-85 -18 -119 -18q-63 0 -112.5 64t-49.5 130q0 52 33 99t80 47h244l15 76h-575l-57 160h1070l57 -160h-331zM446 66l34 168q-14 -5 -34 -5
q-46 0 -100 15l-36 -178h136zM1001 612l-153 -110l-107 110l152 110z" />
    <glyph glyph-name="u0919094D0915094D0937" horiz-adv-x="1060" 
d="M496 -210l50 248q-120 0 -183 52q-215 -57 -215 -129q-1 -20 14.5 -36.5t39.5 -16.5q38 0 50 2q7 34 41 59t80 25q28 0 44 -18.5t17 -45.5q-1 -46 -31.5 -86t-70.5 -40l24 -130q-46 0 -78.5 16t-32.5 38l-1 76q-101 0 -164 52t-63 123q0 125 201 167q-107 73 -107 110
q-1 15 10 36.5t22 27.5q-93 62 -128 116l63 56q48 -78 157 -120t254 -42q53 0 106 21.5t53 56.5q0 16 -12.5 29t-35.5 13q-35 0 -96 -18q-68 -20 -106 -20q-83 0 -139 71t-56 145q-1 48 37 88t86 40h308q38 0 42 20l13 64h-689l-57 160h1130l57 -160h-281l-23 -112
q-9 -43 -43.5 -69.5t-75.5 -26.5h-304q-33 0 -59.5 -19.5t-26.5 -47.5q0 -14 13.5 -20.5t41.5 -6.5q9 0 115 16q53 8 88 8q83 0 136.5 -57.5t53.5 -126.5q0 -19 -4 -38l-127 -628zM271 170q31 6 56.5 20.5t25.5 31.5q0 21 -20 31.5t-59 10.5q-19 0 -32 -10.5t-12 -22.5
q0 -18 41 -61zM565 130l27 134h-120q6 -8 6 -25q0 -69 -50 -103q20 -20 64 -20q32 0 73 14zM1051 564l-152 -110l-108 110l152 110z" />
    <glyph glyph-name="u091A094D091A" horiz-adv-x="1504" 
d="M865 140q-53 0 -104.5 30.5t-83.5 79.5q-153 -110 -252 -110q-92 0 -166 92t-74 183q0 54 41 125h-120l-47 160h1010l67 -160h-260q-70 0 -122 -61t-52 -111q0 -33 37.5 -55.5t95.5 -22.5q96 0 183.5 46.5t131.5 123.5l77 380h-1227l-57 160h1574l57 -160h-167l-171 -840
l-159 100l26 130q-125 -90 -238 -90zM656 540h-210q-70 0 -122 -60.5t-51 -109.5q-1 -28 36 -49t88 -21q117 0 221 100q-2 11 -2 23q-1 61 40 117z" />
    <glyph glyph-name="u091B094D0935" horiz-adv-x="1052" 
d="M1122 840h-215l-15 -76q55 -31 83.5 -71.5t28.5 -80.5q0 -45 -37 -120t-126.5 -148t-215.5 -106l-106 -518l-139 100l14 70q-58 -20 -94 -20q-106 0 -174.5 51t-68.5 119q0 76 65 122t149 46q49 0 94 -18l72 -90l26 130q-150 0 -247.5 57t-96.5 135q0 26 8.5 41.5
t30.5 34t58 34.5q-125 70 -125 142q0 52 73 85t169 33q17 0 44 -2l46 -118h-98q-36 0 -68.5 -14.5t-31.5 -38.5q0 -34 59 -51q62 20 140 20l57 -112q-87 -6 -149.5 -30t-62.5 -51q0 -22 33 -36.5t82 -14.5q104 0 196 27.5t149 76.5q-83 30 -130.5 78t-47.5 97q0 55 49 99.5
t118 53.5l13 64h-731l-57 160h1122zM874 630q5 25 -7.5 43.5t-47.5 18.5q-48 0 -87 -25.5t-38 -66.5q-1 -30 22 -62t61 -54q78 58 97 146zM420 20l4 20q-38 70 -105 70q-54 0 -97 -31t-43 -71q0 -21 16.5 -39.5t40.5 -18.5q111 0 184 70z" />
    <glyph glyph-name="u091C094D091C" horiz-adv-x="1428" 
d="M880 540q45 -72 45 -146q-1 -93 -59 -155.5t-130 -62.5q-94 0 -155 74q-29 -52 -75.5 -81t-96.5 -29q-132 0 -226 137t-127 343l66 30q39 -145 103 -237.5t140 -92.5q38 0 70.5 30t32.5 111q0 131 -103 199l38 40h720l28 140h-1151l-57 160h1498l57 -160h-167l-171 -840
l-155 120l85 420h-210zM800 540h-260q69 -71 73 -180q40 -30 74 -30q54 0 94.5 40.5t41.5 99.5q0 42 -23 70z" />
    <glyph glyph-name="u091E094D091A" horiz-adv-x="1296" 
d="M1366 840h-167l-171 -840l-155 120l8 42q-164 -122 -325 -122q-78 0 -163.5 75t-73.5 135l-218 -90l-120 100l625 220l13 -130q-85 -16 -140 -52t-55 -79q0 -23 21.5 -41t55.5 -18q197 0 429 242l42 208q-170 6 -257 110q-20 -96 -110.5 -163t-196.5 -67
q-104 0 -194 39.5t-146 110.5l41 50q36 -36 102 -58t141 -22q103 0 180 59.5t78 135.5q0 32 -19.5 53.5t-53.5 21.5q-55 0 -168 -110l-100 120q109 90 239 90q70 0 129 -50t92 -140q27 -20 96 -20q100 0 188 40l6 30h-168l-67 160h525z" />
    <glyph glyph-name="u091E094D091C" horiz-adv-x="1270" 
d="M873 120l42 210l-296 -50q34 -51 34 -97q0 -67 -65 -125t-146 -58q-121 0 -225 105.5t-167 274.5l68 40q40 -110 110.5 -175t150.5 -65q59 0 107 33.5t48 78.5q0 54 -86 78l18 40l486 88l20 112q-170 6 -257 110q-20 -96 -110.5 -163t-196.5 -67q-104 0 -194 39.5
t-146 110.5l41 50q36 -36 102 -58t141 -22q103 0 180 59.5t78 135.5q0 32 -19.5 53.5t-53.5 21.5q-55 0 -168 -110l-100 120q109 90 239 90q70 0 129 -50t92 -140q27 -20 96 -20q100 0 188 40l6 30h-168l-67 160h499l57 -160h-141l-171 -840zM1296 0z" />
    <glyph glyph-name="u091F094D091F" horiz-adv-x="834" 
d="M226 386.5q56 -26.5 135 -26.5q185 0 351 100l49 -150q-55 -34 -173 -66l-41 -202h-340q-55 0 -97.5 -29t-42.5 -78q0 -52 51 -89.5t131 -37.5q192 0 368 90l52 -140q-148 -90 -358 -90q-126 0 -233 93t-107 186q0 82 71 161.5t164 79.5h190l9 40q-122 0 -229 85.5
t-107 169.5q0 79 75 148t167 69h190l28 140h-529l-57 160h904l57 -160h-195l-59 -290h-340q-53 0 -96.5 -30.5t-42.5 -69.5q-1 -37 55 -63.5z" />
    <glyph glyph-name="u091F094D0920" horiz-adv-x="868" 
d="M938 840h-229l-59 -290h-340q-53 0 -96.5 -30.5t-42.5 -69.5q-1 -37 55 -63.5t135 -26.5q185 0 351 100l49 -150q-74 -45 -188 -72l-21 -104q155 -94 155 -218q0 -99 -103 -166.5t-234 -67.5q-137 0 -257.5 94.5t-120.5 187.5q0 83 94 143.5t214 60.5h90l13 62
q-123 0 -228.5 84.5t-105.5 168.5q0 79 75 148t167 69h190l28 140h-529l-57 160h938zM440 26q-136 0 -234.5 -47t-98.5 -107q0 -28 41.5 -49t101.5 -21q142 0 254 47t112 106q0 30 -48 50.5t-128 20.5z" />
    <glyph glyph-name="u091F094D092F" horiz-adv-x="1630" 
d="M954 595q-39 19 -91 19h-232q-34 -68 -138 -78q-202 -20 -287.5 -98t-84.5 -160q0 -52 53 -90t139 -38q181 0 308 90l60 -150q-177 -90 -279 -90q-157 0 -262.5 100.5t-104.5 224.5q0 138 113.5 238t281.5 133q64 13 81 92l10 52h-521l-57 160h1700l57 -160h-167
l-171 -840l-159 100l12 60q-117 -60 -192 -60q-123 0 -213 88.5t-112 231.5q147 26 221 58t74 70q0 28 -39 47zM1270 430l83 410h-668l-19 -94h172q118 0 197 -72t80 -150q0 -48 -20.5 -81.5t-78.5 -76.5t-185 -86q8 -35 29 -52.5t55 -17.5q94 0 190.5 59t164.5 161z" />
    <glyph glyph-name="u091F094D0935" horiz-adv-x="826" 
d="M896 840h-179l-12 -60q-26 -122 -148 -136q-159 -19 -238.5 -56t-79.5 -92q-1 -31 28 -53.5t75 -22.5q183 0 354 120l74 -130q-94 -65 -157 -80l-107 -530l-143 88l19 92q-113 -70 -214 -70q-87 0 -141.5 45.5t-54.5 105.5q-1 86 80.5 152.5t184.5 66.5q94 0 190 -78
l22 108q-142 0 -229.5 68.5t-86.5 157.5q0 83 86.5 141t246.5 77q55 7 66 62l5 24h-537l-57 160h896zM406 98l5 24q-89 42 -161 42q-83 0 -137.5 -34.5t-54.5 -73.5q0 -22 20 -33t61 -11q55 0 138.5 26.5t128.5 59.5z" />
    <glyph glyph-name="u0920094D0920" horiz-adv-x="926" 
d="M996 840h-303l-9 -46q-12 -54 -40 -86q96 -32 144 -82.5t48 -119.5q0 -83 -73.5 -144.5t-182.5 -79.5l-8 -38q-12 -54 -40 -86q76 -23 134 -75.5t58 -127.5q0 -96 -100 -163.5t-246 -67.5q-140 0 -259 91.5t-119 187.5q0 83 88.5 143t220.5 64q83 3 105 72
q-113 21 -207.5 103t-94.5 168q0 83 88.5 143t220.5 64q45 1 71.5 21t34.5 59h-527l-57 160h996zM607 664q-36 -41 -118 -50q-131 -14 -196 -50.5t-65 -86.5q0 -35 46 -59t122 -24q129 0 225 38t96 109q0 32 -27.5 62.5t-82.5 60.5zM495 114q-36 -41 -118 -50
q-131 -14 -196 -50.5t-65 -86.5q0 -35 46 -59t123 -24q128 0 224 38t96 109q0 64 -110 123z" />
    <glyph glyph-name="u0920094D092F" horiz-adv-x="1794" 
d="M1864 840h-167l-171 -840l-159 100l16 80q-118 -60 -212 -60q-111 0 -194 82.5t-105 217.5q130 26 195.5 60t65.5 76q0 27 -30.5 40.5t-90.5 13.5h-328q-11 -15 -35 -38q143 -95 143 -225q0 -134 -133 -240.5t-313 -106.5q-139 0 -223.5 93.5t-84.5 220.5q0 62 17 114.5
t64 102t113 77t224 60.5q136 29 136 119q0 16 -15 53h-577l-57 160h1864zM1440 460l77 380h-822q22 -44 24 -90h280q79 0 165.5 -68t86.5 -149q0 -80 -63 -141t-191 -92q-4 -24 21.5 -42t66.5 -18q94 0 190.5 59t164.5 161zM588 538q-28 -14 -132 -33q-168 -32 -241 -102.5
t-73 -140.5q0 -53 45.5 -92.5t115.5 -39.5q99 0 184.5 54t123.5 121.5t38 112.5q0 62 -61 120z" />
    <glyph glyph-name="u0921094D0921" horiz-adv-x="956" 
d="M318 128q48 0 142 8t142 8q67 0 125.5 -45.5t58.5 -91.5q0 -75 -105.5 -141t-260.5 -66q-118 0 -244 62t-236 174l56 52q81 -82 182 -129t198 -47q128 0 224.5 31.5t96.5 59.5q0 14 -29.5 21.5t-88.5 7.5q-39 0 -115 -12t-114 -12q-78 0 -143.5 57t-65.5 115q0 46 41 73
t78 31q-167 74 -217 140l46 50q79 -69 184 -107.5t210 -38.5q90 0 184 27t94 72q0 14 -29.5 21.5t-88.5 7.5q-38 0 -114 -12t-115 -12q-91 0 -169.5 70t-77.5 138q0 53 48 86.5t110 33.5h296l16 80h-637l-57 160h1026l57 -160h-211l-40 -196h-386q-57 0 -94.5 -14t-36.5 -34
q0 -19 36.5 -33.5t87.5 -14.5q48 0 143 14t142 14q71 0 130 -54.5t59 -108.5q0 -79 -101 -138t-229 -59q-130 0 -141 4q-64 0 -111.5 -16t-47.5 -33v-6q0 -14 26 -25.5t66 -11.5z" />
    <glyph glyph-name="u0921094D0922" horiz-adv-x="902" 
d="M294.5 562.5q36.5 -14.5 87.5 -14.5q48 0 143 14t142 14q71 0 130 -54.5t59 -108.5q0 -75 -93.5 -134t-291.5 -59q-111 0 -207.5 -48t-96.5 -134q0 -64 56.5 -111t148.5 -47q-15 16 -15 53q0 71 41 114t97 43q67 0 125 -56.5t58 -111.5q0 -68 -97.5 -105t-209.5 -37
q-137 0 -260 89.5t-123 175.5q0 75 86 139t207 86q-183 81 -238 154l46 50q164 -142 387 -142q102 0 193.5 24.5t91.5 70.5q0 14 -29.5 21.5t-88.5 7.5q-38 0 -114 -12t-115 -12q-91 0 -169.5 70t-77.5 138q0 53 48 86.5t110 33.5h296l16 80h-637l-57 160h972l57 -160h-157
l-40 -196h-386q-57 0 -94.5 -14t-36.5 -34q0 -19 36.5 -33.5zM432 -120q53 0 93 20t40 52q0 24 -15 36t-44 12t-56.5 -22t-27.5 -54q0 -29 10 -44z" />
    <glyph glyph-name="u0921094D092F" horiz-adv-x="1764" 
d="M1103 549.5q-20 10.5 -53 10.5h-640q-47 0 -82 -27t-35 -59q0 -21 30.5 -37.5t78.5 -16.5q35 0 104 22t105 22q76 0 130.5 -76.5t54.5 -162.5q0 -121 -104 -188t-222 -67q-128 0 -259 91t-232 249l70 50q69 -108 162.5 -169t191.5 -61q109 0 198 40.5t89 101.5
q0 19 -10.5 28.5t-30.5 9.5q-39 0 -118 -20t-120 -20q-82 0 -145 93t-63 184q0 90 56 131.5t124 41.5h260l24 120h-667l-57 160h1834l57 -160h-167l-171 -840l-159 100l14 70q-101 -50 -210 -50q-117 0 -201.5 74.5t-103.5 195.5q114 20 200 59.5t87 75.5q0 14 -20 24.5z
M1403 424l84 416h-640l-24 -120h160q101 0 186.5 -74.5t85.5 -148.5q-1 -75 -80.5 -136.5t-191.5 -80.5q-5 -30 14.5 -45t63.5 -15q93 0 185.5 55t156.5 149z" />
    <glyph glyph-name="u0922094D0922" horiz-adv-x="928" 
d="M998 840h-171l-52 -256h-336q-94 0 -168 -49t-73 -113q-1 -41 41 -77.5t108 -54.5q-31 73 -26 78q13 64 92 109t181 45q83 0 148.5 -58t65.5 -121q0 -73 -106 -119l-39 -190h-340q-95 0 -166.5 -49.5t-70.5 -112.5q0 -41 41.5 -77.5t107.5 -54.5q-26 64 -26 77v1
q13 63 92 108.5t182 45.5q82 0 147.5 -58t65.5 -121q0 -74 -97 -115.5t-207 -41.5q-157 0 -298 102t-141 201q-1 89 101 154t230 65h214l6 28q-157 0 -298.5 102.5t-141.5 200.5q0 90 100 165.5t241 75.5h210l22 110h-637l-57 160h998zM421 290h42q110 0 167.5 42.5
t57.5 80.5q0 19 -38 19q-91 0 -164.5 -45.5t-64.5 -96.5zM307 -270h42q111 0 168 43t57 80q0 19 -38 19q-91 0 -164.5 -45.5t-64.5 -96.5z" />
    <glyph glyph-name="u0922094D092F" horiz-adv-x="1714" 
d="M1784 840h-167l-171 -840l-157 110l14 70q-83 -70 -174 -70q-119 0 -201.5 90t-103.5 230q131 21 197 51t66 68q0 17 -16.5 29t-44.5 12h-600q-93 0 -170.5 -78.5t-76.5 -178.5q0 -67 41.5 -115t110.5 -48q-18 35 -18 82q0 108 73 183t164 75q97 0 154 -61.5t57 -148.5
q0 -126 -96.5 -203t-214.5 -77q-164 0 -280.5 117.5t-116.5 254.5q-1 145 110.5 246.5t253.5 101.5h200l20 100h-637l-57 160h1784zM1352 420l85 420h-620l-20 -100h190q76 0 152.5 -82.5t76.5 -152.5q0 -74 -80.5 -130t-186.5 -65v-3q0 -34 21.5 -50.5t64.5 -16.5
q82 0 166 47.5t151 132.5zM399 160q21 -6 49 -6q60 0 118 42t80 93t22 67q0 28 -60 28q-81 0 -150.5 -64t-58.5 -160z" />
    <glyph glyph-name="u0926094D0917" 
d="M862 840h-173l-53 -260h-260q-90 0 -160 -47.5t-70 -110.5q-1 -40 40 -72t159 -32q42 0 68 8q-4 26 -4 39q0 43 30 74t75 31q53 0 84 -31t31 -77q0 -97 -100 -162l141 -272l-136 -58l-71 312q-61 -21 -164 -22q-2 -116 -11 -198t-19 -100t-34.5 -33t-52.5 -15
q-47 0 -103.5 40t-55.5 67q-1 17 25.5 31t62.5 14h70l45 218q-65 33 -115.5 116t-49.5 171q-1 131 95.5 200t212.5 69h120l20 100h-509l-57 160h862z" />
    <glyph glyph-name="u0926094D0918" horiz-adv-x="1056" 
d="M1126 840h-169l-53 -260h-280q-77 0 -137.5 -44.5t-60.5 -101.5q0 -42 48 -73t119 -31q44 0 84 20q-2 10 -2 22q0 46 31 72t76 26q48 0 76.5 -31.5t28.5 -76.5q-1 -49 -30.5 -84.5t-73.5 -47.5l175 -370l-100 -50l-72 240q-64 -95 -136 -142.5t-152 -47.5
q-115 0 -195.5 56.5t-80.5 118.5q0 22 11 45q-102 0 -164 57.5t-62 137.5q-1 109 100.5 171.5t224.5 63.5q0 87 94.5 158.5t230.5 71.5h100l20 100h-777l-57 160h1126zM443 280q-59 34 -89 100q-84 -3 -159.5 -37.5t-75.5 -90.5q0 -40 39.5 -71t98.5 -31q48 95 186 130z
M705 190q-150 0 -258 -58t-108 -125q0 -27 27 -47t68 -20q68 0 142.5 69t128.5 181z" />
    <glyph glyph-name="u0926094D0926" horiz-adv-x="790" 
d="M532 20l114 -230l-99 -40l-59 250q-46 -8 -97 -8q-128 0 -219.5 67.5t-91.5 168.5q0 58 23 96t77 76q-56 70 -73.5 107t-17.5 72q0 78 64.5 124.5t147.5 46.5h220l18 90h-539l-57 160h860l57 -160h-141l-47 -230h-320q-60 0 -109.5 -26t-49.5 -70q0 -40 43 -84
q96 50 260 50l43 -130h-60q-119 0 -190 -54t-71 -119q-1 -42 34.5 -69.5t92.5 -27.5q60 0 108 40q-17 44 -17 64q0 28 32.5 52t72.5 24q50 0 79 -27.5t29 -67.5q0 -92 -117 -145z" />
    <glyph glyph-name="u0926094D0927" horiz-adv-x="1174" 
d="M1244 840h-169l-53 -260h-280q-77 0 -137.5 -44.5t-60.5 -101.5q0 -42 48 -73t119 -31q44 0 84 20q-2 10 -2 22q0 51 34.5 74.5t72.5 23.5q48 0 76.5 -31.5t28.5 -76.5q0 -105 -104 -132l175 -370l-100 -50l-74 230q-55 -83 -138 -133.5t-167 -50.5q-103 0 -176.5 66
t-72.5 131q0 14 3 27q-150 0 -246.5 63.5t-96.5 151.5q-1 85 73 150t167 65q59 0 94.5 -39t35.5 -92q0 -64 -37 -119t-110 -80q49 -30 144 -30q30 60 116 80l140 -100q-64 -16 -104.5 -51.5t-39.5 -75.5q0 -31 16 -47t49 -16q70 0 149 71t134 189q-60 -20 -110 -20
q-110 0 -193.5 97t-83.5 205q0 120 94 189t233 69h100l20 100h-895l-57 160h1244zM292 352q0 27 -18 44.5t-48 17.5q-39 0 -69 -32t-30 -70q0 -26 17.5 -46t47.5 -20q43 0 71 32.5t29 73.5z" />
    <glyph glyph-name="u0926094D0928" horiz-adv-x="848" 
d="M196.5 261q59.5 -41 150.5 -41q56 0 107 16q-11 25 -11 50q0 54 43.5 89t99.5 35q51 0 82 -33.5t31 -81.5q0 -114 -120 -181l129 -284l-108 -40l-90 296l-378 -236q39 -48 39 -93q0 -33 -18 -50t-54 -17q-29 0 -91 31.5t-77 49t-15 43.5q0 67 114 126l315 162
q-131 13 -211.5 109.5t-80.5 206.5q0 115 78.5 198.5t187.5 83.5h226l28 140h-573l-57 160h918l57 -160h-165l-61 -300h-320q-95 0 -165 -57.5t-70 -125.5q0 -55 59.5 -96z" />
    <glyph glyph-name="u0926094D092C" horiz-adv-x="822" 
d="M892 840h-179l-51 -250h-260q-71 0 -125 -46t-53 -104q-1 -41 35.5 -70.5t91.5 -29.5q44 0 70 8q-7 53 37 102.5t106 49.5q46 0 76.5 -26.5t31.5 -69.5q-1 -44 -28.5 -84t-84.5 -60l161 -370l-94 -50l-95 234q-47 -84 -130 -143t-157 -59q-101 0 -170 65t-69 126
q0 67 63 137t175 100q-66 42 -104.5 102t-37.5 115q-1 84 74 153.5t168 69.5h170l20 100h-533l-57 160h892zM485 210q-79 0 -160 -20l42 -138q85 54 118 158zM298 18l-48 146q-55 -19 -94.5 -61t-38.5 -75q0 -40 65 -40q53 0 116 30z" />
    <glyph glyph-name="u0926094D092D" horiz-adv-x="1222" 
d="M1098 -70l-90 -50l-110 296l-370 -146l13 -53q0 -2 0.5 -3t0.5 0q0 -22 -17.5 -38t-38.5 -16q-48 0 -117 25.5t-69 51.5v3q10 47 64 70l-20 86q-50 -14 -103 -14q-109 0 -171.5 47.5t-62.5 125.5q-1 59 44.5 117t148.5 58q90 0 162.5 -48t99.5 -148l44 -166l243 102
q-121 12 -188.5 91.5t-67.5 167.5q0 104 77 167.5t189 63.5h160l24 120h-943l-57 160h1292l57 -160h-169l-49 -240h-242q-102 0 -162.5 -57.5t-59.5 -121.5q0 -50 48.5 -81.5t110.5 -31.5q39 0 70 12q-12 22 -12 40q0 44 42.5 78t90.5 34q47 0 76.5 -31t29.5 -82
q0 -92 -107 -157zM323 232q-19 94 -45.5 141t-59.5 47q-35 0 -52 -31.5t-17 -60.5q0 -45 29.5 -79.5t77.5 -34.5q28 0 67 18z" />
    <glyph glyph-name="u0926094D092E" horiz-adv-x="1116" 
d="M1186 840h-167l-171 -840l-158 108l5 24h-200l-19 -92q-3 -13 -14 -21.5t-22 -8.5q-50 0 -115 70.5t-65 116.5q-1 27 24 45t57 18h80l10 46q2 12 -4 25t-25 13q-14 0 -67 -15t-73 -15q-73 0 -134.5 82.5t-61.5 161.5q0 81 54.5 131.5t130.5 50.5h188l20 100h-459l-57 160
h1186zM721 260l118 580h-200l-51 -250h-288q-48 0 -88 -22.5t-39 -61.5q0 -26 12 -39t36 -13q27 0 100 19q72 19 99 19q49 0 85.5 -34.5t36.5 -81.5q0 -11 -2 -22l-19 -94h200z" />
    <glyph glyph-name="u0926094D092F" horiz-adv-x="1126" 
d="M1196 840h-167l-171 -840l-158 108l7 32q-142 -120 -305 -120q-121 0 -209 76.5t-88 165.5q0 94 75 138q-47 47 -72.5 99.5t-25.5 94.5q-1 69 57.5 117.5t133.5 48.5h200l16 80h-489l-57 160h1196zM747 340l102 500h-180l-47 -230h-310q-58 0 -87 -23.5t-29 -69.5
q0 -45 32 -77q81 50 270 50l39 -150q-45 8 -88 8q-106 0 -175.5 -38.5t-69.5 -87.5q0 -29 51.5 -50.5t123.5 -21.5q199 0 368 190z" />
    <glyph glyph-name="u0926094D0935" horiz-adv-x="820" 
d="M890 840h-171l-49 -240h-298q-62 0 -111 -41t-49 -99q0 -57 35.5 -88.5t89.5 -31.5q53 0 91 14q-7 69 31 102.5t89 33.5q48 0 76.5 -31.5t28.5 -76.5q0 -85 -104 -132l165 -370l-98 -40l-74 226q-34 -67 -120.5 -126.5t-153.5 -59.5q-125 0 -195 59t-70 123
q0 57 57.5 117t176.5 111q-90 73 -114.5 126t-24.5 109q-1 98 74.5 156.5t166.5 58.5h180l20 100h-539l-57 160h890zM477 218q-94 0 -223 -61t-129 -130q0 -24 9.5 -35.5t29.5 -11.5q95 0 194.5 74t118.5 164z" />
    <glyph glyph-name="u0928094D0928" horiz-adv-x="1002" 
d="M1072 840h-167l-171 -840l-159 100l46 230l-218 -90q-57 -24 -57 -76q0 -11 3 -33q4 -22 4 -34q0 -67 -53 -67q-71 0 -147 55t-76 115q0 27 15 42.5t47 27.5l509 190q-150 120 -296 120q-81 0 -104 -70q-26 -80 -56 -80q-37 0 -76.5 76.5t-39.5 128.5q0 59 62.5 82
t126.5 23q240 0 399 -200l61 300h-725l-57 160h1072z" />
    <glyph glyph-name="u092A094D0924" horiz-adv-x="932" 
d="M1002 840h-167l-171 -840l-157 110l55 270h-220q-47 0 -87.5 -42t-40.5 -122q-1 -105 68 -176l-58 -40q-153 157 -153 304q0 151 189 216q-57 22 -88.5 60.5t-31.5 78.5q0 11 3 21l32 160h-175l-57 160h1002zM594 540l61 300h-300l-45 -220q-2 -10 -2 -21q0 -59 46 -59
h240z" />
    <glyph glyph-name="u092A094D0932" horiz-adv-x="1082" 
d="M487 150l38 190q-81 -50 -170 -50q-87 0 -173.5 112t-86.5 188q0 15 3 30l45 220h-143l-57 160h1152l57 -160h-345l-129 -636q41 26 95 26q67 0 120.5 -68t54.5 -137q0 -86 -77.5 -181.5t-215.5 -143.5l-77 114q278 145 278 242q0 23 -15.5 38.5t-41.5 15.5
q-100 0 -281 -200l-126 70l88 90q-23 50 -89 50q-63 0 -117 -47.5t-54 -124.5q0 -64 40.5 -122t112.5 -86l-50 -50q-119 61 -188.5 141.5t-69.5 150.5q0 86 83.5 167t194.5 81q80 0 144 -80zM572 570l55 270h-300l-65 -320q-2 -12 -2 -21q0 -59 46 -59q109 0 266 130z" />
    <glyph glyph-name="u092B094D0932" horiz-adv-x="1290" 
d="M497 170l41 200q-118 -60 -193 -60q-69 0 -155 104.5t-86 174.5q0 11 2 21l47 230h-153l-57 160h1360l57 -160h-547l-36 -180q96 60 202 60q83 0 146.5 -89t63.5 -179q0 -124 -108 -262l-138 110q148 168 148 242q0 24 -12.5 36t-36.5 12q-101 0 -310 -150l-45 -220
q47 36 97 36q99 0 168 -74.5t69 -162.5q0 -100 -79.5 -180t-194.5 -109l-75 120q124 44 188.5 107.5t64.5 111.5q0 25 -19.5 38t-58.5 13q-85 0 -169 -52.5t-140 -137.5l-148 60q49 74 93 110q-33 30 -134 30q-65 0 -118 -50t-53 -109q0 -52 57.5 -109t149.5 -92l-42 -60
q-134 53 -208.5 137t-74.5 171q0 97 78.5 169.5t176.5 72.5q123 0 182 -90zM574 550l59 290h-300l-73 -360q-5 -21 13.5 -40.5t54.5 -19.5q34 0 246 130z" />
    <glyph glyph-name="u0932094D0932" horiz-adv-x="1104" 
d="M1174 840h-295l-34 -170q66 -20 103 -67t38 -104q-1 -63 -41.5 -120t-121.5 -109q102 -54 102 -166q0 -100 -87.5 -188t-231.5 -126l-68 110q132 44 218.5 109.5t86.5 120.5q0 26 -19.5 39t-58.5 13q-66 0 -147 -57.5t-156 -154.5l-108 60q46 79 100 124q-39 36 -87 36
q-73 0 -132 -49t-59 -111q0 -49 47 -103t131 -97l-45 -70q-136 70 -203.5 145.5t-67.5 156.5q0 49 28.5 102t91.5 92q-75 95 -75 197q-1 98 79.5 183.5t210.5 85.5q43 0 85 -16.5t89 -93.5q67 72 142 78l30 150h-719l-57 160h1174zM529 378l-112 60q47 80 86 124
q-38 28 -117 28q-94 0 -148 -60.5t-54 -135.5q0 -54 33 -104q56 30 118 30q55 0 95 -29.5t65 -88.5q85 85 192 104q181 118 181 222q0 31 -15 46.5t-45 15.5q-63 0 -135 -51t-144 -161z" />
    <glyph glyph-name="u0936094D091A" horiz-adv-x="1200" 
d="M594 94.5q111 78.5 221 211.5l18 90q-205 54 -311 122q-202 -94 -392 -138l-104 130q151 13 344 90q-62 39 -92.5 87.5t-30.5 106.5q0 87 74.5 151.5t166.5 64.5q103 0 179 -75t77 -147q0 -72 -35.5 -128.5t-105.5 -97.5q100 -62 244 -96l76 374h-80l-57 160h427l57 -160
h-167l-171 -840l-166 66l6 32q-68 -71 -157 -117.5t-148 -46.5q-90 0 -166 50.5t-75 118.5q0 13 3 27l-153 -60l-111 90l563 210l134 -74l-186 -72q-70 -27 -99 -71t-28 -80q0 -29 14 -43t43 -14q77 0 188 78.5zM608 804q3 17 3 33q0 39 -15.5 59t-46.5 20q-64 0 -119 -52.5
t-55 -130.5q0 -72 65 -107q143 56 168 178z" />
    <glyph glyph-name="u0936094D0928" horiz-adv-x="1146" 
d="M119 68q0 19 16 45.5t56 46.5l523 260l-248 92q-158 -98 -414 -216l-53 130q212 84 326 150q-137 85 -137 204q0 87 77 158.5t167 71.5q109 0 185 -76t76 -150q0 -137 -148 -222l247 -102l77 380h-100l-57 160h447l57 -160h-167l-171 -840l-159 100l40 200l-414 -220
q34 -92 28 -116q-6 -29 -26.5 -43.5t-55.5 -14.5q-53 0 -112.5 54.5t-59.5 107.5zM559 808q2 12 2 25q0 38 -17 57.5t-51 19.5q-67 0 -117 -67.5t-50 -126.5q0 -29 16 -62t40 -48q151 77 177 202z" />
    <glyph glyph-name="u0936094D0932" horiz-adv-x="1306" 
d="M418 297q79 40 149 40q97 0 160 -79l31 24l-302 220q-123 -76 -404 -206l-53 130q212 84 326 150q-137 85 -137 204q0 87 77 158.5t167 71.5q109 0 185 -76t76 -150q-1 -146 -166 -242l248 -174l96 472h-50l-67 160h565l57 -160h-325l-102 -500q102 0 164.5 -56.5
t62.5 -135.5q0 -105 -80.5 -202t-240.5 -166l-93 130q159 71 237.5 149.5t78.5 132.5q0 24 -12.5 36t-36.5 12q-81 0 -160.5 -57.5t-156.5 -172.5l-138 60q44 73 117 148q-42 24 -84 24q-74 0 -132.5 -54.5t-58.5 -126.5q-1 -62 52.5 -127.5t145.5 -113.5l-53 -60
q-134 68 -213.5 154.5t-79.5 159.5q0 48 35.5 115.5t114.5 107.5zM559 808q2 12 2 25q0 38 -17 57.5t-51 19.5q-67 0 -117 -67.5t-50 -126.5q0 -29 16 -62t40 -48q151 77 177 202z" />
    <glyph glyph-name="u0936094D0935" horiz-adv-x="1094" 
d="M270 51.5q-76 75.5 -76 150.5q0 90 94.5 169t249.5 79l-114 80q-75 -54 -300 -150l-100 100q193 82 254 120q-124 84 -124 199q0 100 72 166.5t174 66.5q90 0 154.5 -69.5t65.5 -158.5q0 -70 -30.5 -125t-110.5 -115l247 -174l91 450h-130l-57 160h477l57 -160h-167
l-175 -860l-169 52l8 42q-83 -98 -214 -98q-101 0 -177 75.5zM517 843q0 39 -19.5 59t-57.5 20q-63 0 -114.5 -47t-51.5 -119q0 -75 60 -126q91 47 137 100.5t46 112.5zM708 296q-43 36 -110 36q-118 0 -202.5 -57.5t-84.5 -117.5q0 -32 22 -47.5t66 -15.5q97 0 174.5 50.5
t134.5 151.5z" />
    <glyph glyph-name="u0937094D091F" horiz-adv-x="922" 
d="M173.5 121q20.5 -15 62.5 -15q122 0 238 41t225 123l60 -150q-91 -66 -185 -101t-207 -35q-146 0 -236 67.5t-90 162.5q0 74 54.5 131t164.5 97q-104 93 -104 182q0 22 5 46l34 170h-195l-57 160h992l57 -160h-137l-45 -220q-24 -120 -104.5 -184.5t-281.5 -113.5
q-136 -33 -203.5 -72t-67.5 -83q0 -31 20.5 -46zM624 590l51 250h-300zM566 530l-211 210l-31 -150q-3 -17 -3 -35q0 -57 27 -85l98 22q99 21 120 38z" />
    <glyph glyph-name="u0937094D0920" horiz-adv-x="922" 
d="M992 840h-137l-40 -196q-25 -121 -108 -186q91 -79 91 -180q0 -105 -121.5 -199.5t-309.5 -94.5q-146 0 -236 67.5t-90 162.5q0 76 56 143.5t168 108.5q-105 93 -105 182q0 22 5 46l30 146h-195l-57 160h992zM629 614l46 226h-300zM571 554l-216 186l-26 -126
q-3 -17 -3 -35q0 -57 27 -85l117 26q79 17 101 34zM619 408q-80 -35 -190 -62q-138 -34 -206.5 -77.5t-68.5 -97.5q0 -25 39 -46t78 -21q185 0 284.5 62t99.5 156q0 40 -36 86z" />
    <glyph glyph-name="u0939094D0923" horiz-adv-x="1142" 
d="M596 518q184 0 299 -63.5t116 -168.5q0 -18 -4 -38l-78 -380l-147 74l71 346q2 10 2 21q0 33 -23 55t-55 22l-51 -252q-14 -66 -67.5 -118t-117.5 -52q-80 0 -140 58.5t-60 126.5q0 12 2 23l43 208q-94 -24 -140.5 -75t-46.5 -128q0 -101 88.5 -206t242.5 -177l-61 -74
q-235 139 -336.5 255t-101.5 226q0 143 181 241q-53 84 -58.5 104.5t-5.5 40.5q0 70 71 107.5t152 37.5h284l22 108h-677l-57 160h1212l57 -160h-353l-48 -236h-434q-47 0 -81.5 -23.5t-34.5 -61.5q0 -26 16 -51q106 50 319 50zM569 110l59 290q-21 3 -42 3q-22 0 -44 -3
l-60 -294q-5 -21 2.5 -31.5t26.5 -10.5q24 0 38.5 11.5t19.5 34.5z" />
    </font>
</defs>
</svg>
