<?xml version="1.0" standalone="no"?>
<!DOCTYPE svg PUBLIC "-//W3C//DTD SVG 1.1//EN" "http://www.w3.org/Graphics/SVG/1.1/DTD/svg11.dtd" >
<svg>
<metadata>
Created by FontForge 20110222 at Mon Sep 30 09:44:47 2013
 By Orthosie Webhosting
Bitworker
</metadata>
<defs>
<font id="TimKidMedium" horiz-adv-x="698" >
  <font-face 
    font-family="TimKidMedium"
    font-weight="500"
    font-stretch="normal"
    units-per-em="1000"
    panose-1="2 0 6 3 0 0 0 0 0 0"
    ascent="800"
    descent="-200"
    x-height="465"
    cap-height="713"
    bbox="-142.05 -289.8 1013.28 924.225"
    underline-thickness="50"
    underline-position="-100"
    unicode-range="U+0020-FB00"
  />
<missing-glyph horiz-adv-x="364" 
d="M66 33h199v600h-199v-600zM33 0v666h265v-666h-265z" />
    <glyph glyph-name=".notdef" horiz-adv-x="364" 
d="M66 33h199v600h-199v-600zM33 0v666h265v-666h-265z" />
    <glyph glyph-name=".null" horiz-adv-x="0" 
 />
    <glyph glyph-name="nonmarkingreturn" horiz-adv-x="333" 
 />
    <glyph glyph-name="space" unicode=" " horiz-adv-x="300" 
 />
    <glyph glyph-name="exclam" unicode="!" horiz-adv-x="225" 
d="M186 618q-8 -38 -9.5 -78.5t1.5 -73t6.5 -83t3.5 -93.5q0 -28 -19.5 -47.5t-47.5 -19.5t-47.5 19.5t-19.5 47.5q0 30 -5.5 101t-5.5 135t11 120q6 27 29.5 42t50.5 9.5t42 -29t10 -50.5zM190 61q0 -28 -19.5 -47.5t-47.5 -19.5t-47.5 19.5t-19.5 47.5t19.5 47.5
t47.5 19.5t47.5 -19.5t19.5 -47.5z" />
    <glyph glyph-name="quotedbl" unicode="&#x22;" horiz-adv-x="367" 
d="M164 687l12 -96q4 -27 -13 -49t-44.5 -25.5t-49.5 13.5t-25 45l-12 96q-4 27 13 49t44.5 25.5t49.5 -13.5t25 -45zM323 671l9 -105q2 -28 -16 -49t-45.5 -23.5t-48.5 15.5t-24 45l-9 105q-2 28 16 49t45.5 23.5t48.5 -15.5t24 -45z" />
    <glyph glyph-name="numbersign" unicode="#" 
d="M337 359q-49 6 -101 8q-7 -47 -12 -98q51 3 100 2q5 43 13 88zM361 491l10 52q6 27 29.5 42t50.5 9.5t42 -29t10 -50.5l-11 -52q24 -7 47 -15q26 -9 38 -34t3 -51t-34 -38t-51 -3q-13 4 -27 9q-6 -36 -10 -69q83 -10 156 -32q27 -7 40.5 -31.5t6 -51t-32 -40t-50.5 -5.5
q-63 18 -134 26q-8 -109 -4 -231q1 -28 -17.5 -48.5t-46.5 -21.5t-48.5 17.5t-21.5 46.5q-5 123 4 246q-46 0 -96 -2q-2 -47 -4 -102q-1 -28 -21 -47t-48 -18t-47 21t-18 48q1 46 3 86q-25 1 -43.5 17.5t-21.5 41.5q-3 28 14 49.5t45 25.5l15 1q5 55 12 106q-31 -2 -81 -7
q-28 -3 -49.5 14.5t-24.5 45.5t14.5 49.5t45.5 24.5q63 6 118 9q13 73 17 125q2 28 22.5 46.5t48.5 16.5t46.5 -22.5t16.5 -48.5q-3 -49 -15 -117q53 -3 102 -9z" />
    <glyph glyph-name="dollar" unicode="$" horiz-adv-x="543" 
d="M318 246q-3 -68 -11 -165q6 1 12 3q30 9 44 27t10 51q-3 35 -13 48q-12 18 -42 36zM190 445q1 63 2 97q-30 -5 -53 -17q-20 -10 -24 -19q-4 -4 4 -19q5 -10 35 -26q15 -8 36 -16zM133 144q11 -10 18.5 -18t9.5 -11t5 -6t8 -6h1q8 117 11 199q-62 24 -94 40q-69 36 -93 85
q-36 72 -5 136q24 51 85 82q53 27 120 32l2 36q3 27 24 45t48.5 15.5t45.5 -23.5t16 -49l-4 -45q19 -9 40.5 -21t34.5 -21l34 -22q22 -15 26 -18q23 -16 28.5 -43t-10 -50t-42.5 -28.5t-50 9.5l-67 45q0 -22 -1 -63.5t-1 -51.5q105 -45 147 -104q30 -43 37 -112
q9 -87 -35 -143.5t-116 -77.5q-28 -8 -59 -10l-1 -20q-2 -28 -23 -46t-49 -16t-46 23t-16 49l2 26q-33 11 -60 28q-8 5 -17 12.5t-17 15t-14 13.5l-10 12q-5 5 -5 6q-20 19 -21 46.5t18.5 47.5t47 21t47.5 -19z" />
    <glyph glyph-name="percent" unicode="%" horiz-adv-x="728" 
d="M176 471q21 27 8 50t-44 36q-3 -4 -7 -8.5t-6 -7t-4 -5.5t-3 -8q-14 -34 -3 -53q6 -11 33 -8zM1 591q-4 8 -5 18q-4 27 12 49.5t44 26.5q3 1 10 3q18 5 19 5q36 9 65 3q48 -10 89.5 -38.5t64.5 -70.5q36 -62 17 -129q78 126 158 236q16 23 43.5 27.5t50 -12t27 -44
t-12.5 -49.5q-117 -161 -228 -359q6 8 14 13q3 2 5 4l7 7q5 5 13 12q36 32 75 34q55 3 104.5 -19t81.5 -63q35 -45 38.5 -99.5t-31.5 -112.5q-44 -70 -104 -90q-56 -18 -105 5t-83 64q-29 35 -46 79.5t-13 86.5l-84 -162q-12 -25 -38.5 -33.5t-51.5 3.5t-33.5 38.5t3.5 51.5
q79 159 158 295q-34 -31 -103 -38q-52 -5 -95 15t-67 61q-41 74 -6 167q3 7 7 15zM488 193q-4 -6 -9 -11q-11 -10 -33 -27q7 -33 28 -58q26 -32 42 -26q15 4 34 34q20 32 0 58q-22 28 -62 30z" />
    <glyph glyph-name="ampersand" unicode="&#x26;" horiz-adv-x="616" 
d="M110 101q3 -1 8 -1q24 -1 59 11t59 29q22 16 42 34q-31 26 -53 47l-29 28l-28 -34q-45 -55 -53 -81q-6 -21 -5 -33zM283 564q-9 3 -29 -5q-24 -10 -37.5 -27.5t-12.5 -35.5q1 -16 6 -33q37 42 55 70q13 18 18 31zM286 562v-1v1zM457 -6q-9 15 -15 26l-8 14q-2 5 -7 10
q-17 18 -46 43q-33 -31 -67 -55q-39 -29 -95.5 -48.5t-106.5 -17.5q-77 3 -114 58q-37 56 -11 146q15 53 78 130q18 23 47 55q-40 68 -42 137q-2 67 38 118t97 73q25 10 54 13t59.5 -3t56.5 -29t39 -61q20 -61 -38 -146q-28 -41 -89 -109q13 -14 29 -29q26 -24 62 -54
q34 25 76 47q25 12 51.5 3.5t39 -33t4 -51t-32.5 -39.5q-17 -8 -32 -17q24 -21 41 -39q7 -8 15.5 -20t13.5 -22l11 -18q5 -10 6 -10q14 -24 8 -51t-29.5 -41.5t-50.5 -8.5t-42 29z" />
    <glyph glyph-name="quotesingle" unicode="'" horiz-adv-x="205" 
d="M170 692l-4 -56q-2 -26 -2.5 -30t-0.5 -18v-19v-31v-53q0 -28 -19.5 -47.5t-47.5 -19.5t-47.5 19.5t-19.5 47.5v55v31q0 3 0.5 20t1 21t1.5 32q2 27 4 56q2 28 23 46.5t48.5 16.5t46 -23t16.5 -48z" />
    <glyph glyph-name="parenleft" unicode="(" horiz-adv-x="387" 
d="M326 593q-120 -93 -170 -219t-25 -275q2 -14 6 -28t10 -32t10 -29t13.5 -34.5t13.5 -32.5q9 -26 -2 -51.5t-37 -35t-51.5 1.5t-35.5 37q-2 6 -12 30l-14 37l-12 36q-8 21 -13 40t-8 39q-30 187 33 347q64 161 212 275q22 17 49.5 13.5t44.5 -25.5t13.5 -49.5t-25.5 -44.5
z" />
    <glyph glyph-name="parenright" unicode=")" horiz-adv-x="355" 
d="M136 704q88 -129 134 -226q45 -95 50 -189q6 -100 -34 -200q-40 -101 -128 -226q-16 -22 -43.5 -27t-50 11t-27.5 43.5t11 50.5q80 116 110 191q32 80 28 149q-3 68 -41 147.5t-119 199.5q-16 23 -11 50.5t28 43t50.5 10.5t42.5 -28z" />
    <glyph glyph-name="asterisk" unicode="*" horiz-adv-x="497" 
d="M248 615q69 37 124 58q26 9 51 -2.5t34.5 -37.5t-2 -51t-37.5 -35q-49 -18 -112 -53q53 -24 92 -44q25 -13 33.5 -39.5t-4 -51t-39 -33t-50.5 3.5l-81 39l5 -77q2 -27 -16 -48q-19 -21 -46.5 -23t-48.5 16.5t-23 46.5l-6 94l-106 -79q-22 -17 -49.5 -13.5t-44.5 25.5
t-13.5 49.5t25.5 44.5l99 73q-38 22 -71 43q-23 15 -28.5 42.5t9.5 50.5t42.5 28.5t50.5 -9.5q36 -24 78 -47q0 83 6 156q3 27 24 45t48.5 15.5t45.5 -23.5t16 -49q-5 -54 -6 -115z" />
    <glyph glyph-name="plus" unicode="+" horiz-adv-x="628" 
d="M202 413q3 95 9 164q3 27 24 45t48.5 15.5t45.5 -23.5t16 -49q-6 -65 -9 -150q100 2 185 9q28 2 49 -16t23 -46t-16 -49t-46 -23q-95 -7 -199 -9q-1 -61 -3 -101q-1 -28 -21.5 -46.5t-48.5 -17.5t-46.5 21.5t-17.5 48.5q2 38 3 93h-120q-28 0 -47.5 19.5t-19.5 47.5
t19.5 47.5t47.5 19.5h124z" />
    <glyph glyph-name="comma" unicode="," horiz-adv-x="209" 
d="M173 74q4 -36 1.5 -77.5t-15.5 -69.5q-3 -7 -7 -13l-8 -11q-3 -5 -9.5 -12t-9.5 -10.5t-11 -10.5l-11 -10l-13 -10l-12 -9q-2 -2 -13 -10t-13 -10q-22 -16 -49.5 -12t-44 26t-12.5 49.5t26 44.5q61 46 66 56q4 8 1 83q-1 28 17.5 48.5t46.5 21.5t48.5 -17.5t21.5 -46.5z
" />
    <glyph glyph-name="hyphen" unicode="-" horiz-adv-x="366" 
d="M263 154q-110 1 -204 1q-28 0 -47.5 19.5t-19.5 47.5t19.5 47.5t47.5 19.5q94 0 206 -1q27 0 47 -20q19 -20 19 -47.5t-20 -47t-48 -19.5z" />
    <glyph glyph-name="period" unicode="." horiz-adv-x="206" 
d="M171 61q0 -28 -19.5 -47.5t-47.5 -19.5t-47.5 19.5t-19.5 47.5t19.5 47.5t47.5 19.5t47.5 -19.5t19.5 -47.5z" />
    <glyph glyph-name="slash" unicode="/" horiz-adv-x="336" 
d="M289 641q-33 -48 -61 -100.5t-52 -114.5l-40 -109q-16 -47 -40 -125l-40 -121q-12 -35 -37 -96q-26 -63 -31 -78q-10 -26 -35.5 -37t-51.5 -1.5t-37 35t-2 51.5q7 16 31.5 76t36.5 94l37 116l42 129q17 50 43.5 117.5t57.5 126.5q32 60 69 113q16 23 43.5 28t50 -11
t27.5 -43.5t-11 -49.5z" />
    <glyph glyph-name="zero" unicode="0" horiz-adv-x="506" 
d="M254 575q-85 -29 -103 -80q-11 -37 -8 -82t19 -133q2 -15 6 -59q3 -36 6 -52q6 -42 20 -53q8 -6 35 -10q29 -3 45 1q30 9 45 33.5t18 70.5q4 74 -29 193q-31 112 -54 171zM356 673q5 -6 8 -13q35 -80 74 -220q38 -140 33 -237q-2 -36 -11 -68t-26.5 -64t-49.5 -56
q-31 -24 -74 -36q-42 -12 -97 -6q-64 8 -101 37q-57 45 -71 139q-3 21 -6 62q-3 32 -5 45q-12 64 -17 102.5t-4 91t16 92.5q25 69 87.5 111.5t164.5 66.5q26 6 49 -7.5t30 -39.5z" />
    <glyph glyph-name="one" unicode="1" horiz-adv-x="372" 
d="M200 536q-62 -63 -117 -103q-22 -17 -49.5 -13.5t-44 26t-13 50t26.5 43.5q56 43 149 139l4 6q13 22 14 24q16 23 33 35q20 13 46.5 12t47.5 -20q29 -26 37 -79q5 -29 4 -72q-1 -36 -9 -111q-28 -262 -28 -438q0 -28 -19.5 -47.5t-47.5 -19.5t-47.5 19.5t-19.5 47.5
q0 183 28 452q5 48 5 49z" />
    <glyph glyph-name="two" unicode="2" horiz-adv-x="512" 
d="M6 623q110 81 202 87q73 5 122 -40q50 -46 62 -136q10 -71 -9 -110q-5 -12 -10 -20t-8.5 -15t-8 -21t-14 -56t-21.5 -83t-28 -72q11 -2 26 -4q83 -16 99 -17q28 -4 45 -25.5t13.5 -49.5t-25 -45t-49.5 -14q-20 3 -108 19q-55 10 -86 11q-3 -1 -9.5 -4t-9.5 -4
q-23 -10 -42 -10q-23 0 -43.5 12t-30.5 36q-10 28 -3.5 50.5t24.5 38.5q14 12 38 21q3 1 8.5 2.5t8.5 2.5q8 10 23 37q18 35 33 99.5t24 94.5q12 38 32 72h1l-2 30v6q-6 42 -21 55q-7 6 -23 5q-52 -3 -130 -61q-22 -16 -49.5 -12t-44 26t-12.5 49.5t26 44.5z" />
    <glyph glyph-name="three" unicode="3" horiz-adv-x="478" 
d="M50 673q108 39 162 44q127 11 190 -84q34 -51 35 -100q1 -47 -29 -101q-24 -43 -77 -80q22 -12 36 -21q17 -10 29 -19q20 -15 29 -30q40 -66 -4 -171q-36 -87 -90 -121q-41 -27 -113 -19q-34 4 -83 21q-46 17 -61 20q-27 6 -41.5 29.5t-8.5 50.5t29.5 41.5t50.5 8.5
q21 -4 75 -23q34 -12 53 -14q6 -1 11 -1.5t7 -0.5h6h3h1q20 17 38 60q11 27 12 46q-3 2 -12 7q-22 13 -59 33l-59 29l-20 10l-7 3l-4 2q-2 2 -4 3q-4 3 -7 5q-4 4 -8 9q-13 16 -15 37q-4 47 37 74q16 10 41 15l22 3q61 31 77 59q11 21 11 32q0 10 -13 29q-19 29 -66 24
q-37 -3 -128 -36q-26 -9 -51.5 2.5t-34.5 37.5t2.5 51.5t37.5 34.5z" />
    <glyph glyph-name="four" unicode="4" horiz-adv-x="497" 
d="M218 321q15 -1 31 -1q11 -1 23 -1q1 28 1 37q-2 6 -3 17q-1 6 -2 16l-21 -28zM315 -14q0 1 -5 10l-12 20q-5 10 -11 23.5t-9 23.5q-14 48 -12 122q-12 0 -22 1q-59 2 -97 10q-27 5 -45 14q-38 18 -49 53q-7 23 2 48q3 8 8 18q7 13 20 32q20 30 56 79l39 52l36 48
q15 19 18 24q2 2 2.5 3t1 3t3 8.5t7.5 16.5q31 67 94 62q29 -3 47 -26q7 -8 10 -19q3 -7 4 -14v-11q1 -4 0 -13q0 -5 -0.5 -17t-0.5 -17q-3 -56 -1 -90q2 -44 4 -60q2 -7 3 -14q1 -6 1 -16q0 -8 -1 -39q23 -4 38.5 -20.5t17.5 -39.5q2 -28 -16 -49t-45 -24h-1q-3 -54 6 -87
q2 -8 5 -13l9 -16q7 -11 15 -26q12 -25 3.5 -51.5t-33.5 -38.5t-51.5 -3.5t-38.5 33.5z" />
    <glyph glyph-name="five" unicode="5" horiz-adv-x="486" 
d="M358 571q-3 0 -114 -4q-37 -1 -58 -2l-1 -2q-9 -32 -15 -77q-7 -46 -7 -78v-1q13 -1 38 -2q48 -1 67 -3q45 -4 73 -19q44 -24 77 -69.5t33 -100.5q0 -103 -85 -149q-11 -7 -24.5 -12t-28 -9t-24.5 -6.5t-25 -5.5t-19 -3q-36 -8 -51 -13q-4 -1 -5 -2q-1 0 -3 -1t-3 -1
q-11 -4 -31 -5q-30 -2 -54 -4q-28 -2 -49 16t-23 46t16 49t46 23q25 2 55 4h1q7 2 11 3q16 5 62 15l23 5q14 3 20.5 4.5t15.5 4t15 4.5t11 5t8 5.5t5 9t2 17.5q0 12 -11 27t-29 25q-4 2 -23 4q-14 1 -57 3q-44 1 -67 4q-52 8 -77 37q-17 20 -22 53q-2 18 -2 43q0 42 8 96
q8 53 19 94q7 24 14 40q13 29 32 44q6 4 12 7t10 4l3 1q4 0 8.5 1t10.5 1q9 1 25 2q24 1 68 2l109 4q28 2 49 -16t23 -46t-16 -49t-46 -23z" />
    <glyph glyph-name="six" unicode="6" horiz-adv-x="490" 
d="M221 453q67 -2 124 -55q60 -55 90 -145q31 -92 15 -167q-10 -47 -40.5 -82t-81.5 -45q-26 -5 -63 8q-19 7 -45 20q-33 15 -66 34q-5 2 -15 7q-17 8 -22 10q-37 19 -58 45q-29 37 -26 111q1 11 2 25t3 28t2 18q9 82 21 136.5t35 100.5q23 45 58 86.5t95 99.5q20 19 48 19
t47 -20t19 -48t-20 -47q-94 -91 -122 -139zM210 318l-3 -3l-12 -12q-10 -10 -17 -16q-2 -16 -4 -36q-1 -4 -2 -15l-4 -24q-1 -13 -1 -24q-1 -14 1 -25q3 -2 8 -5q4 -1 19 -8t25 -13q28 -16 57 -29q20 -10 32 -14q7 5 10 20q8 40 -11 96q-19 58 -54 90q-24 22 -44 18z" />
    <glyph glyph-name="seven" unicode="7" horiz-adv-x="550" 
d="M38 721q177 -26 274 -30h1l1 1q2 0 4 0.5t6.5 1.5t10.5 2q55 9 89 -24q36 -34 42.5 -75.5t-10.5 -73.5q-9 -20 -27 -45q-16 -22 -18 -24l-12 -21q18 3 35 7q27 5 50.5 -10t29 -42t-9.5 -50.5t-42 -29.5q-64 -13 -145 -22q-62 -117 -107 -227q-11 -25 -36.5 -36t-51 0
t-36.5 36.5t0 51.5q34 82 74 162q-43 -3 -66 -5q-27 -2 -48.5 16t-23.5 45.5t16 48.5q18 22 46 24q25 2 74.5 5.5t74.5 5.5l64 109q4 9 24 35v1q-8 -1 -15 -1q-107 5 -288 32q-27 4 -43.5 26.5t-12.5 49.5t26.5 43.5t49.5 12.5z" />
    <glyph glyph-name="eight" unicode="8" horiz-adv-x="521" 
d="M300 635q-7 -9 -16 -14l-57 -37l-2 -1l-39 -25l-12 -7q-20 -18 -31 -30q12 -14 34 -33l31 -28l32 -30q13 -13 24 -22q7 3 13.5 6.5t41.5 36.5q6 6 18 15q9 8 12 11l4 3q-1 10 -3 23q-7 34 -23 75q-13 33 -27 57zM150 694q39 34 54 46q25 19 45 29q37 21 69 16
q49 -6 88 -67q25 -37 46 -91q20 -52 29 -98q12 -62 -2 -97q-12 -29 -40 -54q-5 -5 -17 -15q-8 -7 -11 -10l-18 -17q15 -13 26 -28q34 -49 37.5 -105t-19 -101t-67 -77t-99.5 -38q-58 -6 -115 22.5t-95 75.5q-26 33 -38.5 71.5t-5 85t42.5 85.5q21 24 50 40l-23 21l-25 24
q-8 7 -24 25t-23.5 36.5t-9.5 37.5q-3 29 11 58t30 46t42 38q4 4 26 18zM244 267q-3 -1 -12.5 -2.5t-13.5 -2.5q-44 -8 -58 -23q-26 -30 6 -71q19 -23 45.5 -36t45.5 -11q43 4 59.5 40t-7.5 69q-6 10 -32 22q-4 2 -15.5 7t-17.5 8z" />
    <glyph glyph-name="nine" unicode="9" horiz-adv-x="520" 
d="M317 356q33 73 34 106q1 39 -36 68q-36 29 -97 32q-48 2 -49 2q-4 -2 -7.5 -9.5t-6.5 -28t7 -52.5q10 -43 30 -75.5t34 -39.5q11 -5 54 -6q24 0 37 3zM110 39l27 53q5 9 7 13q10 16 26 25q11 11 38 44q14 18 33 46q-44 4 -75 19q-48 24 -83.5 82t-51.5 121
q-7 30 -8.5 61.5t3.5 67t27 66t58 47.5q12 6 27 9.5t29 4t24.5 0.5t21 -1t11.5 -1q33 -1 68 -10t70.5 -28t62.5 -45.5t44 -66t16 -86.5q-1 -40 -21 -97q7 -19 2 -39t-21 -34q-3 -2 -8 -7l-13 -14h-1l-5 -10q-52 -102 -106 -169q-33 -41 -50 -57q-4 -4 -8 -7l-24 -49
q-13 -24 -39.5 -32.5t-51 4t-33 39t3.5 51.5z" />
    <glyph glyph-name="colon" unicode=":" horiz-adv-x="225" 
d="M190 415q0 -28 -19.5 -47.5t-47.5 -19.5t-47.5 19.5t-19.5 47.5t19.5 47.5t47.5 19.5t47.5 -19.5t19.5 -47.5zM168 46q0 -28 -19.5 -47.5t-47.5 -19.5t-47.5 19.5t-19.5 47.5t19.5 47.5t47.5 19.5t47.5 -19.5t19.5 -47.5z" />
    <glyph glyph-name="semicolon" unicode=";" horiz-adv-x="253" 
d="M192 15l-34 -26q-16 -12 -18 -14l-11 -9q-8 -6 -10 -8l-16 -16l-29 -28q-20 -19 -48 -18t-47 21t-18 48t21 47l30 28l18 18q1 1 12 10t13 10l20 16l35 27q22 17 49.5 13.5t44.5 -25.5t13.5 -49.5t-25.5 -44.5zM201 413q0 -28 -19.5 -47.5t-47.5 -19.5t-47.5 19.5
t-19.5 47.5t19.5 47.5t47.5 19.5t47.5 -19.5t19.5 -47.5z" />
    <glyph glyph-name="less" unicode="&#x3c;" horiz-adv-x="580" 
d="M450 454q-42 -18 -119 -58l-93 -47l42 -14q41 -13 88 -26l84 -23q38 -10 45 -12q26 -7 39.5 -31.5t6 -51t-32.5 -39.5q-24 -14 -51 -6q-7 2 -45 12l-86 24l-88 25q-82 27 -130 50q-33 16 -52 32q-42 35 -35 82q9 67 90 81q11 1 19.5 2.5t11 1.5t4.5 0.5t4 0.5
q38 17 118 58q86 44 126 61q26 12 51.5 1.5t37 -36t1 -51t-35.5 -36.5z" />
    <glyph glyph-name="equal" unicode="=" horiz-adv-x="580" 
d="M472 162q-139 12 -301 12q-28 0 -47.5 19.5t-19.5 47.5t19.5 47.5t47.5 19.5q168 0 313 -12q27 -3 45 -24t15.5 -48.5t-23.5 -45.5t-49 -16zM470 373q-46 0 -137.5 -1t-137.5 -1q-28 0 -47.5 19.5t-19.5 47.5t19.5 47.5t47.5 19.5q46 0 137.5 1t137.5 1q28 0 47.5 -19.5
t19.5 -47.5t-19.5 -47.5t-47.5 -19.5z" />
    <glyph glyph-name="greater" unicode="&#x3e;" horiz-adv-x="603" 
d="M108 600q68 -34 197 -87t154 -64q1 0 8 -2q20 -4 26 -6q68 -20 75 -80q4 -42 -30 -78q-18 -20 -49 -39q-46 -28 -126 -61q-39 -16 -83 -32l-88 -31l-45 -15q-26 -9 -51 2.5t-34 38t2.5 51.5t38.5 34l43 15l84 30q44 15 82 31q40 16 69 30q-36 16 -105 44l-124 51
q-51 22 -104 48q-25 12 -33.5 38.5t3.5 51.5t38.5 33.5t51.5 -3.5z" />
    <glyph glyph-name="question" unicode="?" horiz-adv-x="312" 
d="M-73 560q3 4 9 13l13 20q23 34 50 51q42 28 91.5 28.5t90 -21t68 -63t28.5 -91.5q1 -61 -57 -147l-26 -37q-16 -21 -25.5 -35.5t-16.5 -26.5q-13 -25 -39.5 -33t-51 5t-32.5 39.5t5 50.5q8 16 21.5 36.5t31 44.5t22.5 32q34 50 34 69q0 24 -24.5 37.5t-47.5 -0.5
q-3 -3 -11 -14l-12 -18q-9 -14 -17 -24q-17 -22 -44.5 -25t-49.5 14.5t-25 45t15 49.5zM174 72q0 -28 -19.5 -47.5t-47.5 -19.5t-47.5 19.5t-19.5 47.5t19.5 47.5t47.5 19.5t47.5 -19.5t19.5 -47.5z" />
    <glyph glyph-name="at" unicode="@" horiz-adv-x="992" 
d="M499 236l3 10q1 6 1 9q6 21 15 35q-1 16 -7 26q-8 17 -28 19q-28 2 -59 -22t-42 -70q-7 -36 8 -43q28 -14 71 6q14 7 38 30zM694 -33q18 -18 19 -43q1 -28 -18 -48.5t-46 -21.5q-10 0 -46 -2t-46 -2h-41q-30 0 -42.5 2t-39 5.5t-43.5 9.5l-41 15q-24 9 -46.5 21.5
t-47.5 28.5q-80 53 -120.5 138t-41.5 181q-1 91 31.5 178.5t94.5 150.5q37 37 114 80q61 35 132.5 46.5t140 1.5t132.5 -41.5t112 -78.5t77 -116t29 -148q0 -131 -57 -222q-42 -66 -109 -104q-48 -28 -97 -31zM518 85q-46 -22 -94.5 -24t-94.5 19q-50 26 -71 77
q-20 51 -6 114q21 94 91 149q71 55 151 48q43 -4 79 -26.5t57 -63.5q20 -38 23 -88q13 -22 9 -48q-2 -18 -15 -41l-3 -5q-2 -8 -4 -17q-1 -4 -3 -9q1 -29 8.5 -43t25.5 -23q20 -9 53 10q38 22 62 60q37 58 37 150q0 58 -26.5 109t-71 84t-98.5 50.5t-114 11.5t-113 -35
q-61 -35 -84 -58q-42 -43 -65.5 -105.5t-22.5 -128.5q1 -67 27 -122q26 -54 75 -86t88 -46q41 -13 84.5 -13.5t104.5 1.5q-65 34 -89 99z" />
    <glyph glyph-name="A" unicode="A" 
d="M261 310q7 -1 32 -5t31 -4.5t30 -3t29 -1.5t29 0h1q-48 107 -80 189l-28 -67zM0 74q13 48 32.5 90t47.5 90t38 67q13 25 63 147l32 78l1 6q1 2 2 10q2 6 5 19q13 54 53 77q52 28 101 3q32 -16 53 -54q8 -13 15 -31l11 -30l4 -12q34 -90 89 -209l11 3q27 7 51 -7t31 -41
q6 -23 -4.5 -45t-31.5 -32l53 -114q11 -25 1.5 -51t-34.5 -37.5t-51 -2t-38 34.5l-63 136q-30 -6 -54 -7q-32 -2 -72.5 2t-88.5 10l-62 9q-20 -33 -27.5 -47t-18.5 -40.5t-19 -55.5q-7 -27 -31 -41t-51 -7t-41 31t-7 51z" />
    <glyph glyph-name="B" unicode="B" horiz-adv-x="595" 
d="M192 282q-4 -93 -3 -162q83 -9 146 -1q89 11 91 48q2 22 -6 36v1l-2 2l-4 2l-8 4q-4 3 -9 5q-26 12 -74 24l-41 11q-26 6 -36 8q-21 6 -34 11q-11 5 -20 11zM205 567q1 -14 1 -23q-1 -15 -2.5 -41t-1.5 -34q-1 -25 -3 -61q2 1 5 3q18 9 43 12l24 1q52 19 74 37
q20 16 19 36q0 10 -17 24q-25 21 -67 34q-41 13 -75 12zM58 28q-3 53 -3 120t1.5 100t6.5 124.5t5 102.5q0 8 2 33.5t2 39.5v2q0 1 -0.5 2.5t-1.5 6.5t-2 13q-7 50 20 83q35 44 114 46q56 1 118 -18q67 -22 112 -59q63 -52 66 -121q4 -87 -69 -146l-7 -6q16 -5 30 -11
q62 -29 86 -72q26 -48 22 -109q-3 -37 -18 -66t-36 -47t-49.5 -31.5t-53 -19.5t-51.5 -9q-78 -10 -178 1q-18 -20 -45 -22t-48 16.5t-23 46.5z" />
    <glyph glyph-name="C" unicode="C" horiz-adv-x="745" 
d="M609 505q-50 30 -86.5 43t-79.5 15q-112 4 -183 -52t-78 -157q-7 -105 27 -155q18 -26 59 -57q40 -31 79 -50q61 -30 91 -24q17 3 44 18q60 33 66 36q26 11 52 1.5t37 -35t1.5 -51.5t-34.5 -37q-4 -2 -57 -31q-46 -25 -83 -33q-75 -14 -177 36q-50 25 -104 66
q-53 41 -84 85q-61 89 -51 239q6 83 40.5 149t89.5 107t124 62q68 20 145 17q66 -2 117 -21q53 -20 113 -55q24 -14 31 -41t-7 -51t-41 -31t-51 7z" />
    <glyph glyph-name="D" unicode="D" horiz-adv-x="733" 
d="M234 72v-1v1zM562 244l-1 6q-7 26 -10 51q-1 3 -6 73l-4 53q-29 83 -127 110q-84 23 -207 7q-2 -78 2 -129q2 -25 12 -105q8 -70 10 -115v-14v-27v-32q0 -14 1 -23q13 1 31 7l59 23q43 17 64 22q17 3 50 4q16 1 20 2q20 6 47.5 25.5t41.5 37.5q11 14 17 24zM185 677
q152 20 264 -11q167 -46 218 -195q8 -21 12 -87q1 -11 2 -27t1.5 -25t0.5 -13q3 -17 8 -35q6 -27 7 -41q1 -20 -7 -40.5t-16 -32.5q-7 -11 -24 -32q-26 -33 -71 -65q-44 -32 -84 -44q-22 -7 -56 -8q-21 -1 -26 -2q-10 -2 -41 -14q-56 -22 -69 -26q-120 -39 -181 25
q-16 16 -21 42q-2 10 -3 24q-2 19 -2 50v32v26v13q-1 38 -9 102q-12 93 -13 112q-5 59 0 222q1 28 21 47t48 18q23 -1 41 -15z" />
    <glyph glyph-name="E" unicode="E" horiz-adv-x="559" 
d="M472 12q-2 -1 -17 -5t-30.5 -7.5t-27.5 -5.5q-12 -1 -61 1q-39 1 -95 4q-31 2 -92 5q-19 1 -30 2q-6 1 -10 1h-5q-3 1 -5 1q-4 1 -7 2q-13 3 -25 14q-16 14 -22 37q-3 9 -4 21q-3 17 -3 42q-1 37 2 102q2 54 6 97l-5 19q-1 4 -1 8v6q0 1 1 3v3q0 2 1 5l3 17l8 50l9 49
l2 9l-3 6q-1 2 -7 16q-7 14 -10 21q-35 81 0 134q24 37 74 45q14 2 46 2q24 0 55 -10q20 -6 23 -7q19 -3 130 -7q28 -1 47 -21t18 -48t-21 -47t-48 -18q-117 4 -148 9q-13 2 -43 12q-4 1 -7 2l13 -28q14 -29 16 -50v-15q-1 -1 -1 -3q0 -3 -1 -7l-3 -17l-8 -47q56 2 67 2
q68 1 104 -2q29 -2 47 -8q17 -6 30 -16q28 -23 28 -58q0 -29 -18 -50t-45 -25q-20 -4 -46 3q-5 1 -14.5 3.5t-10.5 2.5q-4 1 -6 2h-1q-7 0 -63 -3q-48 -2 -82 3l-2 -48q-3 -51 -2 -83q35 -2 76 -4q69 -3 93 -4l40 -1q8 1 15.5 2.5t20 5t25.5 6.5q27 7 50.5 -8t30 -42
t-8.5 -50.5t-42 -29.5z" />
    <glyph glyph-name="F" unicode="F" horiz-adv-x="503" 
d="M386 415h1h-1zM45 64q-2 26 1 166q1 63 3 101q1 24 3 36q1 9 2 16q-1 20 7 44q5 15 6 17q-4 26 -8 63q-3 32 -4 51q-1 12 -2 20q0 6 1 11q0 14 7 28q22 46 86 65q37 11 92 15q25 1 54 1.5t57.5 -0.5t34.5 -1q28 0 47.5 -19.5t19.5 -47.5t-19.5 -47.5t-47.5 -19.5
q-7 0 -35 1t-48 1t-55 -2q-36 -2 -58 -8q1 -13 4 -34q8 -78 8 -80v-1q22 -3 58 -9l10 1q67 2 96 1q27 -2 45 -8q6 -1 12.5 -4.5t18.5 -11.5t19.5 -23t7.5 -34q0 -16 -6 -29.5t-15.5 -21t-15.5 -10.5t-11 -5q-12 -4 -27 -5q-14 -1 -40 2q-21 2 -95 13l-7 1q-45 -2 -69 -1
q-1 -29 -2 -69q-3 -129 -1 -155q1 -28 -17 -48.5t-46 -22t-48.5 16.5t-22.5 46z" />
    <glyph glyph-name="G" unicode="G" horiz-adv-x="753" 
d="M545 538q-41 28 -49 27q-3 -1 -6 -1.5t-10.5 -3t-16.5 -4.5q-38 -10 -79 -13q-18 -1 -81 5q-25 2 -34 -2q-2 -1 -3.5 -2.5l-3.5 -3.5l-9 -12q-7 -8 -17 -19q-58 -64 -54 -173q4 -110 65 -186q45 -56 135 -66.5t160 29.5q7 5 20 11q10 4 13 6l4 2q7 31 6 63q-1 26 -7 43v1
q-9 1 -22 -1q-12 -1 -24.5 -3t-24.5 -5l-17 -3q-27 -5 -49.5 11t-27.5 43.5t11 50t44 27.5q73 12 74 13q76 8 117 -21q33 -24 48 -75q10 -34 11 -76q4 -98 -29 -145q-17 -25 -50 -43q-6 -3 -19 -9q-9 -4 -12 -6q-68 -39 -153.5 -48t-171.5 20.5t-140 96.5q-56 70 -81 166.5
t-7 197.5t83 171l4 5q4 5 9 10l13 14q7 8 15 15t18 14t20 11q40 17 99 11q51 -5 58 -4q29 2 56 9q41 10 47 11q35 5 67 -6.5t75 -40.5q23 -16 28.5 -43t-10 -50t-42.5 -28.5t-50 9.5z" />
    <glyph glyph-name="H" unicode="H" horiz-adv-x="736" 
d="M98 37q-1 1 -8 11l-13 22q-7 12 -14 28t-11 29q-10 39 -6 96q1 7 2.5 23.5t1.5 24.5q-1 3 -2 8.5t-1.5 12t-0.5 17.5q0 12 1 36q-5 104 -4 163q0 11 1 33.5t1 33.5q0 1 -0.5 2t-2.5 8.5t-4 19.5q-5 27 0 46q7 30 32.5 46t56.5 9q34 -7 50 -41q6 -12 9 -28q3 -20 4 -51
q2 -41 -2 -123q-1 -31 -5 -97l25 4q116 22 134 22q14 0 121 -12q48 -5 65 -7l2 2q10 20 19 52l1 7v17q0 1 -0.5 13t-1.5 30.5t-1 34.5q-1 34 1 55q1 16 3 27t6 19q12 25 36 36q29 13 57 3q28 -11 41 -38q10 -20 10 -49q0 -11 -1 -31q-1 -14 -1 -17q1 -46 -14 -115
q2 -201 -20 -387q-4 -28 -25.5 -45t-49.5 -13.5t-45 25t-14 49.5q12 93 16 189q-3 0 -4 1q-10 0 -27 1q-11 1 -69 8q-98 11 -103 11q-6 0 -111 -19q-31 -6 -52 -9q-1 -13 -1 -17q-3 -35 2 -52q2 -8 6 -13l11 -18q8 -13 17 -31q13 -24 5 -50.5t-32.5 -39.5t-51 -5t-39.5 33z
" />
    <glyph glyph-name="I" unicode="I" horiz-adv-x="233" 
d="M59 27q-3 83 2 203t4 218q-1 97 -17 187q-5 28 11 50.5t43.5 27.5t50 -11t27.5 -43q16 -93 18 -204t-2.5 -234.5t-2.5 -189.5q1 -27 -18 -47.5t-46.5 -21.5t-48 18t-21.5 47z" />
    <glyph glyph-name="J" unicode="J" horiz-adv-x="244" 
d="M-82 -125q53 17 83.5 39.5t47.5 61.5q19 44 24 151q3 65 -1 176q-2 53 1 155q3 105 2 149q0 28 19 48t47 20t48 -19t20 -47q1 -47 -2 -154q-3 -98 -1 -148q4 -115 1 -186q-6 -131 -36 -199q-32 -71 -85 -111q-54 -40 -128 -64q-26 -8 -50.5 4.5t-33 39t4 51t39.5 33.5z
" />
    <glyph glyph-name="K" unicode="K" horiz-adv-x="642" 
d="M544 575q-13 -6 -22.5 -9.5t-13 -4.5t-7 -2.5t-7.5 -4.5q-20 -14 -79 -78l-98 -109q45 -34 93 -80t109 -111.5t69 -73.5q19 -20 19 -47.5t-20 -47t-47.5 -19.5t-47.5 20l-80 85q-66 70 -108.5 110.5t-81.5 66.5q-16 -6 -32 -9l3 -66q2 -44 3 -69v-24v-8v-7q-1 -4 -2 -9
q-2 -8 -5 -16q-19 -36 -60 -36q-35 0 -56 29q-5 7 -8 15q-3 7 -5 17q-4 13 -8 35q-7 37 -16 96q-9 62 -12 100q-1 24 -1 40q0 11 2 20q5 26 21 42q2 2 4 3l-1 8q-17 83 -20 109q-1 12 -1 27.5t0.5 31t0.5 17.5q0 3 -0.5 7t-2 13.5t-2.5 19.5q-3 24 0 39q0 2 1 5.5t5 12.5
t9.5 16t17 14t25.5 9q18 3 33.5 -3t22.5 -13l7 -7q13 -14 18 -35q3 -8 4 -19q3 -17 5 -45q4 -45 8 -121q1 -28 3 -61l3 -16l9 -3l7 9q34 42 107.5 121.5t104.5 102.5q7 5 17 10.5t20 9.5l19 8q8 3 14 5l6 2q25 11 51 1.5t37 -35t1.5 -51.5t-35.5 -37z" />
    <glyph glyph-name="L" unicode="L" horiz-adv-x="575" 
d="M205 644q-15 -57 -21 -96q-7 -45 -7.5 -98t0.5 -81.5t7.5 -101.5t8.5 -105q1 -12 2 -76q0 -6 -1 -16q34 0 91 8q42 5 106 16t74 13q28 3 49.5 -14.5t25 -45t-14 -49t-44.5 -25.5q-11 -1 -73.5 -11.5t-104.5 -16.5q-69 -9 -113 -9q-30 0 -51 4q-38 8 -59 30q-31 34 -24 88
q2 8 3 13.5t1.5 7t0.5 2.5v3q-1 60 -2 68q-2 28 -8 103t-7.5 107t-1 91.5t9 112t23.5 112.5q7 27 31 41t51 7t41 -31t7 -51z" />
    <glyph glyph-name="M" unicode="M" horiz-adv-x="762" 
d="M56 30q-27 237 -22 489q1 47 4 93q2 25 4 41q1 11 3 18q2 8 4 15q26 34 44 39q31 9 61 -9q11 -6 23 -17q16 -15 40 -42q35 -42 92 -118l80 -109q20 24 60 79l70 96l23 33q6 7 9 11q3 3 5 6l7 7q5 4 11 7q17 9 36 8q50 -3 79 -54q13 -24 22 -60q7 -31 12 -82q7 -79 1 -227
q-6 -145 0 -210q2 -28 -16 -49t-45.5 -23.5t-48.5 15.5t-24 45q-6 76 0 227q6 143 -1 210v4l-32 -44q-47 -64 -78 -100q-20 -24 -34 -37q-11 -10 -21 -16q-24 -15 -50 -13q-21 3 -37 17q-3 2 -6 6q-3 2 -6 6l-10 13l-28 39l-85 115l-34 45q-4 -218 22 -458
q3 -28 -14.5 -49.5t-45 -25t-49 14t-25.5 44.5z" />
    <glyph glyph-name="N" unicode="N" horiz-adv-x="773" 
d="M18 68q17 53 18 117q1 8 0.5 31.5t-0.5 32.5q1 43 4 79q5 50 9 69q1 4 2 7v53v66v1q-2 1 -7 22q-17 67 30.5 102t110.5 -3q26 -16 60 -49q28 -26 77 -83q16 -19 49 -64q27 -37 43 -54l60 -65l70 -77l59 -67q2 67 1 76q-5 112 -8 138q-1 7 -7 26q-7 29 -9 45q-5 39 -2 156
q1 28 21 47t48 18t47 -21t18 -48q-3 -107 0 -134q1 -8 7 -27q7 -29 9 -46q4 -31 10 -148q1 -10 -2 -132q-1 -47 -2 -79q-1 -17 -1 -26q-1 -6 -1 -9v-4q-1 -3 -1 -6l-2 -8q-6 -21 -24 -34q-35 -26 -78 -6q-13 6 -28 19q-17 15 -40 42q-2 3 -44 56q-33 41 -61 73l-76 82
l-64 69q-19 21 -51 65q-29 40 -43 55l-35 41v-9v-62v-5v-8q0 -4 -1 -9q-1 -6 -4 -13q-1 -2 -2 -3q-1 -12 -4 -43q-3 -32 -4 -66q0 -9 0.5 -33t-0.5 -32q-1 -85 -26 -157q-8 -27 -33 -39t-51.5 -3.5t-38.5 33.5t-3 51z" />
    <glyph glyph-name="O" unicode="O" horiz-adv-x="818" 
d="M592 496q-13 14 -89 38l-133 34q-7 2 -14 5l-8 -2q-27 -10 -56 -46q-3 -3 -11 -18q-14 -28 -26 -42.5t-37 -34.5q-12 -10 -14 -13q-5 -6 -21 -46l-16 -45q-3 -31 14 -67.5t52 -71.5t75 -57q41 -21 75 -25q57 -7 102 18q5 3 17 15q25 23 37 32q7 5 30 18l37 22
q23 13 34 22l6 4q6 16 -1 51q-3 14 -14 48q-12 38 -15 54q-2 7 -6.5 32t-7.5 39q-2 8 -3.5 15t-3 10.5t-2.5 6.5zM489 677l53 -15q115 -35 152 -78q25 -29 39 -96q3 -16 7 -38q5 -24 6 -31l13 -44q12 -37 17 -60q20 -92 -18 -153q-12 -19 -40 -39q-16 -12 -42 -27l-40 -24
q-18 -11 -19 -12q-5 -3 -22 -20q-24 -22 -44 -33q-83 -47 -184 -36q-59 7 -119.5 40t-109.5 81q-51 52 -81 116q-30 62 -24 130q2 25 26 83q22 56 37 76q13 17 38 37q14 12 17 15q3 4 11 19q14 28 26 43q52 63 113 85q48 18 129 17q40 -1 59 -36z" />
    <glyph glyph-name="P" unicode="P" horiz-adv-x="558" 
d="M182 577q-1 -10 -1 -24v-65q0 -38 -1 -89q13 -1 23 -2l15 -1q5 -1 9 -1.5t5 -0.5h3h2l9 2l51 10q11 2 25 3q2 0 8.5 0.5t9.5 0.5q11 1 13 3q21 10 27 20q7 11 9 41q3 33 -11 48q-15 17 -64 37q-54 22 -60 23q-16 4 -47 -1zM47 41q-3 65 -3 140t1.5 166.5t1.5 140.5v70
q1 29 4 48q5 40 24 61q7 8 16.5 15t19.5 11.5t19.5 8t19 5.5t15.5 3l13 2q6 1 7 1q57 10 101 -1q16 -4 78 -29q78 -32 114 -71q51 -57 45 -148q-5 -61 -27 -99q-27 -46 -85 -74q-24 -11 -59 -14q-3 0 -10 -0.5t-9 -1.5q-8 0 -12 -1q-24 -4 -46 -9q-20 -4 -31 -5q-7 -1 -66 5
q-1 -110 3 -218q1 -28 -17.5 -48.5t-46.5 -21.5t-48.5 17.5t-21.5 46.5z" />
    <glyph glyph-name="Q" unicode="Q" horiz-adv-x="825" 
d="M185 424q-23 -36 -27 -95t14 -101q7 -18 16.5 -32t23.5 -25.5t25 -19.5t33 -18t35 -15l43 -16l47 -17l9 7l8 6l3 2q18 14 50 26q17 6 20 8q29 18 81 61t65 61q24 32 25 100q0 17 -1 29.5t-8 25.5l-11 20q-3 7 -19 21l-23 20q-6 5 -31.5 24t-36.5 28l-38 28
q-11 9 -25 16.5t-23 8.5h-2q-1 0 -5.5 -1t-10 -2t-14.5 -3l-18 -4l-51 -14q-4 -3 -14 -14q-23 -26 -33 -35q-4 -3 -24 -17l-37 -27l-36 -28zM684 -151q-1 0 -11 -1t-20 -1.5t-24 -1t-23 0.5q-32 4 -123 38q-42 16 -68 29q-18 9 -30 16q-16 12 -26 26l-49 17q-38 14 -59 22.5
t-56.5 27t-58.5 37.5t-48 50t-40 67q-20 48 -24 106q-4 60 10 121t46 104q6 9 17 18q6 6 16 13l39 29l37 28q5 3 9 5l4 4q2 1 2 2q4 3 21 22q24 26 44 39q23 15 89 30q67 16 94 14q14 -2 28.5 -5.5t28.5 -10.5l25 -13q11 -5 24 -14l20 -14l18 -14q11 -9 12 -10l32 -24
q25 -18 37 -28t33.5 -29.5t33 -37.5t24 -42t18 -53t4.5 -62q-2 -111 -51 -178q-23 -31 -84.5 -82t-97.5 -74q-10 -6 -23 -12q73 -27 88 -28q11 -1 13.5 -0.5t15 1.5t27.5 2q28 1 48.5 -17.5t21.5 -46.5t-17.5 -48.5t-46.5 -21.5z" />
    <glyph glyph-name="R" unicode="R" horiz-adv-x="634" 
d="M170 558v-23v-77q0 -20 1 -44q9 5 19 8q19 5 44 2q19 -3 21 -3q54 16 83 51q27 30 13 65q-2 7 -27 30q-23 22 -44 21q-20 0 -78 -21q-11 -4 -32 -9zM42 14q-1 41 1 116q3 74 2 109q-1 31 -5 105t-4 114v78q0 29 1 47q0 11 1 18q1 6 1 11q3 18 15 32q24 30 69 41
q13 3 21 4.5t12 3.5q79 29 121 29q76 2 139 -57q47 -45 61 -80q15 -39 13 -76.5t-14.5 -68t-35.5 -56.5q-30 -34 -74 -60q137 -112 226 -286q12 -24 3.5 -50.5t-33 -39t-51 -4t-39.5 33.5q-82 157 -199 249q-21 17 -46 31q-1 0 -3 1q-3 0 -11 1.5t-11 2.5q-14 3 -24 8
q1 -16 1 -30q1 -38 -2 -115q-2 -72 -1 -108q1 -28 -18 -48t-47 -21t-48 18t-21 47z" />
    <glyph glyph-name="S" unicode="S" horiz-adv-x="473" 
d="M335 543q-12 7 -20 13l-11 8l-8 6q-3 2 -8 3q-49 19 -92 5q-35 -12 -41 -48q-8 -48 6 -65q11 -13 53 -27q5 -1 25.5 -7t33.5 -10.5t34.5 -13t37.5 -20t33 -26.5t30 -36.5t21 -46.5q17 -66 1.5 -126.5t-56.5 -107.5q-28 -32 -63.5 -52.5t-80.5 -27.5t-92 11q-24 8 -49 28
q-2 2 -10 9l-13 10q-23 16 -28 43.5t11 50t43.5 27.5t49.5 -11l31 -24l9 -7q50 -17 91 30q20 24 28 54t0 53q-2 6 -4.5 11.5t-5 9.5t-7.5 7.5t-8.5 6.5t-11 6.5t-12.5 5.5t-16 5l-18 6l-20 6l-24 8q-80 26 -117 70q-52 62 -34 172q9 58 44 96q35 39 85 57q89 30 184 -6
q10 -4 22.5 -11t21.5 -13l16 -12l9 -6q24 -15 30.5 -42t-8.5 -50.5t-42 -30t-50 8.5z" />
    <glyph glyph-name="T" unicode="T" horiz-adv-x="639" 
d="M201 538q-104 3 -188 11q-27 3 -44.5 24.5t-15 49t24 45t49.5 15.5q88 -9 194 -12q9 6 19 10q9 4 22 6q16 3 42 5q42 3 101 1q58 -2 99 -7q24 -3 39 -7q14 -4 24 -9q39 -22 37 -65q-2 -36 -33 -55q-9 -6 -20 -9q-9 -2 -21 -4q-15 -1 -41 -2h-97h-55q1 -13 2.5 -37.5
t2.5 -35.5q3 -44 16.5 -199.5t18.5 -239.5q1 -28 -17 -48.5t-46 -22t-48.5 16.5t-22.5 46q-5 84 -18 238l-17 199q-1 10 -2 36t-3 41q0 2 -2 9z" />
    <glyph glyph-name="U" unicode="U" horiz-adv-x="696" 
d="M171 640q-58 -266 19 -435q15 -34 49.5 -61t78.5 -39t83 -5t66 31q23 21 38.5 82t20.5 149q8 154 -14 288q-5 28 11.5 50.5t44 27t50 -12t26.5 -43.5q24 -149 16 -317q-13 -240 -103 -322q-37 -35 -85.5 -52.5t-95 -17t-93.5 12.5q-70 19 -128 64t-87 109
q-95 209 -27 519q6 28 29 42.5t50.5 8.5t42 -29t8.5 -50z" />
    <glyph glyph-name="V" unicode="V" horiz-adv-x="637" 
d="M281 158v-1v1zM76 719q22 -41 69 -115.5t84.5 -141t64.5 -133.5q22 -53 35 -80l8 17q25 54 46.5 111.5t50.5 144.5l38 115q9 26 34 38t51 3t38 -34t3 -51l-38 -117q-32 -94 -54 -152.5t-47 -113.5q-22 -48 -36 -75q-16 -30 -28 -48q-10 -14 -18 -23q-23 -23 -51 -26
q-47 -4 -74 35q-11 17 -16 41q-5 23 -4 26v1l-20 44q-8 17 -11 22t-10 21l-21 51q-26 62 -59 120.5t-78 130t-75 123.5q-13 25 -5.5 51.5t32 40t51 6t40.5 -31.5z" />
    <glyph glyph-name="W" unicode="W" horiz-adv-x="1048" 
d="M139 672q12 -73 66 -186l23 -46l26 -54q9 -19 22 -50t21 -56q1 -1 2 -5.5t4 -13t5 -16.5l28 56q28 62 54 126t33 88l23 85q7 25 12 38l7 17q4 8 9 14q21 28 57 27q14 -1 26.5 -7t17.5 -12l5 -5q4 -5 7 -11q3 -5 6 -11q3 -7 7 -18l16 -48q4 -9 7 -19l5 -18q3 -8 5.5 -14.5
t3.5 -10.5l1 -4l81 -218l31 -79q14 32 26 67l21 60l24 77q51 163 60 198q7 27 31 41.5t50.5 7.5t41 -31t7.5 -50q-17 -66 -62 -208l-18 -55q-1 -8 -2 -8q0 -2 -1 -4q-1 -4 -4 -12q-2 -8 -4 -12.5t-4 -8.5l-14 -39q-20 -58 -45 -109q-20 -43 -39 -68q-14 -20 -30 -31
q-33 -24 -70 -15q-18 4 -32 18l-8 10q-3 4 -6 10q-4 6 -8 16l-19 45l-51 132l-63 168q-33 -88 -74 -176q-38 -80 -67 -126q-20 -30 -37 -47q-42 -40 -89 -25q-11 4 -20.5 11.5t-13.5 12.5l-3 6q-4 5 -7 12q-4 9 -9 22l-18 53l-11 33q-5 18 -8 29l-3 11q-8 23 -19 50l-20 42
l-24 52q-17 35 -24 48q-62 131 -77 222q-5 28 11.5 50.5t44 27t50 -12t26.5 -43.5z" />
    <glyph glyph-name="X" unicode="X" horiz-adv-x="694" 
d="M93 691l60 -38q39 -26 64 -46q62 -50 135 -133q112 115 175 201q16 22 43.5 26t50 -12t26.5 -43.5t-12 -50.5q-69 -94 -197 -225l120 -161l88 -122q16 -22 12 -49.5t-26 -44t-49.5 -12.5t-44.5 26l-195 267l-52 -54q-29 -30 -64 -88q-35 -59 -54 -86q-18 -25 -51 -60
l-45 -50q-17 -21 -45 -23.5t-49 15t-23.5 45.5t15.5 49q10 12 49 55q26 28 39 47q11 14 34 52.5t47.5 74t48.5 61.5l65 67q-68 78 -125 124q-19 16 -53 37l-61 39q-23 16 -28.5 43t10 50t42.5 28.5t50 -9.5z" />
    <glyph glyph-name="Y" unicode="Y" horiz-adv-x="634" 
d="M237 16q-10 73 -19 199q-5 73 -5 120v33l-46 62l-56 78q-16 23 -43 67.5t-45 82.5q-11 25 -1.5 51t34.5 37.5t51 2t38 -34.5q17 -37 43.5 -79.5t43.5 -64.5l56 -77q3 2 4 3q29 29 93 105q69 82 98 113q19 21 46.5 22t48 -18t21.5 -46.5t-18 -47.5l-93 -109
q-62 -74 -100 -113q-11 -11 -41 -30v-35q0 -44 5 -113q9 -122 17 -190q4 -28 -13 -50t-44.5 -25.5t-49.5 13.5t-25 44z" />
    <glyph glyph-name="Z" unicode="Z" horiz-adv-x="689" 
d="M68 703q69 -18 162 -19q94 -1 177 5q2 0 3 1h4q1 1 6.5 2.5t15.5 3.5q59 11 94 -25q21 -22 27.5 -46.5t1 -46.5t-12.5 -36.5t-16 -26.5q-8 -12 -21 -26.5t-22 -22.5l-9 -9q-91 -99 -153.5 -179t-109.5 -167l-14 -25q17 -1 28 1q24 4 55 18q44 19 93 25q20 3 57 1
t59.5 -4.5t55 -7t45.5 -5.5q27 -3 44.5 -24.5t15 -49t-24 -45t-49.5 -15.5l-70 10q-47 6 -62.5 6.5t-56.5 -0.5q-27 -3 -53 -14q-48 -20 -87 -27q-14 -2 -30 -3t-34 -0.5t-19 0.5h-2q-1 -1 -2 -1t-3.5 -1t-7 -2t-11.5 -2q-66 -12 -98 36q-13 20 -11 45q1 8 3 17q3 10 8 23
q7 17 21 45q17 35 32 63q53 96 120.5 182.5t160.5 189.5l7 7q-76 -4 -117.5 -4.5t-110 4.5t-123.5 19q-27 7 -41 31t-7 51t31 41t51 7z" />
    <glyph glyph-name="bracketleft" unicode="[" horiz-adv-x="416" 
d="M309 551l-88 6q-17 2 -47 10q-1 -5 -2 -12q-1 -14 0 -35q0 -5 0.5 -13.5t0.5 -14.5v-9q0 -50 1 -202t0 -235q0 -76 -1 -91q0 -9 -2 -20h5q14 -2 29 -2.5t27 -0.5h13q27 -1 46 -21.5t18 -48t-21.5 -46.5t-48.5 -18h-13q-14 1 -30 2q-14 0 -30 1q-33 2 -53 7q-17 4 -29 9
q-24 10 -38 30q-25 36 -13 87q2 8 3 13.5t1.5 7t1 2.5t0.5 2q1 14 1 87q1 83 0 235t-1 202q0 5 -0.5 16t-0.5 16q-1 30 1 53q8 94 75 125q36 16 84 6l14 -3q6 -2 8.5 -3t5.5 -1.5t5 -0.5q13 -1 27.5 -2t32.5 -2t28 -2q27 -2 45.5 -23t16.5 -48.5t-23 -46t-49 -16.5z" />
    <glyph glyph-name="backslash" unicode="\" horiz-adv-x="367" 
d="M118 680q72 -307 206 -557q13 -25 5 -51.5t-32.5 -39.5t-51 -5t-39.5 32q-142 266 -218 591q-7 27 8 50.5t42 30t50.5 -8.5t29.5 -42z" />
    <glyph glyph-name="bracketright" unicode="]" horiz-adv-x="342" 
d="M49 708q74 6 75 6q31 2 51 2h23q21 -2 35 -9q78 -40 74 -133q-1 -21 -7 -53q-5 -27 -5 -31q-8 -90 -10 -237q-1 -194 -3 -246q0 -5 -1.5 -31t-1.5 -40q0 -4 1 -8l1 -10q1 -7 2 -19q5 -50 -16 -84q-39 -64 -127 -75q-16 -1 -36 -1.5t-39.5 0.5t-21.5 1q-28 0 -47.5 19.5
t-19.5 47.5t19.5 47.5t47.5 19.5q9 0 44 -1.5t37 1.5q19 2 26 8v4q-5 48 -5 54q0 14 1.5 41t1.5 32q2 49 3 241q2 152 10 248q1 12 8 45q4 21 4 32v3q-15 0 -40 -2l-74 -6q-27 -2 -48.5 16t-23.5 45.5t16 48.5q18 22 46 24z" />
    <glyph glyph-name="asciicircum" unicode="^" horiz-adv-x="497" 
d="M1 308q36 56 112 212l46 95q11 21 18 33q6 10 11 16q7 8 16 14q25 16 55 9q12 -3 22.5 -10.5t14.5 -12.5l4 -6q6 -7 12 -18q9 -16 21 -43q20 -42 50 -116q48 -116 75 -190q9 -26 -2.5 -51t-37.5 -34.5t-51 2t-35 37.5q-26 71 -73 185l-19 46l-6 -14q-77 -162 -121 -228
q-15 -23 -42.5 -28.5t-50.5 9.5t-28.5 42.5t9.5 50.5z" />
    <glyph glyph-name="underscore" unicode="_" horiz-adv-x="647" 
d="M538 -245q-103 11 -259 14q-257 5 -267 5q-27 1 -46 21.5t-18 48t21.5 46.5t48.5 18q10 0 263 -5q166 -3 271 -14q28 -3 45.5 -24.5t14.5 -49.5t-24.5 -45.5t-49.5 -14.5z" />
    <glyph glyph-name="grave" unicode="`" horiz-adv-x="327" 
d="M201 709l17 -32q9 -16 10 -18t6 -11t7.5 -11.5t14.5 -18.5l24 -36q16 -23 11 -50t-28 -43t-50 -11t-43 28l-26 36q-12 18 -14 20.5t-9 14t-7.5 12.5t-11.5 21l-19 35q-13 25 -5 51.5t32.5 39.5t51 5t39.5 -32z" />
    <glyph glyph-name="a" unicode="a" horiz-adv-x="448" 
d="M147 112q17 -10 53 -5q6 1 9 3l11 5q8 4 19 9q0 16 1 35q-5 1 -8 1q-2 1 -5.5 2t-6 1.5t-4.5 0.5l-8 2q-5 -1 -30 -20q-26 -20 -31 -34zM0 409l10 7l38 28q15 11 45 26t54.5 19.5t59 1.5t68.5 -19q117 -56 109 -212q-1 -17 -4 -51l-5 -44q-4 -42 2 -62q0 -3 5 -10
q21 -30 22 -32q14 -24 7 -51t-31 -41t-51 -7t-41 31l-2 4q-42 -19 -66 -22q-62 -9 -115.5 9.5t-78.5 66.5q-20 37 -13.5 75t28 69t55.5 57q51 39 88 46q27 5 61 -3l5 -1q-1 24 -8.5 36.5t-24.5 19.5q-15 8 -28 9t-29.5 -6t-33 -18t-46.5 -34q-22 -16 -49.5 -12t-44 26
t-12.5 49.5t26 44.5z" />
    <glyph glyph-name="b" unicode="b" horiz-adv-x="540" 
d="M160 87q26 -32 71 -16q28 9 57 33t51 56q43 65 30 111q-14 48 -109 62q-51 7 -56 7q-4 0 -8 -1t-18.5 -3.5t-34.5 -5.5q-2 0 -3 -1q-3 -70 2 -130q2 -31 8 -67q4 -22 8 -37q1 -5 2 -8zM193 692q-6 -47 -26 -146q-10 -53 -14 -78q32 5 44 6q19 1 83 -9q86 -12 142 -52
t75 -104q12 -38 7.5 -79t-18.5 -76t-35 -68q-33 -49 -79 -87t-98 -55q-39 -12 -77.5 -12.5t-77.5 19.5t-68 59q-14 18 -23 51q-5 21 -10 50q-7 41 -10 76q-8 104 4 237q5 54 24 148t23 136q4 27 25.5 44.5t49 14t45 -25t14.5 -49.5z" />
    <glyph glyph-name="c" unicode="c" horiz-adv-x="467" 
d="M343 330q-2 0 -35 14q-10 4 -13 4q-74 7 -116 -30t-34 -93q7 -45 10 -50q20 -37 65.5 -52.5t132.5 -25.5q27 -4 44.5 -25.5t14 -49t-25 -45t-49.5 -14.5q-3 1 -10 2q-29 3 -46 5.5t-49.5 9t-56 16.5t-51 25t-49.5 38t-38 52q-5 10 -9.5 21.5t-7 23t-3.5 19.5t-2.5 18.5
t-1.5 11.5q-9 56 4.5 104t43 81t70 55.5t85.5 31.5q46 9 91 5q24 -2 52 -14q2 -1 12 -5t16 -7q26 -9 38 -34t3 -51t-34 -38t-51 -3z" />
    <glyph glyph-name="d" unicode="d" horiz-adv-x="525" 
d="M356 75v10q0 14 -0.5 28.5t-1.5 26.5t-1 15q-1 29 -1.5 82.5t-1.5 72.5l-20 11q-13 7 -16.5 8.5t-11 5t-11.5 3.5t-9.5 0.5t-12.5 -0.5q-28 -4 -56 -22.5t-46 -46.5q-38 -57 -12 -104q9 -17 29 -31q9 -6 42.5 -20t71.5 -25q33 -10 58 -14zM465 658q-2 -52 5 -136
q11 -135 12 -144q2 -41 3 -115.5t2 -103.5q0 -2 1 -15t1.5 -29t0.5 -29q0 -31 -3 -52q-5 -44 -29 -66q-35 -34 -105 -27q-39 3 -94 20q-105 31 -151 63q-47 32 -71 77q-22 41 -25 86t8.5 83t34.5 73q33 50 85 84.5t111 42.5q46 7 90 -7q-3 34 -4 48q-8 90 -6 151q1 28 21 47
t48 18t47 -21t18 -48z" />
    <glyph glyph-name="e" unicode="e" horiz-adv-x="520" 
d="M351 293q1 -2 3 0h-3zM221 353h-7q-3 0 -4 -1q-5 0 0 -2q5 -1 11 3zM222 353l-22 -17q-18 -13 -28 -25l70 -8q51 -5 79 -8q2 14 2 29q0 17 -3 32q-10 0 -38 -1t-51 -2h-9zM436 12q-15 -4 -45 -15q-42 -17 -59 -22q-86 -29 -148 -13q-16 4 -30 10q-14 7 -24 13t-21.5 16
t-17.5 16t-15 19l-12 16q-3 4 -11.5 18t-9.5 15q0 1 -5 7.5t-10 13.5l-10 18q-6 10 -10.5 21t-7.5 22q-22 87 40 189q26 43 62.5 78t79.5 49l18 3h7q7 1 19 1q24 1 53 2q33 1 54 1h20q5 0 9 -0.5t7 -1.5q12 -1 23 -8q39 -22 55 -77q10 -35 10 -79q0 -43 -10 -78
q-14 -53 -49 -75q-12 -8 -26 -11q-5 0 -11 -1h-6h-8q-12 1 -33 2l-87 9l-85 10l15 -23q25 -40 34 -50t27 -15q23 -6 72 10q14 4 52 19q41 16 58 21q27 7 51 -6.5t31.5 -40.5t-6 -51t-40.5 -32z" />
    <glyph glyph-name="f" unicode="f" horiz-adv-x="327" 
d="M52 -26q-38 205 -19 359h-7q-28 3 -45.5 24.5t-15 49t24 45t48.5 15.5l23 -3q37 116 113 204q19 21 46.5 23t48.5 -16.5t23 -46t-16 -48.5q-49 -56 -78 -129q19 -8 30 -25.5t10 -38.5q-1 -28 -21.5 -46.5t-48.5 -17.5h-1q-18 -134 17 -325q5 -27 -10.5 -50t-43 -28
t-50.5 10.5t-28 43.5z" />
    <glyph glyph-name="g" unicode="g" horiz-adv-x="469" 
d="M299 270q1 3 -2 10t-6.5 13t-10.5 16.5t-13 22.5q-6 9 -8 20q-10 -2 -31 -5q-44 -7 -52 -10q-11 -4 -28 -24q-30 -33 -33 -48q5 -8 24 -20q33 -20 61 -18q27 2 69 26q6 4 18 11q8 4 11 6h1zM61 37q-6 30 6 65q2 7 4 12t2.5 6.5t1.5 3t1 3.5l-7 4q-92 56 -88 139
q3 62 67 133q39 43 79 59q21 8 81 17t85 9q26 1 77 -2q28 -1 46.5 -21.5t17.5 -48.5q-2 -34 -30 -53q12 -19 17 -33q26 -65 -4 -125q-15 -29 -48 -49q-8 -5 -20 -11q-9 -5 -12 -6q-68 -42 -128 -46h-3l-7 -20q5 -2 12 -4q14 -4 44 -9q38 -7 53 -11q88 -21 110 -78
q27 -69 -53 -160l-3 -4l-6 -9q-4 -4 -10 -10.5t-13 -12.5t-15 -11.5t-18 -10.5t-20 -7q-32 -8 -71 3q-5 1 -21 6q-9 3 -13 3q-74 16 -121 41q-64 35 -78 88q-17 64 42 118q18 17 43 32zM280 -82l-4 1q-12 3 -45 9q-36 7 -55 12l-7 2q-30 -13 -49 -26q30 -15 83 -26
q10 -3 25 -7q13 -4 16 -5l2 -1q2 3 19 22q9 10 15 19z" />
    <glyph glyph-name="h" unicode="h" horiz-adv-x="521" 
d="M176 610q-6 -71 -3 -162q54 16 80 25q1 1 2.5 1.5t3.5 2t7 5.5q6 3 13 7q45 26 86 18q40 -9 66 -49q16 -23 27 -59q15 -53 23 -138q11 -132 4 -231q-2 -28 -23 -46t-49 -16t-46 23t-16 49q6 90 -4 209q-6 73 -18 111v2q-19 -11 -32 -15q-2 -1 -117 -36q13 -192 13 -267
q0 -28 -19.5 -47.5t-47.5 -19.5t-47.5 19.5t-19.5 47.5q0 63 -14 282q-12 185 -3 296q3 27 24 45t48.5 15.5t45.5 -23.5t16 -49z" />
    <glyph glyph-name="i" unicode="i" horiz-adv-x="219" 
d="M174 430q3 -53 3 -182q0 -110 7 -171q2 -28 -15.5 -49.5t-45 -24t-49 15t-24.5 44.5q-7 68 -7 185q0 124 -3 174q-2 27 16.5 48t46 23t48.5 -16.5t23 -46.5zM174 593q0 -28 -19.5 -47.5t-47.5 -19.5t-47.5 19.5t-19.5 47.5t19.5 47.5t47.5 19.5t47.5 -19.5t19.5 -47.5z
" />
    <glyph glyph-name="j" unicode="j" horiz-adv-x="220" 
d="M181 412q-11 -107 -4 -302q0 -10 3.5 -51t4.5 -66q4 -103 -18 -148q-13 -27 -43 -49l-16 -10q-5 -4 -8 -6q-20 -19 -48 -17t-46.5 22.5t-16.5 48.5t23 46q8 7 19 15q1 1 6 5l8 5q1 1 3 2q5 20 3 80q-1 25 -4.5 66.5t-3.5 52.5q-7 204 4 320q3 27 24.5 44.5t49 15t45 -24
t15.5 -49.5zM176 583q0 -28 -19.5 -47.5t-47.5 -19.5t-47.5 19.5t-19.5 47.5t19.5 47.5t47.5 19.5t47.5 -19.5t19.5 -47.5z" />
    <glyph glyph-name="k" unicode="k" horiz-adv-x="506" 
d="M66 443q0 -2 1 -4v3v2q0 2 -1 3v-4zM65 448q0 2 1 4l-2 5q0 -2 1 -9zM438 364l-24 -16l-14 -10l-8 -5q-3 -2 -4 -3t-3 -2q-1 -2 -11 -13l-39 -45q-9 -10 -29 -26q8 -20 39 -52q16 -17 55 -51q40 -35 52 -48q20 -20 19 -47.5t-21 -47t-47.5 -18.5t-46.5 21l-44 40
q-41 35 -63 58q-26 27 -43 51q-1 -139 -2 -202q0 -37 -1 -49v-7q0 -3 -1 -6q-1 -7 -3 -12q-4 -13 -13 -22q-13 -14 -31 -20q-26 -8 -51 5q-20 11 -29 32q-2 5 -4 11q-1 4 -1 8q-1 2 -1 5v6q-1 27 -2 179v5v32v31v34v115q-7 48 -8 59q-18 176 -8 312q2 28 23.5 46t49 16
t45.5 -23.5t16 -48.5q-6 -79 -2 -164q13 -16 19 -40q-1 -2 -1 -3v-2v-3v-3v-2q0 2 1 4q-1 2 -1 4v-3v-3v-2v-1v-22v-35v-52q6 6 14 13q5 5 9 8t5.5 4.5t3 2.5t2.5 3l37 42q14 17 22 24q6 6 68 48q23 16 50.5 11t43 -28t10.5 -50.5t-28 -42.5zM203 447l1 15q-1 0 -2 -10
q0 -3 1 -5zM203 447v-9q-1 1 -1 5q0 2 1 4z" />
    <glyph glyph-name="l" unicode="l" horiz-adv-x="231" 
d="M195 636q-18 -124 -25 -188q-7 -78 -5.5 -174.5t19.5 -179.5q5 -27 -10 -50.5t-42 -29t-50.5 9.5t-29.5 42q-20 95 -21.5 204.5t6.5 190.5t26 195q4 28 26.5 44t50 12t43.5 -26.5t12 -49.5z" />
    <glyph glyph-name="m" unicode="m" horiz-adv-x="777" 
d="M16 49q7 30 10.5 62t5 71.5t2 63.5t0 75t-0.5 70q0 28 19.5 47.5t47.5 19.5q19 0 36 -10q24 17 47 27q79 33 162 -11q41 -21 62 -46q9 11 17 18q38 37 99 45q70 9 114 -20q43 -29 66 -97q16 -45 26 -112q10 -71 13 -192q1 -28 -18 -48t-47 -21t-48 18t-21 47
q-4 124 -12 178q-8 53 -19 86q-7 20 -14 29q-9 1 -22 0q-18 -3 -25 -9l-8 -10l-10 -14l-17 -23q-16 -19 -40 -24q0 -24 -1 -50q0 -31 -2.5 -84t-2.5 -66q0 -28 -19.5 -47.5t-47.5 -19.5t-47.5 19.5t-19.5 47.5q0 14 2.5 68.5t2.5 84.5q2 51 0 81q0 15 -2 30q-7 5 -21 13
q-27 14 -48 5q-19 -8 -67 -50q1 -179 -20 -280q-6 -27 -29.5 -42t-50.5 -9.5t-42 29t-10 50.5z" />
    <glyph glyph-name="n" unicode="n" horiz-adv-x="502" 
d="M53 7q-33 129 -35 153q-3 37 2.5 81.5t16 95.5t12.5 64q4 27 26 43.5t50 12.5q14 -2 26 -9q74 44 162 38h11q16 1 22 1q47 -1 76 -27q29 -25 37 -68q3 -14 4 -46q1 -23 -7 -54q-5 -19 -5 -23q-3 -29 -0.5 -59t8 -71t8.5 -73q2 -28 -16 -49t-46 -23t-49 16t-23 46
q-1 18 -7 62q-6 45 -9 86.5t0 76.5q2 14 9 45q3 11 3 14v7v5q-14 -1 -24 0q-40 3 -64 -8t-76 -49q-16 -83 -13 -125q1 -12 31 -129q7 -27 -7 -51t-41 -31t-51 7t-31 41z" />
    <glyph glyph-name="o" unicode="o" horiz-adv-x="542" 
d="M224 323q-12 -3 -18 -6.5t-14 -13.5t-12.5 -35.5t-1.5 -58.5t12.5 -57t18.5 -32l3 -2q3 -1 14 -4q11 -4 24 -7q38 -9 54 -7q39 3 53 19q14 17 16 61q3 73 -12 97q-38 59 -137 46zM298 457q115 -13 175 -108q39 -60 34 -175q-4 -90 -48 -142q-49 -57 -143 -66
q-37 -3 -96 10q-68 16 -99 42q-64 56 -76 179q-11 121 41 188q7 9 15 17q12 35 48 43q22 6 44 9q13 3 33.5 6.5t23.5 4.5q25 5 48 -8z" />
    <glyph glyph-name="p" unicode="p" horiz-adv-x="483" 
d="M331 262l1 -1zM157 342q6 -26 6 -46q0 -7 -4 -34l-8 -48l-8 -47l-3 -16v-2v-1q-1 -4 -1 -8l15 -7l5 -3q3 1 8 1q39 2 52 2q63 2 78 19q15 19 14 91q0 11 2 26v3l-9 4q-33 17 -82 38zM21 -233q-6 38 -7.5 77.5t-0.5 89t1 67.5q-1 40 -6 64q-7 33 -2 95q1 3 2 12l3 17l8 47
l7 47l3 15q0 1 -4 17q-9 36 -4 62q6 30 16 51q19 43 58 58q15 6 31 5q6 0 12 -2q7 -1 16 -4q13 -4 34 -12q38 -14 88 -36l88 -41q20 -10 33 -18l14 -9q15 -11 23 -24q17 -30 14 -72q0 -3 -2 -20q-1 -6 -1 -8q2 -121 -45 -178q-53 -65 -177 -68q-12 0 -50 -2q-17 -1 -25 0
q0 -26 -1 -71.5t0 -75.5q1 -29 6 -63q4 -27 -12 -49.5t-43.5 -26.5t-50 12t-26.5 44z" />
    <glyph glyph-name="q" unicode="q" horiz-adv-x="506" 
d="M263 102h1q1 0 5 1l8 2q20 4 34 4v98q0 22 13 40q1 10 2 29q3 33 3 52q-1 15 -3 25q-20 -7 -31 -8q-10 -2 -32 -5t-29 -4l-21 -4q-13 -3 -21 -5.5t-15 -6.5q-33 -15 -48 -65q-9 -32 -8 -42q3 -39 45 -72t97 -39zM308 -26h-3q-35 -8 -55 -6q-41 5 -84 22t-81.5 45
t-65.5 71.5t-32 94.5q-3 35 14 92q32 108 119 149q14 6 29 11t34 9t30 6t33.5 5t28.5 4q2 1 4 1.5t3.5 1t6.5 2t13 3.5q43 12 77 -2q80 -34 84 -151q0 -27 -3 -67t-3 -42q0 -22 -12 -39v-123q0 -19 -10 -35q20 -36 28 -88q6 -36 7 -87v-23v-23q0 -10 1 -18
q1 -28 -17.5 -48.5t-46 -22t-48 17t-22.5 45.5q0 1 -1 69q-1 43 -5 69q-7 46 -23 57z" />
    <glyph glyph-name="r" unicode="r" horiz-adv-x="489" 
d="M47 4q-14 140 -14 431q0 28 19.5 47.5t47.5 19.5q26 0 45 -17t22 -42q9 8 18 15q75 56 161 34q27 -7 55 -29l15 -13q5 -4 8 -6q23 -16 28.5 -43t-10 -50t-42.5 -28.5t-50 9.5q-9 6 -20 15l-13 11q-4 3 -6 4q-22 6 -46 -12q-18 -13 -64 -68q-13 -16 -33 -22
q2 -140 13 -242q2 -28 -15.5 -49.5t-45 -24t-49 15t-24.5 44.5z" />
    <glyph glyph-name="s" unicode="s" horiz-adv-x="412" 
d="M340 409l14 -18q17 -22 13.5 -49.5t-25.5 -44.5t-49.5 -13.5t-44.5 25.5l-39 50q-25 -6 -40 -17q4 -5 11 -11q3 -3 41 -28q50 -32 78 -55q52 -43 69 -87q29 -73 -25 -134q-20 -24 -62 -32q-21 -5 -51 -7q-47 -3 -79 0q-18 2 -42 7q-1 0 -13 3t-19 4q-27 6 -42.5 29
t-10 50t28.5 42.5t50 10.5q1 0 35 -8q16 -3 25 -4q22 -2 59 0q8 0 14 1q-8 10 -23 22q-21 18 -64 45q-49 32 -61 43q-44 42 -53 88q-10 51 20 95q42 58 136 77q10 2 25 2.5t26 0.5l22 -2h11q28 0 47.5 -19.5t19.5 -47.5q0 -9 -2 -18z" />
    <glyph glyph-name="t" unicode="t" horiz-adv-x="394" 
d="M187 120q7 -4 21 -10l46 -17l55 -20q26 -10 37 -35.5t1.5 -51.5t-35 -37t-51.5 -2q-22 9 -57 21l-47 18q-54 22 -78 54q-26 35 -27 96q-1 25 6 118q0 3 1 9t2 16.5t2 18.5q2 19 3 32q-4 2 -8 3q-20 8 -32 27q-31 47 0 105q6 12 16 24.5t33 24t49 7.5q39 -5 60 -42
q3 -5 6 -11q76 7 101 7q28 0 48 -19t20 -47t-19 -48t-47 -20q-23 0 -92 -6q-2 -25 -5 -52q-1 -8 -2 -17t-1.5 -14t-0.5 -8q-7 -87 -6 -106q0 -12 1 -18zM145 403h-1v-1z" />
    <glyph glyph-name="u" unicode="u" horiz-adv-x="511" 
d="M149 479q0 -5 2 -36.5t3.5 -50t4.5 -50t8 -59.5t11 -54q17 -70 41 -102q17 -22 38 -20q28 3 43 37l-9 41q-16 84 -10 135q4 42 24 69q30 41 82 41q28 0 48 -16t28 -40q6 -21 2 -50q-1 -8 -6 -30q-2 -11 -2 -13q-5 -92 -18 -142q5 -19 13 -46l10 -33l8 -30q3 -11 4 -16
q6 -27 -8.5 -50.5t-41.5 -29.5t-50.5 8.5t-29.5 41.5q-1 4 -3 11q-32 -18 -70 -22q-96 -9 -158 73q-42 55 -65 152q-8 29 -13.5 62t-9 67.5t-5 55t-3.5 53t-2 33.5q-2 28 16.5 49t46 23t48.5 -16.5t23 -45.5z" />
    <glyph glyph-name="v" unicode="v" horiz-adv-x="480" 
d="M132 456q3 -11 20 -68q10 -36 19 -57q6 -14 14 -28t21 -34.5t20 -33.5l2 5q7 23 21 83q14 55 24 74q6 13 17 28t22.5 28.5t12.5 13.5q16 22 43.5 26t49.5 -12.5t26 -44t-13 -49.5q-9 -13 -18 -23l-13 -16q-5 -6 -9 -13q-2 -4 -11 -44q-16 -64 -24 -91q-19 -60 -43 -94
q-10 -14 -22 -25l-1 -22q-1 -28 -21 -47t-48 -18t-47 21t-18 48v14q-20 19 -30 52l-4 11l-1.5 6t-0.5 4v1v1h-1q-3 7 -19 32l-30 51q-15 25 -23 44q-12 29 -24 72q-16 54 -19 63q-8 26 4.5 51t38.5 33.5t51 -4t34 -38.5z" />
    <glyph glyph-name="w" unicode="w" horiz-adv-x="736" 
d="M126 470l72 -166l25 -53l17 61l18 67l7 23q1 5 3 9l2 6q2 5 5 9q3 5 7 10q14 15 33 20q45 12 85 -23q19 -17 38 -47q26 -42 56 -116l23 -58q2 5 3 6q8 18 19 65q6 27 15 77t15 73q6 27 29.5 41.5t50.5 8.5t41.5 -29.5t8.5 -50.5q-5 -23 -14.5 -73.5t-15.5 -76.5
q-14 -59 -27 -89q-12 -28 -43 -72q-19 -27 -37 -43q-8 -8 -17 -14q1 -5 1 -10q0 -28 -19.5 -47.5t-47.5 -19.5t-47.5 19.5t-19.5 47.5q0 24 15 42q-2 4 -4 10l-13 37q-24 66 -40 106l-10 23l-12 -39q-13 -43 -22 -57q-19 -30 -30 -42q-12 -13 -25 -22q3 -10 3 -22
q0 -28 -19.5 -47.5t-47.5 -19.5t-47.5 19.5t-19.5 47.5q0 23 13 40l-6 8q-10 15 -22 39q-20 37 -49 101l-72 167q-12 26 -1.5 51.5t36 37t51 1t36.5 -35.5z" />
    <glyph glyph-name="x" unicode="x" horiz-adv-x="531" 
d="M140 252q-69 75 -133 115q-23 15 -29 42t8.5 50.5t41.5 29.5t51 -8q73 -46 146 -124q17 17 39 36t38 31l40 30l34 26q22 17 49.5 13.5t44.5 -25.5t13.5 -49.5t-25.5 -44.5l-40 -30l-41 -31q-14 -11 -32 -27.5t-32 -31.5l27 -32q21 -26 27.5 -34.5t24.5 -29.5l28 -32
q10 -11 26 -26l28 -29q21 -19 22 -46.5t-18 -48t-46.5 -21.5t-47.5 18q-58 53 -156 173l-5 -6q-62 -85 -87 -116q-17 -22 -44.5 -25t-49.5 14.5t-25 45t15 49.5q23 29 83 111z" />
    <glyph glyph-name="y" unicode="y" horiz-adv-x="480" 
d="M436 371q-25 -46 -58 -123q-46 -111 -57 -135q-14 -30 -54 -103q-33 -60 -46 -92q-13 -33 -17 -46v-4q-1 -19 -12 -35q-3 -5 -9 -13l-34 -43q-16 -22 -43.5 -25.5t-50 13t-26 44t13.5 50.5l29 38l2 6q6 23 23 65t53 107l4 8q-21 10 -32 31q-78 153 -104 293
q-5 27 10.5 50t43 28t50.5 -10.5t28 -43.5q19 -104 71 -214l34 82q36 87 65 138q13 24 39.5 31.5t51 -6t32 -40t-6.5 -51.5z" />
    <glyph glyph-name="z" unicode="z" horiz-adv-x="426" 
d="M59 486q124 -31 195 -28l22 8q25 7 44 5q22 -3 40 -16t26 -36q19 -52 -23 -103q-11 -14 -17 -20t-8 -10q-58 -90 -119 -163q4 0 16 -1t21 -1h24h21q28 0 47 -20t19 -48t-20 -47t-48 -19q-69 1 -70 1q-43 2 -76 7q-32 5 -54 12q-17 5 -30 13q-27 18 -35 45q-17 57 36 100
l12 9q5 4 6.5 4.5t1.5 1.5l2 1q58 64 111 144q-66 4 -176 31q-27 7 -41.5 30.5t-7.5 50.5t30 41q24 15 51 8z" />
    <glyph glyph-name="braceleft" unicode="{" horiz-adv-x="378" 
d="M35 247q13 11 25.5 32t15.5 39q4 11 2 32.5t-3.5 29.5t-7 31t-8.5 39q-6 33 -6.5 64t13.5 70q13 40 41 81q21 31 36 46q28 28 64 30q21 1 52 -10l36 -13q27 -8 40 -32.5t5 -51t-32.5 -39.5t-50.5 -5q-14 4 -32 11l-8 -12q-24 -35 -29 -64t2 -49q2 -6 6 -24l8 -32
q3 -15 5.5 -35.5t2.5 -43t-4 -45.5q-12 -71 -64 -129q19 -26 31 -57q15 -42 7 -108q-2 -14 -7 -44t-7 -45q-4 -36 1 -50q1 -3 8 -6q4 -1 18 2l8 2q4 1 8.5 2t7.5 2q19 4 33 6q27 3 49 -14.5t25 -45t-14.5 -49.5t-45.5 -25q-6 0 -17 -3q-26 -6 -27 -6q-46 -9 -81 1
q-76 21 -99 91q-15 43 -7 109q2 15 7 45t7 44q4 34 0 44q-6 18 -17 29h-4h-5q-25 0 -42 5q-19 7 -34.5 23.5t-19.5 40.5q-5 31 12 55q14 22 41 30q17 5 42 3q3 0 7 -0.5t6 -0.5z" />
    <glyph glyph-name="bar" unicode="|" horiz-adv-x="259" 
d="M224 598q-3 -61 -18 -169q-16 -118 -19 -160q-5 -61 -4 -185q1 -127 -4 -195q-2 -28 -23 -46t-49 -16t-46 23t-16 49q5 60 4 185q-1 129 4 195q4 47 20 168q14 103 17 159q2 27 22.5 45.5t48 17t46 -22t17.5 -48.5z" />
    <glyph glyph-name="braceright" unicode="}" horiz-adv-x="391" 
d="M-32 724q3 1 5 2t7.5 4.5t14.5 7.5q41 21 78 14q125 -24 136 -198q2 -39 -1 -106q-3 -58 -1 -67q4 -44 9 -53v-3q1 -3 1.5 -6.5t2 -7.5t4 -7t5.5 -4t7 1q5 2 10 6q-6 -5 -10 0q-3 4 2 4q5 1 12 1.5t9 0.5q26 2 44 -4q27 -8 41 -31q16 -24 11 -54q-4 -26 -20.5 -42
t-36.5 -22q-17 -5 -42 -5h-4q-4 -10 -8 -27q-4 -15 1 -49q1 -12 5.5 -39.5t5.5 -41.5q16 -140 -73 -199q-74 -48 -133 -23q-20 9 -43 29q-26 22 -28 24q-22 17 -25.5 45t13.5 49.5t45 25t49 -13.5q5 -4 34 -29l2 -2q6 3 12 7q10 7 14 21.5t0 50.5l-6 41q-4 27 -5 39
q-8 58 2 97q9 36 21 60q-22 18 -36 42q-19 34 -26 105q-2 23 1 88q3 62 1 90q-3 61 -21 73q-26 -15 -40 -20q-26 -9 -51.5 2.5t-34.5 37.5t2.5 51.5t37.5 34.5z" />
    <glyph glyph-name="asciitilde" unicode="~" horiz-adv-x="641" 
d="M-50 316q1 3 8 23l14 36q7 16 15 26q29 42 104 67q17 5 34 7t31 2t30 -4t27 -7t26.5 -11t23.5 -13t22 -15t19 -14l18 -15q12 -10 14 -12q46 -36 68.5 -45t51.5 3q1 0 8 7l11 14q10 11 18 19q20 19 48 18t47 -21t18 -48t-21 -47l-9 -9l-13 -15q-25 -28 -51 -40
q-34 -15 -68.5 -18t-59 2.5t-53.5 21t-43 26.5q-10 7 -36 28q-52 42 -74.5 54t-44.5 4q-32 -10 -36 -15q-2 -4 -3.5 -7.5t-6.5 -17.5t-13 -34q-10 -26 -35.5 -37t-51.5 -0.5t-37 36t0 51.5z" />
    <glyph glyph-name="exclamdown" unicode="&#xa1;" horiz-adv-x="241" 
d="M73 -213q-11 78 -8 212q3 145 -1 194q-2 28 15.5 49t45.5 23.5t49 -15t24 -45.5q5 -52 1 -210q-3 -123 6 -190q4 -27 -12.5 -49t-44 -26t-49.5 12.5t-26 44.5zM201 407q0 -28 -19.5 -47.5t-47.5 -19.5t-47.5 19.5t-19.5 47.5t19.5 47.5t47.5 19.5t47.5 -19.5t19.5 -47.5z
" />
    <glyph glyph-name="cent" unicode="&#xa2;" horiz-adv-x="523" 
d="M153 127q32 90 74 198q-32 -16 -57 -51q-35 -49 -36 -98q-1 -34 19 -49zM409 418l10 -9q8 -6 16 -15.5t15 -19t12 -17.5l9 -14l4 -6q16 -23 12 -50t-26.5 -43.5t-49.5 -12.5t-44 26l-14 21l-61 -159q7 3 27.5 10.5t36.5 12.5q27 9 51.5 -3t33.5 -38.5t-3 -51t-38 -33.5
q-9 -3 -34.5 -12.5t-38.5 -13.5t-37 -8.5t-47 -3.5q-25 -76 -44 -146q-8 -27 -32 -40.5t-51 -6t-40.5 31.5t-6.5 51q18 64 40 131q-12 5 -23 12q-45 28 -66 72.5t-20 95.5q2 90 60 172q63 88 153 112q36 9 72 6l31 75q11 26 36.5 37t51 0t36.5 -36.5t0 -50.5z" />
    <glyph glyph-name="sterling" unicode="&#xa3;" horiz-adv-x="622" 
d="M362 223q-55 2 -126 1l-44 -93q22 -1 41 -5q11 -2 33 -9t41 -12q68 -18 98 -17q31 1 92 22q26 9 51.5 -2.5t34.5 -37.5t-2.5 -51.5t-37.5 -34.5q-81 -29 -135 -30q-49 -1 -135 21q-22 6 -47 14q-17 5 -22 6q-12 3 -52 -1q-1 -2 -26 -11q-73 -30 -114 23q-29 38 -11 82
q8 19 27 38q18 18 21 19q12 20 39 78q-27 0 -46.5 20t-19.5 47q0 28 19.5 47.5t47.5 19.5h55l11 31q29 80 53 132q38 80 78 126q62 70 136 68q38 -1 74 -30l10 -8q5 -4 6 -6l4 -2q1 -2 3 -3q24 -15 30.5 -42t-8.5 -50.5t-42 -30t-50 8.5q-13 8 -36 28q-11 -5 -26 -22
q-28 -31 -57 -94q-21 -43 -43 -105q43 0 79 -1q28 -1 47 -21t18 -48t-21 -47t-48 -18z" />
    <glyph glyph-name="currency" unicode="&#xa4;" horiz-adv-x="602" 
d="M293 462q-33 -1 -63.5 -20t-51.5 -51q-26 -42 -24 -74t27 -51q30 -23 65 -27.5t63.5 7.5t48 37.5t21.5 56.5l3 38q-4 7 -20 19l-22 15q-16 11 -27 20q-14 12 -20 30zM409 563l44 45q20 20 47.5 20t47.5 -19.5t20 -47t-19 -47.5l-56 -57l-2 -1q3 -4 5 -8q7 -11 11 -24
t6 -23.5t2 -23.5v-20q0 -7 -1 -16l-1 -9q-4 -57 -29 -103l29 -24q21 -18 23.5 -45.5t-15.5 -48.5t-45.5 -23.5t-48.5 15.5l-39 32q-53 -28 -115 -30t-119 23l-46 -39q-22 -17 -49.5 -14.5t-45 24t-15 49t23.5 45.5l27 22q-24 38 -27.5 84.5t8.5 87.5t35 77l2 3l-43 41
q-20 19 -21 47t18 48t47 21t48 -18l49 -47q95 57 198 27q24 -6 46 -23z" />
    <glyph glyph-name="yen" unicode="&#xa5;" horiz-adv-x="608" 
d="M495 299q-81 6 -153 6q-1 -28 -3 -61q91 1 168 -10q27 -3 44 -25t13.5 -49.5t-25.5 -44.5t-50 -13q-73 9 -160 8q-4 -49 -5 -88q-1 -27 -21 -46.5t-47.5 -18.5t-47 21t-18.5 48q1 37 4 79q-14 0 -55.5 -3t-64.5 -4q-28 -1 -48.5 17.5t-22 46t17 48t45.5 22.5q23 1 69 4
t70 4q2 33 3 59q-72 -5 -151 -15q-28 -4 -50 13t-25.5 44.5t13.5 49.5t44 25q36 5 70 9l-42 83q-56 117 -72 164q-8 27 4.5 51.5t39 33t51 -4t33.5 -38.5q11 -37 65 -148q26 -54 44 -86q9 -17 18 -31l1 -2q5 -5 10 -8q7 2 13 2q8 0 15 -1q6 5 13 12q25 26 56 77q15 25 29 51
q15 27 24 46l21 42q11 23 14 30q12 25 38.5 33.5t51.5 -3.5t33.5 -38.5t-3.5 -51.5q-3 -5 -16 -32l-22 -46l-26 -48q-15 -29 -29 -52l-15 -24q24 -1 47 -3q28 -2 46 -23.5t16 -49t-23.5 -45.5t-48.5 -16z" />
    <glyph glyph-name="brokenbar" unicode="&#xa6;" horiz-adv-x="236" 
d="M195 667q-2 -94 -2 -260q0 -28 -19.5 -47.5t-47.5 -19.5t-47.5 19.5t-19.5 47.5q0 168 2 262q1 28 21 47.5t47.5 18.5t47 -21t18.5 -47zM201 152q-2 -74 -2 -292q0 -28 -19.5 -47.5t-47.5 -19.5t-47.5 19.5t-19.5 47.5q0 220 2 296q1 28 21 47t48 18t47 -21t18 -48z" />
    <glyph glyph-name="section" unicode="&#xa7;" horiz-adv-x="421" 
d="M128 338q-8 -27 8.5 -60t64.5 -85l38 -41l3 4q7 10 8 13q8 36 -9 68.5t-66 87.5l-28 31l-1 -1l-13 -12zM252 551q-1 4 -3 43q-13 14 -26 9q-24 -8 -29 -37q-7 -33 11 -64q18 -30 70 -88l24 -27q7 -8 24 -30t25 -36t19.5 -38t15 -44.5t3.5 -47t-6 -52.5q-6 -28 -27 -58
l-12 -18q-6 -7 -8.5 -11.5t-5.5 -8.5q25 -42 32 -83q13 -75 -20 -134t-90 -87q-24 -12 -53 -17q-29 -6 -59.5 -3t-58 22t-43.5 53q-19 42 5 93l6 15q3 5 4.5 6.5t2 3t1.5 3.5q8 27 32 40t51 5t40 -32t5 -51q-3 -10 -10 -25q7 2 16 6q48 24 39 80q-5 27 -39 70q-11 14 -25 30
l-33 34q-19 20 -28 31q-18 19 -30 33.5t-29.5 38t-27 45.5t-17.5 48.5t-7 55t10 57.5q10 30 38 58l16 14l8 8q4 6 10 10q-23 60 -11 121q10 48 41 85t75 53q47 17 97 2t85 -62q20 -27 22 -67q1 -8 1 -13v-7q0 -2 0.5 -4t0.5 -4q5 -28 -11 -50.5t-43.5 -27.5t-50 11t-27.5 43
z" />
    <glyph glyph-name="dieresis" unicode="&#xa8;" horiz-adv-x="384" 
d="M349 625q0 -28 -19.5 -47.5t-47.5 -19.5t-47.5 19.5t-19.5 47.5t19.5 47.5t47.5 19.5t47.5 -19.5t19.5 -47.5zM135 630q0 -28 -19.5 -47.5t-47.5 -19.5t-47.5 19.5t-19.5 47.5t19.5 47.5t47.5 19.5t47.5 -19.5t19.5 -47.5z" />
    <glyph glyph-name="copyright" unicode="&#xa9;" horiz-adv-x="790" 
d="M621 237q6 105 -26 184t-112 135q-86 57 -172.5 45t-163.5 -89q-30 -30 -42.5 -48.5t-19.5 -46.5q-18 -81 -6.5 -151.5t48 -122.5t96 -77.5t140.5 -16.5q125 14 186 73q11 10 17.5 17.5t13.5 18.5l10 17q3 5 12 24.5t14 29.5q2 4 5 8zM695 90q-20 -33 -52 -64
q-95 -91 -266 -111q-115 -13 -208 27q-93 41 -152 124q-55 77 -71 178t9 205q12 51 35 85t63 74q70 69 152.5 103t175.5 24t178 -69q56 -39 95.5 -87t61.5 -98t31.5 -108t8.5 -112.5t-11 -115.5q-3 -20 -16.5 -35t-33.5 -20zM428 358q-2 2 -33 30q-9 9 -13 11q-47 21 -83 -6
q-38 -29 -47 -84q-8 -50 16 -75q31 -31 113 -13q11 2 18 4t15.5 8.5t11.5 10.5l18 17l23 23q20 19 47.5 19t47 -20t19.5 -47.5t-20 -47.5l-19 -20q-17 -17 -26 -24.5t-26.5 -20.5t-37 -20.5t-43.5 -13.5q-154 -32 -236 51q-37 38 -49 88q-13 50 -4 103q8 50 34 94
q25 45 65 75q45 34 99.5 40.5t117.5 -19.5q25 -11 51 -35l11 -10q8 -9 14 -14q22 -18 24 -46q3 -27 -14.5 -48.5t-45 -24t-48.5 14.5z" />
    <glyph glyph-name="guillemotleft" unicode="&#xab;" horiz-adv-x="444" 
d="M310 192l71 -67q20 -19 21 -46.5t-18.5 -47.5t-47 -21t-47.5 19q-87 82 -88 83q-49 51 -42 99q3 19 17 38t21 25t21 16q69 53 81 63q21 18 48.5 15.5t45.5 -23.5t15.5 -48.5t-23.5 -45.5q-27 -23 -75 -59zM248 369q-1 -1 -42 -37l-68 -60q-34 -33 -53 -55
q-6 -7 -10 -12.5t-6 -8.5l-2 -2q-1 -10 6 -23q10 -18 38 -46q49 -48 62 -64q17 -22 13.5 -49.5t-25 -45t-49 -14t-45.5 24.5q-7 10 -50 52.5t-62 79.5q-33 62 -17 122q9 32 45 74q24 27 63 64l68 61q43 38 44 39q21 18 48.5 17t46 -22t17.5 -48.5t-22 -46.5z" />
    <glyph glyph-name="logicalnot" unicode="&#xac;" horiz-adv-x="561" 
d="M103 427q8 0 32.5 0.5t64.5 1.5t70 2q68 1 107 0q25 -1 41 -2q11 -1 19 -3q18 -4 31 -14q53 -38 58 -119q1 -20 -1 -48q0 -3 -1 -15t-1 -18q-1 -27 -21.5 -46t-48 -18t-46.5 21.5t-18 48.5q0 4 0.5 10t1 14t1.5 12q1 20 0 32q0 6 -1 10q-6 1 -18 1q-36 1 -100 0
q-30 -1 -72 -2t-68 -1.5t-34 -0.5q-28 1 -47 21t-18 48t21 47t48 18z" />
    <glyph glyph-name="registered" unicode="&#xae;" horiz-adv-x="790" 
d="M695 90q-20 -33 -52 -64q-95 -91 -266 -111q-115 -13 -208 27q-93 41 -152 124q-55 77 -71 178t9 205q12 51 35 85t63 74q70 69 152.5 103t175.5 24t178 -69q56 -39 95.5 -87t61.5 -98t31.5 -108t8.5 -112.5t-11 -115.5q-3 -20 -16.5 -35t-33.5 -20zM293 425l8 -69
q72 10 91 24q23 16 24 28q-4 10 -29 18q-29 9 -94 -1zM238 552q4 1 28.5 5t37.5 5.5t36.5 2.5t45 -2t41.5 -9q48 -15 81.5 -47.5t40.5 -78.5q12 -82 -63 -145q16 -46 38 -117q8 -27 -5 -51.5t-39.5 -32.5t-51 5t-32.5 39l-33 104q-18 -4 -42 -7l7 -44q5 -28 -11.5 -50.5
t-44 -27t-50 12t-26.5 43.5q-30 187 -45 324q-2 27 14 48q-9 -8 -18 -17q-30 -30 -42.5 -48.5t-19.5 -46.5q-18 -81 -6.5 -151.5t48 -122.5t96 -77.5t140.5 -16.5q125 14 186 73q11 10 17.5 17.5t13.5 18.5l10 17q3 5 12 24.5t14 29.5q2 4 5 8q6 105 -26 184t-112 135
q-74 50 -149 47t-145 -55q10 5 22 7q14 1 26 -3h1z" />
    <glyph glyph-name="macron" unicode="&#xaf;" horiz-adv-x="645" 
d="M540 677q-53 2 -253 -3q-41 -1 -87 -1q-56 0 -100.5 -1t-85.5 -6q-28 -2 -49.5 15.5t-24 45t15 49t44.5 24.5q42 4 88.5 5.5t106.5 1.5t88 1q210 5 263 3q27 -1 46 -21.5t18 -48t-21.5 -46.5t-48.5 -18z" />
    <glyph glyph-name="degree" unicode="&#xb0;" horiz-adv-x="427" 
d="M254 595l-8 12l-8 10q-16 10 -29 7q-27 -5 -38.5 -32t2.5 -46q14 -21 37 -19t36 27q3 7 6 24q1 5 2 17zM389 591q-1 -6 -2.5 -17t-2.5 -16q-5 -37 -18 -62q-20 -43 -59 -70t-82 -32.5t-87.5 13.5t-74.5 63q-29 41 -31.5 89t16 87.5t54.5 70t81 39.5q64 12 125 -25
q26 -16 48 -48l12 -18l2 -2q22 -21 22 -51v-1q0 -10 -3 -20z" />
    <glyph glyph-name="plusminus" unicode="&#xb1;" horiz-adv-x="644" 
d="M482 329q-72 3 -153 -4q2 -63 3 -130q0 -28 -19 -48t-47 -20t-48 19t-20 47q-1 62 -3 119q-65 -7 -102 -10q-28 -2 -49 16t-23.5 45.5t15.5 48.5t45 24q32 2 109 11q-2 35 -9 127q-2 27 16 48.5t45.5 23.5t49 -16t23.5 -46q5 -60 8 -125q91 7 165 4q28 -1 46.5 -21.5
t17.5 -48.5t-21.5 -46.5t-48.5 -17.5zM533 -50q-96 13 -215 14.5t-220 -4.5q-28 -1 -48.5 18t-21.5 46.5t18 48t46 21.5q100 6 228 4q127 -1 231 -16q28 -4 44.5 -26t12.5 -49.5t-26 -44t-49 -12.5z" />
    <glyph glyph-name="uni00B2" unicode="&#xb2;" horiz-adv-x="342" 
d="M-3 588q1 2 2 6l4 11q7 22 20 34q29 29 69.5 36.5t76 -4t60.5 -44.5t25 -78q0 -86 -125 -167l-31 -20q44 -1 80 0q16 0 45.5 1.5t42.5 1.5q17 0 29 -11t12 -28t-11 -29t-28 -12q-13 0 -43 -1.5t-45 -1.5q-100 -2 -130 4q-3 0 -11 1q-13 1 -20 3q-41 8 -50 42q-9 28 17 53
q10 8 29 20q7 5 31.5 19.5t39.5 24.5q88 57 88 100q0 21 -16 36t-37 15t-41 -17q0 -1 -1 -3q-1 -1 -1.5 -3t-1 -3.5t-0.5 -3.5q-3 -8 -5 -14q-7 -15 -22.5 -21t-30.5 0.5t-21 22t0 30.5z" />
    <glyph glyph-name="uni00B3" unicode="&#xb3;" horiz-adv-x="347" 
d="M31 658q55 33 106 35q80 3 114 -67q21 -44 7 -80q-4 -11 -11 -20q37 -18 54 -46q24 -43 -1 -96q-15 -30 -56 -49q-31 -14 -73 -22q-90 -16 -139 5q-16 7 -31 23l-8 9q-3 4 -5 5q-12 12 -13 28.5t10.5 28.5t28 13t28.5 -10l11 -11l7 -8l4 -4q10 -5 34.5 -5t58.5 5
q32 6 53 16q7 3 11.5 6t5.5 4l1 2q7 13 3 19q-4 9 -23 17q-16 7 -44 14q-2 0 -9 2t-10 2q-5 2 -9 3q-5 2 -9 5q-14 9 -18 25q-5 23 12 39q5 4 11 7q4 2 9 3q2 1 6 2t6 2q15 4 23 8l8 6q2 2 -5 16q-11 24 -39 23q-31 -1 -69 -23q-14 -9 -30 -5t-24.5 18.5t-4.5 30.5t19 24z
" />
    <glyph glyph-name="acute" unicode="&#xb4;" horiz-adv-x="292" 
d="M244 633q-31 -27 -50 -55.5t-41 -75.5q-7 -15 -22.5 -20.5t-30.5 1.5t-20.5 22.5t1.5 30.5q24 53 47 88q24 35 62 69q13 11 29.5 10t27.5 -13.5t10 -29t-13 -27.5z" />
    <glyph glyph-name="uni00B5" unicode="&#xb5;" horiz-adv-x="526" 
d="M201 395q-1 -7 -4.5 -47t-4.5 -61t-1 -55q0 -32 4 -59q7 -48 22 -65q11 -11 40 -4q20 4 38 37q17 30 32 88q11 45 15 101q1 5 1.5 13t1 13t0.5 8q1 13 5 23q8 24 30 37q17 12 34.5 10t27.5 -7t18 -11q40 -36 29 -99q-1 -11 -3 -18t-2.5 -9t-1 -4.5t-0.5 -5.5
q-5 -153 2 -227q2 -28 -16 -49t-45 -24q-40 -3 -62 30q-34 -29 -76 -38q-51 -10 -93 1q3 -48 7 -98q2 -28 -16 -49t-45.5 -23.5t-48.5 15.5t-24 45q-27 321 2 581q4 27 25.5 44.5t49 14t45 -25t14.5 -49.5l-2 -12q3 -10 2 -21z" />
    <glyph glyph-name="Agrave" unicode="&#xc0;" 
d="M261 310q7 -1 32 -5t31 -4.5t30 -3t29 -1.5t29 0h1q-48 107 -80 189l-28 -67zM0 74q13 48 32.5 90t47.5 90t38 67q13 25 63 147l32 78l1 6q1 2 2 10q2 6 5 19q13 54 53 77q52 28 101 3q32 -16 53 -54q8 -13 15 -31l11 -30l4 -12q34 -90 89 -209l11 3q27 7 51 -7t31 -41
q6 -23 -4.5 -45t-31.5 -32l53 -114q11 -25 1.5 -51t-34.5 -37.5t-51 -2t-38 34.5l-63 136q-30 -6 -54 -7q-32 -2 -72.5 2t-88.5 10l-62 9q-20 -33 -27.5 -47t-18.5 -40.5t-19 -55.5q-7 -27 -31 -41t-51 -7t-41 31t-7 51zM304 837q12 -9 23.5 -19t13.5 -11.5t9 -8.5l7 -7
q1 -1 11.5 -13t19.5 -21q12 -14 11 -32.5t-15 -31t-32.5 -11.5t-31.5 15q-8 10 -16.5 19.5t-9.5 11t-6.5 6.5t-7 6t-12.5 10l-22 19q-14 12 -15.5 30.5t10.5 32.5t30.5 15.5t32.5 -10.5z" />
    <glyph glyph-name="Aacute" unicode="&#xc1;" 
d="M261 310q7 -1 32 -5t31 -4.5t30 -3t29 -1.5t29 0h1q-48 107 -80 189l-28 -67zM0 74q13 48 32.5 90t47.5 90t38 67q13 25 63 147l32 78l1 6q1 2 2 10q2 6 5 19q13 54 53 77q52 28 101 3q32 -16 53 -54q8 -13 15 -31l11 -30l4 -12q34 -90 89 -209l11 3q27 7 51 -7t31 -41
q6 -23 -4.5 -45t-31.5 -32l53 -114q11 -25 1.5 -51t-34.5 -37.5t-51 -2t-38 34.5l-63 136q-30 -6 -54 -7q-32 -2 -72.5 2t-88.5 10l-62 9q-20 -33 -27.5 -47t-18.5 -40.5t-19 -55.5q-7 -27 -31 -41t-51 -7t-41 31t-7 51zM411 789l-63 -75q-12 -14 -30.5 -15.5t-32.5 10.5
t-15.5 30.5t10.5 32.5l61 73q12 15 30.5 17t33 -10t16.5 -30q2 -19 -10 -33z" />
    <glyph glyph-name="Acircumflex" unicode="&#xc2;" 
d="M261 310q7 -1 32 -5t31 -4.5t30 -3t29 -1.5t29 0h1q-48 107 -80 189l-28 -67zM0 74q13 48 32.5 90t47.5 90t38 67q13 25 63 147l32 78l1 6q1 2 2 10q2 6 5 19q13 54 53 77q52 28 101 3q32 -16 53 -54q8 -13 15 -31l11 -30l4 -12q34 -90 89 -209l11 3q27 7 51 -7t31 -41
q6 -23 -4.5 -45t-31.5 -32l53 -114q11 -25 1.5 -51t-34.5 -37.5t-51 -2t-38 34.5l-63 136q-30 -6 -54 -7q-32 -2 -72.5 2t-88.5 10l-62 9q-20 -33 -27.5 -47t-18.5 -40.5t-19 -55.5q-7 -27 -31 -41t-51 -7t-41 31t-7 51zM177 745q24 48 46 74q30 36 66 43q40 7 78 -22
q29 -21 60 -68q11 -15 7.5 -33.5t-19 -29t-34 -7t-28.5 19.5q-23 34 -40 46q-5 4 -8 5q-6 -4 -13 -12q-15 -18 -35 -56q-8 -17 -26 -23t-34.5 2.5t-22.5 26.5t3 34z" />
    <glyph glyph-name="Atilde" unicode="&#xc3;" 
d="M261 310q7 -1 32 -5t31 -4.5t30 -3t29 -1.5t29 0h1q-48 107 -80 189l-28 -67zM0 74q13 48 32.5 90t47.5 90t38 67q13 25 63 147l32 78l1 6q1 2 2 10q2 6 5 19q13 54 53 77q52 28 101 3q32 -16 53 -54q8 -13 15 -31l11 -30l4 -12q34 -90 89 -209l11 3q27 7 51 -7t31 -41
q6 -23 -4.5 -45t-31.5 -32l53 -114q11 -25 1.5 -51t-34.5 -37.5t-51 -2t-38 34.5l-63 136q-30 -6 -54 -7q-32 -2 -72.5 2t-88.5 10l-62 9q-20 -33 -27.5 -47t-18.5 -40.5t-19 -55.5q-7 -27 -31 -41t-51 -7t-41 31t-7 51zM145 775q37 68 86 83q45 14 92 -17q14 -9 55 -45
l12 -10q5 -4 7 -5l2 -1q3 0 8 6q5 5 9 10l8 12l11 15q12 15 30 17.5t33 -9t17.5 -29.5t-8.5 -33q-1 -1 -7 -10t-13.5 -19t-14.5 -16q-38 -40 -86 -34q-29 4 -68 38q-35 32 -44 38q-12 8 -17 6q-13 -4 -32 -39q-9 -17 -27 -22t-34.5 3.5t-21.5 26.5t3 34z" />
    <glyph glyph-name="Adieresis" unicode="&#xc4;" 
d="M261 310q7 -1 32 -5t31 -4.5t30 -3t29 -1.5t29 0h1q-48 107 -80 189l-28 -67zM0 74q13 48 32.5 90t47.5 90t38 67q13 25 63 147l32 78l1 6q1 2 2 10q2 6 5 19q13 54 53 77q52 28 101 3q32 -16 53 -54q8 -13 15 -31l11 -30l4 -12q34 -90 89 -209l11 3q27 7 51 -7t31 -41
q6 -23 -4.5 -45t-31.5 -32l53 -114q11 -25 1.5 -51t-34.5 -37.5t-51 -2t-38 34.5l-63 136q-30 -6 -54 -7q-32 -2 -72.5 2t-88.5 10l-62 9q-20 -33 -27.5 -47t-18.5 -40.5t-19 -55.5q-7 -27 -31 -41t-51 -7t-41 31t-7 51zM288 760q0 -19 -13 -32t-32 -13t-32 13t-13 32t13 32
t32 13t32 -13t13 -32zM501 758q0 -19 -13 -32t-32 -13t-32 13t-13 32t13 32t32 13t32 -13t13 -32z" />
    <glyph glyph-name="Aring" unicode="&#xc5;" 
d="M261 310q7 -1 32 -5t31 -4.5t30 -3t29 -1.5t29 0h1q-48 107 -80 189l-28 -67zM339 833q-7 -17 -12 -25q-2 -4 -5 -7q15 -6 31 2q13 7 11 17q-8 6 -15 9zM247 848l4 8q1 2 1.5 3.5t2.5 6t5 10.5q14 29 37 41q37 17 89 -6q51 -22 63 -60q13 -42 -4 -76.5t-50 -51.5
q-27 -16 -65.5 -14.5t-67.5 23.5q-18 15 -27 41q-1 5 -2 8.5t-1.5 5t-0.5 2.5t-1 2q-7 16 -2 32t19 25zM0 74q13 48 32.5 90t47.5 90t38 67q13 25 63 147l32 78l1 6q1 2 2 10q2 6 5 19q13 54 53 77q52 28 101 3q32 -16 53 -54q8 -13 15 -31l11 -30l4 -12q34 -90 89 -209
l11 3q27 7 51 -7t31 -41q6 -23 -4.5 -45t-31.5 -32l53 -114q11 -25 1.5 -51t-34.5 -37.5t-51 -2t-38 34.5l-63 136q-30 -6 -54 -7q-32 -2 -72.5 2t-88.5 10l-62 9q-20 -33 -27.5 -47t-18.5 -40.5t-19 -55.5q-7 -27 -31 -41t-51 -7t-41 31t-7 51z" />
    <glyph glyph-name="AE" unicode="&#xc6;" horiz-adv-x="956" 
d="M370 403h71l4 75q0 3 1 11zM814 10q-52 0 -138 -6q-111 -9 -144 -10q-36 -1 -57 27q-21 7 -34 25t-12 41q3 118 6 182q-131 -1 -164 -1q-6 0 -11 1q-115 -148 -171 -275q-11 -25 -36.5 -35.5t-51 1t-36 37t1.5 51.5q29 68 69 134.5t94 136.5l90 113l100 117l24 28l62 70
l20 22q3 25 22 42t45 17q195 0 369 -22q28 -3 45 -25t13.5 -49.5t-25.5 -44.5t-49 -13q-125 15 -262 19q1 -15 1 -33q0 -25 -3 -57q-1 -8 -2 -19t-1 -14l-4 -67q145 -1 255 -12q27 -3 44.5 -24.5t15 -49t-24 -45t-49.5 -15.5q-106 11 -247 12l-5 -139q13 1 103 7q90 7 147 7
q28 0 47.5 -19.5t19.5 -47.5t-19.5 -47.5t-47.5 -19.5z" />
    <glyph glyph-name="Ccedilla" unicode="&#xc7;" horiz-adv-x="745" 
d="M312 -184q7 -3 24 -11l23 -9q20 -7 29.5 -2t25.5 25q6 6 8 11q-7 5 -29 10q-46 13 -56 17q-40 17 -40 51q0 12 6 27l5 9q1 4 2 6q2 5 5 9l-28 13q-50 25 -104 66q-53 41 -84 85q-61 89 -51 239q6 83 40.5 149t89.5 107t124 62q68 20 145 17q66 -2 117 -21q53 -20 113 -55
q24 -14 31 -41t-7 -51t-41 -31t-51 7q-50 30 -86.5 43t-79.5 15q-112 4 -183 -52t-78 -157q-7 -105 27 -155q18 -26 59 -57q40 -31 79 -50q61 -30 91 -24q17 3 44 18q60 33 66 36q26 11 52 1.5t37 -35t1.5 -51.5t-34.5 -37q-4 -2 -57 -31q-46 -25 -83 -33q-49 -9 -109 9
q0 -5 -1.5 -9.5t-4.5 -10.5q0 -1 -1 -2.5t-1.5 -3t-0.5 -2.5q-3 -6 -3 -9t12 -9q7 -3 50 -14q40 -11 53 -26q13 -16 10 -36q-3 -16 -18 -34q-22 -26 -39 -35q-27 -16 -67 -2q-11 4 -27 11q-16 8 -21 9q-9 4 -13 12.5t-0.5 17.5t12 13t17.5 1z" />
    <glyph glyph-name="Egrave" unicode="&#xc8;" horiz-adv-x="559" 
d="M472 12q-2 -1 -17 -5t-30.5 -7.5t-27.5 -5.5q-12 -1 -61 1q-39 1 -95 4q-31 2 -92 5q-19 1 -30 2q-6 1 -10 1h-5q-3 1 -5 1q-4 1 -7 2q-13 3 -25 14q-16 14 -22 37q-3 9 -4 21q-3 17 -3 42q-1 37 2 102q2 54 6 97l-5 19q-1 4 -1 8v6q0 1 1 3v3q0 2 1 5l3 17l8 50l9 49
l2 9l-3 6q-1 2 -7 16q-7 14 -10 21q-35 81 0 134q24 37 74 45q14 2 46 2q24 0 55 -10q20 -6 23 -7q19 -3 130 -7q28 -1 47 -21t18 -48t-21 -47t-48 -18q-117 4 -148 9q-13 2 -43 12q-4 1 -7 2l13 -28q14 -29 16 -50v-15q-1 -1 -1 -3q0 -3 -1 -7l-3 -17l-8 -47q56 2 67 2
q68 1 104 -2q29 -2 47 -8q17 -6 30 -16q28 -23 28 -58q0 -29 -18 -50t-45 -25q-20 -4 -46 3q-5 1 -14.5 3.5t-10.5 2.5q-4 1 -6 2h-1q-7 0 -63 -3q-48 -2 -82 3l-2 -48q-3 -51 -2 -83q35 -2 76 -4q69 -3 93 -4l40 -1q8 1 15.5 2.5t20 5t25.5 6.5q27 7 50.5 -8t30 -42
t-8.5 -50.5t-42 -29.5z" />
    <glyph glyph-name="Eacute" unicode="&#xc9;" horiz-adv-x="559" 
d="M472 12q-2 -1 -17 -5t-30.5 -7.5t-27.5 -5.5q-12 -1 -61 1q-39 1 -95 4q-31 2 -92 5q-19 1 -30 2q-6 1 -10 1h-5q-3 1 -5 1q-4 1 -7 2q-13 3 -25 14q-16 14 -22 37q-3 9 -4 21q-3 17 -3 42q-1 37 2 102q2 54 6 97l-5 19q-1 4 -1 8v6q0 1 1 3v3q0 2 1 5l3 17l8 50l9 49
l2 9l-3 6q-1 2 -7 16q-7 14 -10 21q-35 81 0 134q24 37 74 45q14 2 46 2q24 0 55 -10q20 -6 23 -7q19 -3 130 -7q28 -1 47 -21t18 -48t-21 -47t-48 -18q-117 4 -148 9q-13 2 -43 12q-4 1 -7 2l13 -28q14 -29 16 -50v-15q-1 -1 -1 -3q0 -3 -1 -7l-3 -17l-8 -47q56 2 67 2
q68 1 104 -2q29 -2 47 -8q17 -6 30 -16q28 -23 28 -58q0 -29 -18 -50t-45 -25q-20 -4 -46 3q-5 1 -14.5 3.5t-10.5 2.5q-4 1 -6 2h-1q-7 0 -63 -3q-48 -2 -82 3l-2 -48q-3 -51 -2 -83q35 -2 76 -4q69 -3 93 -4l40 -1q8 1 15.5 2.5t20 5t25.5 6.5q27 7 50.5 -8t30 -42
t-8.5 -50.5t-42 -29.5z" />
    <glyph glyph-name="Ecircumflex" unicode="&#xca;" horiz-adv-x="559" 
d="M472 12q-2 -1 -17 -5t-30.5 -7.5t-27.5 -5.5q-12 -1 -61 1q-39 1 -95 4q-31 2 -92 5q-19 1 -30 2q-6 1 -10 1h-5q-3 1 -5 1q-4 1 -7 2q-13 3 -25 14q-16 14 -22 37q-3 9 -4 21q-3 17 -3 42q-1 37 2 102q2 54 6 97l-5 19q-1 4 -1 8v6q0 1 1 3v3q0 2 1 5l3 17l8 50l9 49
l2 9l-3 6q-1 2 -7 16q-7 14 -10 21q-35 81 0 134q24 37 74 45q14 2 46 2q24 0 55 -10q20 -6 23 -7q19 -3 130 -7q28 -1 47 -21t18 -48t-21 -47t-48 -18q-117 4 -148 9q-13 2 -43 12q-4 1 -7 2l13 -28q14 -29 16 -50v-15q-1 -1 -1 -3q0 -3 -1 -7l-3 -17l-8 -47q56 2 67 2
q68 1 104 -2q29 -2 47 -8q17 -6 30 -16q28 -23 28 -58q0 -29 -18 -50t-45 -25q-20 -4 -46 3q-5 1 -14.5 3.5t-10.5 2.5q-4 1 -6 2h-1q-7 0 -63 -3q-48 -2 -82 3l-2 -48q-3 -51 -2 -83q35 -2 76 -4q69 -3 93 -4l40 -1q8 1 15.5 2.5t20 5t25.5 6.5q27 7 50.5 -8t30 -42
t-8.5 -50.5t-42 -29.5z" />
    <glyph glyph-name="Edieresis" unicode="&#xcb;" horiz-adv-x="559" 
d="M472 12q-2 -1 -17 -5t-30.5 -7.5t-27.5 -5.5q-12 -1 -61 1q-39 1 -95 4q-31 2 -92 5q-19 1 -30 2q-6 1 -10 1h-5q-3 1 -5 1q-4 1 -7 2q-13 3 -25 14q-16 14 -22 37q-3 9 -4 21q-3 17 -3 42q-1 37 2 102q2 54 6 97l-5 19q-1 4 -1 8v6q0 1 1 3v3q0 2 1 5l3 17l8 50l9 49
l2 9l-3 6q-1 2 -7 16q-7 14 -10 21q-35 81 0 134q24 37 74 45q14 2 46 2q24 0 55 -10q20 -6 23 -7q19 -3 130 -7q28 -1 47 -21t18 -48t-21 -47t-48 -18q-117 4 -148 9q-13 2 -43 12q-4 1 -7 2l13 -28q14 -29 16 -50v-15q-1 -1 -1 -3q0 -3 -1 -7l-3 -17l-8 -47q56 2 67 2
q68 1 104 -2q29 -2 47 -8q17 -6 30 -16q28 -23 28 -58q0 -29 -18 -50t-45 -25q-20 -4 -46 3q-5 1 -14.5 3.5t-10.5 2.5q-4 1 -6 2h-1q-7 0 -63 -3q-48 -2 -82 3l-2 -48q-3 -51 -2 -83q35 -2 76 -4q69 -3 93 -4l40 -1q8 1 15.5 2.5t20 5t25.5 6.5q27 7 50.5 -8t30 -42
t-8.5 -50.5t-42 -29.5z" />
    <glyph glyph-name="multiply" unicode="&#xd7;" horiz-adv-x="553" 
d="M179 333l-114 117q-19 21 -18 48.5t21.5 46.5t47.5 18q28 -1 47 -21l111 -115l132 125q20 18 48 17t46.5 -21.5t17.5 -48.5t-22 -47l-124 -116q51 -47 105 -90q22 -17 25 -44.5t-14.5 -49.5t-45 -25t-49.5 15l-116 99l-132 -138q-19 -20 -47 -21t-48 18t-21 47t18 48z
" />
    <glyph glyph-name="Oslash" unicode="&#xd8;" horiz-adv-x="822" 
d="M112 167l379 383l-8 6q-86 57 -172.5 45t-163.5 -89q-30 -30 -42.5 -48.5t-19.5 -46.5q-16 -72 -9 -135.5t36 -114.5zM207 73q67 -34 156 -24q125 14 186 73q11 10 17.5 17.5t13.5 18.5l10 17q3 5 12 24.5t14 29.5q2 4 5 8q7 128 -40 213zM586 646l85 86q19 20 47 21
t48 -18t21 -47t-18 -48l-91 -92q105 -154 67 -403q-3 -20 -16.5 -35t-33.5 -20q-20 -33 -52 -64q-95 -91 -266 -111q-153 -17 -267 60l-17 -18q-20 -19 -48 -19t-47 20t-19 48t20 47l16 16q-54 77 -69 177q-16 100 9 203q12 52 35 85q23 34 63 74q70 69 152.5 103t175.5 24
t178 -69z" />
    <glyph glyph-name="agrave" unicode="&#xe0;" horiz-adv-x="448" 
d="M147 112q17 -10 53 -5q6 1 9 3l11 5q8 4 19 9q0 16 1 35q-5 1 -8 1q-2 1 -5.5 2t-6 1.5t-4.5 0.5l-8 2q-5 -1 -30 -20q-26 -20 -31 -34zM0 409l10 7l38 28q15 11 45 26t54.5 19.5t59 1.5t68.5 -19q117 -56 109 -212q-1 -17 -4 -51l-5 -44q-4 -42 2 -62q0 -3 5 -10
q21 -30 22 -32q14 -24 7 -51t-31 -41t-51 -7t-41 31l-2 4q-42 -19 -66 -22q-62 -9 -115.5 9.5t-78.5 66.5q-20 37 -13.5 75t28 69t55.5 57q51 39 88 46q27 5 61 -3l5 -1q-1 24 -8.5 36.5t-24.5 19.5q-15 8 -28 9t-29.5 -6t-33 -18t-46.5 -34q-22 -16 -49.5 -12t-44 26
t-12.5 49.5t26 44.5zM199 521q-27 27 -68 62l-75 62q-14 12 -15.5 30.5t10.5 32.5t30.5 15.5t32.5 -10.5l75 -61q44 -38 74 -69q13 -13 13 -31.5t-13.5 -31.5t-32 -13t-31.5 14z" />
    <glyph glyph-name="aacute" unicode="&#xe1;" horiz-adv-x="448" 
d="M147 112q17 -10 53 -5q6 1 9 3l11 5q8 4 19 9q0 16 1 35q-5 1 -8 1q-2 1 -5.5 2t-6 1.5t-4.5 0.5l-8 2q-5 -1 -30 -20q-26 -20 -31 -34zM0 409l10 7l38 28q15 11 45 26t54.5 19.5t59 1.5t68.5 -19q117 -56 109 -212q-1 -17 -4 -51l-5 -44q-4 -42 2 -62q0 -3 5 -10
q21 -30 22 -32q14 -24 7 -51t-31 -41t-51 -7t-41 31l-2 4q-42 -19 -66 -22q-62 -9 -115.5 9.5t-78.5 66.5q-20 37 -13.5 75t28 69t55.5 57q51 39 88 46q27 5 61 -3l5 -1q-1 24 -8.5 36.5t-24.5 19.5q-15 8 -28 9t-29.5 -6t-33 -18t-46.5 -34q-22 -16 -49.5 -12t-44 26
t-12.5 49.5t26 44.5zM122 586q39 49 121 131q13 13 32 13t32 -13t13 -32t-13 -32q-83 -83 -115 -123q-12 -15 -30.5 -17t-33 10t-16.5 30.5t10 32.5z" />
    <glyph glyph-name="acircumflex" unicode="&#xe2;" horiz-adv-x="448" 
d="M147 112q17 -10 53 -5q6 1 9 3l11 5q8 4 19 9q0 16 1 35q-5 1 -8 1q-2 1 -5.5 2t-6 1.5t-4.5 0.5l-8 2q-5 -1 -30 -20q-26 -20 -31 -34zM0 409l10 7l38 28q15 11 45 26t54.5 19.5t59 1.5t68.5 -19q117 -56 109 -212q-1 -17 -4 -51l-5 -44q-4 -42 2 -62q0 -3 5 -10
q21 -30 22 -32q14 -24 7 -51t-31 -41t-51 -7t-41 31l-2 4q-42 -19 -66 -22q-62 -9 -115.5 9.5t-78.5 66.5q-20 37 -13.5 75t28 69t55.5 57q51 39 88 46q27 5 61 -3l5 -1q-1 24 -8.5 36.5t-24.5 19.5q-15 8 -28 9t-29.5 -6t-33 -18t-46.5 -34q-22 -16 -49.5 -12t-44 26
t-12.5 49.5t26 44.5zM265 516l-60 85l-5 7q-14 -18 -53 -80q-10 -16 -28 -20t-34 6t-20 28t6 34q45 72 62 93q39 47 82 37q30 -7 63 -52l59 -84q11 -15 8.5 -33.5t-17.5 -29.5t-33.5 -8.5t-29.5 17.5z" />
    <glyph glyph-name="atilde" unicode="&#xe3;" horiz-adv-x="448" 
d="M147 112q17 -10 53 -5q6 1 9 3l11 5q8 4 19 9q0 16 1 35q-5 1 -8 1q-2 1 -5.5 2t-6 1.5t-4.5 0.5l-8 2q-5 -1 -30 -20q-26 -20 -31 -34zM0 409l10 7l38 28q15 11 45 26t54.5 19.5t59 1.5t68.5 -19q117 -56 109 -212q-1 -17 -4 -51l-5 -44q-4 -42 2 -62q0 -3 5 -10
q21 -30 22 -32q14 -24 7 -51t-31 -41t-51 -7t-41 31l-2 4q-42 -19 -66 -22q-62 -9 -115.5 9.5t-78.5 66.5q-20 37 -13.5 75t28 69t55.5 57q51 39 88 46q27 5 61 -3l5 -1q-1 24 -8.5 36.5t-24.5 19.5q-15 8 -28 9t-29.5 -6t-33 -18t-46.5 -34q-22 -16 -49.5 -12t-44 26
t-12.5 49.5t26 44.5zM17 629q52 42 99 40q37 -2 75 -33l14 -12q8 -7 12 -10l9 -7q5 -4 7.5 -5.5t6.5 -2.5t7.5 -1t8.5 1q2 1 8 5l11 9q9 7 16 11q16 10 34 6t28 -20t6 -34t-20 -28l-9 -6l-12 -10q-23 -17 -44 -21q-18 -2 -30.5 -3t-27 4.5t-23.5 9.5t-20 12l-17 12
q-6 5 -13 12t-10 9q-14 12 -21 12q-13 1 -39 -20q-14 -12 -32.5 -10t-30.5 16.5t-10 33t17 30.5z" />
    <glyph glyph-name="adieresis" unicode="&#xe4;" horiz-adv-x="448" 
d="M147 112q17 -10 53 -5q6 1 9 3l11 5q8 4 19 9q0 16 1 35q-5 1 -8 1q-2 1 -5.5 2t-6 1.5t-4.5 0.5l-8 2q-5 -1 -30 -20q-26 -20 -31 -34zM0 409l10 7l38 28q15 11 45 26t54.5 19.5t59 1.5t68.5 -19q117 -56 109 -212q-1 -17 -4 -51l-5 -44q-4 -42 2 -62q0 -3 5 -10
q21 -30 22 -32q14 -24 7 -51t-31 -41t-51 -7t-41 31l-2 4q-42 -19 -66 -22q-62 -9 -115.5 9.5t-78.5 66.5q-20 37 -13.5 75t28 69t55.5 57q51 39 88 46q27 5 61 -3l5 -1q-1 24 -8.5 36.5t-24.5 19.5q-15 8 -28 9t-29.5 -6t-33 -18t-46.5 -34q-22 -16 -49.5 -12t-44 26
t-12.5 49.5t26 44.5zM351 608q0 -19 -13 -32t-32 -13t-32 13t-13 32t13 32t32 13t32 -13t13 -32zM154 607q0 -19 -13 -32t-32 -13t-32 13t-13 32t13 32t32 13t32 -13t13 -32z" />
    <glyph glyph-name="aring" unicode="&#xe5;" horiz-adv-x="448" 
d="M147 112q17 -10 53 -5q6 1 9 3l11 5q8 4 19 9q0 16 1 35q-5 1 -8 1q-2 1 -5.5 2t-6 1.5t-4.5 0.5l-8 2q-5 -1 -30 -20q-26 -20 -31 -34zM180 643q-9 -4 -5 -16q3 -11 11 -18.5t15 -9.5q21 -4 27 7t-9 24q-3 3 -12 7l-4 2q-5 1 -11 2l-7 1q-3 0 -5 1zM248 717
q20 -9 33 -21q29 -28 36 -64.5t-10 -67.5q-17 -32 -51 -46.5t-73 -6.5q-34 7 -59.5 32.5t-34.5 57.5q-12 37 2.5 72.5t56.5 53.5q16 6 35 6q19 6 36 -3q3 -2 7 -3q12 -2 22 -10zM0 409l10 7l38 28q15 11 45 26t54.5 19.5t59 1.5t68.5 -19q117 -56 109 -212q-1 -17 -4 -51
l-5 -44q-4 -42 2 -62q0 -3 5 -10q21 -30 22 -32q14 -24 7 -51t-31 -41t-51 -7t-41 31l-2 4q-42 -19 -66 -22q-62 -9 -115.5 9.5t-78.5 66.5q-20 37 -13.5 75t28 69t55.5 57q51 39 88 46q27 5 61 -3l5 -1q-1 24 -8.5 36.5t-24.5 19.5q-15 8 -28 9t-29.5 -6t-33 -18t-46.5 -34
q-22 -16 -49.5 -12t-44 26t-12.5 49.5t26 44.5z" />
    <glyph glyph-name="ae" unicode="&#xe6;" horiz-adv-x="760" 
d="M147 112q17 -10 53 -5q6 1 9 3l11 5q8 4 19 9q0 16 1 35q-5 1 -8 1q-2 1 -5.5 2t-6 1.5t-4.5 0.5l-8 2q-5 -1 -30 -20q-26 -20 -31 -34zM529 306v1q1 7 -6 19q-9 16 -22 22t-25 3q-17 -6 -37 -36q19 0 44 -1q16 -1 46 -8zM0 409l10 7l38 28q15 11 45 26t54.5 19.5t59 1.5
t68.5 -19q47 -23 74 -61q38 48 89 64q62 19 116 -8t82 -76q31 -54 21 -108q-13 -67 -78 -98q-32 -15 -75 -6q-7 1 -12 2t-7 1.5t-3.5 1t-2.5 0.5q-43 2 -73 0q3 -39 18 -53q30 -25 88 -17q49 6 122 39q25 10 50 0.5t35.5 -34.5t1 -50t-34.5 -36q-89 -39 -156 -48
q-70 -10 -125 10q-9 -16 -25 -26q-24 -14 -51 -7t-41 31l-2 4q-42 -19 -66 -22q-62 -9 -115.5 9.5t-78.5 66.5q-20 37 -13.5 75t28 69t55.5 57q51 39 88 46q27 5 61 -3l5 -1q-1 24 -8.5 36.5t-24.5 19.5q-15 8 -28 9t-29.5 -6t-33 -18t-46.5 -34q-22 -16 -49.5 -12t-44 26
t-12.5 49.5t26 44.5z" />
    <glyph glyph-name="ccedilla" unicode="&#xe7;" horiz-adv-x="467" 
d="M343 330q-2 0 -35 14q-10 4 -13 4q-74 7 -116 -30t-34 -93q7 -45 10 -50q20 -37 65.5 -52.5t132.5 -25.5q27 -4 44.5 -25.5t14 -49t-25 -45t-49.5 -14.5q-59 7 -84 12l-1 -3l21 -9q33 -17 49 -40q27 -38 10 -82q-11 -29 -46 -47q-21 -11 -52 -17q-39 -9 -87 -11
q-19 -1 -32.5 11.5t-14.5 31.5t11.5 32.5t31.5 14.5q41 2 72 9q18 4 29 9q-6 5 -12 9q-9 4 -35 14q-12 5 -18 8q-21 11 -28 29q-12 31 10 64l2 3q-86 37 -126 110q-5 10 -9.5 21.5t-7 23t-3.5 19.5t-2.5 18.5t-1.5 11.5q-9 56 4.5 104t43 81t70 55.5t85.5 31.5q46 9 91 5
q24 -2 52 -14q2 -1 12 -5t16 -7q26 -9 38 -34t3 -51t-34 -38t-51 -3z" />
    <glyph glyph-name="egrave" unicode="&#xe8;" horiz-adv-x="520" 
d="M351 293q1 -2 3 0h-3zM221 353h-7q-3 0 -4 -1q-5 0 0 -2q5 -1 11 3zM222 353l-22 -17q-18 -13 -28 -25l70 -8q51 -5 79 -8q2 14 2 29q0 17 -3 32q-10 0 -38 -1t-51 -2h-9zM436 12q-15 -4 -45 -15q-42 -17 -59 -22q-86 -29 -148 -13q-16 4 -30 10q-14 7 -24 13t-21.5 16
t-17.5 16t-15 19l-12 16q-3 4 -11.5 18t-9.5 15q0 1 -5 7.5t-10 13.5l-10 18q-6 10 -10.5 21t-7.5 22q-22 87 40 189q26 43 62.5 78t79.5 49l18 3h7q7 1 19 1q24 1 53 2q33 1 54 1h20q5 0 9 -0.5t7 -1.5q12 -1 23 -8q39 -22 55 -77q10 -35 10 -79q0 -43 -10 -78
q-14 -53 -49 -75q-12 -8 -26 -11q-5 0 -11 -1h-6h-8q-12 1 -33 2l-87 9l-85 10l15 -23q25 -40 34 -50t27 -15q23 -6 72 10q14 4 52 19q41 16 58 21q27 7 51 -6.5t31.5 -40.5t-6 -51t-40.5 -32zM206 715q36 -35 102 -116q12 -14 10 -32.5t-16.5 -30.5t-33.5 -10q-18 2 -30 17
q-62 76 -94 108q-14 13 -14 31.5t13 32t31.5 13.5t31.5 -13z" />
    <glyph glyph-name="eacute" unicode="&#xe9;" horiz-adv-x="520" 
d="M351 293q1 -2 3 0h-3zM221 353h-7q-3 0 -4 -1q-5 0 0 -2q5 -1 11 3zM222 353l-22 -17q-18 -13 -28 -25l70 -8q51 -5 79 -8q2 14 2 29q0 17 -3 32q-10 0 -38 -1t-51 -2h-9zM436 12q-15 -4 -45 -15q-42 -17 -59 -22q-86 -29 -148 -13q-16 4 -30 10q-14 7 -24 13t-21.5 16
t-17.5 16t-15 19l-12 16q-3 4 -11.5 18t-9.5 15q0 1 -5 7.5t-10 13.5l-10 18q-6 10 -10.5 21t-7.5 22q-22 87 40 189q26 43 62.5 78t79.5 49l18 3h7q7 1 19 1q24 1 53 2q33 1 54 1h20q5 0 9 -0.5t7 -1.5q12 -1 23 -8q39 -22 55 -77q10 -35 10 -79q0 -43 -10 -78
q-14 -53 -49 -75q-12 -8 -26 -11q-5 0 -11 -1h-6h-8q-12 1 -33 2l-87 9l-85 10l15 -23q25 -40 34 -50t27 -15q23 -6 72 10q14 4 52 19q41 16 58 21q27 7 51 -6.5t31.5 -40.5t-6 -51t-40.5 -32zM371 658l-33 -35l-44 -45q-21 -20 -41 -36q-15 -12 -33.5 -10t-30 17t-9.5 33.5
t17 29.5q18 15 35 31.5t38.5 40t36.5 38.5q13 13 32 13t32 -13t13 -32t-13 -32z" />
    <glyph glyph-name="ecircumflex" unicode="&#xea;" horiz-adv-x="520" 
d="M351 293q1 -2 3 0h-3zM221 353h-7q-3 0 -4 -1q-5 0 0 -2q5 -1 11 3zM222 353l-22 -17q-18 -13 -28 -25l70 -8q51 -5 79 -8q2 14 2 29q0 17 -3 32q-10 0 -38 -1t-51 -2h-9zM436 12q-15 -4 -45 -15q-42 -17 -59 -22q-86 -29 -148 -13q-16 4 -30 10q-14 7 -24 13t-21.5 16
t-17.5 16t-15 19l-12 16q-3 4 -11.5 18t-9.5 15q0 1 -5 7.5t-10 13.5l-10 18q-6 10 -10.5 21t-7.5 22q-22 87 40 189q26 43 62.5 78t79.5 49l18 3h7q7 1 19 1q24 1 53 2q33 1 54 1h20q5 0 9 -0.5t7 -1.5q12 -1 23 -8q39 -22 55 -77q10 -35 10 -79q0 -43 -10 -78
q-14 -53 -49 -75q-12 -8 -26 -11q-5 0 -11 -1h-6h-8q-12 1 -33 2l-87 9l-85 10l15 -23q25 -40 34 -50t27 -15q23 -6 72 10q14 4 52 19q41 16 58 21q27 7 51 -6.5t31.5 -40.5t-6 -51t-40.5 -32zM312 525q-18 21 -69 88l-70 -94q-12 -15 -30.5 -17.5t-33 9t-17 30t8.5 32.5
l72 96q15 20 26 30q23 19 48 17q23 -1 43 -20q10 -9 24 -29q50 -65 66 -84q12 -14 10 -33q-1 -18 -15 -30t-32.5 -10.5t-30.5 15.5z" />
    <glyph glyph-name="edieresis" unicode="&#xeb;" horiz-adv-x="520" 
d="M351 293q1 -2 3 0h-3zM221 353h-7q-3 0 -4 -1q-5 0 0 -2q5 -1 11 3zM222 353l-22 -17q-18 -13 -28 -25l70 -8q51 -5 79 -8q2 14 2 29q0 17 -3 32q-10 0 -38 -1t-51 -2h-9zM436 12q-15 -4 -45 -15q-42 -17 -59 -22q-86 -29 -148 -13q-16 4 -30 10q-14 7 -24 13t-21.5 16
t-17.5 16t-15 19l-12 16q-3 4 -11.5 18t-9.5 15q0 1 -5 7.5t-10 13.5l-10 18q-6 10 -10.5 21t-7.5 22q-22 87 40 189q26 43 62.5 78t79.5 49l18 3h7q7 1 19 1q24 1 53 2q33 1 54 1h20q5 0 9 -0.5t7 -1.5q12 -1 23 -8q39 -22 55 -77q10 -35 10 -79q0 -43 -10 -78
q-14 -53 -49 -75q-12 -8 -26 -11q-5 0 -11 -1h-6h-8q-12 1 -33 2l-87 9l-85 10l15 -23q25 -40 34 -50t27 -15q23 -6 72 10q14 4 52 19q41 16 58 21q27 7 51 -6.5t31.5 -40.5t-6 -51t-40.5 -32zM187 608q0 -19 -13 -32t-32 -13t-32 13t-13 32t13 32t32 13t32 -13t13 -32z
M377 608q0 -19 -13 -32t-32 -13t-32 13t-13 32t13 32t32 13t32 -13t13 -32z" />
    <glyph glyph-name="igrave" unicode="&#xec;" horiz-adv-x="219" 
d="M174 430q3 -53 3 -182q0 -110 7 -171q2 -28 -15.5 -49.5t-45 -24t-49 15t-24.5 44.5q-7 68 -7 185q0 124 -3 174q-2 27 16.5 48t46 23t48.5 -16.5t23 -46.5zM62 714q37 -43 103 -112q13 -14 12 -32.5t-14.5 -31.5t-32 -12t-31.5 14q-64 68 -105 116q-12 14 -10.5 32.5
t15.5 30.5t32.5 10.5t30.5 -15.5z" />
    <glyph glyph-name="iacute" unicode="&#xed;" horiz-adv-x="290" 
d="M174 430q3 -53 3 -182q0 -110 7 -171q2 -28 -15.5 -49.5t-45 -24t-49 15t-24.5 44.5q-7 68 -7 185q0 124 -3 174q-2 27 16.5 48t46 23t48.5 -16.5t23 -46.5zM245 659l-55 -63q-28 -34 -49 -62q-11 -15 -29.5 -18t-33.5 7.5t-18 29t7 33.5q21 29 55 68l53 63
q12 14 30.5 16t33 -10t16.5 -30.5t-10 -33.5z" />
    <glyph glyph-name="icircumflex" unicode="&#xee;" horiz-adv-x="314" 
d="M174 430q3 -53 3 -182q0 -110 7 -171q2 -28 -15.5 -49.5t-45 -24t-49 15t-24.5 44.5q-7 68 -7 185q0 124 -3 174q-2 27 16.5 48t46 23t48.5 -16.5t23 -46.5zM205 523q-12 10 -78 70q-10 10 -17 15q-3 -2 -6 -6q-15 -15 -64 -80q-11 -15 -29.5 -17.5t-33.5 8.5t-17.5 29.5
t8.5 33.5q52 69 71 89q40 41 80 35q29 -4 69 -40l75 -69q14 -12 15.5 -30.5t-10.5 -32.5t-30.5 -15.5t-32.5 10.5z" />
    <glyph glyph-name="idieresis" unicode="&#xef;" horiz-adv-x="292" 
d="M174 430q3 -53 3 -182q0 -110 7 -171q2 -28 -15.5 -49.5t-45 -24t-49 15t-24.5 44.5q-7 68 -7 185q0 124 -3 174q-2 27 16.5 48t46 23t48.5 -16.5t23 -46.5zM257 608q0 -19 -13 -32t-32 -13t-32 13t-13 32t13 32t32 13t32 -13t13 -32zM59 616q0 -19 -13 -32t-32 -13
t-32 13t-13 32t13 32t32 13t32 -13t13 -32z" />
    <glyph glyph-name="eth" unicode="&#xf0;" horiz-adv-x="582" 
d="M406 238q-12 6 -21 17q-1 2 -23 34q-6 9 -9 12q-31 24 -91 19q-55 -4 -76 -12q-32 -13 -51 -38t-21 -52q-4 -56 61 -79q72 -24 132 -8q37 11 62.5 39t36.5 68zM170 578l-20 8q-26 11 -37 37t0 52t37 37t52 0q9 -4 29 -11.5t31 -12t27.5 -12.5t30.5 -16q109 53 130 65
q16 8 34 3t26.5 -21.5t3.5 -34.5t-22 -27q-35 -19 -92 -47q34 -33 66 -75.5t49 -79.5q26 -57 30.5 -124t-12.5 -131t-66 -115.5t-124 -71.5q-101 -29 -212 10q-78 27 -118 87q-40 59 -34 130q4 67 47 123.5t112 82.5q39 16 112 22q56 4 101 -6q-32 41 -62 66q-11 9 -21 16
q-45 -25 -80 -51q-15 -10 -33.5 -7t-29 18t-7.5 33.5t18 29.5z" />
    <glyph glyph-name="ntilde" unicode="&#xf1;" horiz-adv-x="502" 
d="M53 7q-33 129 -35 153q-3 37 2.5 81.5t16 95.5t12.5 64q4 27 26 43.5t50 12.5q14 -2 26 -9q74 44 162 38h11q16 1 22 1q47 -1 76 -27q29 -25 37 -68q3 -14 4 -46q1 -23 -7 -54q-5 -19 -5 -23q-3 -29 -0.5 -59t8 -71t8.5 -73q2 -28 -16 -49t-46 -23t-49 16t-23 46
q-1 18 -7 62q-6 45 -9 86.5t0 76.5q2 14 9 45q3 11 3 14v7v5q-14 -1 -24 0q-40 3 -64 -8t-76 -49q-16 -83 -13 -125q1 -12 31 -129q7 -27 -7 -51t-41 -31t-51 7t-31 41zM74 636q66 58 116 51q18 -3 35 -14.5t22 -17.5l15 -18q16 -21 22 -23q15 -5 53 18q16 10 34 5.5
t27.5 -20.5t5 -34t-20.5 -27q-72 -45 -126 -28q-16 5 -31.5 17t-19.5 18l-15 19q-9 11 -14 15q-15 -3 -45 -29q-14 -12 -32.5 -10.5t-30.5 15.5t-10.5 32.5t15.5 30.5z" />
    <glyph glyph-name="ograve" unicode="&#xf2;" horiz-adv-x="542" 
d="M224 323q-12 -3 -18 -6.5t-14 -13.5t-12.5 -35.5t-1.5 -58.5t12.5 -57t18.5 -32l3 -2q3 -1 14 -4q11 -4 24 -7q38 -9 54 -7q39 3 53 19q14 17 16 61q3 73 -12 97q-38 59 -137 46zM298 457q115 -13 175 -108q39 -60 34 -175q-4 -90 -48 -142q-49 -57 -143 -66
q-37 -3 -96 10q-68 16 -99 42q-64 56 -76 179q-11 121 41 188q7 9 15 17q12 35 48 43q22 6 44 9q13 3 33.5 6.5t23.5 4.5q25 5 48 -8zM195 697q37 -33 103 -107q12 -14 11 -32.5t-15 -31t-32.5 -11.5t-31.5 15q-62 70 -95 99q-14 13 -15 31.5t11.5 32.5t31 15t32.5 -11z" />
    <glyph glyph-name="oacute" unicode="&#xf3;" horiz-adv-x="542" 
d="M224 323q-12 -3 -18 -6.5t-14 -13.5t-12.5 -35.5t-1.5 -58.5t12.5 -57t18.5 -32l3 -2q3 -1 14 -4q11 -4 24 -7q38 -9 54 -7q39 3 53 19q14 17 16 61q3 73 -12 97q-38 59 -137 46zM298 457q115 -13 175 -108q39 -60 34 -175q-4 -90 -48 -142q-49 -57 -143 -66
q-37 -3 -96 10q-68 16 -99 42q-64 56 -76 179q-11 121 41 188q7 9 15 17q12 35 48 43q22 6 44 9q13 3 33.5 6.5t23.5 4.5q25 5 48 -8zM344 632l-16 -20q-9 -10 -10 -11t-5.5 -6.5t-6 -8t-9.5 -14.5l-17 -24q-11 -15 -29.5 -18.5t-33.5 7.5t-18.5 29.5t7.5 33.5l18 26
q8 12 10 14l6 9q6 7 7 8t11 13l18 20q12 15 30.5 16t33 -11t15.5 -30.5t-11 -32.5z" />
    <glyph glyph-name="ocircumflex" unicode="&#xf4;" horiz-adv-x="542" 
d="M224 323q-12 -3 -18 -6.5t-14 -13.5t-12.5 -35.5t-1.5 -58.5t12.5 -57t18.5 -32l3 -2q3 -1 14 -4q11 -4 24 -7q38 -9 54 -7q39 3 53 19q14 17 16 61q3 73 -12 97q-38 59 -137 46zM298 457q115 -13 175 -108q39 -60 34 -175q-4 -90 -48 -142q-49 -57 -143 -66
q-37 -3 -96 10q-68 16 -99 42q-64 56 -76 179q-11 121 41 188q7 9 15 17q12 35 48 43q22 6 44 9q13 3 33.5 6.5t23.5 4.5q25 5 48 -8zM326 507l-35 47q-22 30 -31.5 41.5t-16.5 18.5l-5 -5q-18 -20 -60 -87q-10 -16 -28 -20t-34 6t-20 28t6 34q46 74 69 99q43 47 88 36
q33 -7 70 -53q10 -12 33 -42l36 -47q11 -15 8.5 -33.5t-17 -30t-33 -9t-30.5 16.5z" />
    <glyph glyph-name="otilde" unicode="&#xf5;" horiz-adv-x="542" 
d="M224 323q-12 -3 -18 -6.5t-14 -13.5t-12.5 -35.5t-1.5 -58.5t12.5 -57t18.5 -32l3 -2q3 -1 14 -4q11 -4 24 -7q38 -9 54 -7q39 3 53 19q14 17 16 61q3 73 -12 97q-38 59 -137 46zM298 457q115 -13 175 -108q39 -60 34 -175q-4 -90 -48 -142q-49 -57 -143 -66
q-37 -3 -96 10q-68 16 -99 42q-64 56 -76 179q-11 121 41 188q7 9 15 17q12 35 48 43q22 6 44 9q13 3 33.5 6.5t23.5 4.5q25 5 48 -8zM116 619q52 77 112 66q8 -2 17 -5.5t15.5 -7.5t14 -10t11.5 -10t10.5 -9.5t7.5 -6.5q22 -20 32 -20q23 0 64 48q12 14 30.5 15.5
t32.5 -10.5t15.5 -30.5t-10.5 -32.5q-67 -79 -131 -80q-45 -1 -94 44q-26 23 -29 25q-10 -6 -24 -26q-10 -16 -28.5 -19.5t-34 7t-19 29t7.5 33.5z" />
    <glyph glyph-name="odieresis" unicode="&#xf6;" horiz-adv-x="542" 
d="M224 323q-12 -3 -18 -6.5t-14 -13.5t-12.5 -35.5t-1.5 -58.5t12.5 -57t18.5 -32l3 -2q3 -1 14 -4q11 -4 24 -7q38 -9 54 -7q39 3 53 19q14 17 16 61q3 73 -12 97q-38 59 -137 46zM298 457q115 -13 175 -108q39 -60 34 -175q-4 -90 -48 -142q-49 -57 -143 -66
q-37 -3 -96 10q-68 16 -99 42q-64 56 -76 179q-11 121 41 188q7 9 15 17q12 35 48 43q22 6 44 9q13 3 33.5 6.5t23.5 4.5q25 5 48 -8zM407 605q0 -19 -13 -32t-32 -13t-32 13t-13 32t13 32t32 13t32 -13t13 -32zM229 607q0 -19 -13 -32t-32 -13t-32 13t-13 32t13 32t32 13
t32 -13t13 -32z" />
    <glyph glyph-name="divide" unicode="&#xf7;" horiz-adv-x="593" 
d="M494 290q-70 -4 -198.5 -4.5t-164.5 -1.5q-28 -1 -49 18q-20 20 -21 48t18.5 48.5t47.5 21.5q37 1 163 1.5t196 4.5q28 2 49 -17t23 -47t-17 -49t-47 -23zM374 505q0 -28 -20 -48t-48 -20t-48 20t-20 48t20 48t48 20t48 -20t20 -48zM403 193q0 -28 -20 -48t-48 -20
t-48 20t-20 48t20 48t48 20t48 -20t20 -48z" />
    <glyph glyph-name="oslash" unicode="&#xf8;" horiz-adv-x="589" 
d="M371 233l-116 -127q34 -8 49 -6q39 3 53 19q14 17 16 61q1 27 -2 53zM321 313q-36 18 -97 10q-12 -3 -18 -6.5t-14 -13.5t-12 -35q-5 -26 -2 -59q2 -24 8 -45q79 83 135 149zM543 444q-24 -27 -64 -79l-9 -11l3 -5q39 -60 34 -175q-4 -90 -48 -142q-49 -57 -143 -66
q-37 -3 -96 10q-40 9 -67 22l-44 -46q-13 -14 -32 -14t-32.5 12.5t-13.5 31.5t12 32l44 45q-35 56 -42 138q-12 120 41 188q7 9 15 17q12 35 48 43q22 6 44 9q13 3 33.5 6.5t23.5 4.5q25 5 48 -8q62 -7 109 -39l1 2q41 54 67 84q13 14 31.5 15t32.5 -11.5t15 -31t-11 -32.5z
" />
    <glyph glyph-name="ugrave" unicode="&#xf9;" horiz-adv-x="511" 
d="M149 479q0 -5 2 -36.5t3.5 -50t4.5 -50t8 -59.5t11 -54q17 -70 41 -102q17 -22 38 -20q28 3 43 37l-9 41q-16 84 -10 135q4 42 24 69q30 41 82 41q28 0 48 -16t28 -40q6 -21 2 -50q-1 -8 -6 -30q-2 -11 -2 -13q-5 -92 -18 -142q5 -19 13 -46l10 -33l8 -30q3 -11 4 -16
q6 -27 -8.5 -50.5t-41.5 -29.5t-50.5 8.5t-29.5 41.5q-1 4 -3 11q-32 -18 -70 -22q-96 -9 -158 73q-42 55 -65 152q-8 29 -13.5 62t-9 67.5t-5 55t-3.5 53t-2 33.5q-2 28 16.5 49t46 23t48.5 -16.5t23 -45.5zM226 696q34 -32 53.5 -61t45.5 -78q9 -17 3 -34.5t-22.5 -26.5
t-34 -3t-26.5 22q-23 45 -38.5 67.5t-42.5 47.5q-13 13 -14 31.5t12 32t31.5 14.5t32.5 -12z" />
    <glyph glyph-name="uacute" unicode="&#xfa;" horiz-adv-x="511" 
d="M149 479q0 -5 2 -36.5t3.5 -50t4.5 -50t8 -59.5t11 -54q17 -70 41 -102q17 -22 38 -20q28 3 43 37l-9 41q-16 84 -10 135q4 42 24 69q30 41 82 41q28 0 48 -16t28 -40q6 -21 2 -50q-1 -8 -6 -30q-2 -11 -2 -13q-5 -92 -18 -142q5 -19 13 -46l10 -33l8 -30q3 -11 4 -16
q6 -27 -8.5 -50.5t-41.5 -29.5t-50.5 8.5t-29.5 41.5q-1 4 -3 11q-32 -18 -70 -22q-96 -9 -158 73q-42 55 -65 152q-8 29 -13.5 62t-9 67.5t-5 55t-3.5 53t-2 33.5q-2 28 16.5 49t46 23t48.5 -16.5t23 -45.5zM360 671q-17 -20 -47 -62q-32 -46 -50 -69q-12 -14 -30.5 -16
t-33 10t-16.5 30.5t10 33.5q17 19 47 62q31 46 50 69q12 14 30.5 16t33 -10t16.5 -30.5t-10 -33.5z" />
    <glyph glyph-name="ucircumflex" unicode="&#xfb;" horiz-adv-x="511" 
d="M149 479q0 -5 2 -36.5t3.5 -50t4.5 -50t8 -59.5t11 -54q17 -70 41 -102q17 -22 38 -20q28 3 43 37l-9 41q-16 84 -10 135q4 42 24 69q30 41 82 41q28 0 48 -16t28 -40q6 -21 2 -50q-1 -8 -6 -30q-2 -11 -2 -13q-5 -92 -18 -142q5 -19 13 -46l10 -33l8 -30q3 -11 4 -16
q6 -27 -8.5 -50.5t-41.5 -29.5t-50.5 8.5t-29.5 41.5q-1 4 -3 11q-32 -18 -70 -22q-96 -9 -158 73q-42 55 -65 152q-8 29 -13.5 62t-9 67.5t-5 55t-3.5 53t-2 33.5q-2 28 16.5 49t46 23t48.5 -16.5t23 -45.5zM339 536q-18 17 -56 61q-8 9 -14 15q-16 -15 -45 -58
q-10 -16 -28.5 -19.5t-34 7t-19 29t7.5 33.5q38 58 64 79q42 35 84 17q23 -9 53 -45l50 -55q14 -13 14 -31.5t-13 -32t-31.5 -13.5t-31.5 13z" />
    <glyph glyph-name="udieresis" unicode="&#xfc;" horiz-adv-x="511" 
d="M149 479q0 -5 2 -36.5t3.5 -50t4.5 -50t8 -59.5t11 -54q17 -70 41 -102q17 -22 38 -20q28 3 43 37l-9 41q-16 84 -10 135q4 42 24 69q30 41 82 41q28 0 48 -16t28 -40q6 -21 2 -50q-1 -8 -6 -30q-2 -11 -2 -13q-5 -92 -18 -142q5 -19 13 -46l10 -33l8 -30q3 -11 4 -16
q6 -27 -8.5 -50.5t-41.5 -29.5t-50.5 8.5t-29.5 41.5q-1 4 -3 11q-32 -18 -70 -22q-96 -9 -158 73q-42 55 -65 152q-8 29 -13.5 62t-9 67.5t-5 55t-3.5 53t-2 33.5q-2 28 16.5 49t46 23t48.5 -16.5t23 -45.5zM202 608q0 -19 -13 -32t-32 -13t-32 13t-13 32t13 32t32 13
t32 -13t13 -32zM388 608q0 -19 -13 -32t-32 -13t-32 13t-13 32t13 32t32 13t32 -13t13 -32z" />
    <glyph glyph-name="yacute" unicode="&#xfd;" horiz-adv-x="480" 
d="M436 371q-25 -46 -58 -123q-46 -111 -57 -135q-14 -30 -54 -103q-33 -60 -46 -92q-13 -33 -17 -46v-4q-1 -19 -12 -35q-3 -5 -9 -13l-34 -43q-16 -22 -43.5 -25.5t-50 13t-26 44t13.5 50.5l29 38l2 6q6 23 23 65t53 107l4 8q-21 10 -32 31q-78 153 -104 293
q-5 27 10.5 50t43 28t50.5 -10.5t28 -43.5q19 -104 71 -214l34 82q36 87 65 138q13 24 39.5 31.5t51 -6t32 -40t-6.5 -51.5zM376 683q-27 -26 -74 -77q-58 -64 -77 -83q-13 -14 -31.5 -14t-32 13t-13.5 31.5t13 31.5l74 81q53 59 79 83q14 13 32.5 12t31.5 -14.5t12 -32
t-14 -31.5z" />
    <glyph glyph-name="thorn" unicode="&#xfe;" horiz-adv-x="523" 
d="M145 113h14q11 -1 35 -3.5t31 -3t21 -0.5t24 3t23 8q50 19 60 53q10 33 -11 74q-25 47 -71.5 72t-95.5 14q-4 -1 -14 -7l-6 -4v-6q-8 -100 -10 -200zM178 630q0 -67 -9 -162v-5q91 12 170.5 -35t119.5 -122q46 -89 21 -174q-29 -96 -139 -139q-23 -8 -44.5 -13
t-44.5 -5.5t-35 0t-38.5 3.5t-31.5 3h-2q2 -70 6 -139q2 -27 -16.5 -47.5t-45.5 -22.5t-47.5 16.5t-22.5 45.5q-14 241 4 489l5 49l5 58q3 32 5 50q8 90 8 150q0 27 19.5 46.5t46.5 19.5t46.5 -19.5t19.5 -46.5z" />
    <glyph glyph-name="ydieresis" unicode="&#xff;" horiz-adv-x="480" 
d="M436 371q-25 -46 -58 -123q-46 -111 -57 -135q-14 -30 -54 -103q-33 -60 -46 -92q-13 -33 -17 -46v-4q-1 -19 -12 -35q-3 -5 -9 -13l-34 -43q-16 -22 -43.5 -25.5t-50 13t-26 44t13.5 50.5l29 38l2 6q6 23 23 65t53 107l4 8q-21 10 -32 31q-78 153 -104 293
q-5 27 10.5 50t43 28t50.5 -10.5t28 -43.5q19 -104 71 -214l34 82q36 87 65 138q13 24 39.5 31.5t51 -6t32 -40t-6.5 -51.5zM349 608q0 -19 -13 -32t-32 -13t-32 13t-13 32t13 32t32 13t32 -13t13 -32zM173 610q0 -19 -13 -32t-32 -13t-32 13t-13 32t13 32t32 13t32 -13
t13 -32z" />
    <glyph glyph-name="quoteleft" unicode="&#x2018;" horiz-adv-x="296" 
d="M147 396l-28 29q-14 14 -15.5 16t-9.5 9.5t-11 9t-19 14.5l-32 25q-22 18 -25.5 45.5t14 49t45 25t48.5 -13.5l35 -28q18 -14 21 -15.5t13 -11t11.5 -11.5t17.5 -18l31 -31q19 -20 19 -47.5t-20 -47t-47.5 -19.5t-47.5 20z" />
    <glyph glyph-name="quoteright" unicode="&#x2019;" horiz-adv-x="297" 
d="M242 607l-48 -49q-2 -3 -11 -18l-35 -54q-15 -24 -42 -29.5t-50.5 9.5t-29 42t9.5 50l33 52q12 21 18 29t61 62q19 20 47 20t47.5 -19.5t19.5 -47.5t-20 -47z" />
    <glyph glyph-name="quotedblleft" unicode="&#x201c;" horiz-adv-x="473" 
d="M102 365l-26 37q-13 19 -14.5 21t-9.5 13.5t-9.5 14.5t-14 23.5t-25.5 39.5q-14 24 -8 51t29.5 41.5t50.5 8.5t42 -29l25 -40q11 -19 13 -22l9 -13q6 -10 8 -12.5t14 -20.5l26 -35q16 -23 11 -50.5t-27.5 -43.5t-50 -11t-43.5 27zM315 445l-19 30q-10 15 -12 17l-7 10
l-8 10q-2 3 -14 17l-25 30q-18 21 -15.5 49t23.5 45.5t49 15t45 -23.5l27 -32q13 -16 15.5 -18t10 -12t8.5 -12t13 -19l21 -33q15 -23 9.5 -50.5t-28.5 -42.5t-50.5 -9.5t-42.5 28.5z" />
    <glyph glyph-name="quotedblright" unicode="&#x201d;" horiz-adv-x="494" 
d="M230 592l-40 -47q-10 -12 -12 -14q-1 -2 -2 -3t-2.5 -5t-4 -8.5t-7.5 -16.5l-13 -26q-12 -24 -38.5 -33t-51 3t-33.5 38.5t3 51.5q34 68 39 76q6 9 22 26l38 44q18 21 45.5 23.5t48.5 -15.5t23.5 -45.5t-15.5 -48.5zM446 555l-26 -36q-12 -16 -16.5 -22.5t-8.5 -11.5
l-9 -18l-27 -51q-12 -25 -38.5 -33t-51.5 4.5t-33 39t5 51.5l26 50q9 19 15 29q4 5 9.5 13t18.5 26l28 37q16 23 43.5 27.5t50 -12t27 -44t-12.5 -49.5z" />
    <glyph glyph-name="Euro" unicode="&#x20ac;" horiz-adv-x="725" 
d="M532 570l-15 3q-64 14 -107 13.5t-84 -25.5q-23 -14 -47 -43l90 -5q28 -2 46.5 -22.5t17 -48t-22 -46t-47.5 -17.5q-141 7 -151 8q-3 -10 -5 -19l-2 -9q92 -1 167 -6q27 -2 45.5 -23t16.5 -48.5t-23 -46t-49 -16.5q-84 6 -158 6q10 -34 32 -53q37 -31 102 -24
q51 6 137 41q13 6 24.5 10t16.5 6l8 3q4 2 5.5 2.5t2.5 1.5l6 4l14 12l30 24q21 17 49 13.5t45 -25t13.5 -49.5t-25.5 -45l-63 -49q-8 -4 -76 -32q-102 -42 -172 -50q-121 -14 -203 55q-68 58 -84 155q-15 -1 -36 -1q-27 -1 -47 18.5t-21 47t18.5 47.5t47.5 21q22 0 40 1
l6 29h-61q-27 0 -46.5 20t-19.5 47.5t20 47t48 19.5q57 -1 108 -1q56 109 135 156q18 10 36 18.5t37 12.5l33 8q14 4 35.5 3.5t31.5 0.5t33.5 -2.5t29.5 -4.5l32 -5q26 -5 30 -6q27 -5 43 -27.5t11 -50t-27.5 -43.5t-50.5 -11z" />
    <glyph glyph-name="uni3000" unicode="&#x3000;" horiz-adv-x="1000" 
 />
    <glyph glyph-name="uniF8FF" unicode="&#xf8ff;" horiz-adv-x="749" 
d="M405 42l-14 -8q-16 -9 -28 -14q-92 -40 -188 23q-60 39 -95 115q-34 76 -39 158q-2 40 3.5 78.5t21 77.5t46.5 70t74 47q35 13 68 12t49 -6.5t40 -16.5q20 -10 28.5 -11.5t32.5 2.5q28 8 56 21q36 15 51 19q41 8 72.5 2t84.5 -27q26 -10 37.5 -35.5t0.5 -52.5
q-10 -25 -34.5 -36.5t-50.5 -2.5q-36 -52 -41 -95t23 -90q4 -7 38 -41q4 -1 20 -11q48 -30 53 -77q4 -42 -28 -80q-18 -21 -46 -39q-57 -36 -98 -38q-10 0 -19.5 1t-18.5 3.5t-17 4.5t-16 6t-12.5 6t-10.5 5.5t-7 3.5q-17 9 -36 26zM353 430l1 1h-1v-1zM555 717l-29 -29
q-13 -13 -15.5 -15t-9 -9.5t-8 -9.5t-13.5 -16l-25 -30q-18 -21 -46 -23.5t-49.5 15.5t-24 46t15.5 50l25 30q14 16 15 17.5t10 10.5l11 12l17 17q15 15 28 30q20 20 48.5 20t48.5 -19.5t20 -48t-19 -48.5z" />
    <glyph glyph-name="uniFB00" unicode="&#xfb00;" horiz-adv-x="929" 
d="M207 96q5 -1 13 -3q28 -5 75 -8q17 -1 148 -3q63 -1 155 9q53 5 88 12l36 9q12 13 23 64q13 63 17 163q5 155 -10 286q-187 25 -495 14q-36 -1 -65 -4l-6 -1q3 -12 3 -21q2 -46 3 -97v-92q0 -80 2 -152q3 -90 8 -137q2 -24 5 -39zM861 696q16 -15 19 -38q8 -50 12.5 -142
t1.5 -182q-4 -111 -20 -186q-23 -107 -76 -144q-28 -19 -87 -31q-41 -8 -100 -14q-102 -10 -170 -9q-127 2 -154 3q-56 4 -93 11q-61 12 -88 41q-18 19 -27 58q-5 23 -9 58q-5 56 -8 147q-2 62 -2 154v92q-1 49 -3 93q0 2 -1 3v4q-1 1 -2 7l-4 14q-11 51 13 87q14 20 40 30
q11 4 26 7q20 4 50 7q36 3 72 5q336 14 555 -21q21 -3 36 -18t19 -36z" />
  </font>
</defs>
</svg>
