<?xml version="1.0" standalone="no"?>
<!DOCTYPE svg PUBLIC "-//W3C//DTD SVG 1.1//EN" "http://www.w3.org/Graphics/SVG/1.1/DTD/svg11.dtd" >
<svg>
<metadata>
Created by FontForge 20110222 at Mon Sep 30 09:45:55 2013
 By Orthosie Webhosting
Copyright 1995 Brand Design Co., Inc./House Industries. Font by Kristen Faulkner.
</metadata>
<defs>
<font id="DollhouseMedium" horiz-adv-x="1090" >
  <font-face 
    font-family="DollhouseMedium"
    font-weight="400"
    font-stretch="normal"
    units-per-em="2048"
    panose-1="2 11 5 0 0 0 0 0 0 0"
    ascent="1638"
    descent="-410"
    x-height="805"
    cap-height="1505"
    bbox="-297 -1219 1911 2136"
    underline-thickness="20"
    underline-position="-123"
    unicode-range="U+0020-F002"
  />
<missing-glyph horiz-adv-x="1536" 
d="M256 0v1280h1024v-1280h-1024zM1247 33v1214h-958v-1214h958z" />
    <glyph glyph-name=".notdef" horiz-adv-x="1536" 
d="M256 0v1280h1024v-1280h-1024zM1247 33v1214h-958v-1214h958z" />
    <glyph glyph-name=".null" horiz-adv-x="0" 
 />
    <glyph glyph-name="nonmarkingreturn" horiz-adv-x="0" 
 />
    <glyph glyph-name="space" unicode=" " horiz-adv-x="602" 
 />
    <glyph glyph-name="exclam" unicode="!" horiz-adv-x="283" 
d="M258 1468q0 11 -16 -204t-30 -468t-15 -474q0 -12 -6 -19.5t-14.5 -11t-21.5 -4.5t-18.5 -2.5t-15.5 -1.5q-31 0 -31 32q-2 67 -8 268.5t-10 379.5t-4 278q1 48 1.5 87.5t0.5 98.5q3 82 90 82h10q47 -2 67.5 -8.5t20.5 -32.5zM238 47q0 -34 -23 -78q-23 -43 -76 -43
q-57 0 -92 43q-22 29 -22 70q0 29 11.5 55t33.5 45q30 29 63 29q30 0 60 -27q45 -39 45 -94z" />
    <glyph glyph-name="quotedbl" unicode="&#x22;" horiz-adv-x="444" 
d="M420 1524q0 -21 -3.5 -55.5t-10.5 -107t-12 -127.5t-5 -91q0 -19 -6 -25q-8 -8 -43 -8q-1 0 -16 1.5t-23 6.5q-7 7 -10 27q0 9 -9 116t-14.5 183.5t-5.5 105.5q0 15 6 21q11 11 22.5 12t55.5 4q41 0 57 -14q17 -15 17 -49zM182 1524q0 -34 -7 -99.5t-15 -147.5t-8 -134
q0 -19 -7 -25q-8 -8 -43 -8q-1 0 -16 1.5t-23 6.5q-7 7 -10 27q-28 336 -28 405q0 15 6 21q10 11 22 12t56 4q41 0 55 -14q18 -18 18 -49z" />
    <glyph glyph-name="numbersign" unicode="#" horiz-adv-x="1049" 
d="M1024 686q0 -34 -17.5 -69t-50.5 -60q-58 -47 -110 -47q-24 0 -39.5 13t-15.5 36q0 17 8 33q11 30 28.5 46.5t36.5 16.5q39 0 39 -47q0 -12 -2 -20q-3 -10 -10 -10q-10 0 -10 12v4v4q0 8 -9 8q-6 0 -14.5 -9t-9.5 -22q-2 -2 -2 -8q0 -18 20 -18q24 0 70 29q39 25 39 63
q0 23 -18.5 38t-57.5 15q-13 0 -41 -4q-48 -10 -207 -59l8 -201q20 5 42.5 11.5t35.5 9.5q55 14 99 14q59 0 89.5 -23.5t30.5 -62.5q0 -61 -75 -133q-44 -41 -84 -41q-41 0 -41 37t49 80q9 6 14 6q8 0 8 -6q0 -5 -4 -9q-18 -18 -18 -32q0 -19 22 -19q16 0 31 12q35 28 35 56
q0 35 -49 35q-14 0 -60 -11q-62 -19 -120 -43l8 -227v-8q0 -33 -12 -51t-44 -27q-8 -2 -20 -2q-21 0 -38 10t-17 27v2q0 23 10 231l-92 -37v-69v-129v-2q0 -13 -8 -19t-18.5 -7.5t-18.5 -2.5q-6 -2 -15 -2q-22 0 -22 25q-2 54 -4 88t-4 82q-36 -16 -52.5 -22.5t-46.5 -18.5
q-47 -19 -94 -19q-54 0 -90.5 27t-36.5 67q0 18 10 45q20 41 58.5 69t68.5 28q37 0 37 -39q0 -22 -10 -45q-3 -13 -16 -13q-15 0 -15 15v6q4 12 4 16q0 21 -20 21q-12 0 -28.5 -11.5t-26.5 -29.5q-7 -6 -7 -19q0 -17 17.5 -30t46.5 -13q40 0 90 23q18 8 52 26t52 27
q-8 140 -10 221q-97 -37 -129 -51q-49 -18 -86 -18q-55 0 -83.5 34t-28.5 86q0 21 2 31q8 53 36 82t58 29q43 0 43 -39q0 -28 -23 -55q-7 -11 -16 -11q-12 0 -12 13q0 4 2 8q4 6 4 18q0 19 -15 19q-27 0 -38 -54q0 -2 -1 -5.5t-2 -6.5q0 -20 17.5 -35.5t46.5 -15.5
q28 0 53 10q54 16 82 25.5t86 27.5q-6 133 -6 246v37q0 35 12.5 48.5t46.5 13.5h7q34 0 52 -5t19 -26q0 -18 -4.5 -119.5t-5.5 -151.5l92 31v43q0 86 -2 127v2q0 10 5 16t14.5 8.5t16 3.5t11.5 1q4 2 12 2q25 0 25 -25l6 -147q139 45 156 49q55 14 98 14q60 0 90.5 -27.5
t30.5 -70.5zM559 600q-27 -10 -57.5 -21t-36.5 -14q-4 -134 -4 -213q25 13 94 41q4 128 4 207z" />
    <glyph glyph-name="dollar" unicode="$" horiz-adv-x="811" 
d="M788 205q0 -68 -38.5 -123.5t-103.5 -89t-142 -39.5q2 -70 2.5 -111.5t1.5 -91.5v-2q0 -15 -11 -21.5t-27 -8.5t-21 -3q-6 0 -9.5 -0.5t-7.5 -1.5q-32 0 -35 27q-3 75 -6 221q-36 7 -84 27q-107 47 -170 127.5t-87.5 158t-24.5 125.5q0 53 35.5 97.5t93.5 44.5
q47 0 106 -39q68 -48 68 -90q0 -25 -20.5 -41.5t-53.5 -16.5q-41 0 -92 31q-12 9 -12 18q0 7 8 7q6 0 10 -2q23 -13 45 -13q16 0 27.5 7.5t11.5 17.5q0 16 -21 37q-32 26 -69 26q-29 0 -51 -19t-25 -52v-25q0 -179 223 -283q56 -21 78 -26q-1 66 -2.5 139t-2.5 135t-3 164
q-128 91 -189 185.5t-61 177.5q0 90 65 149t166 59h9l-4 197v2q0 33 19 45t60 12q38 0 59 -5t21 -23q-1 -57 -10 -262q72 -34 127 -78q98 -82 98 -168q0 -39 -20.5 -62.5t-50.5 -23.5q-29 0 -58 22q-45 41 -45 80q0 21 12.5 34t32.5 13q18 0 33 -10q12 -9 12 -18
q0 -11 -10 -11q-6 0 -10 3q-13 8 -27 8q-16 0 -16 -15q0 -37 70 -59q4 -2 12 -2q26 0 26 41q0 70 -71 121q-57 42 -115 65q-1 -64 -2.5 -120.5t-3 -139t-2.5 -153.5q95 -62 159.5 -129t93.5 -129t29 -117zM377 670l-6 340q-51 -12 -80 -48t-29 -88q0 -105 115 -204zM627 209
q0 101 -123 213v-215v-133q57 11 90 46.5t33 88.5z" />
    <glyph glyph-name="percent" unicode="%" horiz-adv-x="1016" 
d="M903 385q0 -83 -88 -154q-48 -38 -100 -38q-54 0 -90.5 40.5t-36.5 110.5q0 42 14 88q12 43 65.5 83t108.5 40q8 0 12.5 -0.5t10.5 -1.5q10 -3 10 -14t-12 -11q-45 -1 -84 -38t-45 -84q-2 -9 -2 -21q0 -42 27 -69t61 -27q21 0 45 16q51 46 51 98q0 37 -31 46q-16 4 -18 4
q-23 0 -36 -14.5t-13 -32.5q0 -17 14 -17q10 0 16 4h2q15 0 15 -16q0 -10 -15.5 -17.5t-31.5 -7.5q-39 0 -39 43q0 33 24.5 62t67.5 30h4q43 0 68.5 -29t25.5 -73zM991 1071q0 -9 -6 -18t-84.5 -102.5t-276 -335.5t-292 -360.5t-209.5 -272.5q-10 -17 -27 -17q-11 0 -27 10
t-18 11q-26 12 -26 30q0 12 8 23q20 28 155 222.5t230 330t213 300.5t176 238q30 37 63 37q28 0 66 -30q21 -15 38 -32t17 -34zM375 791q0 -87 -88 -158q-48 -39 -99 -39t-84.5 39.5t-33.5 107.5q0 44 14 93q8 28 29.5 55.5t52.5 45t65 17.5q15 0 23 -2q5 0 7.5 -4t2.5 -10
q0 -10 -12 -10q-41 -1 -73.5 -41t-39.5 -78q-4 -16 -4 -25q0 -40 27 -65t63 -25q29 0 45 15q23 17 36 43.5t13 52.5q0 38 -34 47q-12 4 -19 4q-19 0 -32 -11t-13 -26q0 -16 17 -16q7 0 16 6h2q6 0 10 -5t4 -11q0 -11 -14 -19q-18 -6 -33 -6q-39 0 -39 41q0 31 26 59t66 29h5
q28 0 49 -13.5t33 -36.5t12 -54z" />
    <glyph glyph-name="ampersand" unicode="&#x26;" horiz-adv-x="1038" 
d="M1014 758q0 -38 -14.5 -86.5t-43.5 -104.5q-33 -61 -84.5 -136.5t-109.5 -143.5q16 -36 55.5 -120t52 -110t50.5 -100q2 -4 2 -12q0 -20 -43 -47q-7 -4 -27.5 -17.5t-32.5 -13.5q-18 0 -26 22q-22 60 -54.5 138t-70.5 161q-76 -73 -163 -130.5t-183 -90.5
q-59 -20 -111 -20q-88 0 -137 55t-49 143q0 85 43 172q94 187 171.5 307t170.5 240q-21 84 -37 172q-8 78 -8 107q0 129 51.5 194.5t124.5 65.5q42 0 82.5 -23t65 -63t24.5 -92q0 -78 -56 -160q-35 -52 -66.5 -99t-62.5 -92q80 -232 197 -501q57 59 106.5 125.5t83.5 136.5
q41 83 41 131q0 49 -38 49q-44 0 -82 -49q-27 -36 -27 -64q0 -22 18 -22q19 0 39 20q8 7 15 7q8 0 8 -11q0 -13 -15 -24q-55 -51 -96 -51q-37 0 -37 45q0 34 25 77t68 78q45 41 96 41q39 0 61.5 -26.5t22.5 -77.5zM627 1257q0 48 -22 73.5t-54 25.5q-41 0 -74 -41.5
t-33 -118.5q0 -46 19 -117q7 -28 33 -106q64 90 88 137q43 85 43 147zM627 285q-38 87 -69 163t-57 144t-57 160q-75 -110 -120 -182t-76.5 -131t-50.5 -111q-19 -48 -19 -90q0 -60 35.5 -91.5t93.5 -31.5q73 0 152 49q92 57 168 121z" />
    <glyph glyph-name="quotesingle" unicode="'" horiz-adv-x="207" 
d="M182 1524q0 -34 -7 -99.5t-15 -147.5t-8 -134q0 -19 -7 -25q-8 -8 -43 -8q-1 0 -16 1.5t-23 6.5q-7 7 -10 27q-28 336 -28 405q0 15 6 21q10 11 22 12t56 4q41 0 55 -14q18 -18 18 -49z" />
    <glyph glyph-name="parenleft" unicode="(" horiz-adv-x="711" 
d="M686 1354q0 -35 -8 -66q-15 -51 -47 -80.5t-64 -29.5q-25 0 -42 21t-17 58q0 9 4 41q7 23 23 23q10 0 10 -14v-2q0 -2 -0.5 -3.5t-1.5 -3.5q0 -20 8 -33.5t18 -13.5q26 0 45 64q13 35 13 63q0 58 -47 58q-60 0 -125 -72q-138 -152 -211 -543q-56 -293 -56 -454
q0 -262 109 -420q87 -127 145 -127q76 0 76 182v47q-3 51 -25 81t-44 30q-33 0 -33 -43q0 -41 35 -101q4 -6 4 -14q0 -14 -11 -14q-8 0 -16 10q-66 91 -66 172q0 50 22.5 79.5t55.5 29.5q45 0 83 -58t48 -176q2 -25 2 -68q0 -76 -15 -126t-42.5 -75.5t-66.5 -25.5
q-95 0 -224 129q-89 91 -144.5 247t-55.5 343q0 117 23 243.5t75 261t133 265.5q55 90 108.5 146t103.5 82t93 26q56 0 90.5 -38.5t34.5 -100.5z" />
    <glyph glyph-name="parenright" unicode=")" horiz-adv-x="604" 
d="M580 444q0 -200 -35 -415q-20 -120 -70.5 -177t-114.5 -57q-53 0 -106 35.5t-86 91.5q-57 100 -57 182q0 62 29.5 99t72.5 37q49 0 86 -52.5t37 -150.5q0 -17 -8 -17q-15 0 -19 19q-11 48 -30.5 71t-40.5 23q-22 0 -37 -20t-15 -52q0 -34 21 -73q45 -74 100 -74
q42 0 74 52.5t39 164.5q6 64 6 148q0 200 -27 449.5t-69 449.5q-22 111 -62 159.5t-84 48.5q-38 0 -71 -31t-39 -69q-2 -4 -2 -12q0 -20 10 -32.5t22 -12.5q34 0 39 78q0 12 15 12q10 0 10 -16v-7q-7 -65 -32.5 -99t-55.5 -34q-24 0 -39.5 21.5t-15.5 58.5q0 21 6 45
q10 45 35.5 83.5t59.5 60.5t75 22q43 0 86 -28t85 -88.5t79 -157.5q129 -331 129 -736z" />
    <glyph glyph-name="asterisk" unicode="*" horiz-adv-x="649" 
d="M625 1456q0 -5 -15 -10q-18 -5 -87 -33.5t-89 -38.5q-16 -6 -16 -14l2 -3t4 -9q8 -11 81.5 -88t76.5 -80q2 -2 2 -6q0 -15 -33 -34.5t-53 -19.5q-4 0 -6 2q-3 6 -75.5 91.5t-85 101.5t-22.5 16q-5 0 -14 -6q-6 -6 -77 -79t-81 -83q-2 -2 -4 -2q-14 0 -34.5 38t-20.5 58
q1 2 1.5 3.5t0.5 3.5q6 4 52.5 41t94.5 67q-78 33 -194 98q-8 7 -8 19q0 16 10.5 31.5t19.5 15.5q4 0 6 -2q92 -16 130 -22.5t47.5 -8.5t11.5 -2h8q18 0 18 19q0 -4 9.5 91.5t9.5 104.5q0 13 24 13q28 0 31 -13q21 -183 23.5 -200t3.5 -21q7 -20 20 -20q2 1 3.5 1.5t5.5 0.5
q9 2 82.5 28.5t84.5 32.5q13 6 19 6q3 0 10 -10q7 -19 14 -39t9 -31v-8z" />
    <glyph glyph-name="plus" unicode="+" horiz-adv-x="1042" 
d="M1018 670q0 -36 -20 -75.5t-54 -66.5q-67 -51 -121 -51q-28 0 -44.5 14.5t-16.5 38.5q0 19 8 35q25 72 72 72q19 0 32 -14.5t13 -38.5q0 -6 -0.5 -10.5t-1.5 -10.5q-6 -12 -13 -12q-12 0 -12 14v4q2 0 2 4q0 9 -10 9q-8 0 -17 -10t-12 -23v-8q0 -23 23 -23t76 33
q43 28 43 70q0 24 -21 41.5t-63 17.5q-21 0 -45 -6q-98 -20 -306 -109q-6 -132 -6 -284q0 -68 2 -103v-2q0 -15 -9 -21.5t-23 -8.5t-19 -3q-5 0 -8 -0.5t-6 -1.5q-27 0 -27 29q-4 111 -16 346q-128 -55 -152 -65q-60 -23 -104 -23q-64 0 -100.5 38t-36.5 99q0 23 2 35
q10 60 40.5 90.5t63.5 30.5q47 0 47 -43q0 -29 -24 -62q-12 -10 -19 -10q-12 0 -12 15q0 6 2 8q4 16 4 20q0 21 -16 21q-13 0 -25.5 -14.5t-17.5 -43.5v-12q0 -22 17.5 -37.5t51.5 -15.5q31 0 62 10q93 28 213 74q-6 141 -6 287q0 40 2 61q0 39 13.5 53.5t49.5 14.5h8
q38 0 57 -5.5t19 -27.5v-2q0 -6 -7.5 -117.5t-12.5 -214.5q129 50 241 82q61 18 107 18q66 0 99.5 -31.5t33.5 -78.5z" />
    <glyph glyph-name="comma" unicode="," horiz-adv-x="307" 
d="M285 16q0 -82 -39.5 -148.5t-85.5 -74.5q-10 -2 -29 -2q-48 0 -77 25t-29 65q0 11 4 27q17 74 67 74q13 0 35 -11q6 -4 10 -13.5t4 -18.5q0 -21 -18 -27q-18 -3 -27.5 -15.5t-9.5 -27.5q0 -31 31 -37h2q26 0 49 33t23 67q0 2 -0.5 3.5t-1.5 3.5q-3 36 -19 56.5t-61 29.5
q-76 16 -76 98q0 54 24 80q22 24 70 24q42 0 78 -25.5t59 -88.5q17 -51 17 -97z" />
    <glyph glyph-name="hyphen" unicode="-" horiz-adv-x="983" 
d="M958 727q0 -36 -22 -73t-68 -70q-77 -58 -125 -58q-41 0 -41 41q0 43 46 99q8 8 16 8q18 0 18 -15q0 -2 -4 -6q-16 -16 -16 -30q0 -21 26 -21q23 0 50 14q55 27 55 78q0 31 -21 51.5t-59 20.5q-7 0 -29 -4q-48 -9 -150.5 -84t-182.5 -122t-201 -71q-43 -6 -74 -6
q-76 0 -113.5 36.5t-37.5 90.5q0 48 27.5 94t72.5 66q65 29 108 29q39 0 58.5 -19t19.5 -47q0 -37 -34 -68.5t-91 -31.5h-4q-18 0 -18 14q0 9 14 16q62 21 62 48q0 15 -16.5 24.5t-41.5 9.5q-17 0 -32 -6q-20 -7 -38 -37t-18 -59t19.5 -48.5t60.5 -19.5q13 0 41 4
q86 17 153.5 53t159 99t135.5 89t95 30q9 1 15.5 1.5t17.5 0.5q78 0 122.5 -35t44.5 -86z" />
    <glyph glyph-name="period" unicode="." horiz-adv-x="262" 
d="M238 96q0 -37 -21 -78q-26 -43 -78 -43q-57 0 -92 43q-22 29 -22 70q0 29 11.5 55t33.5 45q37 29 63 29q29 0 62 -27q43 -40 43 -94z" />
    <glyph glyph-name="slash" unicode="/" horiz-adv-x="817" 
d="M793 1440v-23q-16 -33 -103.5 -212.5t-207.5 -432.5t-205.5 -438.5t-149.5 -333.5q-6 -17 -18 -20q-8 0 -30 4l-22 4q-29 6 -32 22q0 17 2 27q53 134 137.5 347t150 378t149 366.5t138.5 323.5q18 40 47 49q52 0 76 -12q60 -27 68 -49z" />
    <glyph glyph-name="zero" unicode="0" horiz-adv-x="911" 
d="M887 784q0 -151 -49 -325q-43 -153 -118 -259.5t-166 -159t-183 -52.5q-93 0 -172.5 53t-126.5 158t-47 247q0 238 127 527q7 10 8 10q4 0 4 -8q0 -4 -2 -8q-51 -216 -51 -377q0 -142 35 -237.5t93.5 -142t131.5 -46.5q79 0 157 56t134.5 163t72.5 244q10 76 10 168
q0 157 -38 253.5t-97 138.5t-129 42q-64 0 -117.5 -31t-68.5 -76q-14 -39 -14 -78q0 -36 12.5 -56.5t32.5 -20.5q37 0 59 63q14 35 14 53q0 21 -12 21q-13 0 -29 -18.5t-16 -36.5v-7v-2q0 -10 -10 -10q-15 0 -15 14q0 5 2 7q9 43 32.5 68.5t47.5 25.5q39 0 39 -55
q0 -23 -12 -64q-19 -59 -52.5 -92t-66.5 -33q-35 0 -58.5 31.5t-23.5 87.5q0 53 21 113q31 87 97 133.5t151 46.5q71 0 141 -33t126.5 -99t91 -167.5t34.5 -229.5z" />
    <glyph glyph-name="one" unicode="1" horiz-adv-x="293" 
d="M246 1219q0 22 -25.5 -265t-25.5 -514q0 -125 8 -247t22 -222v-6q0 -15 -11.5 -22.5t-27 -10.5t-30.5 -6q-9 -2 -23 -2q-38 0 -41 29q-11 109 -18.5 259t-11 324.5t-3.5 350.5q1 84 1.5 154.5t0.5 181.5q0 49 41 49q10 0 15.5 -1t14 -2t22.5 -3q44 -4 66.5 -12.5
t25.5 -32.5v-2z" />
    <glyph glyph-name="two" unicode="2" horiz-adv-x="1194" 
d="M1169 369q0 -72 -26 -136t-74.5 -107.5t-114.5 -62.5q-81 -22 -149 -22q-61 0 -107 15.5t-114.5 49t-108.5 46.5q-53 -63 -127 -117q-145 -107 -242 -107q-40 0 -60.5 20.5t-20.5 53.5q0 45 37 97t109 90.5t167 48.5q16 2 49 2q26 0 64 -4q72 115 116 272.5t54 310.5
q2 21 2 55q0 213 -119 213q-45 0 -97.5 -30.5t-99.5 -81.5q-78 -88 -78 -174q0 -35 16 -56.5t40 -21.5q46 0 98 63q45 57 45 99q0 30 -22 30q-33 0 -72 -71q-7 -10 -15 -10q-12 0 -12 16q0 6 2 10q30 55 70.5 85t77.5 30q23 0 38 -16t15 -44q0 -57 -59 -145
q-39 -60 -85 -90.5t-92 -30.5q-48 0 -80 36t-32 97q0 89 63 195q73 121 169.5 192.5t185.5 71.5q81 0 133.5 -64t64.5 -198v-43q0 -148 -66.5 -351.5t-183.5 -365.5q37 -10 94.5 -32t92 -32t73.5 -10q88 0 193 76q94 70 94 148q0 39 -23.5 63.5t-60.5 24.5q-45 0 -88 -47
q-37 -50 -37 -72q0 -12 13 -12q36 0 86 59q2 4 6 4q8 0 8 -12q0 -6 -2 -10q-21 -48 -54 -74.5t-63 -26.5q-22 0 -36.5 15.5t-14.5 37.5q0 54 72 127q80 84 155 84q59 0 95 -48t38 -99v-14zM403 168q-24 3 -59 6h-20q-85 0 -131 -30t-46 -66q0 -19 14 -30t38 -11q54 0 133 61
q39 31 71 70z" />
    <glyph glyph-name="three" unicode="3" horiz-adv-x="985" 
d="M963 549q0 -193 -70.5 -332.5t-176 -209.5t-206.5 -70q-88 0 -144.5 52.5t-56.5 147.5q0 83 47 195q43 96 93 142t98 46q44 0 72 -36.5t28 -92.5q0 -37 -12 -78q-17 -51 -49.5 -83.5t-61.5 -32.5q-43 0 -43 67q0 33 13 78q0 8 10 8q8 0 10 -12q4 -70 23 -70q16 0 41 60
q16 35 16 67q0 51 -41 51q-34 0 -72 -38.5t-59 -106.5q-14 -46 -14 -88q0 -68 36 -106.5t91 -38.5q59 0 118.5 46.5t102.5 143t51 234.5q2 14 2 43q0 89 -22 175.5t-69.5 141.5t-119.5 55q-34 -76 -90 -153q-49 -66 -96 -98.5t-84 -32.5q-33 0 -53.5 23t-20.5 59
q0 40 27.5 88t80.5 90q81 64 173 98q6 46 6 94q0 54 -6 101q-89 -43 -476 -215q-10 -5 -16 -5q-18 0 -18 19q0 16 18 24q108 63 257 157t198.5 126t140.5 84q11 8 20 8q19 0 19 -28v-3q0 -190 -45 -339q9 1 16 1.5t19 0.5q122 0 202.5 -97t90.5 -311q2 -16 2 -49zM516 891
q-28 -12 -82 -43q-49 -32 -74.5 -70t-25.5 -65t20 -27q48 0 121 113q24 35 41 92z" />
    <glyph glyph-name="four" unicode="4" horiz-adv-x="1135" 
d="M1110 883q0 -102 -100 -195q-86 -71 -211 -74q2 -156 5 -266t9.5 -221.5t17.5 -245.5v-4q0 -22 -17.5 -41t-45.5 -24q-15 -5 -29 -5q-45 0 -45 35v43q0 187 -5.5 353t-16.5 387q-43 6 -93 16.5t-88 19t-65 13.5q-55 -112 -129 -176q-62 -56 -133 -56q-35 0 -68.5 15.5
t-52 42t-18.5 59.5q0 42 30 82q74 101 269 107q67 160 67 321q0 22 -4 64q-14 99 -58.5 146.5t-97.5 47.5q-55 0 -88 -43q-34 -50 -34 -86q0 -28 16.5 -45.5t38.5 -17.5q25 0 43 21.5t18 64.5q0 18 8 18t11 -16q4 -30 4 -43q0 -59 -28.5 -90t-69.5 -31t-70 29t-29 79
q0 57 43 125q41 67 89.5 101t97.5 34q62 0 113.5 -56t80.5 -167q23 -72 23 -182q0 -146 -45 -281q20 -2 32.5 -4t30.5 -4q50 -9 150 -18q-20 313 -43 483v6q0 39 84 47q27 6 49 6q21 0 31 -10t10 -37q2 -172 2 -493q104 9 161.5 49t69.5 113q2 8 2 22q0 33 -18 50.5
t-43 17.5q-29 0 -49 -19q-19 -18 -19 -37q0 -24 25 -24q24 0 47 31q2 2 8 2t6 -9l-4 -12q-40 -67 -86 -67q-25 0 -42 21t-17 50q0 38 33.5 70.5t105.5 40.5h14q51 0 84 -38t33 -95zM299 690q-10 2 -29 2h-14q-70 -3 -111 -37.5t-41 -70.5q0 -35 33 -35q42 0 96 53
q33 28 66 88z" />
    <glyph glyph-name="five" unicode="5" horiz-adv-x="922" 
d="M897 1202q0 -43 -35 -53q-169 -44 -287 -71t-292 -62q18 -61 39 -133t34 -117q119 43 217 43q71 0 131 -22.5t99.5 -64t62 -102t23.5 -133.5v-16q0 -116 -37 -210t-99.5 -159.5t-136 -99t-153.5 -35.5h-12q-95 0 -153 51t-58 136q0 100 82 223q77 112 159 112
q39 0 62.5 -26t23.5 -66q0 -37 -23 -80t-75 -88q-9 -6 -14 -6q-17 0 -17 15q0 4 4 12q45 53 45 96q0 22 -11 33.5t-30 11.5q-46 0 -84 -61q-24 -39 -24 -86q0 -59 40.5 -102.5t100.5 -43.5q107 0 203 129q68 91 68 209q0 119 -67.5 201t-190.5 82q-97 0 -220 -60
q-2 0 -3 -0.5l-3 -1.5q-14 0 -14 15q-3 31 -9 110t-9 122.5t-9 99.5q-140 -26 -164 -27h-2q-22 0 -22 33v2q0 3 -6 20t-6 27q0 13 10 16q96 17 178 39q-1 14 -10 64v8q0 14 8 14q11 0 18 -14q3 -7 10 -29.5t11 -34.5q112 29 202.5 55t204 60.5t148.5 44.5t37 10h4
q15 0 30.5 -20.5t18.5 -42.5q1 -7 1.5 -12.5t0.5 -14.5z" />
    <glyph glyph-name="six" unicode="6" horiz-adv-x="899" 
d="M877 455q0 -150 -91 -273q-67 -91 -184 -175.5t-227 -84.5q-155 0 -250 184q-46 91 -73 211t-27 254q0 376 204 646q102 135 213 135q75 0 127 -61t52 -142q0 -60 -31 -107q-53 -84 -113 -84q-32 0 -54 27.5t-22 69.5q0 41 27 88q6 14 16 14q9 0 9 -12v-8q-9 -27 -9 -52
q0 -41 27 -41q16 0 32 15t25 37q11 31 11 55q0 40 -22.5 65t-57.5 25q-39 0 -81.5 -33.5t-80.5 -101.5q-70 -137 -118 -323t-48 -353q0 -105 21 -188q30 -123 90.5 -182.5t136.5 -59.5q66 0 133.5 39t117.5 106t66 140q17 70 17 125q0 94 -38 150t-100 56q-85 0 -182 -106
q-104 -112 -104 -219q0 -49 24.5 -80t57.5 -31t59 33q39 51 39 88q0 39 -33 39q-37 0 -84 -59q-5 -9 -12 -9q-4 0 -8 5t-4 8q0 6 2 10q38 84 78.5 122t74.5 38t55 -29t21 -74q0 -87 -72 -162q-89 -92 -153 -92q-46 0 -73.5 46.5t-27.5 119.5q0 85 34 177t98 171
q137 172 272 172q104 0 172 -98t68 -231z" />
    <glyph glyph-name="seven" unicode="7" horiz-adv-x="967" 
d="M944 1331q0 -9 -4 -39q-11 -50 -70 -81.5t-159 -55.5q-17 -80 -52 -262.5t-65.5 -355.5t-67 -368t-49.5 -247q-3 -16 -14 -16q-7 0 -14 9t-7 17v2q17 195 34 391.5t31 328t32 263t39 216.5q-59 -9 -126 -19t-115 -20t-91 -24t-74 -34q-78 -50 -78 -102q0 -28 22 -45
t54 -17q38 0 76 25q22 13 22 41q0 31 -30 31q-23 0 -48 -17q-4 -2 -10 -2q-10 0 -10 11q0 9 10 16q51 35 94 35q32 0 53 -16t21 -40q0 -26 -26.5 -52.5t-83.5 -49.5q-52 -18 -93 -18q-55 0 -87.5 31.5t-32.5 78.5q0 61 49 120.5t139 90.5q51 19 114 30t152 19.5t129 14.5
q43 101 111 156t129 55q43 0 69.5 -26.5t26.5 -74.5zM860 1346q0 16 -9.5 25t-25.5 9q-51 0 -82 -96q-8 -19 -10 -39q37 12 70 29q57 31 57 72z" />
    <glyph glyph-name="eight" unicode="8" horiz-adv-x="748" 
d="M723 211q0 -88 -47 -172q-54 -91 -142.5 -140t-185.5 -49q-110 0 -197 66t-114 188q-6 28 -6 56q0 166 221 436q-4 3 -18.5 12.5t-27.5 18.5t-31 21t-28 18q-60 41 -91 104t-31 139q0 92 45.5 181.5t135 156t214.5 92.5q2 2 8 2q12 0 12 -8q0 -13 -16 -16
q-67 -19 -137 -72.5t-117 -130.5t-47 -156q0 -163 201 -276q45 52 80 93t64 78t52.5 72t32.5 58q33 76 33 129q0 50 -26.5 77.5t-67.5 27.5q-60 0 -115 -52q-49 -40 -49 -94q0 -51 34 -51q15 0 29 14q33 33 33 62q0 15 -8 28q-4 4 -4 9q0 10 10 10q2 0 4 -2q37 -13 37 -58
q0 -32 -27 -77q-29 -54 -84 -54q-33 0 -58.5 24.5t-25.5 63.5q0 63 72 142q97 104 209 104q62 0 102.5 -38.5t40.5 -106.5q0 -67 -37 -144q-23 -50 -67 -109.5t-89.5 -110t-117.5 -126.5q101 -60 176.5 -128t120.5 -148t45 -164zM586 219q0 88 -69 166t-216 178
q-89 -99 -140.5 -190t-51.5 -178q0 -43 12 -82q25 -80 89.5 -128t139.5 -48q131 0 195 129q41 93 41 153z" />
    <glyph glyph-name="nine" unicode="9" horiz-adv-x="991" 
d="M967 1303q0 -59 -37.5 -105.5t-95.5 -50.5h-11q-51 0 -83.5 37.5t-32.5 83.5q0 42 27 70t81 28h2q10 0 17.5 -5t7.5 -13q0 -10 -17 -13q-57 -8 -57 -49q0 -17 16 -33t37 -16h2q33 1 52.5 23.5t19.5 52.5q0 42 -37.5 74t-114.5 36q-22 2 -65 2h-47q3 -294 12 -624
q83 59 133 125q8 12 21 12q4 0 4 -4t-4 -12q-39 -115 -150 -195q17 -444 62 -797v-4q0 -19 -16 -37t-42 -24q-7 0 -12.5 -0.5t-13.5 -1.5q-41 0 -43 31q-9 144 -13.5 231t-15.5 278t-16 263q-85 -35 -172 -35q-80 0 -146.5 31t-115.5 97t-68 165q-10 68 -10 110
q0 184 121 288t309 138q-6 40 -15 78v6q0 35 78 43q6 2 19 2q38 0 66 -17t28 -52v-39h45q49 0 72 -2q109 -6 164 -57t55 -119zM532 741q-14 197 -31 362t-36 294q-94 -30 -156 -87t-89 -126.5t-27 -147.5q0 -61 14 -110q50 -207 213 -207q52 0 112 22z" />
    <glyph glyph-name="colon" unicode=":" horiz-adv-x="266" 
d="M223 471q0 -11 -6 -47q-8 -24 -27 -38.5t-40 -14.5q-23 0 -46 18q-43 40 -61 64.5t-18 56.5v12q3 28 26 52t58 24h14q54 -8 77 -44t23 -83zM244 98q0 -37 -23 -78q-23 -43 -78 -43q-54 0 -92 43q-22 33 -22 68q0 63 45 100q35 31 65 31q25 0 60 -29q45 -39 45 -92z" />
    <glyph glyph-name="semicolon" unicode=";" horiz-adv-x="307" 
d="M233 471q0 -29 -6 -47q-6 -25 -25 -39t-40 -14q-24 0 -45 18q-31 28 -44 41.5t-24.5 36t-11.5 43.5v12q3 28 27 52t57 24h14q54 -8 76 -44.5t22 -82.5zM283 16q0 -55 -18 -104.5t-47 -83t-58 -37.5q-10 -2 -31 -2q-48 0 -76 27t-28 65q0 17 2 27q21 72 67 72q20 0 37 -11
q12 -8 12 -32q0 -22 -16 -25q-37 -8 -37 -43q0 -34 29 -37h4q26 0 48 32t22 66v9q-3 35 -19.5 55t-60.5 29q-78 16 -78 100q0 52 26 80q26 24 70 24q96 0 135 -116q17 -41 17 -95z" />
    <glyph glyph-name="less" unicode="&#x3c;" horiz-adv-x="741" 
d="M717 877q0 -10 -6 -13q-8 -5 -81.5 -59t-369.5 -275q163 -115 232.5 -163t114.5 -80t54.5 -39t10.5 -8q2 -2 2 -9q0 -18 -18 -47.5t-33 -29.5h-5q-3 1 -49 27t-145 84t-391 231q-8 5 -8 14q0 12 14 25q7 5 34 24.5t97 68.5t197 138.5t258 181.5q2 2 8 2q19 0 51.5 -27
t32.5 -46z" />
    <glyph glyph-name="equal" unicode="=" horiz-adv-x="1001" 
d="M977 721q0 -27 -19 -27q-392 -27 -829 -37h-2q-24 0 -33.5 16t-9.5 48v10q0 45 20 45q84 -1 152.5 -2.5t153 -3.5t131.5 -2q42 0 94.5 1.5t98.5 2.5t108.5 2.5t107.5 1.5q12 0 16.5 -7.5t6 -17.5t2.5 -18q2 -4 2 -12zM934 524q0 -12 -12 -22t-21 -10q-54 -3 -157.5 -9
t-220.5 -14t-221 -21t-214 -36q-10 -2 -25 -2q-20 0 -29 14.5t-9 44.5q0 20 2 33q3 36 5.5 45.5t14.5 9.5q74 0 115.5 -0.5t89.5 -1.5q107 0 286 7t355 11q17 0 28 -15t13 -30v-4z" />
    <glyph glyph-name="greater" unicode="&#x3e;" horiz-adv-x="737" 
d="M713 682q0 -9 -11 -23q-10 -10 -53.5 -54t-179.5 -180t-274 -273q-5 -5 -11 -5q-24 0 -58 22.5t-34 41.5q0 2 4 10l6.5 6.5t44 45.5t106 110.5t230.5 243.5q-57 28 -186 90t-193 92t-69 32.5t-6 2.5q-4 0 -4 12q0 23 13 51.5t25 28.5h5q2 0 18.5 -5.5t78 -28.5t261.5 -98
t276 -104q11 -5 11 -18z" />
    <glyph glyph-name="question" unicode="?" horiz-adv-x="760" 
d="M735 1376q0 -100 -69 -207q-21 -32 -85.5 -126t-107.5 -163.5t-85.5 -155t-98.5 -220.5q-29 -65 -29 -119q0 -56 29 -83.5t71 -27.5q40 0 74.5 22t50.5 58q17 35 17 66q0 45 -41 45q-24 0 -39 -12q-23 -16 -23 -39q0 -13 6 -21t15 -8q12 0 20 8q9 6 17 6q6 0 6 -6
q0 -8 -8 -16q-20 -23 -43 -23q-21 0 -37.5 18.5t-16.5 41.5q0 20 13 39q61 96 131 96q35 0 57.5 -29.5t22.5 -79.5q0 -13 -4 -43q-15 -89 -85.5 -149t-146.5 -60q-55 0 -97 36.5t-56 109.5q-9 28 -9 69q0 85 34 193.5t86 216t114.5 214t124.5 200.5q53 82 53 145
q0 57 -38 88t-99 31q-52 0 -111 -24t-116 -73.5t-107 -123.5q-35 -55 -35 -103q0 -42 27 -69t67 -27q52 0 90 39q22 20 36 50t14 52q0 43 -35 43t-90 -47q-12 -8 -19 -8q-8 0 -8 12q0 13 10 23q88 96 154 96q29 0 46 -19.5t17 -51.5q0 -82 -84 -170q-97 -101 -184 -101
q-47 0 -76.5 33.5t-29.5 89.5q0 86 67 191q98 149 208 220.5t212 71.5q63 0 114.5 -27.5t80 -77t28.5 -114.5zM416 -14q0 -52 -25 -79.5t-63 -27.5q-34 0 -60.5 25.5t-29.5 66.5q-2 13 -2 37q0 57 57 76q21 8 43 8q61 0 74 -57q6 -28 6 -49z" />
    <glyph glyph-name="at" unicode="@" horiz-adv-x="1243" 
d="M1219 598v-8q-23 -91 -70.5 -188.5t-133 -189.5t-217 -155.5t-313.5 -74.5q-18 -2 -51 -2q-210 0 -309.5 105.5t-99.5 295.5q0 138 51 313t145 365q78 162 175 269.5t196.5 157.5t195.5 50q76 0 143.5 -30.5t118.5 -88t79 -136.5t28 -177q0 -145 -61 -295
q-82 -206 -166 -309t-154 -103q-49 0 -86 56q-20 32 -31 69q-61 -43 -135 -82q-80 -41 -129 -41q-50 0 -77 37t-27 103q0 124 80 297q36 80 75.5 144t87.5 114t103 79t111 29q26 0 40 -4q51 -9 75 -36.5t24 -61.5q0 -37 -23.5 -65.5t-58.5 -28.5q-33 0 -66 26q-8 8 -8 17
q0 12 10 12t15 -8q19 -17 37 -17q17 0 31 11.5t14 27.5q0 31 -52 47q-18 6 -34 6q-52 0 -106.5 -45.5t-102.5 -131.5t-86 -218q-19 -66 -19 -115q0 -50 21.5 -77t58.5 -27q56 0 129 55q-6 34 -6 72q0 123 59 238q38 75 113 75q40 0 65 -23t25 -65q0 -35 -20 -75
q-59 -124 -148 -205q20 -56 62 -56q48 0 111.5 74.5t121.5 214.5q55 135 55 258q0 99 -39 173.5t-106 113.5t-149 39q-61 0 -123.5 -22.5t-125 -69.5t-116.5 -117.5t-96 -163.5q-78 -177 -115 -319t-37 -250q0 -179 91 -263.5t235 -86.5h6q134 0 264 57.5t239 167t179 250.5
q10 20 20 20q7 0 7 -8zM842 834q0 20 -7.5 32.5t-19.5 12.5q-22 0 -45 -36.5t-37 -115.5q-6 -43 -6 -74v-16q8 9 53 59q62 77 62 138z" />
    <glyph glyph-name="A" unicode="A" horiz-adv-x="1468" 
d="M1444 317q0 -62 -10 -116q-36 -189 -131 -189q-76 0 -150 107q-43 61 -103.5 186.5t-123.5 274.5q-158 -41 -361 -88q-89 -286 -116 -365q-50 -144 -129.5 -215.5t-157.5 -71.5q-88 0 -117 70q-20 44 -20 98q0 115 90 215q36 43 86 43q45 0 63 -37q8 -16 8 -34
q0 -41 -34.5 -77t-59.5 -50l-10 -5q-12 0 -12 13q0 6 6 12q47 42 47 76q0 15 -9 24t-24 9q-20 0 -42.5 -19.5t-37.5 -54.5q-12 -34 -12 -60q0 -39 22 -63.5t56 -24.5q44 0 90.5 45t77.5 134q79 230 104 309q-92 -21 -94 -21h-12q-28 0 -31 39v19q0 27 31 37q102 30 143 43
q65 210 111 366.5t89 319t68 276.5q2 10 9 10q11 0 29.5 -36t25.5 -74q12 -69 31.5 -155.5t49 -194.5t54 -184.5t61.5 -178.5q40 10 63.5 17.5t35.5 9.5q6 2 16 2q33 0 33 -41v-12q-2 -7 -2 -17v-14q0 -18 -7.5 -27t-35.5 -18q-13 -4 -29.5 -9t-28.5 -8q96 -231 199 -399
q42 -68 82 -68q33 0 57.5 46t24.5 100v6q-1 45 -17.5 71.5t-33.5 26.5q-33 0 -33 -61q0 -27 8 -60v-6q0 -14 -10 -14q-11 0 -18 14q-25 59 -25 119q0 52 22 83.5t52 31.5q24 0 45 -20.5t34 -61.5t13 -103zM881 696q-91 226 -142 400q-8 -28 -35 -123.5t-63.5 -221.5
t-38.5 -133q211 61 279 78z" />
    <glyph glyph-name="B" unicode="B" horiz-adv-x="1212" 
d="M1190 498q0 -153 -195 -316q-83 -69 -232.5 -115.5t-297.5 -46.5q2 -54 6 -126q2 -2 2 -3v-2q0 -14 -9.5 -20.5t-25 -8.5t-20.5 -3q-4 0 -7 -0.5t-8 -1.5q-17 0 -31 12t-16 29q-1 31 -1.5 58t-2.5 75q-223 34 -295 190q-32 74 -32 135q0 58 30.5 93.5t79.5 35.5
q45 0 88 -26q68 -40 68 -121q0 -38 -17.5 -65t-44.5 -27q-48 0 -98 92q-4 4 -4 8q0 16 18 16q10 0 15 -8q26 -37 45 -37q16 0 16 19q0 30 -45 55q-13 8 -33 8q-25 0 -42 -17t-17 -50q0 -39 25 -88q62 -125 243 -140q0 55 -0.5 91.5t-1.5 80.5q0 182 4.5 407t16.5 464
q-84 -43 -156 -94q-47 -36 -47 -70q0 -37 35 -37q41 0 69 66q6 12 17 12q6 0 10 -4.5t4 -11.5q0 -5 -4 -13q-31 -60 -68.5 -88t-72.5 -28q-26 0 -45 19t-19 48q0 48 49 107q98 106 232 182q2 68 10 170q3 43 18.5 58.5t59.5 15.5h10q38 -2 58.5 -11.5t21.5 -35.5
q0 13 -12 -125q113 36 213 36q4 0 6.5 -0.5t5.5 -1.5q281 -3 281 -147q0 -75 -84 -229q-40 -72 -95 -142q93 -15 170 -71q152 -119 152 -252zM745 776q-68 0 -137 -28q-30 -15 -30 -43q0 -27 26 -27q5 0 29 8q69 37 112 90zM983 543q0 80 -44.5 141.5t-117.5 81.5
q-96 -108 -184 -133q-25 -8 -49 -8q-35 0 -54.5 18t-19.5 45q0 53 53 82q97 56 217 59q56 96 56 191q0 57 -22 104.5t-67.5 75t-111.5 27.5q-58 0 -109 -17q-14 -129 -29 -303.5t-26.5 -381t-11.5 -365.5v-56q119 15 224.5 59t164.5 103q131 134 131 277z" />
    <glyph glyph-name="C" unicode="C" horiz-adv-x="868" 
d="M844 618q0 -103 -58 -239q-48 -113 -127 -197.5t-173 -131t-183 -46.5q-80 0 -142.5 39.5t-99 123.5t-36.5 208q0 114 30 253t99 318q80 209 172.5 343.5t179.5 195.5t160 61q61 0 97 -39.5t36 -105.5q0 -77 -54 -166q-35 -62 -73 -95.5t-70 -33.5q-55 0 -55 84
q0 77 55 190q5 15 16 15q13 0 13 -15q0 -6 -2 -10q-15 -48 -15 -80q0 -45 27 -45q20 0 46.5 30.5t35.5 67.5q6 34 6 58q0 80 -63 80q-42 0 -98.5 -38t-115.5 -111t-107 -174.5t-75 -229.5q-39 -210 -39 -353q0 -126 27 -208.5t72.5 -120t103.5 -37.5q48 0 97.5 23.5t96 67.5
t81.5 101q82 132 82 215q0 39 -17 59.5t-45 20.5q-22 0 -51 -16q-29 -19 -45.5 -48t-16.5 -54q0 -27 17 -27q22 0 59 41q7 10 15 10q6 0 6 -10q0 -8 -4 -12q-25 -46 -62 -75.5t-69 -29.5q-41 0 -41 47q0 61 71 160q65 92 135 92q44 0 72.5 -41t28.5 -115z" />
    <glyph glyph-name="D" unicode="D" horiz-adv-x="1198" 
d="M1176 1075q0 -146 -121 -346q-94 -155 -198 -276t-208.5 -198t-210.5 -112q-9 -129 -18 -252q-3 -34 -58 -34h-4q-25 0 -36 6t-11 24q0 110 6 230q-40 -4 -59 -4q-12 0 -18 2q-109 3 -162 57t-53 131q0 62 31 111t75 49h4q35 0 61.5 -23.5t26.5 -62.5q0 -29 -14 -64
q-7 -10 -16 -10q-11 0 -11 8v2q2 11 2 25q0 28 -12.5 43.5t-30.5 15.5q-19 0 -31 -15t-12 -46q0 -17 2 -27q13 -57 57 -92t111 -35q33 0 51 4q9 221 13.5 314.5t13 280t14.5 335.5q-89 -51 -139 -125q-24 -33 -24 -57q0 -21 18 -21q33 0 59 66q3 8 11 8q12 0 12 -14
q0 -4 -2 -4q-29 -115 -90 -115q-22 0 -36.5 19.5t-14.5 50.5q0 57 49 120q61 83 162 144q3 117 6 196q2 50 21.5 75.5t66.5 29.5q36 4 47 4q23 0 33 -8t10 -31q0 -18 -2 -29q-17 -105 -25 -165q132 44 316 65q40 4 59 4q80 0 143.5 -29t99.5 -86t36 -139zM946 918
q0 123 -65.5 198.5t-186.5 75.5q-94 0 -180 -21q-12 -114 -20.5 -219.5t-17.5 -235.5t-15.5 -229t-18.5 -260q82 38 187 123q102 83 175 183.5t107.5 198.5t34.5 186z" />
    <glyph glyph-name="E" unicode="E" horiz-adv-x="954" 
d="M930 489q0 -64 -33 -143q-43 -101 -110 -185t-149 -147t-167.5 -97t-159.5 -34q-144 0 -200 121q-31 58 -31 158q0 101 33 225.5t88.5 240.5t130.5 214q-78 24 -168 90q-139 107 -139 244q0 73 44.5 140t136 121.5t230.5 88.5q112 28 207 28q78 0 131 -18.5t79 -49.5
t26 -69q0 -47 -42.5 -91t-113.5 -64q-36 -11 -61 -11q-47 0 -73 20t-26 46t27.5 44.5t81.5 18.5q14 0 14 -10q0 -7 -10 -10q-51 -11 -51 -37q0 -10 13 -19.5t30 -9.5q23 0 51 19q29 26 29 61q0 53 -49.5 94t-139.5 41q-41 0 -94 -12q-140 -31 -210.5 -118.5t-70.5 -194.5
q0 -58 20 -110t58 -95q54 -60 115 -82q87 97 174 129q91 35 160 35q41 0 63.5 -14t22.5 -35q0 -34 -52.5 -75t-154.5 -77q-103 -31 -164 -31q-33 0 -47 5q-36 -62 -66.5 -150t-54.5 -207q-14 -71 -14 -139q0 -98 29.5 -165.5t80 -102.5t113.5 -35q67 0 136.5 38.5
t132.5 115.5t108 190q16 46 16 76q0 48 -29 77t-67 29q-41 0 -68 -33q-26 -38 -26 -65q0 -22 16 -35.5t37 -13.5q31 0 47 28q6 13 14 13q11 0 11 -13q0 -4 -2 -6q-12 -32 -40.5 -49.5t-60.5 -17.5q-27 0 -55 13t-45 38.5t-17 58.5q0 44 33 103q50 80 152 80
q71 0 120.5 -44.5t49.5 -128.5zM625 963q0 24 -35 24q-12 0 -21 -2q-89 -19 -153 -98q14 -4 43 -4q87 0 149 51q17 14 17 29z" />
    <glyph glyph-name="F" unicode="F" horiz-adv-x="1516" 
d="M1491 1460q0 -66 -57 -139t-160 -133q-131 -74 -213 -74q-50 0 -77.5 23.5t-27.5 62.5q0 35 25 74.5t72 73.5q57 41 96 41q25 0 39 -14t14 -38q0 -19 -12 -39q-7 -10 -16 -10q-15 0 -15 15q0 6 2 8q6 9 6 18q0 23 -22 23q-13 0 -35 -17q-26 -20 -39.5 -45.5t-13.5 -46.5
q0 -19 14 -34t39 -15q48 0 121 47q36 23 57 61t21 80q0 31 -13.5 57t-43.5 41t-74 15t-99 -14q-12 -3 -183.5 -57t-277.5 -83q-15 -194 -24 -401q52 12 126 24.5t81 14.5q20 4 24 4q31 0 31 -37v-8q-3 -31 -9.5 -40.5t-29.5 -18.5q-98 -38 -227 -76q-4 -89 -6.5 -176.5
t-4 -173.5t-3 -157t-1.5 -181q1 -70 2 -147.5t2 -129t3 -110.5v-2q0 -28 -28 -43t-56 -15h-2q-84 0 -84 35q13 679 18 1053q-46 -14 -96 -25h-6q-33 0 -37 55q-2 5 -2 17q0 53 35 65q28 10 108 33q2 115 3 192.5t1 204.5q-71 -14 -143 -14q-204 0 -256 160q-12 33 -12 63
q0 59 39 93t88 34q35 0 59 -17t27 -48v-6q0 -33 -33 -68q-6 -6 -10 -6q-11 0 -11 12q0 6 2 10q7 23 7 33q0 37 -37 37q-25 0 -46.5 -19t-21.5 -51q0 -24 16 -49q46 -82 170 -82q66 0 164 25q1 79 1.5 142.5t0.5 148.5q0 46 29 66t70 20h2q60 0 86 -15.5t26 -60.5
q0 -14 -2 -23q-7 -77 -11 -115.5t-9 -94.5q361 147 596 147q130 0 197 -44.5t67 -115.5z" />
    <glyph glyph-name="G" unicode="G" horiz-adv-x="870" 
d="M848 874q0 -82 -41 -165q-81 -176 -205 -295q0 -49 -0.5 -79.5t-1.5 -66.5q0 -67 2 -189t2 -175q0 -130 -8 -211q-19 -200 -92 -307t-170 -107q-86 0 -161 84.5t-114 235.5q-34 136 -34 235q0 105 35 156t90 51q37 0 75.5 -22.5t71 -64.5t51.5 -95q27 -74 27 -144
q0 -57 -17.5 -91t-48.5 -34q-68 0 -145 158l-4 12q0 15 16 15q6 0 10 -4q50 -74 86 -74q31 0 31 49q0 31 -18 78q-39 82 -92 82q-41 0 -70 -46t-29 -118q0 -61 21 -121q22 -66 69.5 -109.5t100.5 -43.5q54 0 105 47.5t87 144.5q37 101 51.5 236.5t14.5 296.5q0 112 -2 165
q-70 -56 -144.5 -88t-136.5 -32q-90 0 -144.5 64.5t-54.5 191.5q0 107 43.5 257t135.5 343q73 154 149 251.5t143.5 138t126.5 40.5q45 0 77.5 -19t50.5 -48t18 -60v-2q-3 -79 -55 -136t-101 -57q-45 0 -45 58q0 35 17 77q6 19 20 19q8 0 8 -8v-7q-10 -22 -10 -47
q0 -37 25 -37q26 0 53 41q14 27 14 60q0 41 -21.5 70.5t-56.5 29.5q-45 0 -96 -59q-88 -98 -139 -206.5t-74.5 -212.5t-40.5 -245q-2 -20 -2 -57q0 -85 33.5 -127.5t87.5 -42.5q55 0 119 39q3 182 32 282q22 76 50 124.5t57.5 71t58.5 22.5q45 0 77 -48.5t32 -124.5z
M772 874q0 28 -11 43t-30 15q-23 0 -46.5 -28.5t-37.5 -84.5q-21 -89 -33 -217q87 82 142 207q16 36 16 65z" />
    <glyph glyph-name="H" unicode="H" horiz-adv-x="1389" 
d="M1364 43v-18q0 -75 -17 -138.5t-46 -106t-67.5 -65t-82.5 -22.5q-66 0 -131 53.5t-111 155.5q-23 53 -41.5 161t-27.5 242t-9 285q0 106 3 160q-49 -18 -105.5 -38t-89.5 -32q4 -78 4 -117q0 -110 -12.5 -219.5t-38 -206.5t-66.5 -176q-74 -149 -188 -149
q-75 0 -146.5 63.5t-119.5 167.5q-47 108 -47 197q0 62 24.5 99.5t67.5 37.5q63 0 147 -84q51 -51 51 -113q0 -40 -22 -67t-53 -27q-56 0 -97 84v6q0 10 11 10t16 -10q23 -41 49 -41q27 0 27 39q0 24 -15 49q-13 22 -30 37.5t-36 24t-34 8.5q-49 0 -49 -64q0 -62 47 -155
q70 -142 162 -142q48 0 88 42t59 114q70 271 70 520v27q-76 -25 -98 -29h-4q-23 0 -27 39v12q0 40 24 50q16 5 101 30q-9 112 -32 223.5t-60 206.5q-16 43 -40 66.5t-48 23.5q-22 0 -40 -22.5t-24 -67.5v-18q0 -34 14 -58t31 -24q24 0 33 47q0 14 10 14q12 0 12 -16
q-1 -39 -22 -65.5t-49 -26.5q-29 0 -54 33t-34 98q-2 12 -2 33q0 55 22.5 98t59.5 66.5t81 23.5q59 0 112.5 -48t82.5 -142q52 -163 76 -406q33 10 86.5 25.5t118.5 34.5q11 196 39.5 356t70.5 252q48 102 107.5 150t113.5 48q43 0 71 -25.5t28 -62.5q0 -64 -84 -114
q-8 -4 -13 -4q-14 0 -14 12q0 8 4 12q33 33 33 70q0 20 -10 33.5t-27 13.5q-28 0 -56.5 -40.5t-47.5 -127.5q-45 -204 -66 -530q117 32 131 36q10 5 19 5q20 0 20 -27v-6q-1 -21 -2.5 -22.5t-19.5 -8.5q-27 -8 -59.5 -20t-92.5 -33q-6 -117 -6 -236q0 -244 29 -424t94 -256
q55 -61 104 -61q44 0 73.5 54t33.5 165v18q0 69 -18 115.5t-40 46.5q-39 0 -39 -133v-31q0 -16 -14 -16q-13 0 -16 16q-10 52 -10 89q0 78 29.5 133t66.5 55q39 0 66.5 -73.5t27.5 -221.5z" />
    <glyph glyph-name="I" unicode="I" horiz-adv-x="1094" 
d="M1071 82q0 -91 -76 -174q-61 -64 -155 -64q-121 0 -213 107q-63 72 -117 184q-106 -172 -215 -172q-84 0 -170 98q-100 114 -100 209q0 68 51.5 107t118.5 39q38 0 67 -13q100 -41 100 -120q0 -38 -24.5 -65.5t-61.5 -27.5q-35 0 -63 25q-8 5 -8 12q0 15 14 15q4 0 6 -2
q18 -15 33 -15q35 0 35 54q0 36 -21 66t-59 30h-8q-34 -3 -52 -36t-18 -79q0 -88 46.5 -162.5t107.5 -74.5q81 0 160 137q5 9 26 51q-63 157 -95 343.5t-32 369.5q0 275 68 456q50 125 123 125q40 0 76.5 -39t54.5 -98q26 -78 39.5 -174.5t13.5 -204.5q0 -114 -18 -225
q-14 -89 -34 -177t-45.5 -170.5t-52.5 -148.5q19 -71 43 -139q35 -92 90 -138t111 -46q57 0 96.5 36t40.5 89q2 4 2 14q0 62 -29.5 96.5t-72.5 34.5q-58 0 -94 -59q-15 -22 -15 -39q0 -16 9.5 -26.5t21.5 -10.5q22 0 39 22q4 4 10 4q11 0 11 -12v-6q-22 -59 -68 -59
q-28 0 -49 24t-21 62q0 23 9 47q23 66 66 98.5t93 32.5t97.5 -28t77.5 -76.5t30 -106.5zM657 1034q0 104 -15.5 160.5t-39.5 56.5q-25 0 -46 -69.5t-30 -200.5q-4 -122 -4 -193q0 -220 29 -401q79 227 102 541q4 39 4 106z" />
    <glyph glyph-name="J" unicode="J" horiz-adv-x="774" 
d="M743 152q0 -188 -77 -294t-195 -106q-90 0 -186.5 67t-175.5 197q-93 153 -93 283q0 105 55.5 169t141.5 64q78 0 160 -57q47 -33 78 -73.5t46 -85t15 -80.5q0 -57 -27.5 -95.5t-70.5 -38.5q-73 0 -156 113q-4 8 -4 14q0 13 12 13q9 0 15 -9q33 -45 67 -45q30 0 50 32
t20 77q0 38 -17 73t-53 54q-34 20 -67 20q-63 0 -104.5 -69t-41.5 -162q0 -46 12 -94t37 -90q45 -73 103.5 -112.5t113.5 -39.5q83 0 138 79t55 224q0 172 -88 414q-73 197 -131 429.5t-58 391.5q0 27 5 62q9 93 58 143.5t114 50.5q61 0 113 -46t69 -130q8 -29 8 -59
q0 -52 -22 -80.5t-52 -28.5q-33 0 -58.5 32.5t-25.5 90.5q0 13 4 37q0 10 13 10q10 0 10 -12q0 -27 12.5 -44.5t28.5 -17.5q15 0 26 13.5t11 36.5t-13 53q-10 25 -29.5 39t-41.5 14q-32 0 -56 -25.5t-28 -74.5q-2 -19 -2 -58q0 -119 29 -259t70.5 -276t105.5 -325
q77 -224 77 -409z" />
    <glyph glyph-name="K" unicode="K" horiz-adv-x="1489" 
d="M1464 4q0 -114 -56 -181t-142 -67q-103 0 -207 101t-170 297q-67 203 -133.5 329t-145.5 197q2 -18 2 -53q0 -169 -22 -381q-13 -115 -49 -199.5t-89 -130t-110 -45.5q-73 0 -141 74q-90 98 -133 191t-43 165q0 55 23.5 88t62.5 33q70 0 143 -103q70 -99 70 -172
q0 -30 -12 -47.5t-31 -17.5q-25 0 -52.5 27t-52.5 84q0 2 -0.5 3.5t-1.5 2.5q0 10 10 10q4 0 6 -2q38 -49 64 -49q18 0 18 22q0 33 -36 80q-33 41 -66 41q-23 0 -36 -19.5t-13 -52.5q0 -60 47 -135q64 -100 131 -100q87 0 131 162q72 282 72 495q0 29 -2 43
q-50 -18 -148 -45q-43 -10 -69 -10q-62 0 -96.5 31.5t-34.5 74.5q0 44 35.5 75.5t97.5 31.5h16q99 -6 191 -39q-26 226 -132 510q-41 109 -90 109q-28 0 -49 -31t-24 -60q-4 -18 -4 -47q0 -49 18 -49q23 0 35 60q4 18 18 18q10 0 10 -20v-11q0 -66 -20 -100.5t-47 -34.5
t-46.5 30.5t-19.5 82.5v6q1 71 32.5 132.5t79 95.5t97.5 34q40 0 75.5 -25.5t55.5 -78.5q100 -246 123 -609q100 60 188 130t150 143q119 143 119 237q0 45 -26.5 68.5t-65.5 23.5q-49 0 -74 -28q-27 -28 -27 -49q0 -15 11 -15q22 0 59 64q3 6 10 6q5 0 10 -5t5 -11
q3 0 -2 -5q-15 -47 -45 -73.5t-60 -26.5q-21 0 -36 14t-15 35q0 41 47 88q43 44 90 65t96 21q76 0 128.5 -47.5t52.5 -126.5q0 -58 -32.5 -125t-101.5 -137q-102 -107 -202.5 -183.5t-249.5 -142.5q246 -155 387 -532q56 -153 130 -231t138 -78q40 0 65 32t25 89q0 25 -6 57
q-16 79 -50.5 117.5t-72.5 38.5q-25 0 -42 -19t-17 -49v-10q3 -31 18.5 -46.5t34.5 -15.5q21 0 36 16t15 40v6v2q0 10 13 10q8 0 8 -8q2 -8 2 -23q0 -45 -22.5 -69.5t-55.5 -24.5q-38 0 -69 36t-31 101q0 19 2 27q4 50 41.5 85.5t87.5 35.5q57 0 108 -54.5t76 -171.5
q10 -45 10 -102zM487 762q-67 29 -155 41q-4 2 -13 2q-22 0 -37.5 -15.5t-15.5 -35.5q0 -19 15 -32t41 -13q10 0 16 2q68 10 149 51z" />
    <glyph glyph-name="L" unicode="L" horiz-adv-x="1352" 
d="M1327 178q0 -68 -36.5 -126.5t-118.5 -96t-205 -37.5q-67 0 -149.5 12.5t-178.5 39t-217 71.5q-54 -48 -133 -84q-53 -20 -101 -20q-74 0 -118.5 45.5t-44.5 105.5q0 59 47 99t137 40q34 0 91.5 -10.5t117.5 -28.5q52 135 81.5 325.5t61.5 490.5q-107 -59 -211 -84
q-39 -13 -82 -13q-92 0 -92 76q0 73 66 150q36 41 75 61t72 20q60 0 60 -47q0 -51 -89 -123q-8 -8 -18 -8q-14 0 -14 15q0 10 8 18q5 5 15 13t16 16q12 12 12 26t-10.5 24.5t-24.5 10.5q-10 0 -22 -6q-32 -17 -50 -43t-18 -49q0 -28 24 -47t66 -19q54 0 111 25q69 29 112 53
q12 105 27 197q15 97 43.5 155.5t65.5 86.5t73 28q49 0 84 -40.5t35 -100.5q0 -63 -41 -127q-55 -86 -141 -160q-53 -407 -97.5 -621.5t-105.5 -330.5q39 -13 129.5 -45t150.5 -46t123 -14h15q137 4 204.5 55t67.5 117q0 31 -13.5 57t-39.5 41t-57 15q-20 0 -46 -6
q-55 -22 -55 -55q0 -14 12.5 -24.5t32.5 -10.5q26 0 53 16q10 4 11 4q12 0 12 -12q0 -6 -8 -14q-28 -25 -72 -25q-38 0 -67 21t-29 51q0 47 76 92q57 35 112 35q56 0 103.5 -33t74.5 -86t27 -115zM834 1362q0 18 -7.5 29.5t-19.5 11.5q-23 0 -44.5 -36t-31.5 -110l-8 -73
q60 54 85.5 99t25.5 79zM354 68q-35 14 -59 26q-42 19 -86 19q-41 0 -63.5 -19.5t-22.5 -48.5q0 -24 20.5 -41.5t55.5 -17.5t82 20q36 17 73 62z" />
    <glyph glyph-name="M" unicode="M" horiz-adv-x="1608" 
d="M1583 459q0 -83 -51 -215q-62 -163 -141 -254.5t-156 -91.5q-42 0 -80.5 28.5t-72 89.5t-60.5 154q-28 103 -47 263.5t-19 340.5q0 156 21 297q-16 -32 -67.5 -141.5t-90.5 -194.5t-55 -117q-16 97 -26.5 229.5t-10.5 174.5q-68 -273 -189.5 -510.5t-250.5 -237.5
q-63 0 -121.5 68t-114.5 221q-26 71 -26 142q0 78 34 126t91 48t126 -54q48 -35 69.5 -70t21.5 -67q0 -25 -15 -40t-39 -15q-67 0 -129 94q-6 9 -6 21t6 12q3 0 11 -6q48 -52 81 -52q21 0 21 23q0 16 -14.5 36.5t-42.5 37.5q-30 16 -50 16q-35 0 -55 -33.5t-20 -81.5
q0 -43 10 -73q29 -79 68.5 -125.5t82.5 -46.5q45 0 92 51.5t93 161.5q49 118 98 234.5t92 238.5t73 247.5t46 266.5q3 20 18 20t15 -20q0 -162 33 -649q34 52 71.5 116.5t89.5 158.5t93.5 170.5t56.5 102.5q5 13 16 13q6 0 11.5 -4.5t5.5 -12.5v-2q-26 -128 -46 -247.5
t-33.5 -254t-13.5 -266.5q0 -145 19.5 -283t62.5 -270q25 -69 60 -109t76 -40q90 0 174 184q47 106 47 178q0 54 -27 54q-23 0 -57 -37q-27 -33 -27 -51q0 -15 15 -15q14 0 43 23q2 2 8 2q12 0 12 -15q0 -11 -14 -22q-49 -35 -80 -35q-35 0 -35 45q0 31 18 66t48 61
q44 39 88 39q65 0 65 -96z" />
    <glyph glyph-name="N" unicode="N" horiz-adv-x="866" 
d="M842 950q0 -63 -20.5 -103t-49.5 -40q-24 0 -47.5 29.5t-43 94.5t-30.5 154v2q0 17 13 17q12 0 12 -17q5 -67 29 -108t47 -41q28 0 28 55q0 7 -4 35q-10 71 -37 112.5t-61 41.5q-35 0 -67 -49t-54 -148q-22 -102 -22 -244q0 -102 13.5 -225t36 -240t48.5 -217.5
t61 -210.5q1 -1 1.5 -2.5t0.5 -3.5q0 -16 -14 -16q-8 0 -16 8q-23 28 -52 81t-81.5 155t-126.5 241t-111 199q20 -192 20 -309q0 -175 -29 -297.5t-78 -198.5t-106 -108.5t-114 -32.5q-66 0 -119 37q-117 87 -117 182q0 51 35 84t90 33q37 0 74 -15q47 -18 69.5 -44.5
t22.5 -53.5q0 -43 -43 -43q-24 0 -47 18q-10 8 -10 17q0 12 12 12h4h6q23 0 23 21q0 24 -41 38q-14 7 -31 7q-31 0 -51.5 -23t-20.5 -57q0 -64 62 -103q35 -22 69 -22q41 0 75.5 28.5t55.5 75.5q56 117 56 369q0 116 -11 260.5t-28.5 289.5t-42 326t-31.5 234v8q0 29 19 29
q12 0 18 -19q36 -97 62 -164.5t73 -175.5t88 -192.5t84 -163.5v105q0 218 32.5 365t85.5 213.5t114 66.5q63 0 118.5 -65.5t81.5 -174.5q17 -66 17 -117z" />
    <glyph glyph-name="O" unicode="O" horiz-adv-x="891" 
d="M866 633q0 -156 -38.5 -279t-102.5 -206.5t-145 -128t-164 -44.5q-93 0 -174 54.5t-137 166t-72 277.5q-8 76 -8 170q0 169 33.5 315t98 256.5t156 176t203.5 75.5h2q14 0 14 -12t-12 -12q-135 -15 -247.5 -166.5t-112.5 -444.5q0 -69 10 -172q23 -202 105.5 -304.5
t189.5 -102.5q61 0 118 32.5t103.5 95.5t74 153.5t27.5 201.5q0 176 -73 375q-23 63 -52.5 107.5t-62 65t-63.5 20.5t-63 -21.5t-58 -62.5q-33 -51 -33 -105q0 -39 22 -63.5t54 -24.5q57 0 106 72q19 29 19 53q0 27 -23 27q-33 0 -90 -60q-4 -4 -10 -4t-6 8q0 1 4 11
q43 88 108 88q32 0 53 -22.5t21 -59.5q0 -47 -35 -99q-100 -149 -200 -149q-50 0 -80.5 41.5t-30.5 107.5q0 83 47 170q85 150 199 150q60 0 117.5 -47.5t102.5 -138t74.5 -233t30.5 -308.5z" />
    <glyph glyph-name="P" unicode="P" horiz-adv-x="1036" 
d="M1014 1337q0 -73 -30.5 -151t-90.5 -148q-144 -170 -375 -290q10 -320 18 -523t17 -329v-23q0 -42 -16 -59t-50 -17q-2 1 -4 1.5t-6 0.5q-57 2 -79.5 19t-22.5 67v15q16 347 16 655v137q-88 -30 -166 -30q-124 0 -176 92q-24 45 -24 86q0 54 40 90.5t89 36.5
q73 0 102 -72q4 -20 4 -33q0 -24 -8.5 -41.5t-24.5 -17.5q-18 0 -34 24q-7 10 -7 15q0 6 9 6q4 0 12 -4q4 -4 10 -4q19 0 19 22q0 16 -17 33q-16 16 -41 16t-43 -16t-18 -45q0 -22 12 -49q32 -72 123 -72q68 0 137 31q-7 367 -27 655q-93 -55 -151 -119q-10 -10 -10 -26
q0 -18 13.5 -31.5t29.5 -13.5q32 0 45 47q2 10 12 10q16 0 16 -16q0 -3 -0.5 -5.5t-1.5 -5.5q-17 -48 -45.5 -73t-60.5 -25t-55 24t-23 58q0 59 59 113q106 90 168 131q-4 46 -7 90t-9 104v6q0 28 18.5 59t32.5 34q56 16 62 16q15 0 18 -14q11 -144 14 -219q130 63 242 63
q86 0 151.5 -37.5t99.5 -103t34 -144.5zM809 1288q0 87 -52 141t-151 54q-45 0 -98 -13l-14 -2q3 -63 7.5 -192t8 -251t6.5 -194q96 69 161 148t98.5 159t33.5 150z" />
    <glyph glyph-name="Q" unicode="Q" horiz-adv-x="954" 
d="M930 18q0 -36 -43 -84q-13 -10 -25 -10q-29 0 -39 19q-47 78 -100 149q-125 -131 -281 -131q-145 0 -260 126.5t-149 367.5q-8 63 -8 145q0 139 33 283t100 266.5t167 198t228 84.5h2q14 0 14 -15q0 -12 -12 -12q-4 2 -10 2q-55 0 -125.5 -43t-135.5 -128t-106 -213.5
t-41 -287.5q0 -81 13 -168q26 -195 111 -299t192 -104q90 0 163 67q-91 115 -108 136q-8 12 -8 28q0 17 8 25q5 11 24.5 27t34.5 16q7 0 13 -6q36 -37 112 -131q41 67 62.5 155t21.5 197q0 176 -57 366q-21 71 -49 115.5t-60.5 66t-64.5 21.5q-75 0 -129 -94
q-29 -48 -29 -96q0 -42 24.5 -68t59.5 -26q62 0 111 71q18 31 18 56q0 26 -22 26q-35 0 -91 -59q-6 -6 -8 -6q-8 0 -8 10q0 2 4 10q48 80 107 80q25 0 41 -17.5t16 -48.5q0 -48 -41 -106q-43 -64 -91 -98.5t-89 -34.5q-43 0 -70.5 37.5t-27.5 99.5q0 75 40 164
q39 87 101 136.5t127 49.5q59 0 114 -41.5t99 -126.5t70 -222t26 -316v-21q-2 -87 -13.5 -159t-33 -132.5t-53.5 -117.5q33 -42 54.5 -68.5t39 -48t29.5 -35.5q8 -11 8 -27z" />
    <glyph glyph-name="R" unicode="R" horiz-adv-x="1522" 
d="M1497 117q0 -117 -51 -184.5t-131 -67.5q-66 0 -136.5 52.5t-127.5 156.5q-24 44 -71 169t-82 214.5t-88 188.5t-120 173q-43 -19 -69 -26q-40 -15 -80 -15q-17 0 -23 2q5 -70 12 -196.5t14 -252.5t13 -231.5t10 -173.5q2 -8 2 -20q0 -46 -15 -61t-50 -15h-12
q-56 2 -78.5 18t-22.5 68v14q12 258 12 500q0 505 -49 1055q-15 -5 -71 -33q-99 -52 -146 -106t-47 -95q0 -43 39 -43q21 0 41 13q49 33 49 63q0 16 -14 16q-5 0 -25 -8q-8 -4 -10 -4q-6 0 -6 8t6 17q22 30 51 30q19 0 30 -12.5t11 -34.5q0 -33 -31 -65q-66 -74 -129 -74
q-36 0 -56.5 25.5t-20.5 62.5q0 66 61.5 139.5t187.5 126.5q56 23 74 31l-4 47v6q0 25 16.5 41.5t34.5 24.5q19 6 41 6q36 0 39 -22l2 -56q235 78 383 78q95 0 158.5 -29t92 -80t28.5 -118q0 -91 -50 -202t-138 -213t-191 -167q49 -50 98 -130t111.5 -204.5t140.5 -290.5
q93 -192 176 -192q45 0 72.5 51t27.5 123q0 29 -2 41q-11 82 -46 133t-70 51q-45 0 -45 -80q0 -98 28 -98q9 0 15 14t6 41q0 23 -2 37l-1.5 3l-0.5 1q0 15 10 15q8 0 14 -11q17 -40 17 -73q0 -41 -17.5 -68.5t-42.5 -27.5t-46.5 40t-28.5 123v23q0 43 13.5 75.5t37 49
t49.5 16.5q62 0 120.5 -71t88.5 -207q14 -63 14 -125zM948 1292q0 74 -46 128.5t-126 84t-176 29.5q-59 0 -121 -12q6 -155 29 -564q12 5 41 5q34 0 63 -11q51 -16 90 -43q83 60 160 164q86 118 86 219zM643 868q-23 20 -29 25q-23 18 -45 18q-20 0 -32.5 -14t-12.5 -33
q0 -12 9 -22.5t24 -10.5q26 0 61 23z" />
    <glyph glyph-name="S" unicode="S" horiz-adv-x="903" 
d="M879 434q0 -165 -146 -385q-52 -79 -122 -136t-145.5 -84.5t-146.5 -27.5q-81 0 -148.5 34.5t-106.5 102t-39 158.5q0 33 2 51q13 114 66.5 202.5t124.5 137t130 48.5q43 0 68.5 -27t25.5 -80q0 -72 -49 -178q-28 -61 -60.5 -94t-58.5 -33q-22 0 -34.5 21.5t-12.5 54.5
q0 38 11 67q8 25 29.5 73.5t31.5 55.5q6 4 14 4q13 0 13 -12q0 -6 -4 -14q-19 -42 -19 -76q0 -33 19 -33q13 0 28 24.5t19 65.5v15q0 36 -16.5 56.5t-47.5 20.5q-35 0 -74.5 -35t-76.5 -108q-25 -46 -25 -106q0 -88 50.5 -155t133.5 -67q109 0 238 123q147 141 147 293
q0 83 -49.5 157t-150.5 128q-260 140 -260 340q0 124 100 256q51 65 108 109.5t116 65.5t110 21q81 0 131.5 -44t50.5 -121q0 -82 -63 -187q-43 -69 -91.5 -102t-91.5 -33q-37 0 -60.5 22.5t-23.5 59.5q0 44 36 95.5t108 98.5q8 7 18 7q19 0 19 -15q0 -12 -15 -24
q-74 -63 -74 -105q0 -24 27 -24q45 0 84 59q23 38 23 78q0 47 -26 82t-73 35q-85 0 -198 -129q-74 -79 -74 -162q0 -81 72.5 -151.5t197.5 -137.5q230 -123 230 -336z" />
    <glyph glyph-name="T" unicode="T" horiz-adv-x="1438" 
d="M1415 1473q0 -60 -34.5 -125t-94.5 -115q-107 -88 -196 -88q-46 0 -74.5 25t-28.5 61q0 71 98 125q5 2 11 2q10 0 10 -6q0 -3 -6 -11q-37 -36 -37 -67q0 -22 18.5 -33.5t48.5 -11.5q54 0 109 31q37 20 61.5 62t24.5 81q0 46 -32.5 75t-100.5 29q-51 0 -119.5 -18
t-161.5 -59t-204 -105q-2 -100 -3.5 -159t-3 -143t-2.5 -187t-2 -201q0 -86 3 -250.5t8 -277.5t11 -196t19 -187q2 -2 2 -3v-2q0 -17 -12.5 -24t-30.5 -10t-26 -4q-13 -5 -25 -5q-36 0 -39 31q-13 124 -29 382t-31 585t-20 547q-185 -93 -313 -93q-89 0 -138.5 43.5
t-49.5 108.5q0 81 67 145q81 78 144 78q33 0 51 -19.5t18 -47.5q0 -32 -27 -58t-77 -32h-2q-15 0 -15 14q0 7 9 10q51 14 51 49t-39 35q-21 0 -43 -14q-39 -24 -61.5 -54.5t-22.5 -58.5q0 -31 27.5 -50.5t76.5 -19.5q125 0 340 111v125v55q0 44 23 60.5t78 19.5h30
q57 0 62 -33v-8q0 2 -4 -112q162 89 283.5 128t211.5 39q71 0 117.5 -22t69 -60.5t22.5 -86.5z" />
    <glyph glyph-name="U" unicode="U" horiz-adv-x="1337" 
d="M1313 76q0 -95 -54 -169.5t-129 -74.5q-47 0 -97 37t-98.5 122t-88.5 218q-159 -270 -293 -270q-56 0 -97.5 54.5t-65.5 169.5t-25 286q-1 224 -19.5 392t-47.5 266t-65 143.5t-73 45.5q-30 0 -60 -28q-24 -28 -24 -54q0 -22 17.5 -38.5t37.5 -16.5q48 0 51 74q0 8 6 8
q11 0 11 -12q2 -8 2 -27q0 -65 -29.5 -100t-69.5 -35q-33 0 -55 24.5t-22 67.5q0 70 55 150q29 46 68 73t83 27q52 0 98 -43.5t83.5 -140.5t60.5 -267.5t23 -404.5v-94v-23q0 -147 34 -222t91 -75q91 0 198 170q-37 160 -59 334q-15 126 -15 229q0 152 29 254.5t74 152.5
t96 50q44 0 81.5 -36.5t60 -108.5t22.5 -164q0 -143 -47 -295q-45 -158 -113 -313q50 -231 121 -355q45 -82 90 -82q31 0 53.5 33.5t28.5 87.5q2 13 2 33q0 35 -9 54.5t-22 19.5q-17 0 -31 -34.5t-14 -100.5q0 -11 -6 -11q-16 0 -16 29q0 87 27 144t61 57q30 0 53 -50
t27 -145v-16zM1032 971q0 78 -15 122t-38 44q-30 0 -53 -77.5t-23 -221.5q0 -61 6 -136q2 -48 19 -178q104 249 104 447z" />
    <glyph glyph-name="V" unicode="V" horiz-adv-x="1485" 
d="M1462 1479q0 -54 -18 -125q-22 -81 -61.5 -123.5t-79.5 -42.5q-33 0 -55.5 27.5t-22.5 70.5q0 83 73 178q7 9 13 9q10 0 10 -13q0 -3 -0.5 -4.5t-1.5 -3.5q-41 -70 -41 -119q0 -35 20 -35q19 0 40 37t26 101q2 6 2 16q0 76 -59 76q-35 0 -81.5 -36.5t-92.5 -109.5
q-119 -182 -197.5 -383.5t-122 -393.5t-60.5 -338.5t-28 -289.5q-3 -26 -18 -26q-13 0 -19 16q-57 196 -119.5 413t-108.5 363.5t-97 272.5t-109 229t-107 103q-30 0 -48.5 -37.5t-18.5 -81.5q0 -25 4 -35q16 -70 43 -70q17 0 28 32.5t11 90.5q0 13 10 13q8 0 17 -17
q16 -75 16 -119q0 -60 -21 -91.5t-55 -31.5q-39 0 -72 45.5t-36 118.5v23q0 129 43.5 204.5t109.5 75.5q55 0 113 -57t104 -170q16 -32 52.5 -110.5t96 -223.5t120.5 -325q66 225 132 399.5t131 298t122 196.5t118 121q70 58 148 58q65 0 106 -44.5t41 -131.5z" />
    <glyph glyph-name="W" unicode="W" horiz-adv-x="1716" 
d="M1694 1360q0 -48 -11 -103q-20 -99 -63 -158t-86 -59q-33 0 -54.5 41t-21.5 127q0 33 2 54q4 70 25 104.5t47 34.5q18 0 31.5 -19.5t13.5 -54.5v-2q0 -8 -4 -8q-8 0 -19 18q-13 31 -24 31q-9 0 -16 -23.5t-7 -52.5q1 -6 1.5 -11.5t0.5 -14.5q11 -93 52 -93q46 0 69 127
q6 37 6 64q0 98 -69 98q-47 0 -113.5 -49.5t-139.5 -146t-134 -226.5q-57 -119 -94.5 -243.5t-63 -259t-46.5 -287.5t-34 -240q0 -16 -10 -16q-19 0 -23 22q-9 105 -40 260t-58.5 263.5t-48.5 185.5q-33 -89 -74.5 -235t-75.5 -289t-43 -193q-3 -14 -14 -14q-12 0 -12 14
q-6 207 -35 403.5t-74.5 359t-102 292.5t-120.5 221q-45 64 -78 64q-26 0 -40.5 -32.5t-14.5 -74.5q0 -29 6 -53q21 -58 51 -58q27 0 27 48q0 24 -8 49v4q0 8 10 8t16 -14q17 -46 17 -86q0 -39 -16.5 -60.5t-43.5 -21.5q-41 0 -76.5 50.5t-35.5 135.5q0 25 2 37
q7 83 39.5 131.5t78.5 48.5q61 0 135.5 -80.5t157 -259.5t158.5 -450l137 352q6 12 15 12q13 0 22 -22l102 -396q37 142 80.5 260t104.5 232.5t135 209.5t168 169q109 88 192 88q70 0 106 -59t36 -154z" />
    <glyph glyph-name="X" unicode="X" horiz-adv-x="1432" 
d="M1407 154q0 -111 -49.5 -187t-130.5 -76q-67 0 -144.5 59t-158.5 185q-64 96 -254 414q-19 -69 -55.5 -195t-67 -226t-58.5 -179q-37 -116 -102 -174t-137 -58q-81 0 -140 68.5t-59 173.5v8q1 58 17.5 101.5t42 64.5t51.5 21q34 0 57 -30.5t23 -82.5q0 -27 -11 -66
q-3 -14 -10 -14q-6 0 -6 12q-1 58 -15.5 86.5t-35.5 28.5t-38 -34.5t-17 -92.5q0 -57 21.5 -92t53.5 -35q37 0 77.5 47t72.5 137q37 104 78 234.5t68 223.5t75 263q-157 269 -281 463q-84 135 -149 135q-22 0 -34.5 -18.5t-12.5 -46.5q0 -65 49 -103q22 -18 41 -18
q18 0 18 16q0 19 -18 45q-2 5 -2 9t6 4t12 -6q41 -38 41 -72q0 -21 -14 -33t-35 -12q-27 0 -57.5 20t-61.5 64q-32 51 -32 114q0 66 35 113t90 47q52 0 111.5 -47.5t119.5 -146.5q51 -85 71.5 -118.5t58 -96l91.5 -152.5q82 288 152 477q35 95 89.5 141t114.5 46
q43 0 79.5 -21.5t59.5 -59.5t27 -87q2 -9 2 -23q0 -54 -23 -88.5t-52 -34.5q-25 0 -42.5 27.5t-17.5 81.5v8q0 12 8 12q10 0 13 -12q16 -63 41 -63q12 0 20 16t8 39q0 19 -8 39q-8 22 -24 37.5t-37 15.5q-77 0 -140 -195q-51 -158 -157 -544q204 -336 350 -543
q89 -127 172 -127q41 0 67.5 35.5t26.5 91.5q0 46 -20 96q-24 68 -47 68q-13 0 -22 -21t-9 -49q0 -22 4 -35v-6q0 -14 -10 -14q-11 0 -17 14q-20 64 -20 115q0 50 18.5 77t48.5 27q48 0 92 -64t56 -175q2 -15 2 -47z" />
    <glyph glyph-name="Y" unicode="Y" horiz-adv-x="1190" 
d="M1165 1432q0 -154 -63 -326q-70 -191 -176 -354q14 -250 14 -320q0 -129 -15 -244t-53 -239q-49 -159 -142 -238.5t-206 -79.5q-90 0 -176.5 49.5t-149.5 138.5t-85 206q-13 74 -13 137q0 74 16.5 127.5t45.5 81.5t65 28q56 0 112.5 -64t98.5 -188q21 -63 21 -116
q0 -42 -13 -65t-34 -23q-31 0 -62.5 49t-50.5 143v4q0 19 16 19q12 0 15 -13q14 -59 33.5 -93t33.5 -34q13 0 13 25q0 26 -21.5 82t-49.5 87.5t-52 31.5q-51 0 -51 -107q0 -45 12 -110q19 -93 61.5 -164t98.5 -107.5t116 -36.5q76 0 141.5 58t105.5 179t40 294q0 83 -8 160
q-4 39 -8 87.5t-7 73.5q-144 -157 -258 -157q-66 0 -117.5 58t-83 186t-38.5 327q-2 35 -2 105q0 75 4 191t4 153q0 69 -8.5 103t-30.5 34q-17 0 -45 -23q-43 -34 -71 -83t-38 -101q-2 -4 -2 -12q0 -41 27 -41q40 0 68 123q3 16 10 16q12 0 12 -27q2 -4 2 -10
q0 -79 -20.5 -132.5t-51.5 -81.5t-61 -28q-27 0 -45 24.5t-18 68.5q0 88 69 217q47 83 105 131.5t110 48.5q66 0 107 -74.5t41 -226.5q0 -32 -4 -96q-11 -108 -11 -238q0 -233 45 -356t121 -123q79 0 174 127q-6 120 -6 223q0 276 37 459.5t93.5 269.5t117.5 86
q59 0 100 -77.5t41 -202.5zM1083 1419q0 80 -28 80q-25 0 -56 -65.5t-55 -188.5q-24 -139 -24 -299v-43q85 171 124 302.5t39 213.5z" />
    <glyph glyph-name="Z" unicode="Z" horiz-adv-x="1368" 
d="M1343 1477q0 -10 -6 -19q-106 -130 -223.5 -292.5t-298.5 -427.5t-320 -469.5t-227 -325.5q99 19 177 24t235.5 13t236.5 25t146 61q90 62 90 131q0 38 -28.5 64t-71.5 26t-78 -23q-51 -29 -51 -76q0 -36 37 -36q38 0 88 45q6 6 12 6q10 0 10 -15q0 -8 -4 -12
q-27 -36 -75 -57t-99 -21q-48 0 -80.5 21.5t-32.5 60.5q0 32 17 62q40 76 105.5 113.5t137.5 37.5q85 0 148 -46t69 -126q3 -4 3 -14q0 -56 -30.5 -109.5t-91 -97t-147 -69.5t-196.5 -27q-388 -4 -754 -88q-16 0 -16 10v4q122 190 249 375t269.5 389t315.5 444.5t245 339.5
q-55 -6 -136.5 -11t-172 -9t-142.5 -6t-161 -4q-102 -1 -152.5 -41.5t-50.5 -96.5q0 -48 34 -83t89 -35h10q54 4 82 35.5t28 66.5q0 20 -9.5 32.5t-28.5 12.5t-41 -14q-14 -4 -13 -4q-8 0 -8 10q0 8 6 14q45 37 92 37q50 0 83.5 -38.5t33.5 -90.5q0 -64 -51 -109
q-40 -32 -88.5 -48.5t-93.5 -16.5q-90 0 -154.5 53.5t-73.5 153.5v24q0 116 88 158.5t253 48.5t392.5 16.5t401.5 55.5h6q16 0 16 -12z" />
    <glyph glyph-name="bracketleft" unicode="[" horiz-adv-x="633" 
d="M608 1630q0 -20 -20 -26q-3 -1 -21.5 -6.5t-161.5 -45.5t-225 -63l-41 -1305l311.5 3.5t49.5 0.5q10 0 18 -10.5t8 -21.5q0 -15 -12 -17q-32 -8 -229 -46t-226 -42q-2 -2 -6 -2q-14 0 -21 11t-7 24v2v92q0 155 7 529t19 858q1 19 8 26t11 8q66 17 269 33.5t255 16.5
q14 0 14 -19z" />
    <glyph glyph-name="backslash" unicode="\" horiz-adv-x="664" 
d="M639 45q-1 -14 -24 -27.5t-40 -13.5q-8 0 -8 6q-41 99 -102.5 262t-151 408t-165 445t-121.5 305q-2 6 -2 14q4 29 55 57.5t102 28.5q33 -3 41 -33q11 -37 72.5 -249.5t149.5 -518.5t139.5 -486.5t54.5 -193.5v-4z" />
    <glyph glyph-name="bracketright" unicode="]" horiz-adv-x="606" 
d="M582 1575q0 -62 -2 -149t-6.5 -233t-19 -487.5t-30.5 -646.5q-1 -19 -7.5 -26t-10.5 -8q-76 -20 -239.5 -32.5t-225.5 -12.5q-16 0 -16 18q0 17 20 27q3 1 27 8.5t111.5 35t211.5 66.5l72 1370q-139 12 -211.5 18t-94.5 7.5t-24 1.5q-6 1 -16 12t-10 21q0 13 14 16
q16 5 210.5 29.5t211.5 27.5q2 2 6 2q14 0 21.5 -9.5t7.5 -24.5v-2v-29z" />
    <glyph glyph-name="asciicircum" unicode="^" horiz-adv-x="545" 
d="M524 1120q0 -7 -19.5 -13.5t-33.5 -6.5t-14 6l-178 326q-96 -152 -140.5 -222t-57.5 -89.5l-15 -22.5q-7 -11 -17 -11t-19.5 9.5t-9.5 17.5q0 4 3 6q106 178 153 259.5t79 134t38.5 63t7.5 12.5q9 15 21 15q14 0 18 -15q125 -313 154.5 -389.5t29.5 -79.5z" />
    <glyph glyph-name="underscore" unicode="_" horiz-adv-x="1343" 
d="M1319 -98v-11q0 -33 -5 -51t-22 -18h-2q-178 10 -290 16t-229 10t-289 7.5t-343 3.5h-82q-10 0 -15.5 5.5t-8.5 15t-4 21.5t-2 15q-2 4 -2 14q0 33 24 33q95 4 238.5 6.5t339 3.5t340 1.5t297.5 0.5q21 0 33.5 -8.5t17 -24t4.5 -40.5z" />
    <glyph glyph-name="grave" unicode="`" horiz-adv-x="299" 
d="M279 1087q0 -15 -23 -28q-3 -1 -9.5 -7t-12 -9t-9.5 -3q-8 0 -20 13q-3 3 -35.5 30t-56.5 46t-42 35t-42 40q-9 9 -9 19q0 14 41 53q26 24 45 24t39 -20q18 -19 57.5 -83t65.5 -89q11 -15 11 -21z" />
    <glyph glyph-name="a" unicode="a" horiz-adv-x="1047" 
d="M1022 449q0 -8 -0.5 -12t-1.5 -9q-62 -228 -138.5 -335t-154.5 -107q-46 0 -88 35t-76 98q-36 62 -59 143q-75 -124 -160.5 -191t-157.5 -67t-116.5 63t-44.5 177q0 82 26 185.5t83.5 228.5t152.5 272q78 117 151 117q31 0 50.5 -24.5t19.5 -64.5q0 -48 -27 -106
q-22 -45 -51 -45q-18 0 -31 22.5t-14 61.5q0 16 14 16q11 0 11 -12v-4q0 -31 16 -31q9 0 20 13.5t15 31.5v13q0 20 -14.5 34.5t-34.5 14.5q-46 0 -82 -68q-82 -148 -123 -277.5t-41 -224.5q0 -83 29 -129.5t77 -46.5q71 0 152 96q34 42 55 74q-6 58 -6 121q0 138 29 297
q14 94 51.5 144.5t79.5 50.5q35 0 57.5 -34t22.5 -96q0 -36 -11 -83q-46 -206 -114 -363q35 -146 108 -258q38 -61 78 -61q58 0 106.5 91t120.5 267q8 12 11 12q5 0 7.5 -8.5t2.5 -21.5zM662 856q0 41 -31 41q-13 0 -24.5 -11.5t-16.5 -29.5q-31 -100 -31 -207q0 -38 8 -114
q44 85 69 168.5t26 150.5v2z" />
    <glyph glyph-name="b" unicode="b" horiz-adv-x="889" 
d="M864 711q0 -69 -27 -149.5t-81.5 -169.5t-137.5 -181q-116 -129 -219 -193q1 -42 1.5 -77t0.5 -91v-2q0 -27 -22.5 -43.5t-44.5 -21.5q-6 -2 -19 -2q-41 0 -41 33q-4 78 -4 145q-43 -10 -71 -10q-81 0 -127.5 53.5t-46.5 136.5q0 29 2 43q10 65 39 98t63 33t57 -27.5
t23 -74.5q0 -42 -23 -96q-9 -19 -16 -19q-8 0 -8 15v6q2 10 2 26q0 41 -12 61.5t-29 20.5q-18 0 -32.5 -21.5t-14.5 -58.5v-6q0 -59 23 -96t73 -37q42 0 96 29q0 69 -1 149t-1.5 163t-1.5 173.5t-2 181.5q-72 -32 -143 -71q-9 -6 -17 -6q-14 0 -14 12q0 11 14 22
q86 63 160 105q-2 148 -2.5 222t-2 191.5t-3.5 223.5t-4 162q-2 6 -2 14q0 52 18.5 68.5t69.5 21.5q16 2 27 3t18 2t20 1q48 0 48 -51q0 -12 -3 -18q-32 -374 -43 -764q148 69 263 69q97 0 147.5 -52.5t50.5 -145.5zM694 608q0 76 -42 119t-128 43q-61 0 -123 -18
q-6 -201 -6 -396q1 -58 1.5 -106t0.5 -125q52 45 92 86q95 95 150 202.5t55 194.5z" />
    <glyph glyph-name="c" unicode="c" horiz-adv-x="778" 
d="M756 444q0 -2 -0.5 -4t-1.5 -4q-63 -163 -143 -273.5t-162 -161t-160 -50.5q-75 0 -135 42.5t-94.5 121t-34.5 174.5q0 95 32 192q51 157 116 257.5t131.5 147t121.5 46.5q46 0 73 -28t27 -73v-6q-3 -75 -33.5 -114t-68.5 -39q-25 0 -44.5 20.5t-19.5 55.5q0 25 9 47
q6 12 14 12t8 -8q9 -45 37 -45q19 0 34 20.5t15 54.5q0 30 -14 45t-39 15q-27 0 -61 -21.5t-68 -67.5t-62.5 -118t-48.5 -176q-14 -66 -14 -129q0 -121 50.5 -187.5t131.5 -66.5q60 0 127.5 36.5t132.5 108.5t119 176q6 11 14 11q11 0 11 -11z" />
    <glyph glyph-name="d" unicode="d" horiz-adv-x="1034" 
d="M1010 324q0 -42 -17.5 -85.5t-53 -84.5t-85.5 -66q-84 -42 -188 -63q-1 -27 -23 -56.5t-37 -34.5q-45 -10 -57 -10q-21 0 -21 15q-2 22 -2 77q-135 7 -251 73t-183 178t-67 249v12q1 119 47.5 211.5t129 142.5t191.5 50q76 0 160 -25q4 79 8.5 201.5t11 293t9 270.5
t2.5 151q0 53 14.5 72.5t44.5 19.5q7 0 12 -0.5t11 -1.5q54 -7 75 -22t21 -56q0 -9 -0.5 -15.5t-1.5 -15.5q-9 -77 -26 -235t-25 -257t-17.5 -239.5t-13.5 -214.5q121 -61 231 -147q13 -9 13 -23q0 -22 -21 -22q-9 0 -20 8q-83 66 -207 100q-4 -118 -6 -205.5t-3 -146
t-1 -170.5v-121h34q87 0 144 25q59 27 86.5 65.5t27.5 77.5q0 30 -16 50t-39 20q-24 0 -45 -17q-31 -23 -31 -41q0 -11 8.5 -17.5t18.5 -6.5q11 0 22 8q5 4 11 4q10 0 10 -12q0 -14 -12 -23q-35 -28 -68 -28q-19 0 -33 12.5t-14 32.5q0 49 74 100q52 41 94 41q35 0 54.5 -27
t19.5 -71zM549 799q-15 1 -28 1.5t-32 0.5q-138 0 -228 -63.5t-91 -196.5q0 -149 102.5 -247t255.5 -140q2 190 21 645z" />
    <glyph glyph-name="e" unicode="e" horiz-adv-x="1100" 
d="M1075 528q0 -6 -2 -8q-39 -109 -128.5 -227t-199.5 -196.5t-208 -78.5q-54 0 -101 27q-74 42 -108.5 112t-34.5 162q0 43 6 87q-56 -13 -115 -13h-8q-77 1 -114 32.5t-37 78.5q0 28 13.5 56t37.5 45.5t49 17.5q59 0 104 -86q2 -2 2 -7q0 -14 -18 -14q-12 0 -20 10
q-26 43 -60 43q-21 0 -35 -16.5t-14 -36.5q0 -25 23 -41t69 -16h6q61 0 135 30q22 81 54.5 154.5t79.5 151.5t103 149.5t108 120.5q37 37 93.5 62.5t104.5 25.5q90 0 90 -92q0 -53 -37 -143q-68 -163 -201 -286.5t-288 -187.5q3 -132 98 -188q65 -39 133 -39q80 0 156 46.5
t135.5 118t100.5 150.5q5 13 16 13q12 0 12 -17zM795 981q0 43 -39 43q-52 0 -119 -76q-58 -64 -115.5 -174.5t-83.5 -218.5q134 89 275 262q82 106 82 164z" />
    <glyph glyph-name="f" unicode="f" horiz-adv-x="770" 
d="M748 1419q0 -29 -11 -86q-20 -101 -69 -161t-97 -60q-32 0 -50.5 29t-18.5 84q0 67 28 161q7 17 25 17q14 0 14 -8v-2q-14 -46 -14 -86q0 -29 9 -50.5t24 -21.5q17 0 34.5 31.5t28.5 89.5q4 12 4 37q0 66 -39.5 110.5t-93.5 44.5q-66 0 -114.5 -77.5t-51.5 -237.5
q-2 -33 -2 -105q0 -295 23 -671q52 26 77 38t33 17q18 10 27 10q22 0 27 -30q4 -22 4 -25q0 -15 -23 -33q-37 -26 -139 -96q7 -125 14.5 -255.5t12 -199t17.5 -254t15 -213.5q4 -56 4 -78q0 -117 -27 -201t-72.5 -124.5t-98.5 -40.5q-52 0 -102.5 41t-84.5 117
q-36 84 -36 149q0 48 19.5 74t51.5 26q34 0 69 -30.5t58 -87.5v-6q0 -8 -5.5 -15.5t-12.5 -7.5q-3 0 -6 6q-37 55 -72 55q-41 0 -41 -55q0 -38 27 -88q39 -68 90 -68q46 0 77 61.5t31 172.5q0 37 -2 57q-10 130 -22.5 296t-20.5 269.5t-22 311.5q-38 -25 -78 -45
q-8 -4 -12 -4q-21 0 -35 37q-8 32 -8 41q0 23 16 34q26 19 106 68q-15 244 -23.5 450t-8.5 318v90q4 118 31 204t71 142.5t95.5 82.5t107.5 26q61 0 117.5 -33.5t90.5 -96.5t34 -145z" />
    <glyph glyph-name="g" unicode="g" horiz-adv-x="768" 
d="M743 733q0 -54 -24 -121q-44 -125 -102.5 -226.5t-129.5 -180.5q0 -25 -0.5 -42t-1.5 -38q0 -47 5.5 -164t11 -194.5t11.5 -152.5t13 -206q4 -62 4 -90q0 -174 -43 -296t-113 -181.5t-151 -59.5q-61 0 -120 35.5t-106 102.5t-75 167t-31 224v12q0 124 21 207.5t56 124.5
t75 41q43 0 84 -45t66 -127q40 -131 40 -221q0 -66 -19 -99.5t-50 -33.5q-45 0 -87.5 69t-53.5 182v2q0 17 14 17q7 0 10 -6q10 -45 28 -68.5t34 -23.5q32 0 32 67q0 24 -10 76q-16 61 -43.5 94t-56.5 33q-32 0 -54 -38t-22 -108q0 -64 20 -145q43 -166 105.5 -250
t128.5 -84q58 0 106 59.5t77.5 169t29.5 253.5v20q-2 105 -3.5 165t-3.5 129.5t-3.5 128t-1.5 112.5q1 28 1.5 51t0.5 59q-123 -108 -234 -108q-60 0 -94.5 38.5t-34.5 110.5q0 23 2 35q22 201 92 349.5t189 270.5q103 109 184 109q34 0 54 -21t20 -55q0 -44 -31 -96
q-39 -59 -100 -59q-49 0 -49 36q0 21 24 50q7 10 17 10q8 0 8 -8q-2 0 -2 -4q-4 -18 -4 -23q0 -27 22 -27q17 0 34 16t17 38q0 11 -6 20q-12 37 -47 37q-54 0 -121.5 -96t-113.5 -275q-13 -46 -13 -94q0 -70 28 -113t77 -43q42 0 92 37q27 203 131 377q47 77 87 114.5
t67 37.5q36 0 36 -64zM655 610q0 31 -26 31q-28 0 -47 -37q-62 -104 -84 -264q66 75 145 229q12 25 12 41z" />
    <glyph glyph-name="h" unicode="h" horiz-adv-x="1024" 
d="M999 246q0 -43 -12 -99q-21 -108 -100.5 -198t-159.5 -90q-53 0 -94 46.5t-66.5 154.5t-25.5 272q0 71 2 112q1 11 1.5 20t0.5 23q0 163 -55.5 269t-149.5 106q-52 0 -109 -35q4 -112 7 -243.5t5 -220t4.5 -197.5t4.5 -203v-2q0 -18 -5.5 -25.5t-16 -10t-16 -4
t-17.5 -1.5q-40 0 -43 33q-16 345 -37 772q-33 -36 -68 -86q-2 -2 -8 -2q-16 0 -16 16q0 4 2 6q31 62 86 136q-25 482 -43 909q0 20 -0.5 30.5t-1.5 22.5q0 25 10 35.5t43 13.5q14 2 35 2q33 0 46 -13.5t13 -51.5q1 -105 4 -281.5t4.5 -260t5.5 -281.5q100 77 187 77
q66 0 119 -46.5t82.5 -137t29.5 -215.5q0 -43 -2 -66q-4 -94 -4 -131q0 -215 45.5 -320.5t110.5 -105.5q47 0 89.5 52t59.5 137q4 28 4 41q0 42 -14.5 72t-32.5 30q-31 0 -53 -76q-16 -48 -16 -71q0 -15 8 -15t21.5 16t17.5 27q5 5 6 5q4 0 8 -4t4 -9q0 -4 -2 -4
q-39 -80 -78 -80q-19 0 -31 21.5t-12 56.5q0 33 12 80q20 72 52.5 109.5t68.5 37.5q37 0 63.5 -41.5t26.5 -113.5z" />
    <glyph glyph-name="i" unicode="i" horiz-adv-x="236" 
d="M186 989q0 -31 -20 -50t-49 -19q-41 0 -68 41q-24 36 -24 57q0 22 20 45q30 31 59 31q27 0 46 -21q36 -43 36 -84zM213 -121q0 -16 -7.5 -22t-19 -8t-16.5 -3q-24 -4 -35 -4q-26 0 -26 23q-8 91 -20.5 294.5t-18 286.5t-21.5 234q0 14 -0.5 22t-1.5 17q0 39 18.5 57.5
t65.5 28.5q24 6 43 6q23 0 30 -11.5t7 -43.5v-8q-6 -259 -6 -459q0 -209 8 -406v-4z" />
    <glyph glyph-name="j" unicode="j" horiz-adv-x="430" 
d="M227 1083q0 -42 -21 -64t-50 -22q-28 0 -50.5 20.5t-25.5 55.5q0 10 -0.5 16.5t-1.5 14.5q0 44 49 61q18 6 35 6q51 0 59 -47q6 -21 6 -41zM406 694q0 -50 -17.5 -77t-44.5 -27q-28 0 -53.5 31t-32.5 84v2q0 12 10 12q7 0 11 -8q15 -58 40 -58q23 0 23 49q0 13 -2 19
q-3 28 -18 45.5t-35 17.5q-34 0 -62 -40.5t-32 -118.5q-3 -19 -3 -58q0 -94 26.5 -229t51 -245.5t43.5 -254t19 -311.5q0 -21 -0.5 -33.5t-1.5 -28.5q-3 -131 -41.5 -223t-100.5 -137t-135 -45q-96 0 -182 76.5t-127 212.5q-39 133 -39 233q0 108 42.5 164.5t104.5 56.5
q49 0 96.5 -32t82 -92t43.5 -140q4 -40 4 -55q0 -73 -23 -113.5t-61 -40.5q-47 0 -88 54q-56 70 -56 129q0 42 22.5 67t51.5 25q14 0 23 -6q16 -8 16 -17q0 -6 -5 -11t-13 -5h-2h-4q-35 0 -35 -39q0 -29 16 -53q27 -47 57 -47q20 0 35 22t15 59q0 26 -13 70q-16 51 -43.5 78
t-60.5 27q-50 0 -87.5 -53.5t-37.5 -143.5q0 -50 16 -119q22 -75 71.5 -118.5t109.5 -43.5q52 0 98.5 37.5t76 116.5t29.5 197q0 45 -2 67q-7 103 -20.5 189t-49.5 295.5t-48 303t-13 179.5v6q0 91 29.5 153t75.5 92.5t98 30.5q36 0 67 -15t52.5 -45t27.5 -69q5 -18 5 -49z
" />
    <glyph glyph-name="k" unicode="k" horiz-adv-x="1096" 
d="M1208 231q0 -4 -0.5 -6.5t-1.5 -5.5q-39 -149 -81.5 -245t-96.5 -149.5t-121 -53.5q-148 0 -354 266q-19 24 -98 121l6 -178v-3q0 -42 -62 -57q-8 -2 -26 -2q-46 0 -49 27q-2 33 -11 293q-18 -2 -51 -2q-104 0 -170.5 40t-66.5 95q0 16 2 24q30 99 112 99q67 0 170 -72
q-3 135 -6 278.5t-7.5 331t-10.5 351t-11 251.5v17q0 51 17.5 66t68.5 22q40 6 68 6q45 0 45 -53v-17q-31 -413 -31 -852q0 -241 7 -444q147 77 286 231q154 179 154 289q0 44 -22.5 66t-55.5 22q-55 0 -88 -49q-27 -37 -27 -64q0 -26 23 -26q37 0 80 72q4 8 12 8
q10 0 10 -17q0 -9 -6 -24q-24 -53 -58.5 -80t-66.5 -27q-53 0 -53 62q0 47 37 106q32 54 78 81.5t96 27.5q70 0 120 -50t50 -133q0 -147 -168 -329q-181 -196 -383 -271q32 -32 51 -57q216 -254 377 -254q171 0 287 270q3 13 16 13q10 0 10 -15zM299 326q-12 12 -15 14.5
t-15.5 15.5t-20.5 21q-50 47 -96 47q-17 0 -28 -8t-11 -21q0 -21 30.5 -42t89.5 -29q9 -2 25 -2q17 0 41 4z" />
    <glyph glyph-name="l" unicode="l" horiz-adv-x="758" 
d="M936 463v-6q-27 -108 -83 -201t-130.5 -147t-153.5 -54q-107 0 -198 101q-100 -252 -174 -389q-52 -96 -113 -142.5t-123 -46.5q-74 0 -125 61t-51 148v6q2 47 26 87t60.5 64.5t73.5 24.5q32 0 59 -24q35 -35 35 -76q0 -29 -18.5 -50.5t-45.5 -21.5q-21 0 -41 17
q-4 4 -4 14q0 7 4.5 14.5t10.5 7.5q2 0 4 -2q5 -2 11 -5.5t13 -6.5h7q18 0 18 23q0 18 -21 32q-13 9 -30 9q-29 0 -51.5 -29t-22.5 -64q0 -41 33 -67q30 -29 65 -29q72 0 139 100t142 269q42 98 61 149q-86 134 -145 371q-47 188 -69.5 355.5t-22.5 299.5q0 180 34.5 303.5
t90.5 185.5t121 62q69 0 133 -71t103.5 -211.5t39.5 -327.5q0 -92 -7.5 -176t-25.5 -189t-45.5 -216t-66.5 -234q-7 -17 -27 -76q89 -139 197 -139q87 0 165.5 84.5t126.5 214.5q5 10 13 10t8 -12zM506 1081q0 123 -22.5 215.5t-58 139.5t-75.5 47q-34 0 -64 -38t-48.5 -114
t-18.5 -184q0 -177 45 -383q50 -234 113 -367q66 199 97.5 373t31.5 311z" />
    <glyph glyph-name="m" unicode="m" horiz-adv-x="1436" 
d="M1413 170q0 -43 -24.5 -101t-73.5 -122q-110 -142 -201 -142q-146 0 -151 396q-3 155 -19 270t-43.5 170t-64.5 55q-55 0 -129 -110l6 -27q37 -117 37 -207q0 -92 -35.5 -142t-83.5 -50t-84.5 46t-36.5 124q0 108 74 237q10 19 39 66q-45 63 -91 63q-36 0 -70 -46.5
t-61.5 -156t-44.5 -286.5q-6 -66 -14 -144t-8 -133q0 -32 -12 -32q-8 0 -25 22q-93 140 -182.5 372t-89.5 437q0 79 14 145q17 77 51.5 114.5t75.5 37.5q33 0 63.5 -23.5t49 -65t18.5 -93.5q0 -30 -10 -78q-10 -41 -22.5 -82t-27.5 -80t-29 -72.5t-30 -72.5q41 -167 70 -260
q5 -17 10 -17q8 0 8 17v2v47q0 151 30.5 305.5t83.5 253t114 98.5q88 0 174 -209q64 88 124 132t111 44q68 0 110 -80t46 -233q4 -119 8.5 -246.5t14.5 -224.5t30 -153t55 -56q42 0 111 92q51 68 51 140q0 39 -16 63.5t-39 24.5q-28 0 -55 -39q-17 -26 -17 -39q0 -15 12 -15
q9 0 31 11q2 2 6 2q11 0 11 -15q0 -13 -13 -20q-39 -21 -63 -21q-29 0 -29 29q0 32 27 76q30 51 68 77.5t73 26.5q24 0 44.5 -12t32 -34t11.5 -56zM705 352q0 65 -33 178q-64 -108 -64 -192q0 -41 14 -65.5t33 -24.5q21 0 35.5 27t14.5 77zM240 782q0 46 -13.5 75.5
t-31.5 29.5q-22 0 -39 -39.5t-17 -114.5q0 -34 6 -84q4 -21 11.5 -71t11.5 -68q72 159 72 272z" />
    <glyph glyph-name="n" unicode="n" horiz-adv-x="1229" 
d="M1204 354q0 -95 -74 -235q-32 -64 -75 -118.5t-85 -83t-79 -28.5q-57 0 -91 72t-34 225q0 101 10 191q10 81 10 176q0 136 -27 207t-79 71q-75 0 -178 -161q26 -164 26 -385q0 -68 -2 -105q-1 -75 -16 -132.5t-40.5 -97.5t-54 -58.5t-59.5 -18.5q-53 0 -92 56.5
t-39 154.5q0 78 23 156q56 221 145 405q-28 130 -78 202.5t-104 72.5q-64 0 -113 -101q-30 -59 -30 -98q0 -43 32 -43q19 0 41 17t37 46q6 16 6 25q0 22 -18 22q-13 0 -31 -18q-4 -4 -8 -4q-10 0 -10 12q0 3 4 13q27 36 69 36q46 0 46 -47q0 -48 -62 -131q-50 -67 -90 -67
q-28 0 -43.5 31.5t-15.5 80.5q0 99 49 176q40 63 93 103.5t109 40.5q62 0 113.5 -55t85.5 -173q78 116 154.5 173t142.5 57q72 0 115 -67t43 -195q0 -47 -6 -97q-16 -143 -23.5 -244t-7.5 -173q0 -230 63 -230q50 0 129 125q52 77 52 148q0 26 -10.5 43.5t-26.5 17.5
q-35 0 -78 -70q-12 -18 -12 -30q0 -15 14 -15q17 0 45 25q2 2 6 2q8 0 8 -12q0 -11 -8 -19q-53 -59 -84 -59q-24 0 -24 39q0 28 17 70.5t52 89.5q58 73 111 73q57 0 57 -84zM428 326v28q-3 89 -12 162q-22 -46 -27.5 -59t-23.5 -51q-78 -183 -78 -306q0 -98 43 -98
q22 0 44.5 36t38 109.5t15.5 178.5z" />
    <glyph glyph-name="o" unicode="o" horiz-adv-x="631" 
d="M606 487q0 -64 -10 -118q-33 -186 -128 -290t-204 -104q-65 0 -120 40.5t-87 119.5t-32 191q0 47 2 71q13 138 58.5 228.5t110 135t132.5 44.5q21 0 41 -6q14 -3 14 -8q0 -6 -5.5 -9.5t-12.5 -3.5q-125 -10 -188.5 -114t-63.5 -240q1 -6 1.5 -12t0.5 -15
q6 -124 54.5 -190t115.5 -66q47 0 92.5 29.5t80 87t48.5 129.5q10 41 10 90q0 55 -15.5 95.5t-41.5 61.5t-56 21q-36 0 -70 -28.5t-59 -87.5q-16 -36 -16 -72q0 -34 16 -54t37 -20q42 0 72 56q12 27 12 45q0 26 -18 26q-19 0 -43 -24q-4 -4 -8 -4q-9 0 -9 10q1 2 1.5 4
t0.5 6q32 68 72 68q21 0 33 -19t12 -51q0 -45 -24 -86q-28 -48 -64.5 -76.5t-66.5 -28.5q-32 0 -54 28t-22 79q0 57 28 123q38 87 95.5 134.5t115.5 47.5q71 0 116.5 -63.5t45.5 -180.5z" />
    <glyph glyph-name="p" unicode="p" horiz-adv-x="952" 
d="M928 883q0 -91 -64 -234q-61 -138 -162 -244.5t-231 -168.5q16 -482 41 -723v-27q0 -85 -68 -92q-10 -2 -24 -2q-35 0 -47.5 17.5t-12.5 55.5v7q5 230 5 276q0 109 -9 447q-44 -14 -106 -21h-4q-21 0 -21 14t15 17q94 29 114 37q-9 280 -35 587q-79 -44 -151 -102
q-72 -61 -72 -123q0 -33 20.5 -56.5t45.5 -23.5q40 0 63 56q6 15 6 32q0 31 -14 31q-13 0 -39 -39q-2 -4 -10 -4q-6 0 -6 6q0 4 2 6q13 42 34.5 62t43.5 20q19 0 32 -16t13 -43q0 -37 -25 -80q-25 -45 -66 -69.5t-83 -24.5q-40 0 -64 22.5t-24 65.5q0 64 53 147
q70 107 235 211q-2 45 -10 125v6q0 17 8.5 25.5t17.5 11.5t25 6q31 11 52 11q26 0 26 -17q8 -61 10 -98q99 46 195 65q48 9 98 9q95 0 144 -41.5t49 -126.5zM780 719q0 81 -57.5 131.5t-155.5 50.5q-63 0 -118 -18q9 -180 20 -586q180 103 283 303q28 57 28 119z" />
    <glyph glyph-name="q" unicode="q" horiz-adv-x="1051" 
d="M1159 -539q0 -73 -51 -139q-55 -73 -95.5 -106t-66.5 -33q-37 0 -37 53q0 32 16 66.5t40 56.5q11 8 20 8q12 0 12 -12q0 -6 -6 -12q-18 -25 -18 -45q0 -19 14 -19q20 0 55 39q39 51 39 82q0 39 -53 39q-24 0 -57 -10q-62 -23 -126.5 -85.5t-116.5 -144t-83 -164.5
q-14 -36 -35 -36q-12 0 -22 12t-10 18q-10 481 -52 1178q-128 -74 -241 -74q-118 0 -189 73.5t-71 184.5q0 90 47.5 180t146.5 172q108 92 268 138l-4 80v2q0 14 6 22t12 10t17 4t17 2q17 5 36 5q42 0 45 -25q5 -58 5 -74q24 4 71 4q166 0 258 -82q62 -55 62 -110
q0 -44 -37.5 -74.5t-91.5 -30.5q-50 0 -95 29q-65 43 -65 88q0 22 16.5 35.5t40.5 13.5q17 0 25 -2q10 -3 10 -16q0 -10 -10 -10q-4 0 -6 2h-11q-26 0 -26 -21t43 -45q24 -12 43 -12q24 0 39.5 16.5t15.5 40.5q0 28 -21 54t-65 42q-66 23 -131 23q-21 0 -61 -4
q2 -39 22 -496q34 23 74 60q8 8 20 8q17 0 17 -17q0 -7 -10 -20q-39 -41 -97 -90q8 -174 12.5 -266.5t11 -203.5t13.5 -201t19 -232q222 176 350 176q50 0 76 -29.5t26 -75.5zM522 285q-10 172 -16 280t-14 240q-119 -54 -197 -150q-66 -78 -66 -174q0 -58 24 -107t69 -78.5
t104 -29.5q45 0 96 19z" />
    <glyph glyph-name="r" unicode="r" horiz-adv-x="856" 
d="M831 969q0 -66 -32 -142q-29 -63 -63.5 -103.5t-70 -59.5t-67.5 -19q-41 0 -69.5 30t-28.5 77q0 42 28 96q52 88 88 88q33 0 33 -59q0 -16 -8 -58q-4 -8 -12 -8q-6 0 -6 10v4q2 11 2 29q0 25 -9 25q-18 0 -36 -58q-9 -18 -9 -39q0 -23 12.5 -39t30.5 -16q23 0 48 23
t47 71t22 99q0 53 -30.5 85.5t-86.5 32.5q-80 0 -184 -69q-66 -47 -158 -131q9 -149 16.5 -296.5t10 -198.5t11 -209.5t16.5 -276.5v-4q0 -16 -9 -22.5t-25 -9t-22 -3.5q-12 -2 -20 -4t-14 -2q-24 0 -27 22q-14 147 -19.5 205.5t-14 162.5t-18.5 233t-22 263
q-56 -57 -88 -100q-6 -6 -12 -6q-10 0 -10 20q0 6 2 11q41 73 100 157q-10 110 -27 244q-4 16 -4 45q0 34 17.5 52t62.5 30q28 6 45 6q21 0 27.5 -13t9.5 -48q2 -29 4 -61.5t4 -84.5q100 103 198 154t179 51q87 0 137.5 -50.5t50.5 -135.5z" />
    <glyph glyph-name="s" unicode="s" horiz-adv-x="786" 
d="M762 51q0 -107 -50.5 -207t-144 -162.5t-217.5 -62.5q-18 0 -28 2q-146 9 -221.5 90.5t-75.5 194.5q0 66 29 128t85 102t133 46h13q50 0 82 -29.5t32 -74.5q0 -90 -112 -156q-8 -4 -17 -4q-16 0 -16 8l4 8q41 41 41 95q0 36 -19.5 61t-48.5 25q-25 0 -47 -17
q-80 -54 -80 -143q0 -52 28 -100t79.5 -77.5t116.5 -29.5q42 0 78 10q60 16 107 53.5t71 88t24 110.5q0 64 -29.5 126.5t-93 121t-151.5 98.5q-106 51 -161.5 125.5t-55.5 161.5q0 175 194 330q76 61 141 87.5t119 26.5q70 0 111 -41t41 -106q0 -94 -80 -186
q-102 -119 -190 -119q-39 0 -61.5 23.5t-22.5 60.5q0 54 51.5 113.5t159.5 101.5q4 2 8 2q14 0 14 -10q0 -11 -14 -19q-52 -27 -77.5 -60.5t-25.5 -62.5q0 -34 31 -34q49 0 113 90q43 59 43 104q0 38 -27.5 60t-71.5 22q-47 0 -102.5 -26t-103.5 -76q-123 -126 -123 -236
q0 -170 288 -287q115 -47 172.5 -141t57.5 -209z" />
    <glyph glyph-name="t" unicode="t" horiz-adv-x="729" 
d="M836 207q0 -132 -80 -293q-69 -141 -144.5 -207.5t-150.5 -66.5q-72 0 -132 60t-94 168t-34 243v32q9 305 47 752q-115 -32 -158 -39h-10q-36 0 -53 41q-2 4 -2 14q0 30 51 58q33 21 186 86q13 138 19.5 216.5t15.5 174.5q14 154 14 233q0 117 -17 179.5t-52 62.5
q-38 0 -95 -80q-26 -35 -26 -72q0 -30 18 -30q33 0 72 98q3 8 8 8q6 0 6 -10v-6q-20 -83 -52 -123.5t-64 -40.5q-27 0 -46.5 26.5t-19.5 65.5q0 59 41 117q48 69 102.5 111.5t104.5 42.5q72 0 116 -96.5t44 -309.5q0 -76 -7 -160q-18 -252 -26 -344q127 51 246 88h8
q19 0 24.5 -20t12.5 -58v-10q0 -26 -16.5 -51t-33.5 -31q-50 -23 -256 -92q-13 -150 -19.5 -223.5t-13 -151t-9.5 -148t-3 -153.5q0 -57 4 -139q13 -152 58 -224.5t108 -72.5q62 0 121 62t90 163q21 60 21 105q0 41 -16.5 60.5t-41.5 19.5q-26 0 -53.5 -21t-40.5 -53
q-12 -31 -12 -47q0 -27 18 -27q28 0 60 56q3 10 12 10q6 0 6 -10v-7q-18 -59 -45.5 -89.5t-54.5 -30.5q-47 0 -47 71q0 62 45 144q74 133 151 133q44 0 69.5 -44t25.5 -120z" />
    <glyph glyph-name="u" unicode="u" horiz-adv-x="1104" 
d="M1266 342q0 -6 -2 -10q-90 -245 -186.5 -365.5t-182.5 -120.5q-123 0 -195 207q-48 -86 -97.5 -135t-94.5 -49q-64 0 -114 112t-79 357q-9 81 -18 172.5t-18 138.5t-25.5 79t-44.5 52q-16 13 -39 13q-38 0 -68 -33.5t-30 -87.5v-2q3 -68 49 -68q19 0 34 17.5t15 46.5
q0 18 -2 28q-2 2 -2 6q0 13 8 13t14 -13q31 -51 31 -104q0 -48 -25.5 -77.5t-62.5 -29.5q-41 0 -72 40.5t-34 117.5v15q0 100 55 170.5t125 70.5q65 0 113 -67.5t61 -204.5q14 -141 33 -243.5t44 -172.5t54.5 -104.5t62.5 -34.5q52 0 103 71q-27 127 -27 273v20
q3 154 24 277t54.5 206.5t71 126t71.5 42.5q35 0 58.5 -49.5t23.5 -141.5q0 -174 -84 -440q-40 -134 -90 -250q34 -240 150 -240q47 0 100.5 43t110.5 128.5t106 197.5q6 12 15 12q6 0 6 -10zM895 803q0 94 -31 94q-18 0 -37.5 -45t-35.5 -136.5t-23 -236.5
q0 -30 -0.5 -48.5t-1.5 -41.5q1 -18 1.5 -33.5t0.5 -40.5q33 78 61 160q36 107 51 186.5t15 141.5z" />
    <glyph glyph-name="v" unicode="v" horiz-adv-x="1135" 
d="M1110 952q0 -48 -18 -110q-24 -69 -72 -109.5t-90 -40.5q-60 0 -60 66q0 57 52 143q2 4 6 4q6 0 10 -3.5t4 -8.5v-4q-16 -44 -16 -80q0 -49 30 -49q23 0 42.5 25t25.5 67q2 8 2 27q0 53 -27 85.5t-67 32.5q-31 0 -60.5 -24t-50.5 -72q-37 -93 -73.5 -221.5t-69 -279.5
t-55.5 -298t-37 -282q-3 -17 -13 -17t-10 11q-37 193 -103 411.5t-139 406.5t-126 279q-31 56 -68 56q-19 0 -33 -17t-14 -39q0 -12 4 -18q14 -47 31 -47q13 0 16 59q0 6 10 6q12 0 15 -10q8 -48 8 -65q0 -37 -13.5 -57.5t-33.5 -20.5q-28 0 -55.5 34.5t-34.5 92.5
q-2 12 -2 39q0 71 32.5 115t81.5 44q45 0 90 -41t76 -122q12 -29 42 -102t92.5 -232t109.5 -287q19 102 40 200t45 187.5t51 165t60 139.5q39 74 92.5 111t110.5 37q42 0 79.5 -22.5t60 -64t22.5 -100.5z" />
    <glyph glyph-name="w" unicode="w" horiz-adv-x="1389" 
d="M1364 1251q0 -37 -2 -55q-11 -110 -52.5 -171.5t-84.5 -61.5q-25 0 -42.5 24t-17.5 68q0 70 49 180q7 12 15 12q12 0 12 -18q0 -2 -0.5 -4.5t-1.5 -5.5q-10 -55 -10 -84q0 -62 28 -62q20 0 39.5 35.5t26.5 89.5q2 19 2 47q0 98 -51 98q-45 0 -107.5 -83t-124.5 -248
t-109 -422.5t-61 -589.5q0 -9 -4 -16t-10 -7q-9 0 -16 17q-25 83 -89.5 249t-101.5 249q-49 -121 -93.5 -263t-88.5 -303q-6 -26 -18 -26q-17 0 -17 18q-6 231 -18 390.5t-53 337.5t-123 333q-42 80 -86 80q-30 0 -50 -35.5t-20 -81.5q0 -35 12 -59.5t33 -24.5q27 0 27 37
q0 27 -17 61q-2 2 -2 9q0 12 13 12q10 0 16 -12q24 -61 24 -101q0 -67 -55 -67q-40 0 -75 44.5t-35 112.5q0 23 2 33q11 90 49.5 149.5t91.5 59.5q40 0 82.5 -40.5t85 -127t84 -231t76.5 -351.5q34 68 84 172t59 132q6 14 12 14q4 0 13 -14q23 -72 70.5 -197t72.5 -193
q60 400 135.5 651.5t152.5 361.5t144 110q36 0 65 -29.5t44.5 -82t15.5 -120.5z" />
    <glyph glyph-name="x" unicode="x" horiz-adv-x="1229" 
d="M1409 676q0 -4 -0.5 -6.5t-1.5 -5.5q-102 -305 -206.5 -460t-211.5 -155q-85 0 -176 101q-67 77 -168 210q-54 -311 -110 -474t-110.5 -224t-117.5 -72q-8 -2 -26 -2q-68 0 -117 56.5t-49 181.5q0 36 6 80q10 92 49.5 147.5t81.5 55.5q29 0 47 -27.5t18 -81.5
q0 -61 -22 -137q-2 -10 -10 -10q-11 0 -11 10v2q7 28 7 53q0 41 -14.5 62.5t-35.5 21.5q-25 0 -45 -30.5t-20 -84.5v-10q3 -66 30.5 -114t65.5 -48q75 0 154.5 182.5t136.5 587.5q-269 382 -332 451q-35 39 -71 39q-32 0 -53 -31t-21 -72q0 -55 39 -94q18 -18 35 -18
q28 0 28 37q0 29 -26 80q-2 2 -2 8t6 6q4 0 16 -8q59 -67 59 -127q0 -36 -21 -58t-52 -22q-44 0 -80 39t-49 119q-4 16 -4 47q0 54 23.5 97.5t64 67t86.5 23.5t94 -27t82 -77q16 -22 44.5 -64.5t52.5 -77t52 -74t58 -83.5q33 163 76 276.5t93.5 188.5t103 112t99.5 37
q62 0 102 -53.5t46 -145.5v-26q0 -60 -15 -100.5t-39 -60.5t-51 -20q-32 0 -54.5 25.5t-22.5 67.5q0 59 47 123q7 10 12 10q10 0 10 -13q0 -6 -2 -8q-12 -39 -12 -63q0 -43 26 -43q23 0 41.5 29t18.5 77q0 49 -19.5 79t-52.5 30q-46 0 -101.5 -65.5t-111.5 -211t-100 -374.5
q143 -194 242 -289q61 -58 112 -58q170 0 350 488q6 16 15 16q7 0 10.5 -4.5t3.5 -13.5z" />
    <glyph glyph-name="y" unicode="y" horiz-adv-x="907" 
d="M883 897q0 -85 -28.5 -201t-88.5 -254q-7 -15 -13.5 -29.5t-14.5 -30.5t-13.5 -26.5t-11.5 -23.5q11 -106 23.5 -208.5t22 -174t14.5 -137t5 -121.5q0 -99 -24 -189q-30 -108 -102 -167.5t-154 -59.5q-67 0 -129 36.5t-105.5 107t-56.5 171.5q-8 49 -8 101
q0 127 43 197.5t104 70.5q34 0 66 -24t56 -70t36 -115q4 -44 4 -61q0 -62 -21 -98.5t-51 -36.5t-52 40t-22 113q0 10 9 10q4 0 7 -2t3 -8q15 -67 47 -67q14 0 25.5 20.5t11.5 54.5q0 23 -6 47q-4 35 -20.5 52.5t-39.5 17.5q-36 0 -66 -49.5t-30 -142.5q0 -15 2 -23
q3 -81 27.5 -139t62.5 -87.5t80 -29.5q65 0 119 69.5t68 194.5q6 52 6 107q0 92 -15 205.5t-39 250.5q-70 -79 -139 -79q-65 0 -116 72t-80 198t-29 280v37v6q0 38 -10 65t-27 40.5t-37 13.5q-41 0 -74.5 -46.5t-33.5 -127.5v-14q1 -24 14 -42t29 -18q20 0 33.5 23.5
t13.5 69.5q0 24 -2 39v6q0 16 8 16t14 -16q23 -64 23 -119q0 -53 -22 -83t-54 -30q-39 0 -69 43t-31 123v8q0 93 29.5 165t77 110.5t95.5 38.5q61 0 99.5 -57.5t38.5 -168.5v-8q0 -232 47 -355.5t120 -123.5q37 0 68 27q-25 182 -25 307q0 177 48 311q33 91 76.5 137.5
t84.5 46.5q44 0 71.5 -48.5t27.5 -137.5zM813 817q0 82 -35 82q-20 0 -41 -32.5t-36 -92t-15 -141.5q0 -22 4 -76q7 -82 12 -139q14 23 43 100q68 189 68 299z" />
    <glyph glyph-name="z" unicode="z" horiz-adv-x="930" 
d="M905 340q0 -51 -34.5 -97.5t-96.5 -70.5q-44 -17 -139 -30.5t-181.5 -24t-173 -30t-157.5 -54.5q-2 -2 -6 -2q-11 0 -11 10q0 6 3 12q42 99 90.5 201.5t115 230.5t131 236.5t125.5 191.5q-182 -33 -295.5 -64.5t-171.5 -90.5q-10 -10 -10 -25q0 -18 15.5 -35.5
t35.5 -17.5q4 1 6.5 1.5t4.5 0.5q28 8 28 33q0 18 -18 18q-10 0 -16 -4h-7q-6 0 -6 6t8 10q22 19 45 19q20 0 30.5 -13.5t10.5 -35.5q0 -29 -19 -54t-58 -36q-13 -4 -37 -4q-40 0 -66 25t-26 61q0 37 30.5 76t96.5 69q71 36 161 64t188.5 50.5t168 38.5t110.5 29q4 2 11 2
q16 0 16 -14q0 -10 -8 -18q-94 -127 -192.5 -281t-170.5 -285.5t-129 -259.5q74 -4 107 -4q94 0 172 17.5t149 56.5q31 16 45.5 42t14.5 52t-14.5 43.5t-41.5 17.5q-10 0 -14 -2q-55 -11 -55 -45q0 -13 13 -23.5t34 -10.5q4 1 7.5 1.5t8.5 0.5h2q10 0 10 -9q0 -5 -8 -8
q-25 -14 -51 -14q-25 0 -39 16.5t-14 38.5q0 29 22.5 55.5t63.5 36.5q33 9 63 9q60 0 91.5 -31t31.5 -78z" />
    <glyph glyph-name="braceleft" unicode="{" horiz-adv-x="760" 
d="M735 225q0 -122 -157 -329q-42 -54 -104.5 -86.5t-123.5 -32.5q-91 0 -151 75t-60 232q0 86 23 209q20 106 20 178q0 63 -13.5 98.5t-34.5 51.5t-48 21.5t-43 8.5q-18 3 -18 13q0 6 18 20q134 94 192 177t58 177q0 28 -6 60q-11 55 -11 133q0 89 11 176.5t37 169t70 136
t106 61.5q18 2 51 2q82 0 115.5 -32t33.5 -81q0 -38 -20 -80q-27 -47 -60.5 -72.5t-64.5 -25.5q-43 0 -43 47q0 46 43 115q5 8 20 8q17 0 17 -10q0 -6 -6 -15q-25 -35 -25 -55q0 -19 17 -19q14 0 30 17.5t23 48.5q4 20 4 27q0 36 -23 56.5t-57 20.5t-65 -21t-50 -63
q-75 -164 -75 -305q0 -110 45 -243q16 -59 16 -113q0 -68 -25.5 -127.5t-73.5 -99.5t-110 -52q127 -77 127 -215q0 -82 -45 -215q-25 -87 -25 -161q0 -89 31.5 -147t93.5 -58q49 0 111 39q70 43 104.5 105t34.5 114q0 59 -35 59q-17 0 -41 -20q-26 -27 -26 -45q0 -15 14 -15
q13 0 27 15q4 4 8 4t4 -6q0 -9 -2 -13q-23 -34 -51 -34q-39 0 -39 49q0 36 24 73q58 84 130 84q20 0 36.5 -9.5t26.5 -31t10 -49.5z" />
    <glyph glyph-name="bar" unicode="|" horiz-adv-x="287" 
d="M231 1446q-18 -323 -27 -577.5t-9 -575.5v-80q0 -15 -10.5 -21.5t-26 -8.5t-19.5 -3h-14q-32 0 -35 25q-3 141 -4.5 250.5t-2.5 289.5t-2 321.5t-1 352.5q0 56 72 56h10q34 0 51.5 -4.5t17.5 -24.5z" />
    <glyph glyph-name="braceright" unicode="}" horiz-adv-x="694" 
d="M672 733q0 -11 -23 -22q-96 -54 -96 -312q0 -67 6 -147v-41q0 -110 -35.5 -217.5t-103.5 -177.5t-160 -70q-39 0 -80 12q-80 28 -117.5 88.5t-37.5 133.5q0 69 28 116t70 47q27 0 53 -20q78 -67 78 -141q0 -27 -14.5 -47.5t-36.5 -20.5q-46 0 -82 66q-2 4 -2 10
q0 14 10 14q6 0 12 -6q26 -31 49 -31q17 0 17 17t-14 41q-31 41 -60 41q-23 0 -38 -20.5t-15 -51.5q0 -59 49 -111q45 -51 111 -51q72 0 123 71.5t51 219.5q0 33 -8 123q-13 74 -13 153q0 127 34.5 215.5t111.5 114.5q-42 34 -69 78t-38.5 95t-11.5 112q0 81 22 198t43 224
q7 45 7 73q0 70 -29.5 104t-69.5 34q-31 0 -59.5 -19.5t-38.5 -50.5q-8 -28 -8 -51q0 -62 39 -62q16 0 28.5 16t12.5 46q0 18 -11 55q-2 2 -2 6q0 12 15 12q16 0 22 -12q27 -55 27 -96q0 -40 -23 -61t-55 -21q-40 0 -73.5 31t-33.5 84v4q4 94 53 152.5t115 58.5
q64 0 116 -54.5t73 -160.5q10 -49 10 -109q0 -54 -9 -112.5t-24.5 -123t-23.5 -109t-8 -87.5q0 -70 29 -129t102 -113q6 -6 6 -8z" />
    <glyph glyph-name="asciitilde" unicode="~" horiz-adv-x="762" 
d="M741 1423q0 -71 -77 -125q-71 -51 -109 -51q-35 0 -35 37q0 41 39 86q6 6 14 6q15 0 15 -10q0 -6 -2 -8q-17 -15 -17 -27q0 -16 25 -16q19 0 43 12q47 23 47 68q0 25 -18.5 43t-51.5 18q-14 0 -24 -2q-43 -8 -99.5 -47.5t-117.5 -79.5t-158 -74q-22 -6 -63 -6
q-65 0 -98.5 32t-33.5 79q0 42 25 81t64 58q59 25 94 25q31 0 49 -16.5t18 -41.5q0 -32 -30.5 -59t-79.5 -27h-2q-17 0 -17 11q0 9 15 16q51 17 51 41q0 13 -15 22t-34 9q-15 0 -29 -7q-18 -6 -32.5 -32t-14.5 -52q0 -57 70 -57q22 0 34 2q81 21 148.5 67t122.5 84.5
t110 43.5q8 1 13.5 1.5t13.5 0.5q70 0 108.5 -30t38.5 -75z" />
    <glyph glyph-name="nonbreakingspace" unicode="&#xa0;" horiz-adv-x="59" 
 />
    <glyph glyph-name="exclamdown" unicode="&#xa1;" horiz-adv-x="283" 
d="M258 1532q0 -64 -45 -98q-34 -31 -63 -31q-31 0 -60 29q-45 35 -45 92q0 37 23 78q23 43 77 43q56 0 91 -43q22 -29 22 -70zM215 330q0 -127 -2 -185q-3 -84 -90 -84h-10q-43 2 -65.5 8.5t-22.5 32.5q4 53 13.5 171.5t18.5 251t19 343.5t10 381q0 12 6.5 20.5t14.5 11
t20 4t18 1.5q7 2 17 2q30 0 33 -33q1 -83 8 -321t9.5 -371t2.5 -233z" />
    <glyph glyph-name="cent" unicode="&#xa2;" horiz-adv-x="616" 
d="M592 872q0 -18 -6 -36q-11 -37 -38 -59.5t-52 -22.5q-21 0 -35.5 12.5t-14.5 36.5q0 22 15 55q8 14 18 14q5 0 9 -4t4 -8q0 -6 -3 -8q-8 -13 -8 -27q0 -24 23 -24q31 0 39 53v12q0 26 -17 39t-45 13q-38 0 -82 -21q-32 -342 -41 -594q80 33 128 82.5t57 91.5v10
q0 35 -29 35q-33 0 -39 -57q0 -10 -5.5 -15.5t-10.5 -5.5q-15 0 -15 19q0 56 23 86.5t53 30.5q26 0 46 -20t20 -54v-8q-5 -64 -64.5 -142.5t-140.5 -119.5q-14 -8 -25 -11q-2 -41 -2 -121q0 -71 2 -106v-2q0 -13 -9 -17.5t-23 -6.5t-17 -3h-14q-27 0 -27 21q2 67 6 207
q-35 -7 -59 -7q-90 0 -139 67t-49 171q0 82 31 173t92 172.5t147 137.5v107v137v2q0 26 15 36.5t50 10.5h5q59 0 59 -22v-2q-6 -70 -9.5 -114.5t-8.5 -98.5q30 10 67 10q55 0 87 -30t32 -75zM293 817q-77 -78 -115.5 -174.5t-38.5 -187.5q0 -82 30 -131.5t85 -49.5
q14 0 22 2q4 91 7.5 180.5t5.5 165t4 195.5z" />
    <glyph glyph-name="sterling" unicode="&#xa3;" horiz-adv-x="1014" 
d="M991 213q0 -52 -32 -98t-99 -75.5t-164 -29.5q-41 0 -88 6q-13 2 -86.5 16t-123.5 21.5t-95 7.5q-124 0 -242 -61q-4 -2 -10 -2q-11 0 -18.5 9.5t-7.5 19.5q0 8 2 10q83 105 116 224t33 259q-63 -19 -100 -35q-4 -2 -10 -2q-15 0 -25 17.5t-10 34.5t10 24q62 32 133 57
q-3 46 -10 135t-14 164q-3 15 -3 41q0 106 42 190t108 129.5t131 45.5q56 0 96 -35q35 -27 55.5 -58t31 -64.5t10.5 -67.5q0 -54 -25.5 -90.5t-63.5 -36.5q-39 0 -75 35q-41 34 -41 81q0 24 12 41t33 17q29 0 51 -35q6 -12 6 -16q0 -7 -6 -7t-12 7q-18 22 -31 22
q-16 0 -16 -22q0 -31 28 -52q18 -14 33 -14q23 0 34 24t11 62q0 47 -17.5 85.5t-49.5 49.5q-22 4 -35 4q-46 0 -94 -32t-79.5 -98t-31.5 -165q0 -34 2 -53q14 -167 16 -252q132 41 205 41h19q16 -1 27 -27t11 -53q0 -39 -20 -39q-152 -14 -240 -30q-1 -93 -13 -179.5
t-32 -162.5q-2 -4 -2 -13q0 -12 23 -14q52 -3 98.5 -11t105.5 -21t111.5 -20t112.5 -7q49 0 78 4q75 4 118 43.5t43 85.5q0 34 -22.5 56t-63.5 22q-22 0 -34 -4q-25 -4 -39.5 -19.5t-14.5 -30.5q0 -22 29 -22q15 0 45 10q2 2 8 2q11 0 11 -10t-11 -16q-52 -41 -98 -41
q-32 0 -52 17.5t-20 43.5q0 35 36 65t108 41q12 3 34 3q73 0 116.5 -44.5t43.5 -107.5z" />
    <glyph glyph-name="currency" unicode="&#xa4;" 
d="M993 760q0 -123 -60 -225.5t-163.5 -163t-224.5 -60.5q-89 0 -172 35t-145 97t-97 145t-35 172q0 121 60.5 224.5t163 163.5t225.5 60q121 0 224.5 -60t163.5 -163.5t60 -224.5zM858 760q0 85 -42.5 158t-114.5 115t-156 42q-85 0 -157 -42t-114.5 -114.5t-42.5 -158.5
q0 -85 42 -157t114.5 -114.5t157.5 -42.5q84 0 156.5 43t114.5 115t42 156z" />
    <glyph glyph-name="yen" unicode="&#xa5;" 
d="M993 760q0 -123 -60 -225.5t-163.5 -163t-224.5 -60.5q-89 0 -172 35t-145 97t-97 145t-35 172q0 121 60.5 224.5t163 163.5t225.5 60q121 0 224.5 -60t163.5 -163.5t60 -224.5zM858 760q0 85 -42.5 158t-114.5 115t-156 42q-85 0 -157 -42t-114.5 -114.5t-42.5 -158.5
q0 -85 42 -157t114.5 -114.5t157.5 -42.5q84 0 156.5 43t114.5 115t42 156z" />
    <glyph glyph-name="section" unicode="&#xa7;" horiz-adv-x="926" 
d="M901 422q0 -87 -104 -150v-10q0 -54 -48 -111.5t-136 -96t-195 -38.5q-142 0 -211.5 47.5t-69.5 116.5q0 63 51.5 113.5t122.5 50.5q15 0 21 -2q64 -7 96.5 -31t32.5 -55q0 -25 -23 -44t-61 -19q-33 0 -68 14q-14 7 -14 14q0 6 12 6h4q13 -2 31 -2q64 0 64 35
q0 15 -18 27t-50 12h-6q-48 -1 -74.5 -21.5t-26.5 -50.5q0 -45 53.5 -81.5t143.5 -36.5h12q90 3 141.5 35.5t51.5 84.5q0 46 -46 104t-149 123.5t-254 125.5q-79 33 -119 84t-40 108q0 71 57 121t156 51l10 -43q-51 -10 -82 -36.5t-31 -61.5q0 -60 96 -107
q91 -41 172.5 -83.5t170 -98.5t157.5 -110q6 24 6 34q0 44 -62.5 106t-223.5 136q-120 57 -182 129t-62 143q0 67 54 119.5t149 71.5q39 6 71 6q90 0 141.5 -44.5t51.5 -105.5q0 -73 -70 -112q-37 -17 -65 -17q-49 0 -86 25.5t-37 56.5q0 50 86 72q4 1 7 1.5t7 0.5
q23 0 23 -14q0 -11 -17 -19q-26 -14 -26 -37q0 -20 26 -20q17 0 47 12q33 16 33 49q0 35 -38 64t-103 29q-27 0 -41 -2q-57 -7 -88 -33.5t-31 -65.5q0 -53 60.5 -115t177.5 -118q90 -43 166 -92t117 -90.5t60 -80t19 -73.5z" />
    <glyph glyph-name="dieresis" unicode="&#xa8;" horiz-adv-x="512" 
d="M487 1380q0 -72 -77 -100q-9 -2 -23 -2q-32 0 -56 28t-24 60v6q3 38 33.5 63t69.5 25h2q38 0 54 -14.5t21 -50.5v-15zM197 1395q0 -28 -19 -64q-20 -35 -61 -35q-49 0 -74 35q-18 25 -18 55q0 52 34 80q31 25 54 25q24 0 47 -23q37 -31 37 -73z" />
    <glyph glyph-name="copyright" unicode="&#xa9;" horiz-adv-x="891" 
d="M866 1354q0 -117 -26 -205.5t-100 -163.5t-210 -127q-64 -24 -120 -24q-107 0 -193 68.5t-135.5 159.5t-54.5 150q-2 17 -2 62q0 148 56 287t202 184q94 29 182 29q94 0 166.5 -30.5t125 -84.5t80.5 -123t29 -139v-43zM811 1343v37q-3 84 -46.5 162.5t-124 128
t-187.5 49.5q-79 0 -152 -24q-123 -38 -170 -154t-47 -248q0 -51 2 -69q6 -54 44 -131t107 -136t160 -59q51 0 111 23q124 49 189.5 111t89.5 136t24 174zM662 1274q0 -42 -35 -98.5t-103 -108.5q-72 -57 -145 -57q-70 0 -115 51.5t-45 138.5q0 88 47 191q57 123 139 187
t150 64q32 0 50 -15t18 -40q0 -28 -23 -65q-37 -56 -76 -56t-39 39q0 21 16.5 39.5t51.5 30.5h2q8 0 8 -4q0 -3 -6 -6q-31 -18 -31 -39q0 -19 17 -19q16 0 35 29q10 23 10 39q0 33 -35 33q-30 0 -78 -29q-69 -47 -117.5 -163.5t-48.5 -219.5q0 -61 21 -99t59 -38
q50 0 117 53q57 46 83.5 86.5t26.5 71.5q0 10 -4.5 17t-13.5 7q-13 0 -31 -16q-14 -17 -14 -25q0 -10 12 -10q3 0 13 4q0 2 4 2t4 -6q0 -4 -4 -8q-19 -12 -33 -12q-23 0 -23 20q0 21 25 45q38 41 70 41q18 0 29.5 -15t11.5 -40z" />
    <glyph glyph-name="ordfeminine" unicode="&#xaa;" 
d="M993 760q0 -123 -60 -225.5t-163.5 -163t-224.5 -60.5q-89 0 -172 35t-145 97t-97 145t-35 172q0 121 60.5 224.5t163 163.5t225.5 60q121 0 224.5 -60t163.5 -163.5t60 -224.5zM858 760q0 85 -42.5 158t-114.5 115t-156 42q-85 0 -157 -42t-114.5 -114.5t-42.5 -158.5
q0 -85 42 -157t114.5 -114.5t157.5 -42.5q84 0 156.5 43t114.5 115t42 156z" />
    <glyph glyph-name="guillemotleft" unicode="&#xab;" 
d="M993 760q0 -123 -60 -225.5t-163.5 -163t-224.5 -60.5q-89 0 -172 35t-145 97t-97 145t-35 172q0 121 60.5 224.5t163 163.5t225.5 60q121 0 224.5 -60t163.5 -163.5t60 -224.5zM858 760q0 85 -42.5 158t-114.5 115t-156 42q-85 0 -157 -42t-114.5 -114.5t-42.5 -158.5
q0 -85 42 -157t114.5 -114.5t157.5 -42.5q84 0 156.5 43t114.5 115t42 156z" />
    <glyph glyph-name="logicalnot" unicode="&#xac;" 
d="M993 760q0 -123 -60 -225.5t-163.5 -163t-224.5 -60.5q-89 0 -172 35t-145 97t-97 145t-35 172q0 121 60.5 224.5t163 163.5t225.5 60q121 0 224.5 -60t163.5 -163.5t60 -224.5zM858 760q0 85 -42.5 158t-114.5 115t-156 42q-85 0 -157 -42t-114.5 -114.5t-42.5 -158.5
q0 -85 42 -157t114.5 -114.5t157.5 -42.5q84 0 156.5 43t114.5 115t42 156z" />
    <glyph glyph-name="registered" unicode="&#xae;" horiz-adv-x="895" 
d="M870 1354q0 -85 -13 -155t-49.5 -134t-103 -117t-172.5 -94q-62 -23 -120 -23q-107 0 -193.5 69.5t-136.5 162t-55 149.5q-2 17 -2 62q0 149 56.5 288.5t201.5 184.5q97 29 184 29q123 0 212.5 -53t138.5 -139.5t52 -186.5v-43zM815 1343v37q-3 85 -46 163.5
t-124.5 128.5t-189.5 50q-79 0 -152 -24q-126 -39 -172.5 -155.5t-46.5 -250.5q1 -18 1.5 -33t0.5 -34q5 -55 43.5 -132.5t108.5 -136.5t161 -59q51 0 111 23q124 48 190.5 111t90.5 137t24 175zM709 1192q0 -18 -2 -29q-15 -98 -70 -98q-36 0 -78 51q-22 28 -60 91t-50 81
q-3 4 -5 7.5t-6 7.5q-17 -7 -37 -7q-16 0 -22 2q2 -43 6 -131t6 -131v-10q0 -13 -3.5 -17.5t-16.5 -7.5h-13q-22 0 -22 25v2v43q0 56 -3.5 122.5t-8.5 120.5t-11 111t-10 93q-51 -13 -88 -45q-27 -28 -27 -46t25 -18q8 0 12 2q29 12 29 31q0 12 -14 12q-4 0 -9 -2h-2
q-6 0 -6 6q0 2 6 8q12 9 27 9q25 0 25 -23q0 -22 -33 -47q-27 -19 -45 -19q-21 0 -33 14.5t-12 33.5t14 43q38 59 127 84v14q0 10 13.5 18.5t25.5 8.5h4q29 0 29 -11v-18q14 2 47 2q24 0 37 -2q62 -3 93.5 -30t31.5 -68q0 -43 -29.5 -86.5t-79.5 -71.5l4 -4t4 -6
q20 -30 39.5 -54.5t42 -50t43.5 -51.5q27 -33 53 -33q29 0 29 43q0 74 -29 74h-4q-20 -3 -20 -18q0 -11 6 -11q2 0 10 4q4 4 6 4q4 0 4 -6v-2q-12 -24 -28 -24q-27 0 -27 39q0 26 23 49q16 16 30 16q22 0 37 -26t15 -68zM520 1438q0 25 -14 45t-39 30q-34 15 -84 15h-10
q0 -44 4 -158q3 1 5.5 1.5t6.5 0.5q32 0 68 -39q63 45 63 105zM428 1315q-21 24 -35 24q-6 0 -8 -4q-4 -4 -4 -6q0 -18 29 -18q6 0 18 4z" />
    <glyph glyph-name="macron" unicode="&#xaf;" 
d="M993 760q0 -123 -60 -225.5t-163.5 -163t-224.5 -60.5q-89 0 -172 35t-145 97t-97 145t-35 172q0 121 60.5 224.5t163 163.5t225.5 60q121 0 224.5 -60t163.5 -163.5t60 -224.5zM858 760q0 85 -42.5 158t-114.5 115t-156 42q-85 0 -157 -42t-114.5 -114.5t-42.5 -158.5
q0 -85 42 -157t114.5 -114.5t157.5 -42.5q84 0 156.5 43t114.5 115t42 156z" />
    <glyph glyph-name="degree" unicode="&#xb0;" horiz-adv-x="393" 
d="M369 1401q0 -65 -39.5 -113t-112.5 -76q-28 -8 -43 -8q-60 0 -104.5 53.5t-44.5 116.5v10q4 72 63 121t131 49h2q71 -2 104 -29t42 -93q2 -11 2 -31zM283 1401v14q-4 35 -21.5 50t-54.5 16h-2q-26 0 -48.5 -12t-38 -33.5t-16.5 -44.5v-5q0 -33 24.5 -61.5t55.5 -28.5
q9 0 21 4q80 30 80 101z" />
    <glyph glyph-name="plusminus" unicode="&#xb1;" 
d="M993 760q0 -123 -60 -225.5t-163.5 -163t-224.5 -60.5q-89 0 -172 35t-145 97t-97 145t-35 172q0 121 60.5 224.5t163 163.5t225.5 60q121 0 224.5 -60t163.5 -163.5t60 -224.5zM858 760q0 85 -42.5 158t-114.5 115t-156 42q-85 0 -157 -42t-114.5 -114.5t-42.5 -158.5
q0 -85 42 -157t114.5 -114.5t157.5 -42.5q84 0 156.5 43t114.5 115t42 156z" />
    <glyph glyph-name="acute" unicode="&#xb4;" horiz-adv-x="283" 
d="M262 1223q0 -11 -8 -19q-17 -20 -77.5 -65t-82.5 -74q-6 -10 -20 -10q-8 0 -17.5 7t-13.5 9q-23 16 -23 29q0 5 11 20q19 26 51 80.5t55 79.5q21 20 39 20q21 0 45 -24q41 -37 41 -53z" />
    <glyph glyph-name="mu" unicode="&#xb5;" 
d="M993 760q0 -123 -60 -225.5t-163.5 -163t-224.5 -60.5q-89 0 -172 35t-145 97t-97 145t-35 172q0 121 60.5 224.5t163 163.5t225.5 60q121 0 224.5 -60t163.5 -163.5t60 -224.5zM858 760q0 85 -42.5 158t-114.5 115t-156 42q-85 0 -157 -42t-114.5 -114.5t-42.5 -158.5
q0 -85 42 -157t114.5 -114.5t157.5 -42.5q84 0 156.5 43t114.5 115t42 156z" />
    <glyph glyph-name="paragraph" unicode="&#xb6;" horiz-adv-x="1094" 
d="M1069 1098q0 -31 -27 -59t-77 -42q-36 -10 -74 -10q-80 0 -80 55q0 24 17 47t44 33q13 6 21 6q10 0 10 -8q0 -12 -14 -20q-23 -23 -23 -39q0 -10 8.5 -17.5t20.5 -7.5q22 0 43 17q33 23 33 55q0 24 -21.5 41.5t-60.5 17.5q-25 0 -41 -4q-48 -8 -62 -21t-16 -36
q-1 -76 -2.5 -197.5t-2.5 -334t-4 -349t-7 -172.5q-3 -22 -10 -26t-44 -11q-24 -4 -32 -4q-34 0 -37 39q0 40 -1.5 132.5t-2.5 171.5t-2.5 186.5t-1.5 193.5q0 258 12 350v2q0 10 -8 15.5t-21 5.5q-25 0 -28 -27q-6 -66 -11 -197.5t-7.5 -279.5t-4.5 -299t-2 -242
q0 -24 -10.5 -32t-50.5 -11q-11 -2 -31 -2q-49 0 -49 35v8q4 34 8.5 86.5t10.5 141t8.5 137t2.5 94.5q0 38 -4 64q-48 -6 -92 -6q-123 0 -198 46.5t-87 135.5q0 8 -0.5 13t-1.5 11q0 79 53 157t151 142t238 105t304 47h20q114 0 179 -41t65 -96z" />
    <glyph glyph-name="cedilla" unicode="&#xb8;" 
d="M993 760q0 -123 -60 -225.5t-163.5 -163t-224.5 -60.5q-89 0 -172 35t-145 97t-97 145t-35 172q0 121 60.5 224.5t163 163.5t225.5 60q121 0 224.5 -60t163.5 -163.5t60 -224.5zM858 760q0 85 -42.5 158t-114.5 115t-156 42q-85 0 -157 -42t-114.5 -114.5t-42.5 -158.5
q0 -85 42 -157t114.5 -114.5t157.5 -42.5q84 0 156.5 43t114.5 115t42 156z" />
    <glyph glyph-name="ordmasculine" unicode="&#xba;" 
d="M993 760q0 -123 -60 -225.5t-163.5 -163t-224.5 -60.5q-89 0 -172 35t-145 97t-97 145t-35 172q0 121 60.5 224.5t163 163.5t225.5 60q121 0 224.5 -60t163.5 -163.5t60 -224.5zM858 760q0 85 -42.5 158t-114.5 115t-156 42q-85 0 -157 -42t-114.5 -114.5t-42.5 -158.5
q0 -85 42 -157t114.5 -114.5t157.5 -42.5q84 0 156.5 43t114.5 115t42 156z" />
    <glyph glyph-name="guillemotright" unicode="&#xbb;" 
d="M993 760q0 -123 -60 -225.5t-163.5 -163t-224.5 -60.5q-89 0 -172 35t-145 97t-97 145t-35 172q0 121 60.5 224.5t163 163.5t225.5 60q121 0 224.5 -60t163.5 -163.5t60 -224.5zM858 760q0 85 -42.5 158t-114.5 115t-156 42q-85 0 -157 -42t-114.5 -114.5t-42.5 -158.5
q0 -85 42 -157t114.5 -114.5t157.5 -42.5q84 0 156.5 43t114.5 115t42 156z" />
    <glyph glyph-name="questiondown" unicode="&#xbf;" horiz-adv-x="760" 
d="M524 1559q0 -26 -12.5 -46t-46.5 -30q-19 -8 -41 -8q-61 0 -76 57q-4 18 -4 49q0 52 25 79.5t61 27.5t62.5 -25t29.5 -68q2 -12 2 -36zM735 455q0 -86 -67 -191q-99 -149 -209 -221t-211 -72q-97 0 -160 61.5t-63 157.5q0 101 69 207q12 18 102 150.5t148 241.5t127 274
q29 65 29 119q0 56 -29 84t-74 28q-37 0 -71 -21.5t-52 -60.5q-16 -35 -16 -65q0 -45 41 -45q21 0 39 12q22 14 22 41t-20 27q-11 0 -23 -8q-8 -7 -14 -7t-6 7q0 8 8 16q16 22 41 22q22 0 38.5 -15.5t16.5 -41.5q0 -21 -14 -41q-28 -47 -62.5 -71.5t-66.5 -24.5
q-34 0 -57 29.5t-23 78.5q0 29 4 43q10 60 46 107.5t85.5 74.5t100.5 27q55 0 97 -36.5t56 -108.5q6 -31 6 -70q0 -113 -55.5 -260t-133.5 -286t-167 -277q-53 -79 -53 -145q0 -56 38.5 -87.5t98.5 -31.5q80 0 170.5 56t163.5 167q35 54 35 100q0 44 -27.5 71.5t-67.5 27.5
q-49 0 -90 -39q-20 -19 -34.5 -50t-14.5 -55q0 -43 35 -43q30 0 90 47q10 9 17 9q10 0 10 -13q0 -12 -10 -22q-88 -96 -154 -96q-30 0 -47 19.5t-17 51.5q0 36 21.5 81.5t62.5 88.5q98 101 183 101q50 0 79 -34t29 -89z" />
    <glyph glyph-name="Agrave" unicode="&#xc0;" horiz-adv-x="1468" 
d="M1444 317q0 -62 -10 -116q-36 -189 -131 -189q-76 0 -150 107q-43 61 -103.5 186.5t-123.5 274.5q-158 -41 -361 -88q-89 -286 -116 -365q-50 -144 -129.5 -215.5t-157.5 -71.5q-88 0 -117 70q-20 44 -20 98q0 115 90 215q36 43 86 43q45 0 63 -37q8 -16 8 -34
q0 -41 -34.5 -77t-59.5 -50l-10 -5q-12 0 -12 13q0 6 6 12q47 42 47 76q0 15 -9 24t-24 9q-20 0 -42.5 -19.5t-37.5 -54.5q-12 -34 -12 -60q0 -39 22 -63.5t56 -24.5q44 0 90.5 45t77.5 134q79 230 104 309q-92 -21 -94 -21h-12q-28 0 -31 39v19q0 27 31 37q102 30 143 43
q65 210 111 366.5t89 319t68 276.5q2 10 9 10q12 0 29.5 -34t23.5 -76q18 -98 46.5 -217t69.5 -252t82 -244q40 10 63.5 17.5t35.5 9.5q6 2 16 2q33 0 33 -41v-12q-2 -7 -2 -17v-14q0 -18 -7.5 -27t-35.5 -18q-13 -4 -29.5 -9t-28.5 -8q96 -231 199 -399q42 -68 82 -68
q33 0 57.5 46t24.5 100v6q-1 45 -17.5 71.5t-33.5 26.5q-33 0 -33 -61q0 -27 8 -60v-6q0 -14 -10 -14q-11 0 -18 14q-25 59 -25 119q0 52 22 83.5t52 31.5q24 0 45 -20.5t34 -61.5t13 -103zM881 696q-91 226 -142 400q-8 -28 -35 -123.5t-63.5 -221.5t-38.5 -133
q211 61 279 78zM737 1759q0 -15 -22 -28q-1 0 -12.5 -9.5t-18.5 -9.5q-8 0 -20 12q-18 16 -83.5 69t-93.5 83q-8 8 -8 18q0 15 41 54q26 24 45 24t39 -20q18 -19 57.5 -83t65.5 -89q10 -13 10 -21z" />
    <glyph glyph-name="Aacute" unicode="&#xc1;" horiz-adv-x="1468" 
d="M1444 317q0 -62 -10 -116q-36 -189 -131 -189q-76 0 -150 107q-43 61 -103.5 186.5t-123.5 274.5q-158 -41 -361 -88q-89 -286 -116 -365q-50 -144 -129.5 -215.5t-157.5 -71.5q-88 0 -117 70q-20 44 -20 98q0 115 90 215q36 43 86 43q45 0 63 -37q8 -16 8 -34
q0 -41 -34.5 -77t-59.5 -50l-10 -5q-12 0 -12 13q0 6 6 12q47 42 47 76q0 15 -9 24t-24 9q-20 0 -42.5 -19.5t-37.5 -54.5q-12 -34 -12 -60q0 -39 22 -63.5t56 -24.5q44 0 90.5 45t77.5 134q79 230 104 309q-92 -21 -94 -21h-12q-28 0 -31 39v19q0 27 31 37q102 30 143 43
q65 210 111 366.5t89 319t68 276.5q2 10 9 10q12 0 29.5 -34t23.5 -76q18 -98 46.5 -217t69.5 -252t82 -244q40 10 63.5 17.5t35.5 9.5q6 2 16 2q33 0 33 -41v-12q-2 -7 -2 -17v-14q0 -18 -7.5 -27t-35.5 -18q-13 -4 -29.5 -9t-28.5 -8q96 -231 199 -399q42 -68 82 -68
q33 0 57.5 46t24.5 100v6q-1 45 -17.5 71.5t-33.5 26.5q-33 0 -33 -61q0 -27 8 -60v-6q0 -14 -10 -14q-11 0 -18 14q-25 59 -25 119q0 52 22 83.5t52 31.5q24 0 45 -20.5t34 -61.5t13 -103zM881 696q-91 226 -142 400q-8 -28 -35 -123.5t-63.5 -221.5t-38.5 -133
q211 61 279 78zM967 1829q0 -10 -9 -19q-18 -22 -77.5 -66t-81.5 -73q-6 -10 -21 -10q-7 0 -16.5 7t-13.5 9q-23 17 -23 29q0 7 9.5 20t46 73t61.5 87q20 21 39 21q18 0 45 -25q41 -37 41 -53z" />
    <glyph glyph-name="Acircumflex" unicode="&#xc2;" horiz-adv-x="1468" 
d="M1444 317q0 -62 -10 -116q-36 -189 -131 -189q-76 0 -150 107q-43 61 -103.5 186.5t-123.5 274.5q-158 -41 -361 -88q-89 -286 -116 -365q-50 -144 -129.5 -215.5t-157.5 -71.5q-88 0 -117 70q-20 44 -20 98q0 115 90 215q36 43 86 43q45 0 63 -37q8 -16 8 -34
q0 -41 -34.5 -77t-59.5 -50l-10 -5q-12 0 -12 13q0 6 6 12q47 42 47 76q0 15 -9 24t-24 9q-20 0 -42.5 -19.5t-37.5 -54.5q-12 -34 -12 -60q0 -39 22 -63.5t56 -24.5q44 0 90.5 45t77.5 134q79 230 104 309q-92 -21 -94 -21h-12q-28 0 -31 39v19q0 27 31 37q102 30 143 43
q65 210 111 366.5t89 319t68 276.5q2 10 9 10q12 0 29.5 -34t23.5 -76q18 -98 46.5 -217t69.5 -252t82 -244q40 10 63.5 17.5t35.5 9.5q6 2 16 2q33 0 33 -41v-12q-2 -7 -2 -17v-14q0 -18 -7.5 -27t-35.5 -18q-13 -4 -29.5 -9t-28.5 -8q96 -231 199 -399q42 -68 82 -68
q33 0 57.5 46t24.5 100v6q-1 45 -17.5 71.5t-33.5 26.5q-33 0 -33 -61q0 -27 8 -60v-6q0 -14 -10 -14q-11 0 -18 14q-25 59 -25 119q0 52 22 83.5t52 31.5q24 0 45 -20.5t34 -61.5t13 -103zM881 696q-91 226 -142 400q-8 -28 -35 -123.5t-63.5 -221.5t-38.5 -133
q211 61 279 78zM991 1489q0 -7 -19 -14t-34 -7q-14 0 -14 7l-179 325q-146 -232 -177 -280t-36 -54q-5 -10 -16 -10q-10 0 -19.5 9.5t-9.5 17.5q0 4 2 6q79 134 140 237.5t93 156t38.5 63t7.5 12.5q8 14 20 14q15 0 19 -14q110 -277 147 -371.5t37 -97.5z" />
    <glyph glyph-name="Atilde" unicode="&#xc3;" horiz-adv-x="1468" 
d="M1444 317q0 -62 -10 -116q-36 -189 -131 -189q-76 0 -150 107q-43 61 -103.5 186.5t-123.5 274.5q-158 -41 -361 -88q-89 -286 -116 -365q-50 -144 -129.5 -215.5t-157.5 -71.5q-88 0 -117 70q-20 44 -20 98q0 115 90 215q36 43 86 43q45 0 63 -37q8 -16 8 -34
q0 -41 -34.5 -77t-59.5 -50l-10 -5q-12 0 -12 13q0 6 6 12q47 42 47 76q0 15 -9 24t-24 9q-20 0 -42.5 -19.5t-37.5 -54.5q-12 -34 -12 -60q0 -39 22 -63.5t56 -24.5q44 0 90.5 45t77.5 134q79 230 104 309q-92 -21 -94 -21h-12q-28 0 -31 39v19q0 27 31 37q102 30 143 43
q65 210 111 366.5t89 319t68 276.5q2 10 9 10q12 0 29.5 -34t23.5 -76q18 -98 46.5 -217t69.5 -252t82 -244q40 10 63.5 17.5t35.5 9.5q6 2 16 2q33 0 33 -41v-12q-2 -7 -2 -17v-14q0 -18 -7.5 -27t-35.5 -18q-13 -4 -29.5 -9t-28.5 -8q96 -231 199 -399q42 -68 82 -68
q33 0 57.5 46t24.5 100v6q-1 45 -17.5 71.5t-33.5 26.5q-33 0 -33 -61q0 -27 8 -60v-6q0 -14 -10 -14q-11 0 -18 14q-25 59 -25 119q0 52 22 83.5t52 31.5q24 0 45 -20.5t34 -61.5t13 -103zM881 696q-91 226 -142 400q-8 -28 -35 -123.5t-63.5 -221.5t-38.5 -133
q211 61 279 78zM1102 1800q0 -32 -20 -65.5t-58 -59.5q-68 -51 -109 -51q-34 0 -34 37q0 41 39 86q6 6 14 6q7 0 10.5 -3t3.5 -7q0 -6 -2 -8q-16 -18 -16 -27q0 -16 24 -16q19 0 43 12q47 23 47 68q0 25 -17.5 43t-51.5 18q-14 0 -25 -2q-34 -7 -56 -20.5t-83.5 -56.5
t-111 -70.5t-124.5 -53.5q-22 -6 -63 -6q-66 0 -98.5 32t-32.5 79q0 42 24.5 81t63.5 58q58 24 94 24q34 0 51 -16t17 -41q0 -32 -30 -59t-81 -27h-2q-16 0 -16 10t14 17q51 17 51 41q0 13 -13.5 21.5t-35.5 8.5q-12 0 -29.5 -6t-32 -32t-14.5 -52q0 -57 70 -57q23 0 35 2
q79 21 147.5 67t123.5 84.5t110 43.5q7 1 12.5 1.5t13.5 0.5q71 0 109.5 -30t38.5 -75z" />
    <glyph glyph-name="Adieresis" unicode="&#xc4;" horiz-adv-x="1468" 
d="M1444 317q0 -62 -10 -116q-36 -189 -131 -189q-76 0 -150 107q-43 61 -103.5 186.5t-123.5 274.5q-158 -41 -361 -88q-89 -286 -116 -365q-50 -144 -129.5 -215.5t-157.5 -71.5q-88 0 -117 70q-20 44 -20 98q0 115 90 215q36 43 86 43q45 0 63 -37q8 -16 8 -34
q0 -41 -34.5 -77t-59.5 -50l-10 -5q-12 0 -12 13q0 6 6 12q47 42 47 76q0 15 -9 24t-24 9q-20 0 -42.5 -19.5t-37.5 -54.5q-12 -34 -12 -60q0 -39 22 -63.5t56 -24.5q44 0 90.5 45t77.5 134q79 230 104 309q-92 -21 -94 -21h-12q-28 0 -31 39v19q0 27 31 37q102 30 143 43
q65 210 111 366.5t89 319t68 276.5q2 10 9 10q12 0 29.5 -34t23.5 -76q18 -98 46.5 -217t69.5 -252t82 -244q40 10 63.5 17.5t35.5 9.5q6 2 16 2q33 0 33 -41v-12q-2 -7 -2 -17v-14q0 -18 -7.5 -27t-35.5 -18q-13 -4 -29.5 -9t-28.5 -8q96 -231 199 -399q42 -68 82 -68
q33 0 57.5 46t24.5 100v6q-1 45 -17.5 71.5t-33.5 26.5q-33 0 -33 -61q0 -27 8 -60v-6q0 -14 -10 -14q-11 0 -18 14q-25 59 -25 119q0 52 22 83.5t52 31.5q24 0 45 -20.5t34 -61.5t13 -103zM881 696q-91 226 -142 400q-8 -28 -35 -123.5t-63.5 -221.5t-38.5 -133
q211 61 279 78zM977 1757q0 -72 -80 -100q-16 -4 -23 -4q-33 0 -56 28t-23 62v4q3 38 34 64t68 26h2q38 -2 55 -16.5t21 -48.5q1 -4 1.5 -7.5t0.5 -7.5zM684 1769q0 -29 -18 -61q-18 -35 -62 -35q-47 0 -74 35q-18 24 -18 55q0 48 37 80q26 25 51 25q21 0 49 -23
q35 -30 35 -76z" />
    <glyph glyph-name="Aring" unicode="&#xc5;" horiz-adv-x="1468" 
d="M1444 317q0 -62 -10 -116q-36 -189 -131 -189q-76 0 -150 107q-43 61 -103.5 186.5t-123.5 274.5q-158 -41 -361 -88q-89 -286 -116 -365q-50 -144 -129.5 -215.5t-157.5 -71.5q-88 0 -117 70q-20 44 -20 98q0 115 90 215q36 43 86 43q45 0 63 -37q8 -16 8 -34
q0 -41 -34.5 -77t-59.5 -50l-10 -5q-12 0 -12 13q0 6 6 12q47 42 47 76q0 15 -9 24t-24 9q-20 0 -42.5 -19.5t-37.5 -54.5q-12 -34 -12 -60q0 -39 22 -63.5t56 -24.5q44 0 90.5 45t77.5 134q79 230 104 309q-92 -21 -94 -21h-12q-28 0 -31 39v19q0 27 31 37q102 30 143 43
q65 210 111 366.5t89 319t68 276.5q2 10 9 10q12 0 29.5 -34t23.5 -76q18 -98 46.5 -217t69.5 -252t82 -244q40 10 63.5 17.5t35.5 9.5q6 2 16 2q33 0 33 -41v-12q-2 -7 -2 -17v-14q0 -18 -7.5 -27t-35.5 -18q-13 -4 -29.5 -9t-28.5 -8q96 -231 199 -399q42 -68 82 -68
q33 0 57.5 46t24.5 100v6q-1 45 -17.5 71.5t-33.5 26.5q-33 0 -33 -61q0 -27 8 -60v-6q0 -14 -10 -14q-11 0 -18 14q-25 59 -25 119q0 52 22 83.5t52 31.5q24 0 45 -20.5t34 -61.5t13 -103zM881 696q-91 226 -142 400q-8 -28 -35 -123.5t-63.5 -221.5t-38.5 -133
q211 61 279 78zM952 1851q0 -136 -149 -190q-22 -6 -43 -6q-61 0 -106.5 52.5t-45.5 117.5q0 6 2 10q3 46 31.5 85t72 62t89.5 23h4q70 -1 103 -30t42 -95v-29zM868 1849q0 11 -2 15q-5 36 -21 50.5t-54 14.5h-3q-37 0 -68 -25t-32 -63v-6q0 -32 23 -60t55 -28q14 0 22 4
q80 25 80 98z" />
    <glyph glyph-name="AE" unicode="&#xc6;" horiz-adv-x="1935" 
d="M1911 182q0 -43 -35 -88t-98 -76q-61 -27 -131 -43t-193 -32.5t-260.5 -34t-263.5 -39.5q-2 -2 -8 -2q-21 0 -21 27q0 1 8 222t19 451q-82 -20 -141 -29.5t-121 -9.5l-80 -168q-71 -151 -151 -220.5t-159 -69.5q-75 0 -136.5 56t-90.5 140q-24 76 -24 158q0 91 29 153
t77 62q51 0 113 -82q30 -40 30 -88q0 -38 -17 -62t-44 -24q-53 0 -88 111v4q0 14 10 14q5 0 8 -8q23 -49 45 -49q27 0 27 41q0 8 -4 24q-23 64 -66 64q-28 0 -48.5 -33t-20.5 -88q0 -50 20 -109q51 -151 152 -151q115 0 229 207q8 14 66 127q-98 15 -144.5 51.5t-46.5 79.5
q0 29 18 54.5t48.5 41.5t64.5 16h6q91 -6 91 -53q0 -21 -23 -38t-57 -17h-15q-14 3 -14 12q0 8 10 8q35 6 35 31q0 22 -29 22h-4q-28 -1 -47.5 -20.5t-19.5 -44.5q0 -50 76 -62q52 -4 86 -4q19 43 80 192.5t122.5 302t97.5 237t76 163.5q3 10 23 13q76 8 193.5 15t259.5 7
q51 0 157 -4q201 -8 201 -115q0 -33 -22.5 -70.5t-55.5 -64.5q-69 -61 -141 -61q-45 0 -72 24t-27 56q0 37 38.5 68t113.5 44h2q8 0 8 -8q0 -5 -6 -8q-37 -14 -58.5 -35.5t-21.5 -42.5q0 -27 31 -27q42 0 98 62q29 27 29 53q0 23 -20.5 36t-59.5 13h-4q-99 0 -218.5 -13.5
t-307.5 -53.5q-8 -2 -10 -4.5t-3 -14.5q-12 -133 -18 -397q195 53 344 53q20 0 29 -2q104 -6 153 -36.5t49 -73.5q0 -42 -42 -78.5t-99 -40.5q-6 -2 -16 -2q-78 0 -78 47q0 25 24 44t62 19q2 0 4 -0.5t4 -1.5q12 0 12 -8q0 -9 -12 -12q-31 -6 -31 -31q0 -22 27 -22
q2 1 3.5 1.5t4.5 0.5q29 4 48.5 22t19.5 41q0 42 -76 45q-8 2 -25 2q-174 0 -405 -100q-2 -39 -2 -117q0 -348 12 -653q0 -13 4.5 -18t14.5 -5q3 1 5 1.5t5 0.5q14 1 76 3t149.5 6.5t185.5 11t162 14.5q69 10 109.5 38.5t40.5 59.5q0 22 -22 38t-62 20q-4 1 -8 1.5t-11 0.5
q-37 0 -59.5 -14t-22.5 -29q0 -23 39 -23q26 0 56 9q0 1 1 1.5l1 0.5q12 0 12 -15q0 -4 -6 -10q-54 -29 -94 -29q-32 0 -52 18t-20 44q0 36 41 65t117 29h18q78 -4 118 -36.5t40 -78.5zM969 1210q-46 -129 -258 -587q135 16 221 49q18 347 37 538z" />
    <glyph glyph-name="Ccedilla" unicode="&#xc7;" horiz-adv-x="981" 
d="M956 545q0 -91 -70 -207.5t-216 -231.5q-131 -99 -254 -114l2 -41v-4q0 -17 16 -17h10q59 17 115 17q68 0 102.5 -30t34.5 -79q0 -48 -28 -103t-75 -101t-106 -72q-46 -23 -92 -23q-45 0 -72.5 25t-27.5 63q0 54 45 105q59 65 106 65q37 0 37 -41q0 -42 -43 -88
q-9 -12 -20 -12q-12 0 -12 14q0 7 6 19q8 8 8 20q0 19 -16 19q-15 0 -25 -11q-12 -9 -22.5 -28.5t-10.5 -38.5q0 -41 53 -41q21 0 45 6q32 7 59 31.5t42.5 57t15.5 67.5q0 112 -90 112q-35 0 -98 -18q-4 -2 -13 -2q-18 0 -18 20l2 105q-139 6 -230 112.5t-91 286.5
q0 184 100 404q82 176 191.5 295.5t219 175t195.5 55.5q67 0 106.5 -31t39.5 -86q0 -59 -50 -135q-76 -119 -159 -119q-37 0 -60.5 25t-23.5 59q0 40 35.5 81.5t107.5 64.5q2 2 6 2q17 0 17 -11q0 -7 -13 -14q-67 -34 -67 -80q0 -17 10 -28t27 -11q40 0 71 58q25 44 25 84
q0 33 -19 51t-57 18q-66 0 -160 -61q-100 -65 -181.5 -202t-126 -301t-44.5 -300q0 -131 42.5 -211t127.5 -80q98 0 244 113q118 92 174.5 180t56.5 149q0 54 -39 54q-26 0 -63 -37q-31 -31 -31 -51q0 -21 25 -21q16 0 26 10q5 5 8 5q5 0 9 -4t4 -9q0 -11 -11 -16
q-33 -29 -69 -29q-47 0 -47 43q0 40 51 94q79 86 147 86q39 0 62.5 -29.5t23.5 -82.5z" />
    <glyph glyph-name="Egrave" unicode="&#xc8;" horiz-adv-x="954" 
d="M930 489q0 -64 -33 -143q-43 -101 -110 -185t-149 -147t-167.5 -97t-159.5 -34q-144 0 -200 121q-31 58 -31 158q0 101 33 225.5t88.5 240.5t130.5 214q-78 24 -168 90q-139 107 -139 244q0 73 44.5 140t136 121.5t230.5 88.5q112 28 207 28q78 0 131 -18.5t79 -49.5
t26 -69q0 -47 -42.5 -91t-113.5 -64q-36 -11 -61 -11q-47 0 -73 20t-26 46t27.5 44.5t81.5 18.5q14 0 14 -10q0 -7 -10 -10q-51 -11 -51 -37q0 -10 13 -19.5t30 -9.5q23 0 51 19q29 26 29 61q0 53 -49.5 94t-139.5 41q-41 0 -94 -12q-140 -31 -210.5 -118.5t-70.5 -194.5
q0 -58 20 -110t58 -95q54 -60 115 -82q87 97 174 129q91 35 160 35q41 0 63.5 -14t22.5 -35q0 -34 -52.5 -75t-154.5 -77q-103 -31 -164 -31q-33 0 -47 2q-76 -123 -121 -354q-14 -71 -14 -139q0 -98 29.5 -165.5t80 -102.5t113.5 -35q67 0 136.5 38.5t132.5 115.5t108 190
q16 46 16 76q0 48 -29 77t-67 29q-41 0 -68 -33q-26 -38 -26 -65q0 -22 16 -35.5t37 -13.5q31 0 47 28q6 13 14 13q11 0 11 -13q0 -4 -2 -6q-12 -32 -40.5 -49.5t-60.5 -17.5q-27 0 -55 13t-45 38.5t-17 58.5q0 44 33 103q50 80 152 80q71 0 120.5 -44.5t49.5 -128.5z
M625 963q0 24 -35 24q-12 0 -21 -2q-89 -19 -153 -98q14 -4 43 -4q87 0 149 51q17 14 17 29zM492 1702q0 -16 -23 -29q-6 -4 -10 -7.5t-10.5 -7t-10.5 -3.5q-8 0 -20 12q-3 3 -35.5 30t-56.5 46t-44.5 38t-39.5 38q-9 9 -9 18q0 16 41 53q25 25 45 25q19 0 39 -21
q18 -19 57.5 -83t65.5 -89q11 -15 11 -20z" />
    <glyph glyph-name="Eacute" unicode="&#xc9;" horiz-adv-x="954" 
d="M930 489q0 -64 -33 -143q-43 -101 -110 -185t-149 -147t-167.5 -97t-159.5 -34q-144 0 -200 121q-31 58 -31 158q0 101 33 225.5t88.5 240.5t130.5 214q-78 24 -168 90q-139 107 -139 244q0 73 44.5 140t136 121.5t230.5 88.5q112 28 207 28q78 0 131 -18.5t79 -49.5
t26 -69q0 -47 -42.5 -91t-113.5 -64q-36 -11 -61 -11q-47 0 -73 20t-26 46t27.5 44.5t81.5 18.5q14 0 14 -10q0 -7 -10 -10q-51 -11 -51 -37q0 -10 13 -19.5t30 -9.5q23 0 51 19q29 26 29 61q0 53 -49.5 94t-139.5 41q-41 0 -94 -12q-140 -31 -210.5 -118.5t-70.5 -194.5
q0 -58 20 -110t58 -95q54 -60 115 -82q87 97 174 129q91 35 160 35q41 0 63.5 -14t22.5 -35q0 -34 -52.5 -75t-154.5 -77q-103 -31 -164 -31q-33 0 -47 2q-76 -123 -121 -354q-14 -71 -14 -139q0 -98 29.5 -165.5t80 -102.5t113.5 -35q67 0 136.5 38.5t132.5 115.5t108 190
q16 46 16 76q0 48 -29 77t-67 29q-41 0 -68 -33q-26 -38 -26 -65q0 -22 16 -35.5t37 -13.5q31 0 47 28q6 13 14 13q11 0 11 -13q0 -4 -2 -6q-12 -32 -40.5 -49.5t-60.5 -17.5q-27 0 -55 13t-45 38.5t-17 58.5q0 44 33 103q50 80 152 80q71 0 120.5 -44.5t49.5 -128.5z
M625 963q0 24 -35 24q-12 0 -21 -2q-89 -19 -153 -98q14 -4 43 -4q87 0 149 51q17 14 17 29zM803 1833q0 -10 -8 -18q-17 -22 -77.5 -66.5t-82.5 -73.5q-7 -10 -21 -10q-7 0 -14.5 6.5t-15.5 11.5q-23 14 -23 29q0 7 10 19q9 13 46 73t61 86q20 21 39 21q20 0 45 -23
q41 -41 41 -55z" />
    <glyph glyph-name="Ecircumflex" unicode="&#xca;" horiz-adv-x="954" 
d="M930 489q0 -64 -33 -143q-43 -101 -110 -185t-149 -147t-167.5 -97t-159.5 -34q-144 0 -200 121q-31 58 -31 158q0 101 33 225.5t88.5 240.5t130.5 214q-78 24 -168 90q-139 107 -139 244q0 73 44.5 140t136 121.5t230.5 88.5q112 28 207 28q78 0 131 -18.5t79 -49.5
t26 -69q0 -47 -42.5 -91t-113.5 -64q-36 -11 -61 -11q-47 0 -73 20t-26 46t27.5 44.5t81.5 18.5q14 0 14 -10q0 -7 -10 -10q-51 -11 -51 -37q0 -10 13 -19.5t30 -9.5q23 0 51 19q29 26 29 61q0 53 -49.5 94t-139.5 41q-41 0 -94 -12q-140 -31 -210.5 -118.5t-70.5 -194.5
q0 -58 20 -110t58 -95q54 -60 115 -82q87 97 174 129q91 35 160 35q41 0 63.5 -14t22.5 -35q0 -34 -52.5 -75t-154.5 -77q-103 -31 -164 -31q-33 0 -47 2q-76 -123 -121 -354q-14 -71 -14 -139q0 -98 29.5 -165.5t80 -102.5t113.5 -35q67 0 136.5 38.5t132.5 115.5t108 190
q16 46 16 76q0 48 -29 77t-67 29q-41 0 -68 -33q-26 -38 -26 -65q0 -22 16 -35.5t37 -13.5q31 0 47 28q6 13 14 13q11 0 11 -13q0 -4 -2 -6q-12 -32 -40.5 -49.5t-60.5 -17.5q-27 0 -55 13t-45 38.5t-17 58.5q0 44 33 103q50 80 152 80q71 0 120.5 -44.5t49.5 -128.5z
M625 963q0 24 -35 24q-12 0 -21 -2q-89 -19 -153 -98q14 -4 43 -4q87 0 149 51q17 14 17 29zM737 1653q0 -8 -19.5 -14.5t-33.5 -6.5t-14 6l-178 326q-58 -94 -114 -181t-73.5 -114t-21 -32t-4.5 -7q-6 -10 -17 -10q-9 0 -19 10t-10 17q0 4 3 6q106 178 153 259.5t79 134
t38.5 63t7.5 12.5q8 14 21 14q14 0 18 -14q110 -277 147 -371.5t37 -97.5z" />
    <glyph glyph-name="Edieresis" unicode="&#xcb;" horiz-adv-x="954" 
d="M930 489q0 -64 -33 -143q-43 -101 -110 -185t-149 -147t-167.5 -97t-159.5 -34q-144 0 -200 121q-31 58 -31 158q0 101 33 225.5t88.5 240.5t130.5 214q-78 24 -168 90q-139 107 -139 244q0 73 44.5 140t136 121.5t230.5 88.5q112 28 207 28q78 0 131 -18.5t79 -49.5
t26 -69q0 -47 -42.5 -91t-113.5 -64q-36 -11 -61 -11q-47 0 -73 20t-26 46t27.5 44.5t81.5 18.5q14 0 14 -10q0 -7 -10 -10q-51 -11 -51 -37q0 -10 13 -19.5t30 -9.5q23 0 51 19q29 26 29 61q0 53 -49.5 94t-139.5 41q-41 0 -94 -12q-140 -31 -210.5 -118.5t-70.5 -194.5
q0 -58 20 -110t58 -95q54 -60 115 -82q87 97 174 129q91 35 160 35q41 0 63.5 -14t22.5 -35q0 -34 -52.5 -75t-154.5 -77q-103 -31 -164 -31q-33 0 -47 2q-76 -123 -121 -354q-14 -71 -14 -139q0 -98 29.5 -165.5t80 -102.5t113.5 -35q67 0 136.5 38.5t132.5 115.5t108 190
q16 46 16 76q0 48 -29 77t-67 29q-41 0 -68 -33q-26 -38 -26 -65q0 -22 16 -35.5t37 -13.5q31 0 47 28q6 13 14 13q11 0 11 -13q0 -4 -2 -6q-12 -32 -40.5 -49.5t-60.5 -17.5q-27 0 -55 13t-45 38.5t-17 58.5q0 44 33 103q50 80 152 80q71 0 120.5 -44.5t49.5 -128.5z
M625 963q0 24 -35 24q-12 0 -21 -2q-89 -19 -153 -98q14 -4 43 -4q87 0 149 51q17 14 17 29zM725 1757q0 -71 -78 -100q-8 -2 -22 -2q-32 0 -56 28t-24 60v6q3 38 33.5 63t68.5 25h2q38 0 55 -15t21 -50v-15zM434 1772q0 -29 -18 -64q-21 -35 -62 -35q-48 0 -73 35
q-19 23 -19 55q0 53 35 80q29 25 53 25q25 0 47 -23q37 -30 37 -73z" />
    <glyph glyph-name="Igrave" unicode="&#xcc;" horiz-adv-x="1094" 
d="M1071 82q0 -91 -76 -174q-61 -64 -155 -64q-121 0 -213 107q-63 72 -117 184q-106 -172 -215 -172q-84 0 -170 98q-100 114 -100 209q0 68 51.5 107t118.5 39q38 0 67 -13q100 -41 100 -120q0 -38 -24.5 -65.5t-61.5 -27.5q-35 0 -63 25q-8 5 -8 12q0 15 14 15q4 0 6 -2
q18 -15 33 -15q35 0 35 54q0 36 -21 66t-59 30h-8q-34 -3 -52 -36t-18 -79q0 -88 46.5 -162.5t107.5 -74.5q81 0 160 137q5 9 26 51q-63 157 -95 343.5t-32 369.5q0 275 68 456q50 125 123 125q40 0 76.5 -39t54.5 -98q51 -157 51 -379q0 -126 -16 -225q-14 -89 -34 -177
t-45.5 -170.5t-52.5 -148.5q19 -71 43 -139q35 -92 90 -138t111 -46q57 0 96.5 36t40.5 89q2 4 2 14q0 62 -29.5 96.5t-72.5 34.5q-58 0 -94 -59q-15 -22 -15 -39q0 -16 9.5 -26.5t21.5 -10.5q22 0 39 22q4 4 10 4q11 0 11 -12v-6q-22 -59 -68 -59q-28 0 -49 24t-21 62
q0 23 9 47q23 66 66 98.5t93 32.5t97.5 -28t77.5 -76.5t30 -106.5zM657 1034q0 104 -15.5 160.5t-39.5 56.5q-25 0 -46 -69.5t-30 -200.5q-4 -122 -4 -193q0 -220 29 -401q79 227 102 541q4 39 4 106zM541 1677q0 -15 -23 -28q-3 -1 -9.5 -7t-12 -9t-9.5 -3q-8 0 -20 12
q-15 14 -66 55t-70 57t-40 40q-8 8 -8 18q0 17 41 54q24 24 45 24q18 0 39 -20q21 -22 58.5 -84.5t63.5 -87.5q11 -13 11 -21z" />
    <glyph glyph-name="Iacute" unicode="&#xcd;" horiz-adv-x="1094" 
d="M1071 82q0 -91 -76 -174q-61 -64 -155 -64q-121 0 -213 107q-63 72 -117 184q-106 -172 -215 -172q-84 0 -170 98q-100 114 -100 209q0 68 51.5 107t118.5 39q38 0 67 -13q100 -41 100 -120q0 -38 -24.5 -65.5t-61.5 -27.5q-35 0 -63 25q-8 5 -8 12q0 15 14 15q4 0 6 -2
q18 -15 33 -15q35 0 35 54q0 36 -21 66t-59 30h-8q-34 -3 -52 -36t-18 -79q0 -88 46.5 -162.5t107.5 -74.5q81 0 160 137q5 9 26 51q-63 157 -95 343.5t-32 369.5q0 275 68 456q50 125 123 125q40 0 76.5 -39t54.5 -98q51 -157 51 -379q0 -126 -16 -225q-14 -89 -34 -177
t-45.5 -170.5t-52.5 -148.5q19 -71 43 -139q35 -92 90 -138t111 -46q57 0 96.5 36t40.5 89q2 4 2 14q0 62 -29.5 96.5t-72.5 34.5q-58 0 -94 -59q-15 -22 -15 -39q0 -16 9.5 -26.5t21.5 -10.5q22 0 39 22q4 4 10 4q11 0 11 -12v-6q-22 -59 -68 -59q-28 0 -49 24t-21 62
q0 23 9 47q23 66 66 98.5t93 32.5t97.5 -28t77.5 -76.5t30 -106.5zM657 1034q0 104 -15.5 160.5t-39.5 56.5q-25 0 -46 -69.5t-30 -200.5q-4 -122 -4 -193q0 -220 29 -401q79 227 102 541q4 39 4 106zM778 1796q0 -10 -8 -18q-14 -18 -76 -64.5t-84 -75.5q-6 -10 -20 -10
q-6 0 -11 3t-8 5.5t-12 8.5q-22 16 -22 28q0 8 10 21q19 26 50 79t56 80q21 21 39 21q22 0 45 -25q41 -35 41 -53z" />
    <glyph glyph-name="Icircumflex" unicode="&#xce;" horiz-adv-x="1094" 
d="M1071 82q0 -91 -76 -174q-61 -64 -155 -64q-121 0 -213 107q-63 72 -117 184q-106 -172 -215 -172q-84 0 -170 98q-100 114 -100 209q0 68 51.5 107t118.5 39q38 0 67 -13q100 -41 100 -120q0 -38 -24.5 -65.5t-61.5 -27.5q-35 0 -63 25q-8 5 -8 12q0 15 14 15q4 0 6 -2
q18 -15 33 -15q35 0 35 54q0 36 -21 66t-59 30h-8q-34 -3 -52 -36t-18 -79q0 -88 46.5 -162.5t107.5 -74.5q81 0 160 137q5 9 26 51q-63 157 -95 343.5t-32 369.5q0 275 68 456q50 125 123 125q40 0 76.5 -39t54.5 -98q51 -157 51 -379q0 -126 -16 -225q-14 -89 -34 -177
t-45.5 -170.5t-52.5 -148.5q19 -71 43 -139q35 -92 90 -138t111 -46q57 0 96.5 36t40.5 89q2 4 2 14q0 62 -29.5 96.5t-72.5 34.5q-58 0 -94 -59q-15 -22 -15 -39q0 -16 9.5 -26.5t21.5 -10.5q22 0 39 22q4 4 10 4q11 0 11 -12v-6q-22 -59 -68 -59q-28 0 -49 24t-21 62
q0 23 9 47q23 66 66 98.5t93 32.5t97.5 -28t77.5 -76.5t30 -106.5zM657 1034q0 104 -15.5 160.5t-39.5 56.5q-25 0 -46 -69.5t-30 -200.5q-4 -122 -4 -193q0 -220 29 -401q79 227 102 541q4 39 4 106zM795 1473q0 -8 -20.5 -14.5t-33.5 -6.5q-14 0 -14 6l-178 326
q-58 -94 -114 -181t-73.5 -114t-21 -32t-4.5 -7q-5 -10 -17 -10q-10 0 -19 10t-9 16q0 4 2 7q79 134 141 238.5t92.5 156t37 62t7.5 12.5q10 14 21 14q14 0 18 -14q107 -266 146 -366t39 -103z" />
    <glyph glyph-name="Idieresis" unicode="&#xcf;" horiz-adv-x="1094" 
d="M1071 82q0 -91 -76 -174q-61 -64 -155 -64q-121 0 -213 107q-63 72 -117 184q-106 -172 -215 -172q-84 0 -170 98q-100 114 -100 209q0 68 51.5 107t118.5 39q38 0 67 -13q100 -41 100 -120q0 -38 -24.5 -65.5t-61.5 -27.5q-35 0 -63 25q-8 5 -8 12q0 15 14 15q4 0 6 -2
q18 -15 33 -15q35 0 35 54q0 36 -21 66t-59 30h-8q-34 -3 -52 -36t-18 -79q0 -88 46.5 -162.5t107.5 -74.5q81 0 160 137q5 9 26 51q-63 157 -95 343.5t-32 369.5q0 275 68 456q50 125 123 125q40 0 76.5 -39t54.5 -98q51 -157 51 -379q0 -126 -16 -225q-14 -89 -34 -177
t-45.5 -170.5t-52.5 -148.5q19 -71 43 -139q35 -92 90 -138t111 -46q57 0 96.5 36t40.5 89q2 4 2 14q0 62 -29.5 96.5t-72.5 34.5q-58 0 -94 -59q-15 -22 -15 -39q0 -16 9.5 -26.5t21.5 -10.5q22 0 39 22q4 4 10 4q11 0 11 -12v-6q-22 -59 -68 -59q-28 0 -49 24t-21 62
q0 23 9 47q23 66 66 98.5t93 32.5t97.5 -28t77.5 -76.5t30 -106.5zM657 1034q0 104 -15.5 160.5t-39.5 56.5q-25 0 -46 -69.5t-30 -200.5q-4 -122 -4 -193q0 -220 29 -401q79 227 102 541q4 39 4 106zM807 1741q0 -35 -20 -60.5t-58 -40.5q-8 -2 -22 -2q-32 0 -56 28t-24 60
v7q3 38 33.5 63t68.5 25h2q36 0 54 -15.5t22 -50.5v-14zM516 1755q0 -30 -18 -63q-21 -35 -62 -35q-48 0 -74 35q-18 24 -18 55q0 51 35 80q30 24 53 24q25 0 47 -22q37 -31 37 -74z" />
    <glyph glyph-name="Ntilde" unicode="&#xd1;" horiz-adv-x="963" 
d="M938 1192q0 -66 -21 -107t-51 -41q-24 0 -47.5 29.5t-42 93t-26.5 156.5v4q0 16 14 16q10 0 10 -16q6 -70 28 -110.5t46 -40.5q29 0 29 57q0 20 -3 31q-10 76 -43.5 124t-74.5 48q-25 0 -49.5 -22t-45.5 -68.5t-34 -118.5q-21 -106 -21 -250q0 -202 42 -442.5t104 -442.5
q0 -9 -29 -16.5t-57 -7.5q-22 0 -25 6q-59 124 -98.5 216.5t-86.5 212t-89.5 227t-71.5 177.5q49 -315 49 -553q0 -226 -43.5 -358t-111 -183.5t-150.5 -56.5h-2q-12 0 -12 19q0 17 14 20q92 19 136 133.5t46 290.5v17q0 102 -15.5 274.5t-30.5 285.5t-51 374t-58 415v2
q0 29 63 29q26 0 45.5 -5.5t22.5 -15.5l57.5 -172.5l87.5 -262.5t73.5 -219.5t73.5 -219.5q-2 55 -2 158q0 232 32 385.5t84.5 222.5t113.5 69q43 0 84 -32t73 -88.5t50 -132.5q14 -57 14 -111zM887 1845q0 -68 -78 -125q-68 -51 -109 -51q-34 0 -34 37q0 39 41 86q6 6 12 6
q16 0 16 -10q0 -4 -4 -8q-14 -15 -14 -27q0 -16 24 -16q16 0 43 12q47 23 47 68q0 25 -18.5 43t-50.5 18q-17 0 -25 -2q-43 -9 -99 -47.5t-117.5 -79t-158.5 -72.5q-22 -8 -63 -8q-67 0 -99 31.5t-32 79.5q0 43 24.5 82.5t63.5 56.5q51 25 92 25q33 0 50.5 -16.5t17.5 -41.5
q0 -33 -29.5 -59.5t-79.5 -26.5h-2q-16 0 -16 10q0 14 12 17q53 16 53 41q0 13 -13.5 21.5t-35.5 8.5q-15 0 -29 -6q-18 -6 -33.5 -31.5t-15.5 -52.5q0 -57 70 -57q22 0 37 4q66 18 110 42.5t100.5 67t92.5 61.5t78 22q8 2 26 2q68 0 107 -30t39 -75z" />
    <glyph glyph-name="Ograve" unicode="&#xd2;" horiz-adv-x="891" 
d="M866 633q0 -156 -38.5 -279t-102.5 -206.5t-145 -128t-164 -44.5q-93 0 -174 54.5t-137 166t-72 277.5q-8 76 -8 170q0 169 33.5 315t98 256.5t156 176t203.5 75.5h2q14 0 14 -12t-12 -12q-135 -15 -247.5 -166.5t-112.5 -444.5q0 -69 10 -172q23 -202 105.5 -304.5
t189.5 -102.5q61 0 118 32.5t103.5 95.5t74 153.5t27.5 201.5q0 176 -73 375q-23 63 -52.5 107.5t-62 65t-63.5 20.5t-63 -21.5t-58 -62.5q-33 -51 -33 -105q0 -39 22 -63.5t54 -24.5q57 0 106 72q19 29 19 53q0 27 -23 27q-33 0 -90 -60q-4 -4 -10 -4t-6 8q0 1 4 11
q43 88 108 88q32 0 53 -22.5t21 -59.5q0 -47 -35 -99q-100 -149 -200 -149q-50 0 -80.5 41.5t-30.5 107.5q0 83 47 170q85 150 199 150q60 0 117.5 -47.5t102.5 -138t74.5 -233t30.5 -308.5zM459 1628q0 -15 -23 -29q-1 -1 -12 -9.5t-18 -8.5q-9 0 -21 12q-3 3 -35.5 30
t-56.5 46t-44.5 38t-39.5 38q-8 8 -8 18q0 17 41 54q24 24 45 24q18 0 39 -20q18 -19 58.5 -84.5t64.5 -87.5q10 -15 10 -21z" />
    <glyph glyph-name="Oacute" unicode="&#xd3;" horiz-adv-x="891" 
d="M866 633q0 -156 -38.5 -279t-102.5 -206.5t-145 -128t-164 -44.5q-93 0 -174 54.5t-137 166t-72 277.5q-8 76 -8 170q0 169 33.5 315t98 256.5t156 176t203.5 75.5h2q14 0 14 -12t-12 -12q-135 -15 -247.5 -166.5t-112.5 -444.5q0 -69 10 -172q23 -202 105.5 -304.5
t189.5 -102.5q61 0 118 32.5t103.5 95.5t74 153.5t27.5 201.5q0 176 -73 375q-23 63 -52.5 107.5t-62 65t-63.5 20.5t-63 -21.5t-58 -62.5q-33 -51 -33 -105q0 -39 22 -63.5t54 -24.5q57 0 106 72q19 29 19 53q0 27 -23 27q-33 0 -90 -60q-4 -4 -10 -4t-6 8q0 1 4 11
q43 88 108 88q32 0 53 -22.5t21 -59.5q0 -47 -35 -99q-100 -149 -200 -149q-50 0 -80.5 41.5t-30.5 107.5q0 83 47 170q85 150 199 150q60 0 117.5 -47.5t102.5 -138t74.5 -233t30.5 -308.5zM721 1722q0 -10 -8 -18q-17 -20 -77.5 -65t-82.5 -74q-6 -11 -21 -11q-7 0 -15 7
t-15 10q-23 15 -23 28q0 8 10 21q13 18 48.5 76.5t58.5 83.5q20 20 39 20q21 0 45 -24q41 -39 41 -54z" />
    <glyph glyph-name="Ocircumflex" unicode="&#xd4;" horiz-adv-x="891" 
d="M866 633q0 -156 -38.5 -279t-102.5 -206.5t-145 -128t-164 -44.5q-93 0 -174 54.5t-137 166t-72 277.5q-8 76 -8 170q0 169 33.5 315t98 256.5t156 176t203.5 75.5h2q14 0 14 -12t-12 -12q-135 -15 -247.5 -166.5t-112.5 -444.5q0 -69 10 -172q23 -202 105.5 -304.5
t189.5 -102.5q61 0 118 32.5t103.5 95.5t74 153.5t27.5 201.5q0 176 -73 375q-23 63 -52.5 107.5t-62 65t-63.5 20.5t-63 -21.5t-58 -62.5q-33 -51 -33 -105q0 -39 22 -63.5t54 -24.5q57 0 106 72q19 29 19 53q0 27 -23 27q-33 0 -90 -60q-4 -4 -10 -4t-6 8q0 1 4 11
q43 88 108 88q32 0 53 -22.5t21 -59.5q0 -47 -35 -99q-100 -149 -200 -149q-50 0 -80.5 41.5t-30.5 107.5q0 83 47 170q85 150 199 150q60 0 117.5 -47.5t102.5 -138t74.5 -233t30.5 -308.5zM745 1497q0 -7 -19.5 -13.5t-33.5 -6.5t-14 6l-178 325q-126 -201 -167 -264
t-46 -69q-5 -11 -17 -11q-11 0 -19.5 9.5t-8.5 17.5q0 4 2 6q79 134 141 238.5t92.5 156t37 62t7.5 12.5q8 14 21 14q14 0 18 -14q110 -277 147 -371.5t37 -97.5z" />
    <glyph glyph-name="Otilde" unicode="&#xd5;" horiz-adv-x="891" 
d="M866 633q0 -156 -38.5 -279t-102.5 -206.5t-145 -128t-164 -44.5q-93 0 -174 54.5t-137 166t-72 277.5q-8 76 -8 170q0 169 33.5 315t98 256.5t156 176t203.5 75.5h2q14 0 14 -12t-12 -12q-135 -15 -247.5 -166.5t-112.5 -444.5q0 -69 10 -172q23 -202 105.5 -304.5
t189.5 -102.5q61 0 118 32.5t103.5 95.5t74 153.5t27.5 201.5q0 176 -73 375q-23 63 -52.5 107.5t-62 65t-63.5 20.5t-63 -21.5t-58 -62.5q-33 -51 -33 -105q0 -39 22 -63.5t54 -24.5q57 0 106 72q19 29 19 53q0 27 -23 27q-33 0 -90 -60q-4 -4 -10 -4t-6 8q0 1 4 11
q43 88 108 88q32 0 53 -22.5t21 -59.5q0 -47 -35 -99q-100 -149 -200 -149q-50 0 -80.5 41.5t-30.5 107.5q0 83 47 170q85 150 199 150q60 0 117.5 -47.5t102.5 -138t74.5 -233t30.5 -308.5zM856 1718q0 -32 -20 -65.5t-58 -59.5q-68 -51 -108 -51q-35 0 -35 37q0 41 39 86
q6 6 14 6q14 0 14 -10q0 -6 -2 -8q-16 -18 -16 -27q0 -16 25 -16q17 0 43 12q47 23 47 68q0 25 -18.5 43t-51.5 18q-14 0 -24 -2q-33 -6 -62.5 -24.5t-84 -57t-104 -66t-124.5 -53.5q-23 -6 -64 -6q-66 0 -98.5 32t-32.5 79q0 42 24.5 81t63.5 58q61 25 94 25q32 0 50 -17
t18 -41q0 -32 -30 -59t-81 -27h-2q-16 0 -16 10t14 17q52 17 52 41q0 13 -15 22t-35 9q-10 0 -28 -7q-18 -6 -32.5 -32t-14.5 -52q0 -57 69 -57q23 0 35 4q80 20 146.5 65t123 84t111.5 44q7 1 12.5 1.5t14.5 0.5q70 0 108.5 -30t38.5 -75z" />
    <glyph glyph-name="Odieresis" unicode="&#xd6;" horiz-adv-x="891" 
d="M866 633q0 -156 -38.5 -279t-102.5 -206.5t-145 -128t-164 -44.5q-93 0 -174 54.5t-137 166t-72 277.5q-8 76 -8 170q0 169 33.5 315t98 256.5t156 176t203.5 75.5h2q14 0 14 -12t-12 -12q-135 -15 -247.5 -166.5t-112.5 -444.5q0 -69 10 -172q23 -202 105.5 -304.5
t189.5 -102.5q61 0 118 32.5t103.5 95.5t74 153.5t27.5 201.5q0 176 -73 375q-23 63 -52.5 107.5t-62 65t-63.5 20.5t-63 -21.5t-58 -62.5q-33 -51 -33 -105q0 -39 22 -63.5t54 -24.5q57 0 106 72q19 29 19 53q0 27 -23 27q-33 0 -90 -60q-4 -4 -10 -4t-6 8q0 1 4 11
q43 88 108 88q32 0 53 -22.5t21 -59.5q0 -47 -35 -99q-100 -149 -200 -149q-50 0 -80.5 41.5t-30.5 107.5q0 83 47 170q85 150 199 150q60 0 117.5 -47.5t102.5 -138t74.5 -233t30.5 -308.5zM774 1659q0 -71 -78 -100q-8 -3 -22 -3q-31 0 -55.5 28t-24.5 61v6q3 38 33.5 63
t68.5 25h2q37 0 54.5 -15t21.5 -51v-14zM483 1673q0 -30 -18 -63q-20 -35 -62 -35q-49 0 -73 35q-19 23 -19 55q0 50 35 80q31 24 53 24q25 0 47 -22q37 -31 37 -74z" />
    <glyph glyph-name="Oslash" unicode="&#xd8;" horiz-adv-x="1260" 
d="M1235 1434q0 -9 -4 -15q-78 -122 -152 -231q60 -69 94.5 -168t34.5 -221q0 -156 -59 -342q-76 -239 -231.5 -365.5t-325.5 -126.5q-157 0 -268 103q-57 -85 -68 -101t-32.5 -48t-53.5 -81q-17 -26 -41 -26q-21 0 -57 26q-17 13 -26.5 20.5t-15 14.5t-5.5 14t4 15
q21 28 209 278q-60 117 -60 264q0 246 154 553q5 9 8 9q6 0 6 -7q0 -3 -0.5 -4.5t-1.5 -3.5q-61 -220 -61 -395q0 -169 55 -279q64 86 151.5 204.5t163.5 223t181 253.5t112 159q-42 55 -101 82t-120 27q-76 0 -139.5 -33t-83.5 -80q-19 -45 -19 -82q0 -36 17 -59t39 -23
q42 0 71 68q15 33 15 55q0 21 -15 21q-14 0 -33.5 -19.5t-19.5 -38.5v-6q2 0 2 -2q0 -10 -12 -10q-17 0 -17 14v6q12 46 40 72.5t57 26.5q20 0 33.5 -15.5t13.5 -42.5q0 -30 -15 -65q-24 -64 -63 -98.5t-80 -34.5q-42 0 -70 33.5t-28 93.5q0 48 24 116q36 92 116.5 140.5
t180.5 48.5q152 0 275 -99q95 137 139 205q12 15 25 15q9 0 16.5 -4t13.5 -7q27 -11 27 -28zM1040 811q0 152 -43 254q-88 -132 -136 -202.5t-148 -218.5t-151.5 -224t-141.5 -209q76 -61 172 -61q94 0 188 59t161 169t87 257q12 94 12 176z" />
    <glyph glyph-name="Ugrave" unicode="&#xd9;" horiz-adv-x="1337" 
d="M1313 76q0 -95 -54 -169.5t-129 -74.5q-47 0 -97 37t-98.5 122t-88.5 218q-159 -270 -293 -270q-56 0 -97.5 54.5t-65.5 169.5t-25 286q-1 224 -19.5 392t-47.5 266t-65 143.5t-73 45.5q-30 0 -60 -28q-24 -28 -24 -54q0 -22 17.5 -38.5t37.5 -16.5q48 0 51 74q0 8 6 8
q11 0 11 -12q2 -8 2 -27q0 -65 -29.5 -100t-69.5 -35q-33 0 -55 24.5t-22 67.5q0 70 55 150q29 46 68 73t83 27q52 0 98 -43.5t83.5 -140.5t60.5 -267.5t23 -404.5v-94v-23q0 -147 34 -222t91 -75q91 0 198 170q-37 160 -59 334q-15 126 -15 229q0 152 29 254.5t74 152.5
t96 50q44 0 81.5 -36.5t60 -108.5t22.5 -164q0 -143 -47 -295q-45 -158 -113 -313q50 -231 121 -355q45 -82 90 -82q31 0 53.5 33.5t28.5 87.5q2 13 2 33q0 35 -9 54.5t-22 19.5q-17 0 -31 -34.5t-14 -100.5q0 -11 -6 -11q-16 0 -16 29q0 87 27 144t61 57q30 0 53 -50
t27 -145v-16zM1032 971q0 78 -15 122t-38 44q-30 0 -53 -77.5t-23 -221.5q0 -61 6 -136q2 -48 19 -178q104 249 104 447zM655 1448q0 -16 -22 -29q-4 -2 -14 -10t-17 -8q-8 0 -20 12q-23 22 -87 72.5t-89 79.5q-9 8 -9 18q0 16 41 53q25 25 45 25q19 0 39 -21
q18 -19 57.5 -83t65.5 -89q10 -13 10 -20z" />
    <glyph glyph-name="Uacute" unicode="&#xda;" horiz-adv-x="1337" 
d="M1313 76q0 -95 -54 -169.5t-129 -74.5q-47 0 -97 37t-98.5 122t-88.5 218q-159 -270 -293 -270q-56 0 -97.5 54.5t-65.5 169.5t-25 286q-1 224 -19.5 392t-47.5 266t-65 143.5t-73 45.5q-30 0 -60 -28q-24 -28 -24 -54q0 -22 17.5 -38.5t37.5 -16.5q48 0 51 74q0 8 6 8
q11 0 11 -12q2 -8 2 -27q0 -65 -29.5 -100t-69.5 -35q-33 0 -55 24.5t-22 67.5q0 70 55 150q29 46 68 73t83 27q52 0 98 -43.5t83.5 -140.5t60.5 -267.5t23 -404.5v-94v-23q0 -147 34 -222t91 -75q91 0 198 170q-37 160 -59 334q-15 126 -15 229q0 152 29 254.5t74 152.5
t96 50q44 0 81.5 -36.5t60 -108.5t22.5 -164q0 -143 -47 -295q-45 -158 -113 -313q50 -231 121 -355q45 -82 90 -82q31 0 53.5 33.5t28.5 87.5q2 13 2 33q0 35 -9 54.5t-22 19.5q-17 0 -31 -34.5t-14 -100.5q0 -11 -6 -11q-16 0 -16 29q0 87 27 144t61 57q30 0 53 -50
t27 -145v-16zM1032 971q0 78 -15 122t-38 44q-30 0 -53 -77.5t-23 -221.5q0 -61 6 -136q2 -48 19 -178q104 249 104 447zM795 1518q0 -11 -9 -19q-18 -22 -77.5 -66t-81.5 -73q-6 -10 -21 -10q-7 0 -19 8l-12 8q-22 16 -22 29q0 7 10 20q13 18 48.5 76.5t58.5 83.5
q20 20 39 20t45 -24q41 -39 41 -53z" />
    <glyph glyph-name="Ucircumflex" unicode="&#xdb;" horiz-adv-x="1337" 
d="M1313 76q0 -95 -54 -169.5t-129 -74.5q-47 0 -97 37t-98.5 122t-88.5 218q-159 -270 -293 -270q-56 0 -97.5 54.5t-65.5 169.5t-25 286q-1 224 -19.5 392t-47.5 266t-65 143.5t-73 45.5q-30 0 -60 -28q-24 -28 -24 -54q0 -22 17.5 -38.5t37.5 -16.5q48 0 51 74q0 8 6 8
q11 0 11 -12q2 -8 2 -27q0 -65 -29.5 -100t-69.5 -35q-33 0 -55 24.5t-22 67.5q0 70 55 150q29 46 68 73t83 27q52 0 98 -43.5t83.5 -140.5t60.5 -267.5t23 -404.5v-94v-23q0 -147 34 -222t91 -75q91 0 198 170q-37 160 -59 334q-15 126 -15 229q0 152 29 254.5t74 152.5
t96 50q44 0 81.5 -36.5t60 -108.5t22.5 -164q0 -143 -47 -295q-45 -158 -113 -313q50 -231 121 -355q45 -82 90 -82q31 0 53.5 33.5t28.5 87.5q2 13 2 33q0 35 -9 54.5t-22 19.5q-17 0 -31 -34.5t-14 -100.5q0 -11 -6 -11q-16 0 -16 29q0 87 27 144t61 57q30 0 53 -50
t27 -145v-16zM1032 971q0 78 -15 122t-38 44q-30 0 -53 -77.5t-23 -221.5q0 -61 6 -136q2 -48 19 -178q104 249 104 447zM885 1456q0 -7 -20.5 -13.5t-33.5 -6.5q-14 0 -14 6l-178 325q-126 -201 -167 -264t-46 -69q-5 -11 -16 -11q-12 0 -20.5 9.5t-8.5 17.5q0 4 2 6
q79 134 140 237.5t93 156t38.5 63t7.5 12.5q8 14 20 14q14 0 18 -14q107 -266 146 -366t39 -103z" />
    <glyph glyph-name="Udieresis" unicode="&#xdc;" horiz-adv-x="1337" 
d="M1313 76q0 -95 -54 -169.5t-129 -74.5q-47 0 -97 37t-98.5 122t-88.5 218q-159 -270 -293 -270q-56 0 -97.5 54.5t-65.5 169.5t-25 286q-1 224 -19.5 392t-47.5 266t-65 143.5t-73 45.5q-30 0 -60 -28q-24 -28 -24 -54q0 -22 17.5 -38.5t37.5 -16.5q48 0 51 74q0 8 6 8
q11 0 11 -12q2 -8 2 -27q0 -65 -29.5 -100t-69.5 -35q-33 0 -55 24.5t-22 67.5q0 70 55 150q29 46 68 73t83 27q52 0 98 -43.5t83.5 -140.5t60.5 -267.5t23 -404.5v-94v-23q0 -147 34 -222t91 -75q91 0 198 170q-37 160 -59 334q-15 126 -15 229q0 152 29 254.5t74 152.5
t96 50q44 0 81.5 -36.5t60 -108.5t22.5 -164q0 -143 -47 -295q-45 -158 -113 -313q50 -231 121 -355q45 -82 90 -82q31 0 53.5 33.5t28.5 87.5q2 13 2 33q0 35 -9 54.5t-22 19.5q-17 0 -31 -34.5t-14 -100.5q0 -11 -6 -11q-16 0 -16 29q0 87 27 144t61 57q30 0 53 -50
t27 -145v-16zM1032 971q0 78 -15 122t-38 44q-30 0 -53 -77.5t-23 -221.5q0 -61 6 -136q2 -48 19 -178q104 249 104 447zM840 1520q0 -35 -20 -60.5t-58 -40.5q-8 -2 -23 -2q-32 0 -56 28t-24 60v6q4 38 34.5 63t68.5 25h2q38 0 55 -15t21 -50v-14zM549 1534
q0 -30 -19.5 -64t-60.5 -34q-48 0 -74 34q-18 25 -18 56q0 51 35 80q30 24 53 24q25 0 47 -22q37 -31 37 -74z" />
    <glyph glyph-name="germandbls" unicode="&#xdf;" horiz-adv-x="1260" 
d="M1235 750q0 -160 -96 -383q-66 -157 -193.5 -249.5t-238.5 -92.5q-64 0 -103 32.5t-39 92.5q0 42 19 90q22 64 58 100.5t69 36.5q22 0 36.5 -18t14.5 -48q0 -51 -41 -125q-7 -10 -16 -10q-11 0 -11 10q0 7 2 11q13 23 13 41q0 28 -27 28q-14 0 -28 -13t-21 -40
q-4 -24 -4 -33q0 -39 23.5 -60.5t60.5 -21.5q48 0 107.5 36t119 112t107.5 190q59 149 59 262q0 89 -35 144t-98 59q-10 -26 -43 -98q-43 -85 -95.5 -125.5t-103.5 -40.5q-37 0 -62.5 21.5t-25.5 54.5q0 48 53.5 102t163.5 98q11 4 24 9.5t29 11.5q35 98 35 168
q0 57 -20.5 86t-55.5 29q-61 0 -124 -80q-46 -58 -82 -137.5t-64.5 -180t-53 -226.5t-50.5 -300q-31 -205 -102.5 -306.5t-155.5 -101.5q-53 0 -101 36.5t-82 103.5q-32 68 -32 127q0 56 26 91.5t62 35.5q35 0 64.5 -36.5t43.5 -109.5v-8q0 -21 -14 -21q-10 0 -17 17
q-19 67 -61 67q-21 0 -37 -20t-16 -49q0 -37 24 -68q48 -61 105 -61q63 0 119.5 79t89.5 238q14 65 32.5 215.5t34.5 249t49 207.5t88 199q141 219 273 219q64 0 103.5 -58t39.5 -159q0 -104 -41 -226q40 7 66 7q176 0 176 -211zM897 891q-11 -5 -22.5 -9.5t-18.5 -9.5
q-62 -30 -93.5 -67t-31.5 -66q0 -28 25 -28q27 0 66.5 45t74.5 135z" />
    <glyph glyph-name="agrave" unicode="&#xe0;" horiz-adv-x="1047" 
d="M1022 449q0 -8 -0.5 -12t-1.5 -9q-62 -228 -138.5 -335t-154.5 -107q-46 0 -88 35t-76 98q-36 62 -59 143q-75 -124 -160.5 -191t-157.5 -67t-116.5 63t-44.5 177q0 82 26 185.5t83.5 228.5t152.5 272q78 117 151 117q31 0 50.5 -24.5t19.5 -64.5q0 -48 -27 -106
q-22 -45 -51 -45q-18 0 -31 22.5t-14 61.5q0 16 14 16q11 0 11 -12v-4q0 -31 16 -31q9 0 20 13.5t15 31.5v13q0 20 -14.5 34.5t-34.5 14.5q-46 0 -82 -68q-82 -148 -123 -277.5t-41 -224.5q0 -83 29 -129.5t77 -46.5q71 0 152 96q41 51 55 74q-6 58 -6 121q0 138 29 297
q14 94 51.5 144.5t79.5 50.5q35 0 57.5 -34t22.5 -96q0 -36 -11 -83q-46 -206 -114 -363q35 -146 108 -258q38 -61 78 -61q58 0 106.5 91t120.5 267q8 12 11 12q5 0 7.5 -8.5t2.5 -21.5zM662 856q0 41 -31 41q-13 0 -24.5 -11.5t-16.5 -29.5q-31 -100 -31 -207q0 -38 8 -114
q44 85 69 168.5t26 150.5v2zM553 1159q0 -15 -23 -29q-4 -4 -8.5 -8t-9 -7t-12.5 -3q-11 0 -21 9.5t-78.5 66t-97.5 86.5q-8 8 -8 18q0 15 41 56q26 22 45 22t39 -20q17 -17 57.5 -82t65.5 -90q10 -12 10 -19z" />
    <glyph glyph-name="aacute" unicode="&#xe1;" horiz-adv-x="1047" 
d="M1022 449q0 -8 -0.5 -12t-1.5 -9q-62 -228 -138.5 -335t-154.5 -107q-46 0 -88 35t-76 98q-36 62 -59 143q-75 -124 -160.5 -191t-157.5 -67t-116.5 63t-44.5 177q0 82 26 185.5t83.5 228.5t152.5 272q78 117 151 117q31 0 50.5 -24.5t19.5 -64.5q0 -48 -27 -106
q-22 -45 -51 -45q-18 0 -31 22.5t-14 61.5q0 16 14 16q11 0 11 -12v-4q0 -31 16 -31q9 0 20 13.5t15 31.5v13q0 20 -14.5 34.5t-34.5 14.5q-46 0 -82 -68q-82 -148 -123 -277.5t-41 -224.5q0 -83 29 -129.5t77 -46.5q71 0 152 96q41 51 55 74q-6 58 -6 121q0 138 29 297
q14 94 51.5 144.5t79.5 50.5q35 0 57.5 -34t22.5 -96q0 -36 -11 -83q-46 -206 -114 -363q35 -146 108 -258q38 -61 78 -61q58 0 106.5 91t120.5 267q8 12 11 12q5 0 7.5 -8.5t2.5 -21.5zM662 856q0 41 -31 41q-13 0 -24.5 -11.5t-16.5 -29.5q-31 -100 -31 -207q0 -38 8 -114
q44 85 69 168.5t26 150.5v2zM778 1272q0 -10 -8 -19q-17 -20 -77.5 -65t-82.5 -74q-6 -10 -20 -10q-7 0 -19 8l-12 8q-22 16 -22 29q0 7 10 20q16 22 48.5 77.5t57.5 82.5q22 21 39 21q20 0 45 -25q41 -35 41 -53z" />
    <glyph glyph-name="acircumflex" unicode="&#xe2;" horiz-adv-x="1047" 
d="M1022 449q0 -8 -0.5 -12t-1.5 -9q-62 -228 -138.5 -335t-154.5 -107q-46 0 -88 35t-76 98q-36 62 -59 143q-75 -124 -160.5 -191t-157.5 -67t-116.5 63t-44.5 177q0 82 26 185.5t83.5 228.5t152.5 272q78 117 151 117q31 0 50.5 -24.5t19.5 -64.5q0 -48 -27 -106
q-22 -45 -51 -45q-18 0 -31 22.5t-14 61.5q0 16 14 16q11 0 11 -12v-4q0 -31 16 -31q9 0 20 13.5t15 31.5v13q0 20 -14.5 34.5t-34.5 14.5q-46 0 -82 -68q-82 -148 -123 -277.5t-41 -224.5q0 -83 29 -129.5t77 -46.5q71 0 152 96q41 51 55 74q-6 58 -6 121q0 138 29 297
q14 94 51.5 144.5t79.5 50.5q35 0 57.5 -34t22.5 -96q0 -36 -11 -83q-46 -206 -114 -363q35 -146 108 -258q38 -61 78 -61q58 0 106.5 91t120.5 267q8 12 11 12q5 0 7.5 -8.5t2.5 -21.5zM662 856q0 41 -31 41q-13 0 -24.5 -11.5t-16.5 -29.5q-31 -100 -31 -207q0 -38 8 -114
q44 85 69 168.5t26 150.5v2zM745 1120q0 -7 -19.5 -13.5t-33.5 -6.5t-14 6l-178 326q-96 -152 -140.5 -222t-57.5 -89.5l-15 -22.5q-5 -11 -17 -11q-11 0 -19.5 9.5t-8.5 17.5q0 4 2 6q79 134 141 238.5t92.5 156t37 62t7.5 12.5q9 15 21 15q14 0 18 -15
q125 -313 154.5 -389.5t29.5 -79.5z" />
    <glyph glyph-name="atilde" unicode="&#xe3;" horiz-adv-x="1047" 
d="M1022 449q0 -8 -0.5 -12t-1.5 -9q-62 -228 -138.5 -335t-154.5 -107q-46 0 -88 35t-76 98q-36 62 -59 143q-75 -124 -160.5 -191t-157.5 -67t-116.5 63t-44.5 177q0 82 26 185.5t83.5 228.5t152.5 272q78 117 151 117q31 0 50.5 -24.5t19.5 -64.5q0 -48 -27 -106
q-22 -45 -51 -45q-18 0 -31 22.5t-14 61.5q0 16 14 16q11 0 11 -12v-4q0 -31 16 -31q9 0 20 13.5t15 31.5v13q0 20 -14.5 34.5t-34.5 14.5q-46 0 -82 -68q-82 -148 -123 -277.5t-41 -224.5q0 -83 29 -129.5t77 -46.5q71 0 152 96q41 51 55 74q-6 58 -6 121q0 138 29 297
q14 94 51.5 144.5t79.5 50.5q35 0 57.5 -34t22.5 -96q0 -36 -11 -83q-46 -206 -114 -363q35 -146 108 -258q38 -61 78 -61q58 0 106.5 91t120.5 267q8 12 11 12q5 0 7.5 -8.5t2.5 -21.5zM662 856q0 41 -31 41q-13 0 -24.5 -11.5t-16.5 -29.5q-31 -100 -31 -207q0 -38 8 -114
q44 85 69 168.5t26 150.5v2zM911 1337q0 -67 -80 -125q-71 -49 -108 -49q-35 0 -35 37q0 39 41 86q6 6 12 6q17 0 17 -12q0 -2 -4 -6q-15 -14 -15 -27q0 -18 25 -18q21 0 43 14q47 24 47 68q0 25 -18.5 43t-51.5 18q-8 0 -13 -0.5t-11 -1.5q-43 -8 -97.5 -46t-117 -80
t-160.5 -75q-23 -6 -63 -6q-65 0 -98.5 32t-33.5 79q0 42 25 81.5t64 57.5q53 25 92 25q32 0 49.5 -16.5t17.5 -41.5q0 -32 -29 -59t-79 -27h-2q-17 0 -17 11t13 14q53 17 53 41q0 14 -14 22.5t-35 8.5t-29 -5q-20 -8 -34.5 -33t-14.5 -50q0 -60 69 -60q9 0 37 4
q62 17 108.5 42.5t101 67t90.5 61.5t81 24h27q68 0 107.5 -30t39.5 -75z" />
    <glyph glyph-name="adieresis" unicode="&#xe4;" horiz-adv-x="1047" 
d="M1022 449q0 -8 -0.5 -12t-1.5 -9q-62 -228 -138.5 -335t-154.5 -107q-46 0 -88 35t-76 98q-36 62 -59 143q-75 -124 -160.5 -191t-157.5 -67t-116.5 63t-44.5 177q0 82 26 185.5t83.5 228.5t152.5 272q78 117 151 117q31 0 50.5 -24.5t19.5 -64.5q0 -48 -27 -106
q-22 -45 -51 -45q-18 0 -31 22.5t-14 61.5q0 16 14 16q11 0 11 -12v-4q0 -31 16 -31q9 0 20 13.5t15 31.5v13q0 20 -14.5 34.5t-34.5 14.5q-46 0 -82 -68q-82 -148 -123 -277.5t-41 -224.5q0 -83 29 -129.5t77 -46.5q71 0 152 96q41 51 55 74q-6 58 -6 121q0 138 29 297
q14 94 51.5 144.5t79.5 50.5q35 0 57.5 -34t22.5 -96q0 -36 -11 -83q-46 -206 -114 -363q35 -146 108 -258q38 -61 78 -61q58 0 106.5 91t120.5 267q8 12 11 12q5 0 7.5 -8.5t2.5 -21.5zM662 856q0 41 -31 41q-13 0 -24.5 -11.5t-16.5 -29.5q-31 -100 -31 -207q0 -38 8 -114
q44 85 69 168.5t26 150.5v2zM766 1249q0 -71 -78 -100q-8 -2 -22 -2q-32 0 -56 28t-24 60v6q3 38 33.5 63t68.5 25h2q38 0 55 -15t21 -50v-15zM475 1264q0 -29 -18 -64q-22 -35 -62 -35q-48 0 -73 35q-19 25 -19 55q0 53 35 80q29 25 53 25q25 0 47 -23q37 -30 37 -73z" />
    <glyph glyph-name="aring" unicode="&#xe5;" horiz-adv-x="1047" 
d="M1022 449q0 -8 -0.5 -12t-1.5 -9q-62 -228 -138.5 -335t-154.5 -107q-46 0 -88 35t-76 98q-36 62 -59 143q-75 -124 -160.5 -191t-157.5 -67t-116.5 63t-44.5 177q0 82 26 185.5t83.5 228.5t152.5 272q78 117 151 117q31 0 50.5 -24.5t19.5 -64.5q0 -48 -27 -106
q-22 -45 -51 -45q-18 0 -31 22.5t-14 61.5q0 16 14 16q11 0 11 -12v-4q0 -31 16 -31q9 0 20 13.5t15 31.5v13q0 20 -14.5 34.5t-34.5 14.5q-46 0 -82 -68q-82 -148 -123 -277.5t-41 -224.5q0 -83 29 -129.5t77 -46.5q71 0 152 96q41 51 55 74q-6 58 -6 121q0 138 29 297
q14 94 51.5 144.5t79.5 50.5q35 0 57.5 -34t22.5 -96q0 -36 -11 -83q-46 -206 -114 -363q35 -146 108 -258q38 -61 78 -61q58 0 106.5 91t120.5 267q8 12 11 12q5 0 7.5 -8.5t2.5 -21.5zM662 856q0 41 -31 41q-13 0 -24.5 -11.5t-16.5 -29.5q-31 -100 -31 -207q0 -38 8 -114
q44 85 69 168.5t26 150.5v2zM754 1311q0 -65 -39.5 -113t-112.5 -76q-28 -8 -43 -8q-60 0 -104.5 53.5t-44.5 116.5v10q4 72 63 121t131 49h2q71 -2 104 -29t42 -94q2 -10 2 -30zM668 1311v14q-4 35 -21.5 50t-54.5 16h-2q-37 0 -67.5 -26t-35.5 -65v-4q0 -33 24.5 -61.5
t55.5 -28.5q9 0 21 4q80 30 80 101z" />
    <glyph glyph-name="ae" unicode="&#xe6;" horiz-adv-x="1339" 
d="M1315 440q0 -51 -29 -123q-42 -106 -124.5 -186t-182.5 -123t-197 -43q-156 0 -225 109q-67 -47 -123.5 -80t-75.5 -41q-104 -47 -186 -47q-71 0 -109 36t-38 99q0 102 96.5 231t281.5 238q98 58 147.5 125.5t49.5 126.5q0 48 -29 76t-77 28q-90 0 -195 -88
q-123 -100 -123 -164q0 -39 45 -39q14 0 43 11q41 20 41 39q0 10 -9.5 16t-27.5 6q-8 0 -24 -4q-1 -1 -2 -1.5t-2 -0.5q-11 0 -11 12t15 23q54 29 94 29q25 0 39 -12.5t14 -33.5q0 -27 -25 -58t-73 -58q-87 -49 -152 -49q-73 0 -73 63q0 33 20 74.5t61.5 90.5t106.5 103
q137 115 281 115q61 0 109 -22.5t76 -62t28 -85.5q0 -14 -2 -20q81 82 158.5 121.5t140.5 39.5q65 0 104 -37t39 -96q0 -53 -34 -112t-103 -113q-135 -106 -402 -168q-8 -39 -8 -82q0 -87 46.5 -139.5t135.5 -52.5q29 0 43 2q100 14 172 56t109.5 97t50.5 115q6 21 6 39
q0 45 -37 45t-73 -31q-25 -24 -25 -51q0 -12 7 -22.5t18 -10.5q17 0 30 17q6 6 17 6q10 0 10 -8q0 -9 -8 -17q-53 -59 -105 -59q-47 0 -47 47q0 51 70 121q40 38 84 60t82 22q39 0 62.5 -25t23.5 -74zM1016 702q0 26 -14.5 41t-40.5 15q-43 0 -111 -51q-64 -55 -111.5 -126
t-72.5 -143q159 45 278 144q72 61 72 120zM573 508q-48 -43 -110 -84q-140 -97 -207.5 -180t-67.5 -140q0 -39 29 -60t80 -21q113 0 242 86q-25 50 -25 124q0 15 2 21q6 146 57 254z" />
    <glyph glyph-name="ccedilla" unicode="&#xe7;" horiz-adv-x="729" 
d="M756 551q0 -2 -0.5 -4t-1.5 -4q-81 -214 -188.5 -332.5t-217.5 -144.5l2 -23v-4q0 -16 19 -16q6 0 8 2q72 16 115 16q75 0 111 -33.5t36 -87.5q0 -71 -56.5 -149.5t-140.5 -116.5q-51 -21 -92 -21q-46 0 -73 24.5t-27 63.5q0 53 47 103q57 65 104 65q39 0 39 -39t-45 -90
q-7 -10 -20 -10t-13 12q0 8 7 19q8 11 8 22q0 19 -17 19q-7 0 -24 -10q-11 -9 -22 -30.5t-11 -37.5q0 -43 53 -43q20 0 47 6q52 14 93 63t41 99q0 108 -101 108q-44 0 -106 -20q-4 0 -6.5 -0.5t-6.5 -1.5q-18 0 -18 22l2 82q-4 -2 -12 -2q-113 0 -188.5 95.5t-75.5 242.5
q0 93 32 195q75 228 177.5 338t191.5 110q46 0 73 -27t27 -73v-6q-1 -49 -16.5 -84.5t-38 -52.5t-47.5 -17q-26 0 -45 21t-19 55q0 26 9 47q6 12 14 12t8 -8q9 -45 37 -45q19 0 34 21t15 55q0 59 -53 59q-29 0 -62 -21.5t-67.5 -68.5t-63 -119t-47.5 -174q-14 -66 -14 -129
q0 -121 50.5 -187.5t131.5 -66.5q60 0 127.5 37t133 109.5t118.5 175.5q7 10 14 10q11 0 11 -10z" />
    <glyph glyph-name="egrave" unicode="&#xe8;" horiz-adv-x="1100" 
d="M1075 528q0 -6 -2 -8q-39 -109 -128.5 -227t-199.5 -196.5t-208 -78.5q-54 0 -101 27q-74 42 -108.5 112t-34.5 162q0 43 6 87q-56 -13 -115 -13h-8q-77 1 -114 32.5t-37 78.5q0 28 13.5 56t37.5 45.5t49 17.5q59 0 104 -86q2 -2 2 -7q0 -14 -18 -14q-12 0 -20 10
q-26 43 -60 43q-21 0 -35 -16.5t-14 -36.5q0 -25 23 -41t69 -16h6q61 0 135 30q22 81 54.5 154.5t79.5 151.5t103 149.5t108 120.5q37 37 93.5 62.5t104.5 25.5q90 0 90 -92q0 -53 -37 -143q-68 -163 -201 -286.5t-288 -187.5q3 -132 98 -188q65 -39 133 -39q80 0 156 46.5
t135.5 118t100.5 150.5q5 13 16 13q12 0 12 -17zM795 981q0 43 -39 43q-52 0 -119 -76q-58 -64 -115.5 -174.5t-83.5 -218.5q134 89 275 262q82 106 82 164zM729 1251q0 -15 -22 -28q-1 0 -12.5 -9.5t-18.5 -9.5q-8 0 -21 13q-3 3 -35.5 30t-56.5 46t-42 35t-42 40
q-8 8 -8 18q0 15 41 54q24 24 45 24q19 0 39 -20q18 -19 57.5 -83t65.5 -89q10 -13 10 -21z" />
    <glyph glyph-name="eacute" unicode="&#xe9;" horiz-adv-x="1100" 
d="M1075 528q0 -6 -2 -8q-39 -109 -128.5 -227t-199.5 -196.5t-208 -78.5q-54 0 -101 27q-74 42 -108.5 112t-34.5 162q0 43 6 87q-56 -13 -115 -13h-8q-77 1 -114 32.5t-37 78.5q0 28 13.5 56t37.5 45.5t49 17.5q59 0 104 -86q2 -2 2 -7q0 -14 -18 -14q-12 0 -20 10
q-26 43 -60 43q-21 0 -35 -16.5t-14 -36.5q0 -25 23 -41t69 -16h6q61 0 135 30q22 81 54.5 154.5t79.5 151.5t103 149.5t108 120.5q37 37 93.5 62.5t104.5 25.5q90 0 90 -92q0 -53 -37 -143q-68 -163 -201 -286.5t-288 -187.5q3 -132 98 -188q65 -39 133 -39q80 0 156 46.5
t135.5 118t100.5 150.5q5 13 16 13q12 0 12 -17zM795 981q0 43 -39 43q-52 0 -119 -76q-58 -64 -115.5 -174.5t-83.5 -218.5q134 89 275 262q82 106 82 164zM1149 1411q0 -10 -8 -18q-16 -18 -49.5 -44t-64 -50.5t-46.5 -45.5q-6 -10 -20 -10q-7 0 -12.5 3t-10.5 7.5t-8 6.5
q-23 15 -23 28q0 7 10.5 21t46 73t60.5 86q20 21 39 21q22 0 45 -25q41 -37 41 -53z" />
    <glyph glyph-name="ecircumflex" unicode="&#xea;" horiz-adv-x="1100" 
d="M1075 528q0 -6 -2 -8q-39 -109 -128.5 -227t-199.5 -196.5t-208 -78.5q-54 0 -101 27q-74 42 -108.5 112t-34.5 162q0 43 6 87q-56 -13 -115 -13h-8q-77 1 -114 32.5t-37 78.5q0 28 13.5 56t37.5 45.5t49 17.5q59 0 104 -86q2 -2 2 -7q0 -14 -18 -14q-12 0 -20 10
q-26 43 -60 43q-21 0 -35 -16.5t-14 -36.5q0 -25 23 -41t69 -16h6q61 0 135 30q22 81 54.5 154.5t79.5 151.5t103 149.5t108 120.5q37 37 93.5 62.5t104.5 25.5q90 0 90 -92q0 -53 -37 -143q-68 -163 -201 -286.5t-288 -187.5q3 -132 98 -188q65 -39 133 -39q80 0 156 46.5
t135.5 118t100.5 150.5q5 13 16 13q12 0 12 -17zM795 981q0 43 -39 43q-52 0 -119 -76q-58 -64 -115.5 -174.5t-83.5 -218.5q134 89 275 262q82 106 82 164zM1057 1219q0 -8 -20.5 -14.5t-32.5 -6.5q-15 0 -15 6l-178 326q-58 -94 -114 -181t-73.5 -114t-21 -32t-4.5 -7
q-5 -10 -16 -10t-20 10t-9 16q0 5 2 7q79 134 140 237.5t93 156t38.5 63t7.5 12.5q8 14 20 14q14 0 18 -14q107 -266 146 -366t39 -103z" />
    <glyph glyph-name="edieresis" unicode="&#xeb;" horiz-adv-x="1100" 
d="M1075 528q0 -6 -2 -8q-39 -109 -128.5 -227t-199.5 -196.5t-208 -78.5q-54 0 -101 27q-74 42 -108.5 112t-34.5 162q0 43 6 87q-56 -13 -115 -13h-8q-77 1 -114 32.5t-37 78.5q0 28 13.5 56t37.5 45.5t49 17.5q59 0 104 -86q2 -2 2 -7q0 -14 -18 -14q-12 0 -20 10
q-26 43 -60 43q-21 0 -35 -16.5t-14 -36.5q0 -25 23 -41t69 -16h6q61 0 135 30q22 81 54.5 154.5t79.5 151.5t103 149.5t108 120.5q37 37 93.5 62.5t104.5 25.5q90 0 90 -92q0 -53 -37 -143q-68 -163 -201 -286.5t-288 -187.5q3 -132 98 -188q65 -39 133 -39q80 0 156 46.5
t135.5 118t100.5 150.5q5 13 16 13q12 0 12 -17zM795 981q0 43 -39 43q-52 0 -119 -76q-58 -64 -115.5 -174.5t-83.5 -218.5q134 89 275 262q82 106 82 164zM1053 1356q0 -35 -20 -60.5t-58 -40.5q-8 -2 -23 -2q-32 0 -56 28t-24 60v7q4 39 34.5 63.5t68.5 24.5h2
q36 0 54 -15.5t22 -50.5v-14zM762 1370q0 -31 -19 -63q-20 -35 -61 -35q-48 0 -74 35q-18 24 -18 55q0 51 35 80q30 24 53 24q25 0 47 -22q37 -31 37 -74z" />
    <glyph glyph-name="igrave" unicode="&#xec;" horiz-adv-x="236" 
d="M213 -121q0 -16 -7.5 -22t-19 -8t-16.5 -3q-24 -4 -35 -4q-26 0 -26 23q-8 91 -20.5 294.5t-18 286.5t-21.5 234q0 14 -0.5 22t-1.5 17q0 39 18.5 57.5t65.5 28.5q24 6 43 6q23 0 30 -11.5t7 -43.5v-8q-6 -259 -6 -459q0 -209 8 -406v-4zM156 948q0 -15 -23 -28
q-6 -4 -10 -8t-10.5 -7.5t-10.5 -3.5q-8 0 -20 12q-3 3 -35.5 30t-56.5 46t-44.5 38t-39.5 38q-8 8 -8 18q0 17 41 54q24 24 45 24q18 0 39 -20q17 -19 56.5 -83t65.5 -89q11 -13 11 -21z" />
    <glyph glyph-name="iacute" unicode="&#xed;" horiz-adv-x="236" 
d="M213 -121q0 -16 -7.5 -22t-19 -8t-16.5 -3q-24 -4 -35 -4q-26 0 -26 23q-8 91 -20.5 294.5t-18 286.5t-21.5 234q0 14 -0.5 22t-1.5 17q0 39 18.5 57.5t65.5 28.5q24 6 43 6q23 0 30 -11.5t7 -43.5v-8q-6 -259 -6 -459q0 -209 8 -406v-4zM328 1075q0 -10 -9 -18
q-18 -22 -77.5 -66t-81.5 -73q-6 -11 -21 -11q-7 0 -15 7t-15 10q-23 15 -23 28q0 8 10 21q13 18 47.5 74.5t59.5 85.5q20 20 39 20q20 0 45 -25q41 -37 41 -53z" />
    <glyph glyph-name="icircumflex" unicode="&#xee;" horiz-adv-x="236" 
d="M213 -121q0 -16 -7.5 -22t-19 -8t-16.5 -3q-24 -4 -35 -4q-26 0 -26 23q-8 91 -20.5 294.5t-18 286.5t-21.5 234q0 14 -0.5 22t-1.5 17q0 39 18.5 57.5t65.5 28.5q24 6 43 6q23 0 30 -11.5t7 -43.5v-8q-6 -259 -6 -459q0 -209 8 -406v-4zM377 809q0 -7 -19 -14t-34 -7
t-15 7l-178 325q-146 -232 -177 -280t-36 -54q-5 -10 -16 -10q-12 0 -20.5 9.5t-8.5 17.5q0 4 2 6q79 134 140 237.5t93 156t38.5 63t7.5 12.5q8 14 20 14q14 0 19 -14q110 -277 147 -371.5t37 -97.5z" />
    <glyph glyph-name="idieresis" unicode="&#xef;" horiz-adv-x="236" 
d="M213 -121q0 -16 -7.5 -22t-19 -8t-16.5 -3q-24 -4 -35 -4q-26 0 -26 23q-8 91 -20.5 294.5t-18 286.5t-21.5 234q0 14 -0.5 22t-1.5 17q0 39 18.5 57.5t65.5 28.5q24 6 43 6q23 0 30 -11.5t7 -43.5v-8q-6 -259 -6 -459q0 -209 8 -406v-4zM356 1036q0 -72 -77 -100
q-9 -2 -23 -2q-32 0 -56 28t-24 60v6q3 38 33.5 63t69.5 25h2q38 0 54 -14.5t21 -50.5v-15zM66 1051q0 -28 -19 -64q-20 -35 -61 -35q-49 0 -74 35q-18 25 -18 55q0 52 34 80q31 25 54 25q24 0 47 -23q37 -31 37 -73z" />
    <glyph glyph-name="ntilde" unicode="&#xf1;" horiz-adv-x="1229" 
d="M1204 354q0 -95 -74 -235q-32 -64 -75 -118.5t-85 -83t-79 -28.5q-57 0 -91 72t-34 225q0 101 10 191q10 81 10 176q0 136 -27 207t-79 71q-75 0 -178 -161q26 -164 26 -385q0 -68 -2 -105q-1 -75 -16 -132.5t-40.5 -97.5t-54 -58.5t-59.5 -18.5q-53 0 -92 56.5
t-39 154.5q0 78 23 156q56 221 145 405q-28 130 -78 202.5t-104 72.5q-64 0 -113 -101q-30 -59 -30 -98q0 -43 32 -43q19 0 41 17t37 46q6 16 6 25q0 22 -18 22q-13 0 -31 -18q-4 -4 -8 -4q-10 0 -10 12q0 3 4 13q27 36 69 36q46 0 46 -47q0 -48 -62 -131q-50 -67 -90 -67
q-28 0 -43.5 31.5t-15.5 80.5q0 99 49 176q40 63 93 103.5t109 40.5q62 0 113.5 -55t85.5 -173q78 116 154.5 173t142.5 57q72 0 115 -67t43 -195q0 -47 -6 -97q-16 -143 -23.5 -244t-7.5 -173q0 -230 63 -230q50 0 129 125q52 77 52 148q0 26 -10.5 43.5t-26.5 17.5
q-35 0 -78 -70q-12 -18 -12 -30q0 -15 14 -15q17 0 45 25q2 2 6 2q8 0 8 -12q0 -11 -8 -19q-53 -59 -84 -59q-24 0 -24 39q0 28 17 70.5t52 89.5q58 73 111 73q57 0 57 -84zM428 326v28q-3 89 -12 162q-22 -46 -27.5 -59t-23.5 -51q-78 -183 -78 -306q0 -98 43 -98
q22 0 44.5 36t38 109.5t15.5 178.5zM979 1292q0 -68 -78 -125q-71 -49 -108 -49q-35 0 -35 37q0 38 39 86q6 6 14 6q16 0 16 -12q0 -2 -4 -6q-14 -14 -14 -27q0 -18 25 -18q16 0 40 12q50 27 50 70q0 25 -19 43t-51 18q-7 0 -25 -4q-37 -7 -62 -22.5t-84 -57.5t-108.5 -69
t-119.5 -50q-23 -6 -64 -6q-66 0 -99.5 31.5t-33.5 79.5q0 41 25 80t65 57q55 27 92 27q33 0 50.5 -16.5t17.5 -41.5q0 -33 -29.5 -59.5t-79.5 -26.5h-4q-14 0 -14 11t12 14q53 16 53 41q0 14 -14 22.5t-37 8.5q-3 0 -28 -5q-19 -8 -33.5 -33t-14.5 -51q0 -59 70 -59
q23 0 37 4q69 19 113 44.5t95.5 64.5t90.5 60.5t82 25.5h27q67 0 106 -30t39 -75z" />
    <glyph glyph-name="ograve" unicode="&#xf2;" horiz-adv-x="631" 
d="M606 487q0 -64 -10 -118q-33 -186 -128 -290t-204 -104q-65 0 -120 40.5t-87 119.5t-32 191q0 47 2 71q13 138 58.5 228.5t110 135t132.5 44.5q21 0 41 -6q14 -3 14 -8q0 -6 -5.5 -9.5t-12.5 -3.5q-125 -10 -188.5 -114t-63.5 -240q1 -6 1.5 -12t0.5 -15
q6 -124 54.5 -190t115.5 -66q47 0 92.5 29.5t80 87t48.5 129.5q10 41 10 90q0 55 -15.5 95.5t-41.5 61.5t-56 21q-36 0 -70 -28.5t-59 -87.5q-16 -36 -16 -72q0 -34 16 -54t37 -20q42 0 72 56q12 27 12 45q0 26 -18 26q-19 0 -43 -24q-4 -4 -8 -4q-9 0 -9 10q1 2 1.5 4
t0.5 6q32 68 72 68q21 0 33 -19t12 -51q0 -45 -24 -86q-28 -48 -64.5 -76.5t-66.5 -28.5q-32 0 -54 28t-22 79q0 57 28 123q38 87 95.5 134.5t115.5 47.5q71 0 116.5 -63.5t45.5 -180.5zM360 948q0 -15 -22 -28q-1 0 -12.5 -9.5t-18.5 -9.5q-8 0 -20 12q-3 3 -35.5 30
t-56.5 46t-44.5 38t-39.5 38q-9 8 -9 18q0 15 41 54q26 24 45 24t39 -20q18 -19 57.5 -83t65.5 -89q10 -13 10 -21z" />
    <glyph glyph-name="oacute" unicode="&#xf3;" horiz-adv-x="631" 
d="M606 487q0 -64 -10 -118q-33 -186 -128 -290t-204 -104q-65 0 -120 40.5t-87 119.5t-32 191q0 47 2 71q13 138 58.5 228.5t110 135t132.5 44.5q21 0 41 -6q14 -3 14 -8q0 -6 -5.5 -9.5t-12.5 -3.5q-125 -10 -188.5 -114t-63.5 -240q1 -6 1.5 -12t0.5 -15
q6 -124 54.5 -190t115.5 -66q47 0 92.5 29.5t80 87t48.5 129.5q10 41 10 90q0 55 -15.5 95.5t-41.5 61.5t-56 21q-36 0 -70 -28.5t-59 -87.5q-16 -36 -16 -72q0 -34 16 -54t37 -20q42 0 72 56q12 27 12 45q0 26 -18 26q-19 0 -43 -24q-4 -4 -8 -4q-9 0 -9 10q1 2 1.5 4
t0.5 6q32 68 72 68q21 0 33 -19t12 -51q0 -45 -24 -86q-28 -48 -64.5 -76.5t-66.5 -28.5q-32 0 -54 28t-22 79q0 57 28 123q38 87 95.5 134.5t115.5 47.5q71 0 116.5 -63.5t45.5 -180.5zM598 1051q0 -11 -8 -19q-17 -20 -77.5 -65t-82.5 -74q-6 -10 -20 -10q-8 0 -17.5 7
t-13.5 9q-23 16 -23 29q0 7 11 20q10 14 46.5 74.5t59.5 85.5q20 20 39 20q21 0 45 -24q41 -37 41 -53z" />
    <glyph glyph-name="ocircumflex" unicode="&#xf4;" horiz-adv-x="631" 
d="M606 487q0 -64 -10 -118q-33 -186 -128 -290t-204 -104q-65 0 -120 40.5t-87 119.5t-32 191q0 47 2 71q13 138 58.5 228.5t110 135t132.5 44.5q21 0 41 -6q14 -3 14 -8q0 -6 -5.5 -9.5t-12.5 -3.5q-125 -10 -188.5 -114t-63.5 -240q1 -6 1.5 -12t0.5 -15
q6 -124 54.5 -190t115.5 -66q47 0 92.5 29.5t80 87t48.5 129.5q10 41 10 90q0 55 -15.5 95.5t-41.5 61.5t-56 21q-36 0 -70 -28.5t-59 -87.5q-16 -36 -16 -72q0 -34 16 -54t37 -20q42 0 72 56q12 27 12 45q0 26 -18 26q-19 0 -43 -24q-4 -4 -8 -4q-9 0 -9 10q1 2 1.5 4
t0.5 6q32 68 72 68q21 0 33 -19t12 -51q0 -45 -24 -86q-28 -48 -64.5 -76.5t-66.5 -28.5q-32 0 -54 28t-22 79q0 57 28 123q38 87 95.5 134.5t115.5 47.5q71 0 116.5 -63.5t45.5 -180.5zM606 852q0 -5 -20.5 -11.5t-32.5 -6.5q-14 0 -14 4l-179 325q-127 -200 -167.5 -263
t-45.5 -69q-5 -10 -16 -10q-10 0 -19.5 9.5t-9.5 17.5q0 4 2 6q79 134 140 237.5t93 156t38.5 63t7.5 12.5q8 14 20 14q15 0 19 -14q110 -277 147 -371.5t37 -97.5v-2z" />
    <glyph glyph-name="otilde" unicode="&#xf5;" horiz-adv-x="631" 
d="M606 487q0 -64 -10 -118q-33 -186 -128 -290t-204 -104q-65 0 -120 40.5t-87 119.5t-32 191q0 47 2 71q13 138 58.5 228.5t110 135t132.5 44.5q21 0 41 -6q14 -3 14 -8q0 -6 -5.5 -9.5t-12.5 -3.5q-125 -10 -188.5 -114t-63.5 -240q1 -6 1.5 -12t0.5 -15
q6 -124 54.5 -190t115.5 -66q47 0 92.5 29.5t80 87t48.5 129.5q10 41 10 90q0 55 -15.5 95.5t-41.5 61.5t-56 21q-36 0 -70 -28.5t-59 -87.5q-16 -36 -16 -72q0 -34 16 -54t37 -20q42 0 72 56q12 27 12 45q0 26 -18 26q-19 0 -43 -24q-4 -4 -8 -4q-9 0 -9 10q1 2 1.5 4
t0.5 6q32 68 72 68q21 0 33 -19t12 -51q0 -45 -24 -86q-28 -48 -64.5 -76.5t-66.5 -28.5q-32 0 -54 28t-22 79q0 57 28 123q38 87 95.5 134.5t115.5 47.5q71 0 116.5 -63.5t45.5 -180.5zM680 1063q0 -67 -80 -123q-68 -51 -108 -51q-35 0 -35 37q0 39 41 86q6 6 12 6
q16 0 16 -12q0 -3 -4 -7q-14 -14 -14 -26q0 -17 24 -17t43 13q48 23 48 67q0 26 -18.5 44t-51.5 18q-16 0 -25 -2q-43 -9 -97.5 -47t-117.5 -79.5t-159 -74.5q-23 -6 -64 -6q-66 0 -98.5 32t-32.5 78q0 43 24.5 82t63.5 58q55 24 92 24q34 0 52 -16t18 -41q0 -32 -30 -59
t-81 -27h-2q-16 0 -16 10q0 9 12 17q53 14 53 40q0 13 -13.5 22t-35.5 9q-16 0 -28 -6q-20 -7 -35 -31.5t-15 -52.5q0 -57 70 -57q23 0 37 2q60 16 107 42t106.5 69.5t91 61t76.5 21.5q7 1 12.5 1.5t13.5 0.5q71 0 109.5 -30t38.5 -76z" />
    <glyph glyph-name="odieresis" unicode="&#xf6;" horiz-adv-x="631" 
d="M606 487q0 -64 -10 -118q-33 -186 -128 -290t-204 -104q-65 0 -120 40.5t-87 119.5t-32 191q0 47 2 71q13 138 58.5 228.5t110 135t132.5 44.5q21 0 41 -6q14 -3 14 -8q0 -6 -5.5 -9.5t-12.5 -3.5q-125 -10 -188.5 -114t-63.5 -240q1 -6 1.5 -12t0.5 -15
q6 -124 54.5 -190t115.5 -66q47 0 92.5 29.5t80 87t48.5 129.5q10 41 10 90q0 55 -15.5 95.5t-41.5 61.5t-56 21q-36 0 -70 -28.5t-59 -87.5q-16 -36 -16 -72q0 -34 16 -54t37 -20q42 0 72 56q12 27 12 45q0 26 -18 26q-19 0 -43 -24q-4 -4 -8 -4q-9 0 -9 10q1 2 1.5 4
t0.5 6q32 68 72 68q21 0 33 -19t12 -51q0 -45 -24 -86q-28 -48 -64.5 -76.5t-66.5 -28.5q-32 0 -54 28t-22 79q0 57 28 123q38 87 95.5 134.5t115.5 47.5q71 0 116.5 -63.5t45.5 -180.5zM561 1004q0 -71 -78 -101q-8 -2 -22 -2q-32 0 -56 28t-24 60v6q3 38 33.5 63t68.5 25
h2q39 0 55 -14.5t21 -50.5v-14zM270 1018q0 -29 -18 -64q-20 -34 -62 -34q-48 0 -73 34q-19 25 -19 56q0 50 35 80q31 24 53 24q25 0 47 -22q37 -31 37 -74z" />
    <glyph glyph-name="divide" unicode="&#xf7;" 
d="M993 760q0 -123 -60 -225.5t-163.5 -163t-224.5 -60.5q-89 0 -172 35t-145 97t-97 145t-35 172q0 121 60.5 224.5t163 163.5t225.5 60q121 0 224.5 -60t163.5 -163.5t60 -224.5zM858 760q0 85 -42.5 158t-114.5 115t-156 42q-85 0 -157 -42t-114.5 -114.5t-42.5 -158.5
q0 -85 42 -157t114.5 -114.5t157.5 -42.5q84 0 156.5 43t114.5 115t42 156z" />
    <glyph glyph-name="oslash" unicode="&#xf8;" horiz-adv-x="1034" 
d="M1010 946q0 -18 -23 -51q-18 -26 -145 -162q43 -91 43 -201q0 -100 -35 -217q-30 -108 -89.5 -182t-136 -111.5t-155.5 -37.5q-129 0 -219 88q-43 -54 -105 -144q-16 -24 -32 -24q-9 0 -25 10t-27 14q-36 12 -36 27q0 10 8 18q38 47 160 179q-41 84 -41 186q0 165 98 362
q1 2 2.5 3.5l2.5 2.5l1 1q4 0 4 -7q0 -4 -2 -6q-39 -142 -39 -258q0 -120 47 -207q47 51 101 110t132.5 147t136 154t91.5 108q-28 43 -72 64.5t-94 21.5q-65 0 -122 -30t-72 -65q-11 -28 -11 -49q0 -28 15.5 -45.5t36.5 -17.5q36 0 59 45q8 16 8 28q0 23 -26 23
q-33 0 -33 -23v-4q0 -8 -8 -8q-13 0 -13 10q0 1 1 2t1 2q7 29 27 44.5t45 15.5q24 0 38.5 -13.5t14.5 -39.5q0 -20 -8 -39q-16 -44 -47 -67t-66 -23q-36 0 -63 26t-27 70q0 35 17 69q35 84 100 127t143 43q59 0 116 -25t99 -71q86 108 127 180q15 23 29 23q24 0 51 -39
q17 -18 17 -37zM776 547q0 54 -10 104q-74 -78 -118 -125t-101.5 -110t-111 -123t-113.5 -131q59 -49 135 -49q69 0 136 39t114.5 111.5t60.5 172.5q8 82 8 111z" />
    <glyph glyph-name="ugrave" unicode="&#xf9;" horiz-adv-x="1104" 
d="M1266 342q0 -6 -2 -10q-90 -245 -186.5 -365.5t-182.5 -120.5q-123 0 -195 207q-48 -86 -97.5 -135t-94.5 -49q-64 0 -114 112t-79 357q-9 81 -18 172.5t-18 138.5t-25.5 79t-44.5 52q-16 13 -39 13q-38 0 -68 -33.5t-30 -87.5v-2q3 -68 49 -68q19 0 34 17.5t15 46.5
q0 18 -2 28q-2 2 -2 6q0 13 8 13t14 -13q31 -51 31 -104q0 -48 -25.5 -77.5t-62.5 -29.5q-41 0 -72 40.5t-34 117.5v15q0 100 55 170.5t125 70.5q65 0 113 -67.5t61 -204.5q14 -141 33 -243.5t44 -172.5t54.5 -104.5t62.5 -34.5q52 0 103 71q-27 127 -27 273v20
q3 154 24 277t54.5 206.5t71 126t71.5 42.5q35 0 58.5 -49.5t23.5 -141.5q0 -174 -84 -440q-40 -134 -90 -250q34 -240 150 -240q47 0 100.5 43t110.5 128.5t106 197.5q6 12 15 12q6 0 6 -10zM895 803q0 94 -31 94q-18 0 -37.5 -45t-35.5 -136.5t-23 -236.5
q0 -30 -0.5 -48.5t-1.5 -41.5q1 -18 1.5 -33.5t0.5 -40.5q33 78 61 160q36 107 51 186.5t15 141.5zM541 997q0 -15 -23 -28q-3 -1 -9.5 -7t-12 -9t-9.5 -3q-8 0 -20 13q-3 3 -35.5 30t-56.5 46t-42 35t-42 40q-8 8 -8 19q0 16 41 53q24 24 45 24q18 0 39 -20
q21 -22 58.5 -84.5t63.5 -87.5q11 -13 11 -21z" />
    <glyph glyph-name="uacute" unicode="&#xfa;" horiz-adv-x="1104" 
d="M1266 342q0 -6 -2 -10q-90 -245 -186.5 -365.5t-182.5 -120.5q-123 0 -195 207q-48 -86 -97.5 -135t-94.5 -49q-64 0 -114 112t-79 357q-9 81 -18 172.5t-18 138.5t-25.5 79t-44.5 52q-16 13 -39 13q-38 0 -68 -33.5t-30 -87.5v-2q3 -68 49 -68q19 0 34 17.5t15 46.5
q0 18 -2 28q-2 2 -2 6q0 13 8 13t14 -13q31 -51 31 -104q0 -48 -25.5 -77.5t-62.5 -29.5q-41 0 -72 40.5t-34 117.5v15q0 100 55 170.5t125 70.5q65 0 113 -67.5t61 -204.5q14 -141 33 -243.5t44 -172.5t54.5 -104.5t62.5 -34.5q52 0 103 71q-27 127 -27 273v20
q3 154 24 277t54.5 206.5t71 126t71.5 42.5q35 0 58.5 -49.5t23.5 -141.5q0 -174 -84 -440q-40 -134 -90 -250q34 -240 150 -240q47 0 100.5 43t110.5 128.5t106 197.5q6 12 15 12q6 0 6 -10zM895 803q0 94 -31 94q-18 0 -37.5 -45t-35.5 -136.5t-23 -236.5
q0 -30 -0.5 -48.5t-1.5 -41.5q1 -18 1.5 -33.5t0.5 -40.5q33 78 61 160q36 107 51 186.5t15 141.5zM713 1149q0 -10 -8 -19q-17 -20 -77.5 -65t-82.5 -74q-6 -10 -21 -10q-7 0 -16.5 7t-13.5 9q-23 17 -23 29q0 6 10 21q13 18 47.5 75t59.5 84q20 21 39 21q20 0 45 -25
q41 -37 41 -53z" />
    <glyph glyph-name="ucircumflex" unicode="&#xfb;" horiz-adv-x="1104" 
d="M1266 342q0 -6 -2 -10q-90 -245 -186.5 -365.5t-182.5 -120.5q-123 0 -195 207q-48 -86 -97.5 -135t-94.5 -49q-64 0 -114 112t-79 357q-9 81 -18 172.5t-18 138.5t-25.5 79t-44.5 52q-16 13 -39 13q-38 0 -68 -33.5t-30 -87.5v-2q3 -68 49 -68q19 0 34 17.5t15 46.5
q0 18 -2 28q-2 2 -2 6q0 13 8 13t14 -13q31 -51 31 -104q0 -48 -25.5 -77.5t-62.5 -29.5q-41 0 -72 40.5t-34 117.5v15q0 100 55 170.5t125 70.5q65 0 113 -67.5t61 -204.5q14 -141 33 -243.5t44 -172.5t54.5 -104.5t62.5 -34.5q52 0 103 71q-27 127 -27 273v20
q3 154 24 277t54.5 206.5t71 126t71.5 42.5q35 0 58.5 -49.5t23.5 -141.5q0 -174 -84 -440q-40 -134 -90 -250q34 -240 150 -240q47 0 100.5 43t110.5 128.5t106 197.5q6 12 15 12q6 0 6 -10zM895 803q0 94 -31 94q-18 0 -37.5 -45t-35.5 -136.5t-23 -236.5
q0 -30 -0.5 -48.5t-1.5 -41.5q1 -18 1.5 -33.5t0.5 -40.5q33 78 61 160q36 107 51 186.5t15 141.5zM729 1112q0 -7 -20.5 -13.5t-32.5 -6.5q-14 0 -14 6l-179 325q-148 -235 -178 -281t-35 -52q-5 -11 -16 -11q-10 0 -19.5 9.5t-9.5 17.5q0 4 2 6q79 134 140 237.5t93 156
t38.5 63t7.5 12.5q8 14 20 14q15 0 19 -14q110 -277 147 -371.5t37 -97.5z" />
    <glyph glyph-name="udieresis" unicode="&#xfc;" horiz-adv-x="1104" 
d="M1266 342q0 -6 -2 -10q-90 -245 -186.5 -365.5t-182.5 -120.5q-123 0 -195 207q-48 -86 -97.5 -135t-94.5 -49q-64 0 -114 112t-79 357q-9 81 -18 172.5t-18 138.5t-25.5 79t-44.5 52q-16 13 -39 13q-38 0 -68 -33.5t-30 -87.5v-2q3 -68 49 -68q19 0 34 17.5t15 46.5
q0 18 -2 28q-2 2 -2 6q0 13 8 13t14 -13q31 -51 31 -104q0 -48 -25.5 -77.5t-62.5 -29.5q-41 0 -72 40.5t-34 117.5v15q0 100 55 170.5t125 70.5q65 0 113 -67.5t61 -204.5q14 -141 33 -243.5t44 -172.5t54.5 -104.5t62.5 -34.5q52 0 103 71q-27 127 -27 273v20
q3 154 24 277t54.5 206.5t71 126t71.5 42.5q35 0 58.5 -49.5t23.5 -141.5q0 -174 -84 -440q-40 -134 -90 -250q34 -240 150 -240q47 0 100.5 43t110.5 128.5t106 197.5q6 12 15 12q6 0 6 -10zM895 803q0 94 -31 94q-18 0 -37.5 -45t-35.5 -136.5t-23 -236.5
q0 -30 -0.5 -48.5t-1.5 -41.5q1 -18 1.5 -33.5t0.5 -40.5q33 78 61 160q36 107 51 186.5t15 141.5zM668 1118q0 -71 -78 -100q-8 -2 -23 -2q-32 0 -56 28t-24 60v6q4 39 34.5 63.5t68.5 24.5h2q38 0 55 -15t21 -50v-15zM377 1133q0 -30 -19.5 -64.5t-60.5 -34.5
q-47 0 -74 35q-18 24 -18 55q0 53 35 80q29 25 53 25q25 0 47 -23q37 -30 37 -73z" />
    <glyph glyph-name="ydieresis" unicode="&#xff;" horiz-adv-x="907" 
d="M883 897q0 -85 -28.5 -201t-88.5 -254q-7 -15 -13.5 -29.5t-14.5 -30.5t-13.5 -26.5t-11.5 -23.5q11 -106 23.5 -208.5t22 -174t14.5 -137t5 -121.5q0 -99 -24 -189q-30 -108 -102 -167.5t-154 -59.5q-67 0 -129 36.5t-105.5 107t-56.5 171.5q-8 49 -8 101
q0 127 43 197.5t104 70.5q34 0 66 -24t56 -70t36 -115q4 -44 4 -61q0 -62 -21 -98.5t-51 -36.5t-52 40t-22 113q0 10 9 10q4 0 7 -2t3 -8q15 -67 47 -67q14 0 25.5 20.5t11.5 54.5q0 23 -6 47q-4 35 -20.5 52.5t-39.5 17.5q-36 0 -66 -49.5t-30 -142.5q0 -15 2 -23
q3 -81 27.5 -139t62.5 -87.5t80 -29.5q65 0 119 69.5t68 194.5q6 52 6 107q0 92 -15 205.5t-39 250.5q-70 -79 -139 -79q-65 0 -116 72t-80 198t-29 280v37v6q0 38 -10 65t-27 40.5t-37 13.5q-41 0 -74.5 -46.5t-33.5 -127.5v-14q1 -24 14 -42t29 -18q20 0 33.5 23.5
t13.5 69.5q0 24 -2 39v6q0 16 8 16t14 -16q23 -64 23 -119q0 -53 -22 -83t-54 -30q-39 0 -69 43t-31 123v8q0 93 29.5 165t77 110.5t95.5 38.5q61 0 99.5 -57.5t38.5 -168.5v-8q0 -232 47 -355.5t120 -123.5q37 0 68 27q-25 182 -25 307q0 177 48 311q33 91 76.5 137.5
t84.5 46.5q44 0 71.5 -48.5t27.5 -137.5zM813 817q0 82 -35 82q-20 0 -41 -32.5t-36 -92t-15 -141.5q0 -22 4 -76q7 -82 12 -139q14 23 43 100q68 189 68 299zM668 1200q0 -71 -78 -100q-8 -2 -23 -2q-32 0 -56 28t-24 60v6q4 39 34.5 63.5t68.5 24.5h2q38 0 54.5 -15
t21.5 -51v-14zM377 1214q0 -29 -19.5 -63.5t-60.5 -34.5q-48 0 -74 35q-18 24 -18 55q0 53 35 80q29 25 53 25q25 0 47 -23q37 -30 37 -74z" />
    <glyph glyph-name="dotlessi" unicode="&#x131;" horiz-adv-x="236" 
d="M213 -121q0 -16 -7.5 -22t-19 -8t-16.5 -3q-24 -4 -35 -4q-26 0 -26 23q-8 91 -20.5 294.5t-18 286.5t-21.5 234q0 14 -0.5 22t-1.5 17q0 39 18.5 57.5t65.5 28.5q24 6 43 6q23 0 30 -11.5t7 -43.5v-8q-6 -259 -6 -459q0 -209 8 -406v-4z" />
    <glyph glyph-name="OE" unicode="&#x152;" horiz-adv-x="1745" 
d="M1720 225q0 -40 -31 -79.5t-87 -67.5q-68 -32 -157 -48.5t-280 -40.5t-323 -46h-8q-19 0 -19 22q0 -37 4 311q-43 -100 -106 -170t-137.5 -106.5t-151.5 -36.5q-147 0 -257 129t-134 379q-8 79 -8 172q0 175 35 324t100 261.5t157.5 178.5t208.5 78h2q15 0 15 -12
t-15 -15q-82 -8 -171 -92t-149.5 -239.5t-60.5 -370.5q0 -62 11 -170q23 -208 105.5 -313t191.5 -105q87 0 168.5 67t132.5 192.5t51 287.5q0 194 -78 405q-34 96 -82 146.5t-98 50.5q-70 0 -125 -86q-35 -55 -35 -105q0 -39 22.5 -65.5t55.5 -26.5q59 0 108 74q21 32 21 55
q0 27 -25 27q-33 0 -92 -60q-3 -6 -8 -6q-6 0 -6 9q0 8 2 10q23 47 53 69.5t58 22.5q32 0 51.5 -23t19.5 -61q0 -52 -33 -100q-52 -87 -105 -128.5t-99 -41.5q-50 0 -81.5 45t-31.5 116q0 93 51 181q44 77 99 119t112 42t110 -40.5t97 -121t72 -198.5q10 241 24 381
q7 20 19 20q45 7 154.5 14t250.5 7q44 0 144 -4q95 -3 136.5 -30.5t41.5 -72.5q0 -29 -20 -62.5t-50 -57.5q-65 -56 -127 -56q-37 0 -62.5 21.5t-25.5 50.5q0 32 33.5 60.5t101.5 39.5h2q8 0 8 -6q0 -5 -6 -8q-35 -13 -52 -31.5t-17 -38.5q0 -22 26 -22q39 0 88 53
q25 24 25 49q0 43 -72 43h-4q-87 0 -195 -12t-276 -47q-6 -2 -7.5 -5t-2.5 -12q-14 -148 -19 -477q62 15 136 26t135 11h26q94 -6 137.5 -33.5t43.5 -66.5q0 -38 -38 -71t-87 -36q-6 0 -9.5 -0.5t-7.5 -1.5q-35 0 -52 12.5t-17 30.5q0 22 22 39t56 17h6q12 0 12 -9
q0 -7 -10 -10q-29 -6 -29 -29q0 -18 25 -18h6q26 4 43.5 20.5t17.5 36.5q0 38 -67 41h-23q-144 0 -326 -71q0 -147 2.5 -277t8.5 -301q1 -10 4.5 -14t11.5 -4h10q2 0 131.5 5t225 10.5t157.5 14.5q62 10 97.5 35.5t35.5 52.5q0 20 -19 34.5t-54 17.5q-6 2 -19 2
q-31 0 -51 -12.5t-20 -26.5q0 -19 34 -19q23 0 50 9h2q4 0 8 -4t4 -9t-8 -10q-43 -25 -82 -25q-31 0 -49.5 15.5t-18.5 38.5q0 34 37 60t107 26h16q69 -4 105 -32.5t36 -70.5z" />
    <glyph glyph-name="oe" unicode="&#x153;" horiz-adv-x="1266" 
d="M1241 303q0 -43 -24 -108q-29 -72 -78.5 -130.5t-113 -101t-129 -63.5t-130.5 -21q-94 0 -157.5 48t-78.5 145q-61 -82 -128.5 -120t-135.5 -38q-65 0 -119.5 33.5t-87.5 93t-34 127.5v18q0 125 43.5 254.5t139 233t232.5 143.5h9q10 0 10 -10q0 -8 -13 -14
q-63 -32 -124 -94t-106.5 -146.5t-63.5 -175.5q-9 -35 -9 -74q0 -89 46.5 -141.5t115.5 -52.5q70 0 133.5 52t102.5 152q41 114 41 183q0 61 -24 90.5t-62 29.5q-46 0 -76 -36q-39 -48 -39 -78q0 -33 31 -33q14 0 30 14t25 43q3 19 16 19q6 0 6 -19v-2q-3 -61 -40 -98
t-78 -37q-66 0 -66 70q0 60 62 147q73 107 176 107q61 0 103 -46.5t48 -131.5q86 99 165.5 143.5t144.5 44.5q57 0 91.5 -32.5t34.5 -84.5q0 -48 -30.5 -100.5t-93.5 -102.5q-70 -54 -167 -91.5t-190 -57.5q-8 -33 -8 -72q0 -77 41.5 -125.5t120.5 -48.5q26 0 41 2
q132 19 204 87t91 153q6 21 6 35q0 41 -35 41q-30 0 -63 -29q-23 -16 -23 -45t23 -29q12 0 26 15q6 6 14 6q11 0 11 -8q0 -10 -8 -15q-47 -53 -95 -53q-41 0 -41 41q0 46 62 108q39 37 76 55.5t71 18.5q24 0 41.5 -10.5t27 -30.5t9.5 -47zM975 537q0 21 -14 35t-35 14
q-44 0 -99 -45q-60 -52 -102.5 -115.5t-62.5 -124.5q147 45 247 129q32 28 49 56.5t17 50.5z" />
    <glyph glyph-name="Ydieresis" unicode="&#x178;" horiz-adv-x="1190" 
d="M1165 1432q0 -154 -63 -326q-70 -191 -176 -354q14 -250 14 -320q0 -129 -15 -244t-53 -239q-49 -159 -142 -238.5t-206 -79.5q-90 0 -176.5 49.5t-149.5 138.5t-85 206q-13 74 -13 137q0 74 16.5 127.5t45.5 81.5t65 28q56 0 112.5 -64t98.5 -188q21 -63 21 -116
q0 -42 -13 -65t-34 -23q-31 0 -62.5 49t-50.5 143v4q0 19 16 19q12 0 15 -13q14 -59 33.5 -93t33.5 -34q13 0 13 25q0 26 -21.5 82t-49.5 87.5t-52 31.5q-51 0 -51 -107q0 -45 12 -110q19 -93 61.5 -164t98.5 -107.5t116 -36.5q76 0 141.5 58t105.5 179t40 294q0 83 -8 160
q-4 39 -8 87.5t-7 73.5q-144 -157 -258 -157q-66 0 -117.5 58t-83 186t-38.5 327q-2 35 -2 105q0 75 4 191t4 153q0 69 -8.5 103t-30.5 34q-17 0 -45 -23q-43 -34 -71 -83t-38 -101q-2 -4 -2 -12q0 -41 27 -41q40 0 68 123q3 16 10 16q12 0 12 -27q2 -4 2 -10
q0 -79 -20.5 -132.5t-51.5 -81.5t-61 -28q-27 0 -45 24.5t-18 68.5q0 88 69 217q47 83 105 131.5t110 48.5q66 0 107 -74.5t41 -226.5q0 -32 -4 -96q-11 -108 -11 -238q0 -233 45 -356t121 -123q79 0 174 127q-6 120 -6 223q0 276 37 459.5t93.5 269.5t117.5 86
q59 0 100 -77.5t41 -202.5zM1083 1419q0 80 -28 80q-25 0 -56 -65.5t-55 -188.5q-24 -139 -24 -299v-43q85 171 124 302.5t39 213.5zM881 1831q0 -71 -78 -100q-8 -2 -23 -2q-32 0 -56 28t-24 60v6q4 39 34.5 63.5t68.5 24.5h2q36 0 54 -15.5t22 -50.5v-14zM590 1845
q0 -31 -19 -63q-20 -35 -61 -35q-48 0 -74 35q-18 24 -18 55q0 51 35 80q31 25 53 25q24 0 47 -23q37 -31 37 -74z" />
    <glyph glyph-name="florin" unicode="&#x192;" 
d="M993 760q0 -123 -60 -225.5t-163.5 -163t-224.5 -60.5q-89 0 -172 35t-145 97t-97 145t-35 172q0 121 60.5 224.5t163 163.5t225.5 60q121 0 224.5 -60t163.5 -163.5t60 -224.5zM858 760q0 85 -42.5 158t-114.5 115t-156 42q-85 0 -157 -42t-114.5 -114.5t-42.5 -158.5
q0 -85 42 -157t114.5 -114.5t157.5 -42.5q84 0 156.5 43t114.5 115t42 156z" />
    <glyph glyph-name="circumflex" unicode="&#x2c6;" 
d="M993 760q0 -123 -60 -225.5t-163.5 -163t-224.5 -60.5q-89 0 -172 35t-145 97t-97 145t-35 172q0 121 60.5 224.5t163 163.5t225.5 60q121 0 224.5 -60t163.5 -163.5t60 -224.5zM858 760q0 85 -42.5 158t-114.5 115t-156 42q-85 0 -157 -42t-114.5 -114.5t-42.5 -158.5
q0 -85 42 -157t114.5 -114.5t157.5 -42.5q84 0 156.5 43t114.5 115t42 156z" />
    <glyph glyph-name="caron" unicode="&#x2c7;" 
d="M993 760q0 -123 -60 -225.5t-163.5 -163t-224.5 -60.5q-89 0 -172 35t-145 97t-97 145t-35 172q0 121 60.5 224.5t163 163.5t225.5 60q121 0 224.5 -60t163.5 -163.5t60 -224.5zM858 760q0 85 -42.5 158t-114.5 115t-156 42q-85 0 -157 -42t-114.5 -114.5t-42.5 -158.5
q0 -85 42 -157t114.5 -114.5t157.5 -42.5q84 0 156.5 43t114.5 115t42 156z" />
    <glyph glyph-name="breve" unicode="&#x2d8;" 
d="M993 760q0 -123 -60 -225.5t-163.5 -163t-224.5 -60.5q-89 0 -172 35t-145 97t-97 145t-35 172q0 121 60.5 224.5t163 163.5t225.5 60q121 0 224.5 -60t163.5 -163.5t60 -224.5zM858 760q0 85 -42.5 158t-114.5 115t-156 42q-85 0 -157 -42t-114.5 -114.5t-42.5 -158.5
q0 -85 42 -157t114.5 -114.5t157.5 -42.5q84 0 156.5 43t114.5 115t42 156z" />
    <glyph glyph-name="dotaccent" unicode="&#x2d9;" 
d="M993 760q0 -123 -60 -225.5t-163.5 -163t-224.5 -60.5q-89 0 -172 35t-145 97t-97 145t-35 172q0 121 60.5 224.5t163 163.5t225.5 60q121 0 224.5 -60t163.5 -163.5t60 -224.5zM858 760q0 85 -42.5 158t-114.5 115t-156 42q-85 0 -157 -42t-114.5 -114.5t-42.5 -158.5
q0 -85 42 -157t114.5 -114.5t157.5 -42.5q84 0 156.5 43t114.5 115t42 156z" />
    <glyph glyph-name="ring" unicode="&#x2da;" horiz-adv-x="393" 
d="M369 1401q0 -65 -39.5 -113t-112.5 -76q-28 -8 -43 -8q-60 0 -104.5 53.5t-44.5 116.5v10q4 72 63 121t131 49h2q71 -2 104 -29t42 -93q2 -11 2 -31zM283 1401v14q-4 35 -21.5 50t-54.5 16h-2q-26 0 -48.5 -12t-38 -33.5t-16.5 -44.5v-5q0 -33 24.5 -61.5t55.5 -28.5
q9 0 21 4q80 30 80 101z" />
    <glyph glyph-name="ogonek" unicode="&#x2db;" 
d="M993 760q0 -123 -60 -225.5t-163.5 -163t-224.5 -60.5q-89 0 -172 35t-145 97t-97 145t-35 172q0 121 60.5 224.5t163 163.5t225.5 60q121 0 224.5 -60t163.5 -163.5t60 -224.5zM858 760q0 85 -42.5 158t-114.5 115t-156 42q-85 0 -157 -42t-114.5 -114.5t-42.5 -158.5
q0 -85 42 -157t114.5 -114.5t157.5 -42.5q84 0 156.5 43t114.5 115t42 156z" />
    <glyph glyph-name="tilde" unicode="&#x2dc;" 
d="M993 760q0 -123 -60 -225.5t-163.5 -163t-224.5 -60.5q-89 0 -172 35t-145 97t-97 145t-35 172q0 121 60.5 224.5t163 163.5t225.5 60q121 0 224.5 -60t163.5 -163.5t60 -224.5zM858 760q0 85 -42.5 158t-114.5 115t-156 42q-85 0 -157 -42t-114.5 -114.5t-42.5 -158.5
q0 -85 42 -157t114.5 -114.5t157.5 -42.5q84 0 156.5 43t114.5 115t42 156z" />
    <glyph glyph-name="hungarumlaut" unicode="&#x2dd;" 
d="M993 760q0 -123 -60 -225.5t-163.5 -163t-224.5 -60.5q-89 0 -172 35t-145 97t-97 145t-35 172q0 121 60.5 224.5t163 163.5t225.5 60q121 0 224.5 -60t163.5 -163.5t60 -224.5zM858 760q0 85 -42.5 158t-114.5 115t-156 42q-85 0 -157 -42t-114.5 -114.5t-42.5 -158.5
q0 -85 42 -157t114.5 -114.5t157.5 -42.5q84 0 156.5 43t114.5 115t42 156z" />
    <glyph glyph-name="pi" unicode="&#x3c0;" 
d="M993 760q0 -123 -60 -225.5t-163.5 -163t-224.5 -60.5q-89 0 -172 35t-145 97t-97 145t-35 172q0 121 60.5 224.5t163 163.5t225.5 60q121 0 224.5 -60t163.5 -163.5t60 -224.5zM858 760q0 85 -42.5 158t-114.5 115t-156 42q-85 0 -157 -42t-114.5 -114.5t-42.5 -158.5
q0 -85 42 -157t114.5 -114.5t157.5 -42.5q84 0 156.5 43t114.5 115t42 156z" />
    <glyph glyph-name="emdash" unicode="&#x2013;" horiz-adv-x="1110" 
d="M1085 829q0 -43 -26 -84.5t-76 -74.5q-67 -45 -115 -45q-55 0 -55 53q0 65 82 123q8 4 12 4q15 0 15 -12q0 -5 -4 -13q-25 -21 -25 -49q0 -15 8.5 -25t24.5 -10q15 0 28 9q60 26 60 79q0 29 -22 49.5t-62 20.5q-12 0 -21 -2q-58 -3 -118.5 -29t-178.5 -90t-196.5 -99.5
t-173.5 -60.5q-17 -6 -47 -6h-13q-78 0 -117.5 35.5t-39.5 89.5q0 49 30.5 96.5t77.5 69.5q62 29 109 29q37 0 56 -18.5t19 -47.5q0 -24 -14.5 -47.5t-42.5 -39t-65 -15.5h-13q-18 0 -18 12q0 11 16 19q64 21 64 57q0 12 -11 20.5t-32 8.5q-24 0 -47 -9q-21 -9 -40.5 -39.5
t-19.5 -60.5q0 -65 86 -65q21 0 33 2q102 19 187.5 52.5t197 93t164.5 87t125 49.5q10 4 31 4h16q73 0 112 -34.5t39 -86.5z" />
    <glyph glyph-name="endash" unicode="&#x2014;" horiz-adv-x="1268" 
d="M1243 813q0 -42 -26 -85t-76 -77q-67 -43 -115 -43q-55 0 -55 51q0 65 82 125q8 4 12 4q7 0 10.5 -3.5t3.5 -10.5q0 -2 -4 -10q-24 -21 -24 -49q0 -35 32 -35q14 0 29 6q59 27 59 80q0 30 -21.5 51t-59.5 21q-15 0 -23 -2q-37 -5 -108.5 -40t-232 -117.5t-273.5 -128.5
t-211 -61q-42 -4 -60 -4q-78 0 -117.5 35.5t-39.5 89.5q0 49 30.5 96.5t77.5 69.5q62 29 109 29q37 0 56 -18.5t19 -47.5q0 -38 -34 -71t-88 -33q-9 0 -13 2q-18 0 -18 12q0 14 16 17q64 24 64 59q0 12 -11 20.5t-32 8.5q-25 0 -47 -11q-21 -8 -40.5 -38t-19.5 -60
q0 -65 86 -65q21 0 33 2q81 11 197.5 59.5t263 123.5t235 117t135.5 48q17 2 48 2q74 0 112.5 -33t38.5 -86z" />
    <glyph glyph-name="quoteleft" unicode="&#x2018;" horiz-adv-x="385" 
d="M360 1499q0 -28 -18 -55q-32 -51 -74 -51q-20 0 -34.5 12.5t-14.5 32.5q0 21 14 39q12 10 19 10q12 0 12 -12v-9q-6 -9 -6 -14q0 -14 12 -14q24 0 35 43q4 8 4 20q0 35 -35 35q-33 0 -65 -31q-51 -44 -51 -94q0 -39 35 -68q47 -44 47 -92q0 -26 -15.5 -52t-39 -40
t-50.5 -14q-59 0 -96 72q-14 31 -14 71q0 56 31 116.5t80.5 106t94.5 60.5q22 6 41 6q38 0 63 -22t25 -56z" />
    <glyph glyph-name="quoteright" unicode="&#x2019;" horiz-adv-x="301" 
d="M276 1327q0 -60 -19 -119t-48 -92q-33 -41 -80 -41q-33 0 -56.5 23.5t-23.5 66.5v4q1 44 21 66t45 22q19 0 32 -12t13 -37v-12q-3 -20 -19 -20q-12 0 -12 12q-3 24 -14 24q-19 0 -19 -34q1 -5 1.5 -10t0.5 -13q9 -37 37 -37q16 0 34.5 19t27.5 49q8 36 8 53q0 80 -80 92
q-52 12 -76 41t-24 68q0 42 27 73t67 31q35 0 74 -26q83 -55 83 -191z" />
    <glyph glyph-name="quotesinglbase" unicode="&#x201a;" horiz-adv-x="301" 
d="M276 242q0 -61 -19 -120t-48 -93q-35 -41 -80 -41q-33 0 -56.5 23.5t-23.5 66.5v4q1 29 11 49.5t24.5 30.5t30.5 10q19 0 32 -13.5t13 -37.5v-12q-3 -19 -19 -19q-12 0 -12 12q-3 23 -14 23q-19 0 -19 -35q1 -4 1.5 -8.5t0.5 -13.5q9 -37 37 -37q16 0 34 18t28 49
q8 38 8 54q0 80 -80 92q-51 10 -75.5 39.5t-24.5 68.5q0 42 27 73.5t67 31.5q34 0 74 -25q83 -58 83 -190z" />
    <glyph glyph-name="quotedblleft" unicode="&#x201c;" horiz-adv-x="557" 
d="M532 1479q0 -28 -16 -47t-45 -19q-22 0 -41 8q-20 9 -20 27q0 25 22 25q8 0 14 -3q3 -2 9 -2q9 0 15.5 6.5t6.5 16.5q0 25 -43 25q-4 0 -11.5 -1t-14.5 -2q-39 -8 -39 -45q0 -25 17 -53t38 -43q56 -31 81 -68.5t25 -74.5t-22.5 -60.5t-56.5 -23.5q-42 0 -78.5 43.5
t-53.5 138.5q-8 41 -8 82q0 76 30 117t89 41h6q45 -1 70.5 -27t25.5 -61zM293 1225q0 -38 -12 -58q-27 -37 -86 -37q-82 0 -134 93q-36 62 -36 143q0 68 26.5 122t61.5 66q22 11 53 11q30 0 51 -12t33 -32t12 -48v-9q-6 -84 -63 -84q-11 0 -27 4q-8 5 -14 17t-6 20
q0 17 14 23q29 12 29 41q0 16 -9.5 27.5t-25.5 11.5q-24 -2 -41 -30t-17 -64q0 -17 2 -25q12 -36 31 -52.5t64 -17.5q49 -1 71.5 -34t22.5 -76z" />
    <glyph glyph-name="quotedblright" unicode="&#x201d;" horiz-adv-x="580" 
d="M557 1348q0 -90 -45.5 -160.5t-93.5 -75.5h-19q-50 0 -81 27t-31 65q0 15 6 33q20 68 67 68q19 0 39 -13q13 -11 13 -30q0 -24 -21 -27q-20 -3 -29.5 -15.5t-9.5 -29.5q0 -11 8 -22.5t21 -12.5h4q28 0 52 32.5t24 65.5v2q-2 37 -16 58.5t-60 32.5q-70 18 -70 96
q0 57 31 86q17 20 62 20q43 0 81 -29t56 -96q12 -36 12 -75zM270 1415v-33q-6 -101 -41 -156t-92 -55q-4 0 -37 5q-37 11 -56 36.5t-19 53.5t16 49.5t45 21.5q27 0 53 -20q15 -11 15 -25q0 -26 -23 -26q-10 0 -18 8q-8 4 -13 4q-22 0 -22 -21q0 -29 61 -34h6q45 0 45 53
q0 52 -32 86q-74 73 -74 141q0 41 23.5 65.5t58.5 24.5q44 0 74 -43.5t30 -134.5z" />
    <glyph glyph-name="quotedblbase" unicode="&#x201e;" horiz-adv-x="580" 
d="M557 158q0 -88 -45.5 -158.5t-93.5 -75.5q-6 -2 -19 -2q-50 0 -81 27t-31 65q0 18 6 33q10 34 29 52t38 18t39 -15q13 -7 13 -30q0 -24 -21 -27q-39 -6 -39 -43q0 -31 29 -37h4q28 0 52 33t24 65v5q-2 36 -16.5 56.5t-59.5 31.5q-70 21 -70 96q0 57 31 88q20 20 62 20
q43 0 81 -29t56 -95q12 -40 12 -78zM270 227v-32q-6 -103 -41 -158t-92 -55q-17 0 -37 6q-38 10 -56.5 35t-18.5 53q0 29 16 50t45 21q27 0 53 -20q15 -8 15 -25q0 -9 -6.5 -16.5t-16.5 -7.5q-9 0 -18 6q-4 4 -13 4q-22 0 -22 -20q0 -30 61 -33h6q45 0 45 51q0 25 -9.5 50
t-22.5 38q-74 70 -74 139q0 40 24 66.5t58 26.5q43 0 73.5 -45t30.5 -134z" />
    <glyph glyph-name="dagger" unicode="&#x2020;" horiz-adv-x="854" 
d="M831 1419q0 -37 -26 -84q-42 -57 -103 -57q-27 0 -45 14t-18 37q0 35 47 76q11 8 19 8q10 0 10 -10q0 -8 -6 -14q-17 -17 -17 -37q0 -33 29 -33q20 0 47 24q23 25 23 46q0 31 -34.5 55t-84.5 24q-36 0 -62 -10q-40 -13 -139 -55q-1 -35 -1.5 -106.5t-0.5 -118v-101.5
q0 -151 4 -467q0 -12 -9 -18t-20.5 -7.5t-19.5 -2.5q-5 0 -8 -0.5t-6 -1.5q-28 0 -31 22q0 7 -3 93t-6.5 200.5t-7 251.5t-6.5 207q-32 -13 -57.5 -25t-52.5 -24q-74 -35 -133 -35q-42 0 -65 19t-23 48q0 44 41 86q58 62 108 62q35 0 35 -27q0 -28 -33 -57q-10 -10 -18 -10
q-11 0 -11 12q0 6 7 10q16 16 16 25q0 12 -14 12q-16 0 -37 -18q-31 -21 -31 -54q0 -30 37 -30q13 0 43 10q55 21 186 80q-2 130 -4 212.5t-4 155.5q0 30 17.5 41t52.5 11h4q35 -2 49 -5.5t14 -19.5v-2q-1 -51 -5 -165t-5 -177l86 37q65 26 121 26q71 0 111 -38.5t40 -94.5z
" />
    <glyph glyph-name="daggerdbl" unicode="&#x2021;" 
d="M993 760q0 -123 -60 -225.5t-163.5 -163t-224.5 -60.5q-89 0 -172 35t-145 97t-97 145t-35 172q0 121 60.5 224.5t163 163.5t225.5 60q121 0 224.5 -60t163.5 -163.5t60 -224.5zM858 760q0 85 -42.5 158t-114.5 115t-156 42q-85 0 -157 -42t-114.5 -114.5t-42.5 -158.5
q0 -85 42 -157t114.5 -114.5t157.5 -42.5q84 0 156.5 43t114.5 115t42 156z" />
    <glyph glyph-name="bullet" unicode="&#x2022;" horiz-adv-x="401" 
d="M299 598q0 -12 -2 -20q-6 -43 -32.5 -68.5t-69.5 -26.5q-2 -2 -5 -2q-31 0 -50 29t-19 63q0 13 4 33q10 31 35.5 48.5t56.5 17.5q9 0 29 -4q53 -21 53 -70z" />
    <glyph glyph-name="ellipsis" unicode="&#x2026;" horiz-adv-x="1126" 
d="M1102 96q0 -37 -23 -78q-23 -43 -75 -43q-58 0 -93 43q-22 29 -22 70q0 29 11.5 55t33.5 45q34 29 63 29q30 0 60 -27q45 -39 45 -94zM670 96q0 -41 -23 -78q-23 -43 -76 -43q-57 0 -92 43q-22 29 -22 70q0 29 11.5 55t33.5 45q34 29 63 29t62 -27q43 -40 43 -94zM238 96
q0 -37 -21 -78q-26 -43 -78 -43q-57 0 -92 43q-22 29 -22 70q0 29 11.5 55t33.5 45q37 29 63 29q29 0 62 -27q43 -40 43 -94z" />
    <glyph glyph-name="perthousand" unicode="&#x2030;" 
d="M993 760q0 -123 -60 -225.5t-163.5 -163t-224.5 -60.5q-89 0 -172 35t-145 97t-97 145t-35 172q0 121 60.5 224.5t163 163.5t225.5 60q121 0 224.5 -60t163.5 -163.5t60 -224.5zM858 760q0 85 -42.5 158t-114.5 115t-156 42q-85 0 -157 -42t-114.5 -114.5t-42.5 -158.5
q0 -85 42 -157t114.5 -114.5t157.5 -42.5q84 0 156.5 43t114.5 115t42 156z" />
    <glyph glyph-name="guilsinglleft" unicode="&#x2039;" 
d="M993 760q0 -123 -60 -225.5t-163.5 -163t-224.5 -60.5q-89 0 -172 35t-145 97t-97 145t-35 172q0 121 60.5 224.5t163 163.5t225.5 60q121 0 224.5 -60t163.5 -163.5t60 -224.5zM858 760q0 85 -42.5 158t-114.5 115t-156 42q-85 0 -157 -42t-114.5 -114.5t-42.5 -158.5
q0 -85 42 -157t114.5 -114.5t157.5 -42.5q84 0 156.5 43t114.5 115t42 156z" />
    <glyph glyph-name="guilsinglright" unicode="&#x203a;" 
d="M993 760q0 -123 -60 -225.5t-163.5 -163t-224.5 -60.5q-89 0 -172 35t-145 97t-97 145t-35 172q0 121 60.5 224.5t163 163.5t225.5 60q121 0 224.5 -60t163.5 -163.5t60 -224.5zM858 760q0 85 -42.5 158t-114.5 115t-156 42q-85 0 -157 -42t-114.5 -114.5t-42.5 -158.5
q0 -85 42 -157t114.5 -114.5t157.5 -42.5q84 0 156.5 43t114.5 115t42 156z" />
    <glyph glyph-name="fraction" unicode="&#x2044;" 
d="M993 760q0 -123 -60 -225.5t-163.5 -163t-224.5 -60.5q-89 0 -172 35t-145 97t-97 145t-35 172q0 121 60.5 224.5t163 163.5t225.5 60q121 0 224.5 -60t163.5 -163.5t60 -224.5zM858 760q0 85 -42.5 158t-114.5 115t-156 42q-85 0 -157 -42t-114.5 -114.5t-42.5 -158.5
q0 -85 42 -157t114.5 -114.5t157.5 -42.5q84 0 156.5 43t114.5 115t42 156z" />
    <glyph glyph-name="trademark" unicode="&#x2122;" horiz-adv-x="961" 
d="M936 1075q0 -40 -29.5 -79t-89.5 -62q-18 -6 -35 -6q-82 0 -113.5 131.5t-37.5 316.5q-35 -106 -41 -139q-4 -8 -6 -8q-3 0 -6 6q-8 16 -29 69.5t-27 77.5q-2 -158 -12.5 -254t-55 -173.5t-137.5 -77.5q-18 0 -28 2q-57 7 -90 38.5t-33 63.5q0 21 16 35t47 14t60 -10
q27 -8 43 -22.5t16 -28.5q0 -25 -35 -25q-21 0 -53 14q-4 6 -4 7q0 6 6 6q2 0 4 -2q20 -4 27 -4q20 0 20 12q0 14 -34 27q-7 2 -19 2q-15 0 -26 -9t-11 -22q0 -41 78 -62q16 -4 23 -4q53 0 86 66t46 168t13 225q0 126 -8 201q0 10 10 10q5 0 8 -6q58 -135 99 -213
q59 148 83 205.5t29 68.5q0 8 8 8q4 0 4 -6v-2q-18 -162 -18 -278q0 -190 37 -283.5t86 -93.5q4 0 20 4q30 13 45 37.5t15 48.5q0 18 -8 29.5t-23 11.5t-33 -14q-20 -19 -20 -29q0 -6 8 -6q12 0 33 14q4 2 5 2h1q4 0 4 -2q0 -4 -2 -6q-31 -39 -59 -39q-25 0 -25 25
q0 32 47 63q34 23 64 23q26 0 41.5 -18.5t15.5 -47.5zM637 1724q0 -46 -39 -77q-34 -31 -66 -31t-32 29q0 23 30 41q1 0 2 1t3 1t2 -0.5v-1.5v-5q-13 -12 -13 -22q0 -14 21 -14q20 0 39 10q22 15 22 43q0 43 -57 43q-74 0 -219 -86q2 -141 8 -291t16 -289v-2
q0 -10 -10.5 -13t-19.5 -5q-5 0 -7 -0.5t-4 -1.5q-14 0 -18 14q-16 176 -41 541q-86 -47 -150 -47q-38 0 -58.5 18t-20.5 45q0 37 28 66q33 32 62 32q14 0 22 -8t8 -20q0 -33 -45 -39q-6 0 -6 6q0 4 2 4q23 5 23 23q0 14 -17 14q-8 0 -20 -6q-35 -23 -35 -51q0 -29 45 -29
q59 0 158 55l-6 70v4q0 28 45 31h14q25 0 25 -15v-43q134 78 219 78q44 0 67 -20.5t23 -51.5z" />
    <glyph glyph-name="Omega" unicode="&#x2126;" 
d="M993 760q0 -123 -60 -225.5t-163.5 -163t-224.5 -60.5q-89 0 -172 35t-145 97t-97 145t-35 172q0 121 60.5 224.5t163 163.5t225.5 60q121 0 224.5 -60t163.5 -163.5t60 -224.5zM858 760q0 85 -42.5 158t-114.5 115t-156 42q-85 0 -157 -42t-114.5 -114.5t-42.5 -158.5
q0 -85 42 -157t114.5 -114.5t157.5 -42.5q84 0 156.5 43t114.5 115t42 156z" />
    <glyph glyph-name="partialdiff" unicode="&#x2202;" 
d="M993 760q0 -123 -60 -225.5t-163.5 -163t-224.5 -60.5q-89 0 -172 35t-145 97t-97 145t-35 172q0 121 60.5 224.5t163 163.5t225.5 60q121 0 224.5 -60t163.5 -163.5t60 -224.5zM858 760q0 85 -42.5 158t-114.5 115t-156 42q-85 0 -157 -42t-114.5 -114.5t-42.5 -158.5
q0 -85 42 -157t114.5 -114.5t157.5 -42.5q84 0 156.5 43t114.5 115t42 156z" />
    <glyph glyph-name="Delta" unicode="&#x2206;" 
d="M993 760q0 -123 -60 -225.5t-163.5 -163t-224.5 -60.5q-89 0 -172 35t-145 97t-97 145t-35 172q0 121 60.5 224.5t163 163.5t225.5 60q121 0 224.5 -60t163.5 -163.5t60 -224.5zM858 760q0 85 -42.5 158t-114.5 115t-156 42q-85 0 -157 -42t-114.5 -114.5t-42.5 -158.5
q0 -85 42 -157t114.5 -114.5t157.5 -42.5q84 0 156.5 43t114.5 115t42 156z" />
    <glyph glyph-name="product" unicode="&#x220f;" 
d="M993 760q0 -123 -60 -225.5t-163.5 -163t-224.5 -60.5q-89 0 -172 35t-145 97t-97 145t-35 172q0 121 60.5 224.5t163 163.5t225.5 60q121 0 224.5 -60t163.5 -163.5t60 -224.5zM858 760q0 85 -42.5 158t-114.5 115t-156 42q-85 0 -157 -42t-114.5 -114.5t-42.5 -158.5
q0 -85 42 -157t114.5 -114.5t157.5 -42.5q84 0 156.5 43t114.5 115t42 156z" />
    <glyph glyph-name="summation" unicode="&#x2211;" 
d="M993 760q0 -123 -60 -225.5t-163.5 -163t-224.5 -60.5q-89 0 -172 35t-145 97t-97 145t-35 172q0 121 60.5 224.5t163 163.5t225.5 60q121 0 224.5 -60t163.5 -163.5t60 -224.5zM858 760q0 85 -42.5 158t-114.5 115t-156 42q-85 0 -157 -42t-114.5 -114.5t-42.5 -158.5
q0 -85 42 -157t114.5 -114.5t157.5 -42.5q84 0 156.5 43t114.5 115t42 156z" />
    <glyph glyph-name="periodcentered" unicode="&#x2219;" 
d="M993 760q0 -123 -60 -225.5t-163.5 -163t-224.5 -60.5q-89 0 -172 35t-145 97t-97 145t-35 172q0 121 60.5 224.5t163 163.5t225.5 60q121 0 224.5 -60t163.5 -163.5t60 -224.5zM858 760q0 85 -42.5 158t-114.5 115t-156 42q-85 0 -157 -42t-114.5 -114.5t-42.5 -158.5
q0 -85 42 -157t114.5 -114.5t157.5 -42.5q84 0 156.5 43t114.5 115t42 156z" />
    <glyph glyph-name="radical" unicode="&#x221a;" horiz-adv-x="963" 
d="M938 1192q0 -66 -21 -107t-51 -41q-24 0 -47.5 29.5t-42 93t-26.5 156.5v4q0 16 14 16q10 0 10 -16q6 -70 28 -110.5t46 -40.5q29 0 29 57q0 20 -3 31q-10 76 -43.5 124t-74.5 48q-25 0 -49.5 -22t-45.5 -68.5t-34 -118.5q-21 -106 -21 -250q0 -202 42 -442.5t104 -442.5
q0 -9 -29 -16.5t-57 -7.5q-22 0 -25 6q-59 124 -98.5 216.5t-86.5 212t-89.5 227t-71.5 177.5q49 -315 49 -553q0 -226 -43.5 -358t-111 -183.5t-150.5 -56.5h-2q-12 0 -12 19q0 17 14 20q92 19 136 133.5t46 290.5v17q0 102 -15.5 274.5t-30.5 285.5t-51 374t-58 415v2
q0 29 63 29q26 0 45.5 -5.5t22.5 -15.5l57.5 -172.5l87.5 -262.5t73.5 -219.5t73.5 -219.5q-2 55 -2 158q0 232 32 385.5t84.5 222.5t113.5 69q43 0 84 -32t73 -88.5t50 -132.5q14 -57 14 -111z" />
    <glyph glyph-name="infinity" unicode="&#x221e;" 
d="M993 760q0 -123 -60 -225.5t-163.5 -163t-224.5 -60.5q-89 0 -172 35t-145 97t-97 145t-35 172q0 121 60.5 224.5t163 163.5t225.5 60q121 0 224.5 -60t163.5 -163.5t60 -224.5zM858 760q0 85 -42.5 158t-114.5 115t-156 42q-85 0 -157 -42t-114.5 -114.5t-42.5 -158.5
q0 -85 42 -157t114.5 -114.5t157.5 -42.5q84 0 156.5 43t114.5 115t42 156z" />
    <glyph glyph-name="integral" unicode="&#x222b;" 
d="M993 760q0 -123 -60 -225.5t-163.5 -163t-224.5 -60.5q-89 0 -172 35t-145 97t-97 145t-35 172q0 121 60.5 224.5t163 163.5t225.5 60q121 0 224.5 -60t163.5 -163.5t60 -224.5zM858 760q0 85 -42.5 158t-114.5 115t-156 42q-85 0 -157 -42t-114.5 -114.5t-42.5 -158.5
q0 -85 42 -157t114.5 -114.5t157.5 -42.5q84 0 156.5 43t114.5 115t42 156z" />
    <glyph glyph-name="approxequal" unicode="&#x2248;" 
d="M993 760q0 -123 -60 -225.5t-163.5 -163t-224.5 -60.5q-89 0 -172 35t-145 97t-97 145t-35 172q0 121 60.5 224.5t163 163.5t225.5 60q121 0 224.5 -60t163.5 -163.5t60 -224.5zM858 760q0 85 -42.5 158t-114.5 115t-156 42q-85 0 -157 -42t-114.5 -114.5t-42.5 -158.5
q0 -85 42 -157t114.5 -114.5t157.5 -42.5q84 0 156.5 43t114.5 115t42 156z" />
    <glyph glyph-name="notequal" unicode="&#x2260;" 
d="M993 760q0 -123 -60 -225.5t-163.5 -163t-224.5 -60.5q-89 0 -172 35t-145 97t-97 145t-35 172q0 121 60.5 224.5t163 163.5t225.5 60q121 0 224.5 -60t163.5 -163.5t60 -224.5zM858 760q0 85 -42.5 158t-114.5 115t-156 42q-85 0 -157 -42t-114.5 -114.5t-42.5 -158.5
q0 -85 42 -157t114.5 -114.5t157.5 -42.5q84 0 156.5 43t114.5 115t42 156z" />
    <glyph glyph-name="lessequal" unicode="&#x2264;" 
d="M993 760q0 -123 -60 -225.5t-163.5 -163t-224.5 -60.5q-89 0 -172 35t-145 97t-97 145t-35 172q0 121 60.5 224.5t163 163.5t225.5 60q121 0 224.5 -60t163.5 -163.5t60 -224.5zM858 760q0 85 -42.5 158t-114.5 115t-156 42q-85 0 -157 -42t-114.5 -114.5t-42.5 -158.5
q0 -85 42 -157t114.5 -114.5t157.5 -42.5q84 0 156.5 43t114.5 115t42 156z" />
    <glyph glyph-name="greaterequal" unicode="&#x2265;" 
d="M993 760q0 -123 -60 -225.5t-163.5 -163t-224.5 -60.5q-89 0 -172 35t-145 97t-97 145t-35 172q0 121 60.5 224.5t163 163.5t225.5 60q121 0 224.5 -60t163.5 -163.5t60 -224.5zM858 760q0 85 -42.5 158t-114.5 115t-156 42q-85 0 -157 -42t-114.5 -114.5t-42.5 -158.5
q0 -85 42 -157t114.5 -114.5t157.5 -42.5q84 0 156.5 43t114.5 115t42 156z" />
    <glyph glyph-name="lozenge" unicode="&#x25ca;" 
d="M993 760q0 -123 -60 -225.5t-163.5 -163t-224.5 -60.5q-89 0 -172 35t-145 97t-97 145t-35 172q0 121 60.5 224.5t163 163.5t225.5 60q121 0 224.5 -60t163.5 -163.5t60 -224.5zM858 760q0 85 -42.5 158t-114.5 115t-156 42q-85 0 -157 -42t-114.5 -114.5t-42.5 -158.5
q0 -85 42 -157t114.5 -114.5t157.5 -42.5q84 0 156.5 43t114.5 115t42 156z" />
    <glyph glyph-name="apple" unicode="&#xf000;" 
d="M993 760q0 -123 -60 -225.5t-163.5 -163t-224.5 -60.5q-89 0 -172 35t-145 97t-97 145t-35 172q0 121 60.5 224.5t163 163.5t225.5 60q121 0 224.5 -60t163.5 -163.5t60 -224.5zM858 760q0 85 -42.5 158t-114.5 115t-156 42q-85 0 -157 -42t-114.5 -114.5t-42.5 -158.5
q0 -85 42 -157t114.5 -114.5t157.5 -42.5q84 0 156.5 43t114.5 115t42 156z" />
    <glyph glyph-name="fi" unicode="&#xf001;" 
d="M993 760q0 -123 -60 -225.5t-163.5 -163t-224.5 -60.5q-89 0 -172 35t-145 97t-97 145t-35 172q0 121 60.5 224.5t163 163.5t225.5 60q121 0 224.5 -60t163.5 -163.5t60 -224.5zM858 760q0 85 -42.5 158t-114.5 115t-156 42q-85 0 -157 -42t-114.5 -114.5t-42.5 -158.5
q0 -85 42 -157t114.5 -114.5t157.5 -42.5q84 0 156.5 43t114.5 115t42 156z" />
    <glyph glyph-name="fl" unicode="&#xf002;" 
d="M993 760q0 -123 -60 -225.5t-163.5 -163t-224.5 -60.5q-89 0 -172 35t-145 97t-97 145t-35 172q0 121 60.5 224.5t163 163.5t225.5 60q121 0 224.5 -60t163.5 -163.5t60 -224.5zM858 760q0 85 -42.5 158t-114.5 115t-156 42q-85 0 -157 -42t-114.5 -114.5t-42.5 -158.5
q0 -85 42 -157t114.5 -114.5t157.5 -42.5q84 0 156.5 43t114.5 115t42 156z" />
    </font>
</defs>
</svg>
