<?xml version="1.0" standalone="no"?>
<!DOCTYPE svg PUBLIC "-//W3C//DTD SVG 1.1//EN" "http://www.w3.org/Graphics/SVG/1.1/DTD/svg11.dtd" >
<svg>
<metadata>
Created by FontForge 20110222 at Mon Sep 30 09:46:22 2013
 By Orthosie Webhosting
JM Douteau (1998) douteau-jm@cg86.fr
</metadata>
<defs>
<font id="EcolierRegular" horiz-adv-x="319" >
  <font-face 
    font-family="EcolierRegular"
    font-weight="400"
    font-stretch="normal"
    units-per-em="1000"
    panose-1="2 11 5 0 0 0 0 0 0 0"
    ascent="800"
    descent="-200"
    x-height="246"
    cap-height="745"
    bbox="-12 -734 991 890"
    underline-thickness="50"
    underline-position="-125"
    unicode-range="U+0020-00FF"
  />
<missing-glyph horiz-adv-x="502" 
d="M-1 0h500v500h-500v-500zM9 10v480h480v-480h-480z" />
    <glyph glyph-name=".notdef" horiz-adv-x="502" 
d="M-1 0h500v500h-500v-500zM9 10v480h480v-480h-480z" />
    <glyph glyph-name=".null" horiz-adv-x="0" 
 />
    <glyph glyph-name="nonmarkingreturn" horiz-adv-x="333" 
 />
    <glyph glyph-name="space" unicode=" " horiz-adv-x="266" 
 />
    <glyph glyph-name="c33" unicode="!" 
d="M88 477q-7 18 -28 18q-19 0 -28 -17l14 -376h24zM60 51q-28 0 -28 -25q0 -11 8 -18t20 -7q11 0 19 7t8 18q0 25 -27 25z" />
    <glyph glyph-name="c34" unicode="&#x22;" horiz-adv-x="160" 
d="M13 521q4 5 5 7q20 26 29 39q8 12 16 27q1 2 2 5q2 7 2 15q0 13 -24 19h-1q-8 -4 -12 -8t-4 -12v-9q0 -3 2 -12q-4 -26 -24 -59q0 -1 -1 -4v0v-2q0 -6 10 -6zM78 521q24 30 35 45q9 13 15 28q1 1 1 2q5 8 5 18q0 13 -23 19q-9 -4 -14 -8t-6 -12v-9q0 -3 2 -12
q-2 -15 -6 -28q-5 -14 -15 -31q-2 -5 -2 -7q0 -5 8 -5z" />
    <glyph glyph-name="c35" unicode="#" 
d="M188 34l34 187h-26l-35 -187h27zM107 34l33 187h-25l-33 -187h25zM251 152v25h-197v-25h197zM254 82v22h-199v-22h199z" />
    <glyph glyph-name="c36" unicode="$" 
d="M121 -39v533h-12v-533h12zM167 -39v533h-10v-533h10zM251 409q-3 22 -25 34q-19 15 -37 21q-18 5 -49 5q-22 0 -44 -7q-23 -7 -37 -19q-19 -18 -28 -32t-13 -39q-2 -8 -2 -16q0 -20 8 -40q8 -21 18 -32q15 -14 36 -26q20 -12 57 -33q38 -20 61 -34q23 -15 39 -30
q18 -16 29 -32q11 -17 11 -38q0 -17 -8 -36q-9 -24 -40 -44q-32 -20 -75 -21q-39 0 -72 17q-34 17 -47 52l-8 4q13 -36 41 -56q28 -21 83 -21q47 1 81 21t47 58v1q2 8 3 13q7 26 7 38q0 19 -11 46q-7 14 -13 21l-15 15q-2 1 -4 3q-27 22 -53 36q-26 13 -72 31q-33 20 -49 34
t-27 35q-9 17 -9 40t9 39q14 21 35 34t62 13q47 0 74 -19t31 -34z" />
    <glyph glyph-name="c37" unicode="%" horiz-adv-x="425" 
d="M183 401q0 -31 -23 -57t-63 -27q-26 3 -38 29q-13 25 -13 55q0 31 12 56q11 24 39 27q40 0 63 -26t23 -57zM194 401q0 41 -26 68t-70 27q-43 0 -68 -27q-26 -27 -26 -69q0 -40 26 -67q25 -28 68 -28q44 0 70 28q26 27 26 68zM424 96q0 41 -25 68q-25 26 -69 26t-69 -26
q-25 -27 -25 -69q0 -41 25 -68t69 -27t69 28q25 27 25 68zM412 97q0 -30 -21 -57q-22 -27 -61 -29q-27 5 -40 30t-13 54q0 31 12 56q12 24 41 29q38 0 60 -26q22 -27 22 -57zM21 -3l409 486l-17 14l-210 -249l-199 -237z" />
    <glyph glyph-name="c38" unicode="&#x26;" horiz-adv-x="309" 
d="M226 107l-9 9q15 26 25 51t11 45h7q-1 -20 -12 -53q-11 -34 -22 -52zM120 256q-38 -27 -55 -56t-17 -61q0 -30 15 -68q20 -34 58 -34q29 0 58 21t44 54l8 -12q-20 -43 -55 -71q-36 -29 -74 -29q-42 0 -73 39q-27 44 -27 88q0 41 26 77t84 63zM302 11l5 9q-22 21 -59 71
q-40 51 -76 105q-39 56 -64 101q-26 44 -26 58q-2 8 -2 16q0 27 19 43q18 16 38 16q1 0 3 -1h3q39 -15 39 -57q0 -26 -16 -54q-17 -28 -45 -46l9 -10q34 15 57 47q22 32 22 64q0 25 -16 43q-16 17 -48 21q-10 0 -23 -3q-14 -4 -26 -11q-13 -7 -21 -19q-9 -12 -9 -29
q0 -9 3 -20q0 -14 23 -53q22 -39 58 -92t77 -106q41 -54 75 -93z" />
    <glyph glyph-name="c39" unicode="'" horiz-adv-x="105" 
d="M34 514l15 23q8 13 18 28q5 9 10 19q1 4 3 10q2 4 2 7q0 8 -6 12t-15 5q-14 -1 -17 -17q0 -4 1 -6q0 -4 2 -12q-6 -30 -21 -57q0 -6 2 -9q1 -3 6 -3z" />
    <glyph glyph-name="c40" unicode="(" horiz-adv-x="269" 
d="M245 -77q-133 85 -133 316q0 234 133 321q-62 -24 -100 -68q-41 -49 -59 -94q-22 -52 -27 -90q-8 -40 -8 -63q0 -3 2 -6q0 -22 6 -67q7 -44 26 -93q20 -56 60 -95q37 -42 100 -61z" />
    <glyph glyph-name="c41" unicode=")" horiz-adv-x="277" 
d="M18 -77q61 18 100 61q36 38 60 95q19 56 26 93q6 45 6 67v6q0 33 -6 63q-6 34 -26 90q-11 27 -26 49t-36 45q-33 41 -98 68q133 -87 133 -321q0 -231 -133 -316z" />
    <glyph glyph-name="c42" unicode="*" horiz-adv-x="307" 
d="M162 149v57h-20v-56l-49 40l-14 -12l49 -40h-66v-23h64l-42 -43l13 -11l46 46v-58h20v57l50 -43l13 14l-52 38h69v21h-69l50 44l-14 14zM152 149v57h-20v-56l-49 40l-14 -12l49 -40h-68l2 -23h64l-42 -43l13 -11l46 46v-58h20v57l50 -43l13 14l-52 38h69v21h-69l50 44
l-14 14zM152 149v57h-20v-56l-49 40l-14 -12l49 -40h-68l2 -23h64l-42 -43l13 -11l46 46v-58h20v57l50 -43l13 14l-52 38h69v21h-69l50 44l-14 14z" />
    <glyph glyph-name="c43" unicode="+" 
d="M162 55v151h-26v-151h26zM55 121h199v24h-199v-24z" />
    <glyph glyph-name="c44" unicode="," horiz-adv-x="159" 
d="M152 45q0 42 -46 42q-19 0 -32 -11t-13 -31t13 -32t32 -12q-6 -22 -13 -41q-7 -18 -18 -36t-28 -39q-18 -21 -46 -48q9 -2 15 -2q10 0 24 10q5 5 10 8q27 24 47 52q19 28 32 57q12 28 18 50q5 21 5 33z" />
    <glyph glyph-name="c45" unicode="-" 
d="M55 121h199v24h-199v-24z" />
    <glyph glyph-name="c46" unicode="." horiz-adv-x="126" 
d="M76 84q-16 0 -29 -11q-13 -12 -13 -30t14 -30q13 -12 28 -12q20 0 32 12q12 11 12 30q0 41 -44 41z" />
    <glyph glyph-name="c47" unicode="/" horiz-adv-x="272" 
d="M86 1l135 495h-43l-132 -495h40z" />
    <glyph glyph-name="c48" unicode="0" 
d="M166 489q28 -2 47 -14q19 -13 31 -33q11 -21 18 -44q6 -24 10 -54q8 -41 8 -89q0 -73 -18 -146q-16 -49 -36 -73q-20 -25 -60 -32q-44 0 -61 21q-18 21 -31 63l-2 7q-5 32 -7 62q-3 29 -3 64q0 10 1 20v23q0 53 8 101q7 47 22 75q13 27 35 38t38 11zM168 494
q-46 0 -81 -36t-53 -117v-2q-5 -32 -7 -53q-3 -22 -3 -49q0 -40 7 -87q7 -34 16 -60q8 -26 22 -46t36 -31q21 -12 52 -12q37 0 56 16t37 45q3 6 5 8q18 42 24 84t9 113v12q-5 101 -34 157q-30 56 -86 58z" />
    <glyph glyph-name="c49" unicode="1" horiz-adv-x="248" 
d="M46 339l81 130v-469h46v496h-39l-96 -157h8z" />
    <glyph glyph-name="c50" unicode="2" 
d="M178 374h-7q4 -26 4 -46q0 -43 -17 -63q-17 -21 -46 -21h-7q-6 1 -8 1q-34 8 -49 37q-16 29 -16 68q0 29 8 57q21 56 73 76q18 5 34 5q55 0 77 -53q12 -39 12 -71q0 -28 -11 -74q-5 -27 -22 -49q-18 -22 -52 -55q-28 -27 -47 -48t-36 -47q-14 -21 -24 -45
q-11 -24 -12 -47h6q2 31 53 31q21 0 52 -6q14 -1 44 -12q34 -12 49 -12q8 0 15 2q17 10 31 34q13 23 13 47q-8 -29 -17 -40q-10 -11 -24 -11q-8 0 -28 5q-10 2 -11 2q-32 9 -54 13q-21 4 -35 4t-35 -5l-9 -2h-1q-11 -4 -18 -9q-9 -6 -24 -20q11 32 25 55q13 23 33 49
q18 20 62 61q23 22 29 28q12 14 31 34q18 19 26 29q9 10 17 24q17 27 17 90q-5 27 -18 49q-13 21 -28 33q-35 23 -72 23q-31 0 -69 -17q-17 -8 -35 -31t-25 -52q-5 -27 -5 -50q0 -20 4 -32q18 -71 81 -71q37 0 54 27q16 26 16 66q0 20 -4 39z" />
    <glyph glyph-name="c51" unicode="3" 
d="M148 422q0 -30 -9 -43q-10 -14 -32 -16q-51 3 -51 59q0 32 28 52q27 19 67 19q15 0 29 -3q27 -10 40 -37q13 -28 13 -66q0 -34 -10 -71q-6 -40 -40 -57q-22 -12 -49 -12q-16 0 -27 5t-11 12q0 10 10 14t26 4q23 0 46 -6q18 -10 27 -23q8 -13 14 -34q5 -31 5 -74l-1 -15
v-14q-2 -37 -11 -61q-10 -25 -29 -37q-27 -13 -54 -13q-13 0 -25 3q-30 6 -48 23t-22 39q19 2 19 14q0 11 -11 11q-11 -1 -11 -18q0 -21 13 -38q32 -39 82 -39q38 0 78 22q33 21 48 61t15 82q-2 37 -28 73q-27 35 -61 43q-29 5 -48 5q-38 0 -38 -19q0 -12 13 -18
q12 -6 30 -6q27 0 48 11q40 21 63 61t23 75q-2 46 -28 74q-27 28 -84 32q-51 0 -78 -21q-28 -21 -28 -58q0 -30 18 -43q17 -14 39 -14q14 0 21 4q12 7 18 19q5 11 5 27q0 2 -1 6v6h-3z" />
    <glyph glyph-name="c52" unicode="4" 
d="M286 248h-41v-248h41v248zM245 126h-195q-26 0 -26 -10q0 -12 22 -13q13 0 24 4q19 17 41 61t41 103t31 119q11 59 11 106h41q-7 -54 -25 -115q-19 -62 -43 -119q-25 -58 -50 -98q-26 -42 -47 -58q-10 -9 -24 -9q-26 0 -26 17q0 16 30 16h195v-4z" />
    <glyph glyph-name="c53" unicode="5" 
d="M148 4q-41 0 -72 17t-37 47q18 1 18 10q0 11 -12 11q-11 0 -11 -21q6 -37 41 -52q34 -16 79 -16h13q9 1 11 1q49 8 78 55t33 101q0 33 -9 60q-10 26 -32 47q-18 16 -42 26q-25 9 -52 9q-30 0 -58 -12q-29 -13 -52 -40l56 222q43 -26 98 -26q32 0 56 10q24 9 31 26
q-25 -16 -63 -16q-24 0 -48 8t-42 25l-37 -24l-57 -234h7q20 28 49 42q28 14 57 14q47 0 68 -29q14 -22 19 -46q5 -25 5 -59q0 -49 -9 -80q-10 -32 -24 -51q-21 -25 -62 -25z" />
    <glyph glyph-name="c54" unicode="6" 
d="M63 54q16 -24 40 -38q24 -15 70 -15q48 0 82 38q34 37 34 87q0 52 -34 87t-82 35q-77 0 -102 -60q0 134 26 217q8 26 23 45q14 18 32 30q11 9 32 9q26 0 47 -12q20 -13 20 -37v-6q-12 0 -18 -5q-7 -5 -7 -10q0 -3 5 -6q5 -4 11 -4q5 0 10 6q4 6 5 18q0 2 1 4q0 26 -24 42
q-24 15 -61 15q-27 0 -50 -16q-24 -17 -41 -43q-18 -27 -29 -56q-12 -30 -18 -57q-6 -35 -7 -60q-2 -26 -2 -54q0 -45 10 -83q10 -39 27 -71zM73 178q20 36 43 51q23 14 57 14q46 0 78 -34t32 -82q0 -49 -32 -83t-78 -36q-22 0 -37 6q-16 5 -28 23q-13 17 -21 51
q-9 34 -14 90z" />
    <glyph glyph-name="c55" unicode="7" 
d="M262 476l-72 -149l-28 -73h-53v-13h47l-28 -80l-22 -82l-14 -60l-3 -18l41 -1l1 21l16 75l15 65l21 80h52v13h-50l27 76l61 156l-1 6l-2 -1q-10 -10 -24 -15q-18 -8 -47 -8q-5 0 -11 1h-15q-14 4 -24 10q-11 5 -24 14l-4 3l-43 -10l-47 -110l7 -2l43 103l3 -2
q15 -12 33 -18q17 -7 51 -7q61 0 94 26z" />
    <glyph glyph-name="c56" unicode="8" 
d="M235 222q-26 21 -50 36q-23 14 -61 34q-27 16 -42 31q-16 15 -27 37q-7 21 -7 44q0 22 7 39q14 22 32 35t54 13q42 0 66 -18q23 -19 28 -36q-11 -11 -11 -19q0 -10 14 -22q-1 -26 -6 -42q-5 -17 -18 -34q-19 -20 -29 -28q-11 -8 -26 -15l6 -4q23 14 46 34q18 17 26 37
q7 20 9 47q9 -2 19 -2q26 0 36 17l-5 3q-6 -12 -32 -12h-8q-6 1 -8 1q0 1 -1 7v3q-2 19 -7 34q-6 15 -21 27q-17 16 -33 22q-17 5 -45 5q-22 0 -41 -6t-30 -21l-1 -1q-17 -18 -25 -31q-8 -14 -12 -41v-5q-1 -4 -1 -6q0 -21 7 -44q7 -24 16 -36q13 -14 31 -26q16 -12 51 -34
q33 -20 54 -34q20 -15 34 -31q17 -16 27 -34q10 -19 10 -42q0 -16 -6 -34q-10 -23 -38 -43t-65 -23q-35 0 -64 18q-30 17 -42 53q-6 17 -6 40t6 46q6 22 17 37q19 25 35 36q15 10 33 13l-7 7q-17 -10 -34 -22q-18 -13 -25 -22q-16 -17 -23 -40t-7 -49q0 -21 4 -42
q10 -35 39 -57q28 -23 71 -23q42 1 72 23q30 21 41 60v1q2 4 2 6q8 31 8 46q0 21 -10 49q-7 14 -12 22q-6 7 -15 16z" />
    <glyph glyph-name="c57" unicode="9" 
d="M239 318q-18 -37 -41 -52t-58 -15q-46 2 -77 35q-32 33 -32 82t32 83t77 37q56 -5 78 -34q22 -30 22 -102v-16q-1 -13 -1 -18zM57 42q0 -17 24 -29t59 -12q38 0 65 15q26 15 42 38q15 23 24 48q8 24 13 51q3 40 3 78q0 14 -1 36v19q0 56 -7 96q-7 39 -28 66q-9 15 -37 31
q-28 15 -74 15q-47 0 -80 -37q-34 -38 -34 -89q0 -52 34 -87q33 -36 80 -36q76 0 102 62q0 -17 1 -54q1 -36 1 -47q0 -75 -14 -121q-17 -32 -31 -47q-15 -15 -38 -26q-12 -4 -31 -4q-25 0 -46 9t-21 25h2h1q12 0 12 13q-1 6 -9 6q-4 0 -7 -2q-5 -7 -5 -12v-2v-3z" />
    <glyph glyph-name="c58" unicode=":" horiz-adv-x="103" 
d="M49 103q-16 0 -29 -11q-13 -12 -13 -30t14 -30q13 -12 28 -12q20 0 32 12q12 11 12 30q0 41 -44 41zM49 225q-16 0 -29 -11q-13 -12 -13 -30t14 -30q13 -12 28 -12q20 0 32 12q12 11 12 30q0 41 -44 41z" />
    <glyph glyph-name="c59" unicode=";" horiz-adv-x="155" 
d="M152 45q0 42 -46 42q-19 0 -32 -11t-13 -31t13 -32t32 -12q-6 -22 -13 -41q-7 -18 -18 -36t-28 -39q-18 -21 -46 -48q9 -2 15 -2q10 0 24 10q5 5 10 8q27 24 47 52q19 28 32 57q12 28 18 50q5 21 5 33zM107 201q-16 0 -29 -11q-13 -12 -13 -30t14 -30q13 -12 28 -12
q20 0 32 12q12 11 12 30q0 41 -44 41z" />
    <glyph glyph-name="c60" unicode="&#x3c;" horiz-adv-x="370" 
d="M240 0h21q-8 69 -24 115q-17 45 -41 73t-55 45q-30 16 -77 30q24 9 52 26q28 16 59 44q30 28 57 69q27 40 44 91h-12q-20 -39 -49 -76q-30 -37 -64 -68q-34 -32 -67 -55q-34 -23 -63 -37q37 -14 74 -41q36 -28 67 -63q31 -36 52 -75q20 -40 26 -78z" />
    <glyph glyph-name="c61" unicode="=" 
d="M55 82h199v22h-199v-22zM54 152h197v25h-197v-25z" />
    <glyph glyph-name="c62" unicode="&#x3e;" horiz-adv-x="370" 
d="M126 0q6 38 27 78q21 39 52 75q30 35 67 63q36 27 73 41q-28 13 -61 37q-33 22 -68 55q-35 32 -64 68q-30 37 -50 76h-12q18 -52 45 -92q27 -41 57 -68q29 -28 58 -44q28 -17 52 -26q-47 -14 -77 -30q-31 -17 -55 -45t-40 -73q-16 -46 -25 -115h21z" />
    <glyph glyph-name="c63" unicode="?" 
d="M120 51q-11 0 -19 -7t-8 -18t8 -18t19 -7q28 0 28 25t-28 25zM163 264q11 13 11 23q0 11 -11 11t-11 -12q0 -8 8 -19q-17 -23 -50 -23q-2 0 -7 1h-6q-34 8 -49 37q-16 29 -16 68q0 29 8 57q21 56 73 76q18 5 34 5q55 0 77 -53q12 -39 12 -71q0 -28 -11 -74
q-4 -22 -19 -42t-42 -49q-13 -14 -24 -26q-22 -18 -27 -45q-6 -27 -6 -60h27q1 11 1 30q0 49 10 68q11 14 16 20l13 13l14 14q12 14 31 34q18 19 26 29q9 10 17 24q17 27 17 90q-5 27 -18 49q-13 21 -28 33q-35 23 -72 23q-31 0 -69 -17q-17 -8 -35 -31t-25 -52
q-5 -27 -5 -50q0 -20 4 -32q18 -71 81 -71h5h4q26 0 42 22z" />
    <glyph glyph-name="c64" unicode="@" horiz-adv-x="511" 
d="M145 7q-42 57 -42 126q0 67 38 117q38 49 96 54h12q8 1 11 1q82 0 129 -42q46 -43 46 -127q0 -26 -8 -47q-8 -22 -24 -46q-13 -15 -21 -20q-9 -6 -20 -9q-14 2 -19 8t-8 20q-1 4 -2 7v200h-49v-199q1 -1 3 -6q8 -18 23 -29q14 -11 49 -11q14 4 22 9q7 5 19 15l7 7l4 7
q13 19 22 38t15 50q4 17 4 33q0 34 -15 65q-16 30 -43 53t-61 36q-35 13 -73 13q-13 0 -26 -2q-79 -6 -129 -58t-50 -138q0 -31 8 -67q25 -71 81 -106q55 -35 135 -35h15q9 1 15 1q51 11 92 32q40 22 66 64h-13q-37 -37 -80 -55t-87 -18q-41 0 -77 15q-37 15 -65 44zM284 89
l1 -19q-5 -13 -14 -26q-9 -14 -20 -26q-16 -15 -37 -15q-17 0 -34 10q-38 41 -41 87q0 5 -1 14q0 56 23 90q16 26 32 36q15 10 26 10q2 0 4 -1h2q20 0 32 -9q11 -10 21 -26q5 -6 6 -8v-14q-11 28 -25 40q-15 12 -29 12q-10 0 -16 -5q-5 -4 -7 -9q-3 -5 -9 -19l-6 -13
q-5 -24 -7 -37q-2 -12 -4 -40l1 -18q2 -28 6 -42q3 -14 15 -35q13 -13 25 -13q11 0 21 9q10 8 18 21q7 12 12 25q4 13 5 21z" />
    <glyph glyph-name="c65" unicode="A" horiz-adv-x="708" 
d="M708 117v13q-4 -9 -15 -21q-11 -13 -25 -26q-15 -13 -28 -22q-14 -9 -23 -13l-11 -12q7 3 22 12q14 9 30 21q16 13 29 25t21 23zM571 421q-9 -15 -25 -25q-17 -11 -46 -22q-19 -3 -75 -3q-34 0 -102 1q-71 1 -98 1h-31q-11 -1 -20 -1q-34 0 -66 -23q-33 -23 -49 -52
q6 4 16 15q12 12 23 20q10 7 26 12q18 3 48 5q29 1 70 1h55q29 -1 59 -1q85 0 128 5q26 6 44 17q17 11 27 22q9 10 12 18q3 6 4 10zM481 122l6 5q-10 40 -10 61q0 25 14 62q13 25 33 39q19 14 40 14q34 0 60 -35q22 -37 22 -92q0 -34 -9 -66q-9 -33 -26 -55q-14 -24 -40 -37
q-27 -13 -57 -13q-37 0 -65 18q-63 52 -63 208v325q-3 99 -18 143q-16 44 -45 46q-16 -2 -23 -17q-8 -16 -18 -59q-9 -34 -11 -42q-2 -16 -10 -68q-11 -71 -16 -116q-1 -6 -5 -52q-6 -67 -11 -121q-6 -61 -15 -123q-13 -48 -27 -76q-14 -29 -36 -46q-13 -8 -24 -11
q-12 -3 -33 -7q-5 -1 -8 -2q-59 0 -76 48q17 12 17 23t-9 11q-7 0 -12 -8t-5 -24q6 -24 30 -39q23 -15 54 -15q30 0 60 14q19 14 28 25q8 11 20 32v1q9 17 14 28q4 10 8 23q3 12 6 28q1 12 6 41t13 126q6 58 13 130q6 58 15 110q9 54 19 95q9 42 17 67q7 10 14 10t13 -10
t6 -22v-424q0 -51 12 -112t35 -98q34 -38 61 -51t78 -14q55 9 81 37q26 27 43 85q3 25 3 47q0 59 -24 102q-12 17 -28 27q-17 10 -36 10q-39 0 -71 -47q-21 -35 -21 -75q0 -30 11 -64z" />
    <glyph glyph-name="c66" unicode="B" horiz-adv-x="587" 
d="M343 735q-26 4 -51 4q-54 0 -102 -16t-85 -46q-38 -30 -61 -72q-24 -42 -30 -94q0 -3 -1 -11v-10q0 -49 25 -84t70 -35h8q6 1 9 1q39 16 54 46q14 30 14 69q0 20 -4 54l-7 -2q6 -19 6 -47q0 -36 -13 -66q-14 -31 -47 -45h-8q-5 -1 -8 -1q-46 0 -68 32q-22 31 -22 78
q0 31 9 62q9 35 32 68q22 33 57 59q34 25 79 40q45 14 97 14q22 0 47 -3q51 -13 76 -52q25 -40 25 -102q0 -49 -7 -88q-7 -38 -25 -73q-11 -17 -29 -27q-18 -11 -37 -11q-25 0 -39 18q1 9 13 15q12 5 31 5q35 0 71 -20q27 -18 36 -68q9 -51 9 -137q-1 -17 -2 -36
q-1 -36 -3 -59t-8 -44q-7 -21 -20 -33q-14 -13 -36 -13q-35 3 -52 35t-17 81q0 51 16 105l-2 4q-19 -48 -19 -102q0 -38 9 -69q7 -30 24 -45t41 -15q15 0 31 6q44 29 66 90t22 123q0 68 -17 108q-18 39 -66 73q-45 23 -85 23q-23 0 -37 -8t-14 -21q8 -26 46 -26q31 0 60 19
q50 49 70 89q19 40 19 90q0 37 -13 67q-13 29 -35 51q-22 21 -48 34q-27 13 -54 18zM587 117v13q-13 -24 -42 -47q-30 -23 -80 -39l-3 -6q55 18 79 35t46 44zM355 727q-24 -9 -40 -39q-17 -30 -20 -72q0 -180 -1 -338v-15q-2 -51 -5 -78q-4 -28 -11 -49t-20 -41t-39 -51
q-26 -24 -49 -33q-24 -10 -46 -10q-21 0 -37 7q-17 6 -33 16q-8 5 -11 6q-42 32 -42 51q0 6 4 10q7 4 13 4q14 0 14 -13q0 -12 -18 -20q48 -52 107 -52q31 0 61 15q35 23 47 60q11 36 15 99v7q1 7 1 11q0 14 -2 64q-3 88 -3 133q0 87 8 153q8 67 29 103q23 38 36 55
q11 11 20 14q8 2 22 3z" />
    <glyph glyph-name="c67" unicode="C" horiz-adv-x="586" 
d="M588 117v13q-12 -17 -36 -37q-25 -21 -53 -41l-17 -16q9 3 24 12q14 8 31 20q14 11 29 24q14 13 22 25zM369 122l4 6q-9 24 -9 60q0 33 5 48q11 30 32 46q20 15 44 15q19 0 37 -10q22 -11 36 -43q13 -32 13 -76q0 -30 -7 -62q-13 -39 -50 -67q-38 -29 -89 -34
q-35 5 -58 22q-24 17 -44 54q-14 21 -20 80t-6 138q0 36 1 70q1 33 2 56q8 63 17 102t24 77q19 40 37 64t47 46q20 10 36 13q15 3 34 3q50 0 74 -50q5 -13 5 -29q0 -35 -20 -83q-21 -49 -60 -95q-40 -47 -97 -77q-58 -30 -127 -30q-48 0 -89 14t-70 39q-30 24 -46 56t-16 68
q0 53 37 103t113 89h-14q-66 -29 -105 -82t-39 -112q0 -51 32 -95q31 -44 95 -71q76 -17 113 -17q87 0 155 47q67 47 116 136q14 31 22 58q7 27 7 50q0 32 -16 55t-55 33q-4 0 -9 1h-9q-64 0 -116 -49t-95 -133q-21 -40 -35 -93t-14 -118q0 -102 38 -213q3 -4 12 -19
q14 -24 27 -41q13 -18 31 -34q17 -17 41 -27q24 -11 53 -11q63 9 100 45q36 35 42 85q2 23 2 39q0 65 -25 98q-26 33 -68 34q-36 -2 -61 -30q-26 -29 -26 -74q0 -22 3 -42q2 -20 8 -33z" />
    <glyph glyph-name="c68" unicode="D" horiz-adv-x="608" 
d="M608 117v13q-16 -21 -44 -36q-29 -15 -78 -23l-6 -8q57 12 86 24q28 12 42 30zM95 498h6q-2 11 -2 24q0 36 17 57t42 21q20 0 40 -15q21 -21 21 -70q0 -42 -16 -81t-42 -52q-30 -14 -47 -14q-18 0 -37 12q-14 16 -23 45q-10 29 -10 69q0 20 3 43q9 48 34 85q24 37 60 62
q36 24 78 36t85 12q39 0 74 -9q86 -28 129 -101q42 -73 49 -176q0 -135 -14 -223q-15 -88 -56 -141q-23 -29 -49 -41q-27 -13 -57 -13q-31 0 -94 19q-31 8 -44 11q-56 12 -93 18t-66 6q-34 0 -54 -9q-21 -10 -28 -32q0 -16 26 -25q25 -10 64 -10q54 0 105 17q47 40 71 84
q24 43 35 106q12 60 12 147q0 36 -2 75v20q-1 13 -1 21q0 53 9 97q8 44 30 81q6 14 17 27t24 26l-7 6q-17 -14 -54 -55q-36 -43 -54 -91q-19 -48 -19 -132v-227v-9q0 -3 1 -5v-4q0 -46 -14 -86q-15 -40 -48 -69q-21 -12 -47 -18q-27 -6 -54 -6q-35 0 -61 9q-26 8 -28 21
q7 16 23 25q16 8 43 8q30 0 77 -11q46 -12 111 -38q64 -20 104 -20q43 0 74 22q31 21 67 70q34 60 47 134q12 74 12 159q0 7 -1 26v24q-8 93 -34 155q-27 61 -90 106q-29 20 -63 29t-71 9q-53 0 -104 -17q-52 -17 -85 -42q-57 -42 -84 -89q-28 -48 -28 -97q0 -28 9 -56
q17 -35 46 -55q28 -21 59 -21q26 0 48 15q21 14 36 42q10 22 16 48t6 51q0 32 -10 55q-11 23 -33 30q-11 2 -21 2q-36 0 -51 -25q-16 -26 -16 -60q0 -4 1 -12q1 -7 1 -10z" />
    <glyph glyph-name="c69" unicode="E" horiz-adv-x="429" 
d="M429 117v13q-11 -15 -36 -36q-26 -22 -52 -41l-19 -15q9 2 23 11q15 9 31 22q17 12 31 25q14 12 22 21zM115 731v7q-48 -11 -81 -46q-34 -35 -34 -75q1 -42 35 -74q33 -33 80 -37q38 0 74 6q35 5 69 18t65 37t55 60q13 24 13 49q0 22 -10 38q-11 15 -34 21q-15 3 -30 3
q-53 0 -99 -33q-47 -33 -71 -81q-26 -55 -26 -99q0 -53 37 -96q19 -23 38 -33q19 -11 40 -11q17 0 38 6q16 10 16 24q0 11 -15 19t-48 8q-49 -3 -103 -30q-55 -28 -80 -68q-21 -37 -31 -66q-10 -30 -10 -59q0 -45 26 -107q29 -49 78 -81q48 -32 105 -32q48 0 96 25
q32 21 51 56q18 35 18 76q0 55 -33 104q-30 38 -81 38q-41 0 -71 -26q-31 -26 -31 -68q0 -16 5 -34l7 1q-3 13 -3 26q0 42 26 67q26 24 65 24q29 0 57 -15q24 -18 37 -48t13 -64q0 -33 -12 -62q-13 -30 -36 -48q-56 -38 -112 -38q-48 0 -85 31q-37 30 -55 92q-5 33 -5 71
q0 62 18 116q17 54 58 86q54 27 97 27q36 0 44 -21q0 -9 -11 -14q-12 -6 -28 -6q-22 0 -40 11q-19 10 -23 30q-6 46 -6 81q0 54 17 112q18 46 49 73q30 26 74 26q18 0 38 -5q32 -16 32 -50q0 -27 -22 -58q-37 -46 -98 -71q-61 -26 -148 -26q-46 4 -73 34q-28 29 -28 67
q6 43 36 71q29 27 66 41z" />
    <glyph glyph-name="c70" unicode="F" horiz-adv-x="456" 
d="M365 416q0 16 -18 16q-10 0 -18 -8t-8 -23v-106h15v106q-2 7 -2 13q0 16 13 16t13 -14q0 -2 1 -4v-4q0 -10 -17 -27l-6 -6l-134 -112v-6l136 116q16 13 21 21q4 8 4 22zM488 735l4 4q-38 -8 -84 -8q-31 0 -86 5q-9 1 -12 1q-119 0 -201 -58q-82 -59 -94 -167
q-2 -11 -2 -24q0 -48 26 -82q25 -34 69 -34h8q6 1 9 1q38 16 53 46q14 30 14 70q0 19 -4 54l-6 -3q6 -18 6 -46q0 -36 -14 -67t-47 -45h-8q-5 -1 -7 -1q-46 0 -67 31q-22 31 -22 78q0 32 9 63q18 80 90 130q72 49 188 49q64 -6 100 -6q42 0 78 9zM457 117v13q-7 -18 -29 -31
q-23 -14 -55 -23q-31 -10 -69 -17q-40 -8 -86 -15l-2 -6q110 19 165 35t76 44zM350 723h-6q-4 1 -6 1q-14 0 -24 -12q-6 -7 -17 -23q-14 -21 -23 -32q-19 -35 -27 -100t-8 -149q0 -52 4 -148q2 -56 2 -75q-3 -62 -15 -99q-13 -37 -48 -60q-30 -15 -61 -15q-59 0 -106 51
q18 8 18 21q0 12 -14 12q-6 0 -14 -4q-4 -4 -4 -10q0 -18 43 -51l3 -2q1 0 6 -3q16 -10 33 -17q16 -7 37 -7q22 0 46 10q23 10 49 33q26 31 40 51q13 20 20 42q7 21 11 49q3 26 5 77q2 16 2 107v93q-1 58 -1 86q0 21 1 46v23q2 43 17 72q15 28 37 33z" />
    <glyph glyph-name="c71" unicode="G" horiz-adv-x="516" 
d="M4 496l-2 10h-2v-10h4zM383 -5v10q17 14 38 33q18 16 40 37q21 20 36 34q14 14 19 21v-13l-8 -8l-10 -9q-25 -23 -88 -80zM383 206v-237q0 -151 -2 -247q-2 -95 -5 -148q-4 -54 -9 -84t-12 -62q-1 -6 -4 -18q-17 -52 -54 -94t-74 -47h-5q-3 -1 -5 -1q-42 0 -60 38
q-19 39 -19 100q0 35 5 71q5 37 13 68q39 141 82 237q43 97 99 189v-7l-18 -48q-7 -15 -22 -40q-26 -46 -48 -92t-47 -115q-7 -18 -17 -49q-13 -39 -23 -63q-18 -82 -18 -146q0 -63 18 -100q18 -36 54 -36q7 0 15 2q26 7 44 27q17 20 28 47q10 28 16 58q5 31 9 65
q5 53 6 217q1 123 3 207v20q1 13 1 19q0 32 -2 94q-2 53 -2 80q0 57 6 95q8 46 20 67q12 20 30 23q22 0 31 -19t9 -50q0 -21 -3 -44q-4 -25 -9 -43q-43 -117 -119 -136q-17 -3 -30 -3q-52 0 -77 31q-25 30 -46 93q-15 57 -15 125q0 49 7 99q7 48 18 90q10 41 21 71
q11 31 19 47q14 35 36 68q22 32 50 58q28 25 61 40q32 15 66 15h8q7 -1 8 -1q30 -8 51 -27q21 -20 26 -63q0 -4 1 -8v-8q0 -21 -6 -39q-6 -19 -20 -48l-2 -4q-17 -36 -47 -67q-30 -32 -68 -55q-39 -24 -81 -37q-43 -13 -86 -13q-26 0 -50 6q-25 5 -61 19q-46 29 -61 67
q-16 38 -16 86q8 67 34 116t81 76h9q-58 -33 -83 -80q-26 -48 -32 -112q0 -79 45 -124q45 -46 128 -46q66 0 122 24q56 23 97 61q41 37 64 80t25 82q2 6 2 13q0 9 -5 28q-2 9 -2 11q-12 27 -32 39t-46 17q-23 0 -36 -4q-14 -5 -36 -17q-27 -18 -45 -40q-18 -23 -49 -69
q-15 -33 -26 -70q-12 -38 -27 -109q-1 -12 -2 -23q-5 -49 -7 -91q-3 -42 -3 -87q0 -49 4 -91q4 -43 14 -78q25 -44 71 -44q15 0 34 4q40 19 67 54t43 78q11 64 11 91q0 23 -6 36t-20 15q-7 -8 -10 -21t-3 -29q0 -8 1 -19v-11z" />
    <glyph glyph-name="c72" unicode="H" horiz-adv-x="711" 
d="M711 117v13q-10 -16 -33 -35q-25 -19 -57 -41l-7 -12q32 19 58 39q27 20 39 36zM323 427l19 -137l21 137h-40zM652 183q-1 -36 -7 -67t-19 -56q-13 -26 -35 -42t-53 -18q-36 0 -61 17q-25 16 -40 41q-16 25 -23 48q-8 24 -15 53q-8 50 -10 104q-3 53 -3 141q4 70 18 118
q13 47 31 89l3 8q29 59 67 92q38 32 76 32q27 0 51 -16q20 -20 20 -45q0 -26 -21 -62q-22 -36 -68 -85q-40 -39 -81 -72q-42 -33 -103 -78q-60 -44 -99 -75q-38 -31 -71 -67l-3 6q37 38 67 63q28 24 69 54q17 13 21 16q42 28 71 50q30 23 53 43q21 18 39 36q18 17 42 42
q10 11 14 15q32 35 46 63t14 49q0 23 -13 39q-20 19 -47 19q-31 0 -61 -24q-31 -25 -43 -56q-9 -18 -16 -45t-12 -58q-5 -29 -8 -58q-3 -28 -3 -47v-199q0 -106 8 -155q8 -51 28 -71q27 -19 57 -19q29 0 55 20q26 19 42 57q14 44 14 89q0 48 -16 81q-17 33 -48 37h-4
q-3 1 -4 1q-37 0 -56 -37q-19 -38 -19 -95l-5 1v10q-1 7 -1 10q0 44 18 77q18 32 42 39q11 2 19 2q40 0 60 -33t23 -82zM298 622v-88q1 -122 1 -176q0 -30 -1 -74v-19q-2 -50 -5 -77q-4 -29 -11 -50t-20 -41t-40 -53q-26 -24 -49 -34q-24 -10 -46 -10q-21 0 -37 7t-32 17
q-7 5 -10 6q-42 33 -42 50q0 6 5 11q7 4 13 4q14 0 14 -12t-16 -20q43 -53 102 -53q31 0 61 15q35 24 47 62q12 37 14 98v10q1 12 1 17t-1 60v7q-2 74 -2 120q0 89 8 157t28 104q22 42 48 63t47 21q16 0 23 -11q2 -7 2 -15q0 -23 -21 -44t-63 -33h-10h-9q-45 0 -68 11
t-47 35q-15 14 -25 22q-12 9 -28 15q-10 3 -21 3q-19 0 -36 -10t-30 -27t-21 -36q-8 -20 -10 -38q0 -1 -1 -8v-2v-9q0 -39 22 -58t50 -19q27 0 46 26q18 25 18 59q0 3 -1 6v5h8q0 -48 -20 -74q-20 -27 -51 -27q-25 0 -51 16q-17 14 -24 32q-8 17 -8 36q0 25 10 49t20 36
q15 28 45 42t65 14q27 0 50 -8t33 -21l4 -6q21 -30 36 -42q14 -12 38 -12q17 0 42 7q25 15 37 32q11 16 11 29q0 17 -13 17q-4 0 -9 -3q-32 -9 -49 -37q-17 -29 -21 -74z" />
    <glyph glyph-name="c73" unicode="I" horiz-adv-x="410" 
d="M411 117v13q-20 -32 -66 -53t-124 -33l-4 -6q47 8 79 17q32 8 53 18q21 9 35 19q12 9 27 25zM298 622q0 -181 -1 -342v-15q-2 -50 -5 -77q-4 -28 -11 -49q-7 -22 -20 -42t-40 -53q-25 -23 -49 -33t-45 -10q-22 0 -38 7q-17 7 -33 18q-5 3 -6 3l-3 2q-42 31 -42 50
q0 6 5 11q7 4 12 4q13 0 13 -12q0 -13 -18 -22q46 -51 104 -51q32 0 62 15q37 23 49 61q12 37 14 100v8q1 12 1 15q0 18 -2 65q-2 75 -2 124q0 90 8 157q8 68 28 105q23 42 49 63t46 21q15 0 22 -11q3 -8 3 -16q0 -24 -22 -44q-22 -21 -64 -33h-10h-8q-45 0 -68 12
q-23 11 -46 34q-14 14 -25 23q-11 8 -27 14q-11 4 -22 4q-19 0 -36 -10q-17 -11 -31 -28q-26 -35 -30 -74q-2 -11 -2 -20q0 -40 23 -58q22 -18 50 -18q27 0 45 29q18 28 18 67h8q0 -48 -20 -74t-52 -26q-24 0 -49 15q-17 14 -24 32q-8 17 -8 36q0 25 9 49q9 23 19 36
q15 29 46 43q30 14 65 14q27 0 51 -8q23 -8 32 -22q3 -4 3 -5q22 -30 36 -42t38 -12q17 0 42 7q25 14 37 31q12 16 12 29q0 18 -15 18q-5 0 -10 -3q-30 -9 -46 -38t-20 -74z" />
    <glyph glyph-name="c74" unicode="J" horiz-adv-x="425" 
d="M425 117v13q-9 -19 -40 -54t-76 -65v-12q47 35 77 68q29 32 39 50zM309 -22q-1 -57 -8 -130q-7 -72 -17 -142q-11 -69 -23 -136q-13 -66 -27 -115l-5 -15q-12 -38 -21 -64q-10 -25 -24 -50q-14 -24 -33 -40t-44 -18q-50 7 -71 51q-22 45 -22 110q0 36 5 71q5 36 12 66
q17 70 44 130t59 108q31 49 62 87q30 37 67 75v-9l-8 -9q-3 -3 -9 -10q-16 -19 -19 -22q-11 -12 -28 -32q-36 -46 -64 -91q-28 -44 -55 -108q-26 -61 -42 -130q-16 -68 -16 -126q0 -64 20 -104q20 -39 62 -44q31 0 56 31t44 81q18 50 29 106t16 112q14 87 14 260q0 19 -1 43
v49q1 24 1 90q0 59 1 110q1 54 3 108q0 32 4 86q3 54 9 111q5 55 14 105q8 49 19 74q14 45 36 69q21 24 41 24q10 0 18 -7q3 -7 3 -15q0 -21 -18 -48q-19 -27 -54 -52q-25 -8 -44 -8q-54 0 -86 74q-20 25 -31 33q-12 7 -33 10q-7 2 -9 2q-4 0 -11 1q-8 1 -11 1
q-41 0 -66 -25q-25 -26 -38 -81v-9q-1 -5 -1 -8q0 -44 24 -66t61 -22q27 1 45 29t18 67h8q0 -50 -21 -76q-22 -26 -56 -26q-23 0 -47 12q-21 16 -30 38q-10 21 -10 46q0 19 5 38q5 18 13 33q16 32 47 47q31 14 69 14q30 0 58 -8q27 -9 41 -23q11 -13 17 -27t12 -35
q4 -15 6 -19q10 -13 28 -13q28 0 61 27q24 23 34 41q10 17 10 29t-7 14q-4 2 -9 2q-19 0 -38 -33q-20 -34 -26 -72q-3 -41 -5 -106q-2 -63 -2 -151q0 -16 1 -45v-52z" />
    <glyph glyph-name="c75" unicode="K" horiz-adv-x="745" 
d="M479 318l-2 -66v-26l-1 -23q0 -75 8 -116q8 -43 26 -61q29 -19 59 -19q29 0 55 19q25 19 42 57q13 43 13 87q0 49 -16 83q-16 33 -48 37h-4q-3 1 -4 1q-36 0 -55 -37q-20 -38 -20 -95l-4 1q0 3 -1 11v11q0 44 18 76q18 31 42 38q11 2 20 2q39 0 59 -32q19 -32 24 -83
q-2 -36 -8 -66q-6 -32 -18 -57q-13 -26 -35 -42t-55 -18q-35 0 -60 17q-26 16 -41 41q-15 24 -23 47t-15 54q-13 74 -13 130q0 15 1 28v6q0 21 -8 35t-21 22q-13 7 -28 10t-31 3q-12 0 -20 -6q-9 -6 -9 -13q0 -15 34 -18q41 0 62 13q20 12 20 44v7q-1 6 -1 8q0 5 -1 32
q-1 52 -1 78q0 53 4 75q1 13 12 35t28 45q17 22 39 37t46 15l4 -1h4q14 0 29 -2q14 -3 29 -12q14 -10 26 -29q11 -20 16 -52q0 -21 -2 -45q-2 -23 -7 -47l-9 3q10 29 10 62q0 47 -21 80q-21 32 -63 32q-10 0 -20 -2q-33 -8 -47 -33q-14 -26 -20 -95v-32q1 -32 1 -47
q0 -22 1 -46v-40q-3 -36 -41 -63q-39 -28 -87 -28q-22 0 -42 6q-5 1 -9 8q-5 6 -5 14q0 12 13 20q12 8 41 8q16 -1 37 -6q21 -6 41 -16q19 -10 34 -26t18 -38zM747 117v13q-8 -19 -33 -39q-26 -21 -54 -37l-9 -12q35 18 60 36t36 39zM299 622v-31q-1 -45 -1 -67
q0 -243 -1 -259q-2 -50 -5 -77q-4 -29 -11 -50q-7 -22 -20 -41q-13 -20 -40 -53q-25 -23 -49 -33t-45 -10q-22 0 -38 7q-17 7 -33 18q-5 3 -6 3l-3 2q-42 32 -42 50q0 6 5 11q7 4 12 4q13 0 13 -12q0 -13 -18 -22q46 -51 105 -51q32 0 62 15q36 23 48 60t15 100v8q1 11 1 14
q0 18 -2 67q-2 81 -2 130q0 86 8 153q7 67 27 103q23 41 49 63q26 21 46 21q15 0 22 -11q3 -8 3 -16q0 -24 -21 -44q-22 -21 -65 -33h-10h-8q-44 0 -67 12q-23 11 -46 34q-15 14 -26 23t-27 15q-10 3 -21 3q-19 0 -36 -10q-18 -10 -31 -27t-21 -37t-10 -38q-2 -11 -2 -20
q0 -40 23 -58q22 -18 50 -18q27 0 45 29q18 28 18 67h8q0 -48 -20 -74t-52 -26q-24 0 -49 15q-17 14 -24 32q-8 18 -8 37q0 24 9 47t19 37q15 29 46 43q30 14 65 14q28 0 51 -8t32 -22l2 -3q22 -31 37 -43q14 -13 39 -13q17 0 42 7q25 15 37 31q11 16 11 30q0 17 -14 17
q-5 0 -10 -3q-60 -19 -66 -112z" />
    <glyph glyph-name="c76" unicode="L" horiz-adv-x="540" 
d="M9 496l-3 10h-6v-10h9zM540 117q-27 -48 -54 -78q-27 -31 -66 -38q-16 -3 -34 -3q-45 0 -92 15q-47 14 -95 35q-24 10 -56 17q-33 6 -61 6t-45 -7q-18 -7 -20 -23q5 -16 30 -24q24 -8 58 -12q49 4 77 16t46 39q11 18 14 85q3 66 3 216q1 66 5 111q3 44 12 75
q27 92 75 144t113 52h9q5 -1 9 -1q40 -11 56 -34t16 -55q0 -38 -29 -107q-50 -90 -117 -137t-153 -47q-51 0 -113 18q-63 27 -95 71t-32 95q0 58 40 112q39 53 105 82h12q-75 -39 -111 -89q-37 -51 -37 -105q0 -35 16 -67t46 -57q29 -25 70 -39q40 -15 88 -15q70 0 127 31
t96 78q39 46 60 95q21 48 21 82q0 15 -7 32q-11 27 -29 38q-19 11 -45 11q-20 0 -35 -3t-33 -14q-33 -22 -50 -47q-18 -26 -26 -62q-10 -45 -14 -152q0 -25 -1 -39v-234q0 -43 -14 -80q-15 -38 -53 -63q-21 -21 -52 -30q-31 -10 -70 -12q-38 1 -65 15q-28 13 -30 29
q1 18 24 29t65 11h12q9 -1 14 -1q22 -1 52 -9t78 -24q58 -18 94 -27t64 -9q13 0 24 2q30 15 50 39q19 23 38 54q11 20 15 22v-13z" />
    <glyph glyph-name="c77" unicode="M" horiz-adv-x="928" 
d="M928 117v13q-5 -8 -17 -20q-12 -13 -26 -24q-15 -13 -27 -22q-14 -10 -23 -13l-12 -13q8 3 23 12q14 8 30 20q16 11 30 23q13 12 22 24zM399 10q-9 0 -14 19q-6 18 -8 48q-3 31 -4 67q-1 34 -1 85v318q-5 103 -20 148q-16 44 -44 45q-19 -1 -27 -21q-9 -21 -22 -78
q-3 -10 -5 -20l-2 -9q-16 -102 -26 -173q-2 -9 -6 -57q-4 -60 -10 -120q-7 -60 -17 -120q-21 -87 -64 -119q-28 -18 -54 -19q-32 0 -48 15q-17 15 -17 33q23 6 23 18q0 14 -14 14q-7 0 -12 -8q-6 -8 -6 -25q6 -22 24 -37t45 -15q26 0 56 14q15 12 23 21q7 9 17 23l9 11
q14 34 20 55q5 20 12 66q4 33 13 120q7 78 13 137q6 55 15 108q8 54 18 97q9 42 18 65q3 4 4 6q10 14 20 14q7 0 9 -11t2 -36v-418q0 -24 6 -70t17 -92q10 -46 25 -77q15 -32 32 -32q18 0 28 42q10 41 23 134q1 9 2 13q4 31 7 70q1 14 2 32l6 76q8 128 14 190q18 120 33 159
l4 5q11 15 20 15q8 0 11 -9q2 -10 2 -33v-420q0 -52 13 -112q12 -61 36 -98q33 -36 61 -49q27 -14 76 -15q57 9 83 36q25 27 42 86q5 26 5 52q0 55 -22 96q-14 16 -31 26q-17 9 -36 9q-40 0 -71 -46q-22 -34 -22 -76q0 -28 10 -61l9 4q-14 41 -14 63q0 23 15 59q13 25 33 39
q20 13 42 13q34 0 60 -34q21 -35 21 -89q0 -34 -9 -67q-10 -34 -26 -56q-15 -24 -41 -36q-26 -13 -56 -13q-37 0 -64 18q-61 46 -61 207v322q-5 98 -21 142q-17 44 -44 46q-19 -1 -27 -18q-8 -18 -19 -68q-3 -13 -6 -28q-3 -18 -7 -45q-13 -86 -16 -141q-2 -24 -5 -85
q-8 -136 -19 -208q-11 -67 -20 -101q-10 -36 -21 -36z" />
    <glyph glyph-name="c78" unicode="N" horiz-adv-x="672" 
d="M601 480q26 26 44 61q17 35 23 68v11q1 9 1 11q0 54 -20 83q-21 29 -64 29q-1 0 -7 -1h-7q-34 -1 -58 -37q-24 -37 -32 -79q-8 -26 -11 -55q-4 -28 -7 -81q-2 -31 -4 -50q0 -47 -1 -160q-1 -48 -1 -55q-2 -101 -10 -156q-9 -56 -19 -56q-15 0 -24 52q-9 53 -20 164
l-24 298q-8 121 -33 177q-14 38 -37 38q-20 0 -28 -19q-8 -20 -18 -66q-3 -18 -6 -31q-6 -34 -8 -62q-4 -40 -8 -86q-1 -17 -3 -38q-1 -7 -2 -39q-3 -60 -8 -128q-5 -66 -15 -132q-9 -36 -26 -69t-38 -49q-14 -9 -27 -14t-29 -7q-31 0 -48 16t-17 33q23 6 23 19t-14 13
q-7 0 -12 -7q-5 -8 -5 -25q6 -22 24 -37q18 -16 45 -16q26 0 55 15q19 14 28 24q8 10 20 30l1 1q14 32 20 54q5 21 10 68q6 28 10 69q3 37 8 125q8 115 14 175v1q11 76 17 110q6 33 18 53q7 11 15 11q10 0 10 -12q4 -20 8 -51v-2q4 -33 5 -40l30 -356q5 -55 14 -114
q9 -58 18 -85q11 -29 26 -52t26 -23q20 1 29 55q8 54 13 166q2 40 3 82v99q0 29 1 50q0 24 1 40q1 13 3 32l1 17l2 20q9 74 27 115q18 40 52 59q16 4 31 4q33 0 53 -21t24 -57v-10q1 -4 1 -9q0 -42 -15 -77q-16 -36 -50 -82zM671 117v13q-6 -9 -23 -21q-18 -13 -55 -34
q-32 -16 -66 -24q-35 -8 -62 -8q-5 0 -8 1h-7l-3 -6q38 0 75 7q38 6 73 24l21 12q26 16 36 22q11 7 19 14z" />
    <glyph glyph-name="c79" unicode="O" horiz-adv-x="483" 
d="M483 117v13q-9 -21 -40 -38q-32 -18 -82 -26l-6 -9q58 12 87 26q28 13 41 34zM130 708q-64 -88 -97 -187q-34 -100 -34 -195q0 -94 33 -172t98 -128q53 -27 100 -27q51 0 91 30t68 85q28 54 43 127q15 71 17 157v18q1 12 1 17q0 156 -39 231q-39 74 -116 77
q-43 -5 -76 -28q-34 -23 -55 -58q-22 -35 -32 -75q-11 -40 -11 -79q0 -34 8 -61q7 -28 22 -44q33 -30 65 -30q38 0 66 44q9 24 16 59q7 36 7 69q0 52 -18 86l-5 -5q15 -28 15 -84q0 -28 -5 -55q-5 -28 -15 -51q-11 -23 -27 -36q-17 -14 -40 -14q-21 2 -30 29q-10 26 -10 69
t8 91q8 49 19 84q9 28 42 52q32 24 68 24q43 0 78 -40q34 -40 51 -129q6 -59 6 -122q0 -90 -13 -173q-14 -83 -42 -142q-28 -56 -66 -85q-39 -29 -91 -29q-29 0 -62 9q-31 14 -53 44q-23 30 -37 71t-21 91q-7 49 -7 103q0 55 7 113q7 56 19 109t29 92q17 40 36 63z" />
    <glyph glyph-name="c80" unicode="P" horiz-adv-x="457" 
d="M352 726h-7q-4 1 -6 1q-14 0 -24 -12q-6 -7 -17 -23q-13 -21 -23 -33q-19 -35 -27 -100t-8 -149q0 -52 4 -148q2 -57 2 -76q-3 -62 -15 -99q-13 -38 -48 -61q-30 -15 -62 -15q-59 0 -106 51q18 8 18 21t-14 13q-7 0 -14 -4q-4 -5 -4 -10q0 -19 43 -51q2 -1 7 -5
q17 -11 34 -18t39 -7t46 10q23 10 49 33q27 32 41 53q13 20 20 41t11 49q3 27 5 78v8q1 102 1 347q2 44 17 73q15 28 38 33zM381 512l5 -5q42 43 42 103q0 48 -30 84t-87 46q-17 2 -35 2q-47 0 -91 -15q-45 -16 -81 -46t-59 -72q-24 -43 -30 -95q-2 -11 -2 -24q0 -48 26 -82
q25 -34 70 -34h8q6 1 8 1q38 16 53 47q15 30 15 69q0 20 -4 53l-6 -2q6 -19 6 -47q0 -36 -14 -66q-14 -31 -47 -44h-8q-6 -1 -8 -1q-46 0 -67 31q-22 30 -22 77q0 31 9 63q8 35 28 67t51 57q30 24 68 38t81 14q25 0 51 -5q45 -11 73 -48t28 -82q0 -47 -31 -84zM457 117v13
q-18 -28 -77 -47q-60 -19 -161 -39l-2 -6q102 19 155 36t85 43z" />
    <glyph glyph-name="c81" unicode="Q" horiz-adv-x="599" 
d="M600 117v13q-11 -19 -30 -37t-60 -49l-4 -6q33 23 49 36t30 28q10 11 15 15zM273 555l-4 1q0 -92 -26 -135t-64 -43q-18 0 -35 10q-18 9 -29 26q-26 50 -26 107q0 43 14 82q13 38 33 63q28 37 59 54q30 16 72 16q29 -1 49 -17q19 -17 30 -44q10 -27 15 -62q4 -35 4 -77
t-5 -127l-2 -25q-6 -55 -15 -105q-10 -49 -28 -98q-19 -49 -50 -89q-32 -41 -77 -63q-48 -23 -97 -23q-31 0 -53 10t-27 26q1 19 21 28q20 8 52 8q31 0 66 -7q35 -8 60 -20q99 -49 177 -49q44 0 77 15t54 39q18 19 28 54q10 34 10 72q0 35 -8 64q-9 28 -24 41q-26 17 -53 17
q-48 0 -69 -48q-9 -31 -9 -59t9 -49h6q-6 27 -6 53q0 38 15 65q15 26 48 31q42 0 63 -31q20 -32 20 -83q0 -27 -6 -58q-14 -52 -46 -80q-33 -29 -87 -29q-73 0 -183 52q-60 19 -117 19q-48 0 -78 -13t-30 -35q6 -19 29 -29t57 -10q28 0 59 7t57 20q42 18 76 58q33 39 58 90
q24 50 41 103q16 52 26 104q17 106 17 168q0 70 -20 110q-21 40 -68 67q-46 15 -79 15q-42 0 -76 -23q-35 -24 -67 -78q-29 -53 -29 -120q0 -47 15 -85q15 -39 39 -54q25 -11 46 -11q42 0 67 41q25 40 25 117q0 5 -1 13v13z" />
    <glyph glyph-name="c82" unicode="R" horiz-adv-x="708" 
d="M438 94q0 -34 25 -62q24 -28 74 -31q52 1 82 45q29 43 29 116q0 3 -1 11v12q-3 53 -21 78t-42 25q-22 0 -38 -18l-1 -1q-18 -31 -25 -55q-8 -24 -9 -75h7q3 65 22 103q18 37 43 37q22 0 42 -29q7 -15 12 -38q4 -24 4 -50q0 -28 -5 -54q-6 -27 -17 -49q-12 -22 -32 -35
t-47 -14q-18 2 -26 7t-12 24q-5 18 -6 56q-2 38 -2 122q0 51 -2 82q-2 29 -8 47q-7 17 -18 28t-33 25q-46 23 -86 23q-23 0 -37 -8t-14 -21q6 -26 46 -26q31 0 60 19q29 28 46 47q16 18 27 38q10 19 15 42q4 23 4 56q0 37 -13 66t-35 50q-22 20 -49 33t-55 18q-27 4 -51 4
q-55 0 -103 -16q-49 -16 -86 -46q-37 -31 -60 -73q-24 -43 -29 -94q-2 -12 -2 -26q0 -47 26 -81q25 -34 68 -34h8q6 1 8 1q39 16 55 46q15 30 15 68q0 22 -6 56l-5 -2q6 -19 6 -47q0 -36 -13 -66q-14 -31 -47 -45h-8q-5 -1 -8 -1q-46 0 -68 31q-23 31 -23 77q0 33 10 64
q9 36 32 69q22 32 57 58t80 41q45 14 97 14q22 0 47 -3q50 -13 75 -53t25 -102q0 -50 -6 -88q-7 -39 -24 -73q-12 -17 -31 -27q-19 -11 -38 -11q-26 0 -40 17q3 9 16 15q12 6 31 6q35 0 71 -21q9 -5 13 -19q3 -15 4 -38v-245zM352 730q-23 -9 -39 -38q-16 -30 -20 -73
q0 -27 1 -87v-176q0 -25 -1 -73v-19q-3 -47 -6 -76q-4 -29 -11 -50q-7 -22 -20 -42t-39 -52q-25 -23 -49 -33t-46 -10q-20 0 -37 7q-17 6 -33 16q-8 5 -11 6q-41 32 -41 50q0 6 5 11q7 4 13 4q12 0 12 -11q0 -13 -17 -22q47 -51 106 -51q31 0 61 15q33 23 46 60q12 36 17 99
q0 19 -2 76q-4 96 -4 147q0 85 8 149q8 65 27 100q27 41 39 56q10 10 19 13q8 3 22 4zM707 117v13q-12 -19 -31 -38t-59 -48l-4 -6q32 22 47 35q16 14 30 27q10 11 17 17z" />
    <glyph glyph-name="c83" unicode="S" horiz-adv-x="500" 
d="M246 360q0 -11 1 -52v-48q0 -80 -4 -132t-14 -68q-19 -27 -46 -38q-27 -12 -69 -12h-16q-36 4 -60 19t-26 39q11 8 11 17q0 4 -3 8q-4 3 -8 3q-11 0 -11 -13q0 -8 3 -15q4 -26 31 -44q26 -19 51 -23h20q38 0 69 10q31 9 53 30q39 24 54 62q14 37 14 81v233l1 26
q1 59 4 97q2 36 10 68q8 37 26 63q17 25 50 46q19 11 34 14t35 3q26 0 45 -11q18 -11 29 -38q7 -17 7 -31q0 -34 -20 -82q-21 -49 -60 -96q-40 -47 -97 -77q-58 -31 -128 -31q-48 0 -89 14t-71 39t-46 57t-16 67q0 54 37 105q36 50 112 89h-12q-67 -29 -106 -82
q-40 -54 -40 -112q0 -51 32 -95t96 -70q65 -19 114 -19q86 0 154 47q67 47 117 137q15 35 23 60q7 25 7 47q0 32 -16 55q-17 23 -57 34q-4 0 -9 1h-9q-66 0 -114 -52t-76 -144q-8 -30 -11 -72q-4 -42 -6 -112v-2zM500 117v13q-5 -13 -31 -25q-27 -13 -67 -24
q-40 -12 -84 -21q-46 -9 -86 -16l-3 -5q40 7 90 17q46 9 83 19q36 10 63 21q26 10 35 21z" />
    <glyph glyph-name="c84" unicode="T" horiz-adv-x="457" 
d="M179 255q2 0 4 41q2 52 6 92t12 73q21 77 34 111t35 57q7 9 17 25q23 35 39 53q16 17 39 25q5 2 10 2q15 0 15 -18q0 -13 -12 -29t-37 -31q-24 -6 -41 -6q-25 0 -39 12q-15 12 -38 44l-2 3q-9 13 -31 22q-23 8 -51 8q-35 0 -66 -14q-31 -15 -46 -43q-10 -14 -19 -37
t-9 -48q0 -19 8 -36q7 -18 24 -32q25 -15 49 -15q32 0 52 26t20 74h-8q0 -39 -18 -67q-18 -29 -45 -29q-28 0 -50 18q-23 18 -23 58q0 9 2 20q2 18 10 38t21 37q13 16 30 27q17 10 36 10q11 0 22 -4q16 -6 27 -14q11 -9 25 -23q25 -24 48 -35q22 -11 66 -11h8h10
q43 12 65 33q21 20 21 45q0 7 -2 15q-7 11 -22 11q-21 0 -47 -21t-49 -63q-35 -41 -54 -67q-21 -27 -36 -52q-16 -26 -27 -52q-12 -27 -24 -63q-16 -71 -16 -130q0 -60 17 -136q3 -7 5 -16q10 -30 19 -52q9 -21 25 -42q15 -22 39 -35q24 -14 57 -14q31 2 53 18t35 42
q13 25 19 56q6 30 8 67q-4 49 -23 82q-20 32 -59 32q-10 0 -21 -2q-24 -7 -42 -38q-18 -32 -18 -77q0 -1 1 -10v-10l5 -1v8q-1 4 -1 7q0 48 20 82t55 34q1 0 4 -1h4q31 -3 48 -37q16 -34 16 -82q0 -45 -14 -87q-15 -37 -41 -56q-26 -20 -56 -20q-31 0 -58 19q-40 40 -40 229
zM457 117v13q-8 -18 -33 -37q-25 -20 -59 -41l-6 -10l6 4q5 3 6 4q30 18 51 34q21 15 35 33z" />
    <glyph glyph-name="c85" unicode="U" horiz-adv-x="883" 
d="M673 248q9 18 27 31q17 12 37 12q17 0 33 -10q16 -11 28 -33q11 -23 11 -66q0 -30 -6 -59q-6 -30 -18 -55q-13 -26 -33 -41q-21 -16 -48 -17q-33 0 -58 17t-25 50v665h-54v-581q0 -74 34 -117q34 -44 93 -44q34 0 57 15q22 14 35 37q13 22 20 45q6 23 11 52l2 10v10l1 8
q0 61 -24 92q-25 30 -62 32q-43 -3 -61 -37q-19 -34 -19 -83q0 -25 4 -50h9q-4 28 -4 49q0 16 2 28t6 29q1 7 2 11zM883 117v13q-19 -39 -44 -58t-58 -28l-7 -7q38 3 65 26q26 22 44 54zM567 743v-387q0 -17 -3 -44t-9 -66q-4 -33 -6 -49q-7 -32 -20 -65q-14 -34 -32 -63
t-38 -46q-21 -18 -43 -18q-41 6 -58 34q-18 27 -18 84v410q0 107 -42 159q-43 51 -144 51q-69 -2 -107 -48t-46 -123q0 -44 6 -80q5 -37 19 -64q14 -28 39 -44q24 -16 61 -16t60 40q23 39 23 100q0 29 -6 60h-5q6 -29 6 -56q0 -60 -23 -100q-24 -40 -62 -40q-54 1 -82 48
t-28 115q0 51 16 98q15 46 42 68q43 33 92 33q54 0 92 -41q37 -41 37 -117v-393q2 -57 13 -93q10 -37 28 -56q17 -20 39 -27q22 -8 52 -8q26 2 54 30q28 27 51 78q16 38 23 68t14 70l5 29v0v469z" />
    <glyph glyph-name="c86" unicode="V" horiz-adv-x="720" 
d="M720 117v13q-23 -38 -73 -61q-50 -24 -124 -25l-10 -7q48 1 84 9q35 8 58 20q23 11 37 23t28 28zM203 566q6 -31 6 -60q0 -61 -22 -100q-23 -39 -60 -40q-37 0 -62 16q-25 15 -38 43q-14 27 -19 63q-6 35 -6 80q8 78 46 124t107 49q99 0 142 -52q42 -52 42 -157v-410
q0 -50 23 -80q22 -31 73 -37q39 2 66 32q26 30 42 78t24 104q8 55 12 118q4 73 4 150q0 50 -1 90q-2 38 -6 62q-7 44 -16 67q-9 22 -21 28q-9 -2 -9 -13t10 -26q9 -16 23 -25q28 -15 55 -15q39 0 66 27t30 59h7q-4 -28 -14 -43q-10 -16 -31 -29q-25 -22 -61 -22
q-30 0 -59 17q-19 15 -27 30q-9 14 -9 27q0 21 16 22q20 -1 30 -24q10 -24 21 -73v-1q5 -76 5 -156q0 -94 -7 -208q-4 -49 -13 -96q-9 -49 -26 -91q-17 -43 -43 -69t-62 -26q-33 0 -59 9q-27 8 -47 29q-21 20 -33 56q-13 35 -15 88v393q0 76 -37 117t-91 41q-49 0 -91 -32
q-27 -22 -42 -68q-16 -47 -16 -99q0 -68 28 -115t83 -47q37 0 60 40t23 101q0 27 -5 54h4z" />
    <glyph glyph-name="c87" unicode="W" horiz-adv-x="989" 
d="M703 10q-33 2 -57 18q-25 15 -25 47v662h-55v-580q0 -72 34 -114t93 -42q44 0 75 25q30 25 48 66q18 40 27 86q8 47 11 96q7 122 7 220q0 74 -4 147q-8 44 -19 70q-11 25 -31 26q-17 0 -17 -22q0 -13 9 -28q8 -15 26 -29q29 -16 60 -16q35 0 62 20q21 17 31 32
q10 14 13 42h-6q-4 -32 -31 -58q-28 -27 -67 -27q-27 0 -55 15q-14 9 -23 24q-10 14 -10 25t9 13q12 -5 23 -28q10 -23 17 -67q2 -20 3 -52q1 -37 1 -72q0 -30 -1 -84l-1 -49q-1 -22 -1 -42q-4 -67 -11 -121q-8 -56 -23 -101q-16 -46 -43 -73q-28 -28 -69 -29zM566 739v-385
q0 -18 -3 -43q-2 -17 -8 -64l-2 -14l-5 -38q-7 -31 -20 -64q-14 -33 -31 -62q-18 -29 -39 -46q-21 -18 -43 -18q-41 6 -58 33q-18 27 -18 83v408q0 107 -42 159q-43 51 -144 51q-69 -3 -106 -49q-38 -46 -46 -122q0 -44 6 -80q5 -36 19 -63q14 -28 39 -43q24 -16 61 -16
t60 39t23 100q0 29 -6 59h-5q5 -28 5 -55q0 -61 -23 -100q-24 -40 -62 -40q-54 1 -81 48q-28 47 -28 115q0 51 16 97q15 46 41 67q44 33 93 33q54 0 91 -40q37 -41 37 -116v-391q2 -56 13 -93q10 -37 28 -56q17 -20 40 -27q22 -7 51 -7q27 2 55 29t50 77q17 41 24 71t15 75
q2 16 3 21v467zM989 117v13q-22 -39 -72 -62t-130 -24l-7 -8q49 2 86 10q36 8 59 20q23 11 37 23q13 12 27 28z" />
    <glyph glyph-name="c88" unicode="X" horiz-adv-x="669" 
d="M669 117v13q-13 -21 -37 -41q-25 -21 -57 -41l-11 -11q8 2 22 11q13 8 31 20q16 12 30 25q13 13 22 24zM435 167q0 3 -1 13v12q0 47 21 75q20 28 69 28q46 -1 67 -32q8 -13 13 -29q4 -16 6 -38v-9q1 -7 1 -9q0 -46 -14 -80q-15 -35 -45 -66q-14 -11 -34 -18
q-21 -7 -43 -7q-42 0 -76 29q-35 29 -53 94q-3 26 -4 65q-2 38 -2 87v59q1 39 1 60q2 71 4 124q1 61 1 85q8 61 44 92t87 31q28 0 56 -9q33 -15 53 -49q19 -35 19 -82q0 -72 -48 -150l7 -3q23 33 37 74q13 41 13 81q0 48 -20 82q-41 63 -119 63q-39 0 -78 -17
q-33 -19 -53 -48q-20 -30 -27 -65l-7 -442q15 -53 31 -81q15 -28 43 -52q19 -15 44 -24q24 -10 50 -10q38 0 73 22q34 31 50 66q15 34 18 79q0 24 -3 45t-12 40q-10 18 -27 31q-18 13 -44 16q-3 0 -9 1h-7q-45 0 -68 -30q-24 -31 -24 -76q0 -15 2 -28h8zM280 617
q5 -21 7 -68q2 -49 2 -111q0 -48 -1 -101q-2 -51 -4 -96q-2 -43 -6 -76q-4 -34 -8 -47q-11 -30 -30 -58q-19 -29 -47 -43q-23 -12 -55 -12q-39 0 -73 16t-40 39q16 1 16 12q0 9 -12 11q-14 0 -14 -12q0 -5 2 -11q13 -31 49 -45t91 -14q47 3 92 48t61 112l7 445
q-24 72 -62 104q-38 31 -117 31q-58 -1 -97 -52q-40 -52 -40 -145q2 -36 9 -66q6 -30 21 -55q14 -25 38 -40q23 -15 57 -16q23 1 40 14t27 34t15 47q4 25 4 52q0 24 -3 46t-9 35l-5 -7q8 -44 8 -82q0 -57 -17 -89q-10 -19 -27 -30t-41 -11q-14 0 -30 4q-38 10 -58 61
q-20 50 -20 111q0 52 13 85q19 50 52 74q32 24 70 24q47 0 87 -33q39 -34 48 -85z" />
    <glyph glyph-name="c89" unicode="Y" horiz-adv-x="625" 
d="M625 117v13q-17 -26 -43 -57t-64 -59v-16q43 36 68 66q24 29 39 53zM518 -23v761h-53v-773v-29q-2 -143 -4 -207q-2 -68 -6 -120q-3 -53 -15 -112q-13 -58 -33 -108t-46 -81q-27 -31 -58 -31q-43 5 -61 47q-19 42 -19 117q9 120 58 243q24 63 54 112q29 50 58 87
q25 28 42 45q18 19 30 27v15q-78 -66 -138 -166t-93 -240q-8 -29 -13 -66q-6 -37 -6 -72q0 -65 22 -109q21 -44 72 -51q25 2 46 19t37 42t28 50q11 25 25 61q0 2 1 4q19 61 32 119q13 59 22 121q9 63 13 136q4 74 5 159zM467 739v-245v-140q0 -22 -4 -61q-5 -40 -11 -82
q-1 -6 -2 -16q-5 -30 -16 -64t-26 -62q-15 -29 -31 -46q-17 -18 -33 -18q-36 6 -47 33q-12 26 -12 83v408q-1 105 -38 158q-37 52 -119 52q-57 -3 -88 -49q-32 -46 -38 -122q0 -44 5 -80q4 -36 16 -63q11 -28 32 -43q20 -16 50 -16q31 0 50 40q18 40 18 102q0 26 -4 56h-2
q3 -26 3 -50q0 -63 -19 -104t-51 -41q-45 1 -68 50q-23 48 -23 116q0 51 13 96q12 44 34 65q35 33 75 33q43 0 73 -40q30 -41 30 -116l-3 -391q0 -56 9 -93t25 -56q16 -20 36 -27q19 -7 43 -7q23 2 47 29t42 77q16 52 23 88q7 37 11 80v221v245z" />
    <glyph glyph-name="c90" unicode="Z" horiz-adv-x="536" 
d="M394 -30h-11q-33 -35 -63 -73q-32 -38 -68 -86q-65 -91 -103 -182q-39 -91 -41 -161q-2 -22 -2 -45q0 -66 22 -110q21 -43 67 -44q20 1 40 10t38 23t32 30q13 17 20 32q20 26 38 64t33 80q15 41 25 80q10 40 17 72q22 91 22 193q0 61 -8 132q-21 87 -56 122
q-36 34 -97 40q-61 0 -86 -9q-25 -10 -56 -36q-2 -2 -7 -6q-16 -20 -28 -41q-12 -22 -12 -36q0 -15 13 -20q19 0 43 34q24 33 41 80l92 247l36 94q1 4 2 6q12 36 26 74q13 37 28 73q15 35 30 64q15 28 28 42q18 16 36 16q21 0 21 -23q0 -10 -5 -23q-12 -30 -41 -54t-63 -24
q-10 0 -19 2q-22 2 -37 15q-15 12 -28 45q-15 37 -44 55t-90 18q-53 -1 -92 -31q-40 -31 -64 -84q-22 -43 -22 -99q0 -29 6 -55q5 -26 15 -44q28 -53 79 -53q27 0 53 17q23 22 34 54t11 66q0 32 -9 56l-6 -3q8 -27 8 -55q0 -52 -24 -89q-25 -38 -63 -38q-27 0 -46 11t-30 30
q-12 19 -17 43t-5 50t5 51q4 25 10 42q32 73 72 98t96 25q26 -4 38 -16q11 -13 25 -40q13 -26 20 -38q14 -18 44 -29t52 -12q3 0 10 -1h9q51 0 84 32q32 31 39 70q0 38 -31 38q-23 0 -42 -23q-10 -11 -22 -34q-13 -23 -25 -53t-19 -49q-6 -15 -32 -83q-5 -13 -15 -40
l-124 -341q-19 -46 -41 -77q-23 -31 -34 -31q-9 3 -9 15q0 10 8 26q7 15 19 31t26 29t27 20q12 7 34 12q21 5 45 5q38 0 63 -14q43 -26 57 -79q13 -53 13 -136q0 -97 -3 -171q-4 -73 -10 -121t-12 -82q-7 -33 -15 -60q-18 -55 -41 -95q-23 -39 -46 -62t-45 -33t-42 -10
q-8 0 -16 2q-35 12 -51 48q-16 37 -16 90q0 50 12 104q12 55 30 95q16 42 45 91q28 49 64 98q37 51 70 91q32 40 61 71zM536 117v13q-7 -12 -30 -40t-61 -73l2 -5q34 37 56 63q22 27 33 42z" />
    <glyph glyph-name="c91" unicode="[" horiz-adv-x="206" 
d="M187 -109v20h-72v678h70v20h-112v-718h114z" />
    <glyph glyph-name="c92" unicode="\" 
d="M204 1h39l-134 495h-41z" />
    <glyph glyph-name="c93" unicode="]" horiz-adv-x="206" 
d="M29 -109h111v718h-111v-20h71v-678h-71v-20z" />
    <glyph glyph-name="c94" unicode="^" horiz-adv-x="266" 
 />
    <glyph glyph-name="c95" unicode="_" 
d="M281 -121v21h-255v-21h255z" />
    <glyph glyph-name="c96" unicode="`" 
 />
    <glyph glyph-name="c97" unicode="a" horiz-adv-x="301" 
d="M148 87l1 -20l-1 -1q0 -2 -1 -3q-17 -31 -32 -49q-18 -13 -37 -13q-18 0 -35 11q-20 20 -29 42q-10 21 -12 43v15q0 51 22 92q18 28 35 36q16 8 31 8q20 0 32 -10q11 -10 20 -25q4 -7 6 -9v-14q-11 28 -25 40q-15 11 -28 11q-10 0 -15 -4q-7 -4 -10 -11q-4 -6 -13 -30
q-6 -27 -8 -37q-2 -12 -4 -40q0 -2 1 -5q0 -8 1 -20q1 -23 4 -37t15 -33q13 -13 26 -13q20 0 37 27q16 27 19 49zM304 117v14q-5 -18 -28 -71q-2 -4 -9 -20q-13 -17 -21 -23q-9 -6 -20 -6q-15 1 -20 7q-5 5 -7 17q-1 6 -2 11v202h-49v-199l2 -5q7 -18 22 -29q14 -12 50 -12
q19 5 27 11q7 5 18 20q4 7 8 16l3 6q8 19 9 21q2 6 4 11l7 14l2 5z" />
    <glyph glyph-name="c98" unicode="b" horiz-adv-x="243" 
d="M165 73q-3 -7 -7 -16q-7 -20 -17 -31q-10 -12 -34 -15q-55 2 -58 75v586q0 32 9 48t22 16q22 0 41 -30q18 -40 18 -91q0 -115 -90 -308v-11q53 105 75 185q22 79 22 136q0 33 -6 56t-14 38q-20 34 -53 34q-26 0 -48 -22q-22 -23 -25 -58v-588q8 -42 36 -59t59 -17
q21 0 21 4q24 6 34 20q10 13 16 33q3 8 4 10q3 8 5 23q2 14 2 31q0 26 -6 53q-6 26 -20 48q-2 3 -6 7q-5 9 -11 13q-6 3 -21 4q-16 -3 -24 -14q-8 -12 -8 -50q5 -33 19 -47q13 -15 45 -27q21 -6 43 -6q34 0 55 15v12q-8 -9 -24 -15t-35 -6q-24 0 -47 9q-29 16 -38 31
q-10 15 -11 56q0 17 7 26q7 8 19 10q9 0 16 -5q6 -5 15 -16l4 -5q8 -14 14 -42t6 -58q0 -21 -4 -42z" />
    <glyph glyph-name="c99" unicode="c" horiz-adv-x="223" 
d="M107 -1q27 5 38 11q10 5 24 19q1 1 4 3q22 23 50 84v14q-1 -3 -2 -5q-16 -38 -24 -52t-26 -34q-16 -17 -27 -23q-12 -7 -38 -9h-4l-3 -1q-11 0 -20 5q-9 4 -14 10q-12 12 -15 32q-4 19 -6 60v3v5q2 26 4 39q1 13 6 35q10 23 14 30t10 10q5 5 16 5q17 0 34 -14
q11 -9 17 -38l-1 2q-3 7 -8 7h-3q-2 -1 -3 -1q-6 0 -6 -8q0 -4 3 -7q7 -7 13 -7q5 0 9 4q3 3 3 8q0 3 -2 9q-1 6 -1 8q-6 17 -19 32q-11 6 -20 9q-9 2 -22 2q-16 0 -32 -8q-17 -9 -32 -35q-21 -38 -24 -95v-5q3 -29 12 -50q9 -22 31 -41q18 -8 34 -10q17 -3 30 -3z" />
    <glyph glyph-name="c100" unicode="d" horiz-adv-x="302" 
d="M223 13q-15 0 -19 7q-5 6 -6 23q-1 8 -2 13v570h-49v-564l3 -9q7 -24 19 -38t41 -14h5h6q20 8 28 15q8 6 19 24q27 47 34 77v13q-5 -17 -10 -28q-4 -10 -16 -35l-3 -7q-18 -30 -27 -38q-9 -9 -23 -9zM147 85l1 -19q-13 -28 -34 -54q-18 -12 -37 -12q-17 0 -34 10
q-23 22 -33 46t-10 50q0 23 7 46q6 22 17 50q17 26 33 35t32 9q20 0 31 -9q11 -10 20 -25q4 -7 6 -9l1 -14q-11 27 -25 39t-28 12q-10 0 -16 -5q-6 -4 -9 -11q-4 -7 -14 -29q-5 -22 -6 -35q-2 -13 -4 -39v-5q0 -6 1 -19q1 -29 4 -45q3 -15 15 -31q12 -12 25 -12q11 0 21 9
q10 8 18 21q7 12 12 25t6 21z" />
    <glyph glyph-name="c101" unicode="e" horiz-adv-x="204" 
d="M127 8q-12 -4 -36 -4q-27 6 -37 29q-11 22 -11 83q1 68 16 95t47 31q19 0 31 -14q12 -15 12 -35q0 -29 -25 -46l-6 -3q-16 -7 -31 -10q-16 -4 -51 -4l2 -9q40 2 66 11q25 8 38 21q13 24 13 45q0 23 -16 37q-16 13 -34 13q-6 0 -10 -2q-11 0 -25 -4q-15 -4 -31 -18
t-27 -43q-11 -30 -12 -77q6 -48 26 -75t67 -29q8 0 16 1h15q17 7 24 12t18 18q12 16 23 43t15 42v14q-4 -16 -15 -45q-11 -31 -23 -49q-1 -1 -3 -4q-11 -11 -18 -16t-18 -8z" />
    <glyph glyph-name="c102" unicode="f" horiz-adv-x="214" 
d="M38 259q45 50 77 135q31 85 37 179l-1 22q-2 36 -4 60q-3 24 -10 44q-8 20 -23 32q-16 11 -41 11q-37 -10 -51 -41q-15 -31 -21 -96v-578v-634q5 -58 29 -92q23 -33 57 -33q22 0 38 19q15 19 24 52q9 32 14 74t8 95v36q1 21 1 38q0 78 -3 159q-4 82 -13 168q-2 11 -2 14
q-6 42 -17 80t-40 87l-2 2q-17 17 -29 26q-12 8 -28 9v-25q10 -11 28 -17q17 -7 48 -10q27 3 51 13t49 29v13q-28 -22 -51 -31q-23 -10 -48 -15q-30 0 -45 5t-21 13q-7 9 -7 15q0 4 3 4l1 -1h1q17 -7 37 -27l4 -5q23 -34 39 -86q15 -53 19 -91q8 -77 13 -164t5 -164
q0 -69 -4 -126q-5 -57 -14 -99q-6 -39 -22 -59q-16 -19 -35 -19t-32 16t-13 42v690v644q0 28 12 45q12 16 28 16q23 0 40 -31q17 -32 17 -93q0 -4 1 -15v-15q0 -44 -9 -90q-10 -47 -26 -89q-16 -43 -34 -77q-19 -34 -35 -55v-9z" />
    <glyph glyph-name="c103" unicode="g" horiz-adv-x="262" 
d="M192 -4l16 24q10 17 15 26l6 13q27 53 33 71v-13q-5 -11 -17 -38q-12 -24 -22 -41q-4 -7 -8 -15t-11 -20l-10 -16zM146 86l2 -19q-13 -28 -34 -54q-18 -13 -37 -13q-17 0 -34 11q-21 19 -30 41q-9 21 -12 44q0 8 -1 14q1 24 7 46q6 23 17 48q17 26 33 35t31 9q20 0 31 -9
q11 -10 21 -25q4 -8 6 -9l1 -14q-12 28 -26 40q-15 11 -28 11q-9 0 -15 -4t-9 -11q-4 -7 -14 -30q-6 -25 -7 -38q-2 -14 -3 -42q0 -7 1 -19q1 -29 4 -45q3 -15 15 -32q12 -12 24 -12q11 0 21 9q10 8 18 21q8 12 13 25q4 13 5 22zM157 -36v9q-58 -159 -82 -284
q-25 -124 -25 -218q0 -50 6 -88q5 -37 13 -61q12 -29 28 -43q15 -13 31 -13q23 0 42 24t24 58v900h-48v-903q0 -36 -7 -54q-7 -17 -19 -17q-11 0 -24 15q-14 16 -26 43q-15 61 -15 137q0 202 102 495z" />
    <glyph glyph-name="c104" unicode="h" horiz-adv-x="281" 
d="M202 10q-7 1 -9 4q-3 2 -4 7v173q0 28 -14 41q-15 12 -42 12h-8q-5 -1 -9 -1q-17 -2 -36 -28q-20 -27 -33 -66v-14q15 52 35 78q19 25 36 25q19 0 20 -27l-1 -168q0 -15 16 -30q15 -16 38 -16q10 0 21 4l1 1q7 4 13 9q5 5 16 18q8 13 18 36l2 4q11 24 17 39l2 5v14
q-1 -8 -12 -34q-12 -27 -27 -57q-13 -16 -22 -22q-10 -7 -18 -7zM49 307v-11q53 105 75 185q22 79 22 136q0 33 -6 56t-14 38q-19 33 -52 33q-27 0 -49 -22t-25 -58v-665h49v673q0 32 9 48q9 15 23 15q21 0 40 -29q18 -40 18 -91q0 -115 -90 -308z" />
    <glyph glyph-name="c105" unicode="i" horiz-adv-x="155" 
d="M26 353q-12 0 -19 -6q-8 -7 -8 -17t8 -17q7 -8 19 -8q10 0 17 8q7 7 7 17t-7 17q-7 6 -17 6zM78 10q-18 0 -23 8q-6 7 -8 23v3v203h-47v-198v-1q5 -20 17 -33q12 -14 45 -14h5h6q21 6 29 11t17 20q9 16 21 45t15 39v14q-5 -19 -16 -46q-11 -28 -21 -45t-19 -23t-21 -6z
" />
    <glyph glyph-name="c106" unicode="j" horiz-adv-x="219" 
d="M145 8q41 58 74 109l1 13q-24 -38 -62 -93q-8 -11 -13 -18v-11zM108 -22v10q-58 -168 -82 -297q-25 -127 -25 -222q0 -51 6 -88q5 -37 13 -63q23 -51 53 -51q26 0 46 35t26 95v851h-48v-859q0 -53 -9 -80q-9 -26 -24 -26q-21 0 -40 45q-16 63 -16 144q0 203 100 506z
M97 239l-97 -127v11l97 126v-10zM118 360q-12 0 -21 -7q-9 -8 -9 -20q0 -11 10 -19q9 -9 20 -9t19 9q8 8 8 19q0 12 -8 20q-8 7 -19 7z" />
    <glyph glyph-name="c107" unicode="k" horiz-adv-x="269" 
d="M185 8q-7 4 -7 13q0 66 -9 92q-10 25 -45 26h-7l-5 1q-34 0 -34 -17q0 -4 4 -9q9 -5 19 -5q16 0 38 15q21 14 28 27q6 13 9 32q2 11 2 13q0 27 -13 39q-14 12 -40 12h-8q-4 -1 -8 -1q-14 -2 -31 -28t-29 -66v-14q13 52 29 76q16 23 32 23q17 0 28 -23v-13v-1q1 -15 1 -20
q0 -4 -1 -21v-28l-1 -1q-19 -13 -32 -13q-8 0 -17 2q-2 2 -2 4q0 10 27 10q12 0 25 -3v-84q2 -21 11 -33q9 -13 27 -13q2 0 4 1h4q20 5 29 10q8 5 18 20q5 9 14 30q9 22 19 44q4 8 5 11v14q-2 -8 -12 -32q-11 -25 -26 -60q-11 -19 -20 -24q-10 -6 -26 -6zM49 306v-11
q53 105 75 185q22 79 22 136q0 33 -6 56t-14 38q-19 33 -53 33q-26 0 -48 -22t-25 -57v-665h49v672q0 32 9 48q9 15 23 15q21 0 40 -29q18 -40 18 -91q0 -115 -90 -308z" />
    <glyph glyph-name="c108" unicode="l" horiz-adv-x="183" 
d="M105 9q-54 4 -59 77v585q0 32 9 48t23 16q21 0 40 -30q17 -39 17 -89q0 -113 -90 -310v-11q53 104 76 184q22 79 22 136q0 34 -6 58q-7 23 -16 37q-18 34 -51 34q-26 0 -48 -22q-22 -23 -25 -58v-575q9 -52 32 -71q22 -20 51 -20q12 0 27 3q26 4 42 31q9 16 20 46t14 38
v14q-2 -10 -12 -36t-24 -56q-11 -17 -20 -22q-9 -6 -22 -7z" />
    <glyph glyph-name="c109" unicode="m" horiz-adv-x="515" 
d="M437 10q-18 0 -23 10t-5 24v158q-1 3 -3 6q-7 17 -22 28q-16 11 -54 11l-5 -3q-31 -18 -47 -35q-17 -17 -33 -59l7 11q24 38 37 53t36 25h5v0q3 1 4 1q15 0 19 -6t6 -19q0 -7 1 -11v-155q3 -19 17 -33q13 -15 47 -15h6h6q17 5 25 11q8 5 18 20q4 6 9 18q6 12 13 28
q6 15 11 27q3 9 3 11v14q-1 -7 -12 -34q-11 -28 -24 -57q-11 -17 -19 -23q-9 -6 -23 -6zM0 116q5 18 14 49q7 21 10 34q8 25 14 33q6 7 18 7q15 -1 20 -6q4 -5 6 -17l2 -12v-202h47v200l-1 2q-6 19 -20 31t-53 12q-16 -3 -21 -10q-6 -7 -16 -32l-1 -3q-2 -6 -6 -24
q-8 -34 -13 -48v-14zM269 2v200q-1 2 -2 5q-7 18 -22 29t-55 11l-3 -2q-32 -19 -47 -35q-16 -17 -33 -60l1 2q26 44 40 60q13 16 39 27h5v0q3 1 4 1q15 0 20 -6q4 -7 6 -20q0 -7 1 -10v-202h46z" />
    <glyph glyph-name="c110" unicode="n" horiz-adv-x="375" 
d="M0 116q4 12 7 22q2 8 5 18q8 27 12 43q8 25 14 33q6 7 18 7q15 -1 20 -6q4 -5 6 -17l2 -12v-202h47v200l-1 2q-6 19 -20 31t-53 12q-16 -3 -21 -10q-6 -7 -16 -32l-1 -3q-2 -5 -7 -26q-7 -31 -12 -46v-14zM297 10q-18 0 -23 10q-5 9 -5 24v158l-2 4q-7 18 -22 30
q-16 11 -56 11q-1 -1 -4 -2q-31 -19 -47 -36t-32 -59l1 2q26 43 40 60q13 16 38 27h5v0q3 1 4 1q15 0 19 -5q4 -6 6 -18q1 -9 2 -13v-155q2 -18 16 -33q13 -15 47 -15h5h6q18 5 26 11q8 5 19 20q14 24 24 45q9 20 12 39v14q-6 -26 -14 -45q-8 -20 -21 -45q-14 -18 -23 -24
t-21 -6z" />
    <glyph glyph-name="c111" unicode="o" horiz-adv-x="259" 
d="M177 109q0 26 -6 49t-15 44q-15 28 -33 37q-19 8 -34 8q-16 0 -32 -8q-17 -8 -33 -36q-23 -40 -24 -94q0 -6 1 -13q2 -22 10 -42q8 -21 23 -34l1 -1q13 -7 18 -9q5 -3 17 -7q13 -2 23 -2q19 0 43 13q19 21 29 44q9 22 12 51zM72 16q-16 20 -21 41q-5 20 -7 60v6
q2 26 4 39q1 12 6 33q9 23 13 30t11 11q10 6 26 6q9 0 22 -9q13 -10 26 -32q10 -17 15 -41q5 -25 5 -51q-3 -55 -42 -91q-18 -12 -33 -12q-13 0 -25 10zM259 121v7q-27 -17 -50 -17q-17 0 -24 10q-5 26 -9 41q-4 14 -10 26q-2 11 -16 11q-8 0 -14 -8t-6 -26q4 -24 27 -41
q22 -17 52 -17q26 0 50 14z" />
    <glyph glyph-name="c112" unicode="p" 
d="M0 116l50 127v13l-50 -126v-14zM256 10q-14 0 -18 9t-4 25v158q-2 3 -4 8q-7 17 -19 27q-13 10 -45 10l-6 -5q-23 -18 -36 -35t-27 -57q23 45 35 62q11 16 31 27h4v0q3 1 4 1q12 0 16 -5q3 -6 5 -18q1 -9 2 -13v-155q2 -19 13 -33q11 -15 39 -15h4h5q14 4 21 10
q6 6 15 21q4 7 8 19q4 10 9 28l5 15l3 11q3 10 3 11v14q-2 -11 -10 -37q-8 -28 -18 -54q-8 -16 -16 -22q-9 -7 -19 -7zM51 -482h49v813h-49v-813z" />
    <glyph glyph-name="c113" unicode="q" horiz-adv-x="301" 
d="M190 3q43 28 65 50q21 22 46 65v9q-26 -46 -48 -69q-23 -24 -63 -48v-7zM145 -484h45v730h-47zM143 85l2 -19q-14 -30 -37 -54q-16 -12 -35 -12q-17 0 -35 10q-21 21 -30 48q-9 26 -9 57q0 27 6 53t14 43q14 22 30 29q16 6 36 6t31 -9q11 -10 20 -25q4 -7 6 -9l1 -14
q-11 28 -25 40q-15 11 -28 11q-10 0 -18 -5q-4 -3 -7 -8t-8 -18q-2 -3 -7 -14q-5 -24 -6 -35q-1 -12 -2 -41v-3q0 -40 2 -56q2 -17 11 -32q13 -20 29 -20q10 0 21 9q10 8 19 22q8 13 13 26q5 12 6 20z" />
    <glyph glyph-name="c114" unicode="r" horiz-adv-x="268" 
d="M0 116q4 8 9 29q3 16 12 62q5 21 8 36l-5 1q-4 -21 -9 -46q-10 -50 -15 -68v-14zM10 246q6 -5 16 -6q11 -1 35 -2q23 -1 34 -2v-185q3 -20 26 -35q22 -16 48 -16q29 0 48 20q37 52 51 96v14q-6 -22 -10 -32q-4 -9 -11 -20q-11 -25 -32 -52q-19 -21 -40 -21q-23 0 -30 19
v186q0 26 -14 28q-11 3 -50 3q-27 1 -40 2q-12 1 -12 5q0 1 1 4q2 6 2 9q0 13 -14 15q-14 0 -14 -15q0 -8 6 -15z" />
    <glyph glyph-name="c115" unicode="s" horiz-adv-x="254" 
d="M254 128v-7q-24 -31 -50 -49q-26 -19 -73 -36l9 10q41 14 65 31t49 51zM0 113l34 150q16 -21 28 -35q7 -9 16 -19q16 -22 25 -54t9 -65q0 -27 -6 -50q-5 -15 -17 -22q-12 -8 -26 -8q-16 0 -28 8q-13 8 -13 19q0 4 2 7q5 -3 10 -3q10 0 11 16q-2 22 -17 22q-11 0 -17 -14
q0 -2 -1 -5v-6q0 -20 14 -37t39 -17q9 0 19 3q37 13 56 42q18 28 18 62q0 39 -20 68q-11 17 -20 26q-11 8 -24 17q-21 13 -33 27q-6 10 -8 18q-3 8 -5 24h-11l-35 -155v-19z" />
    <glyph glyph-name="c116" unicode="t" horiz-adv-x="156" 
d="M79 10q-17 2 -22 9q-6 7 -8 24q-1 11 -2 14v439h-46v-433q1 -2 3 -10q7 -24 19 -38t42 -14h5h5q19 5 27 10q7 5 17 20q6 9 15 30q8 19 16 41l6 14v14q-4 -15 -14 -40q-11 -27 -23 -52q-11 -17 -19 -22q-9 -6 -21 -6zM104 332v8h-55v-8h55z" />
    <glyph glyph-name="c117" unicode="u" horiz-adv-x="295" 
d="M215 10q-16 0 -20 6q-4 5 -6 19q0 6 -1 9v202h-49v-197q1 -2 2 -6q7 -19 19 -30q12 -12 41 -12h5h6q20 5 27 10t18 21q14 20 25 45q10 25 13 39v14q-5 -20 -13 -41q-9 -21 -25 -50q-10 -16 -19 -22q-10 -7 -23 -7zM0 246v-197q1 -1 3 -6q7 -19 23 -30q15 -12 56 -12
q1 1 3 2q29 18 46 36q16 17 32 59l-3 -5q-25 -43 -38 -58q-14 -16 -38 -25q-3 0 -7 -1h-5q-13 0 -16 6q-4 5 -5 16q-1 7 -2 13v202h-49z" />
    <glyph glyph-name="c118" unicode="v" horiz-adv-x="290" 
d="M290 121v6q-7 -6 -18 -6q-8 0 -18 3q-27 5 -42 18q-15 12 -29 36q-16 33 -16 48q0 12 11 17q17 0 31 -26q13 -27 13 -67q0 -41 -16 -85q-8 -23 -25 -47q-3 -2 -6 -6q-6 -6 -11 -6q-1 0 -3 1h-4q-14 0 -20 15q-7 15 -7 34v146q0 1 -1 4q-7 18 -21 30q-14 11 -52 11
q-16 -3 -21 -9q-6 -7 -14 -29l-3 -7q-2 -6 -6 -26q-7 -32 -12 -46v-13q6 21 12 46l9 36q8 25 15 33q6 7 18 7q16 -1 21 -6q5 -6 7 -18q2 -9 2 -11v-147q0 -18 12 -35q11 -17 46 -23h2q18 2 24 4t16 11q2 3 3 5q16 26 23 44q16 46 16 87q0 43 -14 70q-15 26 -34 26
q-14 -1 -14 -21q0 -23 21 -62l1 -1q13 -15 27 -26q13 -11 35 -16q14 -3 23 -3q10 0 19 4z" />
    <glyph glyph-name="c119" unicode="w" horiz-adv-x="401" 
d="M290 243q17 0 31 -26q14 -27 14 -67q0 -42 -16 -85q-7 -17 -12 -27t-13 -20l-5 -5q-6 -7 -13 -7q-1 0 -3 1h-4q-14 0 -18 13q-5 12 -8 33v3v191h-47v-190v-3q3 -19 14 -34t45 -21h2q18 2 25 4q6 2 15 11q13 18 23 49q18 48 18 92q0 40 -14 66q-15 25 -34 25
q-15 -1 -15 -20q0 -23 23 -63l1 -1q13 -15 27 -26q13 -11 35 -16q13 -3 22 -3q10 0 18 4v6q-5 -6 -16 -6q-8 0 -20 3q-25 5 -40 18q-16 13 -29 36q-15 33 -15 49q0 11 9 16zM201 39q-2 -6 -11 -18l-5 -7q-10 -9 -16 -11q-7 -2 -24 -4h-2q-34 6 -45 21t-14 34v3v147l-2 12
q-2 12 -6 17q-5 5 -20 6q-12 0 -18 -7q-6 -8 -14 -33q-4 -18 -13 -45q-6 -20 -11 -37v13q5 14 13 48q4 18 6 24l1 3q10 24 16 32q5 7 21 10q40 0 54 -12q14 -13 19 -32v-1v-146q2 -20 9 -34q6 -15 20 -15q7 1 10 2t8 5q4 3 6 4q8 10 14 22q1 1 1 3l1 1z" />
    <glyph glyph-name="c120" unicode="x" horiz-adv-x="350" 
d="M0 116q34 122 84 122q18 -2 28 -14q12 -10 15 -30q3 -21 4 -64v-2q-1 -28 -2 -40q-2 -12 -8 -35l-6 -13q-6 -14 -9 -19t-8 -10t-17 -5q-16 0 -32 13q-14 16 -18 40q0 -1 1 -2q2 -4 5 -5q2 -2 10 -2q5 2 5 8q0 4 -3 8q-4 8 -13 8q-5 0 -10 -4q-3 -3 -3 -8q0 -4 2 -11
q1 -6 1 -7q4 -9 8 -16t12 -17q20 -11 42 -11q15 0 32 9t32 35q10 19 16 41t9 53v7q-3 28 -13 50t-32 39q-20 12 -44 12q-21 0 -33 -9q-9 -9 -14 -15q-6 -7 -12 -17q-6 -11 -12 -28q-7 -18 -17 -47v-14zM254 7q-21 1 -30 4q-10 3 -16 10q-12 12 -15 33q-4 20 -5 62v3
q1 27 2 40q1 12 6 36l7 15q6 12 10 17q3 5 7 8q8 5 17 5q15 0 32 -14q13 -9 20 -38l-1 2q-4 7 -10 7h-2q-3 -1 -4 -1q-5 0 -5 -8q0 -3 2 -7q7 -7 14 -7q5 0 9 4q4 3 4 8q0 2 -2 9q-2 6 -2 8q-3 14 -20 32q-18 11 -40 11q-16 0 -33 -8q-17 -9 -34 -35q-10 -19 -14 -41
q-5 -23 -6 -54v-5q2 -54 40 -91q24 -11 53 -11q15 0 26 3q14 4 23 10q8 6 20 20q14 20 28 48q13 27 15 36v12q-9 -35 -43 -90q-12 -16 -24 -23q-12 -8 -29 -10z" />
    <glyph glyph-name="c121" unicode="y" horiz-adv-x="307" 
d="M130 202q-1 4 -2 4q-6 18 -20 30q-14 11 -51 11q-16 -3 -21 -9q-6 -7 -14 -29l-3 -7q-2 -6 -6 -24q-8 -34 -13 -48v-14q9 29 13 47l9 36q8 25 15 33q6 7 18 7q16 -1 21 -6q4 -6 6 -18q1 -7 2 -11v-147q0 -2 1 -4q4 -18 15 -33t43 -21q26 2 34 11q8 8 19 39q2 4 5 14
q2 4 2 5l8 48l-8 -30q-10 -40 -19 -59q-9 -20 -25 -20q-14 0 -20 15q-7 14 -9 34v146zM248 -18q14 30 27 57q11 27 27 65l5 12v14q-4 -16 -22 -59q-20 -44 -37 -78v-11zM219 -46l-2 11q-58 -157 -82 -281q-25 -123 -25 -216q0 -50 6 -87q6 -38 14 -58q22 -56 53 -56
q25 0 44 36q18 37 21 94v851h-46v-860q0 -4 1 -15v-12q0 -40 -7 -60q-8 -19 -21 -19q-23 0 -44 50q-15 61 -15 139q0 204 103 483z" />
    <glyph glyph-name="c122" unicode="z" horiz-adv-x="295" 
d="M196 -25q-15 -45 -46 -111l-2 -5l-1 -3q-38 -101 -59 -185q-22 -83 -23 -187v-11q-1 -9 -1 -14q0 -24 3 -53q3 -28 9 -55q6 -26 14 -45q7 -18 15 -24q10 -8 21 -8q27 0 47 52q19 52 19 157v347v142q0 49 -14 72t-36 23q-23 0 -43 -20q-21 -21 -24 -47l-12 1l83 234h-4
q-2 -1 -6 -1q-11 0 -21 -1q-9 -1 -14 -3h-7h-5q-28 0 -35 9q-8 9 -9 24v6q6 16 9 16q2 0 5 -6q0 -1 1 -3q0 -17 -10 -43q-11 -28 -35 -82q-2 -4 -3 -7q-7 -15 -12 -28v14q24 48 36 78q11 29 18 59q4 -13 17 -21q12 -8 33 -8q26 0 61 13l-74 -215q12 19 29 31q16 11 33 11
q23 0 44 -24q20 -25 34 -78q10 -76 10 -147q0 -163 -7 -266q-7 -101 -24 -170q-19 -62 -37 -94t-44 -32q-11 0 -23 6q-22 16 -35 66q-14 50 -14 129q0 59 8 126q7 41 14 70q6 29 14 56q7 27 17 55q9 27 29 79q9 21 27 64q8 20 14 33q7 17 15 36zM219 8q18 17 42 50
q23 32 34 58v14q-18 -38 -38 -69q-21 -31 -40 -50z" />
    <glyph glyph-name="c123" unicode="{" horiz-adv-x="290" 
d="M86 254q39 21 54 66q14 45 14 105q0 22 -3 71q-2 29 -2 45q0 14 2 21q8 15 20 22t32 7h7q7 -1 9 -1v15q-28 11 -41 11q-19 0 -40 -15q-22 -14 -30 -52q-8 -39 -8 -95q0 -29 2 -79q1 -43 1 -56q-6 -28 -28 -44q-23 -16 -54 -21q30 -2 53 -19q23 -18 29 -47q0 -13 -1 -56
q-2 -51 -2 -79q0 -56 8 -95q8 -38 30 -52q20 -14 38 -14q13 0 41 11l2 1v15h-10q-7 -1 -9 -1q-20 0 -31 6q-12 7 -18 23q-2 7 -2 22q0 16 2 45q3 49 3 71q0 60 -14 105q-15 44 -54 64z" />
    <glyph glyph-name="c124" unicode="|" horiz-adv-x="145" 
d="M49 -112h42v728h-42v-728z" />
    <glyph glyph-name="c125" unicode="}" horiz-adv-x="295" 
d="M185 253q-39 -20 -53 -64q-15 -45 -15 -105q0 -22 3 -71q2 -32 2 -45q0 -15 -2 -22q-10 -29 -50 -29q-2 0 -8 1h-1h-10v-15q31 -12 44 -12q18 0 37 14q23 14 32 55t9 101q0 23 -2 68q-1 39 -1 58q4 29 27 47q22 17 51 19q-30 5 -52 22q-22 16 -26 43q0 19 1 58q2 45 2 68
q0 60 -9 101q-9 40 -32 55q-20 15 -39 15q-14 0 -42 -11v-15q2 0 9 1h7q39 0 53 -29q2 -7 2 -21q0 -13 -2 -45q-3 -49 -3 -71q0 -60 15 -105q14 -45 53 -66z" />
    <glyph glyph-name="c126" unicode="~" horiz-adv-x="305" 
d="M262 148q-4 -13 -18 -21q-15 -8 -34 -8q-10 1 -32 17q-16 12 -28 19q-13 6 -29 9q-31 0 -50 -15t-29 -40v-9q3 2 10 11q14 18 29 29q14 11 37 11q9 0 29 -20q17 -17 31 -26q14 -10 32 -10q19 4 31 13q12 8 24 29z" />
    <glyph glyph-name="c127" horiz-adv-x="267" 
d="M-1 0h266v266h-266v-266zM4 4v258h256v-258h-256z" />
    <glyph glyph-name="c128" horiz-adv-x="267" 
d="M-1 0h266v266h-266v-266zM4 4v258h256v-258h-256z" />
    <glyph glyph-name="c129" horiz-adv-x="267" 
d="M-1 0h266v266h-266v-266zM4 4v258h256v-258h-256z" />
    <glyph glyph-name="c130" 
 />
    <glyph glyph-name="c131" 
 />
    <glyph glyph-name="c132" 
 />
    <glyph glyph-name="c133" unicode="&#x85;" 
 />
    <glyph glyph-name="c134" 
 />
    <glyph glyph-name="c135" 
 />
    <glyph glyph-name="c136" 
d="M112 343l82 -45l-80 61l-81 -61z" />
    <glyph glyph-name="c137" horiz-adv-x="748" 
d="M424 96q0 41 -25 68q-25 26 -69 26t-69 -26q-25 -27 -25 -69q0 -41 25 -68t69 -27t69 28q25 27 25 68zM412 97q0 -30 -21 -57q-22 -27 -61 -29q-27 5 -40 30t-13 54q0 31 12 56q12 24 41 29q38 0 60 -26q22 -27 22 -57zM21 -3l409 486l-17 14l-409 -486zM668 97
q0 -30 -22 -57t-61 -29q-28 5 -41 30t-13 54q0 30 13 55q12 25 41 30q39 0 61 -26q22 -27 22 -57zM680 96q0 41 -25 68q-26 26 -70 26t-69 -26q-25 -27 -25 -69q0 -41 25 -68t69 -27t70 28q25 27 25 68zM194 401q0 41 -26 68t-70 27q-43 0 -68 -27q-26 -27 -26 -69
q0 -40 26 -67q25 -28 68 -28q44 0 70 28q26 27 26 68zM183 401q0 -31 -23 -57t-63 -27q-26 3 -38 29q-13 25 -13 55q0 31 12 56q11 24 39 27q40 0 63 -26t23 -57z" />
    <glyph glyph-name="c138" 
 />
    <glyph glyph-name="c139" 
 />
    <glyph glyph-name="c140" 
 />
    <glyph glyph-name="c141" horiz-adv-x="267" 
d="M-1 0h266v266h-266v-266zM4 4v258h256v-258h-256z" />
    <glyph glyph-name="c142" horiz-adv-x="267" 
d="M-1 0h266v266h-266v-266zM4 4v258h256v-258h-256z" />
    <glyph glyph-name="c143" horiz-adv-x="267" 
d="M-1 0h266v266h-266v-266zM4 4v258h256v-258h-256z" />
    <glyph glyph-name="c144" horiz-adv-x="267" 
d="M-1 0h266v266h-266v-266zM4 4v258h256v-258h-256z" />
    <glyph glyph-name="c145" 
 />
    <glyph glyph-name="c146" horiz-adv-x="223" 
d="M136 627l-49 -1q2 -15 2 -27q0 -31 -20 -62q0 -7 8 -7q10 0 20 9q19 11 31 29q11 17 11 37q0 11 -3 22z" />
    <glyph glyph-name="c147" 
 />
    <glyph glyph-name="c148" 
 />
    <glyph glyph-name="c149" horiz-adv-x="105" 
d="M51 51q-26 0 -26 -25t26 -25q11 0 19 7t8 18q0 25 -27 25z" />
    <glyph glyph-name="c150" 
 />
    <glyph glyph-name="c151" 
 />
    <glyph glyph-name="c152" horiz-adv-x="307" 
d="M262 148q-4 -13 -18 -21q-15 -8 -34 -8q-10 1 -32 17q-16 12 -28 19q-13 6 -29 9q-31 0 -50 -15t-29 -40v-9q3 2 10 11q14 18 29 29q14 11 37 11q9 0 29 -20q17 -17 31 -26q14 -10 32 -10q19 4 31 13q12 8 24 29z" />
    <glyph glyph-name="c153" 
 />
    <glyph glyph-name="c154" 
 />
    <glyph glyph-name="c155" 
 />
    <glyph glyph-name="c156" horiz-adv-x="376" 
d="M301 8q-11 -4 -37 -4q-25 6 -36 29q-11 22 -11 83q1 67 17 95q16 27 47 31q19 0 31 -14q12 -15 12 -35q0 -29 -27 -46l-3 -2q-16 -8 -32 -11q-16 -4 -52 -4l1 -9q41 2 67 11q26 8 39 21q12 24 12 44q0 24 -16 38q-16 13 -34 13q-6 0 -10 -2q-12 0 -26 -4t-29 -18
q-16 -14 -27 -43q-12 -30 -13 -77q10 -52 28 -77q17 -25 65 -27q7 0 17 1h13q18 7 26 12t18 18q12 16 24 47q11 30 11 38v14q-2 -15 -12 -45t-23 -49q-11 -13 -19 -19q-9 -6 -21 -9zM174 115q0 4 1 14v10q0 17 -2 28q-3 10 -8 21q-3 11 -16 11q-9 0 -15 -8t-6 -26
q3 -33 46 -50zM70 16q-15 20 -20 42q-5 21 -7 59q1 27 3 41q1 13 7 37q8 23 12 30q3 7 10 11q14 6 27 6q10 0 23 -9q12 -9 26 -32q9 -17 14 -42t5 -50q-3 -55 -40 -91q-18 -12 -33 -12q-14 0 -27 10zM173 109q0 52 -18 93q-16 28 -34 37q-19 8 -34 8t-32 -8t-34 -36
q-22 -42 -22 -94v-13q2 -22 10 -42q8 -21 23 -34q3 -2 7 -4q9 -6 14 -8q4 -2 17 -5q12 -2 21 -2q19 0 41 13q21 21 31 43q9 22 10 52z" />
    <glyph glyph-name="c157" horiz-adv-x="267" 
d="M-1 0h266v266h-266v-266zM4 4v258h256v-258h-256z" />
    <glyph glyph-name="c158" horiz-adv-x="267" 
d="M-1 0h266v266h-266v-266zM4 4v258h256v-258h-256z" />
    <glyph glyph-name="c159" 
 />
    <glyph glyph-name="c160" unicode="&#xa0;" 
 />
    <glyph glyph-name="c161" unicode="&#xa1;" 
 />
    <glyph glyph-name="c162" unicode="&#xa2;" 
 />
    <glyph glyph-name="c163" unicode="&#xa3;" horiz-adv-x="354" 
d="M194 264q20 -6 38 -6q35 0 64 23l-2 4q-25 -14 -45 -14q-16 0 -41 13l-11 6l-4 2q0 -28 1 -28zM161 272q-10 2 -18 2q-19 0 -35 -9t-43 -32h-7q22 19 37 32q13 11 24 18q10 7 20 11q10 3 24 5q-1 -11 -1 -22q0 -5 -1 -5zM354 433h-4q0 10 -4 22q-15 32 -49 32
q-13 0 -23 -2t-22 -9q-20 -14 -32 -31t-18 -41q-6 -29 -8 -98q0 -8 -1 -29v-23v-132q0 -29 -9 -54q-10 -25 -35 -41q-14 -13 -34 -19q-20 -7 -46 -9q-25 1 -43 10t-20 19q3 27 58 27q1 0 8 -1h10q14 -1 35 -6q22 -6 51 -15q37 -12 61 -18t42 -6h8q4 1 7 1q28 13 43 40
q15 26 25 54v1v-12q-15 -40 -34 -63q-19 -24 -45 -29q-11 -2 -23 -2q-29 0 -59 9q-31 9 -62 23q-17 7 -37 12q-21 4 -40 4q-18 0 -30 -5t-13 -15q3 -11 19 -16q15 -5 39 -8q32 3 50 11t30 25q8 15 10 62q2 48 2 138q0 40 3 71q2 30 8 53q18 61 50 96q31 34 74 34l5 -1h6
q26 -7 37 -22q10 -16 10 -37z" />
    <glyph glyph-name="c164" unicode="&#xa4;" 
 />
    <glyph glyph-name="c165" unicode="&#xa5;" 
 />
    <glyph glyph-name="c166" unicode="&#xa6;" horiz-adv-x="132" 
d="M91 94h-42v-206h42v206zM91 387h-42v-204h42v204z" />
    <glyph glyph-name="c167" unicode="&#xa7;" 
d="M185 -227q-12 0 -27 3q-16 4 -34 17t-33 39q-16 26 -22 67l-9 -3q11 -70 49 -103q37 -32 85 -32q14 0 29 3q28 10 44 37q15 27 15 61q0 43 -24 78q-9 12 -23 35q-24 39 -50 69q-26 29 -78 63q-46 42 -46 75q0 37 55 68l-2 10q-49 -21 -69 -49q-20 -29 -20 -71v-10
q1 -8 1 -11q10 -29 37 -51q28 -23 76 -54q43 -26 67 -45t37 -43q7 -17 7 -39q0 -40 -19 -77q-20 -36 -46 -37zM143 485q11 0 27 -4t35 -16q18 -13 33 -38q15 -26 21 -66h10q-10 68 -47 101t-83 33q-17 0 -33 -4q-28 -9 -43 -36q-16 -28 -16 -63q0 -40 20 -73q2 -3 12 -17
q26 -41 55 -74t86 -77q48 -42 48 -76q0 -36 -57 -67l4 -9q48 21 68 50t20 68v10q-1 7 -1 10q-9 29 -29 48q-21 19 -63 45t-70 49q-29 23 -54 60q-11 18 -11 43q0 36 22 69q21 32 46 34z" />
    <glyph glyph-name="c168" unicode="&#xa8;" 
 />
    <glyph glyph-name="c169" unicode="&#xa9;" 
 />
    <glyph glyph-name="c170" unicode="&#xaa;" 
 />
    <glyph glyph-name="c171" unicode="&#xab;" horiz-adv-x="421" 
d="M147 260h32q-19 57 -47 87q-29 30 -83 42q11 3 26 11t32 20q18 12 36 32q17 19 28 43h-8q-26 -37 -72 -67q-47 -31 -87 -43q24 -7 48 -20t44 -30q43 -37 51 -75zM318 260h32q-19 57 -47 87q-29 30 -83 42q11 3 26 11t32 20q18 12 36 32q17 19 28 43h-8q-26 -37 -72 -67
q-47 -31 -87 -43q24 -7 48 -20t44 -30q43 -37 51 -75z" />
    <glyph glyph-name="c172" unicode="&#xac;" 
 />
    <glyph glyph-name="c173" unicode="&#xad;" 
d="M55 149h199v22h-199v-22z" />
    <glyph glyph-name="c174" unicode="&#xae;" 
 />
    <glyph glyph-name="c175" unicode="&#xaf;" 
 />
    <glyph glyph-name="c176" unicode="&#xb0;" horiz-adv-x="212" 
d="M35 376q0 -34 21 -53q21 -20 45 -20h5v0q4 1 5 1q56 3 56 69q-2 30 -20 50q-19 20 -40 20q-29 0 -50 -18q-22 -18 -22 -49zM75 374q0 26 11 42q10 15 29 15q15 -2 29 -18q13 -17 15 -40q0 -25 -11 -40q-12 -16 -38 -19q-18 0 -26 18q-9 17 -9 42z" />
    <glyph glyph-name="c177" unicode="&#xb1;" 
d="M55 144h199v24h-199v-24zM162 78v151h-26v-151h26zM55 27h199v22h-199v-22z" />
    <glyph glyph-name="c178" unicode="&#xb2;" horiz-adv-x="220" 
d="M106 575l-3 -1q0 -33 -11 -46t-40 -13q-19 0 -31 15q-13 14 -13 33q0 14 7 27q17 24 49 34q6 0 17 1t14 1q33 0 46 -22q7 -19 7 -35q0 -14 -7 -36q-4 -14 -16 -25q-13 -11 -37 -27q-40 -26 -57 -45q-10 -10 -18 -22q-9 -13 -11 -27l7 1q2 17 33 17q16 0 41 -5q9 0 31 -6
q23 -6 33 -6q7 0 13 2q12 5 21 19q9 13 9 27q-9 -30 -28 -30q-6 0 -19 3q-5 1 -9 2q-23 6 -39 8q-15 2 -26 2q-8 0 -23 -2l-6 -1l-5 -3l-3 -1q-10 -5 -19 -12q8 15 17 25q8 9 24 23q11 8 31 22q21 13 29 20q12 11 30 26q16 13 22 19q13 15 13 37q0 3 -1 5v3q-4 14 -12 25
q-9 11 -20 15q-24 12 -51 12q-14 0 -38 -5q-4 -1 -6 -1q-15 -6 -28 -18q-14 -13 -18 -27q-4 -11 -4 -22t4 -17q5 -16 21 -26q15 -10 36 -10q24 0 36 14q11 13 11 32q0 11 -3 21z" />
    <glyph glyph-name="c179" unicode="&#xb3;" horiz-adv-x="220" 
d="M87 566q0 -17 -7 -23q-7 -7 -24 -8q-35 2 -35 31q0 19 20 30q19 10 48 10h9q5 -1 9 -1q20 -5 30 -20q9 -16 9 -37q0 -19 -7 -40q-1 -20 -30 -32q-15 -6 -33 -6q-27 0 -27 10q0 5 7 8q7 2 18 2q18 0 33 -4q13 -5 18 -11t11 -17l2 -3q2 -15 2 -33v-14q-1 -7 -1 -10
q-1 -19 -8 -34t-22 -21q-18 -6 -39 -6q-2 0 -7 1h-8q-40 6 -51 34q15 2 15 9q0 6 -9 6q-7 -1 -7 -11q0 -13 8 -21q22 -21 57 -21q28 0 58 13q23 9 34 30q11 20 11 40q0 1 -1 4v4q-2 20 -20 40q-19 20 -43 25q-19 2 -31 2q-29 0 -30 -12q0 -6 9 -9t22 -3q19 0 32 5
q29 13 47 35q17 21 17 42q-2 25 -20 40q-19 14 -61 18q-72 0 -74 -43q0 -17 13 -24q12 -8 27 -8q10 0 14 2q18 8 18 25q0 1 -1 3v3h-2z" />
    <glyph glyph-name="c180" unicode="&#xb4;" 
 />
    <glyph glyph-name="c181" unicode="&#xb5;" 
d="M50 13q5 -4 15 -8q9 -5 19 -5q20 5 41 29t38 69q-4 -6 -6 -10q-25 -42 -39 -58q-14 -17 -36 -22q-14 1 -23 10q-9 8 -10 25v203h-49v-200v-283h50v250zM215 8q-16 1 -20 7q-4 5 -6 19q-1 6 -1 9v203h-49v-200v0q1 -3 2 -5q8 -18 22 -29t49 -11q20 5 27 10t18 21
q14 20 25 45t13 40v14q-5 -22 -13 -43q-9 -21 -25 -49q-10 -18 -19 -24q-10 -7 -23 -7z" />
    <glyph glyph-name="c182" unicode="&#xb6;" 
d="M106 2h42v441h58v-441h43v441h39v45h-164q-58 0 -92 -29q-32 -29 -32 -80q0 -45 29 -74q31 -29 77 -32v-271z" />
    <glyph glyph-name="c183" unicode="&#xb7;" 
 />
    <glyph glyph-name="c184" unicode="&#xb8;" 
 />
    <glyph glyph-name="c185" unicode="&#xb9;" horiz-adv-x="189" 
d="M10 524l50 70v-247h27v260h-24l-56 -83h3z" />
    <glyph glyph-name="c186" unicode="&#xba;" 
 />
    <glyph glyph-name="c187" unicode="&#xbb;" horiz-adv-x="446" 
d="M299 260q8 38 51 75q20 17 44 30t48 20q-40 12 -86 43q-47 30 -73 67h-8q11 -24 29 -43q17 -20 35 -32q18 -13 33 -20q15 -8 25 -11q-53 -12 -82 -42t-48 -87h32zM128 260q8 38 51 75q20 17 44 30t48 20q-40 12 -86 43q-47 30 -73 67h-8q11 -24 29 -43q17 -20 35 -32
q18 -13 33 -20q15 -8 25 -11q-53 -12 -82 -42t-48 -87h32z" />
    <glyph glyph-name="c188" unicode="&#xbc;" horiz-adv-x="504" 
d="M402 52h-120q-11 0 -11 -3q0 -4 9 -6h2q8 2 14 7q10 6 24 25q13 19 25 44q11 26 19 51q7 26 7 45h37q-7 -24 -18 -50q-12 -27 -26 -51t-28 -43q-15 -20 -26 -28q-7 -6 -11 -7q-5 -1 -19 -2h-1q-20 2 -20 15t24 14h119v-11zM435 107h-34v-106h34v106zM24 426l71 49v-180
h40v195h-33l-91 -64h13zM21 -3l409 486l-17 14l-409 -486z" />
    <glyph glyph-name="c189" unicode="&#xbd;" horiz-adv-x="504" 
d="M24 426l71 49v-180h40v195h-33l-91 -64h13zM363 188l-3 -1q0 -33 -11 -46t-40 -13q-19 0 -31 15q-13 14 -13 33q0 14 7 27q17 24 49 34q6 0 17 1t14 1q33 0 46 -22q7 -19 7 -35q0 -14 -7 -36q-4 -14 -16 -25q-13 -11 -37 -27q-40 -26 -57 -45q-10 -10 -18 -22
q-9 -13 -11 -27l7 1q2 17 33 17q16 0 41 -5q9 0 31 -6q23 -6 33 -6q7 0 13 2q12 5 21 19q9 13 9 27q-9 -30 -28 -30q-6 0 -19 3q-5 1 -9 2q-23 6 -39 8q-15 2 -26 2q-8 0 -23 -2l-6 -1l-5 -3l-3 -1q-10 -5 -19 -12q8 15 17 25q8 9 24 23q11 8 31 22q21 13 29 20q12 11 30 26
q16 13 22 19q13 15 13 37q0 3 -1 5v3q-4 14 -12 25q-9 11 -20 15q-24 12 -51 12q-14 0 -38 -5q-4 -1 -6 -1q-15 -6 -28 -18q-14 -13 -18 -27q-4 -11 -4 -22t4 -17q5 -16 21 -26q15 -10 36 -10q24 0 36 14q11 13 11 32q0 11 -3 21zM21 -3l409 486l-17 14l-409 -486z" />
    <glyph glyph-name="c190" unicode="&#xbe;" horiz-adv-x="502" 
d="M402 52h-120q-11 0 -11 -3q0 -4 9 -6h2q8 2 14 7q10 6 24 25q13 19 25 44q11 26 19 51q7 26 7 45h37q-7 -24 -18 -50q-12 -27 -26 -51t-28 -43q-15 -20 -26 -28q-7 -6 -11 -7q-5 -1 -19 -2h-1q-20 2 -20 15t24 14h119v-11zM435 107h-34v-106h34v106zM87 460h-5
q0 -19 -26 -22q-19 3 -26 7t-9 14q3 13 20 22q17 8 42 8h10q6 -1 10 -1q21 -3 30 -14q9 -12 9 -29q0 -14 -5 -29q-8 -17 -30 -22q-15 -6 -35 -6q-23 0 -24 7q1 7 26 7q3 0 16 -1h2q9 -1 12 -1q14 -3 20 -9q5 -6 8 -16q6 -14 6 -32l-1 -5v-4q-4 -17 -10 -26t-20 -15
q-22 -6 -52 -6q-44 8 -47 25q11 1 11 6q0 4 -9 4q-7 0 -7 -7q0 -8 8 -15q22 -16 58 -16q26 0 52 9q24 8 34 25q10 16 10 35q-1 16 -18 31q-18 15 -42 19q-16 4 -31 4q-31 0 -31 -12q2 -12 29 -12q21 0 35 7q28 8 44 25t16 32q-2 20 -20 33q-18 12 -57 14q-34 -1 -53 -10
q-19 -10 -19 -25q0 -13 13 -18q13 -6 29 -6q2 0 7 1h3q17 6 17 24zM21 -3l409 486l-17 14l-409 -486z" />
    <glyph glyph-name="c191" unicode="&#xbf;" 
 />
    <glyph glyph-name="c192" unicode="&#xc0;" horiz-adv-x="715" 
d="M486 122l6 4q-10 39 -10 61q0 25 14 61q13 25 33 39q19 13 41 13q34 0 60 -34q23 -36 23 -91q0 -34 -9 -66q-10 -33 -27 -55q-14 -24 -40 -36q-27 -13 -57 -13q-38 0 -67 18q-63 51 -63 207v322q-3 99 -18 143q-16 44 -46 46q-16 -2 -23 -17t-18 -57q-9 -35 -11 -43
q-3 -25 -12 -80q-10 -66 -15 -104q-1 -5 -3 -35q-5 -70 -11 -127q-6 -61 -17 -133q-13 -48 -27 -76t-36 -43q-13 -9 -25 -12q-12 -4 -33 -8q-2 0 -8 -1q-59 0 -77 47q17 12 17 23t-9 11q-7 0 -12 -8t-5 -24q6 -23 30 -38q23 -15 55 -15q30 0 61 14q20 15 29 26q8 10 19 31
q7 15 13 28q5 11 8 23q5 18 13 68q5 29 13 126q6 59 13 130q6 57 15 109t19 94q10 43 18 66q7 11 15 11q7 0 13 -10q6 -11 6 -23v-420q0 -51 12 -112t35 -98q35 -37 62 -50t79 -14q56 9 82 36t42 86q3 25 3 47q0 59 -23 101q-13 17 -29 26q-17 9 -35 9q-41 0 -73 -46
q-21 -33 -21 -74q0 -29 11 -63zM577 418q-17 -27 -71 -46q-20 -4 -78 -4q-37 0 -106 2q-73 1 -98 1h-29q-11 -1 -19 -1q-35 0 -67 -23t-50 -51q5 4 17 15q13 11 22 19q10 7 27 12q31 6 110 6h36q4 0 30 -1h70q77 0 118 4q26 6 44 17t28 22q9 11 12 18q3 6 4 10zM715 117v13
q-3 -9 -14 -20q-11 -12 -25 -24t-29 -23t-24 -16l-11 -10q8 3 22 11t30 20q17 13 30 25t21 24zM210 888q0 -21 14 -39t37 -31q22 -14 48 -23q25 -10 51 -17q5 0 15 -1h11q24 0 24 11q-9 6 -32 16q-40 17 -61 34q-22 17 -22 50h-85z" />
    <glyph glyph-name="c193" unicode="&#xc1;" 
 />
    <glyph glyph-name="c194" unicode="&#xc2;" horiz-adv-x="711" 
d="M312 843l132 -63l-132 106l-113 -113zM711 117v13q-4 -8 -14 -20q-11 -12 -26 -24q-14 -12 -28 -23q-13 -10 -23 -15l-11 -11q8 2 22 10q13 8 28 20t29 25t23 25zM574 419q-9 -14 -26 -24q-17 -11 -45 -22q-20 -4 -78 -4q-36 0 -105 2q-72 1 -98 1h-28q-11 -1 -19 -1
q-35 0 -67 -23q-32 -24 -49 -52q5 4 15 14q13 13 23 21q10 7 27 12q31 6 109 6h36q4 0 30 -1h70q77 0 117 4q26 6 44 17t28 22q9 11 12 18q3 6 4 10zM483 122l6 5q-10 39 -10 60q0 25 14 62q13 25 33 39q19 13 40 13q34 0 61 -34q22 -36 22 -91q0 -34 -9 -67t-26 -55
q-15 -24 -41 -36q-26 -13 -56 -13q-37 0 -66 18q-63 51 -63 207v324q-4 100 -19 144q-15 43 -45 45q-16 -2 -23 -17q-7 -16 -18 -58q-6 -27 -11 -43q-3 -26 -10 -72q-11 -68 -16 -112q-1 -8 -5 -52q-6 -67 -11 -121q-6 -61 -15 -123q-13 -47 -27 -75t-36 -44q-13 -8 -25 -12
q-13 -4 -32 -7l-8 -2q-59 0 -77 47q17 12 17 23t-9 11q-7 0 -12 -8t-5 -24q6 -23 30 -38q23 -15 54 -15q30 0 61 14q20 15 29 26q8 10 19 31q7 15 13 28q5 11 8 23q5 18 13 68q5 31 13 126q6 65 13 130q6 56 15 110t19 95q9 43 17 66q7 11 15 11q7 0 13 -10q6 -11 6 -23
v-422q0 -51 12 -112t35 -97q34 -38 61 -51t79 -14q55 9 81 37q26 27 43 85q3 24 3 46q0 27 -5 54q-6 26 -19 49q-12 16 -29 26q-17 9 -35 9q-40 0 -72 -46q-21 -34 -21 -75q0 -29 11 -63z" />
    <glyph glyph-name="c195" unicode="&#xc3;" 
 />
    <glyph glyph-name="c196" unicode="&#xc4;" horiz-adv-x="712" 
d="M483 122l6 5q-10 39 -10 60q0 25 14 62q13 25 33 39q19 13 41 13q34 0 60 -34q23 -37 23 -92q0 -34 -9 -66q-10 -33 -27 -55q-15 -24 -41 -36q-26 -13 -56 -13q-37 0 -66 18q-63 50 -63 207v323q-4 100 -19 144q-16 43 -46 45q-16 -2 -23 -17t-18 -58q-7 -27 -11 -42
q-3 -26 -10 -72q-11 -68 -16 -112q-1 -8 -5 -49q-4 -63 -10 -123q-7 -61 -17 -124q-12 -47 -26 -75t-37 -44q-13 -9 -24 -12q-12 -4 -33 -8q-2 0 -7 -1h-1q-59 0 -77 47q17 12 17 23t-9 11q-7 0 -12 -8t-5 -24q6 -23 30 -38q23 -15 54 -15q30 0 61 14q20 15 29 26t20 31
q15 31 21 51q5 19 13 68q5 31 13 126q6 65 13 130q6 56 15 110t19 95q9 42 17 65q7 11 15 11q7 0 13 -10q6 -11 6 -23v-421q0 -51 12 -112t35 -97q35 -38 62 -51t79 -14q56 9 82 37q26 27 42 85q3 25 3 47q0 59 -23 101q-27 36 -64 36q-41 0 -73 -47q-21 -33 -21 -74
q0 -29 11 -63zM574 419q-9 -15 -26 -25q-17 -11 -45 -21q-20 -4 -85 -4q-34 0 -99 1q-73 1 -93 1h-32q-12 -1 -21 -1q-34 0 -66 -23t-50 -51q6 5 16 15q13 12 23 19t27 12q18 4 46 5q31 1 71 1h61h65q78 0 120 4q26 6 44 17t28 22q9 10 12 18q3 6 4 10zM712 117v13
q-5 -10 -16 -22q-12 -13 -26 -24q-15 -13 -27 -22q-14 -10 -23 -14l-11 -11q8 3 22 11t30 20q17 13 30 25t21 24zM282 840q-18 0 -18 -18q0 -17 18 -17q16 0 16 17q0 18 -16 18zM366 840q-7 0 -12 -5q-6 -6 -6 -13q0 -17 18 -17q17 0 17 17q0 7 -5 13q-5 5 -12 5z" />
    <glyph glyph-name="c197" unicode="&#xc5;" 
 />
    <glyph glyph-name="c198" unicode="&#xc6;" 
 />
    <glyph glyph-name="c199" unicode="&#xc7;" horiz-adv-x="588" 
d="M373 -198q48 0 73 18q25 19 25 45q0 23 -18 41q-19 18 -51 21v69h-28v-74q32 -1 48 -17q15 -15 15 -37q0 -23 -14 -42q-15 -18 -35 -18q-8 0 -15 3v-9zM368 122q-5 14 -8 35q-3 20 -3 41q0 44 26 74q25 29 61 31q42 -2 68 -35q25 -33 25 -98q0 -16 -2 -39q-7 -50 -43 -86
t-98 -45q-29 0 -52 10q-24 10 -42 27q-18 16 -30 34q-13 16 -27 41q-9 14 -14 21q-37 110 -37 212q0 66 14 119q13 53 34 95q44 85 96 134q51 48 115 48h9q5 -1 9 -1q39 -10 55 -33q16 -24 16 -56q0 -22 -7 -49q-8 -27 -22 -59q-49 -89 -116 -136q-68 -47 -155 -47
q-44 0 -112 17q-64 27 -95 71q-32 44 -32 95q0 59 39 113q39 53 105 82h13q-75 -39 -112 -89q-37 -51 -37 -104q0 -36 16 -68t46 -57q29 -25 70 -39q40 -14 88 -14q69 0 127 30q57 30 97 77q39 47 60 96q20 49 20 84q0 16 -5 29q-12 26 -31 38t-43 12q-19 0 -34 -3
q-16 -3 -36 -13q-29 -22 -47 -46t-36 -65q-16 -38 -25 -77q-9 -40 -16 -102q-1 -29 -2 -55q-1 -30 -1 -71q0 -79 6 -138q6 -60 20 -81q19 -37 42 -54q23 -18 59 -23q51 5 89 34q37 28 50 67q7 32 7 62q0 45 -14 78q-14 32 -35 42q-18 10 -37 10q-24 0 -44 -15
q-21 -16 -32 -46q-5 -15 -5 -49q0 -36 9 -60zM587 117v13q-12 -18 -38 -40t-52 -37l-16 -16q8 2 23 11q14 9 30 21q16 13 30 25q15 13 23 23z" />
    <glyph glyph-name="c200" unicode="&#xc8;" horiz-adv-x="428" 
d="M115 733q-37 -14 -66 -41q-30 -27 -36 -71q0 -38 28 -67q28 -30 73 -34q87 0 148 25q60 25 97 71q22 31 22 59q0 34 -32 51q-19 4 -36 4q-45 0 -76 -26q-31 -27 -49 -73q-16 -56 -16 -109q0 -36 6 -84q4 -21 22 -31q18 -11 39 -11q17 0 29 6q11 5 11 15q-8 20 -44 20
q-42 0 -96 -26q-41 -33 -58 -87q-18 -55 -18 -117q0 -38 5 -71q18 -62 55 -92q37 -31 85 -31q55 0 111 38q23 18 36 48q12 30 12 63q0 34 -13 64q-13 29 -37 48q-28 15 -57 15q-38 0 -64 -24q-26 -25 -26 -66q0 -14 3 -28l-7 -1q-5 18 -5 34q0 42 31 68q30 26 70 26
q51 0 81 -38q32 -49 32 -103q0 -41 -18 -76q-19 -36 -50 -57q-48 -25 -96 -25q-56 0 -104 32t-78 81q-26 62 -26 107q0 30 10 60q10 29 31 66q25 40 80 68q54 28 102 31q33 0 48 -8t15 -20q0 -14 -16 -25q-21 -6 -37 -6q-22 0 -41 11t-38 34q-37 43 -37 96q0 45 26 100
q23 49 70 82t99 33q15 0 30 -3q23 -6 34 -22q11 -17 11 -39q0 -25 -13 -49q-24 -36 -54 -59q-31 -24 -65 -37t-69 -18q-36 -6 -74 -6q-47 4 -80 37q-34 32 -35 74q0 40 34 76q33 35 81 45v-7zM428 117v13q-12 -18 -36 -38t-53 -38l-18 -16q9 3 24 12q15 8 32 20q16 11 30 23
q13 12 21 24zM169 887q0 -21 14 -38q13 -18 36 -31q22 -14 48 -23q26 -10 52 -17q18 -2 28 -2q21 0 21 12q-9 6 -32 16q-39 16 -60 34q-22 17 -22 49h-85z" />
    <glyph glyph-name="c201" unicode="&#xc9;" horiz-adv-x="428" 
d="M379 887h-85q0 -32 -21 -49t-61 -34q-25 -11 -33 -16q0 -12 22 -12q10 0 27 2q27 7 53 17q26 9 48 23q22 13 36 31q14 17 14 38zM428 117v13q-9 -16 -26 -30q-18 -15 -49 -37l-13 -9l-18 -16q9 3 24 12q14 8 32 20q16 12 30 24q13 12 20 23zM115 733v7q-48 -10 -81 -45
q-34 -36 -34 -76q1 -42 35 -74q33 -33 80 -37q38 0 74 6q35 5 69 18t65 37q31 23 55 59q13 24 13 49q0 22 -11 39q-11 16 -34 22q-15 3 -29 3q-53 0 -100 -33t-71 -82q-25 -55 -25 -99q0 -53 36 -97q20 -24 39 -34q18 -11 40 -11q16 0 38 6q16 11 16 25q0 12 -15 20t-49 8
q-48 -3 -102 -31q-55 -28 -80 -68q-21 -39 -31 -67q-10 -29 -10 -59q0 -45 26 -107q29 -49 78 -81q48 -32 105 -32q48 0 95 25q32 21 51 56q18 35 18 77q0 54 -32 103q-31 38 -81 38q-41 0 -71 -26q-31 -26 -31 -68q0 -16 5 -34l7 1q-3 13 -3 26q0 42 26 67t63 25
q30 0 58 -16q25 -18 38 -48q12 -30 12 -63t-12 -63t-35 -48q-56 -38 -112 -38q-48 0 -85 31q-37 30 -55 92q-5 33 -5 71q0 62 18 117q17 54 58 87q54 26 97 26q36 0 44 -20q-1 -10 -12 -16q-12 -6 -28 -6q-22 0 -40 11t-22 32q-6 46 -6 81q0 54 17 112q18 46 49 73
q30 26 75 26q18 0 37 -4q31 -16 31 -50q0 -28 -22 -60q-36 -46 -97 -71t-148 -25q-46 4 -73 34q-28 29 -28 67q6 43 36 71q29 27 66 41z" />
    <glyph glyph-name="c202" unicode="&#xca;" horiz-adv-x="428" 
d="M115 735q-37 -13 -66 -40q-30 -28 -36 -72q0 -38 28 -67q27 -30 73 -34q87 0 148 25q60 25 97 71q22 32 22 60q0 34 -32 50q-19 4 -36 4q-45 0 -75 -26q-31 -27 -49 -73q-17 -56 -17 -110q0 -35 6 -84q4 -21 22 -31q18 -11 39 -11q17 0 29 6q11 5 11 15q-8 21 -44 21
q-42 0 -96 -27q-41 -33 -58 -87q-18 -55 -18 -117q0 -38 5 -71q18 -62 55 -93t85 -31q55 0 111 38q23 18 36 48q12 30 12 63q0 34 -13 64t-37 48q-28 15 -57 15q-38 0 -64 -24q-26 -25 -26 -67q0 -13 3 -26l-7 -1q-5 18 -5 34q0 42 31 68q30 26 70 26q51 0 81 -38
q32 -49 32 -104q0 -41 -18 -76q-19 -36 -50 -57q-48 -25 -96 -25q-56 0 -104 32t-78 81q-26 62 -26 108q0 29 10 59t31 67q25 40 80 68q54 28 102 31q33 0 48 -8t15 -20q0 -14 -16 -24q-21 -6 -38 -6q-42 0 -78 45q-37 42 -37 96q0 44 26 100q23 49 70 82t100 33q15 0 30 -3
q22 -6 33 -22t11 -38q0 -26 -13 -50q-45 -67 -112 -93q-67 -27 -150 -27q-47 4 -80 37q-34 32 -35 74q0 40 34 76q33 35 81 45v-7zM428 117v13q-9 -15 -25 -29q-16 -13 -45 -34q-11 -8 -17 -13h-1l-19 -16q11 4 26 13q14 8 30 19q15 10 29 23q14 12 22 24zM272 842l137 -62
l-137 106l-112 -113z" />
    <glyph glyph-name="c203" unicode="&#xcb;" horiz-adv-x="431" 
d="M116 734v7q-47 -10 -81 -45q-34 -36 -34 -76q1 -42 35 -74q33 -33 81 -37q38 0 74 6q35 5 69 18t65 37q30 23 54 59q13 25 13 51q0 21 -10 37t-32 22q-15 3 -30 3q-54 0 -101 -33t-69 -82q-28 -55 -28 -101q0 -52 35 -95q20 -24 40 -34q19 -11 42 -11q16 0 39 6
q14 11 14 24q0 12 -15 20t-49 8q-49 -2 -103 -30q-55 -28 -79 -68q-21 -39 -31 -68q-11 -30 -11 -60q0 -45 28 -106q29 -49 77 -81t105 -32q48 0 95 25q32 21 51 57q19 35 19 76q0 54 -34 104q-30 38 -80 38q-41 0 -71 -27q-31 -27 -31 -71q0 -15 4 -31l9 2q-3 15 -3 28
q0 41 26 65q25 24 63 24q28 0 55 -15q25 -19 39 -49q13 -30 13 -63q0 -34 -12 -63q-13 -30 -36 -48q-56 -38 -111 -38q-48 0 -85 31q-38 30 -57 92q-4 33 -4 66q0 64 17 120t59 89q56 27 99 27q35 0 43 -20q-1 -10 -12 -16q-12 -6 -29 -6q-22 0 -40 11q-18 10 -22 31
q-6 44 -6 79q0 30 5 58q4 28 12 57q19 47 50 73q30 26 75 26q16 0 37 -4q32 -17 32 -53q0 -27 -20 -57q-37 -46 -99 -71t-150 -25q-46 4 -73 34q-27 29 -27 67q5 43 35 70q29 27 66 42zM430 117v13q-11 -17 -33 -34q-22 -18 -55 -41l-1 -1l-18 -16q11 4 26 13q15 8 30 18
q36 26 51 48zM338 862q-18 0 -18 -17t18 -17q6 0 12 5t6 12q0 8 -5 13q-6 4 -13 4zM254 862q-17 0 -17 -17t17 -17q16 0 16 17t-16 17z" />
    <glyph glyph-name="c204" unicode="&#xcc;" 
 />
    <glyph glyph-name="c205" unicode="&#xcd;" 
 />
    <glyph glyph-name="c206" unicode="&#xce;" horiz-adv-x="413" 
d="M299 624q4 46 20 75q16 28 47 37q5 3 10 3q14 0 14 -17q0 -14 -12 -30t-37 -31q-25 -7 -42 -7q-25 0 -39 13q-15 12 -36 44l-2 2q-9 13 -32 22q-24 8 -51 8q-36 0 -66 -14q-31 -14 -46 -43q-9 -13 -18 -36q-10 -23 -10 -48q0 -19 8 -37t25 -33q25 -15 49 -15q31 0 52 26
q20 26 20 75h-9q0 -40 -18 -68q-18 -29 -45 -29q-28 0 -50 19q-23 18 -23 58q0 9 2 20q4 39 32 76q28 36 66 36q11 0 22 -4q16 -6 27 -14q11 -9 25 -23q23 -23 46 -34q23 -12 68 -12h8h10q42 12 64 33q22 20 22 44q0 8 -3 16q-7 11 -22 11q-20 0 -46 -21t-49 -63
q-20 -37 -28 -105t-8 -157q0 -50 2 -125q2 -47 2 -66q0 -3 -1 -15v-8q-2 -62 -14 -100t-49 -61q-30 -15 -62 -15q-59 0 -105 51q18 9 18 22q0 12 -13 12q-5 0 -12 -4q-5 -5 -5 -11q0 -18 42 -50q2 -1 8 -5q17 -11 34 -18t38 -7q22 0 46 10q23 10 49 33q26 33 40 52
q13 20 20 42q7 21 11 49q3 26 5 79v15q1 161 1 343zM413 117v13q-21 -32 -67 -53t-124 -33l-4 -6q48 8 80 17q31 8 52 18q21 9 35 19q13 10 28 25zM207 846l133 -62l-133 106l-113 -113z" />
    <glyph glyph-name="c207" unicode="&#xcf;" horiz-adv-x="412" 
d="M283 855q-18 0 -18 -18q0 -19 18 -19q16 0 16 19q0 18 -16 18zM197 855q-6 0 -11 -5q-6 -6 -6 -13q0 -8 6 -13q5 -6 11 -6q8 0 14 6q6 5 6 13q0 7 -6 13q-6 5 -14 5zM299 620q4 45 20 74t46 38q5 3 10 3q15 0 15 -18q0 -13 -12 -29t-37 -31q-25 -7 -42 -7q-24 0 -38 12
q-15 12 -36 42q-1 1 -4 5q-9 14 -32 22t-51 8q-35 0 -65 -14q-31 -14 -46 -43q-10 -13 -19 -36t-9 -48q0 -19 8 -36q7 -18 24 -32q25 -15 50 -15q31 0 51 26q20 25 20 73h-8q0 -39 -18 -67t-45 -28q-28 0 -50 18q-23 18 -23 57q0 10 2 20q2 18 10 38t21 37t31 27
q17 10 36 10q11 0 21 -3q16 -6 27 -15q10 -8 25 -23q24 -23 47 -34q22 -12 65 -12q4 0 9 1h11q43 12 65 32t22 44q0 8 -3 16q-7 11 -22 11q-21 0 -47 -21t-49 -63q-20 -36 -27 -103q-8 -67 -8 -152q0 -49 2 -130q2 -49 2 -67q0 -3 -1 -14v-8q-3 -62 -15 -99t-48 -60
q-30 -15 -62 -15q-59 0 -105 51q18 9 18 22q0 11 -12 11q-6 0 -13 -4q-5 -5 -5 -11q0 -17 42 -49l3 -2q1 0 6 -3q16 -11 33 -18q16 -7 38 -7q21 0 45 10q23 10 49 33q27 32 40 53q13 20 21 41q7 20 11 48q3 27 5 78v15q1 161 1 341zM413 117l-1 13q-20 -32 -66 -53
q-47 -21 -125 -33l-3 -6q48 8 80 17q31 8 52 18q21 9 35 19q13 10 28 25z" />
    <glyph glyph-name="c208" unicode="&#xd0;" 
 />
    <glyph glyph-name="c209" unicode="&#xd1;" 
 />
    <glyph glyph-name="c210" unicode="&#xd2;" horiz-adv-x="482" 
d="M169 888q0 -21 14 -39q13 -18 36 -31q22 -14 48 -23q26 -10 52 -17q5 0 16 -1h10q24 0 24 11q-9 5 -32 15q-40 17 -61 35q-22 17 -22 50h-85zM130 708q-64 -88 -97 -187q-34 -100 -34 -196q0 -93 33 -171t98 -128q53 -27 100 -27q50 0 90 30t68 85q28 54 43 127
q15 71 17 157q0 180 -38 260q-39 80 -116 82q-43 -5 -76 -28t-54 -58q-22 -35 -32 -75q-11 -40 -11 -79q0 -33 8 -60q7 -28 21 -44q33 -30 65 -30q38 0 66 44q9 24 16 59t7 68q0 53 -18 87l-5 -5q15 -28 15 -84q0 -28 -5 -55q-5 -28 -15 -51q-11 -23 -27 -36
q-17 -14 -40 -14q-21 2 -30 29q-10 26 -10 69t8 91q8 49 19 84q9 28 42 52q32 24 68 24q42 0 77 -39q34 -40 51 -130q7 -62 7 -126q0 -89 -13 -170q-14 -82 -42 -141q-28 -56 -66 -85q-39 -29 -91 -29q-29 0 -62 9q-31 14 -53 44q-23 29 -37 71q-14 41 -20 90q-7 48 -7 103
q0 57 7 114q6 57 19 109q12 51 29 92q16 40 35 63zM482 117v13q-13 -24 -42 -40t-81 -24l-6 -9q58 12 87 25q28 13 42 35z" />
    <glyph glyph-name="c211" unicode="&#xd3;" 
 />
    <glyph glyph-name="c212" unicode="&#xd4;" horiz-adv-x="483" 
d="M483 117v13q-13 -24 -42 -40t-80 -24l-6 -9q58 12 87 26q28 13 41 34zM130 709q-64 -88 -97 -187q-34 -100 -34 -196q0 -93 33 -171q33 -79 98 -129q53 -27 100 -27q51 0 91 30t68 85q28 54 43 127q15 71 17 157v18q1 12 1 17q0 157 -39 232q-39 74 -116 77
q-43 -5 -76 -28q-34 -23 -55 -58q-22 -35 -32 -75q-11 -40 -11 -79q0 -34 8 -61q7 -28 22 -44q33 -31 65 -31q38 0 66 44q10 25 17 60q6 34 6 68q0 53 -18 87l-5 -5q15 -29 15 -85q0 -28 -5 -55q-5 -28 -15 -50q-10 -23 -27 -36q-17 -14 -40 -14q-21 2 -30 29q-10 26 -10 69
t8 91q8 49 19 84q9 28 42 52q32 24 68 24q43 0 78 -40q34 -40 51 -129q7 -61 7 -124q0 -89 -13 -171q-14 -83 -43 -143q-28 -56 -66 -85q-39 -29 -91 -29q-29 0 -62 9q-31 14 -53 44q-23 30 -37 71t-21 91q-7 49 -7 103q0 55 7 113q7 57 19 110q12 52 29 92t36 63zM273 841
l138 -62l-138 106l-113 -113z" />
    <glyph glyph-name="c213" unicode="&#xd5;" 
 />
    <glyph glyph-name="c214" unicode="&#xd6;" horiz-adv-x="481" 
d="M129 711q-63 -88 -97 -188t-34 -196q0 -94 33 -172q33 -79 98 -129q53 -27 100 -27q50 0 90 31q40 30 68 85q28 54 43 127q15 71 17 157v18q1 12 1 17q0 157 -39 232t-115 78q-43 -5 -76 -28q-33 -24 -54 -59q-22 -35 -32 -75q-11 -40 -11 -80q0 -33 8 -60q7 -28 21 -44
q33 -31 65 -31q38 0 66 45q9 24 16 58t7 68q0 54 -19 89l-4 -5q15 -29 15 -85q0 -28 -5 -56t-15 -50q-10 -23 -27 -36q-17 -14 -40 -14q-21 2 -30 29q-10 26 -10 70q0 43 8 91q8 49 19 84q9 28 42 52q32 24 68 24q42 0 77 -39q34 -40 51 -130q7 -60 7 -125q0 -89 -13 -172
q-14 -83 -42 -143q-28 -56 -67 -85t-91 -29q-28 0 -61 9q-30 14 -53 44t-37 72q-14 41 -20 91q-7 48 -7 103q0 57 7 114q6 58 19 110q12 51 29 92q16 40 35 63zM481 117v13q-12 -24 -41 -40q-30 -16 -81 -24l-6 -9q58 12 87 26q28 13 41 34zM254 865q-17 0 -17 -17t17 -17
q16 0 16 17t-16 17zM337 865q-18 0 -18 -17t18 -17q7 0 13 5t6 12q0 17 -19 17z" />
    <glyph glyph-name="c215" unicode="&#xd7;" 
d="M160 148l-81 81l-23 -23l82 -81l-84 -84l24 -24l84 84l83 -84l21 25l-82 82l83 83l-24 23z" />
    <glyph glyph-name="c216" unicode="&#xd8;" 
 />
    <glyph glyph-name="c217" unicode="&#xd9;" horiz-adv-x="885" 
d="M569 740v-386q0 -14 -3 -38l-4 -36q-1 -3 -3 -20q-6 -45 -8 -65q-8 -32 -21 -64q-14 -33 -31 -62q-18 -29 -39 -46q-21 -18 -43 -18q-41 6 -58 33q-18 27 -18 83v409q0 107 -42 159q-43 51 -145 51q-69 -2 -107 -48t-46 -123q0 -44 6 -80q5 -36 19 -63q14 -28 39 -43
q24 -16 61 -16t61 39q23 39 23 101q0 29 -6 59h-5q5 -29 5 -56q0 -60 -23 -100q-24 -40 -62 -40q-55 1 -82 49q-28 47 -28 114q0 52 16 98t42 67q43 33 93 33q54 0 92 -41q37 -41 37 -116v-392q2 -57 13 -93q10 -37 28 -56q17 -19 40 -26q22 -8 51 -8q27 2 55 30
q28 27 50 77q16 41 24 70q7 28 14 71q4 19 5 26v467zM885 117v13q-19 -40 -44 -59q-26 -19 -58 -27l-7 -8q39 3 66 27q26 23 43 54zM675 248q9 18 27 31q18 12 37 12q18 0 34 -10q15 -11 27 -33q11 -23 11 -67q0 -29 -6 -59t-18 -55q-13 -25 -33 -40q-21 -16 -48 -17
q-33 0 -58 17t-25 50v662h-54v-579q0 -74 34 -117t93 -43q34 0 57 15q22 14 35 37q13 22 20 45q6 22 11 51q0 1 2 10v10l1 9q0 61 -24 91t-62 32q-43 -3 -61 -37q-19 -34 -19 -84q0 -25 4 -49h9q-4 28 -4 49q0 16 2 28t6 31q1 7 2 10zM295 886q0 -21 14 -38q13 -18 35 -31
q22 -14 48 -23q25 -10 51 -17q19 -2 30 -2q20 0 20 9l-1 1v2q-9 6 -33 16q-40 17 -61 35q-21 17 -21 48h-82z" />
    <glyph glyph-name="c218" unicode="&#xda;" 
 />
    <glyph glyph-name="c219" unicode="&#xdb;" horiz-adv-x="883" 
d="M403 840l133 -62l-133 105l-115 -113zM674 248q8 18 26 31q18 12 38 12q17 0 33 -10q15 -11 27 -33q11 -23 11 -67q0 -29 -6 -59t-18 -55q-13 -25 -33 -40q-21 -16 -48 -17q-33 0 -57 17q-25 17 -25 50v663h-55v-580q0 -74 34 -117t93 -43q34 0 57 15q22 14 35 37
q13 22 20 45q6 22 11 51q0 1 2 10v10l1 9q0 61 -24 91t-62 32q-43 -3 -61 -37q-19 -34 -19 -83q0 -25 4 -50h10q-5 28 -5 51q0 16 3 29q2 12 6 31zM883 117v13q-19 -39 -44 -58t-58 -28l-7 -7q38 3 65 26t44 54zM567 741v-386q0 -18 -3 -43q-2 -17 -8 -64l-2 -14l-5 -38
q-7 -31 -20 -65q-14 -33 -31 -62q-18 -29 -39 -46q-21 -18 -43 -18q-41 6 -58 34q-18 27 -18 83v409q0 107 -42 159q-43 51 -144 51q-69 -2 -107 -48t-46 -123q0 -44 6 -80q5 -36 19 -63q14 -28 39 -44q24 -16 61 -16t60 39t23 99q0 30 -6 61h-5q6 -29 6 -56q0 -60 -23 -99
q-24 -40 -62 -40q-54 1 -82 48t-28 114q0 52 16 98t42 68q43 33 92 33q54 0 92 -41q37 -41 37 -116v-393q2 -56 13 -92q10 -37 28 -56q17 -20 40 -27q22 -8 51 -8q27 2 55 30q28 27 50 77q17 41 24 71t15 75q0 4 3 21v468z" />
    <glyph glyph-name="c220" unicode="&#xdc;" horiz-adv-x="879" 
d="M565 744v-388q0 -16 -3 -43q-3 -24 -8 -66q-5 -33 -7 -51q-8 -32 -21 -64q-14 -33 -31 -63q-18 -29 -38 -46q-21 -18 -43 -18q-41 6 -58 34q-18 27 -18 83v411q0 107 -42 159q-43 52 -143 52q-69 -3 -106 -49q-38 -47 -46 -123q0 -44 6 -80q5 -36 19 -64q13 -28 38 -44
q24 -16 61 -16t60 40q23 39 23 99q0 30 -6 61h-4q5 -29 5 -56q0 -60 -23 -100q-24 -40 -62 -40q-54 1 -81 49q-28 47 -28 115q0 52 16 98q15 46 41 67q44 34 93 34q54 0 91 -41q37 -42 37 -117v-394q2 -57 12 -93q10 -37 28 -56q17 -20 40 -27q22 -8 51 -8q26 2 54 30
q28 27 51 77q16 39 23 68t14 69q3 23 5 31v470zM879 117v13q-19 -39 -44 -58t-57 -28l-7 -7q38 3 65 26t43 54zM671 249q8 18 26 31q18 12 37 12q17 0 33 -10q16 -11 28 -33q11 -23 11 -67q0 -30 -6 -59q-6 -30 -18 -55q-13 -26 -33 -41q-21 -16 -48 -17q-33 0 -57 18
q-25 17 -25 49v666h-54v-582q0 -74 34 -117q34 -44 92 -44q34 0 57 15t36 38t19 47q6 22 11 53l1 6v10l1 9q0 61 -24 91t-61 32q-43 -3 -61 -37q-19 -34 -19 -84q0 -25 4 -49h10q-5 28 -5 50q0 17 2 29t8 33q1 4 1 6zM478 863q-17 0 -17 -17t17 -17q7 0 12 6q5 5 5 11
q0 17 -17 17zM364 863q-17 0 -17 -17q0 -6 5 -11q5 -6 12 -6q6 0 12 6q6 5 6 11q0 8 -5 13q-6 4 -13 4z" />
    <glyph glyph-name="c221" unicode="&#xdd;" 
 />
    <glyph glyph-name="c222" unicode="&#xde;" 
 />
    <glyph glyph-name="c223" unicode="&#xdf;" 
 />
    <glyph glyph-name="c224" unicode="&#xe0;" horiz-adv-x="292" 
d="M292 116v14q-9 -33 -36 -90q-11 -17 -20 -23q-9 -7 -22 -7q-16 1 -20 7q-5 5 -6 18q0 7 -1 10v202h-49v-198q1 -1 2 -5q8 -19 22 -30q14 -12 49 -12q20 6 28 11q7 5 17 20q4 6 9 17t11 23l10 26q5 12 6 17zM138 86l1 -19l-5 -8q-16 -30 -29 -46q-17 -13 -37 -13
q-18 0 -34 11q-21 20 -29 41q-9 21 -13 45q0 7 -1 12q0 56 23 94q19 28 36 36q16 8 31 8q19 0 30 -9q11 -10 20 -25q5 -7 7 -9v-14q-11 28 -25 40q-14 11 -28 11q-9 0 -16 -4q-6 -5 -10 -12q-5 -8 -13 -29q-5 -19 -6 -31q-2 -13 -5 -34l-1 -13q1 -8 2 -24q1 -25 5 -37
q3 -13 15 -33q13 -13 26 -13q11 0 21 8t18 22q14 23 17 45zM29 399q12 -36 36 -63q23 -27 42 -38q11 -8 37 -8q23 0 23 5q0 2 -3 3q-36 18 -46 37q-11 18 -13 64h-76z" />
    <glyph glyph-name="c225" unicode="&#xe1;" 
 />
    <glyph glyph-name="c226" unicode="&#xe2;" horiz-adv-x="301" 
d="M186 299v25q-16 5 -39 24q-24 18 -35 34q-15 -21 -36 -43t-51 -39q32 7 53 20q20 13 29 29q12 -15 38 -32q26 -18 41 -18zM301 116v14q-7 -33 -36 -90q-12 -17 -21 -23q-9 -7 -21 -7q-15 1 -19 7q-5 5 -6 17q-1 8 -2 11v202h-49v-198q0 -1 1 -4q7 -18 22 -30
q14 -13 51 -13q19 6 27 11q7 5 17 20q4 7 9 16q6 15 9 21l2 5q7 16 11 27t5 14zM146 86l2 -19q-15 -31 -34 -54q-18 -13 -37 -13q-17 0 -34 11q-20 20 -29 42q-10 21 -13 44q0 6 -1 12q0 57 24 94q18 28 34 36t30 8q20 0 31 -9q11 -10 21 -25q4 -8 6 -9l1 -14q-12 28 -26 40
q-15 11 -29 11q-8 0 -14 -4q-5 -5 -9 -11q-4 -7 -13 -28l-1 -2q-6 -27 -8 -38t-4 -40q0 -3 1 -15l1 -6q1 -26 5 -39q3 -14 15 -34q12 -13 26 -13q10 0 20 8t17 21q7 12 12 25q5 12 6 21z" />
    <glyph glyph-name="c227" unicode="&#xe3;" 
 />
    <glyph glyph-name="c228" unicode="&#xe4;" horiz-adv-x="301" 
d="M58 345q-8 0 -15 -7q-7 -8 -7 -16q0 -11 7 -17q6 -7 15 -7q24 0 24 24q0 8 -6 16q-7 7 -18 7zM149 345q-8 0 -15 -7q-7 -8 -7 -16q0 -11 7 -17q6 -7 15 -7q24 0 24 24q0 8 -6 16q-7 7 -18 7zM146 86l2 -19q-15 -31 -34 -54q-18 -13 -37 -13q-17 0 -34 11q-20 20 -29 42
q-10 21 -13 44q0 6 -1 12q0 57 24 94q18 28 34 36t30 8q20 0 31 -9q11 -10 21 -25q4 -8 6 -9l1 -14q-12 28 -26 40q-15 11 -29 11q-8 0 -14 -4q-5 -5 -9 -11q-4 -7 -13 -28l-1 -2q-6 -27 -8 -38t-4 -40q0 -3 1 -15l1 -6q1 -26 5 -39q3 -14 15 -34q12 -13 26 -13q10 0 20 8
t17 21q7 12 12 25q5 12 6 21zM301 116v14q-7 -33 -36 -90q-12 -17 -21 -23q-9 -7 -21 -7q-15 1 -19 7q-5 5 -6 17q-1 8 -2 11v202h-49v-198q0 -1 1 -4q7 -18 22 -30q14 -13 51 -13q19 6 27 11q7 5 17 20q4 7 9 16q6 15 9 21l2 5q7 16 11 27t5 14z" />
    <glyph glyph-name="c229" unicode="&#xe5;" 
 />
    <glyph glyph-name="c230" unicode="&#xe6;" horiz-adv-x="370" 
d="M159 86q3 -39 23 -62t63 -24q19 0 33 1h14q17 7 25 12q7 5 17 18q13 15 22 38q8 24 15 46v1v14q-4 -19 -14 -47t-23 -47q-12 -13 -19 -19q-8 -6 -20 -9q-12 -4 -36 -4q-26 6 -37 29q-11 22 -11 83q1 67 17 95q15 27 46 31q19 0 31 -14q12 -15 12 -35q0 -29 -25 -46l-6 -3
q-16 -7 -30 -10q-15 -4 -44 -4l-1 -9q72 4 100 32q12 24 12 43q0 25 -16 39q-17 13 -35 13q-6 0 -10 -2q-12 0 -29 -8t-38 -34v43h-40zM159 84v-5q-13 -37 -38 -66q-18 -13 -37 -13q-17 0 -35 11q-37 40 -39 86q0 6 -1 12q0 62 23 94q18 28 34 36t30 8q21 0 32 -10t20 -25
q3 -6 5 -8l2 -14q-12 28 -26 40q-15 11 -28 11q-9 0 -15 -4q-5 -5 -9 -11q-4 -7 -13 -28l-1 -2q-6 -26 -8 -37q-2 -10 -5 -41q1 -9 2 -28q2 -23 5 -35t15 -31q13 -13 26 -13q20 0 36 24q15 23 25 49z" />
    <glyph glyph-name="c231" unicode="&#xe7;" horiz-adv-x="223" 
d="M107 -1q27 5 38 11q10 5 24 19q1 1 4 3q22 23 50 84v14q-1 -3 -2 -5q-16 -38 -24 -52t-26 -34q-16 -17 -27 -23q-12 -7 -38 -9h-4l-3 -1q-11 0 -20 5q-9 4 -14 10q-12 12 -15 32q-4 19 -6 60v3v5q2 26 4 39q1 13 6 35q10 23 14 30t10 10q5 5 16 5q17 0 34 -14
q11 -9 17 -38l-1 2q-3 7 -8 7h-3q-2 -1 -3 -1q-6 0 -6 -8q0 -4 3 -7q7 -7 13 -7q5 0 9 4q3 3 3 8q0 3 -2 9q-1 6 -1 8q-6 17 -19 32q-11 6 -20 9q-9 2 -22 2q-16 0 -32 -8q-17 -9 -32 -35q-21 -38 -24 -95v-5q3 -29 12 -50q9 -22 31 -41q18 -8 34 -10q17 -3 30 -3zM74 -198
q48 0 73 18q25 19 25 45q0 23 -18 41q-19 18 -51 21v63h-28v-68q32 -1 48 -17q15 -15 15 -37q0 -23 -14 -42q-15 -18 -35 -18q-8 0 -15 3v-9z" />
    <glyph glyph-name="c232" unicode="&#xe8;" horiz-adv-x="204" 
d="M31 399q12 -36 36 -63q23 -27 42 -38q11 -8 37 -8q23 0 23 5q0 2 -3 3q-36 18 -46 37q-11 18 -13 64h-76zM127 8q-12 -4 -36 -4q-27 6 -37 29q-11 22 -11 83q1 68 16 95t47 31q19 0 31 -14q12 -15 12 -35q0 -29 -25 -46l-6 -3q-16 -7 -31 -10q-16 -4 -51 -4l2 -9
q40 2 66 11q25 8 38 21q13 24 13 45q0 23 -16 37q-16 13 -34 13q-6 0 -10 -2q-11 0 -25 -4q-15 -4 -31 -18t-27 -43q-11 -30 -12 -77q6 -48 26 -75t67 -29q8 0 16 1h15q17 7 24 12t18 18q12 16 23 43t15 42v14q-4 -16 -15 -45q-11 -31 -23 -49q-1 -1 -3 -4q-11 -11 -18 -16
t-18 -8z" />
    <glyph glyph-name="c233" unicode="&#xe9;" horiz-adv-x="204" 
d="M174 399h-76q-1 -46 -12 -64q-11 -19 -47 -37q-3 -1 -3 -3q0 -5 23 -5q26 0 37 8q19 11 43 38q23 27 35 63zM127 8q-12 -4 -36 -4q-27 6 -37 29q-11 22 -11 83q1 68 16 95t47 31q19 0 31 -14q12 -15 12 -35q0 -29 -25 -46l-6 -3q-16 -7 -31 -10q-16 -4 -51 -4l2 -9
q40 2 66 11q25 8 38 21q13 24 13 45q0 23 -16 37q-16 13 -34 13q-6 0 -10 -2q-11 0 -25 -4q-15 -4 -31 -18t-27 -43q-11 -30 -12 -77q6 -48 26 -75t67 -29q8 0 16 1h15q17 7 24 12t18 18q12 16 23 43t15 42v14q-4 -16 -15 -45q-11 -31 -23 -49q-1 -1 -3 -4q-11 -11 -18 -16
t-18 -8z" />
    <glyph glyph-name="c234" unicode="&#xea;" horiz-adv-x="204" 
d="M165 299v25q-16 5 -39 24q-24 18 -35 34q-15 -21 -36 -43t-51 -39q32 7 53 20q20 13 29 29q12 -15 38 -32q26 -18 41 -18zM127 8q-12 -4 -36 -4q-27 6 -37 29q-11 22 -11 83q1 68 16 95t47 31q19 0 31 -14q12 -15 12 -35q0 -29 -25 -46l-6 -3q-16 -7 -31 -10
q-16 -4 -51 -4l2 -9q40 2 66 11q25 8 38 21q13 24 13 45q0 23 -16 37q-16 13 -34 13q-6 0 -10 -2q-11 0 -25 -4q-15 -4 -31 -18t-27 -43q-11 -30 -12 -77q6 -48 26 -75t67 -29q8 0 16 1h15q17 7 24 12t18 18q12 16 23 43t15 42v14q-4 -16 -15 -45q-11 -31 -23 -49
q-1 -1 -3 -4q-11 -11 -18 -16t-18 -8z" />
    <glyph glyph-name="c235" unicode="&#xeb;" horiz-adv-x="204" 
d="M123 345q-8 0 -15 -7q-7 -8 -7 -16q0 -11 7 -17q6 -7 15 -7q24 0 24 24q0 8 -6 16q-7 7 -18 7zM32 345q-8 0 -15 -7q-7 -8 -7 -16q0 -11 7 -17q6 -7 15 -7q24 0 24 24q0 8 -6 16q-7 7 -18 7zM127 8q-12 -4 -36 -4q-27 6 -37 29q-11 22 -11 83q1 68 16 95t47 31
q19 0 31 -14q12 -15 12 -35q0 -29 -25 -46l-6 -3q-16 -7 -31 -10q-16 -4 -51 -4l2 -9q40 2 66 11q25 8 38 21q13 24 13 45q0 23 -16 37q-16 13 -34 13q-6 0 -10 -2q-11 0 -25 -4q-15 -4 -31 -18t-27 -43q-11 -30 -12 -77q6 -48 26 -75t67 -29q8 0 16 1h15q17 7 24 12t18 18
q12 16 23 43t15 42v14q-4 -16 -15 -45q-11 -31 -23 -49q-1 -1 -3 -4q-11 -11 -18 -16t-18 -8z" />
    <glyph glyph-name="c236" unicode="&#xec;" 
 />
    <glyph glyph-name="c237" unicode="&#xed;" 
 />
    <glyph glyph-name="c238" unicode="&#xee;" horiz-adv-x="194" 
d="M129 299v25q-15 5 -35 24q-20 18 -30 34q-12 -19 -30 -42q-19 -23 -46 -40q57 14 71 49q12 -15 34 -32q22 -18 36 -18zM-1 128v-7l40 67v11zM116 10q-19 0 -24 8t-6 24v2v203h-47v-198q0 -1 1 -3q5 -20 18 -32q12 -13 44 -13h6h6q19 6 27 12q7 5 16 19q10 15 23 45
q12 29 14 39v14q-5 -19 -16 -46q-11 -28 -21 -45q-11 -16 -20 -22q-9 -7 -21 -7z" />
    <glyph glyph-name="c239" unicode="&#xef;" horiz-adv-x="192" 
d="M22 345q-8 0 -15 -7q-7 -8 -7 -16q0 -11 7 -17q6 -7 15 -7q24 0 24 24q0 8 -6 16q-7 7 -18 7zM96 345q-8 0 -15 -7q-7 -8 -7 -16q0 -11 7 -17q6 -7 15 -7q24 0 24 24q0 8 -6 16q-7 7 -18 7zM-1 128v-7l40 67v11zM115 10q-19 0 -24 8t-6 24v2v203h-47v-198q0 -1 1 -3
q5 -19 18 -32q12 -13 44 -13h5h6q20 6 28 11q7 5 17 20q9 16 21 46q12 28 14 38v14q-4 -18 -14 -45q-11 -27 -21 -46q-11 -16 -20 -22q-10 -7 -22 -7z" />
    <glyph glyph-name="c240" unicode="&#xf0;" 
 />
    <glyph glyph-name="c241" unicode="&#xf1;" 
 />
    <glyph glyph-name="c242" unicode="&#xf2;" 
 />
    <glyph glyph-name="c243" unicode="&#xf3;" 
 />
    <glyph glyph-name="c244" unicode="&#xf4;" horiz-adv-x="259" 
d="M165 299v25q-16 5 -39 24q-24 18 -35 34q-15 -21 -36 -43t-51 -39q32 7 53 20q20 13 29 29q12 -15 38 -32q26 -18 41 -18zM259 121v7q-27 -17 -50 -17q-17 0 -24 10q-5 26 -9 41q-4 14 -10 26q-2 11 -16 11q-8 0 -14 -8t-6 -26q4 -24 27 -41q22 -17 52 -17q26 0 50 14z
M72 16q-16 20 -21 41q-5 20 -7 60v6q2 26 4 39q1 12 6 33q9 23 13 30t11 11q10 6 26 6q9 0 22 -9q13 -10 26 -32q10 -17 15 -41q5 -25 5 -51q-3 -55 -42 -91q-18 -12 -33 -12q-13 0 -25 10zM177 109q0 26 -6 49t-15 44q-15 28 -33 37q-19 8 -34 8q-16 0 -32 -8
q-17 -8 -33 -36q-23 -40 -24 -94q0 -6 1 -13q2 -22 10 -42q8 -21 23 -34l1 -1q13 -7 18 -9q5 -3 17 -7q13 -2 23 -2q19 0 43 13q19 21 29 44q9 22 12 51z" />
    <glyph glyph-name="c245" unicode="&#xf5;" 
 />
    <glyph glyph-name="c246" unicode="&#xf6;" horiz-adv-x="259" 
d="M123 345q-8 0 -15 -7q-7 -8 -7 -16q0 -11 7 -17q6 -7 15 -7q24 0 24 24q0 8 -6 16q-7 7 -18 7zM32 345q-8 0 -15 -7q-7 -8 -7 -16q0 -11 7 -17q6 -7 15 -7q24 0 24 24q0 8 -6 16q-7 7 -18 7zM259 121v7q-27 -17 -50 -17q-17 0 -24 10q-5 26 -9 41q-4 14 -10 26
q-2 11 -16 11q-8 0 -14 -8t-6 -26q4 -24 27 -41q22 -17 52 -17q26 0 50 14zM72 16q-16 20 -21 41q-5 20 -7 60v6q2 26 4 39q1 12 6 33q9 23 13 30t11 11q10 6 26 6q9 0 22 -9q13 -10 26 -32q10 -17 15 -41q5 -25 5 -51q-3 -55 -42 -91q-18 -12 -33 -12q-13 0 -25 10z
M177 109q0 26 -6 49t-15 44q-15 28 -33 37q-19 8 -34 8q-16 0 -32 -8q-17 -8 -33 -36q-23 -40 -24 -94q0 -6 1 -13q2 -22 10 -42q8 -21 23 -34l1 -1q13 -7 18 -9q5 -3 17 -7q13 -2 23 -2q19 0 43 13q19 21 29 44q9 22 12 51z" />
    <glyph glyph-name="c247" unicode="&#xf7;" 
d="M150 95q-7 0 -13 -5q-7 -6 -7 -14t7 -15q6 -7 13 -7t14 7q6 7 6 15t-6 14q-7 5 -14 5zM150 218q-7 0 -13 -5q-7 -6 -7 -14t7 -15q6 -7 13 -7t14 7q6 7 6 15t-6 14q-7 5 -14 5zM55 113h199v32h-199v-32z" />
    <glyph glyph-name="c248" unicode="&#xf8;" 
 />
    <glyph glyph-name="c249" unicode="&#xf9;" horiz-adv-x="295" 
d="M16 399q12 -36 36 -63q23 -27 42 -38q11 -8 37 -8q23 0 23 5q0 2 -3 3q-36 18 -46 37q-11 18 -13 64h-76zM0 246v-197q1 -1 3 -6q7 -19 23 -30q15 -12 56 -12q1 1 3 2q29 18 46 36q16 17 32 59l-3 -5q-25 -43 -38 -58q-14 -16 -38 -25q-3 0 -7 -1h-5q-13 0 -16 6
q-4 5 -5 16q-1 7 -2 13v202h-49zM215 10q-16 0 -20 6q-4 5 -6 19q0 6 -1 9v202h-49v-197q1 -2 2 -6q7 -19 19 -30q12 -12 41 -12h5h6q20 5 27 10t18 21q14 20 25 45q10 25 13 39v14q-5 -20 -13 -41q-9 -21 -25 -50q-10 -16 -19 -22q-10 -7 -23 -7z" />
    <glyph glyph-name="c250" unicode="&#xfa;" 
 />
    <glyph glyph-name="c251" unicode="&#xfb;" horiz-adv-x="295" 
d="M168 299v25q-16 5 -39 24q-24 18 -35 34q-15 -21 -36 -43t-51 -39q32 7 53 20q20 13 29 29q12 -15 38 -32q26 -18 41 -18zM0 246v-197q1 -1 3 -6q7 -19 23 -30q15 -12 56 -12q1 1 3 2q29 18 46 36q16 17 32 59l-3 -5q-25 -43 -38 -58q-14 -16 -38 -25q-3 0 -7 -1h-5
q-13 0 -16 6q-4 5 -5 16q-1 7 -2 13v202h-49zM215 10q-16 0 -20 6q-4 5 -6 19q0 6 -1 9v202h-49v-197q1 -2 2 -6q7 -19 19 -30q12 -12 41 -12h5h6q20 5 27 10t18 21q14 20 25 45q10 25 13 39v14q-5 -20 -13 -41q-9 -21 -25 -50q-10 -16 -19 -22q-10 -7 -23 -7z" />
    <glyph glyph-name="c252" unicode="&#xfc;" horiz-adv-x="295" 
d="M48 345q-8 0 -15 -7q-7 -8 -7 -16q0 -11 7 -17q6 -7 15 -7q24 0 24 24q0 8 -6 16q-7 7 -18 7zM0 246v-197q1 -1 3 -6q7 -19 23 -30q15 -12 56 -12q1 1 3 2q29 18 46 36q16 17 32 59l-3 -5q-25 -43 -38 -58q-14 -16 -38 -25q-3 0 -7 -1h-5q-13 0 -16 6q-4 5 -5 16
q-1 7 -2 13v202h-49zM215 10q-16 0 -20 6q-4 5 -6 19q0 6 -1 9v202h-49v-197q1 -2 2 -6q7 -19 19 -30q12 -12 41 -12h5h6q20 5 27 10t18 21q14 20 25 45q10 25 13 39v14q-5 -20 -13 -41q-9 -21 -25 -50q-10 -16 -19 -22q-10 -7 -23 -7zM139 345q-8 0 -15 -7q-7 -8 -7 -16
q0 -11 7 -17q6 -7 15 -7q24 0 24 24q0 8 -6 16q-7 7 -18 7z" />
    <glyph glyph-name="c253" unicode="&#xfd;" 
 />
    <glyph glyph-name="c254" unicode="&#xfe;" 
 />
    <glyph glyph-name="c255" unicode="&#xff;" 
 />
  </font>
</defs>
</svg>
